M48
INCH
T1C0.0118
T2C0.0118
T3C0.0150
T4C0.0200
T5C0.0236
%
G90
G05
T1
X5.9252Y-1.6024
X5.9252Y-1.7362
X5.9252Y-1.8701
X5.9252Y-2.0039
X5.9252Y-2.1378
X5.9252Y-2.2047
X5.9252Y-2.2717
X5.9252Y-2.3386
X5.9252Y-2.4055
X5.9252Y-2.4724
X5.9252Y-2.5079
X5.9259Y-2.5404
X5.9557Y-2.311
X5.9606Y-2.5079
X5.9646Y-2.1181
X5.9764Y-2.3425
X5.9843Y-1.811
X5.9882Y-1.937
X5.9882Y-1.9898
X5.9941Y-2.0295
X5.9951Y-2.0709
X5.9961Y-1.6732
X5.9961Y-2.5079
X6.001Y-2.1181
X6.0039Y-2.3898
X6.0079Y-2.5366
X6.0157Y-2.3425
X6.0197Y-2.1575
X6.0236Y-1.9646
X6.0236Y-2.5039
X6.0394Y-1.5945
X6.0394Y-1.752
X6.0413Y-2.4065
X6.0433Y-2.0276
X6.0433Y-2.315
X6.0472Y-2.4764
X6.0551Y-2.1772
X6.0551Y-2.2087
X6.063Y-1.9646
X6.0669Y-2.0787
X6.0772Y-2.4236
X6.0827Y-2.5394
X6.0837Y-2.4656
X6.0886Y-2.1063
X6.0925Y-2.0453
X6.0929Y-2.3929
X6.0965Y-2.0138
X6.1043Y-2.0768
X6.1043Y-2.5236
X6.1063Y-1.9626
X6.1112Y-2.4469
X6.1122Y-2.4183
X6.1142Y-2.3177
X6.1142Y-2.3425
X6.1181Y-2.124
X6.126Y-2.5394
X6.1311Y-1.9925
X6.1398Y-2.5157
X6.1575Y-1.8614
X6.1575Y-2.2018
X6.1575Y-2.2431
X6.1604Y-1.9819
X6.1634Y-2.497
X6.1693Y-2.4144
X6.1693Y-2.5394
X6.19Y-1.9925
X6.1906Y-2.4787
X6.1919Y-2.2421
X6.1929Y-2.1673
X6.1929Y-2.2018
X6.2008Y-2.4252
X6.2028Y-2.0817
X6.2126Y-2.5394
X6.2136Y-2.4567
X6.2313Y-2.4911
X6.2323Y-2.1673
X6.2323Y-2.2018
X6.2323Y-2.2431
X6.2333Y-2.2766
X6.2421Y-2.3477
X6.2461Y-2.4469
X6.2466Y-2.3814
X6.2488Y-1.9913
X6.2559Y-2.5394
X6.2648Y-2.4183
X6.2667Y-2.2018
X6.2667Y-2.2421
X6.2717Y-1.9055
X6.2787Y-1.989
X6.2795Y-2.3533
X6.2953Y-2.4685
X6.2963Y-2.3184
X6.2976Y-2.1268
X6.2992Y-1.9252
X6.3022Y-2.5394
X6.3207Y-2.3428
X6.3268Y-1.9055
X6.337Y-2.252
X6.3465Y-2.5394
X6.3472Y-2.3732
X6.3494Y-2.04
X6.3543Y-1.9252
X6.372Y-2.127
X6.378Y-2.3142
X6.378Y-2.4961
X6.3898Y-2.5394
X6.4016Y-2.2402
X6.402Y-2.4171
X6.4281Y-2.0291
X6.4281Y-2.314
X6.4331Y-2.5394
X6.4335Y-1.9961
X6.437Y-2.127
X6.4528Y-2.2402
X6.4547Y-2.4169
X6.4717Y-1.8614
X6.4764Y-2.5394
X6.4783Y-2.0285
X6.4783Y-2.314
X6.4854Y-1.9815
X6.5035Y-2.1461
X6.5035Y-2.1929
X6.5039Y-2.2402
X6.5128Y-1.939
X6.5157Y-2.315
X6.5197Y-2.5394
X6.5264Y-2.1697
X6.5278Y-2.0287
X6.5335Y-2.1254
X6.5433Y-1.9764
X6.5551Y-2.3504
X6.563Y-2.5394
X6.5669Y-2.2234
X6.5708Y-1.8661
X6.5709Y-1.9587
X6.5709Y-2.0177
X6.5787Y-1.7323
X6.5902Y-2.3967
X6.6327Y-2.2634
X6.636Y-1.999
X6.6378Y-2.0582
X6.6378Y-2.1161
X6.6496Y-2.3504
X6.6693Y-1.7047
X6.6748Y-2.4173
X6.6772Y-1.5945
X6.6959Y-2.062
X6.7047Y-1.8583
X6.7126Y-1.9606
X6.7138Y-2.3122
X6.7283Y-2.2283
X6.7352Y-2.1014
X6.8031Y-1.7126
X6.811Y-1.5945
X6.811Y-1.8425
X6.8268Y-2.0512
X6.8307Y-2.374
X6.8356Y-2.2362
X6.8465Y-2.4252
X6.878Y-2.311
X6.8898Y-2.126
X6.9016Y-1.6654
X6.9094Y-1.7559
X6.9193Y-1.9016
X6.9449Y-1.5945
X6.9516Y-2.1929
X6.9715Y-2.2943
X7.0Y-1.8386
X7.0433Y-2.122
X7.1142Y-1.7835
X7.1142Y-2.5079
X7.122Y-2.0315
X7.122Y-2.0748
X7.1457Y-1.5945
X7.1614Y-1.8573
X7.1747Y-1.9705
X7.2283Y-1.9957
X7.2795Y-1.5945
X7.3228Y-2.0866
X7.3425Y-1.7116
X7.3622Y-2.622
X7.3937Y-2.189
X7.4134Y-1.5945
X7.4134Y-1.9203
X7.4606Y-1.6693
X7.4606Y-1.8031
X7.4606Y-1.937
X7.4606Y-2.0709
X7.4606Y-2.2047
X7.4606Y-2.3386
X7.4606Y-2.4724
T2
X5.9646Y-2.5413
T3
X7.0456Y-1.6983
X7.0945Y-1.9114
X7.0945Y-1.9508
T4
X6.0433Y-1.9004
X6.4715Y-1.9016
X6.9882Y-1.6969
X6.9941Y-1.8957
X7.1024Y-1.6929
T5
G00X6.0929Y-1.6811
M15
G01X6.0929Y-1.6339
M16
G05
G00X6.0937Y-1.8307
M15
G01X6.0937Y-1.7992
M16
G05
G00X6.5346Y-1.8307
M15
G01X6.5346Y-1.7992
M16
G05
G00X6.5354Y-1.6811
M15
G01X6.5354Y-1.6339
M16
G05
T0
M30
