%TF.GenerationSoftware,KiCad,Pcbnew,7.0.7*%
%TF.CreationDate,2023-12-08T19:41:31-05:00*%
%TF.ProjectId,pixie-rev-4,70697869-652d-4726-9576-2d342e6b6963,rev?*%
%TF.SameCoordinates,Original*%
%TF.FileFunction,Copper,L1,Top*%
%TF.FilePolarity,Positive*%
%FSLAX46Y46*%
G04 Gerber Fmt 4.6, Leading zero omitted, Abs format (unit mm)*
G04 Created by KiCad (PCBNEW 7.0.7) date 2023-12-08 19:41:31*
%MOMM*%
%LPD*%
G01*
G04 APERTURE LIST*
G04 Aperture macros list*
%AMRoundRect*
0 Rectangle with rounded corners*
0 $1 Rounding radius*
0 $2 $3 $4 $5 $6 $7 $8 $9 X,Y pos of 4 corners*
0 Add a 4 corners polygon primitive as box body*
4,1,4,$2,$3,$4,$5,$6,$7,$8,$9,$2,$3,0*
0 Add four circle primitives for the rounded corners*
1,1,$1+$1,$2,$3*
1,1,$1+$1,$4,$5*
1,1,$1+$1,$6,$7*
1,1,$1+$1,$8,$9*
0 Add four rect primitives between the rounded corners*
20,1,$1+$1,$2,$3,$4,$5,0*
20,1,$1+$1,$4,$5,$6,$7,0*
20,1,$1+$1,$6,$7,$8,$9,0*
20,1,$1+$1,$8,$9,$2,$3,0*%
G04 Aperture macros list end*
%TA.AperFunction,SMDPad,CuDef*%
%ADD10RoundRect,0.100000X-0.100000X0.130000X-0.100000X-0.130000X0.100000X-0.130000X0.100000X0.130000X0*%
%TD*%
%TA.AperFunction,SMDPad,CuDef*%
%ADD11RoundRect,0.100000X0.130000X0.100000X-0.130000X0.100000X-0.130000X-0.100000X0.130000X-0.100000X0*%
%TD*%
%TA.AperFunction,SMDPad,CuDef*%
%ADD12RoundRect,0.100000X-0.162635X0.021213X0.021213X-0.162635X0.162635X-0.021213X-0.021213X0.162635X0*%
%TD*%
%TA.AperFunction,SMDPad,CuDef*%
%ADD13RoundRect,0.100000X0.021213X0.162635X-0.162635X-0.021213X-0.021213X-0.162635X0.162635X0.021213X0*%
%TD*%
%TA.AperFunction,SMDPad,CuDef*%
%ADD14R,0.600000X1.160000*%
%TD*%
%TA.AperFunction,SMDPad,CuDef*%
%ADD15R,0.300000X1.160000*%
%TD*%
%TA.AperFunction,ComponentPad*%
%ADD16O,1.300000X2.100000*%
%TD*%
%TA.AperFunction,ComponentPad*%
%ADD17O,1.300000X2.500000*%
%TD*%
%TA.AperFunction,SMDPad,CuDef*%
%ADD18R,1.800000X1.100000*%
%TD*%
%TA.AperFunction,SMDPad,CuDef*%
%ADD19RoundRect,0.100000X-0.130000X-0.100000X0.130000X-0.100000X0.130000X0.100000X-0.130000X0.100000X0*%
%TD*%
%TA.AperFunction,SMDPad,CuDef*%
%ADD20RoundRect,0.140000X-0.170000X0.140000X-0.170000X-0.140000X0.170000X-0.140000X0.170000X0.140000X0*%
%TD*%
%TA.AperFunction,SMDPad,CuDef*%
%ADD21R,0.900000X0.300000*%
%TD*%
%TA.AperFunction,SMDPad,CuDef*%
%ADD22R,0.340000X0.700000*%
%TD*%
%TA.AperFunction,SMDPad,CuDef*%
%ADD23RoundRect,0.062500X0.062500X-0.375000X0.062500X0.375000X-0.062500X0.375000X-0.062500X-0.375000X0*%
%TD*%
%TA.AperFunction,SMDPad,CuDef*%
%ADD24RoundRect,0.062500X0.375000X-0.062500X0.375000X0.062500X-0.375000X0.062500X-0.375000X-0.062500X0*%
%TD*%
%TA.AperFunction,SMDPad,CuDef*%
%ADD25R,3.100000X3.100000*%
%TD*%
%TA.AperFunction,SMDPad,CuDef*%
%ADD26RoundRect,0.100000X0.100000X-0.130000X0.100000X0.130000X-0.100000X0.130000X-0.100000X-0.130000X0*%
%TD*%
%TA.AperFunction,SMDPad,CuDef*%
%ADD27R,0.700000X0.700000*%
%TD*%
%TA.AperFunction,SMDPad,CuDef*%
%ADD28RoundRect,0.140000X-0.140000X-0.170000X0.140000X-0.170000X0.140000X0.170000X-0.140000X0.170000X0*%
%TD*%
%TA.AperFunction,SMDPad,CuDef*%
%ADD29RoundRect,0.150000X0.150000X-0.650000X0.150000X0.650000X-0.150000X0.650000X-0.150000X-0.650000X0*%
%TD*%
%TA.AperFunction,ConnectorPad*%
%ADD30R,0.500000X0.500000*%
%TD*%
%TA.AperFunction,ComponentPad*%
%ADD31R,0.900000X0.500000*%
%TD*%
%TA.AperFunction,SMDPad,CuDef*%
%ADD32RoundRect,0.140000X0.140000X0.170000X-0.140000X0.170000X-0.140000X-0.170000X0.140000X-0.170000X0*%
%TD*%
%TA.AperFunction,SMDPad,CuDef*%
%ADD33RoundRect,0.150000X-0.150000X0.512500X-0.150000X-0.512500X0.150000X-0.512500X0.150000X0.512500X0*%
%TD*%
%TA.AperFunction,SMDPad,CuDef*%
%ADD34R,1.100000X1.200000*%
%TD*%
%TA.AperFunction,SMDPad,CuDef*%
%ADD35RoundRect,0.150000X-0.512500X-0.150000X0.512500X-0.150000X0.512500X0.150000X-0.512500X0.150000X0*%
%TD*%
%TA.AperFunction,SMDPad,CuDef*%
%ADD36R,1.100000X1.800000*%
%TD*%
%TA.AperFunction,ViaPad*%
%ADD37C,0.600000*%
%TD*%
%TA.AperFunction,ViaPad*%
%ADD38C,0.681000*%
%TD*%
%TA.AperFunction,ViaPad*%
%ADD39C,0.808000*%
%TD*%
%TA.AperFunction,Conductor*%
%ADD40C,0.250000*%
%TD*%
%TA.AperFunction,Conductor*%
%ADD41C,0.150000*%
%TD*%
%TA.AperFunction,Conductor*%
%ADD42C,0.500000*%
%TD*%
%TA.AperFunction,Conductor*%
%ADD43C,0.160000*%
%TD*%
%TA.AperFunction,Conductor*%
%ADD44C,0.381000*%
%TD*%
%TA.AperFunction,Conductor*%
%ADD45C,0.300000*%
%TD*%
%TA.AperFunction,Conductor*%
%ADD46C,0.254000*%
%TD*%
%TA.AperFunction,Conductor*%
%ADD47C,0.340000*%
%TD*%
%TA.AperFunction,Conductor*%
%ADD48C,0.200000*%
%TD*%
%TA.AperFunction,Conductor*%
%ADD49C,0.349300*%
%TD*%
G04 APERTURE END LIST*
%TA.AperFunction,EtchedComponent*%
%TO.C,AE301*%
G36*
X151950000Y-69200000D02*
G01*
X153350000Y-69200000D01*
X153350000Y-64300000D01*
X153850000Y-64300000D01*
X153850000Y-69200000D01*
X155550000Y-69200000D01*
X155550000Y-66560000D01*
X158550000Y-66560000D01*
X158550000Y-69200000D01*
X160250000Y-69200000D01*
X160250000Y-66560000D01*
X163250000Y-66560000D01*
X163250000Y-69200000D01*
X164950000Y-69200000D01*
X164950000Y-65260000D01*
X165450000Y-65260000D01*
X165450000Y-69700000D01*
X162750000Y-69700000D01*
X162750000Y-67060000D01*
X160750000Y-67060000D01*
X160750000Y-69700000D01*
X158050000Y-69700000D01*
X158050000Y-67060000D01*
X156050000Y-67060000D01*
X156050000Y-69700000D01*
X151050000Y-69700000D01*
X151050000Y-64543215D01*
X151352417Y-64543215D01*
X151357153Y-64591622D01*
X151376815Y-64636416D01*
X151411755Y-64673186D01*
X151444647Y-64690092D01*
X151492733Y-64697982D01*
X151542318Y-64691408D01*
X151587628Y-64671313D01*
X151622888Y-64638643D01*
X151639782Y-64606417D01*
X151648222Y-64558158D01*
X151641691Y-64508632D01*
X151621132Y-64463447D01*
X151587489Y-64428213D01*
X151568878Y-64417600D01*
X151523363Y-64404700D01*
X151474844Y-64403957D01*
X151432181Y-64416065D01*
X151424269Y-64420419D01*
X151386326Y-64453203D01*
X151362258Y-64495605D01*
X151352417Y-64543215D01*
X151050000Y-64543215D01*
X151050000Y-64300000D01*
X151950000Y-64300000D01*
X151950000Y-69200000D01*
G37*
%TD.AperFunction*%
%TD*%
D10*
%TO.P,C309,1*%
%TO.N,3V3*%
X159700000Y-61425000D03*
%TO.P,C309,2*%
%TO.N,GND*%
X159700000Y-62065000D03*
%TD*%
D11*
%TO.P,C311,1*%
%TO.N,3V3*%
X160545000Y-60475000D03*
%TO.P,C311,2*%
%TO.N,GND*%
X159905000Y-60475000D03*
%TD*%
D12*
%TO.P,L302,1,1*%
%TO.N,/MCU/VRF*%
X158000000Y-60800000D03*
%TO.P,L302,2,2*%
%TO.N,3V3*%
X158452548Y-61252548D03*
%TD*%
D11*
%TO.P,C305,1*%
%TO.N,Net-(C305-Pad1)*%
X152575000Y-58850000D03*
%TO.P,C305,2*%
%TO.N,GND*%
X151935000Y-58850000D03*
%TD*%
D13*
%TO.P,C307,1*%
%TO.N,/MCU/VRF*%
X157426274Y-60223726D03*
%TO.P,C307,2*%
%TO.N,GND*%
X156973726Y-60676274D03*
%TD*%
D14*
%TO.P,J201,A1,GND*%
%TO.N,GND*%
X163580000Y-47280000D03*
%TO.P,J201,A4,VBUS*%
%TO.N,5V*%
X162780000Y-47280000D03*
D15*
%TO.P,J201,A5,CC1*%
%TO.N,/Power/CC1*%
X161630000Y-47280000D03*
%TO.P,J201,A6,D1+*%
%TO.N,/Power/USB_D+*%
X160630000Y-47280000D03*
%TO.P,J201,A7,D1-*%
%TO.N,/Power/USB_D-*%
X160130000Y-47280000D03*
%TO.P,J201,A8,SUB1*%
%TO.N,unconnected-(J201-SUB1-PadA8)*%
X159130000Y-47280000D03*
D14*
%TO.P,J201,A9,VBUS*%
%TO.N,5V*%
X157980000Y-47280000D03*
%TO.P,J201,A12,GND*%
%TO.N,GND*%
X157180000Y-47280000D03*
%TO.P,J201,B1,GND*%
X157180000Y-47280000D03*
%TO.P,J201,B4,VBUS*%
%TO.N,5V*%
X157980000Y-47280000D03*
D15*
%TO.P,J201,B5,CC2*%
%TO.N,/Power/CC2*%
X158630000Y-47280000D03*
%TO.P,J201,B6,D2+*%
%TO.N,/Power/USB_D+*%
X159630000Y-47280000D03*
%TO.P,J201,B7,D2-*%
%TO.N,/Power/USB_D-*%
X161130000Y-47280000D03*
%TO.P,J201,B8,SUB2*%
%TO.N,unconnected-(J201-SUB2-PadB8)*%
X162130000Y-47280000D03*
D14*
%TO.P,J201,B9,VBUS*%
%TO.N,5V*%
X162780000Y-47280000D03*
%TO.P,J201,B12,GND*%
%TO.N,GND*%
X163580000Y-47280000D03*
D16*
%TO.P,J201,S1,SHEILD*%
%TO.N,unconnected-(J201-SHEILD-PadS1)*%
X165980000Y-46100000D03*
D17*
%TO.P,J201,S2,SHEILD*%
%TO.N,unconnected-(J201-SHEILD-PadS2)*%
X166000000Y-42100000D03*
D16*
%TO.P,J201,S3,SHEILD*%
%TO.N,unconnected-(J201-SHEILD-PadS3)*%
X154780000Y-46100000D03*
D17*
%TO.P,J201,S4,SHEILD*%
%TO.N,unconnected-(J201-SHEILD-PadS4)*%
X154760000Y-42100000D03*
%TD*%
D18*
%TO.P,SW101,1,1*%
%TO.N,GND*%
X181900000Y-42650000D03*
%TO.P,SW101,2,2*%
%TO.N,/SW_1*%
X181900000Y-46350000D03*
%TO.P,SW101,3,3*%
%TO.N,GND*%
X188100000Y-42650000D03*
%TO.P,SW101,4,4*%
%TO.N,unconnected-(SW101-Pad4)*%
X188100000Y-46350000D03*
%TD*%
%TO.P,SW104,1,1*%
%TO.N,GND*%
X181900000Y-63650000D03*
%TO.P,SW104,2,2*%
%TO.N,unconnected-(SW104-Pad2)*%
X181900000Y-67350000D03*
%TO.P,SW104,3,3*%
%TO.N,GND*%
X188100000Y-63650000D03*
%TO.P,SW104,4,4*%
%TO.N,/SW_4*%
X188100000Y-67350000D03*
%TD*%
%TO.P,SW103,1,1*%
%TO.N,GND*%
X181900000Y-56650000D03*
%TO.P,SW103,2,2*%
%TO.N,/SW_3*%
X181900000Y-60350000D03*
%TO.P,SW103,3,3*%
%TO.N,GND*%
X188100000Y-56650000D03*
%TO.P,SW103,4,4*%
%TO.N,unconnected-(SW103-Pad4)*%
X188100000Y-60350000D03*
%TD*%
D11*
%TO.P,C308,1*%
%TO.N,3V3*%
X154225000Y-59525000D03*
%TO.P,C308,2*%
%TO.N,GND*%
X153585000Y-59525000D03*
%TD*%
D10*
%TO.P,R305,1*%
%TO.N,/MCU/FLASH_IO1*%
X155725000Y-51155000D03*
%TO.P,R305,2*%
%TO.N,/MCU/SPI_Q*%
X155725000Y-51795000D03*
%TD*%
D19*
%TO.P,C303,1*%
%TO.N,/MCU/CHIP_PU*%
X167890000Y-61400000D03*
%TO.P,C303,2*%
%TO.N,GND*%
X168530000Y-61400000D03*
%TD*%
D10*
%TO.P,C203,1*%
%TO.N,3V3*%
X178300000Y-45725000D03*
%TO.P,C203,2*%
%TO.N,GND*%
X178300000Y-46365000D03*
%TD*%
%TO.P,C401,1*%
%TO.N,3V3*%
X166400000Y-48285000D03*
%TO.P,C401,2*%
%TO.N,GND*%
X166400000Y-48925000D03*
%TD*%
D11*
%TO.P,R202,1*%
%TO.N,GND*%
X163725000Y-49175000D03*
%TO.P,R202,2*%
%TO.N,/Power/CC1*%
X163085000Y-49175000D03*
%TD*%
D20*
%TO.P,C313,1*%
%TO.N,3V3*%
X160625000Y-61450000D03*
%TO.P,C313,2*%
%TO.N,GND*%
X160625000Y-62410000D03*
%TD*%
D10*
%TO.P,R306,1*%
%TO.N,/MCU/FLASH_IO3*%
X159475000Y-51160000D03*
%TO.P,R306,2*%
%TO.N,/MCU/SPI_HD*%
X159475000Y-51800000D03*
%TD*%
%TO.P,R307,1*%
%TO.N,/MCU/FLASH_IO0*%
X156475000Y-51160000D03*
%TO.P,R307,2*%
%TO.N,/MCU/SPI_D*%
X156475000Y-51800000D03*
%TD*%
D19*
%TO.P,R201,1*%
%TO.N,GND*%
X155130000Y-49100000D03*
%TO.P,R201,2*%
%TO.N,/Power/CC2*%
X155770000Y-49100000D03*
%TD*%
D10*
%TO.P,R303,1*%
%TO.N,/MCU/VCC_SPI*%
X157975000Y-51160000D03*
%TO.P,R303,2*%
%TO.N,/MCU/FLASH_CS0*%
X157975000Y-51800000D03*
%TD*%
D11*
%TO.P,C310,1*%
%TO.N,3V3*%
X153700000Y-60300000D03*
%TO.P,C310,2*%
%TO.N,GND*%
X153060000Y-60300000D03*
%TD*%
D21*
%TO.P,J401,1,GND*%
%TO.N,GND*%
X167750000Y-57750000D03*
%TO.P,J401,2,GND*%
X167750000Y-57250000D03*
%TO.P,J401,3,NC*%
%TO.N,unconnected-(J401-NC-Pad3)*%
X167750000Y-56750000D03*
%TO.P,J401,4,TE*%
%TO.N,unconnected-(J401-TE-Pad4)*%
X167750000Y-56250000D03*
%TO.P,J401,5,DB7*%
%TO.N,GND*%
X167750000Y-55750000D03*
%TO.P,J401,6,DB6*%
X167750000Y-55250000D03*
%TO.P,J401,7,DB5*%
X167750000Y-54750000D03*
%TO.P,J401,8,DB4*%
X167750000Y-54250000D03*
%TO.P,J401,9,DB3*%
X167750000Y-53750000D03*
%TO.P,J401,10,DB2*%
X167750000Y-53250000D03*
%TO.P,J401,11,DB1*%
X167750000Y-52750000D03*
%TO.P,J401,12,DB0*%
X167750000Y-52250000D03*
%TO.P,J401,13,gnd/SDA*%
%TO.N,/MCU/DISP_SDA*%
X167750000Y-51750000D03*
%TO.P,J401,14,RD/gnd*%
%TO.N,GND*%
X167750000Y-51250000D03*
%TO.P,J401,15,WE/DC*%
%TO.N,/MCU/DISP_DC*%
X167750000Y-50750000D03*
%TO.P,J401,16,DC/CLK*%
%TO.N,/MCU/DISP_SCL*%
X167750000Y-50250000D03*
%TO.P,J401,17,CS*%
%TO.N,GND*%
X167750000Y-49750000D03*
%TO.P,J401,18,RESET*%
%TO.N,/MCU/DISP_RST*%
X167750000Y-49250000D03*
%TO.P,J401,19,IM1/2*%
%TO.N,3V3*%
X167750000Y-48750000D03*
%TO.P,J401,20,VDDIO*%
X167750000Y-48250000D03*
%TO.P,J401,21,VDD*%
X167750000Y-47750000D03*
%TO.P,J401,22,GND*%
%TO.N,GND*%
X167750000Y-47250000D03*
%TO.P,J401,23,LEDK*%
%TO.N,Net-(J401-LEDK)*%
X167750000Y-46750000D03*
%TO.P,J401,24,LEDA*%
%TO.N,3V3*%
X167750000Y-46250000D03*
D18*
%TO.P,J401,MP0,MP0*%
%TO.N,GND*%
X170450000Y-59900000D03*
%TO.P,J401,MP1,MP1*%
X170450000Y-44100000D03*
%TD*%
D19*
%TO.P,C306,1*%
%TO.N,/MCU/VCC_SPI*%
X162020000Y-50970000D03*
%TO.P,C306,2*%
%TO.N,GND*%
X162660000Y-50970000D03*
%TD*%
D10*
%TO.P,R304,1*%
%TO.N,/MCU/FLASH_CLK*%
X157225000Y-51160000D03*
%TO.P,R304,2*%
%TO.N,/MCU/SPI_CLK*%
X157225000Y-51800000D03*
%TD*%
%TO.P,R308,1*%
%TO.N,/MCU/FLASH_IO2*%
X158725000Y-51160000D03*
%TO.P,R308,2*%
%TO.N,/MCU/SPI_WP*%
X158725000Y-51800000D03*
%TD*%
D19*
%TO.P,R401,1*%
%TO.N,Net-(J401-LEDK)*%
X168410000Y-42650000D03*
%TO.P,R401,2*%
%TO.N,GND*%
X169050000Y-42650000D03*
%TD*%
D22*
%TO.P,U201,1,I/O1*%
%TO.N,/USB_P*%
X153000000Y-50700000D03*
%TO.P,U201,2,GND*%
%TO.N,GND*%
X153500000Y-50700000D03*
%TO.P,U201,3,I/O2*%
%TO.N,/USB_N*%
X154000000Y-50700000D03*
%TO.P,U201,4,I/O2*%
%TO.N,/Power/USB_D-*%
X154000000Y-49200000D03*
%TO.P,U201,5,VBUS*%
%TO.N,5V*%
X153500000Y-49200000D03*
%TO.P,U201,6,I/O1*%
%TO.N,/Power/USB_D+*%
X153000000Y-49200000D03*
%TD*%
D23*
%TO.P,U302,1,LNA_IN*%
%TO.N,/MCU/ANTENNA*%
X156050000Y-58887500D03*
%TO.P,U302,2,VDD3P3*%
%TO.N,/MCU/VRF*%
X156550000Y-58887500D03*
%TO.P,U302,3,VDD3P3*%
X157050000Y-58887500D03*
%TO.P,U302,4,XTAL_32K_P/ADC1_CH0*%
%TO.N,unconnected-(U302-XTAL_32K_P{slash}ADC1_CH0-Pad4)*%
X157550000Y-58887500D03*
%TO.P,U302,5,XTAL_32K_N/ADC1_CH1*%
%TO.N,unconnected-(U302-XTAL_32K_N{slash}ADC1_CH1-Pad5)*%
X158050000Y-58887500D03*
%TO.P,U302,6,GPIO2/ADC1_CH2*%
%TO.N,/SW_4*%
X158550000Y-58887500D03*
%TO.P,U302,7,CHIP_EN*%
%TO.N,/MCU/CHIP_PU*%
X159050000Y-58887500D03*
%TO.P,U302,8,GPIO3/ADC1_CH3*%
%TO.N,/SW_3*%
X159550000Y-58887500D03*
D24*
%TO.P,U302,9,MTMS/GPIO4/ADC1_CH4*%
%TO.N,/MCU/DISP_DC*%
X160237500Y-58200000D03*
%TO.P,U302,10,MTDI/GPIO5/ADC2_CH0*%
%TO.N,/MCU/DISP_RST*%
X160237500Y-57700000D03*
%TO.P,U302,11,VDD3P3_RTC*%
%TO.N,3V3*%
X160237500Y-57200000D03*
%TO.P,U302,12,MTCK/GPIO6*%
%TO.N,/MCU/DISP_SCL*%
X160237500Y-56700000D03*
%TO.P,U302,13,MTDO/GPIO7*%
%TO.N,/MCU/DISP_SDA*%
X160237500Y-56200000D03*
%TO.P,U302,14,GPIO8*%
%TO.N,/SW_2*%
X160237500Y-55700000D03*
%TO.P,U302,15,GPIO9/BOOT*%
%TO.N,/PIXEL*%
X160237500Y-55200000D03*
%TO.P,U302,16,GPIO10*%
%TO.N,/SW_1*%
X160237500Y-54700000D03*
D23*
%TO.P,U302,17,VDD3P3_CPU*%
%TO.N,3V3*%
X159550000Y-54012500D03*
%TO.P,U302,18,VDD_SPI/GPIO11*%
%TO.N,/MCU/VCC_SPI*%
X159050000Y-54012500D03*
%TO.P,U302,19,SPIHD/GPIO12*%
%TO.N,/MCU/SPI_HD*%
X158550000Y-54012500D03*
%TO.P,U302,20,SPIWP/GPIO13*%
%TO.N,/MCU/SPI_WP*%
X158050000Y-54012500D03*
%TO.P,U302,21,SPICS0/GPIO14*%
%TO.N,/MCU/FLASH_CS0*%
X157550000Y-54012500D03*
%TO.P,U302,22,SPICLK/GPIO15*%
%TO.N,/MCU/SPI_CLK*%
X157050000Y-54012500D03*
%TO.P,U302,23,SPID/GPIO16*%
%TO.N,/MCU/SPI_D*%
X156550000Y-54012500D03*
%TO.P,U302,24,SPIQ/GPIO17*%
%TO.N,/MCU/SPI_Q*%
X156050000Y-54012500D03*
D24*
%TO.P,U302,25,GPIO18/USB_D-*%
%TO.N,/USB_N*%
X155362500Y-54700000D03*
%TO.P,U302,26,GPIO19/USB_D+*%
%TO.N,/USB_P*%
X155362500Y-55200000D03*
%TO.P,U302,27,U0RXD/GPIO20*%
%TO.N,unconnected-(U302-U0RXD{slash}GPIO20-Pad27)*%
X155362500Y-55700000D03*
%TO.P,U302,28,U0TXD/GPIO21*%
%TO.N,unconnected-(U302-U0TXD{slash}GPIO21-Pad28)*%
X155362500Y-56200000D03*
%TO.P,U302,29,XTAL_N*%
%TO.N,/MCU/XTAL_N*%
X155362500Y-56700000D03*
%TO.P,U302,30,XTAL_P*%
%TO.N,/MCU/XTAL_P*%
X155362500Y-57200000D03*
%TO.P,U302,31,VDDA*%
%TO.N,3V3*%
X155362500Y-57700000D03*
%TO.P,U302,32,VDDA*%
X155362500Y-58200000D03*
D25*
%TO.P,U302,33,GND*%
%TO.N,GND*%
X157800000Y-56450000D03*
%TD*%
D19*
%TO.P,C304,1*%
%TO.N,Net-(AE301-Pad1)*%
X156030000Y-62400000D03*
%TO.P,C304,2*%
%TO.N,GND*%
X156670000Y-62400000D03*
%TD*%
%TO.P,C302,1*%
%TO.N,/MCU/XTAL_N*%
X151535000Y-54550000D03*
%TO.P,C302,2*%
%TO.N,GND*%
X152175000Y-54550000D03*
%TD*%
D26*
%TO.P,C312,1*%
%TO.N,3V3*%
X160600000Y-52645000D03*
%TO.P,C312,2*%
%TO.N,GND*%
X160600000Y-52005000D03*
%TD*%
D27*
%TO.P,D401,1,D0*%
%TO.N,unconnected-(D401-D0-Pad1)*%
X181810000Y-52750000D03*
%TO.P,D401,2,GND*%
%TO.N,GND*%
X181810000Y-51650000D03*
%TO.P,D401,3,DIN*%
%TO.N,Net-(D401-DIN)*%
X179980000Y-51650000D03*
%TO.P,D401,4,VDD*%
%TO.N,5V*%
X179980000Y-52750000D03*
%TD*%
D10*
%TO.P,L301,1,1*%
%TO.N,/MCU/ANTENNA*%
X156000000Y-60980000D03*
%TO.P,L301,2,2*%
%TO.N,Net-(AE301-Pad1)*%
X156000000Y-61620000D03*
%TD*%
D28*
%TO.P,C204,1*%
%TO.N,3V3*%
X179220000Y-45800000D03*
%TO.P,C204,2*%
%TO.N,GND*%
X180180000Y-45800000D03*
%TD*%
D29*
%TO.P,U301,1,~{CS}*%
%TO.N,/MCU/FLASH_CS0*%
X161995000Y-59850000D03*
%TO.P,U301,2,DO(IO1)*%
%TO.N,/MCU/FLASH_IO1*%
X163265000Y-59850000D03*
%TO.P,U301,3,IO2*%
%TO.N,/MCU/FLASH_IO2*%
X164535000Y-59850000D03*
%TO.P,U301,4,GND*%
%TO.N,GND*%
X165805000Y-59850000D03*
%TO.P,U301,5,DI(IO0)*%
%TO.N,/MCU/FLASH_IO0*%
X165805000Y-52650000D03*
%TO.P,U301,6,CLK*%
%TO.N,/MCU/FLASH_CLK*%
X164535000Y-52650000D03*
%TO.P,U301,7,IO3*%
%TO.N,/MCU/FLASH_IO3*%
X163265000Y-52650000D03*
%TO.P,U301,8,VCC*%
%TO.N,/MCU/VCC_SPI*%
X161995000Y-52650000D03*
%TD*%
D30*
%TO.P,AE301,1*%
%TO.N,Net-(AE301-Pad1)*%
X153600000Y-64550000D03*
D31*
%TO.P,AE301,2*%
%TO.N,GND*%
X151500000Y-64550000D03*
%TD*%
D32*
%TO.P,C201,1*%
%TO.N,5V*%
X176700000Y-41600000D03*
%TO.P,C201,2*%
%TO.N,GND*%
X175740000Y-41600000D03*
%TD*%
D10*
%TO.P,R302,1*%
%TO.N,/MCU/XTAL_P*%
X154200000Y-57280000D03*
%TO.P,R302,2*%
%TO.N,Net-(C305-Pad1)*%
X154200000Y-57920000D03*
%TD*%
D33*
%TO.P,U202,1,IN*%
%TO.N,5V*%
X179908289Y-42062500D03*
%TO.P,U202,2,GND*%
%TO.N,GND*%
X178958289Y-42062500D03*
%TO.P,U202,3,EN*%
%TO.N,5V*%
X178008289Y-42062500D03*
%TO.P,U202,4,BP*%
%TO.N,unconnected-(U202-BP-Pad4)*%
X178008289Y-44337500D03*
%TO.P,U202,5,OUT*%
%TO.N,3V3*%
X179908289Y-44337500D03*
%TD*%
D34*
%TO.P,Y301,1,1*%
%TO.N,Net-(C305-Pad1)*%
X152950000Y-57550000D03*
%TO.P,Y301,2,2*%
%TO.N,GND*%
X152950000Y-55850000D03*
%TO.P,Y301,3,3*%
%TO.N,/MCU/XTAL_N*%
X151550000Y-55850000D03*
%TO.P,Y301,4,4*%
%TO.N,GND*%
X151550000Y-57550000D03*
%TD*%
D11*
%TO.P,C202,1*%
%TO.N,5V*%
X176675000Y-42500000D03*
%TO.P,C202,2*%
%TO.N,GND*%
X176035000Y-42500000D03*
%TD*%
%TO.P,C301,1*%
%TO.N,/MCU/ANTENNA*%
X155975000Y-60200000D03*
%TO.P,C301,2*%
%TO.N,GND*%
X155335000Y-60200000D03*
%TD*%
D35*
%TO.P,U401,1,VCCA*%
%TO.N,5V*%
X179062500Y-48150000D03*
%TO.P,U401,2,GND*%
%TO.N,GND*%
X179062500Y-49100000D03*
%TO.P,U401,3,A*%
%TO.N,Net-(D401-DIN)*%
X179062500Y-50050000D03*
%TO.P,U401,4,B*%
%TO.N,/PIXEL*%
X181337500Y-50050000D03*
%TO.P,U401,5,DIR*%
%TO.N,GND*%
X181337500Y-49100000D03*
%TO.P,U401,6,VCCB*%
%TO.N,3V3*%
X181337500Y-48150000D03*
%TD*%
D11*
%TO.P,R301,1*%
%TO.N,/MCU/CHIP_PU*%
X166890000Y-61400000D03*
%TO.P,R301,2*%
%TO.N,3V3*%
X166250000Y-61400000D03*
%TD*%
D36*
%TO.P,SW102,1,1*%
%TO.N,GND*%
X186850000Y-48400000D03*
%TO.P,SW102,2,2*%
%TO.N,unconnected-(SW102-Pad2)*%
X183150000Y-48400000D03*
%TO.P,SW102,3,3*%
%TO.N,GND*%
X186850000Y-54600000D03*
%TO.P,SW102,4,4*%
%TO.N,/SW_2*%
X183150000Y-54600000D03*
%TD*%
D37*
%TO.N,GND*%
X150500000Y-61100000D03*
X163950000Y-61390000D03*
X161220000Y-60280000D03*
X154760000Y-60780000D03*
X166200000Y-50200000D03*
X155050000Y-52750000D03*
X155250000Y-61425000D03*
X151500000Y-53800000D03*
X169400000Y-43300000D03*
X164500000Y-64500000D03*
D38*
X178958290Y-43137499D03*
D37*
X150500000Y-62800000D03*
X152100000Y-49200000D03*
X166500000Y-59700000D03*
X170500000Y-49800000D03*
X150500000Y-59400000D03*
X176400000Y-40500000D03*
X170300000Y-47200000D03*
X168900000Y-59700000D03*
X150500000Y-57700000D03*
X154650000Y-53500000D03*
X173900000Y-61600000D03*
X150500000Y-50900000D03*
X156700000Y-61325000D03*
X155600000Y-64500000D03*
X177075000Y-58275000D03*
X165600000Y-64500000D03*
X158325000Y-57825000D03*
X152300000Y-63700000D03*
X163410000Y-50700000D03*
X188299999Y-40500000D03*
X157300000Y-55050000D03*
X152425000Y-53800000D03*
X189500000Y-52600000D03*
X165950000Y-53985500D03*
X180900000Y-51600000D03*
X171075000Y-53375000D03*
X156400000Y-47280000D03*
X152800000Y-59500000D03*
X173400000Y-52100000D03*
X178900000Y-53900000D03*
X160075000Y-64500000D03*
X163400000Y-64500000D03*
X151800000Y-59500000D03*
X154360000Y-61560000D03*
X180900000Y-52700000D03*
X151275000Y-58700000D03*
X158650000Y-62150000D03*
X168470000Y-57490000D03*
X150500000Y-63700000D03*
X154525000Y-62625000D03*
X153600000Y-62900000D03*
X155225000Y-62150000D03*
X152900000Y-54800000D03*
X189500000Y-62800000D03*
X170900000Y-56600000D03*
X156400000Y-56975000D03*
X150500000Y-56000000D03*
X177800000Y-46700000D03*
X166700000Y-64500000D03*
X152250000Y-51550000D03*
X154500000Y-64500000D03*
X173000000Y-40500000D03*
X150518219Y-64527124D03*
X157825000Y-62400000D03*
X169540000Y-61400000D03*
D38*
X180200000Y-48550000D03*
D37*
X173625000Y-56800000D03*
X158900000Y-64500000D03*
D38*
X180200000Y-49550000D03*
D37*
X157240000Y-62960000D03*
X152275000Y-52600000D03*
X158663243Y-60486757D03*
X154850000Y-51150000D03*
X155400000Y-53950000D03*
X154750000Y-51950000D03*
X150500000Y-44100000D03*
X153800000Y-55300000D03*
X162000000Y-63400000D03*
X173000000Y-46800000D03*
X155950000Y-63900000D03*
X153000000Y-63600000D03*
X150500000Y-54300000D03*
X157300000Y-55925000D03*
X152000000Y-46000000D03*
X152500000Y-60700000D03*
X157275000Y-56950000D03*
X156700000Y-64500000D03*
X166900000Y-49750000D03*
X158275000Y-63275000D03*
X189500000Y-42400000D03*
X169600000Y-40500000D03*
X175300000Y-42300000D03*
X161200000Y-64500000D03*
X151400000Y-63700000D03*
X159175000Y-55925000D03*
X164730000Y-50330000D03*
X180700000Y-63700000D03*
X152100000Y-50540000D03*
X168600000Y-53750000D03*
X165500000Y-58800000D03*
X165200000Y-56900000D03*
X150500000Y-40700000D03*
X155300000Y-59500000D03*
X175500000Y-44600000D03*
X168600000Y-52278111D03*
X172800000Y-43500000D03*
X174700000Y-58700000D03*
X166897954Y-47398977D03*
X175750000Y-48300000D03*
X157500000Y-61600000D03*
X161850000Y-54025000D03*
X159900000Y-62700000D03*
X175000000Y-54000000D03*
X189500000Y-59400000D03*
X152600000Y-64429978D03*
X153400000Y-40500000D03*
X158300000Y-55925000D03*
X180700000Y-45300000D03*
X156400000Y-55925000D03*
X162600000Y-56900000D03*
X161274204Y-51816717D03*
X187800000Y-55600000D03*
X166900000Y-51250000D03*
X181500000Y-40500000D03*
X152300000Y-42500000D03*
X183600000Y-50690000D03*
X159175000Y-56950000D03*
X153500000Y-58800000D03*
X165425000Y-49250000D03*
X189500000Y-45800000D03*
X154100000Y-52800000D03*
X162300000Y-64500000D03*
X162610000Y-61394500D03*
X155100000Y-49850000D03*
X155050000Y-64100000D03*
X153500000Y-51500000D03*
X156550000Y-63425000D03*
X150500000Y-47500000D03*
X167100000Y-44000000D03*
X163900000Y-56900000D03*
X153400000Y-44500000D03*
X164380000Y-47280000D03*
X158300000Y-55050000D03*
X170530000Y-58730000D03*
X155300000Y-58870000D03*
X163500000Y-54025000D03*
X186000000Y-53000000D03*
X166800000Y-56475000D03*
X157800000Y-64500000D03*
X184900000Y-40500000D03*
X189500000Y-56000000D03*
X158300000Y-56975000D03*
X153800000Y-56100000D03*
X189500000Y-49200000D03*
%TO.N,/SW_4*%
X158550000Y-59631757D03*
X187000000Y-66600000D03*
%TO.N,/SW_1*%
X181900000Y-47175000D03*
X165190000Y-54510000D03*
%TO.N,/SW_2*%
X176570000Y-55700000D03*
X165190000Y-55700000D03*
%TO.N,/PIXEL*%
X182238556Y-50050000D03*
X186500000Y-43475000D03*
X165770000Y-55110000D03*
%TO.N,/SW_3*%
X159925000Y-58887500D03*
X173500000Y-60300000D03*
D39*
%TO.N,5V*%
X177650000Y-48150000D03*
X177500000Y-43100000D03*
X180400000Y-43000000D03*
X153500000Y-48270000D03*
X164375000Y-48300000D03*
D37*
%TO.N,3V3*%
X160960000Y-57200000D03*
X159960000Y-54020000D03*
X159125000Y-61425000D03*
X160545000Y-59507828D03*
X153450000Y-61125000D03*
%TO.N,/MCU/CHIP_PU*%
X188300000Y-48775000D03*
X167390000Y-60875000D03*
X159500000Y-59774500D03*
%TO.N,/Power/USB_D+*%
X160700000Y-48400000D03*
X159300000Y-48400000D03*
X153000000Y-49900000D03*
%TO.N,/Power/USB_D-*%
X160000000Y-48900000D03*
X161400000Y-48900000D03*
X154000000Y-49900000D03*
%TO.N,/MCU/DISP_DC*%
X170075000Y-52375000D03*
X168554622Y-50774500D03*
%TO.N,/MCU/FLASH_CS0*%
X162000000Y-58780000D03*
X157550000Y-52875000D03*
%TO.N,/MCU/FLASH_IO0*%
X156475000Y-50340000D03*
X165805000Y-51530000D03*
%TO.N,/MCU/FLASH_IO2*%
X158720000Y-50580000D03*
X164550000Y-58775000D03*
%TO.N,/MCU/FLASH_CLK*%
X164550000Y-51525000D03*
X157225000Y-50610000D03*
%TO.N,/MCU/FLASH_IO1*%
X163275000Y-58775000D03*
X155730000Y-50610000D03*
%TO.N,/MCU/FLASH_IO3*%
X159480000Y-50521770D03*
X163275000Y-51540000D03*
%TD*%
D40*
%TO.N,/MCU/CHIP_PU*%
X167890000Y-61400000D02*
X167890000Y-61375000D01*
D41*
X167890000Y-61375000D02*
X167390000Y-60875000D01*
D40*
X166890000Y-61400000D02*
X166890000Y-61375000D01*
D41*
X166890000Y-61375000D02*
X167390000Y-60875000D01*
D42*
%TO.N,3V3*%
X170110050Y-62300000D02*
X166260000Y-62300000D01*
X166260000Y-62300000D02*
X165810000Y-62300000D01*
D40*
X166250000Y-61400000D02*
X166250000Y-62290000D01*
X166250000Y-62290000D02*
X166260000Y-62300000D01*
D42*
X165810000Y-62300000D02*
X161770000Y-62300000D01*
X160920000Y-61450000D02*
X160625000Y-61450000D01*
X161770000Y-62300000D02*
X160920000Y-61450000D01*
D40*
%TO.N,GND*%
X168530000Y-61400000D02*
X169540000Y-61400000D01*
X154760000Y-60780000D02*
X154760000Y-60775000D01*
D43*
X154760000Y-60775000D02*
X155335000Y-60200000D01*
D40*
X157240000Y-62960000D02*
X157230000Y-62960000D01*
D43*
X157230000Y-62960000D02*
X156670000Y-62400000D01*
D44*
X178958289Y-42062500D02*
X178958289Y-43137498D01*
X178958289Y-43137498D02*
X178958290Y-43137499D01*
D41*
%TO.N,/MCU/CHIP_PU*%
X159050000Y-59376653D02*
X159050000Y-58887500D01*
X159312136Y-59652136D02*
X159312136Y-59638789D01*
X159434500Y-59774500D02*
X159312136Y-59652136D01*
X159312136Y-59638789D02*
X159050000Y-59376653D01*
X159500000Y-59774500D02*
X159434500Y-59774500D01*
%TO.N,/SW_4*%
X158550000Y-59631757D02*
X158550000Y-58887500D01*
D45*
%TO.N,GND*%
X167750000Y-57750000D02*
X168210000Y-57750000D01*
D44*
X180750000Y-49100000D02*
X180200000Y-48550000D01*
D45*
X167750000Y-57250000D02*
X168230000Y-57250000D01*
X168230000Y-57250000D02*
X168470000Y-57490000D01*
D44*
X181337500Y-49100000D02*
X180750000Y-49100000D01*
D40*
X152900000Y-60300000D02*
X152500000Y-60700000D01*
D46*
X159905000Y-60475000D02*
X158675000Y-60475000D01*
D44*
X179750000Y-49100000D02*
X179062500Y-49100000D01*
D46*
X163090000Y-50700000D02*
X163410000Y-50700000D01*
D44*
X180200000Y-49550000D02*
X179750000Y-49100000D01*
D45*
X167046931Y-47250000D02*
X167750000Y-47250000D01*
D46*
X157500000Y-61600000D02*
X157500000Y-61250000D01*
D45*
X166897954Y-47398977D02*
X167046931Y-47250000D01*
X157180000Y-47280000D02*
X156400000Y-47280000D01*
D41*
X168600000Y-52278111D02*
X168571889Y-52250000D01*
D45*
X167750000Y-51250000D02*
X166900000Y-51250000D01*
X167750000Y-53750000D02*
X168600000Y-53750000D01*
D46*
X165805000Y-59105000D02*
X165500000Y-58800000D01*
X165805000Y-59983869D02*
X165805000Y-59850000D01*
D45*
X168210000Y-57750000D02*
X168470000Y-57490000D01*
D46*
X165805000Y-59850000D02*
X165805000Y-59105000D01*
X162660000Y-50970000D02*
X162820000Y-50970000D01*
X158675000Y-60475000D02*
X158663243Y-60486757D01*
X156973726Y-60723726D02*
X156973726Y-60676274D01*
D45*
X167750000Y-49750000D02*
X166900000Y-49750000D01*
X164380000Y-47280000D02*
X163580000Y-47280000D01*
D46*
X157500000Y-61250000D02*
X156973726Y-60723726D01*
D47*
X153500000Y-51500000D02*
X153500000Y-50700000D01*
D45*
X168571889Y-52250000D02*
X167750000Y-52250000D01*
D46*
X162820000Y-50970000D02*
X163090000Y-50700000D01*
D40*
X153060000Y-60300000D02*
X152900000Y-60300000D01*
D41*
%TO.N,/SW_4*%
X188100000Y-67350000D02*
X187750000Y-67350000D01*
X187750000Y-67350000D02*
X187000000Y-66600000D01*
%TO.N,/SW_1*%
X164075000Y-54700000D02*
X160237500Y-54700000D01*
D48*
X181900000Y-46350000D02*
X181900000Y-47175000D01*
D41*
X165190000Y-54510000D02*
X164265000Y-54510000D01*
X164265000Y-54510000D02*
X164075000Y-54700000D01*
%TO.N,/SW_2*%
X182000000Y-54600000D02*
X183150000Y-54600000D01*
X176570000Y-55700000D02*
X180900000Y-55700000D01*
X165190000Y-55700000D02*
X160237500Y-55700000D01*
X180900000Y-55700000D02*
X182000000Y-54600000D01*
%TO.N,/PIXEL*%
X164350000Y-55200000D02*
X160237500Y-55200000D01*
X164440000Y-55110000D02*
X164350000Y-55200000D01*
X186500000Y-46900000D02*
X186500000Y-43475000D01*
X182238556Y-50050000D02*
X181337500Y-50050000D01*
X183350000Y-50050000D02*
X186500000Y-46900000D01*
X182238556Y-50050000D02*
X183350000Y-50050000D01*
X165770000Y-55110000D02*
X164440000Y-55110000D01*
%TO.N,/SW_3*%
X181500000Y-60300000D02*
X181550000Y-60350000D01*
X159925000Y-58887500D02*
X159550000Y-58887500D01*
X181550000Y-60350000D02*
X181900000Y-60350000D01*
X173500000Y-60300000D02*
X181500000Y-60300000D01*
D49*
%TO.N,Net-(AE301-Pad1)*%
X155143629Y-63375000D02*
X154506371Y-63375000D01*
X153940685Y-63609315D02*
X153834314Y-63715686D01*
X155795685Y-63054315D02*
X155709314Y-63140686D01*
D41*
X156030000Y-61650000D02*
X156000000Y-61620000D01*
D49*
X153600000Y-64281371D02*
X153600000Y-64550000D01*
X156030000Y-62400000D02*
X156030000Y-61650000D01*
X156030000Y-62400000D02*
X156030000Y-62488629D01*
X155143629Y-63375020D02*
G75*
G03*
X155709314Y-63140686I-29J800020D01*
G01*
X155795670Y-63054300D02*
G75*
G03*
X156030000Y-62488629I-565670J565700D01*
G01*
X153834329Y-63715701D02*
G75*
G03*
X153600000Y-64281371I565671J-565699D01*
G01*
X154506371Y-63374980D02*
G75*
G03*
X153940685Y-63609315I29J-800020D01*
G01*
D47*
%TO.N,5V*%
X153500000Y-48270000D02*
X153500000Y-49200000D01*
D42*
X153500000Y-48270000D02*
X153510000Y-48260000D01*
X157690000Y-48260000D02*
X157980000Y-47970000D01*
X177650000Y-48150000D02*
X177650000Y-50850000D01*
X179908289Y-42062500D02*
X179908289Y-42508289D01*
X179908289Y-41308289D02*
X179908289Y-42062500D01*
X177500000Y-43100000D02*
X178008289Y-42591711D01*
X176700000Y-41600000D02*
X177545789Y-41600000D01*
X179475000Y-40875000D02*
X179908289Y-41308289D01*
X178008289Y-42062500D02*
X178008289Y-41291711D01*
X178425000Y-40875000D02*
X179475000Y-40875000D01*
X179908289Y-42508289D02*
X180400000Y-43000000D01*
X163090000Y-48300000D02*
X164375000Y-48300000D01*
X157980000Y-47970000D02*
X157980000Y-47280000D01*
D44*
X178008289Y-42062500D02*
X177737500Y-42062500D01*
D42*
X177650000Y-48150000D02*
X179062500Y-48150000D01*
X179550000Y-52750000D02*
X179980000Y-52750000D01*
X162780000Y-47990000D02*
X163090000Y-48300000D01*
X153510000Y-48260000D02*
X157690000Y-48260000D01*
X177545789Y-41600000D02*
X178008289Y-42062500D01*
X162780000Y-47280000D02*
X162780000Y-47990000D01*
D44*
X177737500Y-42062500D02*
X177300000Y-42500000D01*
D42*
X178008289Y-41291711D02*
X178425000Y-40875000D01*
X177650000Y-50850000D02*
X179550000Y-52750000D01*
D44*
X177300000Y-42500000D02*
X176675000Y-42500000D01*
D42*
X178008289Y-42591711D02*
X178008289Y-42062500D01*
D46*
%TO.N,3V3*%
X155362500Y-58200000D02*
X154731279Y-58200000D01*
D42*
X171950000Y-46250000D02*
X171950000Y-60460050D01*
X172475000Y-45725000D02*
X178300000Y-45725000D01*
D45*
X167750000Y-48750000D02*
X167750000Y-48250000D01*
X168800000Y-47450000D02*
X168800000Y-46250000D01*
X167750000Y-48250000D02*
X166435000Y-48250000D01*
D46*
X159952500Y-54012500D02*
X159550000Y-54012500D01*
X154900000Y-57700000D02*
X154677000Y-57923000D01*
D42*
X179220000Y-45025788D02*
X179220000Y-45800000D01*
D45*
X171950000Y-46250000D02*
X168800000Y-46250000D01*
D46*
X159100000Y-61450000D02*
X158650000Y-61450000D01*
X153700000Y-60300000D02*
X154225000Y-59775000D01*
X154677000Y-57923000D02*
X154677000Y-58254279D01*
D44*
X179220000Y-45920000D02*
X181337500Y-48037500D01*
D46*
X160600000Y-61425000D02*
X160625000Y-61450000D01*
X154225000Y-59775000D02*
X154225000Y-59525000D01*
D44*
X159700000Y-61425000D02*
X160600000Y-61425000D01*
D46*
X159700000Y-61425000D02*
X159125000Y-61425000D01*
X160545000Y-59507828D02*
X160545000Y-60475000D01*
D45*
X166435000Y-48250000D02*
X166400000Y-48285000D01*
D46*
X155362500Y-57700000D02*
X154900000Y-57700000D01*
D42*
X178520789Y-45725000D02*
X179908289Y-44337500D01*
D46*
X154225000Y-58706279D02*
X154677000Y-58254279D01*
X160455000Y-52645000D02*
X160600000Y-52645000D01*
X154731279Y-58200000D02*
X154677000Y-58254279D01*
D44*
X179220000Y-45800000D02*
X179220000Y-45920000D01*
D42*
X171950000Y-60460050D02*
X170110050Y-62300000D01*
D46*
X160237500Y-57200000D02*
X160960000Y-57200000D01*
D42*
X178300000Y-45725000D02*
X178520789Y-45725000D01*
D45*
X167750000Y-47750000D02*
X168500000Y-47750000D01*
D46*
X153700000Y-60875000D02*
X153700000Y-60300000D01*
X159550000Y-54012500D02*
X159550000Y-53550000D01*
X159960000Y-54020000D02*
X159952500Y-54012500D01*
X153450000Y-61125000D02*
X153700000Y-60875000D01*
X160545000Y-60475000D02*
X160545000Y-61370000D01*
X160545000Y-61370000D02*
X160625000Y-61450000D01*
D42*
X179222894Y-45022894D02*
X179220000Y-45025788D01*
D46*
X159125000Y-61425000D02*
X159100000Y-61450000D01*
X154225000Y-59525000D02*
X154225000Y-58706279D01*
D42*
X171950000Y-46250000D02*
X172475000Y-45725000D01*
D45*
X167750000Y-48250000D02*
X167750000Y-47750000D01*
D44*
X181337500Y-48037500D02*
X181337500Y-48150000D01*
D45*
X168800000Y-46250000D02*
X167750000Y-46250000D01*
D46*
X158650000Y-61450000D02*
X158452548Y-61252548D01*
X159550000Y-53550000D02*
X160455000Y-52645000D01*
D45*
X168500000Y-47750000D02*
X168800000Y-47450000D01*
D46*
%TO.N,/MCU/ANTENNA*%
X156050000Y-58887500D02*
X156050000Y-60125000D01*
D41*
X156050000Y-60125000D02*
X155975000Y-60200000D01*
D49*
X155975000Y-60200000D02*
X155975000Y-60955000D01*
D41*
X155975000Y-60955000D02*
X156000000Y-60980000D01*
%TO.N,/MCU/XTAL_N*%
X152200000Y-56700000D02*
X151550000Y-56050000D01*
X151535000Y-54550000D02*
X151535000Y-55835000D01*
X151550000Y-56050000D02*
X151550000Y-55850000D01*
X155362500Y-56700000D02*
X152200000Y-56700000D01*
X151535000Y-55835000D02*
X151550000Y-55850000D01*
%TO.N,Net-(C305-Pad1)*%
X154200000Y-57920000D02*
X153320000Y-57920000D01*
X152575000Y-57925000D02*
X152950000Y-57550000D01*
X153320000Y-57920000D02*
X152950000Y-57550000D01*
X152575000Y-58850000D02*
X152575000Y-57925000D01*
%TO.N,/MCU/VCC_SPI*%
X160640000Y-50940000D02*
X160640000Y-50970000D01*
D46*
X162020000Y-50970000D02*
X162020000Y-52625000D01*
D41*
X159696770Y-49996770D02*
X160640000Y-50940000D01*
D46*
X159050000Y-54012500D02*
X159050000Y-53230000D01*
D41*
X157975000Y-50385000D02*
X157975000Y-51160000D01*
D46*
X162020000Y-52625000D02*
X161995000Y-52650000D01*
X160050000Y-52230000D02*
X160050000Y-51560000D01*
X160640000Y-50970000D02*
X162020000Y-50970000D01*
X160050000Y-51560000D02*
X160640000Y-50970000D01*
D41*
X158363230Y-49996770D02*
X157975000Y-50385000D01*
X159696770Y-49996770D02*
X158363230Y-49996770D01*
D46*
X159050000Y-53230000D02*
X160050000Y-52230000D01*
D41*
%TO.N,/Power/USB_D+*%
X159630000Y-47280000D02*
X159630000Y-48070000D01*
X159630000Y-48070000D02*
X159300000Y-48400000D01*
X160630000Y-47280000D02*
X160630000Y-48330000D01*
X153000000Y-49900000D02*
X153000000Y-49200000D01*
X160630000Y-48330000D02*
X160700000Y-48400000D01*
%TO.N,/Power/USB_D-*%
X154000000Y-49900000D02*
X154000000Y-49200000D01*
X160130000Y-48070000D02*
X160000000Y-48200000D01*
X160000000Y-48200000D02*
X160000000Y-48900000D01*
X161400000Y-48900000D02*
X161400000Y-48280000D01*
X161400000Y-48280000D02*
X161130000Y-48010000D01*
X160130000Y-47280000D02*
X160130000Y-48070000D01*
X161130000Y-48010000D02*
X161130000Y-47280000D01*
%TO.N,/MCU/DISP_SDA*%
X165490000Y-56280000D02*
X160900000Y-56280000D01*
X167750000Y-51750000D02*
X167175000Y-51750000D01*
X167175000Y-51750000D02*
X167000000Y-51925000D01*
X167000000Y-54770000D02*
X165490000Y-56280000D01*
X160900000Y-56280000D02*
X160820000Y-56200000D01*
X167000000Y-51925000D02*
X167000000Y-54770000D01*
X160820000Y-56200000D02*
X160237500Y-56200000D01*
%TO.N,/MCU/DISP_DC*%
X165800000Y-58200000D02*
X160237500Y-58200000D01*
X170075000Y-52375000D02*
X170075000Y-57805000D01*
X166725000Y-59125000D02*
X165800000Y-58200000D01*
X170075000Y-57805000D02*
X168755000Y-59125000D01*
X168530122Y-50750000D02*
X167750000Y-50750000D01*
X168755000Y-59125000D02*
X166725000Y-59125000D01*
X168554622Y-50774500D02*
X168530122Y-50750000D01*
%TO.N,/MCU/DISP_SCL*%
X162002463Y-57500000D02*
X166450000Y-57500000D01*
X169125000Y-57675000D02*
X169125000Y-50525000D01*
X168850000Y-50250000D02*
X167750000Y-50250000D01*
X169125000Y-50525000D02*
X168850000Y-50250000D01*
X166450000Y-57500000D02*
X167300000Y-58350000D01*
X161177463Y-56675000D02*
X162002463Y-57500000D01*
X167300000Y-58350000D02*
X168450000Y-58350000D01*
X160657537Y-56675000D02*
X161177463Y-56675000D01*
X160237500Y-56700000D02*
X160632537Y-56700000D01*
X160632537Y-56700000D02*
X160657537Y-56675000D01*
X168450000Y-58350000D02*
X169125000Y-57675000D01*
%TO.N,/MCU/DISP_RST*%
X167750000Y-49250000D02*
X168575000Y-49250000D01*
X168585000Y-58725000D02*
X166975000Y-58725000D01*
X160940793Y-57900000D02*
X160740793Y-57700000D01*
X169475000Y-57835000D02*
X168585000Y-58725000D01*
X168575000Y-49250000D02*
X169475000Y-50150000D01*
X166150000Y-57900000D02*
X160940793Y-57900000D01*
X169475000Y-50150000D02*
X169475000Y-57835000D01*
X160740793Y-57700000D02*
X160237500Y-57700000D01*
X166975000Y-58725000D02*
X166150000Y-57900000D01*
D48*
%TO.N,Net-(D401-DIN)*%
X179980000Y-51280000D02*
X179980000Y-51650000D01*
X179062500Y-50050000D02*
X179062500Y-50362500D01*
X179062500Y-50362500D02*
X179980000Y-51280000D01*
D41*
%TO.N,/MCU/XTAL_P*%
X155362500Y-57200000D02*
X154280000Y-57200000D01*
X154280000Y-57200000D02*
X154200000Y-57280000D01*
%TO.N,/MCU/SPI_D*%
X156550000Y-51875000D02*
X156475000Y-51800000D01*
X156550000Y-54012500D02*
X156550000Y-51875000D01*
%TO.N,/MCU/SPI_WP*%
X158050000Y-53390000D02*
X158180000Y-53260000D01*
X158725000Y-52100000D02*
X158725000Y-51800000D01*
X158180000Y-53260000D02*
X158180000Y-52645000D01*
X158050000Y-54012500D02*
X158050000Y-53390000D01*
X158180000Y-52645000D02*
X158725000Y-52100000D01*
%TO.N,/MCU/SPI_CLK*%
X156960000Y-52300000D02*
X157225000Y-52035000D01*
X157050000Y-53420000D02*
X156960000Y-53330000D01*
X157225000Y-52035000D02*
X157225000Y-51800000D01*
X157050000Y-54012500D02*
X157050000Y-53420000D01*
X156960000Y-53330000D02*
X156960000Y-52300000D01*
%TO.N,/MCU/SPI_Q*%
X155725000Y-52775000D02*
X155725000Y-51795000D01*
X156050000Y-53100000D02*
X155725000Y-52775000D01*
X156050000Y-54012500D02*
X156050000Y-53100000D01*
%TO.N,/MCU/SPI_HD*%
X159475000Y-52000000D02*
X159475000Y-51800000D01*
X158550000Y-52925000D02*
X159475000Y-52000000D01*
X158550000Y-54012500D02*
X158550000Y-52925000D01*
%TO.N,/USB_P*%
X154870000Y-55200000D02*
X155362500Y-55200000D01*
X152960000Y-50740000D02*
X152960000Y-53290000D01*
X153000000Y-50700000D02*
X152960000Y-50740000D01*
X152960000Y-53290000D02*
X154870000Y-55200000D01*
%TO.N,/USB_N*%
X154024927Y-50724927D02*
X154000000Y-50700000D01*
X153800000Y-52100000D02*
X154024927Y-51875073D01*
X153454264Y-53360000D02*
X153260000Y-53165736D01*
X153935000Y-53665000D02*
X153630000Y-53360000D01*
X153935000Y-53795000D02*
X153935000Y-53665000D01*
X153260000Y-53165736D02*
X153260000Y-52340000D01*
X155362500Y-54700000D02*
X154840000Y-54700000D01*
X153630000Y-53360000D02*
X153454264Y-53360000D01*
X154024927Y-51875073D02*
X154024927Y-50724927D01*
X153260000Y-52340000D02*
X153500000Y-52100000D01*
X153500000Y-52100000D02*
X153800000Y-52100000D01*
X154840000Y-54700000D02*
X153935000Y-53795000D01*
D46*
%TO.N,/MCU/VRF*%
X156550000Y-58887500D02*
X156550000Y-59347452D01*
X157426274Y-60226274D02*
X158000000Y-60800000D01*
X157426274Y-60223726D02*
X157426274Y-60226274D01*
X157050000Y-58887500D02*
X157050000Y-59847452D01*
X157050000Y-59847452D02*
X157426274Y-60223726D01*
X156550000Y-59347452D02*
X157426274Y-60223726D01*
D48*
%TO.N,/MCU/FLASH_CS0*%
X157550000Y-54012500D02*
X157550000Y-52875000D01*
D41*
X162000000Y-58780000D02*
X161995000Y-58785000D01*
X157975000Y-52075000D02*
X157975000Y-51800000D01*
X157550000Y-52500000D02*
X157975000Y-52075000D01*
X157550000Y-52875000D02*
X157550000Y-52500000D01*
X161995000Y-58785000D02*
X161995000Y-59850000D01*
D48*
%TO.N,/MCU/FLASH_IO0*%
X156475000Y-50340000D02*
X156475000Y-51160000D01*
D41*
X165805000Y-51530000D02*
X165805000Y-52650000D01*
D48*
%TO.N,/MCU/FLASH_IO2*%
X158720000Y-50580000D02*
X158725000Y-50585000D01*
D41*
X164535000Y-58790000D02*
X164535000Y-59850000D01*
D48*
X158725000Y-50585000D02*
X158725000Y-51160000D01*
D41*
X164550000Y-58775000D02*
X164535000Y-58790000D01*
%TO.N,/MCU/FLASH_CLK*%
X164535000Y-51540000D02*
X164535000Y-52650000D01*
D48*
X157225000Y-50610000D02*
X157225000Y-51160000D01*
D41*
X164550000Y-51525000D02*
X164535000Y-51540000D01*
D48*
X164525000Y-52140000D02*
X164535000Y-52150000D01*
D41*
%TO.N,/MCU/FLASH_IO1*%
X155725000Y-50615000D02*
X155725000Y-51155000D01*
X163265000Y-58785000D02*
X163265000Y-59850000D01*
X163275000Y-58775000D02*
X163265000Y-58785000D01*
X155730000Y-50610000D02*
X155725000Y-50615000D01*
%TO.N,/MCU/FLASH_IO3*%
X163275000Y-52640000D02*
X163265000Y-52650000D01*
X163275000Y-51540000D02*
X163275000Y-52640000D01*
D48*
X159475000Y-50526770D02*
X159475000Y-51160000D01*
X159480000Y-50521770D02*
X159475000Y-50526770D01*
D41*
%TO.N,/Power/CC1*%
X162865000Y-49175000D02*
X163085000Y-49175000D01*
X161630000Y-47280000D02*
X161630000Y-47940000D01*
X161630000Y-47940000D02*
X162865000Y-49175000D01*
%TO.N,/Power/CC2*%
X158630000Y-48145000D02*
X157675000Y-49100000D01*
X158630000Y-47280000D02*
X158630000Y-48145000D01*
X157675000Y-49100000D02*
X155770000Y-49100000D01*
D48*
%TO.N,Net-(J401-LEDK)*%
X168410000Y-44440000D02*
X168410000Y-42650000D01*
X167750000Y-46750000D02*
X167200000Y-46750000D01*
X167050000Y-46600000D02*
X167050000Y-45800000D01*
X167050000Y-45800000D02*
X168410000Y-44440000D01*
X167200000Y-46750000D02*
X167050000Y-46600000D01*
%TD*%
%TA.AperFunction,Conductor*%
%TO.N,GND*%
G36*
X155701621Y-40020502D02*
G01*
X155748114Y-40074158D01*
X155759500Y-40126500D01*
X155759500Y-40951947D01*
X155739498Y-41020068D01*
X155685842Y-41066561D01*
X155615568Y-41076665D01*
X155550988Y-41047171D01*
X155524381Y-41014948D01*
X155495786Y-40965420D01*
X155368562Y-40824123D01*
X155214741Y-40712365D01*
X155041045Y-40635031D01*
X154855067Y-40595500D01*
X154664933Y-40595500D01*
X154478954Y-40635031D01*
X154305258Y-40712365D01*
X154151438Y-40824122D01*
X154024215Y-40965418D01*
X154024214Y-40965420D01*
X153995619Y-41014948D01*
X153929148Y-41130077D01*
X153870391Y-41310908D01*
X153855500Y-41452593D01*
X153855500Y-42747406D01*
X153870391Y-42889091D01*
X153906427Y-42999997D01*
X153929147Y-43069920D01*
X154024214Y-43234580D01*
X154151438Y-43375877D01*
X154305259Y-43487635D01*
X154478955Y-43564969D01*
X154664933Y-43604500D01*
X154855067Y-43604500D01*
X155041045Y-43564969D01*
X155214741Y-43487635D01*
X155368562Y-43375877D01*
X155495786Y-43234580D01*
X155524381Y-43185051D01*
X155575764Y-43136059D01*
X155645477Y-43122623D01*
X155711388Y-43149009D01*
X155752570Y-43206842D01*
X155759500Y-43248052D01*
X155759500Y-45117306D01*
X155739498Y-45185427D01*
X155685842Y-45231920D01*
X155615568Y-45242024D01*
X155550988Y-45212530D01*
X155524382Y-45180309D01*
X155520080Y-45172858D01*
X155515786Y-45165420D01*
X155388562Y-45024123D01*
X155234741Y-44912365D01*
X155061045Y-44835031D01*
X154875067Y-44795500D01*
X154684933Y-44795500D01*
X154498954Y-44835031D01*
X154325258Y-44912365D01*
X154171438Y-45024122D01*
X154044215Y-45165418D01*
X154044214Y-45165420D01*
X154035031Y-45181326D01*
X153949148Y-45330077D01*
X153890391Y-45510908D01*
X153875500Y-45652593D01*
X153875500Y-46547406D01*
X153890391Y-46689091D01*
X153914574Y-46763516D01*
X153949147Y-46869920D01*
X154044214Y-47034580D01*
X154171438Y-47175877D01*
X154325259Y-47287635D01*
X154498955Y-47364969D01*
X154684933Y-47404500D01*
X154875067Y-47404500D01*
X155061045Y-47364969D01*
X155234741Y-47287635D01*
X155388562Y-47175877D01*
X155515786Y-47034580D01*
X155610853Y-46869920D01*
X155653848Y-46737594D01*
X155693922Y-46678989D01*
X155737176Y-46660709D01*
X155736924Y-46660098D01*
X155736982Y-46660074D01*
X155740186Y-46659437D01*
X155759318Y-46651352D01*
X155773604Y-46650531D01*
X155785023Y-46650524D01*
X155785023Y-46650526D01*
X155785158Y-46650500D01*
X157299500Y-46650500D01*
X157367621Y-46670502D01*
X157414114Y-46724158D01*
X157425500Y-46776500D01*
X157425501Y-47629500D01*
X157405499Y-47697621D01*
X157351843Y-47744114D01*
X157299501Y-47755500D01*
X153960064Y-47755500D01*
X153891943Y-47735498D01*
X153877414Y-47724496D01*
X153876820Y-47724086D01*
X153876818Y-47724085D01*
X153876815Y-47724083D01*
X153876813Y-47724082D01*
X153735220Y-47649769D01*
X153579957Y-47611500D01*
X153579956Y-47611500D01*
X153420044Y-47611500D01*
X153420042Y-47611500D01*
X153264779Y-47649769D01*
X153123186Y-47724082D01*
X153123182Y-47724084D01*
X153003484Y-47830128D01*
X152912647Y-47961728D01*
X152912644Y-47961734D01*
X152855938Y-48111253D01*
X152855937Y-48111257D01*
X152836664Y-48269997D01*
X152836664Y-48270002D01*
X152855937Y-48428742D01*
X152855939Y-48428748D01*
X152858371Y-48435161D01*
X152863822Y-48505948D01*
X152830137Y-48568445D01*
X152768012Y-48602809D01*
X152765138Y-48603416D01*
X152730698Y-48610266D01*
X152646515Y-48666516D01*
X152590266Y-48750697D01*
X152575500Y-48824930D01*
X152575500Y-49499581D01*
X152555498Y-49567702D01*
X152549464Y-49576283D01*
X152515646Y-49620356D01*
X152515645Y-49620358D01*
X152493401Y-49674060D01*
X152459771Y-49755247D01*
X152440715Y-49899999D01*
X152440715Y-49900000D01*
X152459771Y-50044752D01*
X152515644Y-50179641D01*
X152515649Y-50179649D01*
X152551374Y-50226207D01*
X152576974Y-50292427D01*
X152575490Y-50318709D01*
X152576107Y-50318770D01*
X152575500Y-50324934D01*
X152575500Y-51075063D01*
X152575501Y-51075073D01*
X152590266Y-51149301D01*
X152590267Y-51149304D01*
X152609263Y-51177732D01*
X152630480Y-51245484D01*
X152630500Y-51247736D01*
X152630500Y-53272867D01*
X152630260Y-53278352D01*
X152628121Y-53302799D01*
X152626690Y-53319158D01*
X152626690Y-53319165D01*
X152637290Y-53358725D01*
X152638480Y-53364091D01*
X152645593Y-53404430D01*
X152647498Y-53409664D01*
X152654416Y-53426367D01*
X152656762Y-53431397D01*
X152659952Y-53435953D01*
X152676976Y-53460266D01*
X152680258Y-53464952D01*
X152683212Y-53469589D01*
X152703695Y-53505066D01*
X152703696Y-53505067D01*
X152735078Y-53531400D01*
X152739120Y-53535104D01*
X154624903Y-55420886D01*
X154628608Y-55424930D01*
X154649146Y-55449407D01*
X154677610Y-55514448D01*
X154677545Y-55546841D01*
X154670500Y-55600351D01*
X154670500Y-55799648D01*
X154676577Y-55845810D01*
X154676577Y-55845811D01*
X154700331Y-55896751D01*
X154710992Y-55966942D01*
X154700331Y-56003249D01*
X154676577Y-56054188D01*
X154676577Y-56054189D01*
X154670500Y-56100351D01*
X154670500Y-56244500D01*
X154650498Y-56312621D01*
X154596842Y-56359114D01*
X154544500Y-56370500D01*
X152480500Y-56370500D01*
X152412379Y-56350498D01*
X152365886Y-56296842D01*
X152354500Y-56244500D01*
X152354499Y-55224936D01*
X152354498Y-55224926D01*
X152339734Y-55150699D01*
X152283483Y-55066515D01*
X152199302Y-55010266D01*
X152125069Y-54995500D01*
X152125067Y-54995500D01*
X152092539Y-54995500D01*
X152024418Y-54975498D01*
X151977925Y-54921842D01*
X151967821Y-54851568D01*
X151979341Y-54814162D01*
X151990697Y-54790932D01*
X152009461Y-54752550D01*
X152019500Y-54683646D01*
X152019500Y-54416354D01*
X152009461Y-54347450D01*
X151957499Y-54241160D01*
X151957498Y-54241158D01*
X151873841Y-54157501D01*
X151873839Y-54157500D01*
X151767552Y-54105540D01*
X151767550Y-54105539D01*
X151698647Y-54095500D01*
X151698646Y-54095500D01*
X151371354Y-54095500D01*
X151371352Y-54095500D01*
X151302449Y-54105539D01*
X151302447Y-54105540D01*
X151196160Y-54157500D01*
X151196158Y-54157501D01*
X151112501Y-54241158D01*
X151112500Y-54241160D01*
X151060540Y-54347447D01*
X151060539Y-54347449D01*
X151050500Y-54416352D01*
X151050500Y-54683647D01*
X151060539Y-54752550D01*
X151090659Y-54814162D01*
X151102607Y-54884146D01*
X151074822Y-54949480D01*
X151016126Y-54989421D01*
X150977475Y-54995500D01*
X150974943Y-54995500D01*
X150974926Y-54995501D01*
X150900699Y-55010265D01*
X150816515Y-55066516D01*
X150760266Y-55150697D01*
X150745500Y-55224930D01*
X150745500Y-56475063D01*
X150745501Y-56475073D01*
X150760265Y-56549300D01*
X150816516Y-56633484D01*
X150900697Y-56689733D01*
X150900699Y-56689734D01*
X150974933Y-56704500D01*
X151686325Y-56704499D01*
X151754446Y-56724501D01*
X151775419Y-56741403D01*
X151954899Y-56920883D01*
X151958604Y-56924926D01*
X151982052Y-56952871D01*
X151984934Y-56956305D01*
X152020398Y-56976780D01*
X152025033Y-56979734D01*
X152048671Y-56996283D01*
X152058599Y-57003235D01*
X152058601Y-57003235D01*
X152068593Y-57007896D01*
X152067267Y-57010737D01*
X152112721Y-57038434D01*
X152143752Y-57102290D01*
X152145500Y-57123203D01*
X152145500Y-58175063D01*
X152145501Y-58175073D01*
X152160265Y-58249299D01*
X152160265Y-58249300D01*
X152160266Y-58249301D01*
X152216516Y-58333484D01*
X152216517Y-58333484D01*
X152216609Y-58333622D01*
X152237824Y-58401375D01*
X152219041Y-58469842D01*
X152200940Y-58492720D01*
X152152499Y-58541160D01*
X152100540Y-58647447D01*
X152100539Y-58647449D01*
X152090500Y-58716352D01*
X152090500Y-58983647D01*
X152100539Y-59052550D01*
X152100540Y-59052552D01*
X152152500Y-59158839D01*
X152152501Y-59158841D01*
X152236158Y-59242498D01*
X152236160Y-59242499D01*
X152342450Y-59294461D01*
X152411354Y-59304500D01*
X152411360Y-59304500D01*
X152738640Y-59304500D01*
X152738646Y-59304500D01*
X152807550Y-59294461D01*
X152913840Y-59242499D01*
X152997499Y-59158840D01*
X153049461Y-59052550D01*
X153059500Y-58983646D01*
X153059500Y-58716354D01*
X153049461Y-58647450D01*
X153041050Y-58630246D01*
X153019341Y-58585838D01*
X153007392Y-58515854D01*
X153035176Y-58450520D01*
X153093872Y-58410578D01*
X153132538Y-58404499D01*
X153525064Y-58404499D01*
X153525066Y-58404499D01*
X153525069Y-58404498D01*
X153525072Y-58404498D01*
X153575791Y-58394410D01*
X153599301Y-58389734D01*
X153683484Y-58333484D01*
X153683484Y-58333482D01*
X153683486Y-58333482D01*
X153692259Y-58324710D01*
X153695109Y-58327560D01*
X153732160Y-58296556D01*
X153802597Y-58287662D01*
X153866661Y-58318262D01*
X153871618Y-58322958D01*
X153887575Y-58338915D01*
X153921601Y-58401227D01*
X153916536Y-58472042D01*
X153897913Y-58505399D01*
X153884842Y-58522192D01*
X153881030Y-58529237D01*
X153877524Y-58536408D01*
X153861610Y-58589865D01*
X153843499Y-58642618D01*
X153842185Y-58650488D01*
X153841194Y-58658442D01*
X153843500Y-58714163D01*
X153843500Y-59122969D01*
X153823498Y-59191090D01*
X153806599Y-59212061D01*
X153802501Y-59216158D01*
X153802501Y-59216159D01*
X153750539Y-59322447D01*
X153750539Y-59322449D01*
X153740500Y-59391352D01*
X153740500Y-59663205D01*
X153739437Y-59663205D01*
X153725445Y-59727773D01*
X153703905Y-59756571D01*
X153651880Y-59808596D01*
X153589571Y-59842620D01*
X153562787Y-59845500D01*
X153536352Y-59845500D01*
X153467449Y-59855539D01*
X153467447Y-59855540D01*
X153361160Y-59907500D01*
X153361158Y-59907501D01*
X153277501Y-59991158D01*
X153277500Y-59991160D01*
X153225540Y-60097447D01*
X153225539Y-60097449D01*
X153215500Y-60166352D01*
X153215500Y-60433647D01*
X153226950Y-60512233D01*
X153223941Y-60512671D01*
X153224716Y-60567642D01*
X153187177Y-60627902D01*
X153176765Y-60635429D01*
X153176910Y-60635618D01*
X153170359Y-60640644D01*
X153170358Y-60640645D01*
X153087386Y-60704312D01*
X153054526Y-60729526D01*
X152965646Y-60845356D01*
X152965645Y-60845358D01*
X152942025Y-60902382D01*
X152909771Y-60980247D01*
X152890715Y-61124999D01*
X152890715Y-61125000D01*
X152909771Y-61269752D01*
X152965644Y-61404641D01*
X152965649Y-61404649D01*
X153054525Y-61520474D01*
X153170350Y-61609350D01*
X153170357Y-61609355D01*
X153305246Y-61665228D01*
X153450000Y-61684285D01*
X153594754Y-61665228D01*
X153729643Y-61609355D01*
X153845474Y-61520474D01*
X153934355Y-61404643D01*
X153990228Y-61269754D01*
X154008976Y-61127339D01*
X154034469Y-61066392D01*
X154040158Y-61059085D01*
X154040159Y-61059079D01*
X154040161Y-61059078D01*
X154043954Y-61052069D01*
X154047471Y-61044874D01*
X154047475Y-61044870D01*
X154054516Y-61021220D01*
X154063391Y-60991410D01*
X154081499Y-60938664D01*
X154082819Y-60930749D01*
X154083805Y-60922843D01*
X154081500Y-60867116D01*
X154081500Y-60702029D01*
X154101502Y-60633908D01*
X154118403Y-60612935D01*
X154122499Y-60608840D01*
X154126341Y-60600979D01*
X154130803Y-60591855D01*
X154178691Y-60539441D01*
X154181883Y-60538594D01*
X154175281Y-60522148D01*
X154176015Y-60491881D01*
X154177815Y-60479526D01*
X154184500Y-60433646D01*
X154184500Y-60407210D01*
X154204502Y-60339090D01*
X154221400Y-60318121D01*
X154457545Y-60081976D01*
X154477721Y-60065593D01*
X154486956Y-60059560D01*
X154509111Y-60031093D01*
X154514277Y-60025244D01*
X154517114Y-60022409D01*
X154530900Y-60003099D01*
X154565158Y-59959085D01*
X154565160Y-59959076D01*
X154568962Y-59952054D01*
X154572475Y-59944869D01*
X154578633Y-59924184D01*
X154610303Y-59871035D01*
X154625799Y-59855540D01*
X154647499Y-59833840D01*
X154699461Y-59727550D01*
X154709500Y-59658646D01*
X154709500Y-59391354D01*
X154699461Y-59322450D01*
X154647499Y-59216160D01*
X154647498Y-59216158D01*
X154643405Y-59212065D01*
X154609379Y-59149753D01*
X154606500Y-59122970D01*
X154606500Y-58916492D01*
X154626502Y-58848371D01*
X154643405Y-58827396D01*
X154852398Y-58618404D01*
X154914710Y-58584379D01*
X154941493Y-58581500D01*
X155394110Y-58581500D01*
X155394111Y-58581500D01*
X155395795Y-58581218D01*
X155416535Y-58579500D01*
X155544500Y-58579500D01*
X155612621Y-58599502D01*
X155659114Y-58653158D01*
X155670500Y-58705500D01*
X155670500Y-58801414D01*
X155668781Y-58822153D01*
X155668500Y-58823836D01*
X155668500Y-59625065D01*
X155648498Y-59693186D01*
X155594842Y-59739679D01*
X155524568Y-59749783D01*
X155524338Y-59749749D01*
X155498609Y-59746001D01*
X155498592Y-59746000D01*
X155171400Y-59746000D01*
X155102593Y-59756025D01*
X155102591Y-59756026D01*
X154996454Y-59807913D01*
X154996452Y-59807914D01*
X154912914Y-59891452D01*
X154912913Y-59891454D01*
X154861026Y-59997591D01*
X154861025Y-59997593D01*
X154851000Y-60066400D01*
X154850671Y-60070949D01*
X154849044Y-60070831D01*
X154830998Y-60132292D01*
X154816276Y-60151031D01*
X154391975Y-60596907D01*
X154363151Y-60613586D01*
X154370000Y-60647193D01*
X154370000Y-60910000D01*
X154630000Y-61190000D01*
X154880000Y-61190000D01*
X155333146Y-60763508D01*
X155396458Y-60731388D01*
X155467088Y-60738595D01*
X155522609Y-60782844D01*
X155545394Y-60850085D01*
X155545500Y-60855262D01*
X155545500Y-61143646D01*
X155555539Y-61212550D01*
X155565016Y-61231936D01*
X155571238Y-61244664D01*
X155583185Y-61314648D01*
X155571238Y-61355336D01*
X155555539Y-61387450D01*
X155545500Y-61456352D01*
X155545500Y-61783647D01*
X155555539Y-61852550D01*
X155555539Y-61852552D01*
X155588047Y-61919046D01*
X155600850Y-61974385D01*
X155600850Y-62075614D01*
X155588048Y-62130950D01*
X155555539Y-62197450D01*
X155552192Y-62220418D01*
X155545500Y-62266352D01*
X155545500Y-62533649D01*
X155555921Y-62605176D01*
X155545948Y-62675469D01*
X155531199Y-62700046D01*
X155494650Y-62747676D01*
X155489210Y-62753879D01*
X155431775Y-62811310D01*
X155431768Y-62811320D01*
X155423093Y-62819997D01*
X155408770Y-62834318D01*
X155402571Y-62839755D01*
X155342202Y-62886080D01*
X155313717Y-62902526D01*
X155254926Y-62926880D01*
X155223156Y-62935394D01*
X155147861Y-62945310D01*
X155139627Y-62945850D01*
X154576850Y-62945850D01*
X154576822Y-62945848D01*
X154558563Y-62945848D01*
X154558494Y-62945828D01*
X154409618Y-62945832D01*
X154218525Y-62976106D01*
X154034524Y-63035898D01*
X153862146Y-63123735D01*
X153705624Y-63237463D01*
X153671423Y-63271666D01*
X153506627Y-63436462D01*
X153506262Y-63436855D01*
X153462479Y-63480635D01*
X153348757Y-63637151D01*
X153260915Y-63809535D01*
X153201126Y-63993529D01*
X153190667Y-64059543D01*
X153170984Y-64109827D01*
X153110266Y-64200697D01*
X153095500Y-64274930D01*
X153095500Y-64274933D01*
X153095501Y-64674000D01*
X153075499Y-64742120D01*
X153021844Y-64788614D01*
X152969501Y-64800000D01*
X150126500Y-64800000D01*
X150058379Y-64779998D01*
X150011886Y-64726342D01*
X150000500Y-64674000D01*
X150000500Y-40126500D01*
X150020502Y-40058379D01*
X150074158Y-40011886D01*
X150126500Y-40000500D01*
X155633500Y-40000500D01*
X155701621Y-40020502D01*
G37*
%TD.AperFunction*%
%TA.AperFunction,Conductor*%
G36*
X189941621Y-40020502D02*
G01*
X189988114Y-40074158D01*
X189999500Y-40126500D01*
X189999500Y-64674000D01*
X189979498Y-64742121D01*
X189925842Y-64788614D01*
X189873500Y-64800000D01*
X154230500Y-64800000D01*
X154162379Y-64779998D01*
X154115886Y-64726342D01*
X154104500Y-64674000D01*
X154104499Y-64274936D01*
X154104498Y-64274926D01*
X154089734Y-64200700D01*
X154085580Y-64190671D01*
X154077991Y-64120081D01*
X154102027Y-64065748D01*
X154135359Y-64022312D01*
X154140797Y-64016112D01*
X154181393Y-63975519D01*
X154181393Y-63975516D01*
X154191758Y-63965153D01*
X154191763Y-63965148D01*
X154200516Y-63956393D01*
X154200519Y-63956393D01*
X154241230Y-63915679D01*
X154247423Y-63910249D01*
X154258710Y-63901587D01*
X154307797Y-63863919D01*
X154336276Y-63847475D01*
X154395076Y-63823117D01*
X154426841Y-63814604D01*
X154454879Y-63810912D01*
X154502140Y-63804690D01*
X154510373Y-63804150D01*
X155073150Y-63804150D01*
X155073178Y-63804151D01*
X155081938Y-63804151D01*
X155081942Y-63804152D01*
X155091431Y-63804151D01*
X155091500Y-63804171D01*
X155143645Y-63804169D01*
X155143645Y-63804170D01*
X155240381Y-63804167D01*
X155431471Y-63773894D01*
X155615472Y-63714102D01*
X155615474Y-63714101D01*
X155787850Y-63626265D01*
X155787850Y-63626264D01*
X155787855Y-63626262D01*
X155944375Y-63512538D01*
X156012776Y-63444133D01*
X156022070Y-63434839D01*
X156121879Y-63335031D01*
X156121881Y-63335027D01*
X156123417Y-63333492D01*
X156123782Y-63333098D01*
X156167521Y-63289363D01*
X156281245Y-63132846D01*
X156285887Y-63123738D01*
X156369082Y-62960468D01*
X156369084Y-62960462D01*
X156375541Y-62940593D01*
X156415615Y-62881988D01*
X156481012Y-62854352D01*
X156504483Y-62853861D01*
X156506401Y-62854000D01*
X156510531Y-62854000D01*
X156578652Y-62874002D01*
X156596887Y-62888247D01*
X156856774Y-63132846D01*
X157130000Y-63390000D01*
X157380000Y-63390000D01*
X157640000Y-63110000D01*
X157640000Y-62820000D01*
X157188494Y-62345536D01*
X157156023Y-62282399D01*
X157154099Y-62267771D01*
X157154000Y-62266406D01*
X157143939Y-62197351D01*
X157153911Y-62127058D01*
X157200303Y-62073315D01*
X157268386Y-62053185D01*
X157304118Y-62058288D01*
X157400817Y-62086681D01*
X157428839Y-62094910D01*
X157428840Y-62094910D01*
X157428843Y-62094911D01*
X157428846Y-62094911D01*
X157571154Y-62094911D01*
X157571157Y-62094911D01*
X157707708Y-62054816D01*
X157827430Y-61977875D01*
X157920627Y-61870320D01*
X157979746Y-61740866D01*
X157981126Y-61731267D01*
X157983943Y-61711679D01*
X158013436Y-61647098D01*
X158073162Y-61608715D01*
X158144158Y-61608715D01*
X158197755Y-61640516D01*
X158246878Y-61689639D01*
X158246881Y-61689641D01*
X158246883Y-61689643D01*
X158302704Y-61731267D01*
X158414605Y-61769683D01*
X158414612Y-61769683D01*
X158414952Y-61769740D01*
X158415602Y-61770025D01*
X158424480Y-61773073D01*
X158424227Y-61773809D01*
X158455473Y-61787517D01*
X158456733Y-61785189D01*
X158465913Y-61790156D01*
X158465915Y-61790158D01*
X158465917Y-61790158D01*
X158472953Y-61793966D01*
X158480127Y-61797473D01*
X158480130Y-61797475D01*
X158512836Y-61807211D01*
X158533590Y-61813391D01*
X158586333Y-61831498D01*
X158586339Y-61831500D01*
X158586345Y-61831500D01*
X158594250Y-61832819D01*
X158602156Y-61833805D01*
X158602157Y-61833804D01*
X158602158Y-61833805D01*
X158657884Y-61831500D01*
X158701124Y-61831500D01*
X158769245Y-61851502D01*
X158777828Y-61857538D01*
X158844426Y-61908641D01*
X158845357Y-61909355D01*
X158980246Y-61965228D01*
X159125000Y-61984285D01*
X159269754Y-61965228D01*
X159404643Y-61909355D01*
X159404644Y-61909353D01*
X159412273Y-61906194D01*
X159413286Y-61908641D01*
X159469490Y-61894996D01*
X159487745Y-61898197D01*
X159487767Y-61898050D01*
X159497449Y-61899460D01*
X159497450Y-61899461D01*
X159566354Y-61909500D01*
X159566360Y-61909500D01*
X159833640Y-61909500D01*
X159833646Y-61909500D01*
X159902550Y-61899461D01*
X159936625Y-61882802D01*
X159991963Y-61870000D01*
X160124903Y-61870000D01*
X160193024Y-61890002D01*
X160213998Y-61906905D01*
X160220226Y-61913133D01*
X160220229Y-61913135D01*
X160331573Y-61969868D01*
X160423955Y-61984500D01*
X160688838Y-61984499D01*
X160756958Y-62004501D01*
X160777933Y-62021404D01*
X161365332Y-62608803D01*
X161382232Y-62629773D01*
X161382354Y-62629963D01*
X161384804Y-62633775D01*
X161384809Y-62633779D01*
X161424302Y-62668000D01*
X161427582Y-62671053D01*
X161438779Y-62682250D01*
X161451450Y-62691735D01*
X161454926Y-62694536D01*
X161494442Y-62728777D01*
X161498761Y-62730749D01*
X161521925Y-62744492D01*
X161525733Y-62747343D01*
X161543257Y-62753879D01*
X161574703Y-62765608D01*
X161578860Y-62767330D01*
X161620597Y-62786390D01*
X161626404Y-62789042D01*
X161631101Y-62789717D01*
X161657209Y-62796380D01*
X161661658Y-62798040D01*
X161713792Y-62801768D01*
X161718253Y-62802247D01*
X161728643Y-62803741D01*
X161733915Y-62804500D01*
X161733917Y-62804500D01*
X161749723Y-62804500D01*
X161754219Y-62804661D01*
X161772516Y-62805969D01*
X161806360Y-62808390D01*
X161811002Y-62807380D01*
X161837787Y-62804500D01*
X165773917Y-62804500D01*
X166223917Y-62804500D01*
X170042266Y-62804500D01*
X170069046Y-62807378D01*
X170073690Y-62808389D01*
X170108153Y-62805924D01*
X170125822Y-62804661D01*
X170130318Y-62804500D01*
X170146132Y-62804500D01*
X170146133Y-62804500D01*
X170161791Y-62802248D01*
X170166254Y-62801769D01*
X170191411Y-62799969D01*
X170218392Y-62798040D01*
X170222836Y-62796382D01*
X170248948Y-62789717D01*
X170253646Y-62789042D01*
X170301199Y-62767324D01*
X170305334Y-62765612D01*
X170354317Y-62747343D01*
X170358111Y-62744502D01*
X170381286Y-62730750D01*
X170385608Y-62728777D01*
X170425119Y-62694538D01*
X170428593Y-62691739D01*
X170441271Y-62682250D01*
X170452459Y-62671060D01*
X170455747Y-62668000D01*
X170495246Y-62633775D01*
X170497814Y-62629778D01*
X170514717Y-62608803D01*
X172258804Y-60864715D01*
X172279780Y-60847813D01*
X172283775Y-60845246D01*
X172318009Y-60805736D01*
X172321062Y-60802458D01*
X172322708Y-60800812D01*
X172332250Y-60791271D01*
X172341742Y-60778590D01*
X172344524Y-60775137D01*
X172378777Y-60735608D01*
X172380750Y-60731285D01*
X172394502Y-60708109D01*
X172397342Y-60704317D01*
X172415618Y-60655316D01*
X172417320Y-60651208D01*
X172439042Y-60603646D01*
X172439717Y-60598944D01*
X172446380Y-60572841D01*
X172448040Y-60568392D01*
X172451769Y-60516254D01*
X172452248Y-60511791D01*
X172454500Y-60496133D01*
X172454500Y-60480317D01*
X172454661Y-60475821D01*
X172456882Y-60444754D01*
X172458389Y-60423690D01*
X172457379Y-60419051D01*
X172454499Y-60392262D01*
X172454499Y-60300000D01*
X172940715Y-60300000D01*
X172959771Y-60444752D01*
X173015644Y-60579641D01*
X173015649Y-60579649D01*
X173104525Y-60695474D01*
X173220350Y-60784350D01*
X173220357Y-60784355D01*
X173355246Y-60840228D01*
X173500000Y-60859285D01*
X173644754Y-60840228D01*
X173779643Y-60784355D01*
X173895474Y-60695474D01*
X173908272Y-60678795D01*
X173965609Y-60636929D01*
X174008234Y-60629500D01*
X180619501Y-60629500D01*
X180687622Y-60649502D01*
X180734115Y-60703158D01*
X180745501Y-60755500D01*
X180745501Y-60925072D01*
X180760265Y-60999300D01*
X180816516Y-61083484D01*
X180900697Y-61139733D01*
X180900699Y-61139734D01*
X180974933Y-61154500D01*
X182825066Y-61154499D01*
X182825069Y-61154498D01*
X182825073Y-61154498D01*
X182879632Y-61143646D01*
X182899301Y-61139734D01*
X182983484Y-61083484D01*
X183039734Y-60999301D01*
X183054500Y-60925067D01*
X183054500Y-60925063D01*
X186945500Y-60925063D01*
X186945501Y-60925073D01*
X186960265Y-60999300D01*
X187016516Y-61083484D01*
X187100697Y-61139733D01*
X187100699Y-61139734D01*
X187174933Y-61154500D01*
X189025066Y-61154499D01*
X189025069Y-61154498D01*
X189025073Y-61154498D01*
X189079632Y-61143646D01*
X189099301Y-61139734D01*
X189183484Y-61083484D01*
X189239734Y-60999301D01*
X189254500Y-60925067D01*
X189254499Y-59774934D01*
X189254498Y-59774930D01*
X189254498Y-59774926D01*
X189239734Y-59700699D01*
X189234714Y-59693186D01*
X189183484Y-59616516D01*
X189177589Y-59612577D01*
X189099302Y-59560266D01*
X189025067Y-59545500D01*
X187174936Y-59545500D01*
X187174926Y-59545501D01*
X187100699Y-59560265D01*
X187016515Y-59616516D01*
X186960266Y-59700697D01*
X186945500Y-59774930D01*
X186945500Y-60925063D01*
X183054500Y-60925063D01*
X183054499Y-59774934D01*
X183054498Y-59774930D01*
X183054498Y-59774926D01*
X183039734Y-59700699D01*
X183034714Y-59693186D01*
X182983484Y-59616516D01*
X182977589Y-59612577D01*
X182899302Y-59560266D01*
X182825067Y-59545500D01*
X180974936Y-59545500D01*
X180974926Y-59545501D01*
X180900699Y-59560265D01*
X180816515Y-59616516D01*
X180760266Y-59700697D01*
X180745500Y-59774930D01*
X180745500Y-59844500D01*
X180725498Y-59912621D01*
X180671842Y-59959114D01*
X180619500Y-59970500D01*
X174008234Y-59970500D01*
X173940113Y-59950498D01*
X173908272Y-59921205D01*
X173895474Y-59904526D01*
X173895472Y-59904524D01*
X173895471Y-59904523D01*
X173779649Y-59815649D01*
X173779641Y-59815644D01*
X173644752Y-59759771D01*
X173500000Y-59740715D01*
X173355247Y-59759771D01*
X173303667Y-59781137D01*
X173220358Y-59815645D01*
X173220357Y-59815646D01*
X173220356Y-59815646D01*
X173104526Y-59904526D01*
X173015646Y-60020356D01*
X173015645Y-60020358D01*
X172994738Y-60070831D01*
X172959771Y-60155247D01*
X172940715Y-60299999D01*
X172940715Y-60300000D01*
X172454499Y-60300000D01*
X172454499Y-55700000D01*
X176010715Y-55700000D01*
X176029771Y-55844752D01*
X176085644Y-55979641D01*
X176085649Y-55979649D01*
X176174525Y-56095474D01*
X176290350Y-56184350D01*
X176290357Y-56184355D01*
X176425246Y-56240228D01*
X176570000Y-56259285D01*
X176714754Y-56240228D01*
X176849643Y-56184355D01*
X176965474Y-56095474D01*
X176978272Y-56078795D01*
X177035609Y-56036929D01*
X177078234Y-56029500D01*
X180882868Y-56029500D01*
X180888353Y-56029739D01*
X180929160Y-56033310D01*
X180968735Y-56022705D01*
X180974073Y-56021520D01*
X181014434Y-56014405D01*
X181014435Y-56014404D01*
X181014437Y-56014404D01*
X181019699Y-56012488D01*
X181036322Y-56005603D01*
X181041398Y-56003235D01*
X181041401Y-56003235D01*
X181074973Y-55979726D01*
X181079573Y-55976796D01*
X181115066Y-55956305D01*
X181117948Y-55952871D01*
X181141395Y-55924926D01*
X181145100Y-55920881D01*
X182099579Y-54966404D01*
X182161892Y-54932379D01*
X182188675Y-54929500D01*
X182219501Y-54929500D01*
X182287622Y-54949502D01*
X182334115Y-55003158D01*
X182345501Y-55055500D01*
X182345501Y-55525072D01*
X182360265Y-55599300D01*
X182416516Y-55683484D01*
X182500697Y-55739733D01*
X182500699Y-55739734D01*
X182574933Y-55754500D01*
X183725066Y-55754499D01*
X183725069Y-55754498D01*
X183725073Y-55754498D01*
X183774326Y-55744701D01*
X183799301Y-55739734D01*
X183883484Y-55683484D01*
X183939734Y-55599301D01*
X183954500Y-55525067D01*
X183954499Y-53674934D01*
X183954498Y-53674930D01*
X183954498Y-53674926D01*
X183939734Y-53600699D01*
X183915320Y-53564162D01*
X183883484Y-53516516D01*
X183883483Y-53516515D01*
X183799302Y-53460266D01*
X183725067Y-53445500D01*
X182574936Y-53445500D01*
X182574926Y-53445501D01*
X182488527Y-53462687D01*
X182488128Y-53460684D01*
X182433147Y-53466593D01*
X182425260Y-53462644D01*
X182424030Y-53497183D01*
X182409239Y-53527405D01*
X182360266Y-53600697D01*
X182345500Y-53674930D01*
X182345500Y-54144500D01*
X182325498Y-54212621D01*
X182271842Y-54259114D01*
X182219500Y-54270500D01*
X182017132Y-54270500D01*
X182011647Y-54270260D01*
X181982590Y-54267718D01*
X181970842Y-54266690D01*
X181970835Y-54266690D01*
X181931276Y-54277290D01*
X181925909Y-54278480D01*
X181885569Y-54285593D01*
X181880363Y-54287488D01*
X181863628Y-54294420D01*
X181858601Y-54296764D01*
X181858599Y-54296765D01*
X181850410Y-54302498D01*
X181825037Y-54320263D01*
X181820404Y-54323214D01*
X181784936Y-54343693D01*
X181784934Y-54343694D01*
X181758607Y-54375068D01*
X181754894Y-54379120D01*
X180800422Y-55333595D01*
X180738109Y-55367620D01*
X180711326Y-55370500D01*
X177078234Y-55370500D01*
X177010113Y-55350498D01*
X176978272Y-55321205D01*
X176965474Y-55304526D01*
X176965472Y-55304524D01*
X176965471Y-55304523D01*
X176849649Y-55215649D01*
X176849641Y-55215644D01*
X176714752Y-55159771D01*
X176570000Y-55140715D01*
X176425247Y-55159771D01*
X176357802Y-55187708D01*
X176290358Y-55215645D01*
X176290357Y-55215646D01*
X176290356Y-55215646D01*
X176174526Y-55304526D01*
X176085646Y-55420356D01*
X176085645Y-55420358D01*
X176061703Y-55478159D01*
X176029771Y-55555247D01*
X176010715Y-55699999D01*
X176010715Y-55700000D01*
X172454499Y-55700000D01*
X172454499Y-53435953D01*
X172454499Y-48150002D01*
X176986664Y-48150002D01*
X177005937Y-48308742D01*
X177005938Y-48308746D01*
X177062644Y-48458265D01*
X177062647Y-48458271D01*
X177123196Y-48545991D01*
X177145432Y-48613416D01*
X177145500Y-48617567D01*
X177145500Y-50782215D01*
X177142621Y-50808994D01*
X177141611Y-50813635D01*
X177141611Y-50813640D01*
X177145339Y-50865771D01*
X177145500Y-50870266D01*
X177145500Y-50886083D01*
X177146012Y-50889643D01*
X177147749Y-50901732D01*
X177148229Y-50906200D01*
X177151960Y-50958344D01*
X177153621Y-50962798D01*
X177160281Y-50988890D01*
X177160635Y-50991354D01*
X177160958Y-50993596D01*
X177174912Y-51024151D01*
X177182671Y-51041141D01*
X177184391Y-51045296D01*
X177202657Y-51094268D01*
X177202658Y-51094269D01*
X177205504Y-51098071D01*
X177219243Y-51121224D01*
X177221220Y-51125553D01*
X177221222Y-51125556D01*
X177221223Y-51125558D01*
X177255457Y-51165066D01*
X177258262Y-51168547D01*
X177267750Y-51181221D01*
X177267753Y-51181224D01*
X177278927Y-51192398D01*
X177281992Y-51195690D01*
X177314743Y-51233486D01*
X177316225Y-51235196D01*
X177320228Y-51237768D01*
X177341197Y-51254668D01*
X179145332Y-53058803D01*
X179162232Y-53079773D01*
X179164804Y-53083775D01*
X179164809Y-53083779D01*
X179204302Y-53118000D01*
X179207582Y-53121053D01*
X179218779Y-53132250D01*
X179231450Y-53141735D01*
X179234926Y-53144536D01*
X179274442Y-53178777D01*
X179278761Y-53180749D01*
X179301925Y-53194492D01*
X179305733Y-53197343D01*
X179305734Y-53197343D01*
X179305735Y-53197344D01*
X179354704Y-53215608D01*
X179358855Y-53217327D01*
X179368171Y-53221581D01*
X179388850Y-53231026D01*
X179441270Y-53275634D01*
X179446515Y-53283484D01*
X179530697Y-53339733D01*
X179530699Y-53339734D01*
X179604933Y-53354500D01*
X180355066Y-53354499D01*
X180355069Y-53354498D01*
X180355073Y-53354498D01*
X180404326Y-53344701D01*
X180429301Y-53339734D01*
X180513484Y-53283484D01*
X180569734Y-53199301D01*
X180584500Y-53125067D01*
X180584500Y-53125063D01*
X181205500Y-53125063D01*
X181205501Y-53125073D01*
X181220265Y-53199300D01*
X181276516Y-53283484D01*
X181360697Y-53339733D01*
X181360699Y-53339734D01*
X181434933Y-53354500D01*
X182185066Y-53354499D01*
X182185069Y-53354498D01*
X182185073Y-53354498D01*
X182271473Y-53337313D01*
X182271871Y-53339317D01*
X182326834Y-53333403D01*
X182334738Y-53337358D01*
X182335975Y-53302799D01*
X182350758Y-53272597D01*
X182399734Y-53199301D01*
X182414500Y-53125067D01*
X182414499Y-52374934D01*
X182414498Y-52374930D01*
X182414498Y-52374926D01*
X182399734Y-52300699D01*
X182347482Y-52222500D01*
X182343484Y-52216516D01*
X182343483Y-52216515D01*
X182259302Y-52160266D01*
X182185068Y-52145500D01*
X181434936Y-52145500D01*
X181434926Y-52145501D01*
X181360699Y-52160265D01*
X181276515Y-52216516D01*
X181220266Y-52300697D01*
X181205500Y-52374930D01*
X181205500Y-53125063D01*
X180584500Y-53125063D01*
X180584499Y-52374934D01*
X180584498Y-52374930D01*
X180584498Y-52374926D01*
X180569734Y-52300700D01*
X180569734Y-52300699D01*
X180549222Y-52270001D01*
X180528007Y-52202251D01*
X180546789Y-52133784D01*
X180549207Y-52130020D01*
X180569734Y-52099301D01*
X180584500Y-52025067D01*
X180584499Y-51274934D01*
X180584498Y-51274927D01*
X180584498Y-51274926D01*
X180569734Y-51200699D01*
X180554388Y-51177732D01*
X180513484Y-51116516D01*
X180513483Y-51116515D01*
X180429302Y-51060266D01*
X180355069Y-51045500D01*
X180355067Y-51045500D01*
X180299030Y-51045500D01*
X180230909Y-51025498D01*
X180209935Y-51008596D01*
X180037691Y-50836352D01*
X179863287Y-50661948D01*
X179829264Y-50599638D01*
X179834328Y-50528823D01*
X179863287Y-50483761D01*
X179906326Y-50440723D01*
X179964498Y-50326555D01*
X179979500Y-50231834D01*
X179979500Y-49868166D01*
X179964498Y-49773445D01*
X179923782Y-49693536D01*
X179906326Y-49659276D01*
X179815723Y-49568673D01*
X179701553Y-49510501D01*
X179630833Y-49499301D01*
X179606834Y-49495500D01*
X178518166Y-49495500D01*
X178494173Y-49499300D01*
X178423446Y-49510501D01*
X178337703Y-49554190D01*
X178267926Y-49567294D01*
X178202141Y-49540594D01*
X178161235Y-49482566D01*
X178154500Y-49441923D01*
X178154500Y-48780500D01*
X178174502Y-48712379D01*
X178228158Y-48665886D01*
X178280500Y-48654500D01*
X178324507Y-48654500D01*
X178381709Y-48668233D01*
X178423444Y-48689498D01*
X178455018Y-48694498D01*
X178518166Y-48704500D01*
X178518168Y-48704500D01*
X179606832Y-48704500D01*
X179606834Y-48704500D01*
X179701555Y-48689498D01*
X179815723Y-48631326D01*
X179906326Y-48540723D01*
X179964498Y-48426555D01*
X179979500Y-48331834D01*
X179979500Y-47968166D01*
X179964498Y-47873445D01*
X179914591Y-47775498D01*
X179906326Y-47759276D01*
X179815723Y-47668673D01*
X179701553Y-47610501D01*
X179636835Y-47600251D01*
X179606834Y-47595500D01*
X178518166Y-47595500D01*
X178497827Y-47598721D01*
X178423444Y-47610501D01*
X178381709Y-47631767D01*
X178324507Y-47645500D01*
X178121351Y-47645500D01*
X178053230Y-47625498D01*
X178037796Y-47613811D01*
X178026816Y-47604083D01*
X177885220Y-47529769D01*
X177729957Y-47491500D01*
X177729956Y-47491500D01*
X177570044Y-47491500D01*
X177570042Y-47491500D01*
X177414779Y-47529769D01*
X177273186Y-47604082D01*
X177273182Y-47604084D01*
X177153484Y-47710128D01*
X177062647Y-47841728D01*
X177062644Y-47841734D01*
X177005938Y-47991253D01*
X177005937Y-47991257D01*
X176986664Y-48149997D01*
X176986664Y-48150002D01*
X172454499Y-48150002D01*
X172454499Y-46511157D01*
X172474501Y-46443040D01*
X172491399Y-46422070D01*
X172647066Y-46266404D01*
X172709380Y-46232379D01*
X172736162Y-46229500D01*
X178263917Y-46229500D01*
X178453005Y-46229500D01*
X178479785Y-46232378D01*
X178484429Y-46233389D01*
X178518892Y-46230924D01*
X178536561Y-46229661D01*
X178541057Y-46229500D01*
X178556871Y-46229500D01*
X178556872Y-46229500D01*
X178572530Y-46227248D01*
X178576993Y-46226769D01*
X178602150Y-46224969D01*
X178629131Y-46223040D01*
X178633575Y-46221382D01*
X178659687Y-46214717D01*
X178664385Y-46214042D01*
X178664388Y-46214040D01*
X178664391Y-46214040D01*
X178671313Y-46212008D01*
X178742310Y-46212010D01*
X178795903Y-46243810D01*
X178845228Y-46293135D01*
X178900901Y-46321501D01*
X178956573Y-46349868D01*
X178973449Y-46352540D01*
X178992145Y-46355502D01*
X179056299Y-46385913D01*
X179061531Y-46390856D01*
X180407541Y-47736866D01*
X180441567Y-47799178D01*
X180438279Y-47864899D01*
X180435501Y-47873447D01*
X180420500Y-47968167D01*
X180420500Y-48331832D01*
X180435501Y-48426553D01*
X180493673Y-48540723D01*
X180584276Y-48631326D01*
X180614542Y-48646747D01*
X180698445Y-48689498D01*
X180793166Y-48704500D01*
X180793168Y-48704500D01*
X181881832Y-48704500D01*
X181881834Y-48704500D01*
X181976555Y-48689498D01*
X182090723Y-48631326D01*
X182130406Y-48591642D01*
X182192715Y-48557619D01*
X182263531Y-48562683D01*
X182320367Y-48605229D01*
X182345179Y-48671749D01*
X182345500Y-48680739D01*
X182345500Y-49325063D01*
X182345501Y-49325073D01*
X182348635Y-49340825D01*
X182342306Y-49411539D01*
X182298751Y-49467606D01*
X182241502Y-49490327D01*
X182093805Y-49509771D01*
X182093802Y-49509771D01*
X182093802Y-49509772D01*
X182082000Y-49514660D01*
X182011413Y-49522248D01*
X181976584Y-49510517D01*
X181976553Y-49510501D01*
X181905833Y-49499301D01*
X181881834Y-49495500D01*
X180793166Y-49495500D01*
X180769173Y-49499300D01*
X180698446Y-49510501D01*
X180584276Y-49568673D01*
X180493673Y-49659276D01*
X180435501Y-49773446D01*
X180424090Y-49845500D01*
X180420500Y-49868166D01*
X180420500Y-50231834D01*
X180424455Y-50256803D01*
X180435501Y-50326553D01*
X180493673Y-50440723D01*
X180584276Y-50531326D01*
X180639298Y-50559361D01*
X180698445Y-50589498D01*
X180793166Y-50604500D01*
X180793168Y-50604500D01*
X181881831Y-50604500D01*
X181881834Y-50604500D01*
X181976555Y-50589498D01*
X181976580Y-50589485D01*
X181976611Y-50589479D01*
X181985987Y-50586433D01*
X181986380Y-50587644D01*
X182046352Y-50576378D01*
X182082002Y-50585340D01*
X182093802Y-50590228D01*
X182238555Y-50609285D01*
X182238555Y-50609284D01*
X182238556Y-50609285D01*
X182383310Y-50590228D01*
X182518199Y-50534355D01*
X182634030Y-50445474D01*
X182646828Y-50428795D01*
X182704165Y-50386929D01*
X182746790Y-50379500D01*
X183332868Y-50379500D01*
X183338353Y-50379739D01*
X183379160Y-50383310D01*
X183418735Y-50372705D01*
X183424073Y-50371520D01*
X183464434Y-50364405D01*
X183464435Y-50364404D01*
X183464437Y-50364404D01*
X183469699Y-50362488D01*
X183486322Y-50355603D01*
X183491398Y-50353235D01*
X183491401Y-50353235D01*
X183524973Y-50329726D01*
X183529573Y-50326796D01*
X183565066Y-50306305D01*
X183591403Y-50274916D01*
X183595095Y-50270886D01*
X185090981Y-48775000D01*
X187740715Y-48775000D01*
X187759771Y-48919752D01*
X187815644Y-49054641D01*
X187815649Y-49054649D01*
X187904525Y-49170474D01*
X188020350Y-49259350D01*
X188020357Y-49259355D01*
X188155246Y-49315228D01*
X188198049Y-49320863D01*
X188299999Y-49334285D01*
X188299999Y-49334284D01*
X188300000Y-49334285D01*
X188444754Y-49315228D01*
X188579643Y-49259355D01*
X188695474Y-49170474D01*
X188784355Y-49054643D01*
X188840228Y-48919754D01*
X188859285Y-48775000D01*
X188856085Y-48750697D01*
X188840228Y-48630247D01*
X188840228Y-48630246D01*
X188784355Y-48495358D01*
X188695474Y-48379526D01*
X188695472Y-48379524D01*
X188695471Y-48379523D01*
X188579649Y-48290649D01*
X188579641Y-48290644D01*
X188444752Y-48234771D01*
X188300000Y-48215715D01*
X188155247Y-48234771D01*
X188087801Y-48262708D01*
X188020358Y-48290645D01*
X188020357Y-48290646D01*
X188020356Y-48290646D01*
X187904526Y-48379526D01*
X187815646Y-48495356D01*
X187815645Y-48495358D01*
X187806453Y-48517550D01*
X187759771Y-48630247D01*
X187740715Y-48774999D01*
X187740715Y-48775000D01*
X185090981Y-48775000D01*
X186720900Y-47145082D01*
X186724918Y-47141400D01*
X186756305Y-47115066D01*
X186776788Y-47079586D01*
X186779731Y-47074967D01*
X186792337Y-47056963D01*
X186847793Y-47012638D01*
X186918412Y-47005329D01*
X186981772Y-47037360D01*
X187000310Y-47059230D01*
X187016516Y-47083484D01*
X187016517Y-47083485D01*
X187100697Y-47139733D01*
X187100699Y-47139734D01*
X187174933Y-47154500D01*
X189025066Y-47154499D01*
X189025069Y-47154498D01*
X189025073Y-47154498D01*
X189082091Y-47143157D01*
X189099301Y-47139734D01*
X189183484Y-47083484D01*
X189239734Y-46999301D01*
X189254500Y-46925067D01*
X189254499Y-45774934D01*
X189254498Y-45774930D01*
X189254498Y-45774926D01*
X189239734Y-45700699D01*
X189183483Y-45616515D01*
X189099302Y-45560266D01*
X189025067Y-45545500D01*
X187174936Y-45545500D01*
X187174926Y-45545501D01*
X187100698Y-45560265D01*
X187025502Y-45610511D01*
X186957749Y-45631726D01*
X186889282Y-45612943D01*
X186841839Y-45560126D01*
X186829500Y-45505746D01*
X186829500Y-43983233D01*
X186849502Y-43915112D01*
X186878795Y-43883272D01*
X186895474Y-43870474D01*
X186984355Y-43754643D01*
X187040228Y-43619754D01*
X187059285Y-43475000D01*
X187054660Y-43439873D01*
X187046235Y-43375877D01*
X187040228Y-43330246D01*
X186984355Y-43195358D01*
X186895474Y-43079526D01*
X186895472Y-43079524D01*
X186895471Y-43079523D01*
X186779649Y-42990649D01*
X186779641Y-42990644D01*
X186644752Y-42934771D01*
X186500000Y-42915715D01*
X186355247Y-42934771D01*
X186297146Y-42958838D01*
X186220358Y-42990645D01*
X186220357Y-42990646D01*
X186220356Y-42990646D01*
X186104526Y-43079526D01*
X186015646Y-43195356D01*
X186015645Y-43195358D01*
X185999400Y-43234577D01*
X185959771Y-43330247D01*
X185940715Y-43474999D01*
X185940715Y-43475000D01*
X185959771Y-43619752D01*
X186015644Y-43754641D01*
X186015649Y-43754649D01*
X186104523Y-43870471D01*
X186104524Y-43870472D01*
X186104526Y-43870474D01*
X186121203Y-43883270D01*
X186163070Y-43940605D01*
X186170500Y-43983233D01*
X186170500Y-46711325D01*
X186150498Y-46779446D01*
X186133595Y-46800420D01*
X184169594Y-48764421D01*
X184107282Y-48798447D01*
X184036467Y-48793382D01*
X183979631Y-48750835D01*
X183954820Y-48684315D01*
X183954499Y-48675326D01*
X183954499Y-47474936D01*
X183954498Y-47474927D01*
X183939734Y-47400699D01*
X183929868Y-47385934D01*
X183883484Y-47316516D01*
X183883483Y-47316515D01*
X183799302Y-47260266D01*
X183725069Y-47245500D01*
X183110957Y-47245500D01*
X183042836Y-47225498D01*
X182996343Y-47171842D01*
X182986239Y-47101568D01*
X183006194Y-47049496D01*
X183016378Y-47034256D01*
X183030025Y-47013832D01*
X183039733Y-46999303D01*
X183039733Y-46999302D01*
X183039734Y-46999301D01*
X183054500Y-46925067D01*
X183054499Y-45774934D01*
X183054498Y-45774930D01*
X183054498Y-45774926D01*
X183039734Y-45700699D01*
X182983483Y-45616515D01*
X182899302Y-45560266D01*
X182825067Y-45545500D01*
X180974936Y-45545500D01*
X180974926Y-45545501D01*
X180900699Y-45560265D01*
X180816515Y-45616516D01*
X180760266Y-45700697D01*
X180745500Y-45774930D01*
X180745500Y-46511985D01*
X180725498Y-46580106D01*
X180671842Y-46626599D01*
X180601568Y-46636703D01*
X180536988Y-46607209D01*
X180530405Y-46601080D01*
X179791404Y-45862079D01*
X179757378Y-45799767D01*
X179754499Y-45772984D01*
X179754499Y-45598957D01*
X179748372Y-45560266D01*
X179739868Y-45506573D01*
X179738231Y-45503361D01*
X179724500Y-45446162D01*
X179724500Y-45380500D01*
X179744502Y-45312379D01*
X179798158Y-45265886D01*
X179850500Y-45254500D01*
X180090121Y-45254500D01*
X180090123Y-45254500D01*
X180184844Y-45239498D01*
X180299012Y-45181326D01*
X180389615Y-45090723D01*
X180447787Y-44976555D01*
X180462789Y-44881834D01*
X180462789Y-43793166D01*
X180461016Y-43781973D01*
X180470115Y-43711566D01*
X180515836Y-43657251D01*
X180555310Y-43639926D01*
X180635222Y-43620230D01*
X180776818Y-43545915D01*
X180896514Y-43439873D01*
X180987355Y-43308268D01*
X181044061Y-43158747D01*
X181044266Y-43157063D01*
X181063336Y-43000002D01*
X181063336Y-42999997D01*
X181044062Y-42841257D01*
X181044061Y-42841253D01*
X181008469Y-42747406D01*
X180987355Y-42691732D01*
X180896514Y-42560127D01*
X180776818Y-42454085D01*
X180776817Y-42454084D01*
X180776813Y-42454082D01*
X180723600Y-42426154D01*
X180635222Y-42379770D01*
X180635219Y-42379769D01*
X180635217Y-42379768D01*
X180558634Y-42360891D01*
X180497280Y-42325167D01*
X180464979Y-42261944D01*
X180462789Y-42238553D01*
X180462789Y-41518167D01*
X180447787Y-41423445D01*
X180429745Y-41388036D01*
X180416332Y-41339821D01*
X180412948Y-41292502D01*
X180412789Y-41288021D01*
X180412789Y-41272205D01*
X180412429Y-41269707D01*
X180410534Y-41256527D01*
X180410059Y-41252104D01*
X180406329Y-41199947D01*
X180404671Y-41195502D01*
X180398006Y-41169392D01*
X180397331Y-41164693D01*
X180375608Y-41117128D01*
X180373891Y-41112981D01*
X180371610Y-41106865D01*
X180355631Y-41064022D01*
X180355571Y-41063942D01*
X180352784Y-41060218D01*
X180339037Y-41037048D01*
X180337066Y-41032731D01*
X180302838Y-40993229D01*
X180300016Y-40989728D01*
X180290538Y-40977067D01*
X180286630Y-40973159D01*
X180279342Y-40965871D01*
X180276289Y-40962591D01*
X180274472Y-40960494D01*
X180242064Y-40923093D01*
X180238062Y-40920521D01*
X180217092Y-40903621D01*
X179879668Y-40566197D01*
X179862768Y-40545228D01*
X179860196Y-40541225D01*
X179860194Y-40541223D01*
X179820690Y-40506992D01*
X179817398Y-40503927D01*
X179806224Y-40492753D01*
X179806223Y-40492752D01*
X179806221Y-40492750D01*
X179793547Y-40483262D01*
X179790066Y-40480457D01*
X179750558Y-40446223D01*
X179750556Y-40446222D01*
X179750553Y-40446220D01*
X179746224Y-40444243D01*
X179723071Y-40430504D01*
X179719269Y-40427658D01*
X179719268Y-40427657D01*
X179670296Y-40409391D01*
X179666151Y-40407675D01*
X179618596Y-40385958D01*
X179618593Y-40385957D01*
X179618592Y-40385957D01*
X179613890Y-40385281D01*
X179587798Y-40378621D01*
X179583344Y-40376960D01*
X179531200Y-40373229D01*
X179526732Y-40372749D01*
X179521786Y-40372038D01*
X179511083Y-40370500D01*
X179511080Y-40370500D01*
X179495268Y-40370500D01*
X179490772Y-40370339D01*
X179438642Y-40366611D01*
X179438639Y-40366611D01*
X179433997Y-40367621D01*
X179407216Y-40370500D01*
X178492784Y-40370500D01*
X178466003Y-40367621D01*
X178461360Y-40366611D01*
X178461357Y-40366611D01*
X178409228Y-40370339D01*
X178404732Y-40370500D01*
X178388917Y-40370500D01*
X178388911Y-40370500D01*
X178388908Y-40370501D01*
X178373250Y-40372750D01*
X178368789Y-40373230D01*
X178316657Y-40376960D01*
X178312198Y-40378623D01*
X178286110Y-40385281D01*
X178281408Y-40385957D01*
X178281403Y-40385958D01*
X178233845Y-40407677D01*
X178229699Y-40409394D01*
X178216107Y-40414463D01*
X178180733Y-40427657D01*
X178180727Y-40427661D01*
X178176920Y-40430511D01*
X178153776Y-40444243D01*
X178149440Y-40446223D01*
X178149439Y-40446224D01*
X178109945Y-40480446D01*
X178106447Y-40483265D01*
X178093776Y-40492752D01*
X178082593Y-40503935D01*
X178079302Y-40506998D01*
X178039805Y-40541223D01*
X178039803Y-40541225D01*
X178037231Y-40545228D01*
X178020333Y-40566194D01*
X177699483Y-40887044D01*
X177678517Y-40903942D01*
X177674514Y-40906514D01*
X177674512Y-40906516D01*
X177640287Y-40946013D01*
X177637224Y-40949304D01*
X177626042Y-40960485D01*
X177626035Y-40960494D01*
X177616554Y-40973159D01*
X177613739Y-40976651D01*
X177613379Y-40977068D01*
X177579511Y-41016152D01*
X177577533Y-41020485D01*
X177563840Y-41043576D01*
X177562815Y-41044947D01*
X177506005Y-41087529D01*
X177461900Y-41095500D01*
X177082717Y-41095500D01*
X177025514Y-41081767D01*
X176963429Y-41050133D01*
X176963430Y-41050133D01*
X176963428Y-41050132D01*
X176963427Y-41050132D01*
X176871045Y-41035500D01*
X176871041Y-41035500D01*
X176528957Y-41035500D01*
X176436574Y-41050131D01*
X176325228Y-41106864D01*
X176236866Y-41195226D01*
X176236864Y-41195229D01*
X176180133Y-41306570D01*
X176180132Y-41306571D01*
X176180132Y-41306573D01*
X176166072Y-41395344D01*
X176165500Y-41398958D01*
X176165500Y-41801042D01*
X176180131Y-41893425D01*
X176236864Y-42004771D01*
X176248781Y-42016688D01*
X176282807Y-42079000D01*
X176277742Y-42149815D01*
X176257241Y-42181719D01*
X176258566Y-42182665D01*
X176252500Y-42191160D01*
X176200540Y-42297447D01*
X176200539Y-42297449D01*
X176190500Y-42366352D01*
X176190500Y-42633647D01*
X176200539Y-42702550D01*
X176200540Y-42702552D01*
X176252500Y-42808839D01*
X176252501Y-42808841D01*
X176336158Y-42892498D01*
X176336160Y-42892499D01*
X176442450Y-42944461D01*
X176511354Y-42954500D01*
X176511360Y-42954500D01*
X176712106Y-42954500D01*
X176780227Y-42974502D01*
X176826720Y-43028158D01*
X176837188Y-43095684D01*
X176836664Y-43100000D01*
X176836664Y-43100002D01*
X176855937Y-43258742D01*
X176855938Y-43258746D01*
X176900361Y-43375877D01*
X176908857Y-43398281D01*
X176912644Y-43408265D01*
X176912647Y-43408271D01*
X177003484Y-43539871D01*
X177003485Y-43539872D01*
X177003486Y-43539873D01*
X177123182Y-43645915D01*
X177264778Y-43720230D01*
X177357943Y-43743193D01*
X177419297Y-43778916D01*
X177451598Y-43842139D01*
X177453789Y-43865532D01*
X177453789Y-44881832D01*
X177468790Y-44976553D01*
X177468790Y-44976554D01*
X177468791Y-44976555D01*
X177477076Y-44992816D01*
X177499741Y-45037297D01*
X177512845Y-45107074D01*
X177486145Y-45172858D01*
X177428118Y-45213765D01*
X177387474Y-45220500D01*
X172542784Y-45220500D01*
X172516003Y-45217621D01*
X172511360Y-45216611D01*
X172511357Y-45216611D01*
X172459228Y-45220339D01*
X172454732Y-45220500D01*
X172438917Y-45220500D01*
X172438911Y-45220500D01*
X172438908Y-45220501D01*
X172423250Y-45222750D01*
X172418789Y-45223230D01*
X172366657Y-45226960D01*
X172362195Y-45228624D01*
X172336110Y-45235281D01*
X172331404Y-45235957D01*
X172331400Y-45235958D01*
X172283867Y-45257666D01*
X172279713Y-45259387D01*
X172230732Y-45277657D01*
X172230730Y-45277657D01*
X172226913Y-45280515D01*
X172203774Y-45294244D01*
X172199441Y-45296222D01*
X172172501Y-45319567D01*
X172160372Y-45330077D01*
X172159946Y-45330446D01*
X172156448Y-45333265D01*
X172143783Y-45342746D01*
X172143774Y-45342753D01*
X172132593Y-45353935D01*
X172129302Y-45356998D01*
X172089805Y-45391223D01*
X172089800Y-45391229D01*
X172087230Y-45395228D01*
X172070335Y-45416192D01*
X171677934Y-45808595D01*
X171615622Y-45842620D01*
X171588838Y-45845500D01*
X168841752Y-45845500D01*
X168822043Y-45843949D01*
X168800000Y-45840458D01*
X168777957Y-45843949D01*
X168758248Y-45845500D01*
X167810028Y-45845500D01*
X167741907Y-45825498D01*
X167695414Y-45771842D01*
X167685310Y-45701568D01*
X167714804Y-45636988D01*
X167720918Y-45630419D01*
X168625435Y-44725902D01*
X168645608Y-44709521D01*
X168653416Y-44704421D01*
X168673842Y-44678176D01*
X168679001Y-44672337D01*
X168681442Y-44669897D01*
X168694256Y-44651949D01*
X168726085Y-44611056D01*
X168726085Y-44611053D01*
X168729592Y-44604572D01*
X168729629Y-44604497D01*
X168729661Y-44604437D01*
X168732879Y-44597854D01*
X168732884Y-44597848D01*
X168747674Y-44548168D01*
X168764500Y-44499156D01*
X168764500Y-44499151D01*
X168765725Y-44491808D01*
X168766642Y-44484453D01*
X168764500Y-44432675D01*
X168764500Y-43079029D01*
X168784502Y-43010908D01*
X168801403Y-42989934D01*
X168832499Y-42958840D01*
X168884461Y-42852550D01*
X168894500Y-42783646D01*
X168894500Y-42516354D01*
X168884461Y-42447450D01*
X168832499Y-42341160D01*
X168832498Y-42341158D01*
X168748841Y-42257501D01*
X168748839Y-42257500D01*
X168642552Y-42205540D01*
X168642550Y-42205539D01*
X168573647Y-42195500D01*
X168573646Y-42195500D01*
X168246354Y-42195500D01*
X168246352Y-42195500D01*
X168177449Y-42205539D01*
X168177447Y-42205540D01*
X168071160Y-42257500D01*
X168071158Y-42257501D01*
X167987501Y-42341158D01*
X167987500Y-42341160D01*
X167935540Y-42447447D01*
X167935539Y-42447449D01*
X167925500Y-42516352D01*
X167925500Y-42783647D01*
X167935539Y-42852550D01*
X167935540Y-42852552D01*
X167987499Y-42958838D01*
X167987500Y-42958839D01*
X167987501Y-42958840D01*
X168018594Y-42989933D01*
X168052620Y-43052244D01*
X168055500Y-43079029D01*
X168055500Y-44240969D01*
X168035498Y-44309090D01*
X168018595Y-44330064D01*
X167002997Y-45345662D01*
X166940685Y-45379688D01*
X166869870Y-45374623D01*
X166813034Y-45332076D01*
X166804783Y-45319567D01*
X166791305Y-45296223D01*
X166715786Y-45165420D01*
X166588562Y-45024123D01*
X166434741Y-44912365D01*
X166261045Y-44835031D01*
X166075067Y-44795500D01*
X165884933Y-44795500D01*
X165698954Y-44835031D01*
X165525258Y-44912365D01*
X165371438Y-45024122D01*
X165244215Y-45165418D01*
X165244212Y-45165422D01*
X165235617Y-45180310D01*
X165184233Y-45229302D01*
X165114519Y-45242737D01*
X165048609Y-45216349D01*
X165007428Y-45158516D01*
X165000499Y-45117308D01*
X165000499Y-43327160D01*
X165000499Y-43248049D01*
X165020501Y-43179930D01*
X165074157Y-43133437D01*
X165144431Y-43123333D01*
X165209011Y-43152827D01*
X165235616Y-43185048D01*
X165264214Y-43234580D01*
X165391438Y-43375877D01*
X165545259Y-43487635D01*
X165718955Y-43564969D01*
X165904933Y-43604500D01*
X166095067Y-43604500D01*
X166281045Y-43564969D01*
X166454741Y-43487635D01*
X166608562Y-43375877D01*
X166735786Y-43234580D01*
X166830853Y-43069920D01*
X166889608Y-42889092D01*
X166904500Y-42747401D01*
X166904500Y-41452599D01*
X166889608Y-41310908D01*
X166830853Y-41130080D01*
X166735786Y-40965420D01*
X166608562Y-40824123D01*
X166454741Y-40712365D01*
X166281045Y-40635031D01*
X166095067Y-40595500D01*
X165904933Y-40595500D01*
X165718954Y-40635031D01*
X165545258Y-40712365D01*
X165391438Y-40824122D01*
X165264215Y-40965418D01*
X165264215Y-40965419D01*
X165235617Y-41014950D01*
X165184233Y-41063942D01*
X165114519Y-41077376D01*
X165048609Y-41050988D01*
X165007428Y-40993155D01*
X165000499Y-40951952D01*
X165000499Y-40126500D01*
X165020502Y-40058379D01*
X165074158Y-40011886D01*
X165126500Y-40000500D01*
X189873500Y-40000500D01*
X189941621Y-40020502D01*
G37*
%TD.AperFunction*%
%TA.AperFunction,Conductor*%
G36*
X156663012Y-60867658D02*
G01*
X156670947Y-60875159D01*
X156872986Y-61083484D01*
X156964450Y-61177793D01*
X156997516Y-61240619D01*
X157000000Y-61265513D01*
X157000000Y-61600006D01*
X157020252Y-61740859D01*
X157020253Y-61740864D01*
X157020254Y-61740866D01*
X157037846Y-61779388D01*
X157047950Y-61849660D01*
X157018457Y-61914240D01*
X156958730Y-61952624D01*
X156905068Y-61956412D01*
X156833603Y-61946000D01*
X156585150Y-61946000D01*
X156517029Y-61925998D01*
X156470536Y-61872342D01*
X156459150Y-61820000D01*
X156459150Y-61617842D01*
X156455907Y-61596323D01*
X156454500Y-61577547D01*
X156454500Y-61456360D01*
X156454500Y-61456354D01*
X156444461Y-61387450D01*
X156428763Y-61355339D01*
X156416813Y-61285356D01*
X156428762Y-61244662D01*
X156444461Y-61212550D01*
X156454500Y-61143646D01*
X156454500Y-60962882D01*
X156474502Y-60894761D01*
X156528158Y-60848268D01*
X156598432Y-60838164D01*
X156663012Y-60867658D01*
G37*
%TD.AperFunction*%
%TA.AperFunction,Conductor*%
G36*
X171387621Y-46674502D02*
G01*
X171434114Y-46728158D01*
X171445500Y-46780500D01*
X171445500Y-60198889D01*
X171425498Y-60267010D01*
X171408595Y-60287984D01*
X169937984Y-61758595D01*
X169875672Y-61792621D01*
X169848889Y-61795500D01*
X168471982Y-61795500D01*
X168403861Y-61775498D01*
X168357368Y-61721842D01*
X168347264Y-61651568D01*
X168358785Y-61614161D01*
X168364460Y-61602552D01*
X168364461Y-61602550D01*
X168374500Y-61533646D01*
X168374500Y-61266354D01*
X168364461Y-61197450D01*
X168312499Y-61091160D01*
X168312498Y-61091158D01*
X168228841Y-61007501D01*
X168228839Y-61007500D01*
X168122552Y-60955540D01*
X168122550Y-60955539D01*
X168122549Y-60955539D01*
X168053646Y-60945500D01*
X168053644Y-60945500D01*
X168051022Y-60945118D01*
X167986497Y-60915503D01*
X167948225Y-60855705D01*
X167944267Y-60836885D01*
X167930228Y-60730246D01*
X167874355Y-60595358D01*
X167785474Y-60479526D01*
X167785472Y-60479524D01*
X167785471Y-60479523D01*
X167669649Y-60390649D01*
X167669641Y-60390644D01*
X167534752Y-60334771D01*
X167390000Y-60315715D01*
X167245247Y-60334771D01*
X167177801Y-60362708D01*
X167110358Y-60390645D01*
X167110357Y-60390646D01*
X167110356Y-60390646D01*
X166994526Y-60479526D01*
X166905646Y-60595356D01*
X166905645Y-60595358D01*
X166879094Y-60659457D01*
X166849771Y-60730247D01*
X166835733Y-60836881D01*
X166807010Y-60901808D01*
X166747745Y-60940899D01*
X166728977Y-60945118D01*
X166726355Y-60945500D01*
X166726354Y-60945500D01*
X166682084Y-60951950D01*
X166657450Y-60955539D01*
X166625336Y-60971238D01*
X166555352Y-60983185D01*
X166514664Y-60971238D01*
X166501936Y-60965016D01*
X166482550Y-60955539D01*
X166431286Y-60948070D01*
X166413647Y-60945500D01*
X166413646Y-60945500D01*
X166086354Y-60945500D01*
X166086352Y-60945500D01*
X166017449Y-60955539D01*
X166017447Y-60955540D01*
X165911160Y-61007500D01*
X165911158Y-61007501D01*
X165827501Y-61091158D01*
X165827500Y-61091160D01*
X165775540Y-61197447D01*
X165775539Y-61197449D01*
X165765500Y-61266352D01*
X165765500Y-61533647D01*
X165775539Y-61602550D01*
X165775539Y-61602552D01*
X165781215Y-61614161D01*
X165793164Y-61684145D01*
X165765380Y-61749479D01*
X165706684Y-61789420D01*
X165668018Y-61795500D01*
X162031161Y-61795500D01*
X161963040Y-61775498D01*
X161942066Y-61758595D01*
X161324668Y-61141197D01*
X161307768Y-61120228D01*
X161305196Y-61116225D01*
X161276270Y-61091160D01*
X161265690Y-61081992D01*
X161262398Y-61078927D01*
X161251224Y-61067753D01*
X161251221Y-61067750D01*
X161238547Y-61058262D01*
X161235066Y-61055457D01*
X161195558Y-61021223D01*
X161195556Y-61021222D01*
X161195553Y-61021220D01*
X161191224Y-61019243D01*
X161168071Y-61005504D01*
X161164269Y-61002658D01*
X161164268Y-61002657D01*
X161115296Y-60984391D01*
X161111151Y-60982675D01*
X161063596Y-60960958D01*
X161063595Y-60960957D01*
X161063591Y-60960956D01*
X161054946Y-60958418D01*
X161055356Y-60957019D01*
X160999572Y-60931538D01*
X160961194Y-60871809D01*
X160961200Y-60800812D01*
X160968896Y-60780982D01*
X160981354Y-60755500D01*
X161019461Y-60677550D01*
X161029500Y-60608646D01*
X161029500Y-60341354D01*
X161019461Y-60272450D01*
X160967499Y-60166160D01*
X160967498Y-60166158D01*
X160963405Y-60162065D01*
X160929379Y-60099753D01*
X160926500Y-60072970D01*
X160926500Y-59964284D01*
X160946502Y-59896163D01*
X160952529Y-59887591D01*
X161029355Y-59787471D01*
X161085228Y-59652582D01*
X161104285Y-59507828D01*
X161102577Y-59494858D01*
X161094117Y-59430590D01*
X161085228Y-59363074D01*
X161029355Y-59228186D01*
X160940474Y-59112354D01*
X160940472Y-59112352D01*
X160940471Y-59112351D01*
X160824649Y-59023477D01*
X160824641Y-59023472D01*
X160689752Y-58967599D01*
X160587247Y-58954104D01*
X160522320Y-58925381D01*
X160483229Y-58866115D01*
X160478773Y-58845633D01*
X160465228Y-58742746D01*
X160465226Y-58742742D01*
X160463985Y-58738108D01*
X160465677Y-58667131D01*
X160505473Y-58608337D01*
X160570738Y-58580391D01*
X160585693Y-58579500D01*
X160649637Y-58579500D01*
X160649644Y-58579500D01*
X160695811Y-58573422D01*
X160764687Y-58541304D01*
X160817936Y-58529500D01*
X161330018Y-58529500D01*
X161398139Y-58549502D01*
X161444632Y-58603158D01*
X161454940Y-58671946D01*
X161440714Y-58779999D01*
X161440715Y-58780000D01*
X161459771Y-58924752D01*
X161459772Y-58924754D01*
X161469601Y-58948484D01*
X161477190Y-59019071D01*
X161465460Y-59053900D01*
X161455502Y-59073444D01*
X161455501Y-59073446D01*
X161440500Y-59168167D01*
X161440500Y-60531832D01*
X161455501Y-60626553D01*
X161513673Y-60740723D01*
X161604276Y-60831326D01*
X161652123Y-60855705D01*
X161718445Y-60889498D01*
X161813166Y-60904500D01*
X161813168Y-60904500D01*
X162176832Y-60904500D01*
X162176834Y-60904500D01*
X162271555Y-60889498D01*
X162385723Y-60831326D01*
X162476326Y-60740723D01*
X162517733Y-60659455D01*
X162566481Y-60607842D01*
X162635396Y-60590776D01*
X162702598Y-60613677D01*
X162742265Y-60659455D01*
X162752120Y-60678796D01*
X162783673Y-60740723D01*
X162874276Y-60831326D01*
X162922123Y-60855705D01*
X162988445Y-60889498D01*
X163083166Y-60904500D01*
X163083168Y-60904500D01*
X163446832Y-60904500D01*
X163446834Y-60904500D01*
X163541555Y-60889498D01*
X163655723Y-60831326D01*
X163746326Y-60740723D01*
X163787733Y-60659455D01*
X163836481Y-60607842D01*
X163905396Y-60590776D01*
X163972598Y-60613677D01*
X164012265Y-60659455D01*
X164022120Y-60678796D01*
X164053673Y-60740723D01*
X164144276Y-60831326D01*
X164192123Y-60855705D01*
X164258445Y-60889498D01*
X164353166Y-60904500D01*
X164353168Y-60904500D01*
X164716832Y-60904500D01*
X164716834Y-60904500D01*
X164811555Y-60889498D01*
X164925723Y-60831326D01*
X165016326Y-60740723D01*
X165074498Y-60626555D01*
X165089500Y-60531834D01*
X165089500Y-59168166D01*
X165074498Y-59073445D01*
X165074431Y-59073313D01*
X165074398Y-59073140D01*
X165071433Y-59064013D01*
X165072612Y-59063629D01*
X165061324Y-59003541D01*
X165070287Y-58967894D01*
X165090228Y-58919754D01*
X165109285Y-58775000D01*
X165095717Y-58671946D01*
X165106657Y-58601797D01*
X165153786Y-58548699D01*
X165220640Y-58529500D01*
X165611326Y-58529500D01*
X165679447Y-58549502D01*
X165700421Y-58566404D01*
X166091769Y-58957753D01*
X166479894Y-59345878D01*
X166483608Y-59349931D01*
X166509934Y-59381305D01*
X166545396Y-59401779D01*
X166545398Y-59401780D01*
X166550033Y-59404734D01*
X166573671Y-59421283D01*
X166583599Y-59428235D01*
X166583601Y-59428235D01*
X166588649Y-59430590D01*
X166605318Y-59437494D01*
X166610562Y-59439403D01*
X166610566Y-59439405D01*
X166650925Y-59446520D01*
X166656252Y-59447701D01*
X166695840Y-59458310D01*
X166722933Y-59455939D01*
X166736654Y-59454740D01*
X166742146Y-59454500D01*
X168737868Y-59454500D01*
X168743353Y-59454739D01*
X168784160Y-59458310D01*
X168823735Y-59447705D01*
X168829073Y-59446520D01*
X168869434Y-59439405D01*
X168869435Y-59439404D01*
X168869437Y-59439404D01*
X168874699Y-59437488D01*
X168891322Y-59430603D01*
X168896398Y-59428235D01*
X168896401Y-59428235D01*
X168929973Y-59404726D01*
X168934573Y-59401796D01*
X168970066Y-59381305D01*
X168996402Y-59349917D01*
X169000095Y-59345886D01*
X170295899Y-58050083D01*
X170299917Y-58046401D01*
X170331305Y-58020066D01*
X170351794Y-57984575D01*
X170354728Y-57979972D01*
X170378235Y-57946401D01*
X170380602Y-57941323D01*
X170387488Y-57924699D01*
X170389403Y-57919437D01*
X170389402Y-57919437D01*
X170389405Y-57919434D01*
X170396521Y-57879068D01*
X170397700Y-57873751D01*
X170408310Y-57834160D01*
X170405291Y-57799648D01*
X170404740Y-57793346D01*
X170404500Y-57787854D01*
X170404500Y-52883233D01*
X170424502Y-52815112D01*
X170453795Y-52783272D01*
X170470474Y-52770474D01*
X170559355Y-52654643D01*
X170615228Y-52519754D01*
X170634285Y-52375000D01*
X170615228Y-52230246D01*
X170559355Y-52095358D01*
X170470474Y-51979526D01*
X170470472Y-51979524D01*
X170470471Y-51979523D01*
X170354649Y-51890649D01*
X170354641Y-51890644D01*
X170219752Y-51834771D01*
X170075000Y-51815715D01*
X169946946Y-51832573D01*
X169876797Y-51821633D01*
X169823699Y-51774505D01*
X169804500Y-51707651D01*
X169804500Y-50167133D01*
X169804740Y-50161641D01*
X169806643Y-50139880D01*
X169808309Y-50120839D01*
X169797706Y-50081269D01*
X169796520Y-50075922D01*
X169791025Y-50044752D01*
X169789406Y-50035569D01*
X169787486Y-50030296D01*
X169780599Y-50013668D01*
X169778235Y-50008599D01*
X169772702Y-50000697D01*
X169754732Y-49975033D01*
X169751791Y-49970417D01*
X169731305Y-49934934D01*
X169699916Y-49908595D01*
X169695876Y-49904893D01*
X168820115Y-49029132D01*
X168816400Y-49025079D01*
X168790066Y-48993695D01*
X168754589Y-48973212D01*
X168749957Y-48970261D01*
X168716401Y-48946765D01*
X168716397Y-48946762D01*
X168711367Y-48944416D01*
X168694664Y-48937498D01*
X168689430Y-48935593D01*
X168649091Y-48928480D01*
X168643725Y-48927290D01*
X168604163Y-48916690D01*
X168604160Y-48916690D01*
X168591478Y-48917799D01*
X168521876Y-48903811D01*
X168470883Y-48854411D01*
X168454499Y-48792281D01*
X168454499Y-48574934D01*
X168454498Y-48574931D01*
X168454498Y-48574926D01*
X168444484Y-48524580D01*
X168444484Y-48475421D01*
X168454500Y-48425067D01*
X168454499Y-48279466D01*
X168474501Y-48211347D01*
X168528156Y-48164854D01*
X168560801Y-48155016D01*
X168564055Y-48154500D01*
X168564066Y-48154500D01*
X168585297Y-48147601D01*
X168604506Y-48142989D01*
X168626555Y-48139498D01*
X168633159Y-48136133D01*
X168646431Y-48129370D01*
X168664708Y-48121799D01*
X168666084Y-48121352D01*
X168685929Y-48114905D01*
X168703992Y-48101780D01*
X168720835Y-48091458D01*
X168740723Y-48081326D01*
X168756329Y-48065718D01*
X168756339Y-48065711D01*
X169115711Y-47706339D01*
X169115718Y-47706329D01*
X169131326Y-47690723D01*
X169141458Y-47670835D01*
X169151780Y-47653992D01*
X169164905Y-47635929D01*
X169171799Y-47614706D01*
X169179370Y-47596431D01*
X169189497Y-47576557D01*
X169189497Y-47576556D01*
X169189498Y-47576555D01*
X169192989Y-47554506D01*
X169197601Y-47535297D01*
X169204500Y-47514066D01*
X169204500Y-47385934D01*
X169204500Y-47385933D01*
X169204499Y-46780499D01*
X169224502Y-46712379D01*
X169278158Y-46665886D01*
X169330500Y-46654500D01*
X171319500Y-46654500D01*
X171387621Y-46674502D01*
G37*
%TD.AperFunction*%
%TA.AperFunction,Conductor*%
G36*
X159012448Y-60068682D02*
G01*
X159053346Y-60103276D01*
X159075611Y-60132292D01*
X159101599Y-60166160D01*
X159104527Y-60169975D01*
X159186595Y-60232949D01*
X159220357Y-60258855D01*
X159355246Y-60314728D01*
X159500000Y-60333785D01*
X159644754Y-60314728D01*
X159779643Y-60258855D01*
X159863271Y-60194684D01*
X159929489Y-60169084D01*
X159999038Y-60183348D01*
X160049835Y-60232949D01*
X160065751Y-60302138D01*
X160064658Y-60312810D01*
X160061459Y-60334771D01*
X160060501Y-60341352D01*
X160060500Y-60341360D01*
X160060500Y-60608647D01*
X160070539Y-60677550D01*
X160070540Y-60677552D01*
X160127086Y-60793220D01*
X160124995Y-60794242D01*
X160143624Y-60847844D01*
X160126974Y-60916861D01*
X160075654Y-60965919D01*
X160017774Y-60980000D01*
X159991963Y-60980000D01*
X159936625Y-60967197D01*
X159902550Y-60950539D01*
X159865342Y-60945118D01*
X159833647Y-60940500D01*
X159833646Y-60940500D01*
X159566354Y-60940500D01*
X159566352Y-60940500D01*
X159522505Y-60946888D01*
X159497450Y-60950539D01*
X159497449Y-60950539D01*
X159487767Y-60951950D01*
X159487441Y-60949717D01*
X159429722Y-60950528D01*
X159412486Y-60943290D01*
X159412273Y-60943806D01*
X159404644Y-60940646D01*
X159404643Y-60940645D01*
X159269754Y-60884772D01*
X159269752Y-60884771D01*
X159125000Y-60865715D01*
X158980246Y-60884771D01*
X158980245Y-60884772D01*
X158879332Y-60926572D01*
X158808742Y-60934161D01*
X158745255Y-60902382D01*
X158742019Y-60899258D01*
X158658217Y-60815456D01*
X158656199Y-60813951D01*
X158602392Y-60773829D01*
X158568582Y-60762222D01*
X158510649Y-60721185D01*
X158490325Y-60683964D01*
X158478719Y-60650156D01*
X158437095Y-60594335D01*
X158437093Y-60594333D01*
X158437091Y-60594330D01*
X158205672Y-60362911D01*
X158205666Y-60362906D01*
X158190578Y-60351655D01*
X158147925Y-60294898D01*
X158142729Y-60224092D01*
X158176638Y-60161716D01*
X158238887Y-60127576D01*
X158309712Y-60132509D01*
X158314052Y-60134211D01*
X158405246Y-60171985D01*
X158550000Y-60191042D01*
X158694754Y-60171985D01*
X158829643Y-60116112D01*
X158876680Y-60080018D01*
X158942899Y-60054418D01*
X159012448Y-60068682D01*
G37*
%TD.AperFunction*%
%TA.AperFunction,Conductor*%
G36*
X159353248Y-54674668D02*
G01*
X159372487Y-54683639D01*
X159404186Y-54698421D01*
X159404187Y-54698421D01*
X159404189Y-54698422D01*
X159438577Y-54702949D01*
X159503500Y-54731668D01*
X159542593Y-54790932D01*
X159547051Y-54811425D01*
X159551577Y-54845809D01*
X159554993Y-54853135D01*
X159557653Y-54858840D01*
X159575331Y-54896749D01*
X159585992Y-54966941D01*
X159575331Y-55003248D01*
X159551577Y-55054188D01*
X159551577Y-55054189D01*
X159545500Y-55100351D01*
X159545500Y-55299648D01*
X159551577Y-55345809D01*
X159575331Y-55396749D01*
X159585992Y-55466941D01*
X159575331Y-55503248D01*
X159551577Y-55554188D01*
X159551577Y-55554189D01*
X159545500Y-55600351D01*
X159545500Y-55799648D01*
X159551577Y-55845810D01*
X159551577Y-55845811D01*
X159575331Y-55896751D01*
X159585992Y-55966942D01*
X159575331Y-56003249D01*
X159551577Y-56054188D01*
X159551577Y-56054189D01*
X159545500Y-56100351D01*
X159545500Y-56299648D01*
X159551577Y-56345810D01*
X159551577Y-56345811D01*
X159575331Y-56396751D01*
X159585992Y-56466942D01*
X159575331Y-56503249D01*
X159551577Y-56554188D01*
X159551577Y-56554189D01*
X159545500Y-56600351D01*
X159545500Y-56799648D01*
X159551577Y-56845810D01*
X159551577Y-56845811D01*
X159575331Y-56896751D01*
X159585992Y-56966942D01*
X159575331Y-57003249D01*
X159551577Y-57054188D01*
X159551577Y-57054189D01*
X159545500Y-57100351D01*
X159545500Y-57299648D01*
X159551577Y-57345809D01*
X159575331Y-57396749D01*
X159585992Y-57466941D01*
X159575331Y-57503248D01*
X159551577Y-57554188D01*
X159551577Y-57554189D01*
X159545500Y-57600351D01*
X159545500Y-57799648D01*
X159551577Y-57845810D01*
X159551577Y-57845811D01*
X159575331Y-57896751D01*
X159585992Y-57966942D01*
X159575331Y-58003249D01*
X159551577Y-58054188D01*
X159551577Y-58054189D01*
X159547051Y-58088574D01*
X159518329Y-58153502D01*
X159459064Y-58192594D01*
X159438574Y-58197051D01*
X159404189Y-58201577D01*
X159404188Y-58201577D01*
X159353249Y-58225331D01*
X159283058Y-58235992D01*
X159246751Y-58225331D01*
X159195811Y-58201577D01*
X159149648Y-58195500D01*
X159149644Y-58195500D01*
X158950356Y-58195500D01*
X158950351Y-58195500D01*
X158904189Y-58201577D01*
X158904188Y-58201577D01*
X158853249Y-58225331D01*
X158783058Y-58235992D01*
X158746751Y-58225331D01*
X158695811Y-58201577D01*
X158649648Y-58195500D01*
X158649644Y-58195500D01*
X158450356Y-58195500D01*
X158450351Y-58195500D01*
X158404189Y-58201577D01*
X158404188Y-58201577D01*
X158353249Y-58225331D01*
X158283058Y-58235992D01*
X158246751Y-58225331D01*
X158195811Y-58201577D01*
X158149648Y-58195500D01*
X158149644Y-58195500D01*
X157950356Y-58195500D01*
X157950351Y-58195500D01*
X157904189Y-58201577D01*
X157904188Y-58201577D01*
X157853249Y-58225331D01*
X157783058Y-58235992D01*
X157746751Y-58225331D01*
X157695811Y-58201577D01*
X157649648Y-58195500D01*
X157649644Y-58195500D01*
X157450356Y-58195500D01*
X157450351Y-58195500D01*
X157404189Y-58201577D01*
X157404188Y-58201577D01*
X157353249Y-58225331D01*
X157283058Y-58235992D01*
X157246751Y-58225331D01*
X157195811Y-58201577D01*
X157149648Y-58195500D01*
X157149644Y-58195500D01*
X156950356Y-58195500D01*
X156950351Y-58195500D01*
X156904189Y-58201577D01*
X156904188Y-58201577D01*
X156853249Y-58225331D01*
X156783058Y-58235992D01*
X156746751Y-58225331D01*
X156695811Y-58201577D01*
X156649648Y-58195500D01*
X156649644Y-58195500D01*
X156450356Y-58195500D01*
X156450351Y-58195500D01*
X156404189Y-58201577D01*
X156404188Y-58201577D01*
X156353249Y-58225331D01*
X156283058Y-58235992D01*
X156246751Y-58225331D01*
X156195811Y-58201577D01*
X156161425Y-58197051D01*
X156096498Y-58168329D01*
X156057405Y-58109065D01*
X156052951Y-58088590D01*
X156048422Y-58054189D01*
X156024667Y-58003247D01*
X156014007Y-57933058D01*
X156024668Y-57896751D01*
X156048422Y-57845811D01*
X156054500Y-57799644D01*
X156054500Y-57600356D01*
X156048422Y-57554189D01*
X156024667Y-57503247D01*
X156014007Y-57433058D01*
X156024666Y-57396754D01*
X156048422Y-57345811D01*
X156054500Y-57299644D01*
X156054500Y-57100356D01*
X156048422Y-57054189D01*
X156024667Y-57003247D01*
X156014007Y-56933058D01*
X156024668Y-56896751D01*
X156048422Y-56845811D01*
X156054500Y-56799644D01*
X156054500Y-56600356D01*
X156048422Y-56554189D01*
X156024667Y-56503247D01*
X156014007Y-56433058D01*
X156024668Y-56396751D01*
X156048422Y-56345811D01*
X156054500Y-56299644D01*
X156054500Y-56100356D01*
X156048422Y-56054189D01*
X156024667Y-56003247D01*
X156014007Y-55933058D01*
X156024668Y-55896751D01*
X156048422Y-55845811D01*
X156054500Y-55799644D01*
X156054500Y-55600356D01*
X156048422Y-55554189D01*
X156024667Y-55503247D01*
X156014007Y-55433058D01*
X156024666Y-55396754D01*
X156048422Y-55345811D01*
X156054500Y-55299644D01*
X156054500Y-55100356D01*
X156048422Y-55054189D01*
X156024667Y-55003247D01*
X156014007Y-54933058D01*
X156024666Y-54896754D01*
X156048422Y-54845811D01*
X156052949Y-54811422D01*
X156081668Y-54746500D01*
X156140932Y-54707406D01*
X156161409Y-54702951D01*
X156195811Y-54698422D01*
X156246750Y-54674668D01*
X156316941Y-54664007D01*
X156353248Y-54674668D01*
X156404189Y-54698422D01*
X156450356Y-54704500D01*
X156450363Y-54704500D01*
X156649637Y-54704500D01*
X156649644Y-54704500D01*
X156695811Y-54698422D01*
X156746750Y-54674668D01*
X156816941Y-54664007D01*
X156853248Y-54674668D01*
X156904189Y-54698422D01*
X156950356Y-54704500D01*
X156950363Y-54704500D01*
X157149637Y-54704500D01*
X157149644Y-54704500D01*
X157195811Y-54698422D01*
X157246750Y-54674668D01*
X157316941Y-54664007D01*
X157353248Y-54674668D01*
X157404189Y-54698422D01*
X157450356Y-54704500D01*
X157450363Y-54704500D01*
X157649637Y-54704500D01*
X157649644Y-54704500D01*
X157695811Y-54698422D01*
X157746750Y-54674668D01*
X157816941Y-54664007D01*
X157853248Y-54674668D01*
X157904189Y-54698422D01*
X157950356Y-54704500D01*
X157950363Y-54704500D01*
X158149637Y-54704500D01*
X158149644Y-54704500D01*
X158195811Y-54698422D01*
X158246750Y-54674668D01*
X158316941Y-54664007D01*
X158353248Y-54674668D01*
X158404189Y-54698422D01*
X158450356Y-54704500D01*
X158450363Y-54704500D01*
X158649637Y-54704500D01*
X158649644Y-54704500D01*
X158695811Y-54698422D01*
X158746750Y-54674668D01*
X158816941Y-54664007D01*
X158853248Y-54674668D01*
X158904189Y-54698422D01*
X158950356Y-54704500D01*
X158950363Y-54704500D01*
X159149637Y-54704500D01*
X159149644Y-54704500D01*
X159195811Y-54698422D01*
X159246750Y-54674668D01*
X159316941Y-54664007D01*
X159353248Y-54674668D01*
G37*
%TD.AperFunction*%
%TA.AperFunction,Conductor*%
G36*
X168723202Y-51331765D02*
G01*
X168776301Y-51378893D01*
X168795500Y-51445748D01*
X168795500Y-57486325D01*
X168775498Y-57554446D01*
X168758596Y-57575420D01*
X168350422Y-57983595D01*
X168288109Y-58017620D01*
X168261326Y-58020500D01*
X167488675Y-58020500D01*
X167420554Y-58000498D01*
X167399580Y-57983596D01*
X166695109Y-57279126D01*
X166691394Y-57275072D01*
X166665066Y-57243695D01*
X166629589Y-57223212D01*
X166624957Y-57220261D01*
X166591401Y-57196765D01*
X166591397Y-57196762D01*
X166586367Y-57194416D01*
X166569664Y-57187498D01*
X166564430Y-57185593D01*
X166524091Y-57178480D01*
X166518725Y-57177290D01*
X166479164Y-57166690D01*
X166479158Y-57166690D01*
X166467409Y-57167718D01*
X166438352Y-57170260D01*
X166432868Y-57170500D01*
X162191136Y-57170500D01*
X162123015Y-57150498D01*
X162102041Y-57133595D01*
X161893509Y-56925063D01*
X167045500Y-56925063D01*
X167045501Y-56925073D01*
X167060265Y-56999300D01*
X167116516Y-57083484D01*
X167200697Y-57139733D01*
X167200699Y-57139734D01*
X167274933Y-57154500D01*
X168225066Y-57154499D01*
X168225069Y-57154498D01*
X168225073Y-57154498D01*
X168274326Y-57144701D01*
X168299301Y-57139734D01*
X168383484Y-57083484D01*
X168439734Y-56999301D01*
X168454500Y-56925067D01*
X168454499Y-56574934D01*
X168454498Y-56574931D01*
X168454498Y-56574926D01*
X168444484Y-56524580D01*
X168444484Y-56475421D01*
X168454500Y-56425067D01*
X168454499Y-56074934D01*
X168454498Y-56074930D01*
X168454498Y-56074926D01*
X168439734Y-56000699D01*
X168407776Y-55952871D01*
X168383484Y-55916516D01*
X168383483Y-55916515D01*
X168299302Y-55860266D01*
X168225067Y-55845500D01*
X167274936Y-55845500D01*
X167274926Y-55845501D01*
X167200699Y-55860265D01*
X167116515Y-55916516D01*
X167060266Y-56000697D01*
X167045500Y-56074930D01*
X167045500Y-56425063D01*
X167045501Y-56425068D01*
X167055516Y-56475421D01*
X167055515Y-56524579D01*
X167045500Y-56574925D01*
X167045500Y-56925063D01*
X161893509Y-56925063D01*
X161793041Y-56824595D01*
X161759015Y-56762283D01*
X161764080Y-56691468D01*
X161806627Y-56634632D01*
X161873147Y-56609821D01*
X161882136Y-56609500D01*
X165472868Y-56609500D01*
X165478353Y-56609739D01*
X165519160Y-56613310D01*
X165558735Y-56602705D01*
X165564073Y-56601520D01*
X165604434Y-56594405D01*
X165604435Y-56594404D01*
X165604437Y-56594404D01*
X165609699Y-56592488D01*
X165626322Y-56585603D01*
X165631398Y-56583235D01*
X165631401Y-56583235D01*
X165664973Y-56559726D01*
X165669573Y-56556796D01*
X165705066Y-56536305D01*
X165731403Y-56504916D01*
X165735095Y-56500886D01*
X167220893Y-55015088D01*
X167224911Y-55011406D01*
X167256305Y-54985066D01*
X167276796Y-54949573D01*
X167279730Y-54944967D01*
X167303235Y-54911401D01*
X167303235Y-54911398D01*
X167305617Y-54906291D01*
X167312471Y-54889745D01*
X167314406Y-54884430D01*
X167316472Y-54872705D01*
X167321521Y-54844071D01*
X167322703Y-54838739D01*
X167333309Y-54799161D01*
X167331134Y-54774305D01*
X167329740Y-54758358D01*
X167329500Y-54752866D01*
X167329500Y-52280499D01*
X167349502Y-52212378D01*
X167403158Y-52165885D01*
X167455500Y-52154499D01*
X168225064Y-52154499D01*
X168225066Y-52154499D01*
X168225069Y-52154498D01*
X168225072Y-52154498D01*
X168270311Y-52145500D01*
X168299301Y-52139734D01*
X168383484Y-52083484D01*
X168439734Y-51999301D01*
X168454500Y-51925067D01*
X168454499Y-51574934D01*
X168454498Y-51574931D01*
X168454498Y-51574926D01*
X168437313Y-51488527D01*
X168440595Y-51487874D01*
X168435170Y-51437414D01*
X168466949Y-51373927D01*
X168528006Y-51337699D01*
X168546500Y-51335376D01*
X168546433Y-51334863D01*
X168554621Y-51333784D01*
X168554622Y-51333785D01*
X168653054Y-51320826D01*
X168723202Y-51331765D01*
G37*
%TD.AperFunction*%
%TA.AperFunction,Conductor*%
G36*
X164974976Y-46650526D02*
G01*
X164974977Y-46650524D01*
X164986395Y-46650531D01*
X165010095Y-46657505D01*
X165023018Y-46660074D01*
X165023076Y-46660098D01*
X165022623Y-46661192D01*
X165054504Y-46670575D01*
X165100964Y-46724259D01*
X165106151Y-46737594D01*
X165114574Y-46763516D01*
X165149147Y-46869920D01*
X165244214Y-47034580D01*
X165371438Y-47175877D01*
X165525259Y-47287635D01*
X165698955Y-47364969D01*
X165884933Y-47404500D01*
X166075067Y-47404500D01*
X166261045Y-47364969D01*
X166434741Y-47287635D01*
X166588562Y-47175877D01*
X166715786Y-47034580D01*
X166729394Y-47011009D01*
X166780774Y-46962018D01*
X166850488Y-46948581D01*
X166916399Y-46974967D01*
X166931214Y-46988674D01*
X166935578Y-46993415D01*
X166935579Y-46993416D01*
X166961813Y-47013835D01*
X166967657Y-47018996D01*
X166970103Y-47021442D01*
X166988050Y-47034256D01*
X167028944Y-47066085D01*
X167028946Y-47066085D01*
X167035429Y-47069594D01*
X167035476Y-47069617D01*
X167035526Y-47069644D01*
X167042149Y-47072882D01*
X167042152Y-47072884D01*
X167091831Y-47087674D01*
X167140013Y-47104215D01*
X167169102Y-47118621D01*
X167200698Y-47139733D01*
X167208932Y-47145235D01*
X167254459Y-47199713D01*
X167263306Y-47270156D01*
X167232665Y-47334200D01*
X167208932Y-47354765D01*
X167116514Y-47416517D01*
X167060266Y-47500697D01*
X167045500Y-47574930D01*
X167045500Y-47574933D01*
X167045500Y-47710128D01*
X167045501Y-47719499D01*
X167025499Y-47787620D01*
X166971844Y-47834113D01*
X166919501Y-47845500D01*
X166703214Y-47845500D01*
X166647875Y-47832697D01*
X166602551Y-47810539D01*
X166533647Y-47800500D01*
X166533646Y-47800500D01*
X166266354Y-47800500D01*
X166266352Y-47800500D01*
X166197449Y-47810539D01*
X166197447Y-47810540D01*
X166091160Y-47862500D01*
X166091158Y-47862501D01*
X166007501Y-47946158D01*
X166007500Y-47946160D01*
X165955540Y-48052447D01*
X165955539Y-48052449D01*
X165945500Y-48121352D01*
X165945500Y-48448647D01*
X165955539Y-48517550D01*
X165955540Y-48517552D01*
X166007500Y-48623839D01*
X166007501Y-48623841D01*
X166091158Y-48707498D01*
X166091160Y-48707499D01*
X166197450Y-48759461D01*
X166266354Y-48769500D01*
X166266360Y-48769500D01*
X166533640Y-48769500D01*
X166533646Y-48769500D01*
X166602550Y-48759461D01*
X166708840Y-48707499D01*
X166711839Y-48704500D01*
X166724935Y-48691405D01*
X166787247Y-48657379D01*
X166814030Y-48654500D01*
X166919500Y-48654500D01*
X166987621Y-48674502D01*
X167034114Y-48728158D01*
X167045500Y-48780499D01*
X167045500Y-48925063D01*
X167045501Y-48925068D01*
X167055516Y-48975421D01*
X167055515Y-49024579D01*
X167045500Y-49074925D01*
X167045500Y-49425063D01*
X167045501Y-49425073D01*
X167060265Y-49499300D01*
X167075599Y-49522248D01*
X167116516Y-49583484D01*
X167200699Y-49639734D01*
X167208932Y-49645235D01*
X167254459Y-49699713D01*
X167263306Y-49770156D01*
X167232665Y-49834200D01*
X167208932Y-49854765D01*
X167200699Y-49860265D01*
X167200699Y-49860266D01*
X167176148Y-49876670D01*
X167116514Y-49916517D01*
X167060266Y-50000697D01*
X167045500Y-50074930D01*
X167045500Y-50425063D01*
X167045501Y-50425068D01*
X167055516Y-50475421D01*
X167055515Y-50524579D01*
X167045500Y-50574925D01*
X167045500Y-50925063D01*
X167045501Y-50925073D01*
X167060265Y-50999300D01*
X167066477Y-51008596D01*
X167116516Y-51083484D01*
X167192905Y-51134526D01*
X167208932Y-51145235D01*
X167254459Y-51199713D01*
X167263306Y-51270156D01*
X167232665Y-51334200D01*
X167208931Y-51354765D01*
X167119813Y-51414312D01*
X167071697Y-51433632D01*
X167066568Y-51434536D01*
X167060566Y-51435595D01*
X167060564Y-51435595D01*
X167055331Y-51437500D01*
X167038641Y-51444413D01*
X167033599Y-51446764D01*
X167000044Y-51470259D01*
X166995410Y-51473211D01*
X166959937Y-51493692D01*
X166959930Y-51493697D01*
X166933598Y-51525079D01*
X166929884Y-51529132D01*
X166779136Y-51679879D01*
X166775085Y-51683592D01*
X166743692Y-51709936D01*
X166723211Y-51745410D01*
X166720259Y-51750044D01*
X166696766Y-51783597D01*
X166694410Y-51788649D01*
X166687490Y-51805358D01*
X166685593Y-51810569D01*
X166678480Y-51850909D01*
X166677290Y-51856276D01*
X166666690Y-51895835D01*
X166666690Y-51895840D01*
X166669247Y-51925069D01*
X166670260Y-51936637D01*
X166670500Y-51942131D01*
X166670500Y-54581325D01*
X166650498Y-54649446D01*
X166633595Y-54670420D01*
X166450736Y-54853279D01*
X166388424Y-54887305D01*
X166317609Y-54882240D01*
X166260773Y-54839693D01*
X166256215Y-54832783D01*
X166254355Y-54830360D01*
X166254355Y-54830358D01*
X166165474Y-54714526D01*
X166165472Y-54714524D01*
X166165471Y-54714523D01*
X166049649Y-54625649D01*
X166049641Y-54625644D01*
X165914752Y-54569771D01*
X165850229Y-54561277D01*
X165785302Y-54532554D01*
X165746211Y-54473289D01*
X165741755Y-54452806D01*
X165730228Y-54365246D01*
X165674355Y-54230358D01*
X165585474Y-54114526D01*
X165585472Y-54114524D01*
X165585471Y-54114523D01*
X165469649Y-54025649D01*
X165469641Y-54025644D01*
X165334752Y-53969771D01*
X165190000Y-53950715D01*
X165045247Y-53969771D01*
X164977801Y-53997708D01*
X164910358Y-54025645D01*
X164910357Y-54025646D01*
X164910356Y-54025646D01*
X164819321Y-54095500D01*
X164794526Y-54114526D01*
X164781727Y-54131204D01*
X164724391Y-54173071D01*
X164681766Y-54180500D01*
X164282132Y-54180500D01*
X164276647Y-54180260D01*
X164247590Y-54177718D01*
X164235842Y-54176690D01*
X164235835Y-54176690D01*
X164196276Y-54187290D01*
X164190909Y-54188480D01*
X164150569Y-54195593D01*
X164145363Y-54197488D01*
X164128628Y-54204420D01*
X164123601Y-54206764D01*
X164123599Y-54206765D01*
X164123596Y-54206766D01*
X164123598Y-54206766D01*
X164090037Y-54230263D01*
X164085404Y-54233214D01*
X164049936Y-54253693D01*
X164049934Y-54253694D01*
X164023608Y-54285067D01*
X164019895Y-54289119D01*
X164008517Y-54300498D01*
X163982438Y-54326578D01*
X163975423Y-54333593D01*
X163913111Y-54367620D01*
X163886325Y-54370500D01*
X160817936Y-54370500D01*
X160764687Y-54358695D01*
X160695811Y-54326578D01*
X160695809Y-54326577D01*
X160649648Y-54320500D01*
X160649644Y-54320500D01*
X160622702Y-54320500D01*
X160554581Y-54300498D01*
X160508088Y-54246842D01*
X160497984Y-54176568D01*
X160499905Y-54167201D01*
X160500226Y-54164756D01*
X160500228Y-54164754D01*
X160519285Y-54020000D01*
X160500228Y-53875246D01*
X160444355Y-53740358D01*
X160355474Y-53624526D01*
X160324422Y-53600699D01*
X160276807Y-53564162D01*
X160234940Y-53506824D01*
X160230719Y-53435953D01*
X160264417Y-53375104D01*
X160336723Y-53302799D01*
X160473117Y-53166404D01*
X160535430Y-53132379D01*
X160562213Y-53129500D01*
X160733640Y-53129500D01*
X160733646Y-53129500D01*
X160802550Y-53119461D01*
X160908840Y-53067499D01*
X160992499Y-52983840D01*
X161044461Y-52877550D01*
X161054500Y-52808646D01*
X161054500Y-52481354D01*
X161044461Y-52412450D01*
X160992499Y-52306160D01*
X160992498Y-52306158D01*
X160908841Y-52222501D01*
X160908839Y-52222500D01*
X160802552Y-52170540D01*
X160802550Y-52170539D01*
X160733647Y-52160500D01*
X160733646Y-52160500D01*
X160557500Y-52160500D01*
X160489379Y-52140498D01*
X160442886Y-52086842D01*
X160431500Y-52034500D01*
X160431500Y-51770213D01*
X160451502Y-51702092D01*
X160468405Y-51681117D01*
X160761119Y-51388404D01*
X160823431Y-51354379D01*
X160850214Y-51351500D01*
X161512500Y-51351500D01*
X161580621Y-51371502D01*
X161627114Y-51425158D01*
X161638500Y-51477500D01*
X161638500Y-51582260D01*
X161618498Y-51650381D01*
X161601595Y-51671355D01*
X161513675Y-51759274D01*
X161513673Y-51759276D01*
X161455501Y-51873446D01*
X161445058Y-51939385D01*
X161440500Y-51968166D01*
X161440500Y-53331834D01*
X161441368Y-53337313D01*
X161455501Y-53426553D01*
X161513673Y-53540723D01*
X161604276Y-53631326D01*
X161620148Y-53639413D01*
X161718445Y-53689498D01*
X161813166Y-53704500D01*
X161813168Y-53704500D01*
X162176832Y-53704500D01*
X162176834Y-53704500D01*
X162271555Y-53689498D01*
X162385723Y-53631326D01*
X162476326Y-53540723D01*
X162517733Y-53459455D01*
X162566481Y-53407842D01*
X162635396Y-53390776D01*
X162702598Y-53413677D01*
X162742265Y-53459455D01*
X162747429Y-53469589D01*
X162783673Y-53540723D01*
X162874276Y-53631326D01*
X162890148Y-53639413D01*
X162988445Y-53689498D01*
X163083166Y-53704500D01*
X163083168Y-53704500D01*
X163446832Y-53704500D01*
X163446834Y-53704500D01*
X163541555Y-53689498D01*
X163655723Y-53631326D01*
X163746326Y-53540723D01*
X163787733Y-53459455D01*
X163836481Y-53407842D01*
X163905396Y-53390776D01*
X163972598Y-53413677D01*
X164012265Y-53459455D01*
X164017429Y-53469589D01*
X164053673Y-53540723D01*
X164144276Y-53631326D01*
X164160148Y-53639413D01*
X164258445Y-53689498D01*
X164353166Y-53704500D01*
X164353168Y-53704500D01*
X164716832Y-53704500D01*
X164716834Y-53704500D01*
X164811555Y-53689498D01*
X164925723Y-53631326D01*
X165016326Y-53540723D01*
X165057733Y-53459455D01*
X165106481Y-53407842D01*
X165175396Y-53390776D01*
X165242598Y-53413677D01*
X165282265Y-53459455D01*
X165287429Y-53469589D01*
X165323673Y-53540723D01*
X165414276Y-53631326D01*
X165430148Y-53639413D01*
X165528445Y-53689498D01*
X165623166Y-53704500D01*
X165623168Y-53704500D01*
X165986832Y-53704500D01*
X165986834Y-53704500D01*
X166081555Y-53689498D01*
X166195723Y-53631326D01*
X166286326Y-53540723D01*
X166344498Y-53426555D01*
X166359500Y-53331834D01*
X166359500Y-51968166D01*
X166344498Y-51873445D01*
X166325874Y-51836895D01*
X166312771Y-51767119D01*
X166321733Y-51731474D01*
X166345228Y-51674754D01*
X166364285Y-51530000D01*
X166360427Y-51500699D01*
X166349345Y-51416516D01*
X166345228Y-51385246D01*
X166289355Y-51250358D01*
X166200474Y-51134526D01*
X166200472Y-51134524D01*
X166200471Y-51134523D01*
X166084649Y-51045649D01*
X166084641Y-51045644D01*
X165949752Y-50989771D01*
X165805000Y-50970715D01*
X165660247Y-50989771D01*
X165614801Y-51008596D01*
X165525358Y-51045645D01*
X165525357Y-51045646D01*
X165525356Y-51045646D01*
X165409526Y-51134526D01*
X165320646Y-51250356D01*
X165320643Y-51250361D01*
X165294943Y-51312406D01*
X165250394Y-51367686D01*
X165183030Y-51390106D01*
X165114239Y-51372547D01*
X165065862Y-51320584D01*
X165062127Y-51312406D01*
X165034355Y-51245358D01*
X164945474Y-51129526D01*
X164945472Y-51129524D01*
X164945471Y-51129523D01*
X164829649Y-51040649D01*
X164829641Y-51040644D01*
X164694752Y-50984771D01*
X164550000Y-50965715D01*
X164405247Y-50984771D01*
X164369033Y-50999772D01*
X164270358Y-51040645D01*
X164270357Y-51040646D01*
X164270356Y-51040646D01*
X164154526Y-51129526D01*
X164065646Y-51245356D01*
X164065642Y-51245363D01*
X164025801Y-51341547D01*
X163981253Y-51396828D01*
X163913889Y-51419248D01*
X163845098Y-51401689D01*
X163796720Y-51349727D01*
X163792993Y-51341568D01*
X163759355Y-51260358D01*
X163670474Y-51144526D01*
X163670472Y-51144524D01*
X163670471Y-51144523D01*
X163554649Y-51055649D01*
X163554641Y-51055644D01*
X163419752Y-50999771D01*
X163275000Y-50980715D01*
X163130247Y-50999771D01*
X163062802Y-51027708D01*
X162995358Y-51055645D01*
X162995357Y-51055646D01*
X162995356Y-51055646D01*
X162879526Y-51144526D01*
X162790646Y-51260356D01*
X162790645Y-51260358D01*
X162772606Y-51303908D01*
X162734771Y-51395247D01*
X162715715Y-51539999D01*
X162715715Y-51540000D01*
X162734771Y-51684752D01*
X162751498Y-51725135D01*
X162759086Y-51795725D01*
X162747355Y-51830553D01*
X162742266Y-51840541D01*
X162693519Y-51892156D01*
X162624604Y-51909223D01*
X162557402Y-51886323D01*
X162517734Y-51840544D01*
X162476326Y-51759277D01*
X162476324Y-51759273D01*
X162438404Y-51721353D01*
X162404379Y-51659041D01*
X162401500Y-51632259D01*
X162401500Y-51372029D01*
X162421502Y-51303908D01*
X162438403Y-51282935D01*
X162442499Y-51278840D01*
X162494461Y-51172550D01*
X162504500Y-51103646D01*
X162504500Y-50836354D01*
X162494461Y-50767450D01*
X162442499Y-50661160D01*
X162442498Y-50661158D01*
X162358841Y-50577501D01*
X162358839Y-50577500D01*
X162252552Y-50525540D01*
X162252550Y-50525539D01*
X162183647Y-50515500D01*
X162183646Y-50515500D01*
X161856354Y-50515500D01*
X161856352Y-50515500D01*
X161787449Y-50525539D01*
X161787447Y-50525540D01*
X161684849Y-50575697D01*
X161629510Y-50588500D01*
X160806675Y-50588500D01*
X160738554Y-50568498D01*
X160717580Y-50551596D01*
X159941879Y-49775895D01*
X159938164Y-49771842D01*
X159924239Y-49755247D01*
X159911836Y-49740465D01*
X159876359Y-49719982D01*
X159871724Y-49717029D01*
X159846994Y-49699713D01*
X159838167Y-49693532D01*
X159833136Y-49691186D01*
X159809592Y-49681434D01*
X159803503Y-49677919D01*
X159799036Y-49673235D01*
X159780626Y-49676557D01*
X159761486Y-49672986D01*
X159725934Y-49663460D01*
X159725928Y-49663460D01*
X159714179Y-49664488D01*
X159685122Y-49667030D01*
X159679638Y-49667270D01*
X158380362Y-49667270D01*
X158374877Y-49667030D01*
X158345820Y-49664488D01*
X158334072Y-49663460D01*
X158334065Y-49663460D01*
X158294506Y-49674060D01*
X158289139Y-49675250D01*
X158248799Y-49682363D01*
X158243588Y-49684260D01*
X158226879Y-49691180D01*
X158221827Y-49693536D01*
X158188274Y-49717029D01*
X158183640Y-49719982D01*
X158148166Y-49740463D01*
X158148160Y-49740467D01*
X158121828Y-49771849D01*
X158118114Y-49775902D01*
X157754136Y-50139880D01*
X157750083Y-50143594D01*
X157721489Y-50167589D01*
X157656449Y-50196055D01*
X157586344Y-50184839D01*
X157563793Y-50171033D01*
X157504643Y-50125645D01*
X157493041Y-50120839D01*
X157369752Y-50069771D01*
X157225000Y-50050715D01*
X157080244Y-50069772D01*
X157072270Y-50071909D01*
X157071692Y-50069753D01*
X157012707Y-50076086D01*
X156949225Y-50044297D01*
X156935140Y-50028801D01*
X156870474Y-49944526D01*
X156870472Y-49944524D01*
X156870471Y-49944523D01*
X156754649Y-49855649D01*
X156754641Y-49855644D01*
X156619752Y-49799771D01*
X156475000Y-49780715D01*
X156330247Y-49799771D01*
X156262802Y-49827708D01*
X156195358Y-49855645D01*
X156195357Y-49855646D01*
X156195356Y-49855646D01*
X156079525Y-49944526D01*
X156016069Y-50027224D01*
X155958731Y-50069091D01*
X155887860Y-50073312D01*
X155882787Y-50071693D01*
X155882730Y-50071909D01*
X155874755Y-50069772D01*
X155730000Y-50050715D01*
X155585247Y-50069771D01*
X155557480Y-50081273D01*
X155450358Y-50125645D01*
X155450357Y-50125646D01*
X155450356Y-50125646D01*
X155334526Y-50214526D01*
X155245646Y-50330356D01*
X155245645Y-50330358D01*
X155236169Y-50353235D01*
X155189771Y-50465247D01*
X155170715Y-50609999D01*
X155170715Y-50610000D01*
X155189771Y-50754752D01*
X155245644Y-50889641D01*
X155245651Y-50889652D01*
X155246597Y-50890885D01*
X155247071Y-50892112D01*
X155249776Y-50896797D01*
X155249045Y-50897218D01*
X155272196Y-50957106D01*
X155271317Y-50985739D01*
X155270499Y-50991350D01*
X155270500Y-51318639D01*
X155270500Y-51318647D01*
X155274413Y-51345501D01*
X155280539Y-51387550D01*
X155284302Y-51395247D01*
X155296238Y-51419664D01*
X155308185Y-51489648D01*
X155296238Y-51530336D01*
X155280539Y-51562450D01*
X155270500Y-51631352D01*
X155270500Y-51958647D01*
X155280539Y-52027550D01*
X155280540Y-52027552D01*
X155332499Y-52133838D01*
X155332500Y-52133839D01*
X155332501Y-52133840D01*
X155358595Y-52159934D01*
X155392620Y-52222244D01*
X155395500Y-52249029D01*
X155395500Y-52757867D01*
X155395260Y-52763360D01*
X155391690Y-52804158D01*
X155391690Y-52804165D01*
X155402290Y-52843725D01*
X155403480Y-52849091D01*
X155410593Y-52889430D01*
X155412498Y-52894664D01*
X155419416Y-52911367D01*
X155421762Y-52916397D01*
X155445258Y-52949952D01*
X155448212Y-52954589D01*
X155468695Y-52990066D01*
X155500090Y-53016409D01*
X155504116Y-53020099D01*
X155683597Y-53199580D01*
X155717620Y-53261888D01*
X155720500Y-53288672D01*
X155720500Y-53432063D01*
X155708695Y-53485312D01*
X155676577Y-53554188D01*
X155676577Y-53554189D01*
X155670500Y-53600351D01*
X155670500Y-54194500D01*
X155650498Y-54262621D01*
X155596842Y-54309114D01*
X155544500Y-54320500D01*
X154978673Y-54320500D01*
X154910552Y-54300498D01*
X154889578Y-54283595D01*
X154301878Y-53695895D01*
X154269267Y-53639413D01*
X154265278Y-53624525D01*
X154257704Y-53596261D01*
X154256520Y-53590920D01*
X154249405Y-53550566D01*
X154249403Y-53550562D01*
X154247491Y-53545308D01*
X154240596Y-53528663D01*
X154238235Y-53523600D01*
X154238235Y-53523599D01*
X154214738Y-53490042D01*
X154211783Y-53485404D01*
X154202652Y-53469589D01*
X154191305Y-53449934D01*
X154159916Y-53423595D01*
X154155876Y-53419893D01*
X153875115Y-53139132D01*
X153871400Y-53135079D01*
X153845066Y-53103695D01*
X153809589Y-53083212D01*
X153804957Y-53080261D01*
X153771401Y-53056765D01*
X153771397Y-53056762D01*
X153766367Y-53054416D01*
X153749664Y-53047498D01*
X153744430Y-53045593D01*
X153704092Y-53038480D01*
X153698728Y-53037291D01*
X153682894Y-53033049D01*
X153622270Y-52996100D01*
X153591245Y-52932241D01*
X153589500Y-52911341D01*
X153589500Y-52555500D01*
X153609502Y-52487379D01*
X153663158Y-52440886D01*
X153715500Y-52429500D01*
X153782868Y-52429500D01*
X153788353Y-52429739D01*
X153829160Y-52433310D01*
X153868735Y-52422705D01*
X153874073Y-52421520D01*
X153914434Y-52414405D01*
X153914435Y-52414404D01*
X153914437Y-52414404D01*
X153919699Y-52412488D01*
X153936322Y-52405603D01*
X153941398Y-52403235D01*
X153941401Y-52403235D01*
X153974973Y-52379726D01*
X153979573Y-52376796D01*
X154015066Y-52356305D01*
X154041397Y-52324922D01*
X154045099Y-52320882D01*
X154245820Y-52120162D01*
X154249851Y-52116469D01*
X154281232Y-52090139D01*
X154283136Y-52086842D01*
X154286559Y-52080910D01*
X154301721Y-52054648D01*
X154304655Y-52050045D01*
X154328162Y-52016474D01*
X154330529Y-52011396D01*
X154337415Y-51994772D01*
X154339330Y-51989510D01*
X154339329Y-51989510D01*
X154339332Y-51989507D01*
X154346448Y-51949141D01*
X154347627Y-51943824D01*
X154358237Y-51904233D01*
X154355544Y-51873446D01*
X154354667Y-51863419D01*
X154354427Y-51857927D01*
X154354427Y-51270293D01*
X154374429Y-51202172D01*
X154375636Y-51200330D01*
X154409734Y-51149301D01*
X154424500Y-51075067D01*
X154424499Y-50324934D01*
X154424498Y-50324933D01*
X154423892Y-50318770D01*
X154425810Y-50318581D01*
X154431325Y-50256803D01*
X154448620Y-50226211D01*
X154484355Y-50179643D01*
X154540228Y-50044754D01*
X154559285Y-49900000D01*
X154553445Y-49855644D01*
X154540228Y-49755247D01*
X154534105Y-49740465D01*
X154484355Y-49620358D01*
X154450537Y-49576286D01*
X154424936Y-49510066D01*
X154424499Y-49499581D01*
X154424499Y-48890500D01*
X154444501Y-48822379D01*
X154498157Y-48775886D01*
X154550499Y-48764500D01*
X155169221Y-48764500D01*
X155237342Y-48784502D01*
X155283835Y-48838158D01*
X155293939Y-48908432D01*
X155293905Y-48908665D01*
X155285500Y-48966350D01*
X155285500Y-49233647D01*
X155295539Y-49302550D01*
X155295540Y-49302552D01*
X155347500Y-49408839D01*
X155347501Y-49408841D01*
X155431158Y-49492498D01*
X155431160Y-49492499D01*
X155537450Y-49544461D01*
X155606354Y-49554500D01*
X155606360Y-49554500D01*
X155933640Y-49554500D01*
X155933646Y-49554500D01*
X156002550Y-49544461D01*
X156108840Y-49492499D01*
X156118773Y-49482566D01*
X156134935Y-49466405D01*
X156197247Y-49432379D01*
X156224030Y-49429500D01*
X157657868Y-49429500D01*
X157663353Y-49429739D01*
X157704160Y-49433310D01*
X157743735Y-49422705D01*
X157749073Y-49421520D01*
X157789434Y-49414405D01*
X157789435Y-49414404D01*
X157789437Y-49414404D01*
X157794699Y-49412488D01*
X157811322Y-49405603D01*
X157816398Y-49403235D01*
X157816401Y-49403235D01*
X157849973Y-49379726D01*
X157854573Y-49376796D01*
X157890066Y-49356305D01*
X157916403Y-49324916D01*
X157920095Y-49320886D01*
X158607822Y-48633159D01*
X158670132Y-48599135D01*
X158740947Y-48604200D01*
X158797783Y-48646747D01*
X158813324Y-48674039D01*
X158815643Y-48679639D01*
X158815649Y-48679649D01*
X158904525Y-48795474D01*
X159020350Y-48884350D01*
X159020357Y-48884355D01*
X159155246Y-48940228D01*
X159300000Y-48959285D01*
X159322653Y-48956302D01*
X159392799Y-48967240D01*
X159445899Y-49014367D01*
X159455929Y-49037406D01*
X159456612Y-49037124D01*
X159459771Y-49044752D01*
X159459772Y-49044754D01*
X159472273Y-49074933D01*
X159515644Y-49179641D01*
X159515649Y-49179649D01*
X159604525Y-49295474D01*
X159714336Y-49379735D01*
X159720357Y-49384355D01*
X159842315Y-49434871D01*
X159856781Y-49446529D01*
X159882941Y-49443874D01*
X160000000Y-49459285D01*
X160144754Y-49440228D01*
X160279643Y-49384355D01*
X160395474Y-49295474D01*
X160484355Y-49179643D01*
X160540228Y-49044754D01*
X160540228Y-49044752D01*
X160543388Y-49037124D01*
X160545631Y-49038053D01*
X160576136Y-48987998D01*
X160639994Y-48956971D01*
X160677342Y-48956302D01*
X160700000Y-48959285D01*
X160722653Y-48956302D01*
X160792799Y-48967240D01*
X160845899Y-49014367D01*
X160855929Y-49037406D01*
X160856612Y-49037124D01*
X160859771Y-49044752D01*
X160859772Y-49044754D01*
X160872273Y-49074933D01*
X160915644Y-49179641D01*
X160915649Y-49179649D01*
X161004525Y-49295474D01*
X161114336Y-49379735D01*
X161120357Y-49384355D01*
X161255246Y-49440228D01*
X161327623Y-49449756D01*
X161399999Y-49459285D01*
X161399999Y-49459284D01*
X161400000Y-49459285D01*
X161544754Y-49440228D01*
X161679643Y-49384355D01*
X161795474Y-49295474D01*
X161884355Y-49179643D01*
X161940228Y-49044754D01*
X161945099Y-49007749D01*
X161973820Y-48942823D01*
X162033085Y-48903730D01*
X162104076Y-48902884D01*
X162159116Y-48935100D01*
X162604252Y-49380236D01*
X162628354Y-49413992D01*
X162662500Y-49483839D01*
X162662501Y-49483841D01*
X162746158Y-49567498D01*
X162746160Y-49567499D01*
X162852450Y-49619461D01*
X162921354Y-49629500D01*
X162921360Y-49629500D01*
X163248640Y-49629500D01*
X163248646Y-49629500D01*
X163317550Y-49619461D01*
X163423840Y-49567499D01*
X163507499Y-49483840D01*
X163559461Y-49377550D01*
X163569500Y-49308646D01*
X163569500Y-49041354D01*
X163559461Y-48972450D01*
X163559459Y-48972446D01*
X163559459Y-48972444D01*
X163557993Y-48967697D01*
X163556993Y-48896707D01*
X163594532Y-48836447D01*
X163658691Y-48806047D01*
X163678377Y-48804500D01*
X163903649Y-48804500D01*
X163971770Y-48824502D01*
X163987204Y-48836189D01*
X163998183Y-48845916D01*
X164065463Y-48881227D01*
X164139778Y-48920230D01*
X164295044Y-48958500D01*
X164295045Y-48958500D01*
X164454955Y-48958500D01*
X164454956Y-48958500D01*
X164610222Y-48920230D01*
X164751818Y-48845915D01*
X164871514Y-48739873D01*
X164962355Y-48608268D01*
X165019061Y-48458747D01*
X165019120Y-48458268D01*
X165038336Y-48300002D01*
X165038336Y-48299997D01*
X165019062Y-48141257D01*
X165019061Y-48141253D01*
X165011514Y-48121354D01*
X164962355Y-47991732D01*
X164871514Y-47860127D01*
X164757679Y-47759277D01*
X164751817Y-47754084D01*
X164751813Y-47754082D01*
X164610220Y-47679769D01*
X164454957Y-47641500D01*
X164454956Y-47641500D01*
X164295044Y-47641500D01*
X164295042Y-47641500D01*
X164139779Y-47679769D01*
X163998183Y-47754083D01*
X163987204Y-47763811D01*
X163922951Y-47794013D01*
X163903649Y-47795500D01*
X163460500Y-47795500D01*
X163392379Y-47775498D01*
X163345886Y-47721842D01*
X163334500Y-47669500D01*
X163334499Y-46776500D01*
X163354501Y-46708379D01*
X163408157Y-46661886D01*
X163460499Y-46650500D01*
X164974842Y-46650500D01*
X164974976Y-46650526D01*
G37*
%TD.AperFunction*%
%TA.AperFunction,Conductor*%
G36*
X153584199Y-51147266D02*
G01*
X153604765Y-51171000D01*
X153646517Y-51233486D01*
X153655291Y-51242260D01*
X153652799Y-51244751D01*
X153684947Y-51283203D01*
X153695427Y-51333513D01*
X153695427Y-51644500D01*
X153675425Y-51712621D01*
X153621769Y-51759114D01*
X153569427Y-51770500D01*
X153517134Y-51770500D01*
X153511642Y-51770260D01*
X153470839Y-51766691D01*
X153470836Y-51766691D01*
X153448107Y-51772781D01*
X153377130Y-51771089D01*
X153318336Y-51731292D01*
X153290391Y-51666027D01*
X153289500Y-51651073D01*
X153289500Y-51343585D01*
X153309502Y-51275464D01*
X153345500Y-51238819D01*
X153347541Y-51237454D01*
X153353484Y-51233484D01*
X153395235Y-51170999D01*
X153449712Y-51125472D01*
X153520156Y-51116625D01*
X153584199Y-51147266D01*
G37*
%TD.AperFunction*%
%TA.AperFunction,Conductor*%
G36*
X179281960Y-41399502D02*
G01*
X179302934Y-41416405D01*
X179316884Y-41430355D01*
X179350910Y-41492667D01*
X179353789Y-41519450D01*
X179353789Y-42606832D01*
X179368790Y-42701553D01*
X179426962Y-42815723D01*
X179517565Y-42906326D01*
X179640570Y-42969000D01*
X179640193Y-42969738D01*
X179681703Y-42995174D01*
X179712846Y-43026317D01*
X179746872Y-43088629D01*
X179748832Y-43100224D01*
X179755937Y-43158744D01*
X179792964Y-43256373D01*
X179798418Y-43327160D01*
X179764736Y-43389658D01*
X179702611Y-43424025D01*
X179694863Y-43425503D01*
X179631735Y-43435501D01*
X179517565Y-43493673D01*
X179426962Y-43584276D01*
X179368790Y-43698446D01*
X179353789Y-43793167D01*
X179353789Y-44126338D01*
X179333787Y-44194459D01*
X179316888Y-44215428D01*
X179099642Y-44432675D01*
X178911198Y-44621119D01*
X178890231Y-44638017D01*
X178886224Y-44640592D01*
X178851998Y-44680090D01*
X178848938Y-44683376D01*
X178837758Y-44694559D01*
X178837756Y-44694557D01*
X178837750Y-44694567D01*
X178837747Y-44694570D01*
X178806406Y-44725911D01*
X178777884Y-44754433D01*
X178715571Y-44788458D01*
X178644756Y-44783392D01*
X178587920Y-44740845D01*
X178563110Y-44674325D01*
X178562789Y-44665337D01*
X178562789Y-43793167D01*
X178557299Y-43758500D01*
X178547787Y-43698445D01*
X178507691Y-43619752D01*
X178489615Y-43584276D01*
X178399012Y-43493673D01*
X178284842Y-43435501D01*
X178241853Y-43428693D01*
X178177700Y-43398281D01*
X178140173Y-43338013D01*
X178141186Y-43267024D01*
X178143754Y-43259556D01*
X178144061Y-43258747D01*
X178151166Y-43200223D01*
X178179231Y-43135014D01*
X178187141Y-43126328D01*
X178317093Y-42996376D01*
X178338069Y-42979474D01*
X178342064Y-42976907D01*
X178376298Y-42937397D01*
X178379351Y-42934119D01*
X178390539Y-42922932D01*
X178400034Y-42910247D01*
X178402825Y-42906784D01*
X178429089Y-42876473D01*
X178432127Y-42873209D01*
X178489615Y-42815723D01*
X178547787Y-42701555D01*
X178562789Y-42606834D01*
X178562789Y-41518166D01*
X178562789Y-41518165D01*
X178562570Y-41515382D01*
X178562789Y-41514339D01*
X178562789Y-41513216D01*
X178563025Y-41513216D01*
X178577168Y-41445902D01*
X178627012Y-41395344D01*
X178688182Y-41379500D01*
X179213839Y-41379500D01*
X179281960Y-41399502D01*
G37*
%TD.AperFunction*%
%TD*%
M02*
