%TF.GenerationSoftware,KiCad,Pcbnew,7.0.7*%
%TF.CreationDate,2023-12-08T19:41:31-05:00*%
%TF.ProjectId,pixie-rev-4,70697869-652d-4726-9576-2d342e6b6963,rev?*%
%TF.SameCoordinates,Original*%
%TF.FileFunction,Copper,L4,Bot*%
%TF.FilePolarity,Positive*%
%FSLAX46Y46*%
G04 Gerber Fmt 4.6, Leading zero omitted, Abs format (unit mm)*
G04 Created by KiCad (PCBNEW 7.0.7) date 2023-12-08 19:41:31*
%MOMM*%
%LPD*%
G01*
G04 APERTURE LIST*
%TA.AperFunction,ComponentPad*%
%ADD10O,1.300000X2.100000*%
%TD*%
%TA.AperFunction,ComponentPad*%
%ADD11O,1.300000X2.500000*%
%TD*%
%TA.AperFunction,ComponentPad*%
%ADD12R,0.900000X0.500000*%
%TD*%
%TA.AperFunction,SMDPad,CuDef*%
%ADD13R,1.500000X1.500000*%
%TD*%
%TA.AperFunction,ViaPad*%
%ADD14C,0.600000*%
%TD*%
%TA.AperFunction,ViaPad*%
%ADD15C,0.681000*%
%TD*%
%TA.AperFunction,ViaPad*%
%ADD16C,0.808000*%
%TD*%
%TA.AperFunction,Conductor*%
%ADD17C,0.150000*%
%TD*%
%TA.AperFunction,Conductor*%
%ADD18C,0.500000*%
%TD*%
%TA.AperFunction,Conductor*%
%ADD19C,0.254000*%
%TD*%
G04 APERTURE END LIST*
D10*
%TO.P,J201,S1,SHEILD*%
%TO.N,unconnected-(J201-SHEILD-PadS1)*%
X165980000Y-46100000D03*
D11*
%TO.P,J201,S2,SHEILD*%
%TO.N,unconnected-(J201-SHEILD-PadS2)*%
X166000000Y-42100000D03*
D10*
%TO.P,J201,S3,SHEILD*%
%TO.N,unconnected-(J201-SHEILD-PadS3)*%
X154780000Y-46100000D03*
D11*
%TO.P,J201,S4,SHEILD*%
%TO.N,unconnected-(J201-SHEILD-PadS4)*%
X154760000Y-42100000D03*
%TD*%
D12*
%TO.P,AE301,2*%
%TO.N,GND*%
X151500000Y-64550000D03*
%TD*%
D13*
%TO.P,GND201,1,1*%
%TO.N,GND*%
X187749999Y-44874998D03*
%TD*%
%TO.P,BOOT301,1,1*%
%TO.N,/PIXEL*%
X187750000Y-42225000D03*
%TD*%
%TO.P,PU301,1,1*%
%TO.N,/MCU/CHIP_PU*%
X187750000Y-47524999D03*
%TD*%
D14*
%TO.N,GND*%
X150500000Y-61100000D03*
X163950000Y-61390000D03*
X161220000Y-60280000D03*
X154760000Y-60780000D03*
X166200000Y-50200000D03*
X155050000Y-52750000D03*
X155250000Y-61425000D03*
X151500000Y-53800000D03*
X169400000Y-43300000D03*
X164500000Y-64500000D03*
D15*
X178958290Y-43137499D03*
D14*
X150500000Y-62800000D03*
X152100000Y-49200000D03*
X166500000Y-59700000D03*
X170500000Y-49800000D03*
X150500000Y-59400000D03*
X176400000Y-40500000D03*
X170300000Y-47200000D03*
X168900000Y-59700000D03*
X150500000Y-57700000D03*
X154650000Y-53500000D03*
X173900000Y-61600000D03*
X150500000Y-50900000D03*
X156700000Y-61325000D03*
X155600000Y-64500000D03*
X177075000Y-58275000D03*
X165600000Y-64500000D03*
X158325000Y-57825000D03*
X152300000Y-63700000D03*
X163410000Y-50700000D03*
X188299999Y-40500000D03*
X157300000Y-55050000D03*
X152425000Y-53800000D03*
X189500000Y-52600000D03*
X165950000Y-53985500D03*
X180900000Y-51600000D03*
X171075000Y-53375000D03*
X156400000Y-47280000D03*
X152800000Y-59500000D03*
X173400000Y-52100000D03*
X178900000Y-53900000D03*
X160075000Y-64500000D03*
X163400000Y-64500000D03*
X151800000Y-59500000D03*
X154360000Y-61560000D03*
X180900000Y-52700000D03*
X151275000Y-58700000D03*
X158650000Y-62150000D03*
X168470000Y-57490000D03*
X150500000Y-63700000D03*
X154525000Y-62625000D03*
X153600000Y-62900000D03*
X155225000Y-62150000D03*
X152900000Y-54800000D03*
X189500000Y-62800000D03*
X170900000Y-56600000D03*
X156400000Y-56975000D03*
X150500000Y-56000000D03*
X177800000Y-46700000D03*
X166700000Y-64500000D03*
X152250000Y-51550000D03*
X154500000Y-64500000D03*
X173000000Y-40500000D03*
X150518219Y-64527124D03*
X157825000Y-62400000D03*
X169540000Y-61400000D03*
D15*
X180200000Y-48550000D03*
D14*
X173625000Y-56800000D03*
X158900000Y-64500000D03*
D15*
X180200000Y-49550000D03*
D14*
X157240000Y-62960000D03*
X152275000Y-52600000D03*
X158663243Y-60486757D03*
X154850000Y-51150000D03*
X155400000Y-53950000D03*
X154750000Y-51950000D03*
X150500000Y-44100000D03*
X153800000Y-55300000D03*
X162000000Y-63400000D03*
X173000000Y-46800000D03*
X155950000Y-63900000D03*
X153000000Y-63600000D03*
X150500000Y-54300000D03*
X157300000Y-55925000D03*
X152000000Y-46000000D03*
X152500000Y-60700000D03*
X157275000Y-56950000D03*
X156700000Y-64500000D03*
X166900000Y-49750000D03*
X158275000Y-63275000D03*
X189500000Y-42400000D03*
X169600000Y-40500000D03*
X175300000Y-42300000D03*
X161200000Y-64500000D03*
X151400000Y-63700000D03*
X159175000Y-55925000D03*
X164730000Y-50330000D03*
X180700000Y-63700000D03*
X152100000Y-50540000D03*
X168600000Y-53750000D03*
X165500000Y-58800000D03*
X165200000Y-56900000D03*
X150500000Y-40700000D03*
X155300000Y-59500000D03*
X175500000Y-44600000D03*
X168600000Y-52278111D03*
X172800000Y-43500000D03*
X174700000Y-58700000D03*
X166897954Y-47398977D03*
X175750000Y-48300000D03*
X157500000Y-61600000D03*
X161850000Y-54025000D03*
X159900000Y-62700000D03*
X175000000Y-54000000D03*
X189500000Y-59400000D03*
X152600000Y-64429978D03*
X153400000Y-40500000D03*
X158300000Y-55925000D03*
X180700000Y-45300000D03*
X156400000Y-55925000D03*
X162600000Y-56900000D03*
X161274204Y-51816717D03*
X187800000Y-55600000D03*
X166900000Y-51250000D03*
X181500000Y-40500000D03*
X152300000Y-42500000D03*
X183600000Y-50690000D03*
X159175000Y-56950000D03*
X153500000Y-58800000D03*
X165425000Y-49250000D03*
X189500000Y-45800000D03*
X154100000Y-52800000D03*
X162300000Y-64500000D03*
X162610000Y-61394500D03*
X155100000Y-49850000D03*
X155050000Y-64100000D03*
X153500000Y-51500000D03*
X156550000Y-63425000D03*
X150500000Y-47500000D03*
X167100000Y-44000000D03*
X163900000Y-56900000D03*
X153400000Y-44500000D03*
X164380000Y-47280000D03*
X158300000Y-55050000D03*
X170530000Y-58730000D03*
X155300000Y-58870000D03*
X163500000Y-54025000D03*
X186000000Y-53000000D03*
X166800000Y-56475000D03*
X157800000Y-64500000D03*
X184900000Y-40500000D03*
X189500000Y-56000000D03*
X158300000Y-56975000D03*
X153800000Y-56100000D03*
X189500000Y-49200000D03*
%TO.N,/SW_4*%
X158550000Y-59631757D03*
X187000000Y-66600000D03*
%TO.N,/SW_1*%
X181900000Y-47175000D03*
X165190000Y-54510000D03*
%TO.N,/SW_2*%
X176570000Y-55700000D03*
X165190000Y-55700000D03*
%TO.N,/PIXEL*%
X182238556Y-50050000D03*
X186500000Y-43475000D03*
X165770000Y-55110000D03*
%TO.N,/SW_3*%
X159925000Y-58887500D03*
X173500000Y-60300000D03*
D16*
%TO.N,5V*%
X177650000Y-48150000D03*
X177500000Y-43100000D03*
X180400000Y-43000000D03*
X153500000Y-48270000D03*
X164375000Y-48300000D03*
D14*
%TO.N,3V3*%
X160960000Y-57200000D03*
X159960000Y-54020000D03*
X159125000Y-61425000D03*
X160545000Y-59507828D03*
X153450000Y-61125000D03*
%TO.N,/MCU/CHIP_PU*%
X188300000Y-48775000D03*
X167390000Y-60875000D03*
X159500000Y-59774500D03*
%TO.N,/Power/USB_D+*%
X160700000Y-48400000D03*
X159300000Y-48400000D03*
X153000000Y-49900000D03*
%TO.N,/Power/USB_D-*%
X160000000Y-48900000D03*
X161400000Y-48900000D03*
X154000000Y-49900000D03*
%TO.N,/MCU/DISP_DC*%
X170075000Y-52375000D03*
X168554622Y-50774500D03*
%TO.N,/MCU/FLASH_CS0*%
X162000000Y-58780000D03*
X157550000Y-52875000D03*
%TO.N,/MCU/FLASH_IO0*%
X156475000Y-50340000D03*
X165805000Y-51530000D03*
%TO.N,/MCU/FLASH_IO2*%
X158720000Y-50580000D03*
X164550000Y-58775000D03*
%TO.N,/MCU/FLASH_CLK*%
X164550000Y-51525000D03*
X157225000Y-50610000D03*
%TO.N,/MCU/FLASH_IO1*%
X163275000Y-58775000D03*
X155730000Y-50610000D03*
%TO.N,/MCU/FLASH_IO3*%
X159480000Y-50521770D03*
X163275000Y-51540000D03*
%TD*%
D17*
%TO.N,/PIXEL*%
X186500000Y-43475000D02*
X187750000Y-42225000D01*
D18*
%TO.N,5V*%
X177500000Y-43100000D02*
X177500000Y-44100000D01*
X153500000Y-48270000D02*
X153505000Y-48275000D01*
X158750000Y-47275000D02*
X162150000Y-47275000D01*
X163175000Y-48300000D02*
X164375000Y-48300000D01*
X177650000Y-48150000D02*
X178350000Y-48150000D01*
X177500000Y-44100000D02*
X173300000Y-48300000D01*
X153505000Y-48275000D02*
X157750000Y-48275000D01*
X162150000Y-47275000D02*
X163175000Y-48300000D01*
X179700000Y-43700000D02*
X180400000Y-43000000D01*
X157750000Y-48275000D02*
X158750000Y-47275000D01*
X179700000Y-46800000D02*
X179700000Y-43700000D01*
X173300000Y-48300000D02*
X164375000Y-48300000D01*
X178350000Y-48150000D02*
X179700000Y-46800000D01*
D19*
%TO.N,3V3*%
X153700000Y-60875000D02*
X153700000Y-60300000D01*
X153450000Y-61125000D02*
X153700000Y-60875000D01*
X160960000Y-57200000D02*
X160960000Y-57940000D01*
X160960000Y-57940000D02*
X160545000Y-58355000D01*
X156800000Y-59575000D02*
X158650000Y-61425000D01*
X154225000Y-58725000D02*
X154750000Y-58200000D01*
X160960000Y-55020000D02*
X159960000Y-54020000D01*
X156375000Y-58200000D02*
X156800000Y-58625000D01*
X156800000Y-58625000D02*
X156800000Y-59575000D01*
X153700000Y-60300000D02*
X154225000Y-59775000D01*
X160960000Y-57200000D02*
X160960000Y-55020000D01*
X154750000Y-58200000D02*
X156375000Y-58200000D01*
X160545000Y-58355000D02*
X160545000Y-59507828D01*
X158650000Y-61425000D02*
X159125000Y-61425000D01*
X154225000Y-59775000D02*
X154225000Y-58725000D01*
D17*
%TO.N,/MCU/CHIP_PU*%
X187750000Y-48550000D02*
X187750000Y-47524999D01*
X188300000Y-48775000D02*
X187975000Y-48775000D01*
X187975000Y-48775000D02*
X187750000Y-48550000D01*
%TD*%
%TA.AperFunction,Conductor*%
%TO.N,GND*%
G36*
X155701621Y-40020502D02*
G01*
X155748114Y-40074158D01*
X155759500Y-40126500D01*
X155759500Y-40951947D01*
X155739498Y-41020068D01*
X155685842Y-41066561D01*
X155615568Y-41076665D01*
X155550988Y-41047171D01*
X155524381Y-41014948D01*
X155495785Y-40965419D01*
X155495784Y-40965418D01*
X155368561Y-40824122D01*
X155214741Y-40712365D01*
X155041045Y-40635031D01*
X154855067Y-40595500D01*
X154664933Y-40595500D01*
X154478954Y-40635031D01*
X154305258Y-40712365D01*
X154151438Y-40824122D01*
X154024215Y-40965418D01*
X154024215Y-40965419D01*
X153929148Y-41130077D01*
X153870391Y-41310908D01*
X153855500Y-41452593D01*
X153855500Y-42747406D01*
X153870391Y-42889091D01*
X153887887Y-42942936D01*
X153929147Y-43069920D01*
X154024214Y-43234580D01*
X154151438Y-43375877D01*
X154305259Y-43487635D01*
X154478955Y-43564969D01*
X154664933Y-43604500D01*
X154855067Y-43604500D01*
X155041045Y-43564969D01*
X155214741Y-43487635D01*
X155368562Y-43375877D01*
X155495786Y-43234580D01*
X155524381Y-43185051D01*
X155575764Y-43136059D01*
X155645477Y-43122623D01*
X155711388Y-43149009D01*
X155752570Y-43206842D01*
X155759500Y-43248052D01*
X155759500Y-45117306D01*
X155739498Y-45185427D01*
X155685842Y-45231920D01*
X155615568Y-45242024D01*
X155550988Y-45212530D01*
X155524382Y-45180309D01*
X155515786Y-45165420D01*
X155388562Y-45024123D01*
X155234741Y-44912365D01*
X155061045Y-44835031D01*
X154875067Y-44795500D01*
X154684933Y-44795500D01*
X154498954Y-44835031D01*
X154325258Y-44912365D01*
X154171438Y-45024122D01*
X154044215Y-45165418D01*
X154044214Y-45165420D01*
X154032663Y-45185427D01*
X153949148Y-45330077D01*
X153890391Y-45510908D01*
X153875500Y-45652593D01*
X153875500Y-46547406D01*
X153890391Y-46689091D01*
X153916843Y-46770500D01*
X153949147Y-46869920D01*
X154044214Y-47034580D01*
X154171438Y-47175877D01*
X154325259Y-47287635D01*
X154498955Y-47364969D01*
X154684933Y-47404500D01*
X154875067Y-47404500D01*
X155061045Y-47364969D01*
X155234741Y-47287635D01*
X155388562Y-47175877D01*
X155515786Y-47034580D01*
X155610853Y-46869920D01*
X155653848Y-46737594D01*
X155693922Y-46678989D01*
X155737176Y-46660709D01*
X155736924Y-46660098D01*
X155736982Y-46660074D01*
X155740186Y-46659437D01*
X155759318Y-46651352D01*
X155773604Y-46650531D01*
X155785023Y-46650524D01*
X155785023Y-46650526D01*
X155785158Y-46650500D01*
X158362499Y-46650500D01*
X158430620Y-46670502D01*
X158477113Y-46724158D01*
X158487217Y-46794432D01*
X158457723Y-46859012D01*
X158445005Y-46871730D01*
X158434941Y-46880449D01*
X158431446Y-46883266D01*
X158418784Y-46892745D01*
X158418774Y-46892753D01*
X158407593Y-46903935D01*
X158404302Y-46906998D01*
X158364805Y-46941223D01*
X158364804Y-46941225D01*
X158362233Y-46945225D01*
X158345336Y-46966191D01*
X157577934Y-47733595D01*
X157515621Y-47767620D01*
X157488838Y-47770500D01*
X153976995Y-47770500D01*
X153908874Y-47750498D01*
X153893441Y-47738812D01*
X153876817Y-47724084D01*
X153876813Y-47724082D01*
X153735220Y-47649769D01*
X153579957Y-47611500D01*
X153579956Y-47611500D01*
X153420044Y-47611500D01*
X153420042Y-47611500D01*
X153264779Y-47649769D01*
X153123186Y-47724082D01*
X153123182Y-47724084D01*
X153003484Y-47830128D01*
X152912647Y-47961728D01*
X152912644Y-47961734D01*
X152855938Y-48111253D01*
X152855937Y-48111257D01*
X152836664Y-48269997D01*
X152836664Y-48270002D01*
X152855937Y-48428742D01*
X152855938Y-48428746D01*
X152912644Y-48578265D01*
X152912647Y-48578271D01*
X153003484Y-48709871D01*
X153003485Y-48709872D01*
X153003486Y-48709873D01*
X153123182Y-48815915D01*
X153264778Y-48890230D01*
X153420044Y-48928500D01*
X153420045Y-48928500D01*
X153579955Y-48928500D01*
X153579956Y-48928500D01*
X153735222Y-48890230D01*
X153876818Y-48815915D01*
X153882153Y-48811188D01*
X153946404Y-48780987D01*
X153965707Y-48779500D01*
X157682216Y-48779500D01*
X157708996Y-48782378D01*
X157713640Y-48783389D01*
X157748103Y-48780924D01*
X157765772Y-48779661D01*
X157770268Y-48779500D01*
X157786082Y-48779500D01*
X157786083Y-48779500D01*
X157801741Y-48777248D01*
X157806204Y-48776769D01*
X157831361Y-48774969D01*
X157858342Y-48773040D01*
X157862786Y-48771382D01*
X157888898Y-48764717D01*
X157893596Y-48764042D01*
X157941149Y-48742324D01*
X157945284Y-48740612D01*
X157994267Y-48722343D01*
X157998061Y-48719502D01*
X158021236Y-48705750D01*
X158025558Y-48703777D01*
X158065069Y-48669538D01*
X158068543Y-48666739D01*
X158081221Y-48657250D01*
X158092409Y-48646060D01*
X158095686Y-48643009D01*
X158135196Y-48608775D01*
X158137762Y-48604781D01*
X158154663Y-48583806D01*
X158539235Y-48199235D01*
X158601546Y-48165211D01*
X158672362Y-48170276D01*
X158729197Y-48212823D01*
X158754008Y-48279343D01*
X158753251Y-48304778D01*
X158740715Y-48399999D01*
X158740715Y-48400000D01*
X158759771Y-48544752D01*
X158815644Y-48679641D01*
X158815649Y-48679649D01*
X158904525Y-48795474D01*
X159020350Y-48884350D01*
X159020357Y-48884355D01*
X159155246Y-48940228D01*
X159300000Y-48959285D01*
X159322653Y-48956302D01*
X159392799Y-48967240D01*
X159445899Y-49014367D01*
X159455929Y-49037406D01*
X159456612Y-49037124D01*
X159459771Y-49044752D01*
X159459772Y-49044754D01*
X159499551Y-49140788D01*
X159515644Y-49179641D01*
X159515649Y-49179649D01*
X159604525Y-49295474D01*
X159720350Y-49384350D01*
X159720357Y-49384355D01*
X159855246Y-49440228D01*
X160000000Y-49459285D01*
X160144754Y-49440228D01*
X160279643Y-49384355D01*
X160395474Y-49295474D01*
X160484355Y-49179643D01*
X160540228Y-49044754D01*
X160540228Y-49044752D01*
X160543388Y-49037124D01*
X160545631Y-49038053D01*
X160576136Y-48987998D01*
X160639994Y-48956971D01*
X160677342Y-48956302D01*
X160700000Y-48959285D01*
X160722653Y-48956302D01*
X160792799Y-48967240D01*
X160845899Y-49014367D01*
X160855929Y-49037406D01*
X160856612Y-49037124D01*
X160859771Y-49044752D01*
X160859772Y-49044754D01*
X160899551Y-49140788D01*
X160915644Y-49179641D01*
X160915649Y-49179649D01*
X161004525Y-49295474D01*
X161120350Y-49384350D01*
X161120357Y-49384355D01*
X161255246Y-49440228D01*
X161327623Y-49449756D01*
X161399999Y-49459285D01*
X161399999Y-49459284D01*
X161400000Y-49459285D01*
X161544754Y-49440228D01*
X161679643Y-49384355D01*
X161795474Y-49295474D01*
X161884355Y-49179643D01*
X161940228Y-49044754D01*
X161959285Y-48900000D01*
X161940228Y-48755246D01*
X161884355Y-48620358D01*
X161795474Y-48504526D01*
X161795472Y-48504524D01*
X161795471Y-48504523D01*
X161679649Y-48415649D01*
X161679641Y-48415644D01*
X161544752Y-48359771D01*
X161400000Y-48340715D01*
X161399998Y-48340715D01*
X161377345Y-48343697D01*
X161307196Y-48332757D01*
X161254098Y-48285628D01*
X161244072Y-48262593D01*
X161243388Y-48262877D01*
X161240228Y-48255249D01*
X161240228Y-48255246D01*
X161184355Y-48120358D01*
X161095474Y-48004526D01*
X161095472Y-48004524D01*
X161095468Y-48004519D01*
X161089635Y-47998686D01*
X161090855Y-47997465D01*
X161054826Y-47948119D01*
X161050607Y-47877248D01*
X161085374Y-47815347D01*
X161148088Y-47782068D01*
X161173399Y-47779500D01*
X161888839Y-47779500D01*
X161956960Y-47799502D01*
X161977934Y-47816405D01*
X162770332Y-48608803D01*
X162787232Y-48629773D01*
X162787354Y-48629963D01*
X162789804Y-48633775D01*
X162827828Y-48666723D01*
X162829302Y-48668000D01*
X162832582Y-48671053D01*
X162843779Y-48682250D01*
X162856450Y-48691735D01*
X162859926Y-48694536D01*
X162899442Y-48728777D01*
X162903761Y-48730749D01*
X162926925Y-48744492D01*
X162930733Y-48747343D01*
X162951922Y-48755246D01*
X162979703Y-48765608D01*
X162983860Y-48767330D01*
X163025597Y-48786390D01*
X163031404Y-48789042D01*
X163036101Y-48789717D01*
X163062209Y-48796380D01*
X163066658Y-48798040D01*
X163118815Y-48801770D01*
X163123238Y-48802245D01*
X163138917Y-48804500D01*
X163154732Y-48804500D01*
X163159228Y-48804661D01*
X163177775Y-48805987D01*
X163211360Y-48808389D01*
X163216003Y-48807378D01*
X163242784Y-48804500D01*
X163903649Y-48804500D01*
X163971770Y-48824502D01*
X163987204Y-48836189D01*
X163998183Y-48845916D01*
X164065463Y-48881227D01*
X164139778Y-48920230D01*
X164295044Y-48958500D01*
X164295045Y-48958500D01*
X164454955Y-48958500D01*
X164454956Y-48958500D01*
X164610222Y-48920230D01*
X164751818Y-48845915D01*
X164762796Y-48836188D01*
X164827049Y-48805987D01*
X164846351Y-48804500D01*
X173232216Y-48804500D01*
X173258996Y-48807378D01*
X173263640Y-48808389D01*
X173298103Y-48805924D01*
X173315772Y-48804661D01*
X173320268Y-48804500D01*
X173336082Y-48804500D01*
X173336083Y-48804500D01*
X173351741Y-48802248D01*
X173356204Y-48801769D01*
X173381361Y-48799969D01*
X173408342Y-48798040D01*
X173412786Y-48796382D01*
X173438898Y-48789717D01*
X173443596Y-48789042D01*
X173491149Y-48767324D01*
X173495284Y-48765612D01*
X173544267Y-48747343D01*
X173548061Y-48744502D01*
X173571236Y-48730750D01*
X173575558Y-48728777D01*
X173615069Y-48694538D01*
X173618543Y-48691739D01*
X173631221Y-48682250D01*
X173642409Y-48671060D01*
X173645697Y-48668000D01*
X173685196Y-48633775D01*
X173687764Y-48629778D01*
X173704667Y-48608803D01*
X174163468Y-48150002D01*
X176986664Y-48150002D01*
X177005937Y-48308742D01*
X177005938Y-48308746D01*
X177062644Y-48458265D01*
X177062647Y-48458271D01*
X177153484Y-48589871D01*
X177153485Y-48589872D01*
X177153486Y-48589873D01*
X177273182Y-48695915D01*
X177414778Y-48770230D01*
X177570044Y-48808500D01*
X177570045Y-48808500D01*
X177729955Y-48808500D01*
X177729956Y-48808500D01*
X177885222Y-48770230D01*
X178026818Y-48695915D01*
X178037796Y-48686188D01*
X178102049Y-48655987D01*
X178121351Y-48654500D01*
X178282216Y-48654500D01*
X178308996Y-48657378D01*
X178313640Y-48658389D01*
X178348103Y-48655924D01*
X178365772Y-48654661D01*
X178370268Y-48654500D01*
X178386082Y-48654500D01*
X178386083Y-48654500D01*
X178401741Y-48652248D01*
X178406204Y-48651769D01*
X178431361Y-48649969D01*
X178458342Y-48648040D01*
X178462786Y-48646382D01*
X178488898Y-48639717D01*
X178493596Y-48639042D01*
X178541149Y-48617324D01*
X178545284Y-48615612D01*
X178594267Y-48597343D01*
X178598061Y-48594502D01*
X178621236Y-48580750D01*
X178625558Y-48578777D01*
X178665069Y-48544538D01*
X178668543Y-48541739D01*
X178681221Y-48532250D01*
X178692409Y-48521060D01*
X178695686Y-48518009D01*
X178735196Y-48483775D01*
X178737764Y-48479778D01*
X178754665Y-48458804D01*
X178913407Y-48300062D01*
X186745500Y-48300062D01*
X186745501Y-48300072D01*
X186760265Y-48374299D01*
X186816516Y-48458483D01*
X186900697Y-48514732D01*
X186900699Y-48514733D01*
X186974933Y-48529499D01*
X187306074Y-48529498D01*
X187374194Y-48549500D01*
X187420687Y-48603155D01*
X187430159Y-48633615D01*
X187435593Y-48664431D01*
X187437498Y-48669664D01*
X187444416Y-48686367D01*
X187446762Y-48691397D01*
X187470258Y-48724952D01*
X187473212Y-48729589D01*
X187493695Y-48765066D01*
X187523069Y-48789714D01*
X187525073Y-48791395D01*
X187529116Y-48795099D01*
X187729894Y-48995877D01*
X187733599Y-48999920D01*
X187759933Y-49031304D01*
X187759935Y-49031306D01*
X187770013Y-49037124D01*
X187795411Y-49051787D01*
X187800033Y-49054732D01*
X187818034Y-49067336D01*
X187845724Y-49093843D01*
X187904527Y-49170475D01*
X187916472Y-49179641D01*
X188020357Y-49259355D01*
X188155246Y-49315228D01*
X188227623Y-49324756D01*
X188299999Y-49334285D01*
X188299999Y-49334284D01*
X188300000Y-49334285D01*
X188444754Y-49315228D01*
X188579643Y-49259355D01*
X188695474Y-49170474D01*
X188784355Y-49054643D01*
X188840228Y-48919754D01*
X188859285Y-48775000D01*
X188856684Y-48755247D01*
X188848322Y-48691724D01*
X188840228Y-48630246D01*
X188784355Y-48495358D01*
X188764550Y-48469548D01*
X188738950Y-48403330D01*
X188740933Y-48368269D01*
X188754500Y-48300066D01*
X188754499Y-46749933D01*
X188754498Y-46749929D01*
X188754498Y-46749925D01*
X188739734Y-46675698D01*
X188730041Y-46661192D01*
X188683484Y-46591515D01*
X188682757Y-46591029D01*
X188599302Y-46535265D01*
X188525067Y-46520499D01*
X186974936Y-46520499D01*
X186974926Y-46520500D01*
X186900699Y-46535264D01*
X186816515Y-46591515D01*
X186760266Y-46675696D01*
X186745500Y-46749929D01*
X186745500Y-48300062D01*
X178913407Y-48300062D01*
X180008804Y-47204665D01*
X180029780Y-47187763D01*
X180033775Y-47185196D01*
X180042609Y-47175000D01*
X181340715Y-47175000D01*
X181359771Y-47319752D01*
X181415644Y-47454641D01*
X181415649Y-47454649D01*
X181504525Y-47570474D01*
X181620350Y-47659350D01*
X181620357Y-47659355D01*
X181755246Y-47715228D01*
X181822500Y-47724082D01*
X181899999Y-47734285D01*
X181899999Y-47734284D01*
X181900000Y-47734285D01*
X182044754Y-47715228D01*
X182179643Y-47659355D01*
X182295474Y-47570474D01*
X182384355Y-47454643D01*
X182440228Y-47319754D01*
X182459285Y-47175000D01*
X182453521Y-47131221D01*
X182440799Y-47034581D01*
X182440228Y-47030246D01*
X182384355Y-46895358D01*
X182295474Y-46779526D01*
X182295472Y-46779524D01*
X182295471Y-46779523D01*
X182179649Y-46690649D01*
X182179641Y-46690644D01*
X182044752Y-46634771D01*
X181900000Y-46615715D01*
X181755247Y-46634771D01*
X181700364Y-46657505D01*
X181620358Y-46690645D01*
X181620357Y-46690646D01*
X181620356Y-46690646D01*
X181504526Y-46779526D01*
X181415646Y-46895356D01*
X181415645Y-46895358D01*
X181396647Y-46941223D01*
X181359771Y-47030247D01*
X181340715Y-47174999D01*
X181340715Y-47175000D01*
X180042609Y-47175000D01*
X180068009Y-47145686D01*
X180071062Y-47142408D01*
X180082250Y-47131221D01*
X180091742Y-47118540D01*
X180094524Y-47115087D01*
X180128777Y-47075558D01*
X180130750Y-47071236D01*
X180144497Y-47048066D01*
X180147342Y-47044267D01*
X180165611Y-46995281D01*
X180167311Y-46991176D01*
X180189042Y-46943596D01*
X180189717Y-46938896D01*
X180196384Y-46912780D01*
X180198040Y-46908341D01*
X180198137Y-46906992D01*
X180200036Y-46880437D01*
X180201769Y-46856204D01*
X180202248Y-46851741D01*
X180204500Y-46836083D01*
X180204500Y-46820266D01*
X180204661Y-46815771D01*
X180208389Y-46763640D01*
X180208388Y-46763635D01*
X180207379Y-46758994D01*
X180204500Y-46732215D01*
X180204500Y-43961160D01*
X180224502Y-43893039D01*
X180241400Y-43872070D01*
X180421961Y-43691509D01*
X180480898Y-43658267D01*
X180635222Y-43620230D01*
X180776818Y-43545915D01*
X180856864Y-43475000D01*
X185940715Y-43475000D01*
X185959771Y-43619752D01*
X186015644Y-43754641D01*
X186015649Y-43754649D01*
X186104525Y-43870474D01*
X186179407Y-43927933D01*
X186220357Y-43959355D01*
X186355246Y-44015228D01*
X186427623Y-44024756D01*
X186499999Y-44034285D01*
X186499999Y-44034284D01*
X186500000Y-44034285D01*
X186644754Y-44015228D01*
X186779643Y-43959355D01*
X186895474Y-43870474D01*
X186984355Y-43754643D01*
X187040228Y-43619754D01*
X187059285Y-43475000D01*
X187056540Y-43454155D01*
X187067478Y-43384010D01*
X187092362Y-43348619D01*
X187174580Y-43266401D01*
X187236891Y-43232378D01*
X187263673Y-43229499D01*
X188525064Y-43229499D01*
X188525066Y-43229499D01*
X188525069Y-43229498D01*
X188525072Y-43229498D01*
X188561663Y-43222219D01*
X188599301Y-43214734D01*
X188683484Y-43158484D01*
X188739734Y-43074301D01*
X188754500Y-43000067D01*
X188754499Y-41449934D01*
X188754498Y-41449930D01*
X188754498Y-41449926D01*
X188739734Y-41375699D01*
X188683483Y-41291515D01*
X188599302Y-41235266D01*
X188525067Y-41220500D01*
X186974936Y-41220500D01*
X186974926Y-41220501D01*
X186900699Y-41235265D01*
X186816515Y-41291516D01*
X186760266Y-41375697D01*
X186745500Y-41449930D01*
X186745500Y-42711326D01*
X186725498Y-42779447D01*
X186708599Y-42800416D01*
X186626383Y-42882632D01*
X186626384Y-42882632D01*
X186564071Y-42916657D01*
X186520847Y-42918459D01*
X186504558Y-42916315D01*
X186500000Y-42915715D01*
X186499999Y-42915715D01*
X186355247Y-42934771D01*
X186287802Y-42962708D01*
X186220358Y-42990645D01*
X186220357Y-42990646D01*
X186220356Y-42990646D01*
X186104526Y-43079526D01*
X186015646Y-43195356D01*
X186015645Y-43195358D01*
X186001504Y-43229498D01*
X185959771Y-43330247D01*
X185940715Y-43474999D01*
X185940715Y-43475000D01*
X180856864Y-43475000D01*
X180896514Y-43439873D01*
X180987355Y-43308268D01*
X181044061Y-43158747D01*
X181045244Y-43149009D01*
X181063336Y-43000002D01*
X181063336Y-42999997D01*
X181044062Y-42841257D01*
X181044061Y-42841253D01*
X181025280Y-42791732D01*
X180987355Y-42691732D01*
X180896514Y-42560127D01*
X180776818Y-42454085D01*
X180776817Y-42454084D01*
X180776813Y-42454082D01*
X180635220Y-42379769D01*
X180479957Y-42341500D01*
X180479956Y-42341500D01*
X180320044Y-42341500D01*
X180320042Y-42341500D01*
X180164779Y-42379769D01*
X180023186Y-42454082D01*
X180023182Y-42454084D01*
X179903484Y-42560128D01*
X179812647Y-42691728D01*
X179812644Y-42691734D01*
X179755938Y-42841255D01*
X179748832Y-42899775D01*
X179720764Y-42964988D01*
X179712846Y-42973681D01*
X179391194Y-43295333D01*
X179370228Y-43312231D01*
X179366225Y-43314803D01*
X179366223Y-43314805D01*
X179331998Y-43354302D01*
X179328935Y-43357593D01*
X179317753Y-43368774D01*
X179317746Y-43368783D01*
X179308265Y-43381448D01*
X179305446Y-43384946D01*
X179271222Y-43424441D01*
X179269244Y-43428774D01*
X179255515Y-43451913D01*
X179252657Y-43455730D01*
X179252657Y-43455732D01*
X179234387Y-43504713D01*
X179232666Y-43508867D01*
X179210958Y-43556400D01*
X179210957Y-43556404D01*
X179210281Y-43561110D01*
X179203624Y-43587195D01*
X179201960Y-43591657D01*
X179198230Y-43643789D01*
X179197750Y-43648250D01*
X179195501Y-43663908D01*
X179195500Y-43663923D01*
X179195500Y-43679732D01*
X179195339Y-43684228D01*
X179191611Y-43736357D01*
X179191611Y-43736360D01*
X179192620Y-43741001D01*
X179195500Y-43767782D01*
X179195500Y-46538838D01*
X179175498Y-46606959D01*
X179158595Y-46627933D01*
X178193142Y-47593386D01*
X178130830Y-47627412D01*
X178060015Y-47622347D01*
X178032466Y-47607984D01*
X178026820Y-47604087D01*
X178026818Y-47604085D01*
X178026815Y-47604083D01*
X178026813Y-47604082D01*
X177885220Y-47529769D01*
X177729957Y-47491500D01*
X177729956Y-47491500D01*
X177570044Y-47491500D01*
X177570042Y-47491500D01*
X177414779Y-47529769D01*
X177273186Y-47604082D01*
X177273182Y-47604084D01*
X177153484Y-47710128D01*
X177062647Y-47841728D01*
X177062644Y-47841734D01*
X177005938Y-47991253D01*
X177005937Y-47991257D01*
X176986664Y-48149997D01*
X176986664Y-48150002D01*
X174163468Y-48150002D01*
X177808804Y-44504665D01*
X177829780Y-44487763D01*
X177833775Y-44485196D01*
X177868009Y-44445686D01*
X177871062Y-44442408D01*
X177882250Y-44431221D01*
X177891739Y-44418543D01*
X177894538Y-44415069D01*
X177928777Y-44375558D01*
X177930750Y-44371236D01*
X177944502Y-44348062D01*
X177947343Y-44344267D01*
X177965608Y-44295294D01*
X177967324Y-44291149D01*
X177989042Y-44243596D01*
X177989717Y-44238898D01*
X177996382Y-44212786D01*
X177998040Y-44208342D01*
X178001769Y-44156204D01*
X178002248Y-44151741D01*
X178004500Y-44136083D01*
X178004500Y-44120266D01*
X178004661Y-44115771D01*
X178008389Y-44063640D01*
X178008388Y-44063635D01*
X178007379Y-44058994D01*
X178004500Y-44032215D01*
X178004500Y-43567567D01*
X178024502Y-43499446D01*
X178026804Y-43495991D01*
X178054592Y-43455733D01*
X178087355Y-43408268D01*
X178144061Y-43258747D01*
X178146996Y-43234581D01*
X178163336Y-43100002D01*
X178163336Y-43099997D01*
X178144062Y-42941257D01*
X178144061Y-42941253D01*
X178124279Y-42889092D01*
X178087355Y-42791732D01*
X177996514Y-42660127D01*
X177876818Y-42554085D01*
X177876817Y-42554084D01*
X177876813Y-42554082D01*
X177735220Y-42479769D01*
X177579957Y-42441500D01*
X177579956Y-42441500D01*
X177420044Y-42441500D01*
X177420042Y-42441500D01*
X177264779Y-42479769D01*
X177123186Y-42554082D01*
X177123182Y-42554084D01*
X177003484Y-42660128D01*
X176912647Y-42791728D01*
X176912644Y-42791734D01*
X176855938Y-42941253D01*
X176855937Y-42941257D01*
X176836664Y-43099997D01*
X176836664Y-43100002D01*
X176855937Y-43258742D01*
X176855938Y-43258746D01*
X176912644Y-43408265D01*
X176912647Y-43408271D01*
X176973196Y-43495991D01*
X176995432Y-43563416D01*
X176995500Y-43567567D01*
X176995500Y-43838838D01*
X176975498Y-43906959D01*
X176958595Y-43927933D01*
X173127934Y-47758595D01*
X173065622Y-47792621D01*
X173038839Y-47795500D01*
X164846351Y-47795500D01*
X164778230Y-47775498D01*
X164762796Y-47763811D01*
X164751816Y-47754083D01*
X164610220Y-47679769D01*
X164454957Y-47641500D01*
X164454956Y-47641500D01*
X164295044Y-47641500D01*
X164295042Y-47641500D01*
X164139779Y-47679769D01*
X163998183Y-47754083D01*
X163987204Y-47763811D01*
X163922951Y-47794013D01*
X163903649Y-47795500D01*
X163436161Y-47795500D01*
X163368040Y-47775498D01*
X163347066Y-47758595D01*
X162554668Y-46966197D01*
X162537768Y-46945228D01*
X162535196Y-46941225D01*
X162532515Y-46938902D01*
X162495690Y-46906992D01*
X162492398Y-46903927D01*
X162481226Y-46892755D01*
X162481224Y-46892752D01*
X162468547Y-46883262D01*
X162465057Y-46880449D01*
X162454982Y-46871719D01*
X162416602Y-46811992D01*
X162416606Y-46740995D01*
X162454992Y-46681271D01*
X162519575Y-46651782D01*
X162537500Y-46650500D01*
X164974842Y-46650500D01*
X164974976Y-46650526D01*
X164974977Y-46650524D01*
X164986395Y-46650531D01*
X165010095Y-46657505D01*
X165023018Y-46660074D01*
X165023076Y-46660098D01*
X165022623Y-46661192D01*
X165054504Y-46670575D01*
X165100964Y-46724259D01*
X165106151Y-46737594D01*
X165116843Y-46770500D01*
X165149147Y-46869920D01*
X165244214Y-47034580D01*
X165371438Y-47175877D01*
X165525259Y-47287635D01*
X165698955Y-47364969D01*
X165884933Y-47404500D01*
X166075067Y-47404500D01*
X166261045Y-47364969D01*
X166434741Y-47287635D01*
X166588562Y-47175877D01*
X166715786Y-47034580D01*
X166810853Y-46869920D01*
X166869608Y-46689092D01*
X166884500Y-46547401D01*
X166884500Y-45652599D01*
X166869608Y-45510908D01*
X166810853Y-45330080D01*
X166715786Y-45165420D01*
X166588562Y-45024123D01*
X166434741Y-44912365D01*
X166261045Y-44835031D01*
X166075067Y-44795500D01*
X165884933Y-44795500D01*
X165698954Y-44835031D01*
X165525258Y-44912365D01*
X165371438Y-45024122D01*
X165244215Y-45165418D01*
X165244212Y-45165422D01*
X165235617Y-45180310D01*
X165184233Y-45229302D01*
X165114519Y-45242737D01*
X165048609Y-45216349D01*
X165007428Y-45158516D01*
X165000499Y-45117308D01*
X165000499Y-43330246D01*
X165000499Y-43248049D01*
X165020501Y-43179930D01*
X165074157Y-43133437D01*
X165144431Y-43123333D01*
X165209011Y-43152827D01*
X165235616Y-43185048D01*
X165264214Y-43234580D01*
X165391438Y-43375877D01*
X165545259Y-43487635D01*
X165718955Y-43564969D01*
X165904933Y-43604500D01*
X166095067Y-43604500D01*
X166281045Y-43564969D01*
X166454741Y-43487635D01*
X166608562Y-43375877D01*
X166735786Y-43234580D01*
X166830853Y-43069920D01*
X166889608Y-42889092D01*
X166904500Y-42747401D01*
X166904500Y-41452599D01*
X166889608Y-41310908D01*
X166830853Y-41130080D01*
X166735786Y-40965420D01*
X166608562Y-40824123D01*
X166454741Y-40712365D01*
X166281045Y-40635031D01*
X166095067Y-40595500D01*
X165904933Y-40595500D01*
X165718954Y-40635031D01*
X165545258Y-40712365D01*
X165391438Y-40824122D01*
X165264215Y-40965418D01*
X165264215Y-40965419D01*
X165235617Y-41014950D01*
X165184233Y-41063942D01*
X165114519Y-41077376D01*
X165048609Y-41050988D01*
X165007428Y-40993155D01*
X165000499Y-40951952D01*
X165000499Y-40126500D01*
X165020502Y-40058379D01*
X165074158Y-40011886D01*
X165126500Y-40000500D01*
X189873500Y-40000500D01*
X189941621Y-40020502D01*
X189988114Y-40074158D01*
X189999500Y-40126500D01*
X189999500Y-64674000D01*
X189979498Y-64742121D01*
X189925842Y-64788614D01*
X189873500Y-64800000D01*
X150126500Y-64800000D01*
X150058379Y-64779998D01*
X150011886Y-64726342D01*
X150000500Y-64674000D01*
X150000500Y-61125000D01*
X152890715Y-61125000D01*
X152909771Y-61269752D01*
X152965644Y-61404641D01*
X152965649Y-61404649D01*
X153054525Y-61520474D01*
X153118748Y-61569754D01*
X153170357Y-61609355D01*
X153305246Y-61665228D01*
X153450000Y-61684285D01*
X153594754Y-61665228D01*
X153729643Y-61609355D01*
X153845474Y-61520474D01*
X153934355Y-61404643D01*
X153990228Y-61269754D01*
X154008976Y-61127339D01*
X154034469Y-61066392D01*
X154040158Y-61059085D01*
X154040159Y-61059079D01*
X154040161Y-61059078D01*
X154043954Y-61052069D01*
X154047471Y-61044874D01*
X154047475Y-61044870D01*
X154060383Y-61001512D01*
X154063391Y-60991410D01*
X154081499Y-60938664D01*
X154082819Y-60930749D01*
X154083805Y-60922843D01*
X154081500Y-60867116D01*
X154081500Y-60510212D01*
X154101502Y-60442091D01*
X154118399Y-60421122D01*
X154457549Y-60081972D01*
X154477721Y-60065593D01*
X154486956Y-60059560D01*
X154509111Y-60031093D01*
X154514277Y-60025244D01*
X154517114Y-60022409D01*
X154530900Y-60003099D01*
X154565158Y-59959085D01*
X154565160Y-59959076D01*
X154568957Y-59952064D01*
X154572471Y-59944874D01*
X154572475Y-59944870D01*
X154580619Y-59917514D01*
X154588391Y-59891410D01*
X154606499Y-59838664D01*
X154607819Y-59830749D01*
X154608805Y-59822843D01*
X154606500Y-59767116D01*
X154606500Y-58935213D01*
X154626502Y-58867092D01*
X154643405Y-58846117D01*
X154871119Y-58618404D01*
X154933431Y-58584379D01*
X154960214Y-58581500D01*
X156164788Y-58581500D01*
X156232909Y-58601502D01*
X156253877Y-58618399D01*
X156381597Y-58746119D01*
X156415620Y-58808427D01*
X156418500Y-58835211D01*
X156418500Y-59522366D01*
X156415818Y-59548223D01*
X156413554Y-59559016D01*
X156416110Y-59579518D01*
X156418016Y-59594809D01*
X156418500Y-59602600D01*
X156418500Y-59606615D01*
X156418499Y-59606615D01*
X156422047Y-59627875D01*
X156422403Y-59630004D01*
X156422622Y-59631757D01*
X156429303Y-59685357D01*
X156431588Y-59693032D01*
X156434180Y-59700582D01*
X156434181Y-59700585D01*
X156434182Y-59700586D01*
X156460729Y-59749641D01*
X156465682Y-59759772D01*
X156485225Y-59799748D01*
X156489868Y-59806251D01*
X156494782Y-59812565D01*
X156535819Y-59850341D01*
X158343019Y-61657542D01*
X158359405Y-61677718D01*
X158365440Y-61686956D01*
X158365441Y-61686957D01*
X158365443Y-61686959D01*
X158393894Y-61709103D01*
X158399753Y-61714276D01*
X158402591Y-61717114D01*
X158408379Y-61721246D01*
X158421900Y-61730901D01*
X158465912Y-61765156D01*
X158465915Y-61765158D01*
X158465916Y-61765158D01*
X158472941Y-61768960D01*
X158480134Y-61772477D01*
X158533586Y-61788389D01*
X158586334Y-61806499D01*
X158586338Y-61806499D01*
X158586339Y-61806500D01*
X158586340Y-61806500D01*
X158594247Y-61807819D01*
X158602157Y-61808805D01*
X158602158Y-61808804D01*
X158602159Y-61808805D01*
X158657884Y-61806500D01*
X158668543Y-61806500D01*
X158736664Y-61826502D01*
X158745247Y-61832538D01*
X158845350Y-61909350D01*
X158845357Y-61909355D01*
X158980246Y-61965228D01*
X159125000Y-61984285D01*
X159269754Y-61965228D01*
X159404643Y-61909355D01*
X159520474Y-61820474D01*
X159609355Y-61704643D01*
X159665228Y-61569754D01*
X159684285Y-61425000D01*
X159665228Y-61280246D01*
X159609355Y-61145358D01*
X159520474Y-61029526D01*
X159520472Y-61029524D01*
X159520471Y-61029523D01*
X159404649Y-60940649D01*
X159404641Y-60940644D01*
X159269752Y-60884771D01*
X159195530Y-60875000D01*
X166830715Y-60875000D01*
X166849771Y-61019752D01*
X166905644Y-61154641D01*
X166905649Y-61154649D01*
X166994525Y-61270474D01*
X167110350Y-61359350D01*
X167110357Y-61359355D01*
X167245246Y-61415228D01*
X167390000Y-61434285D01*
X167534754Y-61415228D01*
X167669643Y-61359355D01*
X167785474Y-61270474D01*
X167874355Y-61154643D01*
X167930228Y-61019754D01*
X167949285Y-60875000D01*
X167945382Y-60845357D01*
X167939756Y-60802622D01*
X167930228Y-60730246D01*
X167874355Y-60595358D01*
X167785474Y-60479526D01*
X167785472Y-60479524D01*
X167785471Y-60479523D01*
X167669649Y-60390649D01*
X167669641Y-60390644D01*
X167534752Y-60334771D01*
X167390000Y-60315715D01*
X167245247Y-60334771D01*
X167177801Y-60362708D01*
X167110358Y-60390645D01*
X167110357Y-60390646D01*
X167110356Y-60390646D01*
X166994526Y-60479526D01*
X166905646Y-60595356D01*
X166905645Y-60595358D01*
X166886886Y-60640646D01*
X166849771Y-60730247D01*
X166830715Y-60874999D01*
X166830715Y-60875000D01*
X159195530Y-60875000D01*
X159125000Y-60865715D01*
X158980247Y-60884771D01*
X158845353Y-60940647D01*
X158840207Y-60943619D01*
X158771212Y-60960355D01*
X158704120Y-60937133D01*
X158688115Y-60923593D01*
X157955564Y-60191042D01*
X157396280Y-59631757D01*
X157990715Y-59631757D01*
X158009771Y-59776509D01*
X158065644Y-59911398D01*
X158065649Y-59911406D01*
X158154525Y-60027231D01*
X158270350Y-60116107D01*
X158270357Y-60116112D01*
X158405246Y-60171985D01*
X158550000Y-60191042D01*
X158694754Y-60171985D01*
X158829643Y-60116112D01*
X158876680Y-60080018D01*
X158942899Y-60054418D01*
X159012448Y-60068682D01*
X159053346Y-60103276D01*
X159073952Y-60130130D01*
X159093225Y-60155247D01*
X159104527Y-60169975D01*
X159211630Y-60252159D01*
X159220357Y-60258855D01*
X159355246Y-60314728D01*
X159500000Y-60333785D01*
X159644754Y-60314728D01*
X159680310Y-60300000D01*
X172940715Y-60300000D01*
X172959771Y-60444752D01*
X173015644Y-60579641D01*
X173015649Y-60579649D01*
X173104525Y-60695474D01*
X173220350Y-60784350D01*
X173220357Y-60784355D01*
X173355246Y-60840228D01*
X173500000Y-60859285D01*
X173644754Y-60840228D01*
X173779643Y-60784355D01*
X173895474Y-60695474D01*
X173984355Y-60579643D01*
X174040228Y-60444754D01*
X174059285Y-60300000D01*
X174040228Y-60155246D01*
X173984355Y-60020358D01*
X173895474Y-59904526D01*
X173895472Y-59904524D01*
X173895471Y-59904523D01*
X173779649Y-59815649D01*
X173779641Y-59815644D01*
X173644752Y-59759771D01*
X173500000Y-59740715D01*
X173355247Y-59759771D01*
X173301943Y-59781851D01*
X173220358Y-59815645D01*
X173220357Y-59815646D01*
X173220356Y-59815646D01*
X173104526Y-59904526D01*
X173015646Y-60020356D01*
X173015645Y-60020358D01*
X172993948Y-60072738D01*
X172959771Y-60155247D01*
X172940715Y-60299999D01*
X172940715Y-60300000D01*
X159680310Y-60300000D01*
X159779643Y-60258855D01*
X159895474Y-60169974D01*
X159984355Y-60054143D01*
X160008764Y-59995214D01*
X160053309Y-59939936D01*
X160120672Y-59917514D01*
X160189464Y-59935072D01*
X160201873Y-59943469D01*
X160265357Y-59992183D01*
X160400246Y-60048056D01*
X160448571Y-60054418D01*
X160544999Y-60067113D01*
X160544999Y-60067112D01*
X160545000Y-60067113D01*
X160689754Y-60048056D01*
X160824643Y-59992183D01*
X160940474Y-59903302D01*
X161029355Y-59787471D01*
X161085228Y-59652582D01*
X161104285Y-59507828D01*
X161102577Y-59494858D01*
X161092324Y-59416977D01*
X161085228Y-59363074D01*
X161029355Y-59228186D01*
X160952538Y-59128076D01*
X160926937Y-59061856D01*
X160926500Y-59051372D01*
X160926500Y-58780000D01*
X161440715Y-58780000D01*
X161459771Y-58924752D01*
X161515644Y-59059641D01*
X161515649Y-59059649D01*
X161604525Y-59175474D01*
X161720350Y-59264350D01*
X161720357Y-59264355D01*
X161855246Y-59320228D01*
X162000000Y-59339285D01*
X162144754Y-59320228D01*
X162279643Y-59264355D01*
X162395474Y-59175474D01*
X162484355Y-59059643D01*
X162522128Y-58968449D01*
X162566674Y-58913172D01*
X162634037Y-58890751D01*
X162702828Y-58908309D01*
X162751207Y-58960271D01*
X162754937Y-58968438D01*
X162790645Y-59054643D01*
X162790647Y-59054646D01*
X162790649Y-59054649D01*
X162879525Y-59170474D01*
X162995350Y-59259350D01*
X162995357Y-59259355D01*
X163130246Y-59315228D01*
X163275000Y-59334285D01*
X163419754Y-59315228D01*
X163554643Y-59259355D01*
X163670474Y-59170474D01*
X163759355Y-59054643D01*
X163796092Y-58965951D01*
X163840639Y-58910672D01*
X163908003Y-58888251D01*
X163976794Y-58905809D01*
X164025172Y-58957771D01*
X164028901Y-58965936D01*
X164056371Y-59032254D01*
X164065644Y-59054641D01*
X164065649Y-59054649D01*
X164154525Y-59170474D01*
X164270350Y-59259350D01*
X164270357Y-59259355D01*
X164405246Y-59315228D01*
X164550000Y-59334285D01*
X164694754Y-59315228D01*
X164829643Y-59259355D01*
X164945474Y-59170474D01*
X165034355Y-59054643D01*
X165090228Y-58919754D01*
X165109285Y-58775000D01*
X165090228Y-58630246D01*
X165034355Y-58495358D01*
X164945474Y-58379526D01*
X164945472Y-58379524D01*
X164945471Y-58379523D01*
X164829649Y-58290649D01*
X164829641Y-58290644D01*
X164694752Y-58234771D01*
X164550000Y-58215715D01*
X164405247Y-58234771D01*
X164337801Y-58262708D01*
X164270358Y-58290645D01*
X164270357Y-58290646D01*
X164270356Y-58290646D01*
X164154526Y-58379526D01*
X164065646Y-58495356D01*
X164065642Y-58495363D01*
X164028908Y-58584047D01*
X163984360Y-58639328D01*
X163916996Y-58661748D01*
X163848205Y-58644189D01*
X163799827Y-58592227D01*
X163796092Y-58584047D01*
X163764167Y-58506975D01*
X163759355Y-58495358D01*
X163670474Y-58379526D01*
X163670472Y-58379524D01*
X163670471Y-58379523D01*
X163554649Y-58290649D01*
X163554641Y-58290644D01*
X163419752Y-58234771D01*
X163275000Y-58215715D01*
X163130247Y-58234771D01*
X163062801Y-58262708D01*
X162995358Y-58290645D01*
X162995357Y-58290646D01*
X162995356Y-58290646D01*
X162879526Y-58379526D01*
X162790646Y-58495356D01*
X162790642Y-58495363D01*
X162752872Y-58586547D01*
X162708324Y-58641828D01*
X162640960Y-58664248D01*
X162572169Y-58646689D01*
X162523791Y-58594727D01*
X162520061Y-58586560D01*
X162484355Y-58500358D01*
X162395474Y-58384526D01*
X162395472Y-58384524D01*
X162395471Y-58384523D01*
X162279649Y-58295649D01*
X162279641Y-58295644D01*
X162144752Y-58239771D01*
X162000000Y-58220715D01*
X161855247Y-58239771D01*
X161808333Y-58259204D01*
X161720358Y-58295645D01*
X161720357Y-58295646D01*
X161720356Y-58295646D01*
X161604526Y-58384526D01*
X161515646Y-58500356D01*
X161515645Y-58500358D01*
X161488781Y-58565212D01*
X161459771Y-58635247D01*
X161440715Y-58779999D01*
X161440715Y-58780000D01*
X160926500Y-58780000D01*
X160926500Y-58565212D01*
X160946502Y-58497091D01*
X160963399Y-58476122D01*
X161192549Y-58246972D01*
X161212721Y-58230593D01*
X161221956Y-58224560D01*
X161244103Y-58196103D01*
X161249271Y-58190250D01*
X161252114Y-58187409D01*
X161265898Y-58168101D01*
X161300158Y-58124085D01*
X161300159Y-58124079D01*
X161303950Y-58117076D01*
X161307471Y-58109873D01*
X161307475Y-58109869D01*
X161319213Y-58070441D01*
X161323389Y-58056416D01*
X161341498Y-58003666D01*
X161341500Y-58003661D01*
X161341500Y-58003654D01*
X161342819Y-57995755D01*
X161343805Y-57987841D01*
X161341500Y-57932106D01*
X161341500Y-57797906D01*
X161341500Y-57656452D01*
X161361501Y-57588336D01*
X161367517Y-57579778D01*
X161444355Y-57479643D01*
X161500228Y-57344754D01*
X161519285Y-57200000D01*
X161500228Y-57055246D01*
X161444355Y-56920358D01*
X161367538Y-56820248D01*
X161341937Y-56754028D01*
X161341500Y-56743544D01*
X161341500Y-55700000D01*
X164630715Y-55700000D01*
X164649771Y-55844752D01*
X164705644Y-55979641D01*
X164705649Y-55979649D01*
X164794525Y-56095474D01*
X164910350Y-56184350D01*
X164910357Y-56184355D01*
X165045246Y-56240228D01*
X165190000Y-56259285D01*
X165334754Y-56240228D01*
X165469643Y-56184355D01*
X165585474Y-56095474D01*
X165674355Y-55979643D01*
X165730228Y-55844754D01*
X165740415Y-55767373D01*
X165769137Y-55702447D01*
X165772847Y-55700000D01*
X176010715Y-55700000D01*
X176029771Y-55844752D01*
X176085644Y-55979641D01*
X176085649Y-55979649D01*
X176174525Y-56095474D01*
X176290350Y-56184350D01*
X176290357Y-56184355D01*
X176425246Y-56240228D01*
X176570000Y-56259285D01*
X176714754Y-56240228D01*
X176849643Y-56184355D01*
X176965474Y-56095474D01*
X177054355Y-55979643D01*
X177110228Y-55844754D01*
X177129285Y-55700000D01*
X177122732Y-55650228D01*
X177110228Y-55555247D01*
X177110228Y-55555246D01*
X177054355Y-55420358D01*
X176965474Y-55304526D01*
X176965472Y-55304524D01*
X176965471Y-55304523D01*
X176849649Y-55215649D01*
X176849641Y-55215644D01*
X176714752Y-55159771D01*
X176570000Y-55140715D01*
X176425247Y-55159771D01*
X176381187Y-55178022D01*
X176290358Y-55215645D01*
X176290357Y-55215646D01*
X176290356Y-55215646D01*
X176174526Y-55304526D01*
X176085646Y-55420356D01*
X176085645Y-55420358D01*
X176057708Y-55487802D01*
X176029771Y-55555247D01*
X176010715Y-55699999D01*
X176010715Y-55700000D01*
X165772847Y-55700000D01*
X165828402Y-55663355D01*
X165848882Y-55658900D01*
X165914754Y-55650228D01*
X166049643Y-55594355D01*
X166165474Y-55505474D01*
X166254355Y-55389643D01*
X166310228Y-55254754D01*
X166329285Y-55110000D01*
X166321025Y-55047262D01*
X166313275Y-54988389D01*
X166310228Y-54965246D01*
X166254355Y-54830358D01*
X166165474Y-54714526D01*
X166165472Y-54714524D01*
X166165471Y-54714523D01*
X166049649Y-54625649D01*
X166049641Y-54625644D01*
X165914752Y-54569771D01*
X165850229Y-54561277D01*
X165785302Y-54532554D01*
X165746211Y-54473289D01*
X165741755Y-54452806D01*
X165730228Y-54365246D01*
X165674355Y-54230358D01*
X165585474Y-54114526D01*
X165585472Y-54114524D01*
X165585471Y-54114523D01*
X165469649Y-54025649D01*
X165469641Y-54025644D01*
X165334752Y-53969771D01*
X165190000Y-53950715D01*
X165045247Y-53969771D01*
X164977801Y-53997708D01*
X164910358Y-54025645D01*
X164910357Y-54025646D01*
X164910356Y-54025646D01*
X164794526Y-54114526D01*
X164705646Y-54230356D01*
X164705645Y-54230358D01*
X164677708Y-54297802D01*
X164649771Y-54365247D01*
X164630715Y-54509999D01*
X164630715Y-54510000D01*
X164649771Y-54654752D01*
X164705644Y-54789641D01*
X164705649Y-54789649D01*
X164794525Y-54905474D01*
X164907809Y-54992400D01*
X164910357Y-54994355D01*
X164910361Y-54994356D01*
X164912999Y-54995880D01*
X164914785Y-54997753D01*
X164916909Y-54999383D01*
X164916654Y-54999714D01*
X164961993Y-55047262D01*
X164975430Y-55116976D01*
X164949044Y-55182887D01*
X164913004Y-55214117D01*
X164910361Y-55215642D01*
X164794526Y-55304526D01*
X164705646Y-55420356D01*
X164705645Y-55420358D01*
X164677708Y-55487802D01*
X164649771Y-55555247D01*
X164630715Y-55699999D01*
X164630715Y-55700000D01*
X161341500Y-55700000D01*
X161341500Y-55072634D01*
X161344182Y-55046774D01*
X161346445Y-55035984D01*
X161341983Y-55000190D01*
X161341500Y-54992400D01*
X161341500Y-54988394D01*
X161341500Y-54988389D01*
X161337595Y-54964993D01*
X161330696Y-54909640D01*
X161330694Y-54909635D01*
X161328414Y-54901975D01*
X161325819Y-54894415D01*
X161299276Y-54845368D01*
X161274776Y-54795252D01*
X161270147Y-54788768D01*
X161265220Y-54782438D01*
X161224192Y-54744669D01*
X160894997Y-54415474D01*
X160552523Y-54073000D01*
X160518500Y-54010690D01*
X160516698Y-54000353D01*
X160510163Y-53950715D01*
X160500228Y-53875246D01*
X160444355Y-53740358D01*
X160355474Y-53624526D01*
X160355472Y-53624524D01*
X160355471Y-53624523D01*
X160239649Y-53535649D01*
X160239641Y-53535644D01*
X160104752Y-53479771D01*
X159960000Y-53460715D01*
X159815247Y-53479771D01*
X159747801Y-53507708D01*
X159680358Y-53535645D01*
X159680357Y-53535646D01*
X159680356Y-53535646D01*
X159564526Y-53624526D01*
X159475646Y-53740356D01*
X159475645Y-53740358D01*
X159447708Y-53807802D01*
X159419771Y-53875247D01*
X159400715Y-54019999D01*
X159400715Y-54020000D01*
X159419771Y-54164752D01*
X159475644Y-54299641D01*
X159475649Y-54299649D01*
X159564525Y-54415474D01*
X159639871Y-54473289D01*
X159680357Y-54504355D01*
X159815246Y-54560228D01*
X159940355Y-54576698D01*
X160005281Y-54605420D01*
X160013003Y-54612525D01*
X160541595Y-55141117D01*
X160575621Y-55203429D01*
X160578500Y-55230212D01*
X160578500Y-56743544D01*
X160558498Y-56811665D01*
X160552462Y-56820248D01*
X160475649Y-56920351D01*
X160475646Y-56920356D01*
X160475645Y-56920358D01*
X160447708Y-56987801D01*
X160419771Y-57055247D01*
X160400715Y-57199999D01*
X160400715Y-57200000D01*
X160419771Y-57344752D01*
X160419772Y-57344754D01*
X160475645Y-57479643D01*
X160552462Y-57579753D01*
X160578063Y-57645972D01*
X160578500Y-57656456D01*
X160578500Y-57729785D01*
X160558498Y-57797906D01*
X160541595Y-57818881D01*
X160312452Y-58048023D01*
X160292279Y-58064406D01*
X160283041Y-58070441D01*
X160260896Y-58098893D01*
X160255736Y-58104738D01*
X160252892Y-58107583D01*
X160252887Y-58107589D01*
X160252886Y-58107591D01*
X160246566Y-58116442D01*
X160239099Y-58126900D01*
X160204840Y-58170916D01*
X160201030Y-58177958D01*
X160197524Y-58185129D01*
X160181609Y-58238588D01*
X160174531Y-58259204D01*
X160133493Y-58317138D01*
X160067648Y-58343688D01*
X160038914Y-58343211D01*
X159925002Y-58328215D01*
X159925000Y-58328215D01*
X159780247Y-58347271D01*
X159712801Y-58375208D01*
X159645358Y-58403145D01*
X159645357Y-58403146D01*
X159645356Y-58403146D01*
X159529526Y-58492026D01*
X159440646Y-58607856D01*
X159440645Y-58607858D01*
X159426924Y-58640984D01*
X159384771Y-58742747D01*
X159365715Y-58887499D01*
X159365715Y-58887500D01*
X159384772Y-59032254D01*
X159403654Y-59077840D01*
X159411243Y-59148429D01*
X159379463Y-59211916D01*
X159335464Y-59242465D01*
X159220363Y-59290142D01*
X159220351Y-59290149D01*
X159173318Y-59326239D01*
X159107097Y-59351839D01*
X159037549Y-59337574D01*
X158996653Y-59302980D01*
X158945474Y-59236282D01*
X158829649Y-59147406D01*
X158829641Y-59147401D01*
X158694752Y-59091528D01*
X158550000Y-59072472D01*
X158405247Y-59091528D01*
X158337801Y-59119465D01*
X158270358Y-59147402D01*
X158270357Y-59147403D01*
X158270356Y-59147403D01*
X158154526Y-59236283D01*
X158065646Y-59352113D01*
X158065645Y-59352115D01*
X158054498Y-59379026D01*
X158009771Y-59487004D01*
X157990715Y-59631756D01*
X157990715Y-59631757D01*
X157396280Y-59631757D01*
X157218405Y-59453882D01*
X157184379Y-59391570D01*
X157181500Y-59364787D01*
X157181500Y-58677634D01*
X157184182Y-58651774D01*
X157186445Y-58640984D01*
X157181983Y-58605190D01*
X157181500Y-58597400D01*
X157181500Y-58593394D01*
X157181500Y-58593389D01*
X157177595Y-58569993D01*
X157170696Y-58514640D01*
X157170694Y-58514635D01*
X157168414Y-58506975D01*
X157165819Y-58499415D01*
X157139276Y-58450368D01*
X157114776Y-58400252D01*
X157110147Y-58393768D01*
X157105220Y-58387438D01*
X157064192Y-58349669D01*
X156882623Y-58168100D01*
X156681975Y-57967452D01*
X156665591Y-57947276D01*
X156659560Y-57938044D01*
X156631103Y-57915895D01*
X156625245Y-57910722D01*
X156622413Y-57907890D01*
X156622402Y-57907880D01*
X156603099Y-57894099D01*
X156559086Y-57859842D01*
X156552064Y-57856042D01*
X156544872Y-57852526D01*
X156544870Y-57852525D01*
X156544867Y-57852524D01*
X156491412Y-57836609D01*
X156438664Y-57818501D01*
X156438663Y-57818500D01*
X156438661Y-57818500D01*
X156438658Y-57818500D01*
X156430748Y-57817179D01*
X156422842Y-57816194D01*
X156367116Y-57818500D01*
X154802634Y-57818500D01*
X154776775Y-57815818D01*
X154765981Y-57813554D01*
X154742475Y-57816485D01*
X154730190Y-57818016D01*
X154722400Y-57818500D01*
X154718389Y-57818500D01*
X154694995Y-57822403D01*
X154689973Y-57823029D01*
X154639638Y-57829303D01*
X154632000Y-57831577D01*
X154624416Y-57834181D01*
X154624414Y-57834181D01*
X154624414Y-57834182D01*
X154575358Y-57860729D01*
X154558656Y-57868893D01*
X154525256Y-57885222D01*
X154518732Y-57889880D01*
X154512437Y-57894780D01*
X154474659Y-57935818D01*
X153992452Y-58418023D01*
X153972279Y-58434406D01*
X153963041Y-58440441D01*
X153940896Y-58468893D01*
X153935736Y-58474738D01*
X153932892Y-58477583D01*
X153919099Y-58496900D01*
X153884840Y-58540916D01*
X153881030Y-58547958D01*
X153877524Y-58555129D01*
X153861610Y-58608586D01*
X153843499Y-58661339D01*
X153842184Y-58669218D01*
X153841194Y-58677160D01*
X153843500Y-58732884D01*
X153843500Y-59564785D01*
X153823498Y-59632906D01*
X153806595Y-59653881D01*
X153467452Y-59993023D01*
X153447279Y-60009406D01*
X153438041Y-60015441D01*
X153415896Y-60043893D01*
X153410736Y-60049738D01*
X153407892Y-60052583D01*
X153407887Y-60052589D01*
X153407886Y-60052591D01*
X153402911Y-60059559D01*
X153394099Y-60071900D01*
X153359840Y-60115916D01*
X153356030Y-60122958D01*
X153352524Y-60130129D01*
X153336610Y-60183586D01*
X153318499Y-60236339D01*
X153317184Y-60244218D01*
X153316194Y-60252160D01*
X153318500Y-60307884D01*
X153318500Y-60495091D01*
X153298498Y-60563212D01*
X153244842Y-60609705D01*
X153240720Y-60611499D01*
X153170361Y-60640643D01*
X153170356Y-60640646D01*
X153054526Y-60729526D01*
X152965646Y-60845356D01*
X152965645Y-60845358D01*
X152949319Y-60884772D01*
X152909771Y-60980247D01*
X152890715Y-61124999D01*
X152890715Y-61125000D01*
X150000500Y-61125000D01*
X150000500Y-52875000D01*
X156990715Y-52875000D01*
X157009771Y-53019752D01*
X157065644Y-53154641D01*
X157065649Y-53154649D01*
X157154525Y-53270474D01*
X157270350Y-53359350D01*
X157270357Y-53359355D01*
X157405246Y-53415228D01*
X157550000Y-53434285D01*
X157694754Y-53415228D01*
X157829643Y-53359355D01*
X157945474Y-53270474D01*
X158034355Y-53154643D01*
X158090228Y-53019754D01*
X158109285Y-52875000D01*
X158090228Y-52730246D01*
X158034355Y-52595358D01*
X157945474Y-52479526D01*
X157945472Y-52479524D01*
X157945471Y-52479523D01*
X157829649Y-52390649D01*
X157829641Y-52390644D01*
X157791873Y-52375000D01*
X169515715Y-52375000D01*
X169534771Y-52519752D01*
X169590644Y-52654641D01*
X169590649Y-52654649D01*
X169679525Y-52770474D01*
X169795350Y-52859350D01*
X169795357Y-52859355D01*
X169930246Y-52915228D01*
X170075000Y-52934285D01*
X170219754Y-52915228D01*
X170354643Y-52859355D01*
X170470474Y-52770474D01*
X170559355Y-52654643D01*
X170615228Y-52519754D01*
X170634285Y-52375000D01*
X170615228Y-52230246D01*
X170559355Y-52095358D01*
X170470474Y-51979526D01*
X170470472Y-51979524D01*
X170470471Y-51979523D01*
X170354649Y-51890649D01*
X170354641Y-51890644D01*
X170219752Y-51834771D01*
X170075000Y-51815715D01*
X169930247Y-51834771D01*
X169862801Y-51862708D01*
X169795358Y-51890645D01*
X169795357Y-51890646D01*
X169795356Y-51890646D01*
X169679526Y-51979526D01*
X169590646Y-52095356D01*
X169590645Y-52095358D01*
X169562708Y-52162802D01*
X169534771Y-52230247D01*
X169515715Y-52374999D01*
X169515715Y-52375000D01*
X157791873Y-52375000D01*
X157694752Y-52334771D01*
X157550000Y-52315715D01*
X157405247Y-52334771D01*
X157337801Y-52362708D01*
X157270358Y-52390645D01*
X157270357Y-52390646D01*
X157270356Y-52390646D01*
X157154526Y-52479526D01*
X157065646Y-52595356D01*
X157065645Y-52595358D01*
X157041089Y-52654641D01*
X157009771Y-52730247D01*
X156990715Y-52874999D01*
X156990715Y-52875000D01*
X150000500Y-52875000D01*
X150000500Y-51540000D01*
X162715715Y-51540000D01*
X162734771Y-51684752D01*
X162790644Y-51819641D01*
X162790649Y-51819649D01*
X162879525Y-51935474D01*
X162995350Y-52024350D01*
X162995357Y-52024355D01*
X163130246Y-52080228D01*
X163275000Y-52099285D01*
X163419754Y-52080228D01*
X163554643Y-52024355D01*
X163670474Y-51935474D01*
X163759355Y-51819643D01*
X163799198Y-51723451D01*
X163843745Y-51668172D01*
X163911108Y-51645751D01*
X163979899Y-51663309D01*
X164028278Y-51715271D01*
X164032009Y-51723440D01*
X164065645Y-51804643D01*
X164065647Y-51804646D01*
X164065649Y-51804649D01*
X164154525Y-51920474D01*
X164231483Y-51979526D01*
X164270357Y-52009355D01*
X164405246Y-52065228D01*
X164550000Y-52084285D01*
X164694754Y-52065228D01*
X164829643Y-52009355D01*
X164945474Y-51920474D01*
X165034355Y-51804643D01*
X165060056Y-51742594D01*
X165104603Y-51687314D01*
X165171966Y-51664893D01*
X165240757Y-51682451D01*
X165289136Y-51734412D01*
X165292865Y-51742578D01*
X165320645Y-51809643D01*
X165320647Y-51809646D01*
X165320649Y-51809649D01*
X165409525Y-51925474D01*
X165525350Y-52014350D01*
X165525357Y-52014355D01*
X165660246Y-52070228D01*
X165805000Y-52089285D01*
X165949754Y-52070228D01*
X166084643Y-52014355D01*
X166200474Y-51925474D01*
X166289355Y-51809643D01*
X166345228Y-51674754D01*
X166364285Y-51530000D01*
X166345228Y-51385246D01*
X166289355Y-51250358D01*
X166200474Y-51134526D01*
X166200472Y-51134524D01*
X166200471Y-51134523D01*
X166084649Y-51045649D01*
X166084641Y-51045644D01*
X165949752Y-50989771D01*
X165805000Y-50970715D01*
X165660247Y-50989771D01*
X165596318Y-51016252D01*
X165525358Y-51045645D01*
X165525357Y-51045646D01*
X165525356Y-51045646D01*
X165409526Y-51134526D01*
X165320646Y-51250356D01*
X165320643Y-51250361D01*
X165294943Y-51312406D01*
X165250394Y-51367686D01*
X165183030Y-51390106D01*
X165114239Y-51372547D01*
X165065862Y-51320584D01*
X165062127Y-51312406D01*
X165034355Y-51245358D01*
X164945474Y-51129526D01*
X164945472Y-51129524D01*
X164945471Y-51129523D01*
X164829649Y-51040649D01*
X164829641Y-51040644D01*
X164694752Y-50984771D01*
X164550000Y-50965715D01*
X164405247Y-50984771D01*
X164337801Y-51012708D01*
X164270358Y-51040645D01*
X164270357Y-51040646D01*
X164270356Y-51040646D01*
X164154526Y-51129526D01*
X164065646Y-51245356D01*
X164065642Y-51245363D01*
X164025801Y-51341547D01*
X163981253Y-51396828D01*
X163913889Y-51419248D01*
X163845098Y-51401689D01*
X163796720Y-51349727D01*
X163792993Y-51341568D01*
X163759355Y-51260358D01*
X163670474Y-51144526D01*
X163670472Y-51144524D01*
X163670471Y-51144523D01*
X163554649Y-51055649D01*
X163554641Y-51055644D01*
X163419752Y-50999771D01*
X163275000Y-50980715D01*
X163130247Y-50999771D01*
X163090460Y-51016252D01*
X162995358Y-51055645D01*
X162995357Y-51055646D01*
X162995356Y-51055646D01*
X162879526Y-51144526D01*
X162790646Y-51260356D01*
X162790645Y-51260358D01*
X162769087Y-51312404D01*
X162734771Y-51395247D01*
X162715715Y-51539999D01*
X162715715Y-51540000D01*
X150000500Y-51540000D01*
X150000500Y-50610000D01*
X155170715Y-50610000D01*
X155189771Y-50754752D01*
X155245644Y-50889641D01*
X155245649Y-50889649D01*
X155334525Y-51005474D01*
X155433024Y-51081055D01*
X155450357Y-51094355D01*
X155585246Y-51150228D01*
X155730000Y-51169285D01*
X155874754Y-51150228D01*
X156009643Y-51094355D01*
X156125474Y-51005474D01*
X156188930Y-50922776D01*
X156246269Y-50880909D01*
X156317139Y-50876687D01*
X156322211Y-50878308D01*
X156322270Y-50878091D01*
X156330242Y-50880226D01*
X156330246Y-50880228D01*
X156475000Y-50899285D01*
X156619754Y-50880228D01*
X156619755Y-50880227D01*
X156627733Y-50878090D01*
X156628312Y-50880253D01*
X156687249Y-50873906D01*
X156750742Y-50905673D01*
X156764856Y-50921195D01*
X156829526Y-51005474D01*
X156829528Y-51005476D01*
X156928024Y-51081055D01*
X156945357Y-51094355D01*
X157080246Y-51150228D01*
X157225000Y-51169285D01*
X157369754Y-51150228D01*
X157504643Y-51094355D01*
X157620474Y-51005474D01*
X157709355Y-50889643D01*
X157765228Y-50754754D01*
X157784285Y-50610000D01*
X157780335Y-50580000D01*
X158160715Y-50580000D01*
X158179771Y-50724752D01*
X158235644Y-50859641D01*
X158235649Y-50859649D01*
X158324525Y-50975474D01*
X158429007Y-51055646D01*
X158440357Y-51064355D01*
X158575246Y-51120228D01*
X158720000Y-51139285D01*
X158864754Y-51120228D01*
X158999643Y-51064355D01*
X159062332Y-51016251D01*
X159128551Y-50990650D01*
X159192403Y-51003745D01*
X159192727Y-51002964D01*
X159196782Y-51004643D01*
X159198100Y-51004914D01*
X159200073Y-51006007D01*
X159200355Y-51006124D01*
X159200357Y-51006125D01*
X159335246Y-51061998D01*
X159480000Y-51081055D01*
X159624754Y-51061998D01*
X159759643Y-51006125D01*
X159875474Y-50917244D01*
X159964355Y-50801413D01*
X159975503Y-50774500D01*
X167995337Y-50774500D01*
X168014393Y-50919252D01*
X168070266Y-51054141D01*
X168070271Y-51054149D01*
X168159147Y-51169974D01*
X168263909Y-51250361D01*
X168274979Y-51258855D01*
X168409868Y-51314728D01*
X168482245Y-51324256D01*
X168554621Y-51333785D01*
X168554621Y-51333784D01*
X168554622Y-51333785D01*
X168699376Y-51314728D01*
X168834265Y-51258855D01*
X168950096Y-51169974D01*
X169038977Y-51054143D01*
X169094850Y-50919254D01*
X169113907Y-50774500D01*
X169111307Y-50754754D01*
X169094850Y-50629747D01*
X169094850Y-50629746D01*
X169038977Y-50494858D01*
X168950096Y-50379026D01*
X168950094Y-50379024D01*
X168950093Y-50379023D01*
X168834271Y-50290149D01*
X168834263Y-50290144D01*
X168699374Y-50234271D01*
X168554622Y-50215215D01*
X168409869Y-50234271D01*
X168342423Y-50262208D01*
X168274980Y-50290145D01*
X168274979Y-50290146D01*
X168274978Y-50290146D01*
X168159148Y-50379026D01*
X168070268Y-50494856D01*
X168070267Y-50494858D01*
X168059120Y-50521769D01*
X168014393Y-50629747D01*
X167995337Y-50774499D01*
X167995337Y-50774500D01*
X159975503Y-50774500D01*
X160020228Y-50666524D01*
X160039285Y-50521770D01*
X160020228Y-50377016D01*
X159964355Y-50242128D01*
X159875474Y-50126296D01*
X159875472Y-50126294D01*
X159875471Y-50126293D01*
X159776045Y-50050000D01*
X181679271Y-50050000D01*
X181698327Y-50194752D01*
X181754200Y-50329641D01*
X181754205Y-50329649D01*
X181843081Y-50445474D01*
X181958906Y-50534350D01*
X181958913Y-50534355D01*
X182093802Y-50590228D01*
X182166178Y-50599756D01*
X182238555Y-50609285D01*
X182238555Y-50609284D01*
X182238556Y-50609285D01*
X182383310Y-50590228D01*
X182518199Y-50534355D01*
X182634030Y-50445474D01*
X182722911Y-50329643D01*
X182778784Y-50194754D01*
X182797841Y-50050000D01*
X182796494Y-50039772D01*
X182778784Y-49905247D01*
X182776611Y-49900000D01*
X182722911Y-49770358D01*
X182634030Y-49654526D01*
X182634028Y-49654524D01*
X182634027Y-49654523D01*
X182518205Y-49565649D01*
X182518197Y-49565644D01*
X182383308Y-49509771D01*
X182238556Y-49490715D01*
X182093803Y-49509771D01*
X182064771Y-49521797D01*
X181958914Y-49565645D01*
X181958913Y-49565646D01*
X181958912Y-49565646D01*
X181843082Y-49654526D01*
X181754202Y-49770356D01*
X181754201Y-49770358D01*
X181726264Y-49837802D01*
X181698327Y-49905247D01*
X181679271Y-50049999D01*
X181679271Y-50050000D01*
X159776045Y-50050000D01*
X159759649Y-50037419D01*
X159759641Y-50037414D01*
X159624752Y-49981541D01*
X159480000Y-49962485D01*
X159335247Y-49981541D01*
X159267801Y-50009478D01*
X159200358Y-50037415D01*
X159200356Y-50037416D01*
X159200357Y-50037416D01*
X159200351Y-50037419D01*
X159137666Y-50085519D01*
X159071445Y-50111119D01*
X159007597Y-50098023D01*
X159007273Y-50098806D01*
X159003211Y-50097123D01*
X159001897Y-50096854D01*
X158999930Y-50095764D01*
X158952423Y-50076086D01*
X158876777Y-50044752D01*
X158864752Y-50039771D01*
X158720000Y-50020715D01*
X158575247Y-50039771D01*
X158525547Y-50060358D01*
X158440358Y-50095645D01*
X158440357Y-50095646D01*
X158440356Y-50095646D01*
X158324526Y-50184526D01*
X158235646Y-50300356D01*
X158235645Y-50300358D01*
X158207708Y-50367802D01*
X158179771Y-50435247D01*
X158160715Y-50579999D01*
X158160715Y-50580000D01*
X157780335Y-50580000D01*
X157765228Y-50465247D01*
X157765228Y-50465246D01*
X157709355Y-50330358D01*
X157620474Y-50214526D01*
X157620472Y-50214524D01*
X157620471Y-50214523D01*
X157504649Y-50125649D01*
X157504641Y-50125644D01*
X157369752Y-50069771D01*
X157225000Y-50050715D01*
X157080244Y-50069772D01*
X157072270Y-50071909D01*
X157071692Y-50069753D01*
X157012707Y-50076086D01*
X156949225Y-50044297D01*
X156935140Y-50028801D01*
X156870474Y-49944526D01*
X156870472Y-49944524D01*
X156870471Y-49944523D01*
X156754649Y-49855649D01*
X156754641Y-49855644D01*
X156619752Y-49799771D01*
X156475000Y-49780715D01*
X156330247Y-49799771D01*
X156262802Y-49827708D01*
X156195358Y-49855645D01*
X156195357Y-49855646D01*
X156195356Y-49855646D01*
X156079525Y-49944526D01*
X156016069Y-50027224D01*
X155958731Y-50069091D01*
X155887860Y-50073312D01*
X155882787Y-50071693D01*
X155882730Y-50071909D01*
X155874755Y-50069772D01*
X155730000Y-50050715D01*
X155585247Y-50069771D01*
X155517801Y-50097708D01*
X155450358Y-50125645D01*
X155450357Y-50125646D01*
X155450356Y-50125646D01*
X155334526Y-50214526D01*
X155245646Y-50330356D01*
X155245645Y-50330358D01*
X155217708Y-50397801D01*
X155189771Y-50465247D01*
X155170715Y-50609999D01*
X155170715Y-50610000D01*
X150000500Y-50610000D01*
X150000500Y-49900000D01*
X152440715Y-49900000D01*
X152459771Y-50044752D01*
X152515644Y-50179641D01*
X152515649Y-50179649D01*
X152604525Y-50295474D01*
X152713408Y-50379023D01*
X152720357Y-50384355D01*
X152855246Y-50440228D01*
X152895094Y-50445474D01*
X152999999Y-50459285D01*
X152999999Y-50459284D01*
X153000000Y-50459285D01*
X153144754Y-50440228D01*
X153279643Y-50384355D01*
X153395474Y-50295474D01*
X153400036Y-50289527D01*
X153457372Y-50247660D01*
X153528243Y-50243436D01*
X153590147Y-50278198D01*
X153599958Y-50289520D01*
X153604526Y-50295474D01*
X153604528Y-50295476D01*
X153710794Y-50377017D01*
X153720357Y-50384355D01*
X153855246Y-50440228D01*
X154000000Y-50459285D01*
X154144754Y-50440228D01*
X154279643Y-50384355D01*
X154395474Y-50295474D01*
X154484355Y-50179643D01*
X154540228Y-50044754D01*
X154559285Y-49900000D01*
X154553445Y-49855644D01*
X154543581Y-49780715D01*
X154540228Y-49755246D01*
X154484355Y-49620358D01*
X154395474Y-49504526D01*
X154395472Y-49504524D01*
X154395471Y-49504523D01*
X154279649Y-49415649D01*
X154279641Y-49415644D01*
X154144752Y-49359771D01*
X154000000Y-49340715D01*
X153855247Y-49359771D01*
X153795910Y-49384350D01*
X153720358Y-49415645D01*
X153720357Y-49415646D01*
X153720356Y-49415646D01*
X153604525Y-49504526D01*
X153599962Y-49510474D01*
X153542623Y-49552341D01*
X153471752Y-49556562D01*
X153409850Y-49521797D01*
X153400038Y-49510474D01*
X153395472Y-49504524D01*
X153279649Y-49415649D01*
X153279641Y-49415644D01*
X153144752Y-49359771D01*
X153000000Y-49340715D01*
X152855247Y-49359771D01*
X152795910Y-49384350D01*
X152720358Y-49415645D01*
X152720357Y-49415646D01*
X152720356Y-49415646D01*
X152604526Y-49504526D01*
X152515646Y-49620356D01*
X152515645Y-49620358D01*
X152487708Y-49687801D01*
X152459771Y-49755247D01*
X152440715Y-49899999D01*
X152440715Y-49900000D01*
X150000500Y-49900000D01*
X150000500Y-40126500D01*
X150020502Y-40058379D01*
X150074158Y-40011886D01*
X150126500Y-40000500D01*
X155633500Y-40000500D01*
X155701621Y-40020502D01*
G37*
%TD.AperFunction*%
%TD*%
M02*
