%TF.GenerationSoftware,KiCad,Pcbnew,7.0.7*%
%TF.CreationDate,2023-12-08T19:41:31-05:00*%
%TF.ProjectId,pixie-rev-4,70697869-652d-4726-9576-2d342e6b6963,rev?*%
%TF.SameCoordinates,Original*%
%TF.FileFunction,Legend,Top*%
%TF.FilePolarity,Positive*%
%FSLAX46Y46*%
G04 Gerber Fmt 4.6, Leading zero omitted, Abs format (unit mm)*
G04 Created by KiCad (PCBNEW 7.0.7) date 2023-12-08 19:41:31*
%MOMM*%
%LPD*%
G01*
G04 APERTURE LIST*
G04 Aperture macros list*
%AMRoundRect*
0 Rectangle with rounded corners*
0 $1 Rounding radius*
0 $2 $3 $4 $5 $6 $7 $8 $9 X,Y pos of 4 corners*
0 Add a 4 corners polygon primitive as box body*
4,1,4,$2,$3,$4,$5,$6,$7,$8,$9,$2,$3,0*
0 Add four circle primitives for the rounded corners*
1,1,$1+$1,$2,$3*
1,1,$1+$1,$4,$5*
1,1,$1+$1,$6,$7*
1,1,$1+$1,$8,$9*
0 Add four rect primitives between the rounded corners*
20,1,$1+$1,$2,$3,$4,$5,0*
20,1,$1+$1,$4,$5,$6,$7,0*
20,1,$1+$1,$6,$7,$8,$9,0*
20,1,$1+$1,$8,$9,$2,$3,0*%
G04 Aperture macros list end*
%ADD10C,0.150000*%
%ADD11C,0.120000*%
%ADD12C,0.100000*%
%ADD13RoundRect,0.100000X-0.100000X0.130000X-0.100000X-0.130000X0.100000X-0.130000X0.100000X0.130000X0*%
%ADD14RoundRect,0.100000X0.130000X0.100000X-0.130000X0.100000X-0.130000X-0.100000X0.130000X-0.100000X0*%
%ADD15RoundRect,0.100000X-0.162635X0.021213X0.021213X-0.162635X0.162635X-0.021213X-0.021213X0.162635X0*%
%ADD16RoundRect,0.100000X0.021213X0.162635X-0.162635X-0.021213X-0.021213X-0.162635X0.162635X0.021213X0*%
%ADD17R,0.600000X1.160000*%
%ADD18R,0.300000X1.160000*%
%ADD19O,1.300000X2.100000*%
%ADD20O,1.300000X2.500000*%
%ADD21R,1.800000X1.100000*%
%ADD22RoundRect,0.100000X-0.130000X-0.100000X0.130000X-0.100000X0.130000X0.100000X-0.130000X0.100000X0*%
%ADD23RoundRect,0.140000X-0.170000X0.140000X-0.170000X-0.140000X0.170000X-0.140000X0.170000X0.140000X0*%
%ADD24R,0.900000X0.300000*%
%ADD25R,0.340000X0.700000*%
%ADD26RoundRect,0.062500X0.062500X-0.375000X0.062500X0.375000X-0.062500X0.375000X-0.062500X-0.375000X0*%
%ADD27RoundRect,0.062500X0.375000X-0.062500X0.375000X0.062500X-0.375000X0.062500X-0.375000X-0.062500X0*%
%ADD28R,3.100000X3.100000*%
%ADD29RoundRect,0.100000X0.100000X-0.130000X0.100000X0.130000X-0.100000X0.130000X-0.100000X-0.130000X0*%
%ADD30R,0.700000X0.700000*%
%ADD31RoundRect,0.140000X-0.140000X-0.170000X0.140000X-0.170000X0.140000X0.170000X-0.140000X0.170000X0*%
%ADD32RoundRect,0.150000X0.150000X-0.650000X0.150000X0.650000X-0.150000X0.650000X-0.150000X-0.650000X0*%
%ADD33RoundRect,0.140000X0.140000X0.170000X-0.140000X0.170000X-0.140000X-0.170000X0.140000X-0.170000X0*%
%ADD34RoundRect,0.150000X-0.150000X0.512500X-0.150000X-0.512500X0.150000X-0.512500X0.150000X0.512500X0*%
%ADD35R,1.100000X1.200000*%
%ADD36RoundRect,0.150000X-0.512500X-0.150000X0.512500X-0.150000X0.512500X0.150000X-0.512500X0.150000X0*%
%ADD37R,1.100000X1.800000*%
G04 APERTURE END LIST*
D10*
X150789285Y-40404819D02*
X150789285Y-41119104D01*
X150789285Y-41119104D02*
X150741666Y-41261961D01*
X150741666Y-41261961D02*
X150646428Y-41357200D01*
X150646428Y-41357200D02*
X150503571Y-41404819D01*
X150503571Y-41404819D02*
X150408333Y-41404819D01*
X151217857Y-40500057D02*
X151265476Y-40452438D01*
X151265476Y-40452438D02*
X151360714Y-40404819D01*
X151360714Y-40404819D02*
X151598809Y-40404819D01*
X151598809Y-40404819D02*
X151694047Y-40452438D01*
X151694047Y-40452438D02*
X151741666Y-40500057D01*
X151741666Y-40500057D02*
X151789285Y-40595295D01*
X151789285Y-40595295D02*
X151789285Y-40690533D01*
X151789285Y-40690533D02*
X151741666Y-40833390D01*
X151741666Y-40833390D02*
X151170238Y-41404819D01*
X151170238Y-41404819D02*
X151789285Y-41404819D01*
X152408333Y-40404819D02*
X152503571Y-40404819D01*
X152503571Y-40404819D02*
X152598809Y-40452438D01*
X152598809Y-40452438D02*
X152646428Y-40500057D01*
X152646428Y-40500057D02*
X152694047Y-40595295D01*
X152694047Y-40595295D02*
X152741666Y-40785771D01*
X152741666Y-40785771D02*
X152741666Y-41023866D01*
X152741666Y-41023866D02*
X152694047Y-41214342D01*
X152694047Y-41214342D02*
X152646428Y-41309580D01*
X152646428Y-41309580D02*
X152598809Y-41357200D01*
X152598809Y-41357200D02*
X152503571Y-41404819D01*
X152503571Y-41404819D02*
X152408333Y-41404819D01*
X152408333Y-41404819D02*
X152313095Y-41357200D01*
X152313095Y-41357200D02*
X152265476Y-41309580D01*
X152265476Y-41309580D02*
X152217857Y-41214342D01*
X152217857Y-41214342D02*
X152170238Y-41023866D01*
X152170238Y-41023866D02*
X152170238Y-40785771D01*
X152170238Y-40785771D02*
X152217857Y-40595295D01*
X152217857Y-40595295D02*
X152265476Y-40500057D01*
X152265476Y-40500057D02*
X152313095Y-40452438D01*
X152313095Y-40452438D02*
X152408333Y-40404819D01*
X153694047Y-41404819D02*
X153122619Y-41404819D01*
X153408333Y-41404819D02*
X153408333Y-40404819D01*
X153408333Y-40404819D02*
X153313095Y-40547676D01*
X153313095Y-40547676D02*
X153217857Y-40642914D01*
X153217857Y-40642914D02*
X153122619Y-40690533D01*
X188842800Y-42189411D02*
X188795180Y-42332268D01*
X188795180Y-42332268D02*
X188795180Y-42570363D01*
X188795180Y-42570363D02*
X188842800Y-42665601D01*
X188842800Y-42665601D02*
X188890419Y-42713220D01*
X188890419Y-42713220D02*
X188985657Y-42760839D01*
X188985657Y-42760839D02*
X189080895Y-42760839D01*
X189080895Y-42760839D02*
X189176133Y-42713220D01*
X189176133Y-42713220D02*
X189223752Y-42665601D01*
X189223752Y-42665601D02*
X189271371Y-42570363D01*
X189271371Y-42570363D02*
X189318990Y-42379887D01*
X189318990Y-42379887D02*
X189366609Y-42284649D01*
X189366609Y-42284649D02*
X189414228Y-42237030D01*
X189414228Y-42237030D02*
X189509466Y-42189411D01*
X189509466Y-42189411D02*
X189604704Y-42189411D01*
X189604704Y-42189411D02*
X189699942Y-42237030D01*
X189699942Y-42237030D02*
X189747561Y-42284649D01*
X189747561Y-42284649D02*
X189795180Y-42379887D01*
X189795180Y-42379887D02*
X189795180Y-42617982D01*
X189795180Y-42617982D02*
X189747561Y-42760839D01*
X189795180Y-43094173D02*
X188795180Y-43332268D01*
X188795180Y-43332268D02*
X189509466Y-43522744D01*
X189509466Y-43522744D02*
X188795180Y-43713220D01*
X188795180Y-43713220D02*
X189795180Y-43951316D01*
X188795180Y-44856077D02*
X188795180Y-44284649D01*
X188795180Y-44570363D02*
X189795180Y-44570363D01*
X189795180Y-44570363D02*
X189652323Y-44475125D01*
X189652323Y-44475125D02*
X189557085Y-44379887D01*
X189557085Y-44379887D02*
X189509466Y-44284649D01*
X189795180Y-45475125D02*
X189795180Y-45570363D01*
X189795180Y-45570363D02*
X189747561Y-45665601D01*
X189747561Y-45665601D02*
X189699942Y-45713220D01*
X189699942Y-45713220D02*
X189604704Y-45760839D01*
X189604704Y-45760839D02*
X189414228Y-45808458D01*
X189414228Y-45808458D02*
X189176133Y-45808458D01*
X189176133Y-45808458D02*
X188985657Y-45760839D01*
X188985657Y-45760839D02*
X188890419Y-45713220D01*
X188890419Y-45713220D02*
X188842800Y-45665601D01*
X188842800Y-45665601D02*
X188795180Y-45570363D01*
X188795180Y-45570363D02*
X188795180Y-45475125D01*
X188795180Y-45475125D02*
X188842800Y-45379887D01*
X188842800Y-45379887D02*
X188890419Y-45332268D01*
X188890419Y-45332268D02*
X188985657Y-45284649D01*
X188985657Y-45284649D02*
X189176133Y-45237030D01*
X189176133Y-45237030D02*
X189414228Y-45237030D01*
X189414228Y-45237030D02*
X189604704Y-45284649D01*
X189604704Y-45284649D02*
X189699942Y-45332268D01*
X189699942Y-45332268D02*
X189747561Y-45379887D01*
X189747561Y-45379887D02*
X189795180Y-45475125D01*
X188795180Y-46760839D02*
X188795180Y-46189411D01*
X188795180Y-46475125D02*
X189795180Y-46475125D01*
X189795180Y-46475125D02*
X189652323Y-46379887D01*
X189652323Y-46379887D02*
X189557085Y-46284649D01*
X189557085Y-46284649D02*
X189509466Y-46189411D01*
X188892800Y-63139411D02*
X188845180Y-63282268D01*
X188845180Y-63282268D02*
X188845180Y-63520363D01*
X188845180Y-63520363D02*
X188892800Y-63615601D01*
X188892800Y-63615601D02*
X188940419Y-63663220D01*
X188940419Y-63663220D02*
X189035657Y-63710839D01*
X189035657Y-63710839D02*
X189130895Y-63710839D01*
X189130895Y-63710839D02*
X189226133Y-63663220D01*
X189226133Y-63663220D02*
X189273752Y-63615601D01*
X189273752Y-63615601D02*
X189321371Y-63520363D01*
X189321371Y-63520363D02*
X189368990Y-63329887D01*
X189368990Y-63329887D02*
X189416609Y-63234649D01*
X189416609Y-63234649D02*
X189464228Y-63187030D01*
X189464228Y-63187030D02*
X189559466Y-63139411D01*
X189559466Y-63139411D02*
X189654704Y-63139411D01*
X189654704Y-63139411D02*
X189749942Y-63187030D01*
X189749942Y-63187030D02*
X189797561Y-63234649D01*
X189797561Y-63234649D02*
X189845180Y-63329887D01*
X189845180Y-63329887D02*
X189845180Y-63567982D01*
X189845180Y-63567982D02*
X189797561Y-63710839D01*
X189845180Y-64044173D02*
X188845180Y-64282268D01*
X188845180Y-64282268D02*
X189559466Y-64472744D01*
X189559466Y-64472744D02*
X188845180Y-64663220D01*
X188845180Y-64663220D02*
X189845180Y-64901316D01*
X188845180Y-65806077D02*
X188845180Y-65234649D01*
X188845180Y-65520363D02*
X189845180Y-65520363D01*
X189845180Y-65520363D02*
X189702323Y-65425125D01*
X189702323Y-65425125D02*
X189607085Y-65329887D01*
X189607085Y-65329887D02*
X189559466Y-65234649D01*
X189845180Y-66425125D02*
X189845180Y-66520363D01*
X189845180Y-66520363D02*
X189797561Y-66615601D01*
X189797561Y-66615601D02*
X189749942Y-66663220D01*
X189749942Y-66663220D02*
X189654704Y-66710839D01*
X189654704Y-66710839D02*
X189464228Y-66758458D01*
X189464228Y-66758458D02*
X189226133Y-66758458D01*
X189226133Y-66758458D02*
X189035657Y-66710839D01*
X189035657Y-66710839D02*
X188940419Y-66663220D01*
X188940419Y-66663220D02*
X188892800Y-66615601D01*
X188892800Y-66615601D02*
X188845180Y-66520363D01*
X188845180Y-66520363D02*
X188845180Y-66425125D01*
X188845180Y-66425125D02*
X188892800Y-66329887D01*
X188892800Y-66329887D02*
X188940419Y-66282268D01*
X188940419Y-66282268D02*
X189035657Y-66234649D01*
X189035657Y-66234649D02*
X189226133Y-66187030D01*
X189226133Y-66187030D02*
X189464228Y-66187030D01*
X189464228Y-66187030D02*
X189654704Y-66234649D01*
X189654704Y-66234649D02*
X189749942Y-66282268D01*
X189749942Y-66282268D02*
X189797561Y-66329887D01*
X189797561Y-66329887D02*
X189845180Y-66425125D01*
X189511847Y-67615601D02*
X188845180Y-67615601D01*
X189892800Y-67377506D02*
X189178514Y-67139411D01*
X189178514Y-67139411D02*
X189178514Y-67758458D01*
X188892800Y-56089411D02*
X188845180Y-56232268D01*
X188845180Y-56232268D02*
X188845180Y-56470363D01*
X188845180Y-56470363D02*
X188892800Y-56565601D01*
X188892800Y-56565601D02*
X188940419Y-56613220D01*
X188940419Y-56613220D02*
X189035657Y-56660839D01*
X189035657Y-56660839D02*
X189130895Y-56660839D01*
X189130895Y-56660839D02*
X189226133Y-56613220D01*
X189226133Y-56613220D02*
X189273752Y-56565601D01*
X189273752Y-56565601D02*
X189321371Y-56470363D01*
X189321371Y-56470363D02*
X189368990Y-56279887D01*
X189368990Y-56279887D02*
X189416609Y-56184649D01*
X189416609Y-56184649D02*
X189464228Y-56137030D01*
X189464228Y-56137030D02*
X189559466Y-56089411D01*
X189559466Y-56089411D02*
X189654704Y-56089411D01*
X189654704Y-56089411D02*
X189749942Y-56137030D01*
X189749942Y-56137030D02*
X189797561Y-56184649D01*
X189797561Y-56184649D02*
X189845180Y-56279887D01*
X189845180Y-56279887D02*
X189845180Y-56517982D01*
X189845180Y-56517982D02*
X189797561Y-56660839D01*
X189845180Y-56994173D02*
X188845180Y-57232268D01*
X188845180Y-57232268D02*
X189559466Y-57422744D01*
X189559466Y-57422744D02*
X188845180Y-57613220D01*
X188845180Y-57613220D02*
X189845180Y-57851316D01*
X188845180Y-58756077D02*
X188845180Y-58184649D01*
X188845180Y-58470363D02*
X189845180Y-58470363D01*
X189845180Y-58470363D02*
X189702323Y-58375125D01*
X189702323Y-58375125D02*
X189607085Y-58279887D01*
X189607085Y-58279887D02*
X189559466Y-58184649D01*
X189845180Y-59375125D02*
X189845180Y-59470363D01*
X189845180Y-59470363D02*
X189797561Y-59565601D01*
X189797561Y-59565601D02*
X189749942Y-59613220D01*
X189749942Y-59613220D02*
X189654704Y-59660839D01*
X189654704Y-59660839D02*
X189464228Y-59708458D01*
X189464228Y-59708458D02*
X189226133Y-59708458D01*
X189226133Y-59708458D02*
X189035657Y-59660839D01*
X189035657Y-59660839D02*
X188940419Y-59613220D01*
X188940419Y-59613220D02*
X188892800Y-59565601D01*
X188892800Y-59565601D02*
X188845180Y-59470363D01*
X188845180Y-59470363D02*
X188845180Y-59375125D01*
X188845180Y-59375125D02*
X188892800Y-59279887D01*
X188892800Y-59279887D02*
X188940419Y-59232268D01*
X188940419Y-59232268D02*
X189035657Y-59184649D01*
X189035657Y-59184649D02*
X189226133Y-59137030D01*
X189226133Y-59137030D02*
X189464228Y-59137030D01*
X189464228Y-59137030D02*
X189654704Y-59184649D01*
X189654704Y-59184649D02*
X189749942Y-59232268D01*
X189749942Y-59232268D02*
X189797561Y-59279887D01*
X189797561Y-59279887D02*
X189845180Y-59375125D01*
X189845180Y-60041792D02*
X189845180Y-60660839D01*
X189845180Y-60660839D02*
X189464228Y-60327506D01*
X189464228Y-60327506D02*
X189464228Y-60470363D01*
X189464228Y-60470363D02*
X189416609Y-60565601D01*
X189416609Y-60565601D02*
X189368990Y-60613220D01*
X189368990Y-60613220D02*
X189273752Y-60660839D01*
X189273752Y-60660839D02*
X189035657Y-60660839D01*
X189035657Y-60660839D02*
X188940419Y-60613220D01*
X188940419Y-60613220D02*
X188892800Y-60565601D01*
X188892800Y-60565601D02*
X188845180Y-60470363D01*
X188845180Y-60470363D02*
X188845180Y-60184649D01*
X188845180Y-60184649D02*
X188892800Y-60089411D01*
X188892800Y-60089411D02*
X188940419Y-60041792D01*
X169506077Y-41854819D02*
X169506077Y-42569104D01*
X169506077Y-42569104D02*
X169458458Y-42711961D01*
X169458458Y-42711961D02*
X169363220Y-42807200D01*
X169363220Y-42807200D02*
X169220363Y-42854819D01*
X169220363Y-42854819D02*
X169125125Y-42854819D01*
X170410839Y-42188152D02*
X170410839Y-42854819D01*
X170172744Y-41807200D02*
X169934649Y-42521485D01*
X169934649Y-42521485D02*
X170553696Y-42521485D01*
X171125125Y-41854819D02*
X171220363Y-41854819D01*
X171220363Y-41854819D02*
X171315601Y-41902438D01*
X171315601Y-41902438D02*
X171363220Y-41950057D01*
X171363220Y-41950057D02*
X171410839Y-42045295D01*
X171410839Y-42045295D02*
X171458458Y-42235771D01*
X171458458Y-42235771D02*
X171458458Y-42473866D01*
X171458458Y-42473866D02*
X171410839Y-42664342D01*
X171410839Y-42664342D02*
X171363220Y-42759580D01*
X171363220Y-42759580D02*
X171315601Y-42807200D01*
X171315601Y-42807200D02*
X171220363Y-42854819D01*
X171220363Y-42854819D02*
X171125125Y-42854819D01*
X171125125Y-42854819D02*
X171029887Y-42807200D01*
X171029887Y-42807200D02*
X170982268Y-42759580D01*
X170982268Y-42759580D02*
X170934649Y-42664342D01*
X170934649Y-42664342D02*
X170887030Y-42473866D01*
X170887030Y-42473866D02*
X170887030Y-42235771D01*
X170887030Y-42235771D02*
X170934649Y-42045295D01*
X170934649Y-42045295D02*
X170982268Y-41950057D01*
X170982268Y-41950057D02*
X171029887Y-41902438D01*
X171029887Y-41902438D02*
X171125125Y-41854819D01*
X172410839Y-42854819D02*
X171839411Y-42854819D01*
X172125125Y-42854819D02*
X172125125Y-41854819D01*
X172125125Y-41854819D02*
X172029887Y-41997676D01*
X172029887Y-41997676D02*
X171934649Y-42092914D01*
X171934649Y-42092914D02*
X171839411Y-42140533D01*
X151765714Y-47674819D02*
X151765714Y-48484342D01*
X151765714Y-48484342D02*
X151813333Y-48579580D01*
X151813333Y-48579580D02*
X151860952Y-48627200D01*
X151860952Y-48627200D02*
X151956190Y-48674819D01*
X151956190Y-48674819D02*
X152146666Y-48674819D01*
X152146666Y-48674819D02*
X152241904Y-48627200D01*
X152241904Y-48627200D02*
X152289523Y-48579580D01*
X152289523Y-48579580D02*
X152337142Y-48484342D01*
X152337142Y-48484342D02*
X152337142Y-47674819D01*
X152765714Y-47770057D02*
X152813333Y-47722438D01*
X152813333Y-47722438D02*
X152908571Y-47674819D01*
X152908571Y-47674819D02*
X153146666Y-47674819D01*
X153146666Y-47674819D02*
X153241904Y-47722438D01*
X153241904Y-47722438D02*
X153289523Y-47770057D01*
X153289523Y-47770057D02*
X153337142Y-47865295D01*
X153337142Y-47865295D02*
X153337142Y-47960533D01*
X153337142Y-47960533D02*
X153289523Y-48103390D01*
X153289523Y-48103390D02*
X152718095Y-48674819D01*
X152718095Y-48674819D02*
X153337142Y-48674819D01*
X153956190Y-47674819D02*
X154051428Y-47674819D01*
X154051428Y-47674819D02*
X154146666Y-47722438D01*
X154146666Y-47722438D02*
X154194285Y-47770057D01*
X154194285Y-47770057D02*
X154241904Y-47865295D01*
X154241904Y-47865295D02*
X154289523Y-48055771D01*
X154289523Y-48055771D02*
X154289523Y-48293866D01*
X154289523Y-48293866D02*
X154241904Y-48484342D01*
X154241904Y-48484342D02*
X154194285Y-48579580D01*
X154194285Y-48579580D02*
X154146666Y-48627200D01*
X154146666Y-48627200D02*
X154051428Y-48674819D01*
X154051428Y-48674819D02*
X153956190Y-48674819D01*
X153956190Y-48674819D02*
X153860952Y-48627200D01*
X153860952Y-48627200D02*
X153813333Y-48579580D01*
X153813333Y-48579580D02*
X153765714Y-48484342D01*
X153765714Y-48484342D02*
X153718095Y-48293866D01*
X153718095Y-48293866D02*
X153718095Y-48055771D01*
X153718095Y-48055771D02*
X153765714Y-47865295D01*
X153765714Y-47865295D02*
X153813333Y-47770057D01*
X153813333Y-47770057D02*
X153860952Y-47722438D01*
X153860952Y-47722438D02*
X153956190Y-47674819D01*
X155241904Y-48674819D02*
X154670476Y-48674819D01*
X154956190Y-48674819D02*
X154956190Y-47674819D01*
X154956190Y-47674819D02*
X154860952Y-47817676D01*
X154860952Y-47817676D02*
X154765714Y-47912914D01*
X154765714Y-47912914D02*
X154670476Y-47960533D01*
X157255714Y-52444819D02*
X157255714Y-53254342D01*
X157255714Y-53254342D02*
X157303333Y-53349580D01*
X157303333Y-53349580D02*
X157350952Y-53397200D01*
X157350952Y-53397200D02*
X157446190Y-53444819D01*
X157446190Y-53444819D02*
X157636666Y-53444819D01*
X157636666Y-53444819D02*
X157731904Y-53397200D01*
X157731904Y-53397200D02*
X157779523Y-53349580D01*
X157779523Y-53349580D02*
X157827142Y-53254342D01*
X157827142Y-53254342D02*
X157827142Y-52444819D01*
X158208095Y-52444819D02*
X158827142Y-52444819D01*
X158827142Y-52444819D02*
X158493809Y-52825771D01*
X158493809Y-52825771D02*
X158636666Y-52825771D01*
X158636666Y-52825771D02*
X158731904Y-52873390D01*
X158731904Y-52873390D02*
X158779523Y-52921009D01*
X158779523Y-52921009D02*
X158827142Y-53016247D01*
X158827142Y-53016247D02*
X158827142Y-53254342D01*
X158827142Y-53254342D02*
X158779523Y-53349580D01*
X158779523Y-53349580D02*
X158731904Y-53397200D01*
X158731904Y-53397200D02*
X158636666Y-53444819D01*
X158636666Y-53444819D02*
X158350952Y-53444819D01*
X158350952Y-53444819D02*
X158255714Y-53397200D01*
X158255714Y-53397200D02*
X158208095Y-53349580D01*
X159446190Y-52444819D02*
X159541428Y-52444819D01*
X159541428Y-52444819D02*
X159636666Y-52492438D01*
X159636666Y-52492438D02*
X159684285Y-52540057D01*
X159684285Y-52540057D02*
X159731904Y-52635295D01*
X159731904Y-52635295D02*
X159779523Y-52825771D01*
X159779523Y-52825771D02*
X159779523Y-53063866D01*
X159779523Y-53063866D02*
X159731904Y-53254342D01*
X159731904Y-53254342D02*
X159684285Y-53349580D01*
X159684285Y-53349580D02*
X159636666Y-53397200D01*
X159636666Y-53397200D02*
X159541428Y-53444819D01*
X159541428Y-53444819D02*
X159446190Y-53444819D01*
X159446190Y-53444819D02*
X159350952Y-53397200D01*
X159350952Y-53397200D02*
X159303333Y-53349580D01*
X159303333Y-53349580D02*
X159255714Y-53254342D01*
X159255714Y-53254342D02*
X159208095Y-53063866D01*
X159208095Y-53063866D02*
X159208095Y-52825771D01*
X159208095Y-52825771D02*
X159255714Y-52635295D01*
X159255714Y-52635295D02*
X159303333Y-52540057D01*
X159303333Y-52540057D02*
X159350952Y-52492438D01*
X159350952Y-52492438D02*
X159446190Y-52444819D01*
X160160476Y-52540057D02*
X160208095Y-52492438D01*
X160208095Y-52492438D02*
X160303333Y-52444819D01*
X160303333Y-52444819D02*
X160541428Y-52444819D01*
X160541428Y-52444819D02*
X160636666Y-52492438D01*
X160636666Y-52492438D02*
X160684285Y-52540057D01*
X160684285Y-52540057D02*
X160731904Y-52635295D01*
X160731904Y-52635295D02*
X160731904Y-52730533D01*
X160731904Y-52730533D02*
X160684285Y-52873390D01*
X160684285Y-52873390D02*
X160112857Y-53444819D01*
X160112857Y-53444819D02*
X160731904Y-53444819D01*
X175809524Y-53254819D02*
X175809524Y-52254819D01*
X175809524Y-52254819D02*
X176047619Y-52254819D01*
X176047619Y-52254819D02*
X176190476Y-52302438D01*
X176190476Y-52302438D02*
X176285714Y-52397676D01*
X176285714Y-52397676D02*
X176333333Y-52492914D01*
X176333333Y-52492914D02*
X176380952Y-52683390D01*
X176380952Y-52683390D02*
X176380952Y-52826247D01*
X176380952Y-52826247D02*
X176333333Y-53016723D01*
X176333333Y-53016723D02*
X176285714Y-53111961D01*
X176285714Y-53111961D02*
X176190476Y-53207200D01*
X176190476Y-53207200D02*
X176047619Y-53254819D01*
X176047619Y-53254819D02*
X175809524Y-53254819D01*
X177238095Y-52588152D02*
X177238095Y-53254819D01*
X177000000Y-52207200D02*
X176761905Y-52921485D01*
X176761905Y-52921485D02*
X177380952Y-52921485D01*
X177952381Y-52254819D02*
X178047619Y-52254819D01*
X178047619Y-52254819D02*
X178142857Y-52302438D01*
X178142857Y-52302438D02*
X178190476Y-52350057D01*
X178190476Y-52350057D02*
X178238095Y-52445295D01*
X178238095Y-52445295D02*
X178285714Y-52635771D01*
X178285714Y-52635771D02*
X178285714Y-52873866D01*
X178285714Y-52873866D02*
X178238095Y-53064342D01*
X178238095Y-53064342D02*
X178190476Y-53159580D01*
X178190476Y-53159580D02*
X178142857Y-53207200D01*
X178142857Y-53207200D02*
X178047619Y-53254819D01*
X178047619Y-53254819D02*
X177952381Y-53254819D01*
X177952381Y-53254819D02*
X177857143Y-53207200D01*
X177857143Y-53207200D02*
X177809524Y-53159580D01*
X177809524Y-53159580D02*
X177761905Y-53064342D01*
X177761905Y-53064342D02*
X177714286Y-52873866D01*
X177714286Y-52873866D02*
X177714286Y-52635771D01*
X177714286Y-52635771D02*
X177761905Y-52445295D01*
X177761905Y-52445295D02*
X177809524Y-52350057D01*
X177809524Y-52350057D02*
X177857143Y-52302438D01*
X177857143Y-52302438D02*
X177952381Y-52254819D01*
X179238095Y-53254819D02*
X178666667Y-53254819D01*
X178952381Y-53254819D02*
X178952381Y-52254819D01*
X178952381Y-52254819D02*
X178857143Y-52397676D01*
X178857143Y-52397676D02*
X178761905Y-52492914D01*
X178761905Y-52492914D02*
X178666667Y-52540533D01*
X162305714Y-50794819D02*
X162305714Y-51604342D01*
X162305714Y-51604342D02*
X162353333Y-51699580D01*
X162353333Y-51699580D02*
X162400952Y-51747200D01*
X162400952Y-51747200D02*
X162496190Y-51794819D01*
X162496190Y-51794819D02*
X162686666Y-51794819D01*
X162686666Y-51794819D02*
X162781904Y-51747200D01*
X162781904Y-51747200D02*
X162829523Y-51699580D01*
X162829523Y-51699580D02*
X162877142Y-51604342D01*
X162877142Y-51604342D02*
X162877142Y-50794819D01*
X163258095Y-50794819D02*
X163877142Y-50794819D01*
X163877142Y-50794819D02*
X163543809Y-51175771D01*
X163543809Y-51175771D02*
X163686666Y-51175771D01*
X163686666Y-51175771D02*
X163781904Y-51223390D01*
X163781904Y-51223390D02*
X163829523Y-51271009D01*
X163829523Y-51271009D02*
X163877142Y-51366247D01*
X163877142Y-51366247D02*
X163877142Y-51604342D01*
X163877142Y-51604342D02*
X163829523Y-51699580D01*
X163829523Y-51699580D02*
X163781904Y-51747200D01*
X163781904Y-51747200D02*
X163686666Y-51794819D01*
X163686666Y-51794819D02*
X163400952Y-51794819D01*
X163400952Y-51794819D02*
X163305714Y-51747200D01*
X163305714Y-51747200D02*
X163258095Y-51699580D01*
X164496190Y-50794819D02*
X164591428Y-50794819D01*
X164591428Y-50794819D02*
X164686666Y-50842438D01*
X164686666Y-50842438D02*
X164734285Y-50890057D01*
X164734285Y-50890057D02*
X164781904Y-50985295D01*
X164781904Y-50985295D02*
X164829523Y-51175771D01*
X164829523Y-51175771D02*
X164829523Y-51413866D01*
X164829523Y-51413866D02*
X164781904Y-51604342D01*
X164781904Y-51604342D02*
X164734285Y-51699580D01*
X164734285Y-51699580D02*
X164686666Y-51747200D01*
X164686666Y-51747200D02*
X164591428Y-51794819D01*
X164591428Y-51794819D02*
X164496190Y-51794819D01*
X164496190Y-51794819D02*
X164400952Y-51747200D01*
X164400952Y-51747200D02*
X164353333Y-51699580D01*
X164353333Y-51699580D02*
X164305714Y-51604342D01*
X164305714Y-51604342D02*
X164258095Y-51413866D01*
X164258095Y-51413866D02*
X164258095Y-51175771D01*
X164258095Y-51175771D02*
X164305714Y-50985295D01*
X164305714Y-50985295D02*
X164353333Y-50890057D01*
X164353333Y-50890057D02*
X164400952Y-50842438D01*
X164400952Y-50842438D02*
X164496190Y-50794819D01*
X165781904Y-51794819D02*
X165210476Y-51794819D01*
X165496190Y-51794819D02*
X165496190Y-50794819D01*
X165496190Y-50794819D02*
X165400952Y-50937676D01*
X165400952Y-50937676D02*
X165305714Y-51032914D01*
X165305714Y-51032914D02*
X165210476Y-51080533D01*
X166280952Y-69339104D02*
X166757142Y-69339104D01*
X166185714Y-69624819D02*
X166519047Y-68624819D01*
X166519047Y-68624819D02*
X166852380Y-69624819D01*
X167185714Y-69101009D02*
X167519047Y-69101009D01*
X167661904Y-69624819D02*
X167185714Y-69624819D01*
X167185714Y-69624819D02*
X167185714Y-68624819D01*
X167185714Y-68624819D02*
X167661904Y-68624819D01*
X167995238Y-68624819D02*
X168614285Y-68624819D01*
X168614285Y-68624819D02*
X168280952Y-69005771D01*
X168280952Y-69005771D02*
X168423809Y-69005771D01*
X168423809Y-69005771D02*
X168519047Y-69053390D01*
X168519047Y-69053390D02*
X168566666Y-69101009D01*
X168566666Y-69101009D02*
X168614285Y-69196247D01*
X168614285Y-69196247D02*
X168614285Y-69434342D01*
X168614285Y-69434342D02*
X168566666Y-69529580D01*
X168566666Y-69529580D02*
X168519047Y-69577200D01*
X168519047Y-69577200D02*
X168423809Y-69624819D01*
X168423809Y-69624819D02*
X168138095Y-69624819D01*
X168138095Y-69624819D02*
X168042857Y-69577200D01*
X168042857Y-69577200D02*
X167995238Y-69529580D01*
X169233333Y-68624819D02*
X169328571Y-68624819D01*
X169328571Y-68624819D02*
X169423809Y-68672438D01*
X169423809Y-68672438D02*
X169471428Y-68720057D01*
X169471428Y-68720057D02*
X169519047Y-68815295D01*
X169519047Y-68815295D02*
X169566666Y-69005771D01*
X169566666Y-69005771D02*
X169566666Y-69243866D01*
X169566666Y-69243866D02*
X169519047Y-69434342D01*
X169519047Y-69434342D02*
X169471428Y-69529580D01*
X169471428Y-69529580D02*
X169423809Y-69577200D01*
X169423809Y-69577200D02*
X169328571Y-69624819D01*
X169328571Y-69624819D02*
X169233333Y-69624819D01*
X169233333Y-69624819D02*
X169138095Y-69577200D01*
X169138095Y-69577200D02*
X169090476Y-69529580D01*
X169090476Y-69529580D02*
X169042857Y-69434342D01*
X169042857Y-69434342D02*
X168995238Y-69243866D01*
X168995238Y-69243866D02*
X168995238Y-69005771D01*
X168995238Y-69005771D02*
X169042857Y-68815295D01*
X169042857Y-68815295D02*
X169090476Y-68720057D01*
X169090476Y-68720057D02*
X169138095Y-68672438D01*
X169138095Y-68672438D02*
X169233333Y-68624819D01*
X170519047Y-69624819D02*
X169947619Y-69624819D01*
X170233333Y-69624819D02*
X170233333Y-68624819D01*
X170233333Y-68624819D02*
X170138095Y-68767676D01*
X170138095Y-68767676D02*
X170042857Y-68862914D01*
X170042857Y-68862914D02*
X169947619Y-68910533D01*
X178285714Y-40254819D02*
X178285714Y-41064342D01*
X178285714Y-41064342D02*
X178333333Y-41159580D01*
X178333333Y-41159580D02*
X178380952Y-41207200D01*
X178380952Y-41207200D02*
X178476190Y-41254819D01*
X178476190Y-41254819D02*
X178666666Y-41254819D01*
X178666666Y-41254819D02*
X178761904Y-41207200D01*
X178761904Y-41207200D02*
X178809523Y-41159580D01*
X178809523Y-41159580D02*
X178857142Y-41064342D01*
X178857142Y-41064342D02*
X178857142Y-40254819D01*
X179285714Y-40350057D02*
X179333333Y-40302438D01*
X179333333Y-40302438D02*
X179428571Y-40254819D01*
X179428571Y-40254819D02*
X179666666Y-40254819D01*
X179666666Y-40254819D02*
X179761904Y-40302438D01*
X179761904Y-40302438D02*
X179809523Y-40350057D01*
X179809523Y-40350057D02*
X179857142Y-40445295D01*
X179857142Y-40445295D02*
X179857142Y-40540533D01*
X179857142Y-40540533D02*
X179809523Y-40683390D01*
X179809523Y-40683390D02*
X179238095Y-41254819D01*
X179238095Y-41254819D02*
X179857142Y-41254819D01*
X180476190Y-40254819D02*
X180571428Y-40254819D01*
X180571428Y-40254819D02*
X180666666Y-40302438D01*
X180666666Y-40302438D02*
X180714285Y-40350057D01*
X180714285Y-40350057D02*
X180761904Y-40445295D01*
X180761904Y-40445295D02*
X180809523Y-40635771D01*
X180809523Y-40635771D02*
X180809523Y-40873866D01*
X180809523Y-40873866D02*
X180761904Y-41064342D01*
X180761904Y-41064342D02*
X180714285Y-41159580D01*
X180714285Y-41159580D02*
X180666666Y-41207200D01*
X180666666Y-41207200D02*
X180571428Y-41254819D01*
X180571428Y-41254819D02*
X180476190Y-41254819D01*
X180476190Y-41254819D02*
X180380952Y-41207200D01*
X180380952Y-41207200D02*
X180333333Y-41159580D01*
X180333333Y-41159580D02*
X180285714Y-41064342D01*
X180285714Y-41064342D02*
X180238095Y-40873866D01*
X180238095Y-40873866D02*
X180238095Y-40635771D01*
X180238095Y-40635771D02*
X180285714Y-40445295D01*
X180285714Y-40445295D02*
X180333333Y-40350057D01*
X180333333Y-40350057D02*
X180380952Y-40302438D01*
X180380952Y-40302438D02*
X180476190Y-40254819D01*
X181190476Y-40350057D02*
X181238095Y-40302438D01*
X181238095Y-40302438D02*
X181333333Y-40254819D01*
X181333333Y-40254819D02*
X181571428Y-40254819D01*
X181571428Y-40254819D02*
X181666666Y-40302438D01*
X181666666Y-40302438D02*
X181714285Y-40350057D01*
X181714285Y-40350057D02*
X181761904Y-40445295D01*
X181761904Y-40445295D02*
X181761904Y-40540533D01*
X181761904Y-40540533D02*
X181714285Y-40683390D01*
X181714285Y-40683390D02*
X181142857Y-41254819D01*
X181142857Y-41254819D02*
X181761904Y-41254819D01*
X150571428Y-53738628D02*
X150571428Y-54214819D01*
X150238095Y-53214819D02*
X150571428Y-53738628D01*
X150571428Y-53738628D02*
X150904761Y-53214819D01*
X151142857Y-53214819D02*
X151761904Y-53214819D01*
X151761904Y-53214819D02*
X151428571Y-53595771D01*
X151428571Y-53595771D02*
X151571428Y-53595771D01*
X151571428Y-53595771D02*
X151666666Y-53643390D01*
X151666666Y-53643390D02*
X151714285Y-53691009D01*
X151714285Y-53691009D02*
X151761904Y-53786247D01*
X151761904Y-53786247D02*
X151761904Y-54024342D01*
X151761904Y-54024342D02*
X151714285Y-54119580D01*
X151714285Y-54119580D02*
X151666666Y-54167200D01*
X151666666Y-54167200D02*
X151571428Y-54214819D01*
X151571428Y-54214819D02*
X151285714Y-54214819D01*
X151285714Y-54214819D02*
X151190476Y-54167200D01*
X151190476Y-54167200D02*
X151142857Y-54119580D01*
X152380952Y-53214819D02*
X152476190Y-53214819D01*
X152476190Y-53214819D02*
X152571428Y-53262438D01*
X152571428Y-53262438D02*
X152619047Y-53310057D01*
X152619047Y-53310057D02*
X152666666Y-53405295D01*
X152666666Y-53405295D02*
X152714285Y-53595771D01*
X152714285Y-53595771D02*
X152714285Y-53833866D01*
X152714285Y-53833866D02*
X152666666Y-54024342D01*
X152666666Y-54024342D02*
X152619047Y-54119580D01*
X152619047Y-54119580D02*
X152571428Y-54167200D01*
X152571428Y-54167200D02*
X152476190Y-54214819D01*
X152476190Y-54214819D02*
X152380952Y-54214819D01*
X152380952Y-54214819D02*
X152285714Y-54167200D01*
X152285714Y-54167200D02*
X152238095Y-54119580D01*
X152238095Y-54119580D02*
X152190476Y-54024342D01*
X152190476Y-54024342D02*
X152142857Y-53833866D01*
X152142857Y-53833866D02*
X152142857Y-53595771D01*
X152142857Y-53595771D02*
X152190476Y-53405295D01*
X152190476Y-53405295D02*
X152238095Y-53310057D01*
X152238095Y-53310057D02*
X152285714Y-53262438D01*
X152285714Y-53262438D02*
X152380952Y-53214819D01*
X153666666Y-54214819D02*
X153095238Y-54214819D01*
X153380952Y-54214819D02*
X153380952Y-53214819D01*
X153380952Y-53214819D02*
X153285714Y-53357676D01*
X153285714Y-53357676D02*
X153190476Y-53452914D01*
X153190476Y-53452914D02*
X153095238Y-53500533D01*
X174485714Y-49454819D02*
X174485714Y-50264342D01*
X174485714Y-50264342D02*
X174533333Y-50359580D01*
X174533333Y-50359580D02*
X174580952Y-50407200D01*
X174580952Y-50407200D02*
X174676190Y-50454819D01*
X174676190Y-50454819D02*
X174866666Y-50454819D01*
X174866666Y-50454819D02*
X174961904Y-50407200D01*
X174961904Y-50407200D02*
X175009523Y-50359580D01*
X175009523Y-50359580D02*
X175057142Y-50264342D01*
X175057142Y-50264342D02*
X175057142Y-49454819D01*
X175961904Y-49788152D02*
X175961904Y-50454819D01*
X175723809Y-49407200D02*
X175485714Y-50121485D01*
X175485714Y-50121485D02*
X176104761Y-50121485D01*
X176676190Y-49454819D02*
X176771428Y-49454819D01*
X176771428Y-49454819D02*
X176866666Y-49502438D01*
X176866666Y-49502438D02*
X176914285Y-49550057D01*
X176914285Y-49550057D02*
X176961904Y-49645295D01*
X176961904Y-49645295D02*
X177009523Y-49835771D01*
X177009523Y-49835771D02*
X177009523Y-50073866D01*
X177009523Y-50073866D02*
X176961904Y-50264342D01*
X176961904Y-50264342D02*
X176914285Y-50359580D01*
X176914285Y-50359580D02*
X176866666Y-50407200D01*
X176866666Y-50407200D02*
X176771428Y-50454819D01*
X176771428Y-50454819D02*
X176676190Y-50454819D01*
X176676190Y-50454819D02*
X176580952Y-50407200D01*
X176580952Y-50407200D02*
X176533333Y-50359580D01*
X176533333Y-50359580D02*
X176485714Y-50264342D01*
X176485714Y-50264342D02*
X176438095Y-50073866D01*
X176438095Y-50073866D02*
X176438095Y-49835771D01*
X176438095Y-49835771D02*
X176485714Y-49645295D01*
X176485714Y-49645295D02*
X176533333Y-49550057D01*
X176533333Y-49550057D02*
X176580952Y-49502438D01*
X176580952Y-49502438D02*
X176676190Y-49454819D01*
X177961904Y-50454819D02*
X177390476Y-50454819D01*
X177676190Y-50454819D02*
X177676190Y-49454819D01*
X177676190Y-49454819D02*
X177580952Y-49597676D01*
X177580952Y-49597676D02*
X177485714Y-49692914D01*
X177485714Y-49692914D02*
X177390476Y-49740533D01*
X187792800Y-48989411D02*
X187745180Y-49132268D01*
X187745180Y-49132268D02*
X187745180Y-49370363D01*
X187745180Y-49370363D02*
X187792800Y-49465601D01*
X187792800Y-49465601D02*
X187840419Y-49513220D01*
X187840419Y-49513220D02*
X187935657Y-49560839D01*
X187935657Y-49560839D02*
X188030895Y-49560839D01*
X188030895Y-49560839D02*
X188126133Y-49513220D01*
X188126133Y-49513220D02*
X188173752Y-49465601D01*
X188173752Y-49465601D02*
X188221371Y-49370363D01*
X188221371Y-49370363D02*
X188268990Y-49179887D01*
X188268990Y-49179887D02*
X188316609Y-49084649D01*
X188316609Y-49084649D02*
X188364228Y-49037030D01*
X188364228Y-49037030D02*
X188459466Y-48989411D01*
X188459466Y-48989411D02*
X188554704Y-48989411D01*
X188554704Y-48989411D02*
X188649942Y-49037030D01*
X188649942Y-49037030D02*
X188697561Y-49084649D01*
X188697561Y-49084649D02*
X188745180Y-49179887D01*
X188745180Y-49179887D02*
X188745180Y-49417982D01*
X188745180Y-49417982D02*
X188697561Y-49560839D01*
X188745180Y-49894173D02*
X187745180Y-50132268D01*
X187745180Y-50132268D02*
X188459466Y-50322744D01*
X188459466Y-50322744D02*
X187745180Y-50513220D01*
X187745180Y-50513220D02*
X188745180Y-50751316D01*
X187745180Y-51656077D02*
X187745180Y-51084649D01*
X187745180Y-51370363D02*
X188745180Y-51370363D01*
X188745180Y-51370363D02*
X188602323Y-51275125D01*
X188602323Y-51275125D02*
X188507085Y-51179887D01*
X188507085Y-51179887D02*
X188459466Y-51084649D01*
X188745180Y-52275125D02*
X188745180Y-52370363D01*
X188745180Y-52370363D02*
X188697561Y-52465601D01*
X188697561Y-52465601D02*
X188649942Y-52513220D01*
X188649942Y-52513220D02*
X188554704Y-52560839D01*
X188554704Y-52560839D02*
X188364228Y-52608458D01*
X188364228Y-52608458D02*
X188126133Y-52608458D01*
X188126133Y-52608458D02*
X187935657Y-52560839D01*
X187935657Y-52560839D02*
X187840419Y-52513220D01*
X187840419Y-52513220D02*
X187792800Y-52465601D01*
X187792800Y-52465601D02*
X187745180Y-52370363D01*
X187745180Y-52370363D02*
X187745180Y-52275125D01*
X187745180Y-52275125D02*
X187792800Y-52179887D01*
X187792800Y-52179887D02*
X187840419Y-52132268D01*
X187840419Y-52132268D02*
X187935657Y-52084649D01*
X187935657Y-52084649D02*
X188126133Y-52037030D01*
X188126133Y-52037030D02*
X188364228Y-52037030D01*
X188364228Y-52037030D02*
X188554704Y-52084649D01*
X188554704Y-52084649D02*
X188649942Y-52132268D01*
X188649942Y-52132268D02*
X188697561Y-52179887D01*
X188697561Y-52179887D02*
X188745180Y-52275125D01*
X188649942Y-52989411D02*
X188697561Y-53037030D01*
X188697561Y-53037030D02*
X188745180Y-53132268D01*
X188745180Y-53132268D02*
X188745180Y-53370363D01*
X188745180Y-53370363D02*
X188697561Y-53465601D01*
X188697561Y-53465601D02*
X188649942Y-53513220D01*
X188649942Y-53513220D02*
X188554704Y-53560839D01*
X188554704Y-53560839D02*
X188459466Y-53560839D01*
X188459466Y-53560839D02*
X188316609Y-53513220D01*
X188316609Y-53513220D02*
X187745180Y-52941792D01*
X187745180Y-52941792D02*
X187745180Y-53560839D01*
D11*
%TO.C,SW101*%
X184300000Y-44500000D02*
X183600000Y-44500000D01*
X184300000Y-45400000D02*
X184300000Y-43600000D01*
X185000000Y-42500000D02*
X183000000Y-42500000D01*
X185000000Y-42500000D02*
X185000000Y-43400000D01*
X185000000Y-42500000D02*
X187000000Y-42500000D01*
X185000000Y-45600000D02*
X185000000Y-46500000D01*
X185000000Y-46500000D02*
X183000000Y-46500000D01*
X185000000Y-46500000D02*
X187000000Y-46500000D01*
X185200000Y-43600000D02*
G75*
G03*
X185200000Y-43600000I-200000J0D01*
G01*
X187000000Y-44500000D02*
G75*
G03*
X187000000Y-44500000I-2000000J0D01*
G01*
X185200000Y-45400000D02*
G75*
G03*
X185200000Y-45400000I-200000J0D01*
G01*
%TO.C,SW104*%
X184300000Y-65500000D02*
X183600000Y-65500000D01*
X184300000Y-66400000D02*
X184300000Y-64600000D01*
X185000000Y-63500000D02*
X183000000Y-63500000D01*
X185000000Y-63500000D02*
X185000000Y-64400000D01*
X185000000Y-63500000D02*
X187000000Y-63500000D01*
X185000000Y-66600000D02*
X185000000Y-67500000D01*
X185000000Y-67500000D02*
X183000000Y-67500000D01*
X185000000Y-67500000D02*
X187000000Y-67500000D01*
X185200000Y-64600000D02*
G75*
G03*
X185200000Y-64600000I-200000J0D01*
G01*
X187000000Y-65500000D02*
G75*
G03*
X187000000Y-65500000I-2000000J0D01*
G01*
X185200000Y-66400000D02*
G75*
G03*
X185200000Y-66400000I-200000J0D01*
G01*
%TO.C,SW103*%
X184300000Y-58500000D02*
X183600000Y-58500000D01*
X184300000Y-59400000D02*
X184300000Y-57600000D01*
X185000000Y-56500000D02*
X183000000Y-56500000D01*
X185000000Y-56500000D02*
X185000000Y-57400000D01*
X185000000Y-56500000D02*
X187000000Y-56500000D01*
X185000000Y-59600000D02*
X185000000Y-60500000D01*
X185000000Y-60500000D02*
X183000000Y-60500000D01*
X185000000Y-60500000D02*
X187000000Y-60500000D01*
X185200000Y-57600000D02*
G75*
G03*
X185200000Y-57600000I-200000J0D01*
G01*
X187000000Y-58500000D02*
G75*
G03*
X187000000Y-58500000I-2000000J0D01*
G01*
X185200000Y-59400000D02*
G75*
G03*
X185200000Y-59400000I-200000J0D01*
G01*
%TO.C,C313*%
X160985000Y-61822164D02*
X160985000Y-62037836D01*
X160265000Y-61822164D02*
X160265000Y-62037836D01*
%TO.C,J401*%
X169350000Y-44100000D02*
X168350000Y-44100000D01*
X168350000Y-44100000D02*
X168350000Y-45800000D01*
X172250000Y-44800000D02*
X171550000Y-44800000D01*
X172250000Y-44800000D02*
X172250000Y-59200000D01*
X168300000Y-58250000D02*
X167250000Y-58250000D01*
X171350000Y-58950000D02*
X171350000Y-44950000D01*
X172250000Y-59200000D02*
X171550000Y-59200000D01*
X169300000Y-60000000D02*
X168300000Y-60000000D01*
X168300000Y-60000000D02*
X168300000Y-58250000D01*
%TO.C,U201*%
X152600000Y-50850000D02*
X152600000Y-49300000D01*
X154400000Y-49300000D02*
X154400000Y-50600000D01*
%TO.C,U302*%
X160410000Y-59060000D02*
X159935000Y-59060000D01*
X155190000Y-58585000D02*
X155190000Y-59060000D01*
X160410000Y-58585000D02*
X160410000Y-59060000D01*
X155190000Y-54315000D02*
X155190000Y-53840000D01*
X160410000Y-54315000D02*
X160410000Y-53840000D01*
X155190000Y-53840000D02*
X155665000Y-53840000D01*
X160410000Y-53840000D02*
X159935000Y-53840000D01*
%TO.C,D401*%
X179810000Y-51100000D02*
X182010000Y-51100000D01*
X179810000Y-51200000D02*
X179810000Y-51100000D01*
X179810000Y-52100000D02*
X179810000Y-52300000D01*
X179810000Y-53200000D02*
X179810000Y-53300000D01*
X179810000Y-53300000D02*
X182060000Y-53300000D01*
X181110000Y-53300000D02*
X181110000Y-51100000D01*
X181310000Y-51100000D02*
X181310000Y-53300000D01*
X182010000Y-51100000D02*
X182010000Y-51200000D01*
X182010000Y-52100000D02*
X182010000Y-52300000D01*
X182060000Y-53300000D02*
X182060000Y-53200000D01*
%TO.C,C204*%
X179592164Y-45440000D02*
X179807836Y-45440000D01*
X179592164Y-46160000D02*
X179807836Y-46160000D01*
%TO.C,U301*%
X161175000Y-58975000D02*
X161435000Y-58975000D01*
X161435000Y-58975000D02*
X161435000Y-60650000D01*
X166625000Y-58975000D02*
X166365000Y-58975000D01*
X161175000Y-56250000D02*
X161175000Y-58975000D01*
X161175000Y-56250000D02*
X161175000Y-53525000D01*
X166625000Y-56250000D02*
X166625000Y-58975000D01*
X166625000Y-56250000D02*
X166625000Y-53525000D01*
X161175000Y-53525000D02*
X161435000Y-53525000D01*
X166625000Y-53525000D02*
X166365000Y-53525000D01*
%TO.C,C201*%
X176327836Y-41960000D02*
X176112164Y-41960000D01*
X176327836Y-41240000D02*
X176112164Y-41240000D01*
%TO.C,U202*%
X180518289Y-43200000D02*
X180518289Y-41400000D01*
X180518289Y-43200000D02*
X180518289Y-44000000D01*
X177398289Y-43200000D02*
X177398289Y-42400000D01*
X177398289Y-43200000D02*
X177398289Y-44000000D01*
D12*
%TO.C,Y301*%
X151000000Y-58350000D02*
X153660000Y-58350000D01*
X153660000Y-58350000D02*
X153660000Y-55250000D01*
D11*
%TO.C,U401*%
X180200000Y-47540000D02*
X178400000Y-47540000D01*
X180200000Y-47540000D02*
X181000000Y-47540000D01*
X180200000Y-50660000D02*
X179400000Y-50660000D01*
X180200000Y-50660000D02*
X181000000Y-50660000D01*
%TO.C,SW102*%
X185000000Y-50800000D02*
X185000000Y-50100000D01*
X184100000Y-50800000D02*
X185900000Y-50800000D01*
X187000000Y-51500000D02*
X187000000Y-49500000D01*
X187000000Y-51500000D02*
X186100000Y-51500000D01*
X187000000Y-51500000D02*
X187000000Y-53500000D01*
X183900000Y-51500000D02*
X183000000Y-51500000D01*
X183000000Y-51500000D02*
X183000000Y-49500000D01*
X183000000Y-51500000D02*
X183000000Y-53500000D01*
X186100000Y-51500000D02*
G75*
G03*
X186100000Y-51500000I-200000J0D01*
G01*
X187000000Y-51500000D02*
G75*
G03*
X187000000Y-51500000I-2000000J0D01*
G01*
X184300000Y-51500000D02*
G75*
G03*
X184300000Y-51500000I-200000J0D01*
G01*
%TD*%
%LPC*%
D13*
%TO.C,C309*%
X159700000Y-61425000D03*
X159700000Y-62065000D03*
%TD*%
D14*
%TO.C,C311*%
X160545000Y-60475000D03*
X159905000Y-60475000D03*
%TD*%
D15*
%TO.C,L302*%
X158000000Y-60800000D03*
X158452548Y-61252548D03*
%TD*%
D14*
%TO.C,C305*%
X152575000Y-58850000D03*
X151935000Y-58850000D03*
%TD*%
D16*
%TO.C,C307*%
X157426274Y-60223726D03*
X156973726Y-60676274D03*
%TD*%
D17*
%TO.C,J201*%
X163580000Y-47280000D03*
X162780000Y-47280000D03*
D18*
X161630000Y-47280000D03*
X160630000Y-47280000D03*
X160130000Y-47280000D03*
X159130000Y-47280000D03*
D17*
X157980000Y-47280000D03*
X157180000Y-47280000D03*
X157180000Y-47280000D03*
X157980000Y-47280000D03*
D18*
X158630000Y-47280000D03*
X159630000Y-47280000D03*
X161130000Y-47280000D03*
X162130000Y-47280000D03*
D17*
X162780000Y-47280000D03*
X163580000Y-47280000D03*
D19*
X165980000Y-46100000D03*
D20*
X166000000Y-42100000D03*
D19*
X154780000Y-46100000D03*
D20*
X154760000Y-42100000D03*
%TD*%
D21*
%TO.C,SW101*%
X181900000Y-42650000D03*
X181900000Y-46350000D03*
X188100000Y-42650000D03*
X188100000Y-46350000D03*
%TD*%
%TO.C,SW104*%
X181900000Y-63650000D03*
X181900000Y-67350000D03*
X188100000Y-63650000D03*
X188100000Y-67350000D03*
%TD*%
%TO.C,SW103*%
X181900000Y-56650000D03*
X181900000Y-60350000D03*
X188100000Y-56650000D03*
X188100000Y-60350000D03*
%TD*%
D14*
%TO.C,C308*%
X154225000Y-59525000D03*
X153585000Y-59525000D03*
%TD*%
D13*
%TO.C,R305*%
X155725000Y-51155000D03*
X155725000Y-51795000D03*
%TD*%
D22*
%TO.C,C303*%
X167890000Y-61400000D03*
X168530000Y-61400000D03*
%TD*%
D13*
%TO.C,C203*%
X178300000Y-45725000D03*
X178300000Y-46365000D03*
%TD*%
%TO.C,C401*%
X166400000Y-48285000D03*
X166400000Y-48925000D03*
%TD*%
D14*
%TO.C,R202*%
X163725000Y-49175000D03*
X163085000Y-49175000D03*
%TD*%
D23*
%TO.C,C313*%
X160625000Y-61450000D03*
X160625000Y-62410000D03*
%TD*%
D13*
%TO.C,R306*%
X159475000Y-51160000D03*
X159475000Y-51800000D03*
%TD*%
%TO.C,R307*%
X156475000Y-51160000D03*
X156475000Y-51800000D03*
%TD*%
D22*
%TO.C,R201*%
X155130000Y-49100000D03*
X155770000Y-49100000D03*
%TD*%
D13*
%TO.C,R303*%
X157975000Y-51160000D03*
X157975000Y-51800000D03*
%TD*%
D14*
%TO.C,C310*%
X153700000Y-60300000D03*
X153060000Y-60300000D03*
%TD*%
D24*
%TO.C,J401*%
X167750000Y-57750000D03*
X167750000Y-57250000D03*
X167750000Y-56750000D03*
X167750000Y-56250000D03*
X167750000Y-55750000D03*
X167750000Y-55250000D03*
X167750000Y-54750000D03*
X167750000Y-54250000D03*
X167750000Y-53750000D03*
X167750000Y-53250000D03*
X167750000Y-52750000D03*
X167750000Y-52250000D03*
X167750000Y-51750000D03*
X167750000Y-51250000D03*
X167750000Y-50750000D03*
X167750000Y-50250000D03*
X167750000Y-49750000D03*
X167750000Y-49250000D03*
X167750000Y-48750000D03*
X167750000Y-48250000D03*
X167750000Y-47750000D03*
X167750000Y-47250000D03*
X167750000Y-46750000D03*
X167750000Y-46250000D03*
D21*
X170450000Y-59900000D03*
X170450000Y-44100000D03*
%TD*%
D22*
%TO.C,C306*%
X162020000Y-50970000D03*
X162660000Y-50970000D03*
%TD*%
D13*
%TO.C,R304*%
X157225000Y-51160000D03*
X157225000Y-51800000D03*
%TD*%
%TO.C,R308*%
X158725000Y-51160000D03*
X158725000Y-51800000D03*
%TD*%
D22*
%TO.C,R401*%
X168410000Y-42650000D03*
X169050000Y-42650000D03*
%TD*%
D25*
%TO.C,U201*%
X153000000Y-50700000D03*
X153500000Y-50700000D03*
X154000000Y-50700000D03*
X154000000Y-49200000D03*
X153500000Y-49200000D03*
X153000000Y-49200000D03*
%TD*%
D26*
%TO.C,U302*%
X156050000Y-58887500D03*
X156550000Y-58887500D03*
X157050000Y-58887500D03*
X157550000Y-58887500D03*
X158050000Y-58887500D03*
X158550000Y-58887500D03*
X159050000Y-58887500D03*
X159550000Y-58887500D03*
D27*
X160237500Y-58200000D03*
X160237500Y-57700000D03*
X160237500Y-57200000D03*
X160237500Y-56700000D03*
X160237500Y-56200000D03*
X160237500Y-55700000D03*
X160237500Y-55200000D03*
X160237500Y-54700000D03*
D26*
X159550000Y-54012500D03*
X159050000Y-54012500D03*
X158550000Y-54012500D03*
X158050000Y-54012500D03*
X157550000Y-54012500D03*
X157050000Y-54012500D03*
X156550000Y-54012500D03*
X156050000Y-54012500D03*
D27*
X155362500Y-54700000D03*
X155362500Y-55200000D03*
X155362500Y-55700000D03*
X155362500Y-56200000D03*
X155362500Y-56700000D03*
X155362500Y-57200000D03*
X155362500Y-57700000D03*
X155362500Y-58200000D03*
D28*
X157800000Y-56450000D03*
%TD*%
D22*
%TO.C,C304*%
X156030000Y-62400000D03*
X156670000Y-62400000D03*
%TD*%
%TO.C,C302*%
X151535000Y-54550000D03*
X152175000Y-54550000D03*
%TD*%
D29*
%TO.C,C312*%
X160600000Y-52645000D03*
X160600000Y-52005000D03*
%TD*%
D30*
%TO.C,D401*%
X181810000Y-52750000D03*
X181810000Y-51650000D03*
X179980000Y-51650000D03*
X179980000Y-52750000D03*
%TD*%
D13*
%TO.C,L301*%
X156000000Y-60980000D03*
X156000000Y-61620000D03*
%TD*%
D31*
%TO.C,C204*%
X179220000Y-45800000D03*
X180180000Y-45800000D03*
%TD*%
D32*
%TO.C,U301*%
X161995000Y-59850000D03*
X163265000Y-59850000D03*
X164535000Y-59850000D03*
X165805000Y-59850000D03*
X165805000Y-52650000D03*
X164535000Y-52650000D03*
X163265000Y-52650000D03*
X161995000Y-52650000D03*
%TD*%
D33*
%TO.C,C201*%
X176700000Y-41600000D03*
X175740000Y-41600000D03*
%TD*%
D13*
%TO.C,R302*%
X154200000Y-57280000D03*
X154200000Y-57920000D03*
%TD*%
D34*
%TO.C,U202*%
X179908289Y-42062500D03*
X178958289Y-42062500D03*
X178008289Y-42062500D03*
X178008289Y-44337500D03*
X179908289Y-44337500D03*
%TD*%
D35*
%TO.C,Y301*%
X152950000Y-57550000D03*
X152950000Y-55850000D03*
X151550000Y-55850000D03*
X151550000Y-57550000D03*
%TD*%
D14*
%TO.C,C202*%
X176675000Y-42500000D03*
X176035000Y-42500000D03*
%TD*%
%TO.C,C301*%
X155975000Y-60200000D03*
X155335000Y-60200000D03*
%TD*%
D36*
%TO.C,U401*%
X179062500Y-48150000D03*
X179062500Y-49100000D03*
X179062500Y-50050000D03*
X181337500Y-50050000D03*
X181337500Y-49100000D03*
X181337500Y-48150000D03*
%TD*%
D14*
%TO.C,R301*%
X166890000Y-61400000D03*
X166250000Y-61400000D03*
%TD*%
D37*
%TO.C,SW102*%
X186850000Y-48400000D03*
X183150000Y-48400000D03*
X186850000Y-54600000D03*
X183150000Y-54600000D03*
%TD*%
%LPD*%
M02*
