%TF.GenerationSoftware,KiCad,Pcbnew,7.0.7*%
%TF.CreationDate,2023-12-08T19:41:31-05:00*%
%TF.ProjectId,pixie-rev-4,70697869-652d-4726-9576-2d342e6b6963,rev?*%
%TF.SameCoordinates,Original*%
%TF.FileFunction,Paste,Top*%
%TF.FilePolarity,Positive*%
%FSLAX46Y46*%
G04 Gerber Fmt 4.6, Leading zero omitted, Abs format (unit mm)*
G04 Created by KiCad (PCBNEW 7.0.7) date 2023-12-08 19:41:31*
%MOMM*%
%LPD*%
G01*
G04 APERTURE LIST*
G04 Aperture macros list*
%AMRoundRect*
0 Rectangle with rounded corners*
0 $1 Rounding radius*
0 $2 $3 $4 $5 $6 $7 $8 $9 X,Y pos of 4 corners*
0 Add a 4 corners polygon primitive as box body*
4,1,4,$2,$3,$4,$5,$6,$7,$8,$9,$2,$3,0*
0 Add four circle primitives for the rounded corners*
1,1,$1+$1,$2,$3*
1,1,$1+$1,$4,$5*
1,1,$1+$1,$6,$7*
1,1,$1+$1,$8,$9*
0 Add four rect primitives between the rounded corners*
20,1,$1+$1,$2,$3,$4,$5,0*
20,1,$1+$1,$4,$5,$6,$7,0*
20,1,$1+$1,$6,$7,$8,$9,0*
20,1,$1+$1,$8,$9,$2,$3,0*%
G04 Aperture macros list end*
%ADD10RoundRect,0.079500X-0.100500X0.079500X-0.100500X-0.079500X0.100500X-0.079500X0.100500X0.079500X0*%
%ADD11RoundRect,0.079500X0.079500X0.100500X-0.079500X0.100500X-0.079500X-0.100500X0.079500X-0.100500X0*%
%ADD12RoundRect,0.079500X-0.127279X-0.014849X-0.014849X-0.127279X0.127279X0.014849X0.014849X0.127279X0*%
%ADD13RoundRect,0.079500X-0.014849X0.127279X-0.127279X0.014849X0.014849X-0.127279X0.127279X-0.014849X0*%
%ADD14R,0.600000X1.160000*%
%ADD15R,0.300000X1.160000*%
%ADD16R,1.800000X1.100000*%
%ADD17RoundRect,0.079500X-0.079500X-0.100500X0.079500X-0.100500X0.079500X0.100500X-0.079500X0.100500X0*%
%ADD18RoundRect,0.140000X-0.170000X0.140000X-0.170000X-0.140000X0.170000X-0.140000X0.170000X0.140000X0*%
%ADD19R,0.900000X0.300000*%
%ADD20R,0.340000X0.700000*%
%ADD21RoundRect,0.207500X0.207500X-0.207500X0.207500X0.207500X-0.207500X0.207500X-0.207500X-0.207500X0*%
%ADD22RoundRect,0.062500X0.062500X-0.375000X0.062500X0.375000X-0.062500X0.375000X-0.062500X-0.375000X0*%
%ADD23RoundRect,0.062500X0.375000X-0.062500X0.375000X0.062500X-0.375000X0.062500X-0.375000X-0.062500X0*%
%ADD24RoundRect,0.079500X0.100500X-0.079500X0.100500X0.079500X-0.100500X0.079500X-0.100500X-0.079500X0*%
%ADD25R,0.700000X0.700000*%
%ADD26RoundRect,0.140000X-0.140000X-0.170000X0.140000X-0.170000X0.140000X0.170000X-0.140000X0.170000X0*%
%ADD27RoundRect,0.150000X0.150000X-0.650000X0.150000X0.650000X-0.150000X0.650000X-0.150000X-0.650000X0*%
%ADD28RoundRect,0.140000X0.140000X0.170000X-0.140000X0.170000X-0.140000X-0.170000X0.140000X-0.170000X0*%
%ADD29RoundRect,0.150000X-0.150000X0.512500X-0.150000X-0.512500X0.150000X-0.512500X0.150000X0.512500X0*%
%ADD30R,1.100000X1.200000*%
%ADD31RoundRect,0.150000X-0.512500X-0.150000X0.512500X-0.150000X0.512500X0.150000X-0.512500X0.150000X0*%
%ADD32R,1.100000X1.800000*%
G04 APERTURE END LIST*
D10*
%TO.C,C309*%
X159700000Y-61400000D03*
X159700000Y-62090000D03*
%TD*%
D11*
%TO.C,C311*%
X160570000Y-60475000D03*
X159880000Y-60475000D03*
%TD*%
D12*
%TO.C,L302*%
X157982322Y-60782322D03*
X158470226Y-61270226D03*
%TD*%
D11*
%TO.C,C305*%
X152600000Y-58850000D03*
X151910000Y-58850000D03*
%TD*%
D13*
%TO.C,C307*%
X157443952Y-60206048D03*
X156956048Y-60693952D03*
%TD*%
D14*
%TO.C,J201*%
X163580000Y-47280000D03*
X162780000Y-47280000D03*
D15*
X161630000Y-47280000D03*
X160630000Y-47280000D03*
X160130000Y-47280000D03*
X159130000Y-47280000D03*
D14*
X157980000Y-47280000D03*
X157180000Y-47280000D03*
X157180000Y-47280000D03*
X157980000Y-47280000D03*
D15*
X158630000Y-47280000D03*
X159630000Y-47280000D03*
X161130000Y-47280000D03*
X162130000Y-47280000D03*
D14*
X162780000Y-47280000D03*
X163580000Y-47280000D03*
%TD*%
D16*
%TO.C,SW101*%
X181900000Y-42650000D03*
X181900000Y-46350000D03*
X188100000Y-42650000D03*
X188100000Y-46350000D03*
%TD*%
%TO.C,SW104*%
X181900000Y-63650000D03*
X181900000Y-67350000D03*
X188100000Y-63650000D03*
X188100000Y-67350000D03*
%TD*%
%TO.C,SW103*%
X181900000Y-56650000D03*
X181900000Y-60350000D03*
X188100000Y-56650000D03*
X188100000Y-60350000D03*
%TD*%
D11*
%TO.C,C308*%
X154250000Y-59525000D03*
X153560000Y-59525000D03*
%TD*%
D10*
%TO.C,R305*%
X155725000Y-51130000D03*
X155725000Y-51820000D03*
%TD*%
D17*
%TO.C,C303*%
X167865000Y-61400000D03*
X168555000Y-61400000D03*
%TD*%
D10*
%TO.C,C203*%
X178300000Y-45700000D03*
X178300000Y-46390000D03*
%TD*%
%TO.C,C401*%
X166400000Y-48260000D03*
X166400000Y-48950000D03*
%TD*%
D11*
%TO.C,R202*%
X163750000Y-49175000D03*
X163060000Y-49175000D03*
%TD*%
D18*
%TO.C,C313*%
X160625000Y-61450000D03*
X160625000Y-62410000D03*
%TD*%
D10*
%TO.C,R306*%
X159475000Y-51135000D03*
X159475000Y-51825000D03*
%TD*%
%TO.C,R307*%
X156475000Y-51135000D03*
X156475000Y-51825000D03*
%TD*%
D17*
%TO.C,R201*%
X155105000Y-49100000D03*
X155795000Y-49100000D03*
%TD*%
D10*
%TO.C,R303*%
X157975000Y-51135000D03*
X157975000Y-51825000D03*
%TD*%
D11*
%TO.C,C310*%
X153725000Y-60300000D03*
X153035000Y-60300000D03*
%TD*%
D19*
%TO.C,J401*%
X167750000Y-57750000D03*
X167750000Y-57250000D03*
X167750000Y-56750000D03*
X167750000Y-56250000D03*
X167750000Y-55750000D03*
X167750000Y-55250000D03*
X167750000Y-54750000D03*
X167750000Y-54250000D03*
X167750000Y-53750000D03*
X167750000Y-53250000D03*
X167750000Y-52750000D03*
X167750000Y-52250000D03*
X167750000Y-51750000D03*
X167750000Y-51250000D03*
X167750000Y-50750000D03*
X167750000Y-50250000D03*
X167750000Y-49750000D03*
X167750000Y-49250000D03*
X167750000Y-48750000D03*
X167750000Y-48250000D03*
X167750000Y-47750000D03*
X167750000Y-47250000D03*
X167750000Y-46750000D03*
X167750000Y-46250000D03*
D16*
X170450000Y-59900000D03*
X170450000Y-44100000D03*
%TD*%
D17*
%TO.C,C306*%
X161995000Y-50970000D03*
X162685000Y-50970000D03*
%TD*%
D10*
%TO.C,R304*%
X157225000Y-51135000D03*
X157225000Y-51825000D03*
%TD*%
%TO.C,R308*%
X158725000Y-51135000D03*
X158725000Y-51825000D03*
%TD*%
D17*
%TO.C,R401*%
X168385000Y-42650000D03*
X169075000Y-42650000D03*
%TD*%
D20*
%TO.C,U201*%
X153000000Y-50700000D03*
X153500000Y-50700000D03*
X154000000Y-50700000D03*
X154000000Y-49200000D03*
X153500000Y-49200000D03*
X153000000Y-49200000D03*
%TD*%
D21*
%TO.C,U302*%
X156770000Y-57480000D03*
X157800000Y-57480000D03*
X158830000Y-57480000D03*
X156770000Y-56450000D03*
X157800000Y-56450000D03*
X158830000Y-56450000D03*
X156770000Y-55420000D03*
X157800000Y-55420000D03*
X158830000Y-55420000D03*
D22*
X156050000Y-58887500D03*
X156550000Y-58887500D03*
X157050000Y-58887500D03*
X157550000Y-58887500D03*
X158050000Y-58887500D03*
X158550000Y-58887500D03*
X159050000Y-58887500D03*
X159550000Y-58887500D03*
D23*
X160237500Y-58200000D03*
X160237500Y-57700000D03*
X160237500Y-57200000D03*
X160237500Y-56700000D03*
X160237500Y-56200000D03*
X160237500Y-55700000D03*
X160237500Y-55200000D03*
X160237500Y-54700000D03*
D22*
X159550000Y-54012500D03*
X159050000Y-54012500D03*
X158550000Y-54012500D03*
X158050000Y-54012500D03*
X157550000Y-54012500D03*
X157050000Y-54012500D03*
X156550000Y-54012500D03*
X156050000Y-54012500D03*
D23*
X155362500Y-54700000D03*
X155362500Y-55200000D03*
X155362500Y-55700000D03*
X155362500Y-56200000D03*
X155362500Y-56700000D03*
X155362500Y-57200000D03*
X155362500Y-57700000D03*
X155362500Y-58200000D03*
%TD*%
D17*
%TO.C,C304*%
X156005000Y-62400000D03*
X156695000Y-62400000D03*
%TD*%
%TO.C,C302*%
X151510000Y-54550000D03*
X152200000Y-54550000D03*
%TD*%
D24*
%TO.C,C312*%
X160600000Y-52670000D03*
X160600000Y-51980000D03*
%TD*%
D25*
%TO.C,D401*%
X181810000Y-52750000D03*
X181810000Y-51650000D03*
X179980000Y-51650000D03*
X179980000Y-52750000D03*
%TD*%
D10*
%TO.C,L301*%
X156000000Y-60955000D03*
X156000000Y-61645000D03*
%TD*%
D26*
%TO.C,C204*%
X179220000Y-45800000D03*
X180180000Y-45800000D03*
%TD*%
D27*
%TO.C,U301*%
X161995000Y-59850000D03*
X163265000Y-59850000D03*
X164535000Y-59850000D03*
X165805000Y-59850000D03*
X165805000Y-52650000D03*
X164535000Y-52650000D03*
X163265000Y-52650000D03*
X161995000Y-52650000D03*
%TD*%
D28*
%TO.C,C201*%
X176700000Y-41600000D03*
X175740000Y-41600000D03*
%TD*%
D10*
%TO.C,R302*%
X154200000Y-57255000D03*
X154200000Y-57945000D03*
%TD*%
D29*
%TO.C,U202*%
X179908289Y-42062500D03*
X178958289Y-42062500D03*
X178008289Y-42062500D03*
X178008289Y-44337500D03*
X179908289Y-44337500D03*
%TD*%
D30*
%TO.C,Y301*%
X152950000Y-57550000D03*
X152950000Y-55850000D03*
X151550000Y-55850000D03*
X151550000Y-57550000D03*
%TD*%
D11*
%TO.C,C202*%
X176700000Y-42500000D03*
X176010000Y-42500000D03*
%TD*%
%TO.C,C301*%
X156000000Y-60200000D03*
X155310000Y-60200000D03*
%TD*%
D31*
%TO.C,U401*%
X179062500Y-48150000D03*
X179062500Y-49100000D03*
X179062500Y-50050000D03*
X181337500Y-50050000D03*
X181337500Y-49100000D03*
X181337500Y-48150000D03*
%TD*%
D11*
%TO.C,R301*%
X166915000Y-61400000D03*
X166225000Y-61400000D03*
%TD*%
D32*
%TO.C,SW102*%
X186850000Y-48400000D03*
X183150000Y-48400000D03*
X186850000Y-54600000D03*
X183150000Y-54600000D03*
%TD*%
M02*
