%TF.GenerationSoftware,KiCad,Pcbnew,7.0.7*%
%TF.CreationDate,2023-12-08T19:41:31-05:00*%
%TF.ProjectId,pixie-rev-4,70697869-652d-4726-9576-2d342e6b6963,rev?*%
%TF.SameCoordinates,Original*%
%TF.FileFunction,Legend,Bot*%
%TF.FilePolarity,Positive*%
%FSLAX46Y46*%
G04 Gerber Fmt 4.6, Leading zero omitted, Abs format (unit mm)*
G04 Created by KiCad (PCBNEW 7.0.7) date 2023-12-08 19:41:31*
%MOMM*%
%LPD*%
G01*
G04 APERTURE LIST*
%ADD10C,0.300000*%
%ADD11C,0.150000*%
%ADD12C,0.120000*%
%ADD13O,1.300000X2.100000*%
%ADD14O,1.300000X2.500000*%
%ADD15R,1.500000X1.500000*%
G04 APERTURE END LIST*
D10*
X185459774Y-44124755D02*
X185602632Y-44053326D01*
X185602632Y-44053326D02*
X185816917Y-44053326D01*
X185816917Y-44053326D02*
X186031203Y-44124755D01*
X186031203Y-44124755D02*
X186174060Y-44267612D01*
X186174060Y-44267612D02*
X186245489Y-44410469D01*
X186245489Y-44410469D02*
X186316917Y-44696183D01*
X186316917Y-44696183D02*
X186316917Y-44910469D01*
X186316917Y-44910469D02*
X186245489Y-45196183D01*
X186245489Y-45196183D02*
X186174060Y-45339040D01*
X186174060Y-45339040D02*
X186031203Y-45481898D01*
X186031203Y-45481898D02*
X185816917Y-45553326D01*
X185816917Y-45553326D02*
X185674060Y-45553326D01*
X185674060Y-45553326D02*
X185459774Y-45481898D01*
X185459774Y-45481898D02*
X185388346Y-45410469D01*
X185388346Y-45410469D02*
X185388346Y-44910469D01*
X185388346Y-44910469D02*
X185674060Y-44910469D01*
X184745489Y-45553326D02*
X184745489Y-44053326D01*
X184745489Y-44053326D02*
X183888346Y-45553326D01*
X183888346Y-45553326D02*
X183888346Y-44053326D01*
X183174060Y-45553326D02*
X183174060Y-44053326D01*
X183174060Y-44053326D02*
X182816917Y-44053326D01*
X182816917Y-44053326D02*
X182602631Y-44124755D01*
X182602631Y-44124755D02*
X182459774Y-44267612D01*
X182459774Y-44267612D02*
X182388345Y-44410469D01*
X182388345Y-44410469D02*
X182316917Y-44696183D01*
X182316917Y-44696183D02*
X182316917Y-44910469D01*
X182316917Y-44910469D02*
X182388345Y-45196183D01*
X182388345Y-45196183D02*
X182459774Y-45339040D01*
X182459774Y-45339040D02*
X182602631Y-45481898D01*
X182602631Y-45481898D02*
X182816917Y-45553326D01*
X182816917Y-45553326D02*
X183174060Y-45553326D01*
X185745489Y-47417612D02*
X185531203Y-47489040D01*
X185531203Y-47489040D02*
X185459774Y-47560469D01*
X185459774Y-47560469D02*
X185388346Y-47703326D01*
X185388346Y-47703326D02*
X185388346Y-47917612D01*
X185388346Y-47917612D02*
X185459774Y-48060469D01*
X185459774Y-48060469D02*
X185531203Y-48131898D01*
X185531203Y-48131898D02*
X185674060Y-48203326D01*
X185674060Y-48203326D02*
X186245489Y-48203326D01*
X186245489Y-48203326D02*
X186245489Y-46703326D01*
X186245489Y-46703326D02*
X185745489Y-46703326D01*
X185745489Y-46703326D02*
X185602632Y-46774755D01*
X185602632Y-46774755D02*
X185531203Y-46846183D01*
X185531203Y-46846183D02*
X185459774Y-46989040D01*
X185459774Y-46989040D02*
X185459774Y-47131898D01*
X185459774Y-47131898D02*
X185531203Y-47274755D01*
X185531203Y-47274755D02*
X185602632Y-47346183D01*
X185602632Y-47346183D02*
X185745489Y-47417612D01*
X185745489Y-47417612D02*
X186245489Y-47417612D01*
X184459774Y-46703326D02*
X184174060Y-46703326D01*
X184174060Y-46703326D02*
X184031203Y-46774755D01*
X184031203Y-46774755D02*
X183888346Y-46917612D01*
X183888346Y-46917612D02*
X183816917Y-47203326D01*
X183816917Y-47203326D02*
X183816917Y-47703326D01*
X183816917Y-47703326D02*
X183888346Y-47989040D01*
X183888346Y-47989040D02*
X184031203Y-48131898D01*
X184031203Y-48131898D02*
X184174060Y-48203326D01*
X184174060Y-48203326D02*
X184459774Y-48203326D01*
X184459774Y-48203326D02*
X184602632Y-48131898D01*
X184602632Y-48131898D02*
X184745489Y-47989040D01*
X184745489Y-47989040D02*
X184816917Y-47703326D01*
X184816917Y-47703326D02*
X184816917Y-47203326D01*
X184816917Y-47203326D02*
X184745489Y-46917612D01*
X184745489Y-46917612D02*
X184602632Y-46774755D01*
X184602632Y-46774755D02*
X184459774Y-46703326D01*
X182888345Y-46703326D02*
X182602631Y-46703326D01*
X182602631Y-46703326D02*
X182459774Y-46774755D01*
X182459774Y-46774755D02*
X182316917Y-46917612D01*
X182316917Y-46917612D02*
X182245488Y-47203326D01*
X182245488Y-47203326D02*
X182245488Y-47703326D01*
X182245488Y-47703326D02*
X182316917Y-47989040D01*
X182316917Y-47989040D02*
X182459774Y-48131898D01*
X182459774Y-48131898D02*
X182602631Y-48203326D01*
X182602631Y-48203326D02*
X182888345Y-48203326D01*
X182888345Y-48203326D02*
X183031203Y-48131898D01*
X183031203Y-48131898D02*
X183174060Y-47989040D01*
X183174060Y-47989040D02*
X183245488Y-47703326D01*
X183245488Y-47703326D02*
X183245488Y-47203326D01*
X183245488Y-47203326D02*
X183174060Y-46917612D01*
X183174060Y-46917612D02*
X183031203Y-46774755D01*
X183031203Y-46774755D02*
X182888345Y-46703326D01*
X181816916Y-46703326D02*
X180959774Y-46703326D01*
X181388345Y-48203326D02*
X181388345Y-46703326D01*
X185388346Y-42903326D02*
X185888346Y-42189040D01*
X186245489Y-42903326D02*
X186245489Y-41403326D01*
X186245489Y-41403326D02*
X185674060Y-41403326D01*
X185674060Y-41403326D02*
X185531203Y-41474755D01*
X185531203Y-41474755D02*
X185459774Y-41546183D01*
X185459774Y-41546183D02*
X185388346Y-41689040D01*
X185388346Y-41689040D02*
X185388346Y-41903326D01*
X185388346Y-41903326D02*
X185459774Y-42046183D01*
X185459774Y-42046183D02*
X185531203Y-42117612D01*
X185531203Y-42117612D02*
X185674060Y-42189040D01*
X185674060Y-42189040D02*
X186245489Y-42189040D01*
X184745489Y-42117612D02*
X184245489Y-42117612D01*
X184031203Y-42903326D02*
X184745489Y-42903326D01*
X184745489Y-42903326D02*
X184745489Y-41403326D01*
X184745489Y-41403326D02*
X184031203Y-41403326D01*
X183459774Y-42831898D02*
X183245489Y-42903326D01*
X183245489Y-42903326D02*
X182888346Y-42903326D01*
X182888346Y-42903326D02*
X182745489Y-42831898D01*
X182745489Y-42831898D02*
X182674060Y-42760469D01*
X182674060Y-42760469D02*
X182602631Y-42617612D01*
X182602631Y-42617612D02*
X182602631Y-42474755D01*
X182602631Y-42474755D02*
X182674060Y-42331898D01*
X182674060Y-42331898D02*
X182745489Y-42260469D01*
X182745489Y-42260469D02*
X182888346Y-42189040D01*
X182888346Y-42189040D02*
X183174060Y-42117612D01*
X183174060Y-42117612D02*
X183316917Y-42046183D01*
X183316917Y-42046183D02*
X183388346Y-41974755D01*
X183388346Y-41974755D02*
X183459774Y-41831898D01*
X183459774Y-41831898D02*
X183459774Y-41689040D01*
X183459774Y-41689040D02*
X183388346Y-41546183D01*
X183388346Y-41546183D02*
X183316917Y-41474755D01*
X183316917Y-41474755D02*
X183174060Y-41403326D01*
X183174060Y-41403326D02*
X182816917Y-41403326D01*
X182816917Y-41403326D02*
X182602631Y-41474755D01*
X181959775Y-42117612D02*
X181459775Y-42117612D01*
X181245489Y-42903326D02*
X181959775Y-42903326D01*
X181959775Y-42903326D02*
X181959775Y-41403326D01*
X181959775Y-41403326D02*
X181245489Y-41403326D01*
X180816917Y-41403326D02*
X179959775Y-41403326D01*
X180388346Y-42903326D02*
X180388346Y-41403326D01*
D11*
X150520180Y-44063208D02*
X151186847Y-43979874D01*
X150996371Y-44003684D02*
X151091609Y-43944160D01*
X151091609Y-43944160D02*
X151139228Y-43890589D01*
X151139228Y-43890589D02*
X151186847Y-43789398D01*
X151186847Y-43789398D02*
X151186847Y-43694160D01*
X150567800Y-43057255D02*
X150520180Y-43158445D01*
X150520180Y-43158445D02*
X150520180Y-43348922D01*
X150520180Y-43348922D02*
X150567800Y-43438207D01*
X150567800Y-43438207D02*
X150663038Y-43473922D01*
X150663038Y-43473922D02*
X151043990Y-43426303D01*
X151043990Y-43426303D02*
X151139228Y-43366779D01*
X151139228Y-43366779D02*
X151186847Y-43265588D01*
X151186847Y-43265588D02*
X151186847Y-43075112D01*
X151186847Y-43075112D02*
X151139228Y-42985826D01*
X151139228Y-42985826D02*
X151043990Y-42950112D01*
X151043990Y-42950112D02*
X150948752Y-42962017D01*
X150948752Y-42962017D02*
X150853514Y-43450112D01*
X151186847Y-42598921D02*
X150520180Y-42444160D01*
X150520180Y-42444160D02*
X151186847Y-42122731D01*
X150615419Y-41813207D02*
X150567800Y-41771540D01*
X150567800Y-41771540D02*
X150520180Y-41825112D01*
X150520180Y-41825112D02*
X150567800Y-41866778D01*
X150567800Y-41866778D02*
X150615419Y-41813207D01*
X150615419Y-41813207D02*
X150520180Y-41825112D01*
X151186847Y-40837017D02*
X150520180Y-40920350D01*
X151567800Y-41027493D02*
X150853514Y-41354874D01*
X150853514Y-41354874D02*
X150853514Y-40735826D01*
D12*
%TO.C,GND201*%
X188699999Y-45824998D02*
X188699999Y-43924998D01*
X188699999Y-43924998D02*
X186799999Y-43924998D01*
X186799999Y-45824998D02*
X188699999Y-45824998D01*
X186799999Y-43924998D02*
X186799999Y-45824998D01*
%TO.C,BOOT301*%
X188700000Y-43175000D02*
X188700000Y-41275000D01*
X188700000Y-41275000D02*
X186800000Y-41275000D01*
X186800000Y-43175000D02*
X188700000Y-43175000D01*
X186800000Y-41275000D02*
X186800000Y-43175000D01*
%TO.C,branding-logo-1*%
G36*
X184965416Y-55438602D02*
G01*
X185081339Y-55982979D01*
X185321045Y-57386242D01*
X185525405Y-58815550D01*
X185693860Y-60182722D01*
X185920823Y-62377937D01*
X185997469Y-63266440D01*
X182512907Y-57416504D01*
X175702531Y-57321254D01*
X176509800Y-56944471D01*
X177404056Y-56538511D01*
X178523321Y-56045301D01*
X179536207Y-55616156D01*
X183996882Y-55616156D01*
X183999204Y-55646441D01*
X184001412Y-55661180D01*
X184004316Y-55675610D01*
X184007911Y-55689703D01*
X184012195Y-55703430D01*
X184017165Y-55716762D01*
X184022818Y-55729669D01*
X184029152Y-55742123D01*
X184036163Y-55754094D01*
X184043848Y-55765553D01*
X184052204Y-55776472D01*
X184061229Y-55786821D01*
X184070920Y-55796572D01*
X184081274Y-55805694D01*
X184092287Y-55814160D01*
X184103957Y-55821939D01*
X184116282Y-55829004D01*
X184128346Y-55835284D01*
X184140710Y-55840736D01*
X184153348Y-55845368D01*
X184166232Y-55849189D01*
X184179337Y-55852207D01*
X184192637Y-55854433D01*
X184206106Y-55855873D01*
X184219717Y-55856537D01*
X184233444Y-55856434D01*
X184247262Y-55855572D01*
X184261143Y-55853960D01*
X184275063Y-55851607D01*
X184288993Y-55848522D01*
X184302910Y-55844712D01*
X184316785Y-55840188D01*
X184330594Y-55834957D01*
X184344310Y-55829029D01*
X184357906Y-55822411D01*
X184371358Y-55815114D01*
X184384637Y-55807145D01*
X184397719Y-55798513D01*
X184410577Y-55789227D01*
X184423186Y-55779296D01*
X184435518Y-55768728D01*
X184447548Y-55757533D01*
X184459249Y-55745718D01*
X184470596Y-55733293D01*
X184481562Y-55720266D01*
X184492120Y-55706646D01*
X184502246Y-55692442D01*
X184511913Y-55677663D01*
X184521094Y-55662316D01*
X184537562Y-55630729D01*
X184551263Y-55598630D01*
X184562219Y-55566253D01*
X184570455Y-55533828D01*
X184575994Y-55501590D01*
X184578858Y-55469770D01*
X184579071Y-55438602D01*
X184576657Y-55408317D01*
X184571638Y-55379148D01*
X184564037Y-55351328D01*
X184559276Y-55337996D01*
X184553879Y-55325089D01*
X184547848Y-55312635D01*
X184541186Y-55300664D01*
X184533896Y-55289205D01*
X184525981Y-55278286D01*
X184517445Y-55267937D01*
X184508289Y-55258186D01*
X184498516Y-55249064D01*
X184488131Y-55240598D01*
X184477135Y-55232819D01*
X184465532Y-55225754D01*
X184453467Y-55219474D01*
X184441103Y-55214022D01*
X184428465Y-55209390D01*
X184415581Y-55205569D01*
X184402476Y-55202550D01*
X184389176Y-55200325D01*
X184375707Y-55198885D01*
X184362096Y-55198221D01*
X184348369Y-55198324D01*
X184334551Y-55199186D01*
X184320670Y-55200798D01*
X184306750Y-55203151D01*
X184292820Y-55206236D01*
X184278903Y-55210046D01*
X184265028Y-55214570D01*
X184251219Y-55219801D01*
X184237503Y-55225729D01*
X184223907Y-55232347D01*
X184210456Y-55239644D01*
X184197176Y-55247613D01*
X184184094Y-55256245D01*
X184171236Y-55265531D01*
X184158627Y-55275462D01*
X184146295Y-55286029D01*
X184134265Y-55297225D01*
X184122564Y-55309040D01*
X184111217Y-55321465D01*
X184100252Y-55334492D01*
X184089693Y-55348111D01*
X184079567Y-55362315D01*
X184069900Y-55377095D01*
X184060719Y-55392441D01*
X184042856Y-55424029D01*
X184027946Y-55456127D01*
X184015966Y-55488505D01*
X184006893Y-55520930D01*
X184000703Y-55553168D01*
X183997374Y-55584988D01*
X183996882Y-55616156D01*
X179536207Y-55616156D01*
X179791042Y-55508186D01*
X181005267Y-55020844D01*
X182968303Y-55020844D01*
X182970305Y-55051129D01*
X182975004Y-55080298D01*
X182978369Y-55094391D01*
X182982413Y-55108118D01*
X182987137Y-55121449D01*
X182992542Y-55134356D01*
X182998631Y-55146810D01*
X183005404Y-55158781D01*
X183012863Y-55170241D01*
X183021009Y-55181160D01*
X183029845Y-55191509D01*
X183039371Y-55201259D01*
X183049588Y-55210382D01*
X183060499Y-55218847D01*
X183072105Y-55226627D01*
X183084407Y-55233691D01*
X183096471Y-55239971D01*
X183108835Y-55245423D01*
X183121473Y-55250055D01*
X183134357Y-55253876D01*
X183147462Y-55256895D01*
X183160762Y-55259120D01*
X183174231Y-55260560D01*
X183187842Y-55261225D01*
X183201569Y-55261121D01*
X183215387Y-55260259D01*
X183229268Y-55258648D01*
X183243188Y-55256295D01*
X183257118Y-55253209D01*
X183271035Y-55249400D01*
X183284910Y-55244875D01*
X183298719Y-55239644D01*
X183312435Y-55233716D01*
X183326031Y-55227099D01*
X183339483Y-55219801D01*
X183352762Y-55211832D01*
X183365844Y-55203200D01*
X183378702Y-55193915D01*
X183391311Y-55183984D01*
X183403643Y-55173416D01*
X183415673Y-55162220D01*
X183427374Y-55150406D01*
X183438721Y-55137981D01*
X183449686Y-55124954D01*
X183460245Y-55111334D01*
X183470371Y-55097130D01*
X183480038Y-55082350D01*
X183489219Y-55067004D01*
X183505687Y-55035417D01*
X183519388Y-55003318D01*
X183530344Y-54970940D01*
X183538580Y-54938516D01*
X183544119Y-54906277D01*
X183546983Y-54874457D01*
X183547196Y-54843289D01*
X183544781Y-54813004D01*
X183539762Y-54783835D01*
X183532162Y-54756015D01*
X183527401Y-54742683D01*
X183522004Y-54729776D01*
X183515973Y-54717323D01*
X183509311Y-54705351D01*
X183502021Y-54693892D01*
X183494106Y-54682973D01*
X183485569Y-54672624D01*
X183476414Y-54662873D01*
X183466641Y-54653751D01*
X183456256Y-54645285D01*
X183445260Y-54637506D01*
X183433656Y-54630441D01*
X183421592Y-54624161D01*
X183409228Y-54618710D01*
X183396590Y-54614078D01*
X183383706Y-54610257D01*
X183370601Y-54607238D01*
X183357300Y-54605013D01*
X183343832Y-54603572D01*
X183330221Y-54602908D01*
X183316493Y-54603011D01*
X183302676Y-54603873D01*
X183288794Y-54605485D01*
X183274875Y-54607838D01*
X183260944Y-54610924D01*
X183247028Y-54614733D01*
X183233152Y-54619257D01*
X183219344Y-54624488D01*
X183205628Y-54630417D01*
X183192031Y-54637034D01*
X183178580Y-54644332D01*
X183165301Y-54652301D01*
X183152218Y-54660932D01*
X183139360Y-54670218D01*
X183126752Y-54680149D01*
X183114420Y-54690717D01*
X183102390Y-54701912D01*
X183090689Y-54713727D01*
X183079342Y-54726152D01*
X183068376Y-54739179D01*
X183057817Y-54752799D01*
X183047692Y-54767003D01*
X183038025Y-54781782D01*
X183028844Y-54797129D01*
X183012289Y-54828716D01*
X182998350Y-54860815D01*
X182987038Y-54893193D01*
X182978367Y-54925617D01*
X182972346Y-54957855D01*
X182968987Y-54989675D01*
X182968303Y-55020844D01*
X181005267Y-55020844D01*
X181130666Y-54970514D01*
X181803518Y-54715014D01*
X182465638Y-54475629D01*
X183107457Y-54257778D01*
X183719406Y-54066879D01*
X183764090Y-54055454D01*
X183808794Y-54046452D01*
X183853450Y-54039831D01*
X183897985Y-54035548D01*
X183942328Y-54033561D01*
X183986408Y-54033829D01*
X184030153Y-54036308D01*
X184073493Y-54040958D01*
X184116357Y-54047736D01*
X184158672Y-54056599D01*
X184200369Y-54067505D01*
X184241375Y-54080413D01*
X184281619Y-54095280D01*
X184321031Y-54112064D01*
X184359538Y-54130723D01*
X184397071Y-54151215D01*
X184433557Y-54173497D01*
X184468925Y-54197528D01*
X184503104Y-54223265D01*
X184536023Y-54250666D01*
X184567611Y-54279689D01*
X184597797Y-54310292D01*
X184626508Y-54342433D01*
X184653675Y-54376069D01*
X184679226Y-54411159D01*
X184703089Y-54447660D01*
X184725193Y-54485530D01*
X184745468Y-54524727D01*
X184763842Y-54565209D01*
X184780243Y-54606933D01*
X184794601Y-54649858D01*
X184806844Y-54693941D01*
X184838647Y-54843289D01*
X184965416Y-55438602D01*
G37*
%TO.C,branding-name-1*%
G36*
X177000878Y-64357250D02*
G01*
X176535212Y-64357250D01*
X176535212Y-62648042D01*
X176535273Y-62645097D01*
X176535457Y-62642215D01*
X176535761Y-62639400D01*
X176536183Y-62636652D01*
X176536721Y-62633975D01*
X176537374Y-62631368D01*
X176538139Y-62628836D01*
X176539015Y-62626379D01*
X176539999Y-62624000D01*
X176541090Y-62621700D01*
X176542285Y-62619481D01*
X176543583Y-62617346D01*
X176544982Y-62615296D01*
X176546480Y-62613333D01*
X176548074Y-62611460D01*
X176549764Y-62609677D01*
X176551546Y-62607988D01*
X176553420Y-62606393D01*
X176555383Y-62604896D01*
X176557432Y-62603497D01*
X176559568Y-62602199D01*
X176561786Y-62601003D01*
X176564086Y-62599913D01*
X176566466Y-62598929D01*
X176568922Y-62598053D01*
X176571455Y-62597288D01*
X176574061Y-62596635D01*
X176576739Y-62596097D01*
X176579486Y-62595675D01*
X176582302Y-62595371D01*
X176585183Y-62595187D01*
X176588128Y-62595125D01*
X177000878Y-62595125D01*
X177000878Y-64357250D01*
G37*
G36*
X177000878Y-62388750D02*
G01*
X176529920Y-62388750D01*
X176529920Y-62013042D01*
X176529981Y-62010097D01*
X176530165Y-62007215D01*
X176530469Y-62004400D01*
X176530891Y-62001652D01*
X176531430Y-61998975D01*
X176532082Y-61996369D01*
X176532848Y-61993836D01*
X176533723Y-61991379D01*
X176534707Y-61989000D01*
X176535798Y-61986700D01*
X176536993Y-61984481D01*
X176538291Y-61982346D01*
X176539690Y-61980296D01*
X176541188Y-61978333D01*
X176542782Y-61976460D01*
X176544472Y-61974677D01*
X176546254Y-61972988D01*
X176548128Y-61971393D01*
X176550091Y-61969896D01*
X176552141Y-61968497D01*
X176554276Y-61967199D01*
X176556494Y-61966003D01*
X176558794Y-61964913D01*
X176561174Y-61963929D01*
X176563631Y-61963053D01*
X176566163Y-61962288D01*
X176568769Y-61961635D01*
X176571447Y-61961097D01*
X176574195Y-61960675D01*
X176577010Y-61960371D01*
X176579891Y-61960187D01*
X176582837Y-61960125D01*
X177000878Y-61960125D01*
X177000878Y-62388750D01*
G37*
G36*
X171846795Y-64357250D02*
G01*
X171381128Y-64357250D01*
X171381128Y-62028917D01*
X171381190Y-62025972D01*
X171381373Y-62023090D01*
X171381677Y-62020275D01*
X171382099Y-62017527D01*
X171382638Y-62014850D01*
X171383291Y-62012244D01*
X171384056Y-62009711D01*
X171384931Y-62007254D01*
X171385915Y-62004875D01*
X171387006Y-62002575D01*
X171388202Y-62000356D01*
X171389500Y-61998221D01*
X171390898Y-61996171D01*
X171392396Y-61994208D01*
X171393991Y-61992335D01*
X171395680Y-61990552D01*
X171397463Y-61988863D01*
X171399336Y-61987268D01*
X171401299Y-61985771D01*
X171403349Y-61984372D01*
X171405484Y-61983074D01*
X171407703Y-61981878D01*
X171410003Y-61980788D01*
X171412382Y-61979804D01*
X171414839Y-61978928D01*
X171417371Y-61978163D01*
X171419977Y-61977510D01*
X171422655Y-61976972D01*
X171425403Y-61976550D01*
X171428218Y-61976246D01*
X171431099Y-61976062D01*
X171434045Y-61976000D01*
X171846795Y-61976000D01*
X171846795Y-64357250D01*
G37*
G36*
X170222253Y-63896875D02*
G01*
X170592670Y-62626875D01*
X170594776Y-62622971D01*
X170597114Y-62619206D01*
X170599670Y-62615597D01*
X170602427Y-62612157D01*
X170605370Y-62608904D01*
X170608483Y-62605853D01*
X170611752Y-62603018D01*
X170615160Y-62600417D01*
X170618692Y-62598063D01*
X170622333Y-62595972D01*
X170626066Y-62594161D01*
X170629878Y-62592644D01*
X170633751Y-62591438D01*
X170637670Y-62590557D01*
X170639643Y-62590243D01*
X170641621Y-62590017D01*
X170643603Y-62589879D01*
X170645587Y-62589833D01*
X171121837Y-62589833D01*
X170465671Y-64415458D01*
X170475582Y-64451663D01*
X170485432Y-64484829D01*
X170490314Y-64500253D01*
X170495157Y-64514894D01*
X170499954Y-64528745D01*
X170504697Y-64541797D01*
X170509377Y-64554043D01*
X170513988Y-64565475D01*
X170518521Y-64576086D01*
X170522969Y-64585867D01*
X170527324Y-64594810D01*
X170531579Y-64602909D01*
X170535724Y-64610156D01*
X170539754Y-64616542D01*
X170547255Y-64625222D01*
X170555856Y-64633399D01*
X170565543Y-64641064D01*
X170576300Y-64648209D01*
X170588110Y-64654828D01*
X170600960Y-64660911D01*
X170614832Y-64666452D01*
X170629712Y-64671443D01*
X170645585Y-64675875D01*
X170662434Y-64679742D01*
X170680244Y-64683035D01*
X170699000Y-64685747D01*
X170718686Y-64687869D01*
X170739287Y-64689395D01*
X170760787Y-64690316D01*
X170783170Y-64690625D01*
X170815830Y-64690542D01*
X170829772Y-64690346D01*
X170842040Y-64689964D01*
X170847527Y-64689683D01*
X170852572Y-64689333D01*
X170857167Y-64688906D01*
X170861305Y-64688393D01*
X170864978Y-64687787D01*
X170868178Y-64687080D01*
X170870897Y-64686265D01*
X170873128Y-64685333D01*
X170873128Y-65055750D01*
X170650879Y-65061042D01*
X170616833Y-65060608D01*
X170584144Y-65059305D01*
X170552804Y-65057135D01*
X170522804Y-65054096D01*
X170494138Y-65050190D01*
X170466797Y-65045415D01*
X170440774Y-65039772D01*
X170416061Y-65033261D01*
X170392650Y-65025881D01*
X170370534Y-65017634D01*
X170349705Y-65008518D01*
X170330154Y-64998534D01*
X170311875Y-64987682D01*
X170294859Y-64975962D01*
X170279099Y-64963373D01*
X170264587Y-64949917D01*
X170251444Y-64934724D01*
X170237819Y-64916927D01*
X170223730Y-64896525D01*
X170209190Y-64873518D01*
X170178825Y-64819692D01*
X170146848Y-64755448D01*
X170113382Y-64680786D01*
X170078552Y-64595706D01*
X170042482Y-64500208D01*
X170005296Y-64394292D01*
X169396754Y-62663917D01*
X169395389Y-62660926D01*
X169394266Y-62657912D01*
X169393380Y-62654883D01*
X169392724Y-62651845D01*
X169392292Y-62648808D01*
X169392080Y-62645778D01*
X169392081Y-62642764D01*
X169392289Y-62639774D01*
X169392699Y-62636814D01*
X169393305Y-62633893D01*
X169394100Y-62631018D01*
X169395080Y-62628198D01*
X169396238Y-62625440D01*
X169397568Y-62622751D01*
X169399065Y-62620141D01*
X169400723Y-62617615D01*
X169402536Y-62615182D01*
X169404498Y-62612850D01*
X169406603Y-62610627D01*
X169408846Y-62608520D01*
X169411221Y-62606537D01*
X169413722Y-62604685D01*
X169416343Y-62602974D01*
X169419078Y-62601409D01*
X169421922Y-62600000D01*
X169424868Y-62598753D01*
X169427912Y-62597677D01*
X169431046Y-62596779D01*
X169434266Y-62596067D01*
X169437565Y-62595549D01*
X169440938Y-62595233D01*
X169444379Y-62595125D01*
X169444379Y-62589833D01*
X169851837Y-62589833D01*
X170222253Y-63896875D01*
G37*
G36*
X175196808Y-62547764D02*
G01*
X175212856Y-62548553D01*
X175228690Y-62549868D01*
X175244314Y-62551707D01*
X175259728Y-62554069D01*
X175274935Y-62556953D01*
X175289936Y-62560359D01*
X175304734Y-62564285D01*
X175319330Y-62568730D01*
X175333727Y-62573694D01*
X175347926Y-62579175D01*
X175361929Y-62585172D01*
X175375739Y-62591685D01*
X175389356Y-62598713D01*
X175402784Y-62606254D01*
X175416024Y-62614307D01*
X175441948Y-62631948D01*
X175467142Y-62651628D01*
X175491624Y-62673339D01*
X175515408Y-62697072D01*
X175538510Y-62722822D01*
X175560945Y-62750578D01*
X175582729Y-62780335D01*
X175603878Y-62812084D01*
X175619670Y-62835979D01*
X175627412Y-62848081D01*
X175634967Y-62860370D01*
X175642274Y-62872907D01*
X175649271Y-62885753D01*
X175655896Y-62898972D01*
X175659049Y-62905741D01*
X175662086Y-62912625D01*
X175662086Y-62648042D01*
X175662148Y-62645097D01*
X175662332Y-62642215D01*
X175662636Y-62639400D01*
X175663058Y-62636652D01*
X175663596Y-62633975D01*
X175664249Y-62631368D01*
X175665014Y-62628836D01*
X175665890Y-62626379D01*
X175666874Y-62624000D01*
X175667965Y-62621700D01*
X175669160Y-62619481D01*
X175670458Y-62617346D01*
X175671857Y-62615296D01*
X175673354Y-62613333D01*
X175674949Y-62611460D01*
X175676639Y-62609677D01*
X175678421Y-62607988D01*
X175680295Y-62606393D01*
X175682257Y-62604896D01*
X175684307Y-62603497D01*
X175686443Y-62602199D01*
X175688661Y-62601003D01*
X175690961Y-62599913D01*
X175693340Y-62598929D01*
X175695797Y-62598053D01*
X175698330Y-62597288D01*
X175700936Y-62596635D01*
X175703614Y-62596097D01*
X175706361Y-62595675D01*
X175709177Y-62595371D01*
X175712058Y-62595187D01*
X175715003Y-62595125D01*
X176101295Y-62595125D01*
X176101295Y-64357250D01*
X175635628Y-64357250D01*
X175635628Y-63441792D01*
X175635195Y-63415437D01*
X175633902Y-63389950D01*
X175631756Y-63365331D01*
X175628766Y-63341581D01*
X175624938Y-63318699D01*
X175620280Y-63296684D01*
X175614801Y-63275538D01*
X175608508Y-63255261D01*
X175601409Y-63235851D01*
X175593512Y-63217309D01*
X175584824Y-63199636D01*
X175575353Y-63182831D01*
X175565107Y-63166894D01*
X175554093Y-63151825D01*
X175542320Y-63137624D01*
X175529795Y-63124292D01*
X175516462Y-63111767D01*
X175502261Y-63099994D01*
X175487193Y-63088980D01*
X175471256Y-63078734D01*
X175454450Y-63069263D01*
X175436777Y-63060575D01*
X175418236Y-63052677D01*
X175398826Y-63045578D01*
X175378548Y-63039285D01*
X175357402Y-63033806D01*
X175335388Y-63029149D01*
X175312506Y-63025321D01*
X175288755Y-63022330D01*
X175264137Y-63020184D01*
X175238650Y-63018891D01*
X175212295Y-63018458D01*
X175176659Y-63018541D01*
X175158996Y-63018738D01*
X175141519Y-63019120D01*
X175124290Y-63019750D01*
X175107371Y-63020691D01*
X175090824Y-63022004D01*
X175074712Y-63023750D01*
X175074712Y-62600417D01*
X175074788Y-62597937D01*
X175075015Y-62595462D01*
X175075387Y-62592997D01*
X175075900Y-62590547D01*
X175076549Y-62588115D01*
X175077328Y-62585708D01*
X175078233Y-62583330D01*
X175079259Y-62580986D01*
X175080402Y-62578681D01*
X175081656Y-62576420D01*
X175083016Y-62574206D01*
X175084478Y-62572046D01*
X175086038Y-62569945D01*
X175087689Y-62567906D01*
X175089427Y-62565935D01*
X175091248Y-62564037D01*
X175093146Y-62562216D01*
X175095117Y-62560477D01*
X175097156Y-62558826D01*
X175099258Y-62557267D01*
X175101418Y-62555805D01*
X175103631Y-62554444D01*
X175105893Y-62553190D01*
X175108198Y-62552048D01*
X175110542Y-62551021D01*
X175112920Y-62550116D01*
X175115327Y-62549337D01*
X175117758Y-62548689D01*
X175120209Y-62548176D01*
X175122674Y-62547804D01*
X175125149Y-62547577D01*
X175127628Y-62547500D01*
X175180545Y-62547500D01*
X175196808Y-62547764D01*
G37*
G36*
X177537755Y-61939455D02*
G01*
X177570807Y-61940943D01*
X177602743Y-61943423D01*
X177633563Y-61946896D01*
X177663267Y-61951361D01*
X177691854Y-61956818D01*
X177719325Y-61963267D01*
X177745680Y-61970709D01*
X177770919Y-61979142D01*
X177795041Y-61988568D01*
X177818048Y-61998986D01*
X177839938Y-62010396D01*
X177860712Y-62022798D01*
X177880370Y-62036193D01*
X177898911Y-62050580D01*
X177916336Y-62065958D01*
X177932647Y-62081398D01*
X177947849Y-62097946D01*
X177961950Y-62115595D01*
X177974958Y-62134337D01*
X177986881Y-62154164D01*
X177997727Y-62175068D01*
X178007503Y-62197042D01*
X178016217Y-62220078D01*
X178023876Y-62244169D01*
X178030490Y-62269305D01*
X178036064Y-62295481D01*
X178040608Y-62322687D01*
X178044128Y-62350917D01*
X178046633Y-62380162D01*
X178048131Y-62410414D01*
X178048628Y-62441667D01*
X178048628Y-62589834D01*
X178307920Y-62589834D01*
X178307920Y-62917917D01*
X178048628Y-62917917D01*
X178048628Y-64351958D01*
X177582961Y-64351958D01*
X177582961Y-62917917D01*
X177281336Y-62917917D01*
X177281336Y-62642750D01*
X177281398Y-62639805D01*
X177281582Y-62636924D01*
X177281886Y-62634108D01*
X177282308Y-62631361D01*
X177282846Y-62628683D01*
X177283499Y-62626077D01*
X177284264Y-62623544D01*
X177285140Y-62621088D01*
X177286124Y-62618708D01*
X177287215Y-62616408D01*
X177288410Y-62614190D01*
X177289708Y-62612055D01*
X177291107Y-62610005D01*
X177292604Y-62608042D01*
X177294199Y-62606168D01*
X177295889Y-62604386D01*
X177297671Y-62602696D01*
X177299545Y-62601102D01*
X177301507Y-62599604D01*
X177303557Y-62598205D01*
X177305693Y-62596907D01*
X177307911Y-62595712D01*
X177310211Y-62594621D01*
X177312590Y-62593637D01*
X177315047Y-62592762D01*
X177317580Y-62591996D01*
X177320186Y-62591344D01*
X177322864Y-62590805D01*
X177325611Y-62590383D01*
X177328427Y-62590079D01*
X177331308Y-62589895D01*
X177334253Y-62589834D01*
X177582961Y-62589834D01*
X177582961Y-62510459D01*
X177582837Y-62495945D01*
X177582465Y-62482161D01*
X177581845Y-62469089D01*
X177580977Y-62456715D01*
X177579861Y-62445023D01*
X177578497Y-62433998D01*
X177576884Y-62423624D01*
X177575024Y-62413886D01*
X177572915Y-62404767D01*
X177570559Y-62396254D01*
X177567954Y-62388329D01*
X177565102Y-62380978D01*
X177562001Y-62374185D01*
X177558653Y-62367935D01*
X177555056Y-62362212D01*
X177551211Y-62357000D01*
X177546996Y-62352224D01*
X177542292Y-62347812D01*
X177537108Y-62343757D01*
X177531450Y-62340050D01*
X177525328Y-62336685D01*
X177518748Y-62333653D01*
X177511719Y-62330946D01*
X177504248Y-62328558D01*
X177496343Y-62326479D01*
X177488011Y-62324702D01*
X177479261Y-62323221D01*
X177470100Y-62322026D01*
X177460536Y-62321110D01*
X177450577Y-62320465D01*
X177440230Y-62320084D01*
X177429503Y-62319959D01*
X177286628Y-62319959D01*
X177286628Y-61997167D01*
X177286690Y-61994687D01*
X177286872Y-61992212D01*
X177287173Y-61989747D01*
X177287590Y-61987297D01*
X177288118Y-61984865D01*
X177288756Y-61982458D01*
X177289501Y-61980081D01*
X177290349Y-61977737D01*
X177291298Y-61975431D01*
X177292345Y-61973170D01*
X177293487Y-61970956D01*
X177294721Y-61968797D01*
X177296044Y-61966695D01*
X177297453Y-61964656D01*
X177298946Y-61962685D01*
X177300519Y-61960787D01*
X177302169Y-61958966D01*
X177303895Y-61957227D01*
X177305692Y-61955576D01*
X177307557Y-61954017D01*
X177309489Y-61952555D01*
X177311483Y-61951194D01*
X177313538Y-61949940D01*
X177315650Y-61948798D01*
X177317816Y-61947771D01*
X177320033Y-61946866D01*
X177322299Y-61946087D01*
X177324610Y-61945439D01*
X177326964Y-61944926D01*
X177329358Y-61944554D01*
X177331789Y-61944327D01*
X177334253Y-61944250D01*
X177350366Y-61942504D01*
X177366913Y-61941191D01*
X177383832Y-61940250D01*
X177401061Y-61939620D01*
X177436201Y-61939041D01*
X177471837Y-61938959D01*
X177503587Y-61938959D01*
X177537755Y-61939455D01*
G37*
G36*
X172378381Y-61939455D02*
G01*
X172411433Y-61940943D01*
X172443369Y-61943423D01*
X172474189Y-61946896D01*
X172503892Y-61951361D01*
X172532480Y-61956818D01*
X172559951Y-61963267D01*
X172586306Y-61970709D01*
X172611545Y-61979142D01*
X172635667Y-61988568D01*
X172658673Y-61998986D01*
X172680563Y-62010396D01*
X172701337Y-62022798D01*
X172720995Y-62036193D01*
X172739537Y-62050580D01*
X172756962Y-62065958D01*
X172773272Y-62081398D01*
X172788474Y-62097946D01*
X172802575Y-62115595D01*
X172815584Y-62134337D01*
X172827507Y-62154164D01*
X172838352Y-62175068D01*
X172848128Y-62197042D01*
X172856842Y-62220078D01*
X172864502Y-62244169D01*
X172871115Y-62269305D01*
X172876690Y-62295481D01*
X172881233Y-62322687D01*
X172884754Y-62350917D01*
X172887259Y-62380162D01*
X172888756Y-62410414D01*
X172889254Y-62441667D01*
X172889254Y-62589834D01*
X173148545Y-62589834D01*
X173148545Y-62917917D01*
X172889254Y-62917917D01*
X172889254Y-64351958D01*
X172423587Y-64351958D01*
X172423587Y-62912625D01*
X172127254Y-62912625D01*
X172127254Y-62642750D01*
X172127315Y-62639805D01*
X172127499Y-62636924D01*
X172127803Y-62634108D01*
X172128225Y-62631361D01*
X172128764Y-62628683D01*
X172129416Y-62626077D01*
X172130181Y-62623544D01*
X172131057Y-62621088D01*
X172132041Y-62618708D01*
X172133132Y-62616408D01*
X172134327Y-62614190D01*
X172135625Y-62612055D01*
X172137024Y-62610005D01*
X172138522Y-62608042D01*
X172140116Y-62606168D01*
X172141806Y-62604386D01*
X172143588Y-62602696D01*
X172145462Y-62601102D01*
X172147424Y-62599604D01*
X172149474Y-62598205D01*
X172151610Y-62596907D01*
X172153828Y-62595712D01*
X172156128Y-62594621D01*
X172158507Y-62593637D01*
X172160964Y-62592762D01*
X172163497Y-62591996D01*
X172166103Y-62591344D01*
X172168781Y-62590805D01*
X172171528Y-62590383D01*
X172174344Y-62590079D01*
X172177225Y-62589895D01*
X172180170Y-62589834D01*
X172428879Y-62589834D01*
X172428879Y-62510459D01*
X172428755Y-62495945D01*
X172428383Y-62482161D01*
X172427763Y-62469089D01*
X172426894Y-62456715D01*
X172425778Y-62445023D01*
X172424414Y-62433998D01*
X172422802Y-62423624D01*
X172420941Y-62413886D01*
X172418833Y-62404767D01*
X172416476Y-62396254D01*
X172413872Y-62388329D01*
X172411019Y-62380978D01*
X172407919Y-62374185D01*
X172404570Y-62367935D01*
X172400974Y-62362212D01*
X172397129Y-62357000D01*
X172392913Y-62352224D01*
X172388210Y-62347812D01*
X172383025Y-62343757D01*
X172377368Y-62340050D01*
X172371245Y-62336685D01*
X172364666Y-62333653D01*
X172357636Y-62330946D01*
X172350165Y-62328558D01*
X172342260Y-62326479D01*
X172333928Y-62324702D01*
X172325178Y-62323221D01*
X172316017Y-62322026D01*
X172306453Y-62321110D01*
X172296494Y-62320465D01*
X172286147Y-62320084D01*
X172275420Y-62319959D01*
X172127254Y-62319959D01*
X172127254Y-61997167D01*
X172127315Y-61994687D01*
X172127498Y-61992212D01*
X172127799Y-61989747D01*
X172128215Y-61987297D01*
X172128743Y-61984865D01*
X172129381Y-61982458D01*
X172130126Y-61980081D01*
X172130974Y-61977737D01*
X172131923Y-61975431D01*
X172132970Y-61973170D01*
X172134112Y-61970956D01*
X172135346Y-61968797D01*
X172136669Y-61966695D01*
X172138078Y-61964656D01*
X172139571Y-61962685D01*
X172141144Y-61960787D01*
X172142795Y-61958966D01*
X172144520Y-61957227D01*
X172146317Y-61955576D01*
X172148182Y-61954017D01*
X172150114Y-61952555D01*
X172152108Y-61951194D01*
X172154163Y-61949940D01*
X172156275Y-61948798D01*
X172158441Y-61947771D01*
X172160658Y-61946866D01*
X172162924Y-61946087D01*
X172165235Y-61945439D01*
X172167589Y-61944926D01*
X172169983Y-61944554D01*
X172172413Y-61944327D01*
X172174878Y-61944250D01*
X172190991Y-61942504D01*
X172207538Y-61941191D01*
X172224457Y-61940250D01*
X172241686Y-61939620D01*
X172276826Y-61939041D01*
X172312462Y-61938959D01*
X172344212Y-61938959D01*
X172378381Y-61939455D01*
G37*
G36*
X174934606Y-63295500D02*
G01*
X174938947Y-63344651D01*
X174941551Y-63395181D01*
X174942419Y-63447084D01*
X174941553Y-63502892D01*
X174938957Y-63557196D01*
X174934641Y-63609981D01*
X174928611Y-63661231D01*
X174920877Y-63710931D01*
X174911445Y-63759065D01*
X174900323Y-63805617D01*
X174887518Y-63850573D01*
X174873040Y-63893917D01*
X174856895Y-63935633D01*
X174839091Y-63975705D01*
X174819636Y-64014119D01*
X174798538Y-64050858D01*
X174775804Y-64085908D01*
X174751443Y-64119252D01*
X174725461Y-64150875D01*
X174697928Y-64180701D01*
X174668907Y-64208660D01*
X174638397Y-64234742D01*
X174606399Y-64258941D01*
X174572912Y-64281248D01*
X174537938Y-64301657D01*
X174501475Y-64320158D01*
X174463524Y-64336745D01*
X174424084Y-64351409D01*
X174383157Y-64364144D01*
X174340741Y-64374940D01*
X174296837Y-64383791D01*
X174251444Y-64390689D01*
X174204563Y-64395625D01*
X174156194Y-64398593D01*
X174106337Y-64399584D01*
X174066088Y-64399024D01*
X174026693Y-64397341D01*
X173988135Y-64394526D01*
X173950398Y-64390571D01*
X173913467Y-64385469D01*
X173877327Y-64379213D01*
X173841963Y-64371793D01*
X173807357Y-64363203D01*
X173773497Y-64353435D01*
X173740364Y-64342481D01*
X173707945Y-64330333D01*
X173676223Y-64316984D01*
X173645184Y-64302425D01*
X173614811Y-64286650D01*
X173585090Y-64269650D01*
X173556004Y-64251417D01*
X173532686Y-64235170D01*
X173510353Y-64218179D01*
X173488996Y-64200443D01*
X173468608Y-64181964D01*
X173449182Y-64162740D01*
X173430709Y-64142773D01*
X173413181Y-64122061D01*
X173396592Y-64100605D01*
X173380933Y-64078404D01*
X173366196Y-64055460D01*
X173352374Y-64031772D01*
X173339458Y-64007339D01*
X173327442Y-63982162D01*
X173316318Y-63956241D01*
X173306077Y-63929576D01*
X173296712Y-63902167D01*
X173295827Y-63899176D01*
X173295155Y-63896162D01*
X173294690Y-63893133D01*
X173294428Y-63890096D01*
X173294363Y-63887058D01*
X173294491Y-63884029D01*
X173294807Y-63881015D01*
X173295306Y-63878024D01*
X173295984Y-63875064D01*
X173296835Y-63872143D01*
X173297854Y-63869269D01*
X173299037Y-63866448D01*
X173300379Y-63863690D01*
X173301876Y-63861002D01*
X173303521Y-63858391D01*
X173305311Y-63855865D01*
X173307240Y-63853432D01*
X173309304Y-63851100D01*
X173311498Y-63848877D01*
X173313817Y-63846770D01*
X173316256Y-63844787D01*
X173318810Y-63842936D01*
X173321475Y-63841224D01*
X173324245Y-63839659D01*
X173327116Y-63838250D01*
X173330083Y-63837003D01*
X173333141Y-63835927D01*
X173336286Y-63835029D01*
X173339511Y-63834317D01*
X173342814Y-63833799D01*
X173346188Y-63833483D01*
X173349628Y-63833375D01*
X173751795Y-63833375D01*
X173755019Y-63843235D01*
X173758740Y-63852971D01*
X173762957Y-63862583D01*
X173767670Y-63872071D01*
X173772879Y-63881435D01*
X173778584Y-63890674D01*
X173784785Y-63899790D01*
X173791482Y-63908782D01*
X173798676Y-63917649D01*
X173806365Y-63926393D01*
X173814551Y-63935013D01*
X173823232Y-63943508D01*
X173832410Y-63951880D01*
X173842084Y-63960128D01*
X173852254Y-63968251D01*
X173862920Y-63976251D01*
X173874827Y-63983008D01*
X173886743Y-63989387D01*
X173898674Y-63995377D01*
X173910628Y-64000972D01*
X173922613Y-64006165D01*
X173934636Y-64010946D01*
X173946707Y-64015309D01*
X173958831Y-64019245D01*
X173971018Y-64022747D01*
X173983274Y-64025808D01*
X173995608Y-64028419D01*
X174008027Y-64030573D01*
X174020539Y-64032261D01*
X174033152Y-64033477D01*
X174045874Y-64034212D01*
X174058711Y-64034459D01*
X174086056Y-64033903D01*
X174112517Y-64032247D01*
X174138078Y-64029505D01*
X174162726Y-64025694D01*
X174186442Y-64020829D01*
X174209214Y-64014925D01*
X174231024Y-64007998D01*
X174251857Y-64000063D01*
X174271698Y-63991136D01*
X174290532Y-63981232D01*
X174308342Y-63970367D01*
X174325114Y-63958556D01*
X174340831Y-63945816D01*
X174348290Y-63939101D01*
X174355479Y-63932160D01*
X174362397Y-63924994D01*
X174369041Y-63917606D01*
X174375411Y-63909996D01*
X174381503Y-63902167D01*
X174391177Y-63888836D01*
X174400354Y-63874644D01*
X174409036Y-63859600D01*
X174417222Y-63843711D01*
X174424911Y-63826984D01*
X174432105Y-63809428D01*
X174438802Y-63791051D01*
X174445003Y-63771860D01*
X174450708Y-63751862D01*
X174455917Y-63731066D01*
X174460630Y-63709480D01*
X174464847Y-63687110D01*
X174468568Y-63663966D01*
X174471792Y-63640054D01*
X174474521Y-63615382D01*
X174476753Y-63589959D01*
X173280836Y-63589959D01*
X173276951Y-63570115D01*
X173275163Y-63560193D01*
X173273561Y-63550271D01*
X173272207Y-63540349D01*
X173271163Y-63530427D01*
X173270491Y-63520506D01*
X173270314Y-63515545D01*
X173270253Y-63510584D01*
X173270253Y-63484125D01*
X173271120Y-63428436D01*
X173273716Y-63374468D01*
X173278032Y-63322205D01*
X173281439Y-63293625D01*
X173757087Y-63293625D01*
X174476753Y-63293625D01*
X174473593Y-63276012D01*
X174470076Y-63258888D01*
X174466219Y-63242244D01*
X174462035Y-63226074D01*
X174457542Y-63210368D01*
X174452754Y-63195119D01*
X174447687Y-63180321D01*
X174442357Y-63165964D01*
X174436778Y-63152041D01*
X174430967Y-63138544D01*
X174424939Y-63125466D01*
X174418710Y-63112799D01*
X174412294Y-63100535D01*
X174405708Y-63088666D01*
X174398967Y-63077185D01*
X174392086Y-63066083D01*
X174379810Y-63049714D01*
X174366806Y-63034344D01*
X174353088Y-63019982D01*
X174338673Y-63006635D01*
X174323576Y-62994311D01*
X174307812Y-62983019D01*
X174291397Y-62972765D01*
X174274347Y-62963558D01*
X174256676Y-62955404D01*
X174238401Y-62948313D01*
X174219536Y-62942291D01*
X174200098Y-62937347D01*
X174180102Y-62933488D01*
X174159563Y-62930722D01*
X174138497Y-62929057D01*
X174116920Y-62928500D01*
X174094412Y-62928936D01*
X174072540Y-62930247D01*
X174051319Y-62932442D01*
X174030765Y-62935528D01*
X174010893Y-62939514D01*
X173991718Y-62944406D01*
X173973257Y-62950213D01*
X173955524Y-62956943D01*
X173938535Y-62964603D01*
X173922306Y-62973200D01*
X173906852Y-62982744D01*
X173899421Y-62987872D01*
X173892189Y-62993240D01*
X173885159Y-62998849D01*
X173878332Y-63004698D01*
X173871711Y-63010790D01*
X173865297Y-63017125D01*
X173859092Y-63023704D01*
X173853099Y-63030529D01*
X173847318Y-63037599D01*
X173841753Y-63044917D01*
X173833070Y-63056140D01*
X173824875Y-63067975D01*
X173817161Y-63080415D01*
X173809920Y-63093451D01*
X173803144Y-63107077D01*
X173796826Y-63121284D01*
X173790956Y-63136065D01*
X173785529Y-63151412D01*
X173780536Y-63167316D01*
X173775969Y-63183771D01*
X173771821Y-63200769D01*
X173768083Y-63218302D01*
X173764749Y-63236361D01*
X173761810Y-63254940D01*
X173759258Y-63274031D01*
X173757087Y-63293625D01*
X173281439Y-63293625D01*
X173284061Y-63271632D01*
X173291796Y-63222733D01*
X173301228Y-63175493D01*
X173312350Y-63129896D01*
X173325154Y-63085927D01*
X173339633Y-63043571D01*
X173355778Y-63002811D01*
X173373582Y-62963632D01*
X173393037Y-62926020D01*
X173414135Y-62889957D01*
X173436868Y-62855430D01*
X173461230Y-62822421D01*
X173487212Y-62790917D01*
X173514745Y-62761150D01*
X173543766Y-62733360D01*
X173574276Y-62707538D01*
X173606274Y-62683678D01*
X173639760Y-62661771D01*
X173674735Y-62641810D01*
X173711198Y-62623786D01*
X173749149Y-62607693D01*
X173788589Y-62593522D01*
X173829516Y-62581266D01*
X173871932Y-62570916D01*
X173915837Y-62562466D01*
X173961229Y-62555907D01*
X174008110Y-62551231D01*
X174056479Y-62548432D01*
X174106337Y-62547500D01*
X174154332Y-62548430D01*
X174201080Y-62551221D01*
X174246572Y-62555872D01*
X174290801Y-62562383D01*
X174333758Y-62570755D01*
X174375436Y-62580987D01*
X174415828Y-62593079D01*
X174454925Y-62607032D01*
X174492720Y-62622845D01*
X174529205Y-62640518D01*
X174564372Y-62660052D01*
X174598213Y-62681446D01*
X174630722Y-62704700D01*
X174661889Y-62729815D01*
X174691708Y-62756790D01*
X174720170Y-62785625D01*
X174747083Y-62816134D01*
X174772260Y-62848123D01*
X174795700Y-62881585D01*
X174817404Y-62916511D01*
X174837372Y-62952895D01*
X174855603Y-62990729D01*
X174872098Y-63030004D01*
X174886857Y-63070714D01*
X174899879Y-63112850D01*
X174911166Y-63156404D01*
X174920715Y-63201369D01*
X174928529Y-63247737D01*
X174934367Y-63293625D01*
X174934606Y-63295500D01*
G37*
%TO.C,PU301*%
X188700000Y-48474999D02*
X188700000Y-46574999D01*
X188700000Y-46574999D02*
X186800000Y-46574999D01*
X186800000Y-48474999D02*
X188700000Y-48474999D01*
X186800000Y-46574999D02*
X186800000Y-48474999D01*
%TD*%
%LPC*%
%TO.C,branding-logo-1*%
G36*
X182242313Y-57829188D02*
G01*
X182670938Y-58543564D01*
X182608955Y-58620954D01*
X182542310Y-58697972D01*
X182471362Y-58774061D01*
X182396474Y-58848661D01*
X182318003Y-58921214D01*
X182236313Y-58991163D01*
X182151762Y-59057950D01*
X182064711Y-59121016D01*
X181975520Y-59179803D01*
X181884551Y-59233753D01*
X181792163Y-59282308D01*
X181698718Y-59324910D01*
X181604574Y-59361001D01*
X181557353Y-59376430D01*
X181510093Y-59390023D01*
X181462839Y-59401708D01*
X181415636Y-59411417D01*
X181368529Y-59419079D01*
X181321562Y-59424625D01*
X181347700Y-59392714D01*
X181375140Y-59353885D01*
X181403325Y-59308661D01*
X181431695Y-59257566D01*
X181459693Y-59201121D01*
X181486761Y-59139852D01*
X181512341Y-59074280D01*
X181535875Y-59004930D01*
X181556804Y-58932324D01*
X181574570Y-58856985D01*
X181588616Y-58779438D01*
X181598383Y-58700204D01*
X181601487Y-58660119D01*
X181603313Y-58619808D01*
X181603789Y-58579337D01*
X181602847Y-58538772D01*
X181600417Y-58498178D01*
X181596429Y-58457620D01*
X181590813Y-58417164D01*
X181583500Y-58376875D01*
X181573396Y-58406737D01*
X181562484Y-58435319D01*
X181550835Y-58462643D01*
X181538526Y-58488729D01*
X181525629Y-58513600D01*
X181512219Y-58537278D01*
X181498371Y-58559785D01*
X181484157Y-58581142D01*
X181454932Y-58620494D01*
X181425137Y-58655510D01*
X181395366Y-58686362D01*
X181366211Y-58713227D01*
X181338265Y-58736278D01*
X181312121Y-58755690D01*
X181288373Y-58771636D01*
X181267612Y-58784292D01*
X181237428Y-58800431D01*
X181226313Y-58805500D01*
X181230700Y-58792494D01*
X181242063Y-58755023D01*
X181249518Y-58727841D01*
X181257706Y-58695414D01*
X181266289Y-58658035D01*
X181274930Y-58615993D01*
X181283292Y-58569579D01*
X181291037Y-58519084D01*
X181297829Y-58464799D01*
X181303331Y-58407013D01*
X181307205Y-58346019D01*
X181309114Y-58282106D01*
X181309226Y-58249146D01*
X181308720Y-58215566D01*
X181307555Y-58181401D01*
X181305688Y-58146688D01*
X181303114Y-58105357D01*
X181301471Y-58064585D01*
X181300944Y-58024184D01*
X181301719Y-57983969D01*
X181303982Y-57943755D01*
X181305730Y-57923589D01*
X181307920Y-57903354D01*
X181310575Y-57883026D01*
X181313718Y-57862582D01*
X181317373Y-57841998D01*
X181321563Y-57821251D01*
X182242313Y-57829188D01*
G37*
G36*
X182223250Y-57832969D02*
G01*
X182651875Y-58547345D01*
X182589892Y-58624735D01*
X182523247Y-58701753D01*
X182452299Y-58777842D01*
X182377411Y-58852442D01*
X182298940Y-58924995D01*
X182217250Y-58994944D01*
X182132699Y-59061731D01*
X182045648Y-59124797D01*
X181956457Y-59183584D01*
X181865488Y-59237534D01*
X181773100Y-59286089D01*
X181679655Y-59328691D01*
X181585511Y-59364782D01*
X181538290Y-59380211D01*
X181491030Y-59393804D01*
X181443776Y-59405489D01*
X181396573Y-59415198D01*
X181349466Y-59422860D01*
X181302499Y-59428406D01*
X181328637Y-59396495D01*
X181356077Y-59357666D01*
X181384262Y-59312442D01*
X181412632Y-59261347D01*
X181440630Y-59204902D01*
X181467698Y-59143633D01*
X181493278Y-59078061D01*
X181516812Y-59008711D01*
X181537741Y-58936105D01*
X181555507Y-58860766D01*
X181569553Y-58783219D01*
X181579320Y-58703985D01*
X181582424Y-58663900D01*
X181584250Y-58623589D01*
X181584726Y-58583118D01*
X181583784Y-58542553D01*
X181581354Y-58501959D01*
X181577366Y-58461401D01*
X181571750Y-58420945D01*
X181564437Y-58380656D01*
X181554333Y-58410518D01*
X181543421Y-58439100D01*
X181531772Y-58466424D01*
X181519463Y-58492510D01*
X181506566Y-58517381D01*
X181493156Y-58541059D01*
X181479308Y-58563566D01*
X181465094Y-58584923D01*
X181435869Y-58624275D01*
X181406074Y-58659291D01*
X181376303Y-58690143D01*
X181347148Y-58717008D01*
X181319202Y-58740059D01*
X181293058Y-58759471D01*
X181269310Y-58775417D01*
X181248549Y-58788073D01*
X181218365Y-58804212D01*
X181207250Y-58809281D01*
X181211637Y-58796275D01*
X181223000Y-58758804D01*
X181230455Y-58731622D01*
X181238643Y-58699195D01*
X181247226Y-58661816D01*
X181255867Y-58619774D01*
X181264229Y-58573360D01*
X181271974Y-58522865D01*
X181278766Y-58468580D01*
X181284268Y-58410794D01*
X181288142Y-58349800D01*
X181290051Y-58285887D01*
X181290163Y-58252927D01*
X181289657Y-58219347D01*
X181288492Y-58185182D01*
X181286625Y-58150469D01*
X181284051Y-58109138D01*
X181282408Y-58068366D01*
X181281881Y-58027965D01*
X181282656Y-57987750D01*
X181284919Y-57947536D01*
X181286667Y-57927370D01*
X181288857Y-57907135D01*
X181291512Y-57886807D01*
X181294655Y-57866363D01*
X181298310Y-57845779D01*
X181302500Y-57825032D01*
X182223250Y-57832969D01*
G37*
G36*
X180615125Y-57805376D02*
G01*
X180603399Y-57823336D01*
X180592010Y-57841529D01*
X180570105Y-57878798D01*
X180549129Y-57917555D01*
X180528805Y-57958173D01*
X180508853Y-58001023D01*
X180488994Y-58046477D01*
X180468948Y-58094908D01*
X180448438Y-58146688D01*
X180428507Y-58215587D01*
X180412890Y-58285253D01*
X180400877Y-58355524D01*
X180391759Y-58426237D01*
X180379372Y-58568337D01*
X180370055Y-58710251D01*
X180358133Y-58850676D01*
X180349423Y-58919924D01*
X180337933Y-58988311D01*
X180322955Y-59055675D01*
X180303780Y-59121853D01*
X180279698Y-59186683D01*
X180250000Y-59250000D01*
X180284454Y-59227752D01*
X180316524Y-59205585D01*
X180346431Y-59183394D01*
X180374396Y-59161076D01*
X180400641Y-59138525D01*
X180425385Y-59115636D01*
X180448851Y-59092307D01*
X180471258Y-59068430D01*
X180492829Y-59043902D01*
X180513783Y-59018619D01*
X180534342Y-58992475D01*
X180554726Y-58965367D01*
X180595856Y-58907835D01*
X180638938Y-58845188D01*
X180665867Y-59052803D01*
X180676523Y-59159681D01*
X180684703Y-59267860D01*
X180689953Y-59376784D01*
X180691819Y-59485893D01*
X180689848Y-59594631D01*
X180683587Y-59702438D01*
X180672582Y-59808757D01*
X180656379Y-59913030D01*
X180634526Y-60014698D01*
X180606568Y-60113204D01*
X180572053Y-60207989D01*
X180530526Y-60298495D01*
X180481535Y-60384164D01*
X180454099Y-60425010D01*
X180424626Y-60464438D01*
X180454702Y-60469477D01*
X180490971Y-60473490D01*
X180540216Y-60476469D01*
X180601553Y-60476889D01*
X180674099Y-60473228D01*
X180756970Y-60463964D01*
X180802001Y-60456753D01*
X180849282Y-60447571D01*
X180898702Y-60436226D01*
X180950152Y-60422528D01*
X181003520Y-60406287D01*
X181058696Y-60387311D01*
X181115569Y-60365412D01*
X181174030Y-60340397D01*
X181233967Y-60312078D01*
X181295270Y-60280263D01*
X181357829Y-60244763D01*
X181421534Y-60205386D01*
X181486273Y-60161943D01*
X181551937Y-60114242D01*
X181618414Y-60062095D01*
X181685595Y-60005309D01*
X181753369Y-59943695D01*
X181821626Y-59877063D01*
X181826259Y-59895800D01*
X181829763Y-59914782D01*
X181832171Y-59933972D01*
X181833516Y-59953337D01*
X181833833Y-59972842D01*
X181833154Y-59992451D01*
X181831513Y-60012130D01*
X181828943Y-60031844D01*
X181821151Y-60071237D01*
X181810045Y-60110351D01*
X181795893Y-60148907D01*
X181778962Y-60186625D01*
X181759519Y-60223228D01*
X181737832Y-60258435D01*
X181714169Y-60291968D01*
X181688797Y-60323547D01*
X181661982Y-60352895D01*
X181633994Y-60379730D01*
X181605098Y-60403775D01*
X181575563Y-60424751D01*
X181633732Y-60414410D01*
X181708284Y-60395233D01*
X181796625Y-60367126D01*
X181896163Y-60329996D01*
X182004306Y-60283751D01*
X182118460Y-60228297D01*
X182236032Y-60163541D01*
X182354429Y-60089391D01*
X182471060Y-60005752D01*
X182527902Y-59960346D01*
X182583330Y-59912533D01*
X182637020Y-59862302D01*
X182688647Y-59809640D01*
X182737888Y-59754537D01*
X182784419Y-59696980D01*
X182827914Y-59636959D01*
X182868051Y-59574461D01*
X182904505Y-59509474D01*
X182936952Y-59441988D01*
X182965068Y-59371991D01*
X182988528Y-59299470D01*
X183007010Y-59224414D01*
X183020187Y-59146813D01*
X183917125Y-60662875D01*
X182853500Y-60559687D01*
X183127344Y-61044867D01*
X183253475Y-61263133D01*
X183389281Y-61493956D01*
X183528063Y-61724221D01*
X183663125Y-61940813D01*
X183306558Y-61593671D01*
X183141157Y-61436146D01*
X182983477Y-61288945D01*
X182832866Y-61151791D01*
X182688673Y-61024403D01*
X182550247Y-60906503D01*
X182416938Y-60797812D01*
X182404171Y-60931422D01*
X182395543Y-61070462D01*
X182390916Y-61215153D01*
X182390148Y-61365716D01*
X182393102Y-61522371D01*
X182399636Y-61685340D01*
X182422891Y-62031102D01*
X182458795Y-62404769D01*
X182506234Y-62808108D01*
X182564091Y-63242888D01*
X182631250Y-63710875D01*
X182463183Y-63291800D01*
X182303208Y-62903234D01*
X182149745Y-62544435D01*
X182001211Y-62214656D01*
X181856026Y-61913155D01*
X181712609Y-61639188D01*
X181569377Y-61392009D01*
X181497337Y-61278233D01*
X181424750Y-61170875D01*
X181372195Y-61327563D01*
X181321314Y-61494204D01*
X181271550Y-61671077D01*
X181222344Y-61858461D01*
X181173137Y-62056635D01*
X181123373Y-62265878D01*
X181019938Y-62718687D01*
X181015349Y-62222345D01*
X181009473Y-61993987D01*
X181001086Y-61778094D01*
X180990094Y-61574106D01*
X180976405Y-61381467D01*
X180959926Y-61199617D01*
X180940563Y-61028000D01*
X180836149Y-61113215D01*
X180731072Y-61205198D01*
X180625041Y-61304018D01*
X180517767Y-61409744D01*
X180408958Y-61522446D01*
X180298323Y-61642195D01*
X180185572Y-61769059D01*
X180070414Y-61903109D01*
X179952559Y-62044414D01*
X179831716Y-62193045D01*
X179579902Y-62512560D01*
X179312647Y-62862213D01*
X179027626Y-63242562D01*
X179367201Y-62440999D01*
X179513456Y-62079331D01*
X179642781Y-61741383D01*
X179754247Y-61425386D01*
X179846924Y-61129575D01*
X179919881Y-60852181D01*
X179948674Y-60719838D01*
X179972188Y-60591437D01*
X179825918Y-60666596D01*
X179672671Y-60749195D01*
X179512169Y-60839236D01*
X179344133Y-60936719D01*
X179168283Y-61041643D01*
X178984341Y-61154008D01*
X178792027Y-61273814D01*
X178591063Y-61401062D01*
X178934855Y-61048960D01*
X179092241Y-60884675D01*
X179239953Y-60727367D01*
X179377991Y-60576384D01*
X179506355Y-60431075D01*
X179625046Y-60290789D01*
X179734062Y-60154875D01*
X179600452Y-60139316D01*
X179461412Y-60128257D01*
X179316721Y-60121546D01*
X179166159Y-60119032D01*
X179009504Y-60120565D01*
X178846535Y-60125993D01*
X178500773Y-60147930D01*
X178127106Y-60183633D01*
X177723767Y-60231894D01*
X177288987Y-60291503D01*
X176821000Y-60361250D01*
X177240075Y-60193183D01*
X177628641Y-60033208D01*
X177987440Y-59879745D01*
X178317219Y-59731211D01*
X178618720Y-59586026D01*
X178892687Y-59442609D01*
X179139866Y-59299377D01*
X179253642Y-59227337D01*
X179361000Y-59154751D01*
X179204312Y-59104475D01*
X179037671Y-59054664D01*
X178860798Y-59005039D01*
X178673414Y-58955321D01*
X178475240Y-58905231D01*
X178265997Y-58854490D01*
X177813188Y-58749938D01*
X178086380Y-58746528D01*
X178372038Y-58737536D01*
X178920469Y-58710251D01*
X179503875Y-58670563D01*
X178805375Y-57781563D01*
X180615125Y-57805376D01*
G37*
G36*
X180596062Y-57809157D02*
G01*
X180584336Y-57827117D01*
X180572947Y-57845310D01*
X180551042Y-57882579D01*
X180530066Y-57921336D01*
X180509742Y-57961954D01*
X180489790Y-58004804D01*
X180469931Y-58050258D01*
X180449885Y-58098689D01*
X180429375Y-58150469D01*
X180409444Y-58219368D01*
X180393827Y-58289034D01*
X180381814Y-58359305D01*
X180372696Y-58430018D01*
X180360309Y-58572118D01*
X180350992Y-58714032D01*
X180339070Y-58854457D01*
X180330360Y-58923705D01*
X180318870Y-58992092D01*
X180303892Y-59059456D01*
X180284717Y-59125634D01*
X180260635Y-59190464D01*
X180230937Y-59253781D01*
X180265391Y-59231533D01*
X180297461Y-59209366D01*
X180327368Y-59187175D01*
X180355333Y-59164857D01*
X180381578Y-59142306D01*
X180406322Y-59119417D01*
X180429788Y-59096088D01*
X180452195Y-59072211D01*
X180473766Y-59047683D01*
X180494720Y-59022400D01*
X180515279Y-58996256D01*
X180535663Y-58969148D01*
X180576793Y-58911616D01*
X180619875Y-58848969D01*
X180646804Y-59056584D01*
X180657460Y-59163462D01*
X180665640Y-59271641D01*
X180670890Y-59380565D01*
X180672756Y-59489674D01*
X180670785Y-59598412D01*
X180664524Y-59706219D01*
X180653519Y-59812538D01*
X180637316Y-59916811D01*
X180615463Y-60018479D01*
X180587505Y-60116985D01*
X180552990Y-60211770D01*
X180511463Y-60302276D01*
X180462472Y-60387945D01*
X180435036Y-60428791D01*
X180405563Y-60468219D01*
X180435639Y-60473258D01*
X180471908Y-60477271D01*
X180521153Y-60480250D01*
X180582490Y-60480670D01*
X180655036Y-60477009D01*
X180737907Y-60467745D01*
X180782938Y-60460534D01*
X180830219Y-60451352D01*
X180879639Y-60440007D01*
X180931089Y-60426309D01*
X180984457Y-60410068D01*
X181039633Y-60391092D01*
X181096506Y-60369193D01*
X181154967Y-60344178D01*
X181214904Y-60315859D01*
X181276207Y-60284044D01*
X181338766Y-60248544D01*
X181402471Y-60209167D01*
X181467210Y-60165724D01*
X181532874Y-60118023D01*
X181599351Y-60065876D01*
X181666532Y-60009090D01*
X181734306Y-59947476D01*
X181802563Y-59880844D01*
X181807196Y-59899581D01*
X181810700Y-59918563D01*
X181813108Y-59937753D01*
X181814453Y-59957118D01*
X181814770Y-59976623D01*
X181814091Y-59996232D01*
X181812450Y-60015911D01*
X181809880Y-60035625D01*
X181802088Y-60075018D01*
X181790982Y-60114132D01*
X181776830Y-60152688D01*
X181759899Y-60190406D01*
X181740456Y-60227009D01*
X181718769Y-60262216D01*
X181695106Y-60295749D01*
X181669734Y-60327328D01*
X181642919Y-60356676D01*
X181614931Y-60383511D01*
X181586035Y-60407556D01*
X181556500Y-60428532D01*
X181614669Y-60418191D01*
X181689221Y-60399014D01*
X181777562Y-60370907D01*
X181877100Y-60333777D01*
X181985243Y-60287532D01*
X182099397Y-60232078D01*
X182216969Y-60167322D01*
X182335366Y-60093172D01*
X182451997Y-60009533D01*
X182508839Y-59964127D01*
X182564267Y-59916314D01*
X182617957Y-59866083D01*
X182669584Y-59813421D01*
X182718825Y-59758318D01*
X182765356Y-59700761D01*
X182808851Y-59640740D01*
X182848988Y-59578242D01*
X182885442Y-59513255D01*
X182917889Y-59445769D01*
X182946005Y-59375772D01*
X182969465Y-59303251D01*
X182987947Y-59228195D01*
X183001124Y-59150594D01*
X183898062Y-60666656D01*
X182834437Y-60563468D01*
X183108281Y-61048648D01*
X183234412Y-61266914D01*
X183370218Y-61497737D01*
X183509000Y-61728002D01*
X183644062Y-61944594D01*
X183287495Y-61597452D01*
X183122094Y-61439927D01*
X182964414Y-61292726D01*
X182813803Y-61155572D01*
X182669610Y-61028184D01*
X182531184Y-60910284D01*
X182397875Y-60801593D01*
X182385108Y-60935203D01*
X182376480Y-61074243D01*
X182371853Y-61218934D01*
X182371085Y-61369497D01*
X182374039Y-61526152D01*
X182380573Y-61689121D01*
X182403828Y-62034883D01*
X182439732Y-62408550D01*
X182487171Y-62811889D01*
X182545028Y-63246669D01*
X182612187Y-63714656D01*
X182444120Y-63295581D01*
X182284145Y-62907015D01*
X182130682Y-62548216D01*
X181982148Y-62218437D01*
X181836963Y-61916936D01*
X181693546Y-61642969D01*
X181550314Y-61395790D01*
X181478274Y-61282014D01*
X181405687Y-61174656D01*
X181353132Y-61331344D01*
X181302251Y-61497985D01*
X181252487Y-61674858D01*
X181203281Y-61862242D01*
X181154074Y-62060416D01*
X181104310Y-62269659D01*
X181000875Y-62722468D01*
X180996286Y-62226126D01*
X180990410Y-61997768D01*
X180982023Y-61781875D01*
X180971031Y-61577887D01*
X180957342Y-61385248D01*
X180940863Y-61203398D01*
X180921500Y-61031781D01*
X180817086Y-61116996D01*
X180712009Y-61208979D01*
X180605978Y-61307799D01*
X180498704Y-61413525D01*
X180389895Y-61526227D01*
X180279260Y-61645976D01*
X180166509Y-61772840D01*
X180051351Y-61906890D01*
X179933496Y-62048195D01*
X179812653Y-62196826D01*
X179560839Y-62516341D01*
X179293584Y-62865994D01*
X179008563Y-63246343D01*
X179348138Y-62444780D01*
X179494393Y-62083112D01*
X179623718Y-61745164D01*
X179735184Y-61429167D01*
X179827861Y-61133356D01*
X179900818Y-60855962D01*
X179929611Y-60723619D01*
X179953125Y-60595218D01*
X179806855Y-60670377D01*
X179653608Y-60752976D01*
X179493106Y-60843017D01*
X179325070Y-60940500D01*
X179149220Y-61045424D01*
X178965278Y-61157789D01*
X178772964Y-61277595D01*
X178572000Y-61404843D01*
X178915792Y-61052741D01*
X179073178Y-60888456D01*
X179220890Y-60731148D01*
X179358928Y-60580165D01*
X179487292Y-60434856D01*
X179605983Y-60294570D01*
X179714999Y-60158656D01*
X179581389Y-60143097D01*
X179442349Y-60132038D01*
X179297658Y-60125327D01*
X179147096Y-60122813D01*
X178990441Y-60124346D01*
X178827472Y-60129774D01*
X178481710Y-60151711D01*
X178108043Y-60187414D01*
X177704704Y-60235675D01*
X177269924Y-60295284D01*
X176801937Y-60365031D01*
X177221012Y-60196964D01*
X177609578Y-60036989D01*
X177968377Y-59883526D01*
X178298156Y-59734992D01*
X178599657Y-59589807D01*
X178873624Y-59446390D01*
X179120803Y-59303158D01*
X179234579Y-59231118D01*
X179341937Y-59158532D01*
X179185249Y-59108256D01*
X179018608Y-59058445D01*
X178841735Y-59008820D01*
X178654351Y-58959102D01*
X178456177Y-58909012D01*
X178246934Y-58858271D01*
X177794125Y-58753719D01*
X178067317Y-58750309D01*
X178352975Y-58741317D01*
X178901406Y-58714032D01*
X179484812Y-58674344D01*
X178786312Y-57785344D01*
X180596062Y-57809157D01*
G37*
%TD*%
D13*
%TO.C,J201*%
X165980000Y-46100000D03*
D14*
X166000000Y-42100000D03*
D13*
X154780000Y-46100000D03*
D14*
X154760000Y-42100000D03*
%TD*%
D15*
%TO.C,GND201*%
X187749999Y-44874998D03*
%TD*%
%TO.C,BOOT301*%
X187750000Y-42225000D03*
%TD*%
%TO.C,PU301*%
X187750000Y-47524999D03*
%TD*%
%LPD*%
M02*
