G04 #@! TF.GenerationSoftware,KiCad,Pcbnew,(6.0.10-0)*
G04 #@! TF.CreationDate,2022-12-22T21:19:14-05:00*
G04 #@! TF.ProjectId,rev2,72657632-2e6b-4696-9361-645f70636258,rev?*
G04 #@! TF.SameCoordinates,Original*
G04 #@! TF.FileFunction,Copper,L2,Bot*
G04 #@! TF.FilePolarity,Positive*
%FSLAX46Y46*%
G04 Gerber Fmt 4.6, Leading zero omitted, Abs format (unit mm)*
G04 Created by KiCad (PCBNEW (6.0.10-0)) date 2022-12-22 21:19:14*
%MOMM*%
%LPD*%
G01*
G04 APERTURE LIST*
G04 #@! TA.AperFunction,ComponentPad*
%ADD10O,0.900000X1.700000*%
G04 #@! TD*
G04 #@! TA.AperFunction,ComponentPad*
%ADD11O,0.900000X2.000000*%
G04 #@! TD*
G04 #@! TA.AperFunction,ComponentPad*
%ADD12R,1.700000X1.700000*%
G04 #@! TD*
G04 #@! TA.AperFunction,ComponentPad*
%ADD13O,1.700000X1.700000*%
G04 #@! TD*
G04 #@! TA.AperFunction,ViaPad*
%ADD14C,0.800000*%
G04 #@! TD*
G04 #@! TA.AperFunction,Conductor*
%ADD15C,0.250000*%
G04 #@! TD*
G04 #@! TA.AperFunction,Conductor*
%ADD16C,0.350000*%
G04 #@! TD*
G04 APERTURE END LIST*
D10*
X187180000Y-42135000D03*
X195820000Y-42135000D03*
D11*
X187180000Y-46305000D03*
X195820000Y-46305000D03*
D12*
X213200000Y-62600000D03*
D13*
X210660000Y-62600000D03*
X213200000Y-65140000D03*
X210660000Y-65140000D03*
X213200000Y-67680000D03*
X210660000Y-67680000D03*
D14*
X215100000Y-45250000D03*
X223500000Y-65000000D03*
X190025000Y-54825000D03*
X199800000Y-47600000D03*
X223500000Y-51000000D03*
X199400000Y-52000000D03*
X195000000Y-49600000D03*
X223500000Y-58000000D03*
X186200000Y-51400000D03*
X223500000Y-44000000D03*
X192800000Y-49600000D03*
X195200000Y-54600000D03*
X205000000Y-47600000D03*
X201200000Y-44400000D03*
X206400000Y-55400000D03*
X199600000Y-55400000D03*
X214400000Y-56600000D03*
X196200000Y-59800000D03*
X214400000Y-55200000D03*
X196200000Y-58600000D03*
X214400000Y-53800000D03*
X196200000Y-57400000D03*
X196200000Y-56200000D03*
X214400000Y-52400000D03*
X188400000Y-57000000D03*
X207200000Y-60200000D03*
X207200000Y-61400000D03*
X187400000Y-58000000D03*
X207200000Y-62600000D03*
X187400000Y-59400000D03*
X187400000Y-56200000D03*
X192800000Y-45400000D03*
X187400000Y-55000000D03*
X191200000Y-45400000D03*
D15*
X213200000Y-67680000D02*
X214120000Y-67680000D01*
X205000000Y-47000000D02*
X205000000Y-47600000D01*
X202400000Y-44400000D02*
X205000000Y-47000000D01*
X201200000Y-44400000D02*
X202400000Y-44400000D01*
X199600000Y-55400000D02*
X206400000Y-55400000D01*
X211800000Y-59200000D02*
X214400000Y-56600000D01*
X196200000Y-59800000D02*
X196800000Y-59200000D01*
X196800000Y-59200000D02*
X211800000Y-59200000D01*
X211000000Y-58600000D02*
X214400000Y-55200000D01*
X196200000Y-58600000D02*
X211000000Y-58600000D01*
X210200000Y-58000000D02*
X196800000Y-58000000D01*
X214400000Y-53800000D02*
X210200000Y-58000000D01*
X196800000Y-58000000D02*
X196200000Y-57400000D01*
X196200000Y-56200000D02*
X196800000Y-56200000D01*
X198000000Y-57400000D02*
X209400000Y-57400000D01*
X209400000Y-57400000D02*
X214400000Y-52400000D01*
X196800000Y-56200000D02*
X198000000Y-57400000D01*
X188800000Y-61200000D02*
X189300000Y-61700000D01*
X188400000Y-57000000D02*
X188800000Y-57400000D01*
X188800000Y-57400000D02*
X188800000Y-61200000D01*
X189300000Y-61700000D02*
X205700000Y-61700000D01*
X205700000Y-61700000D02*
X207200000Y-60200000D01*
X206450000Y-62150000D02*
X207200000Y-61400000D01*
X188586396Y-62150000D02*
X206450000Y-62150000D01*
X188218198Y-58818198D02*
X188218198Y-61781802D01*
X188218198Y-61781802D02*
X188586396Y-62150000D01*
X187400000Y-58000000D02*
X188218198Y-58818198D01*
X188400000Y-62600000D02*
X207200000Y-62600000D01*
X187400000Y-59400000D02*
X187400000Y-61600000D01*
X187400000Y-61600000D02*
X188400000Y-62600000D01*
D16*
X187180000Y-42135000D02*
X195820000Y-42135000D01*
D15*
X192075000Y-51525000D02*
X192075000Y-46125000D01*
X192075000Y-46125000D02*
X192800000Y-45400000D01*
X187400000Y-56200000D02*
X192075000Y-51525000D01*
X191200000Y-51200000D02*
X191200000Y-45400000D01*
X187400000Y-55000000D02*
X191200000Y-51200000D01*
G04 #@! TA.AperFunction,Conductor*
G36*
X224433621Y-40528502D02*
G01*
X224480114Y-40582158D01*
X224491500Y-40634500D01*
X224491500Y-69365500D01*
X224471498Y-69433621D01*
X224417842Y-69480114D01*
X224365500Y-69491500D01*
X209526000Y-69491500D01*
X209457879Y-69471498D01*
X209411386Y-69417842D01*
X209400000Y-69365500D01*
X209400000Y-68638295D01*
X209420002Y-68570174D01*
X209473658Y-68523681D01*
X209543932Y-68513577D01*
X209608512Y-68543071D01*
X209621237Y-68555797D01*
X209702865Y-68650031D01*
X209702869Y-68650035D01*
X209706250Y-68653938D01*
X209878126Y-68796632D01*
X210071000Y-68909338D01*
X210279692Y-68989030D01*
X210284760Y-68990061D01*
X210284763Y-68990062D01*
X210379862Y-69009410D01*
X210498597Y-69033567D01*
X210503772Y-69033757D01*
X210503774Y-69033757D01*
X210716673Y-69041564D01*
X210716677Y-69041564D01*
X210721837Y-69041753D01*
X210726957Y-69041097D01*
X210726959Y-69041097D01*
X210938288Y-69014025D01*
X210938289Y-69014025D01*
X210943416Y-69013368D01*
X210948366Y-69011883D01*
X211152429Y-68950661D01*
X211152434Y-68950659D01*
X211157384Y-68949174D01*
X211357994Y-68850896D01*
X211539860Y-68721173D01*
X211698096Y-68563489D01*
X211828453Y-68382077D01*
X211829640Y-68382930D01*
X211876960Y-68339362D01*
X211946897Y-68327145D01*
X212012338Y-68354678D01*
X212040166Y-68386511D01*
X212097694Y-68480388D01*
X212103777Y-68488699D01*
X212243213Y-68649667D01*
X212250580Y-68656883D01*
X212414434Y-68792916D01*
X212422881Y-68798831D01*
X212606756Y-68906279D01*
X212616042Y-68910729D01*
X212815001Y-68986703D01*
X212824899Y-68989579D01*
X212928250Y-69010606D01*
X212942299Y-69009410D01*
X212946000Y-68999065D01*
X212946000Y-68998517D01*
X213454000Y-68998517D01*
X213458064Y-69012359D01*
X213471478Y-69014393D01*
X213478184Y-69013534D01*
X213488262Y-69011392D01*
X213692255Y-68950191D01*
X213701842Y-68946433D01*
X213893095Y-68852739D01*
X213901945Y-68847464D01*
X214075328Y-68723792D01*
X214083200Y-68717139D01*
X214234052Y-68566812D01*
X214240730Y-68558965D01*
X214365003Y-68386020D01*
X214370313Y-68377183D01*
X214464670Y-68186267D01*
X214468469Y-68176672D01*
X214530377Y-67972910D01*
X214532555Y-67962837D01*
X214533986Y-67951962D01*
X214531775Y-67937778D01*
X214518617Y-67934000D01*
X213472115Y-67934000D01*
X213456876Y-67938475D01*
X213455671Y-67939865D01*
X213454000Y-67947548D01*
X213454000Y-68998517D01*
X212946000Y-68998517D01*
X212946000Y-67552000D01*
X212966002Y-67483879D01*
X213019658Y-67437386D01*
X213072000Y-67426000D01*
X214518344Y-67426000D01*
X214531875Y-67422027D01*
X214533180Y-67412947D01*
X214491214Y-67245875D01*
X214487894Y-67236124D01*
X214402972Y-67040814D01*
X214398105Y-67031739D01*
X214282426Y-66852926D01*
X214276136Y-66844757D01*
X214132806Y-66687240D01*
X214125273Y-66680215D01*
X213958139Y-66548222D01*
X213949556Y-66542520D01*
X213912602Y-66522120D01*
X213862631Y-66471687D01*
X213847859Y-66402245D01*
X213872975Y-66335839D01*
X213900327Y-66309232D01*
X213923797Y-66292491D01*
X214079860Y-66181173D01*
X214238096Y-66023489D01*
X214368453Y-65842077D01*
X214389320Y-65799857D01*
X214465136Y-65646453D01*
X214465137Y-65646451D01*
X214467430Y-65641811D01*
X214532370Y-65428069D01*
X214561529Y-65206590D01*
X214563156Y-65140000D01*
X214544852Y-64917361D01*
X214490431Y-64700702D01*
X214401354Y-64495840D01*
X214280014Y-64308277D01*
X214272790Y-64300338D01*
X214132798Y-64146488D01*
X214101746Y-64082642D01*
X214110141Y-64012143D01*
X214155317Y-63957375D01*
X214181761Y-63943706D01*
X214288297Y-63903767D01*
X214296705Y-63900615D01*
X214413261Y-63813261D01*
X214500615Y-63696705D01*
X214551745Y-63560316D01*
X214558500Y-63498134D01*
X214558500Y-61701866D01*
X214551745Y-61639684D01*
X214500615Y-61503295D01*
X214413261Y-61386739D01*
X214296705Y-61299385D01*
X214160316Y-61248255D01*
X214098134Y-61241500D01*
X212301866Y-61241500D01*
X212239684Y-61248255D01*
X212103295Y-61299385D01*
X211986739Y-61386739D01*
X211899385Y-61503295D01*
X211896233Y-61511703D01*
X211854919Y-61621907D01*
X211812277Y-61678671D01*
X211745716Y-61703371D01*
X211676367Y-61688163D01*
X211643743Y-61662476D01*
X211593151Y-61606875D01*
X211593142Y-61606866D01*
X211589670Y-61603051D01*
X211585619Y-61599852D01*
X211585615Y-61599848D01*
X211418414Y-61467800D01*
X211418410Y-61467798D01*
X211414359Y-61464598D01*
X211218789Y-61356638D01*
X211213920Y-61354914D01*
X211213916Y-61354912D01*
X211013087Y-61283795D01*
X211013083Y-61283794D01*
X211008212Y-61282069D01*
X211003119Y-61281162D01*
X211003116Y-61281161D01*
X210793373Y-61243800D01*
X210793367Y-61243799D01*
X210788284Y-61242894D01*
X210714452Y-61241992D01*
X210570081Y-61240228D01*
X210570079Y-61240228D01*
X210564911Y-61240165D01*
X210344091Y-61273955D01*
X210131756Y-61343357D01*
X209933607Y-61446507D01*
X209929474Y-61449610D01*
X209929471Y-61449612D01*
X209834081Y-61521233D01*
X209754965Y-61580635D01*
X209715525Y-61621907D01*
X209661280Y-61678671D01*
X209600629Y-61742138D01*
X209597715Y-61746410D01*
X209597714Y-61746411D01*
X209589265Y-61758797D01*
X209474743Y-61926680D01*
X209380688Y-62129305D01*
X209320989Y-62344570D01*
X209297251Y-62566695D01*
X209310110Y-62789715D01*
X209311247Y-62794761D01*
X209311248Y-62794767D01*
X209335304Y-62901508D01*
X209359222Y-63007639D01*
X209405012Y-63120407D01*
X209436817Y-63198733D01*
X209443266Y-63214616D01*
X209457731Y-63238220D01*
X209553072Y-63393803D01*
X209559987Y-63405088D01*
X209706250Y-63573938D01*
X209878126Y-63716632D01*
X209948595Y-63757811D01*
X209951445Y-63759476D01*
X210000169Y-63811114D01*
X210013240Y-63880897D01*
X209986509Y-63946669D01*
X209946055Y-63980027D01*
X209933607Y-63986507D01*
X209929474Y-63989610D01*
X209929471Y-63989612D01*
X209805567Y-64082642D01*
X209754965Y-64120635D01*
X209751393Y-64124373D01*
X209617094Y-64264908D01*
X209555569Y-64300338D01*
X209484657Y-64296881D01*
X209426871Y-64255635D01*
X209400557Y-64189694D01*
X209400000Y-64177857D01*
X209400000Y-64000000D01*
X185634500Y-64000000D01*
X185566379Y-63979998D01*
X185519886Y-63926342D01*
X185508500Y-63874000D01*
X185508500Y-59400000D01*
X186486496Y-59400000D01*
X186506458Y-59589928D01*
X186565473Y-59771556D01*
X186660960Y-59936944D01*
X186734137Y-60018215D01*
X186764853Y-60082221D01*
X186766500Y-60102524D01*
X186766500Y-61521233D01*
X186765973Y-61532416D01*
X186764298Y-61539909D01*
X186764547Y-61547835D01*
X186764547Y-61547836D01*
X186766438Y-61607986D01*
X186766500Y-61611945D01*
X186766500Y-61639856D01*
X186766997Y-61643790D01*
X186766997Y-61643791D01*
X186767005Y-61643856D01*
X186767938Y-61655693D01*
X186769327Y-61699889D01*
X186774978Y-61719339D01*
X186778987Y-61738700D01*
X186781526Y-61758797D01*
X186784445Y-61766168D01*
X186784445Y-61766170D01*
X186797804Y-61799912D01*
X186801649Y-61811142D01*
X186813982Y-61853593D01*
X186818015Y-61860412D01*
X186818017Y-61860417D01*
X186824293Y-61871028D01*
X186832988Y-61888776D01*
X186840448Y-61907617D01*
X186845110Y-61914033D01*
X186845110Y-61914034D01*
X186866436Y-61943387D01*
X186872952Y-61953307D01*
X186895458Y-61991362D01*
X186909779Y-62005683D01*
X186922619Y-62020716D01*
X186934528Y-62037107D01*
X186940634Y-62042158D01*
X186968605Y-62065298D01*
X186977384Y-62073288D01*
X187896343Y-62992247D01*
X187903887Y-63000537D01*
X187908000Y-63007018D01*
X187913777Y-63012443D01*
X187957667Y-63053658D01*
X187960509Y-63056413D01*
X187980231Y-63076135D01*
X187983355Y-63078558D01*
X187983359Y-63078562D01*
X187983424Y-63078612D01*
X187992445Y-63086317D01*
X188024679Y-63116586D01*
X188031627Y-63120405D01*
X188031629Y-63120407D01*
X188042432Y-63126346D01*
X188058959Y-63137202D01*
X188068698Y-63144757D01*
X188068700Y-63144758D01*
X188074960Y-63149614D01*
X188115540Y-63167174D01*
X188126188Y-63172391D01*
X188164940Y-63193695D01*
X188172616Y-63195666D01*
X188172619Y-63195667D01*
X188184562Y-63198733D01*
X188203267Y-63205137D01*
X188221855Y-63213181D01*
X188229678Y-63214420D01*
X188229688Y-63214423D01*
X188265524Y-63220099D01*
X188277144Y-63222505D01*
X188312289Y-63231528D01*
X188319970Y-63233500D01*
X188340224Y-63233500D01*
X188359934Y-63235051D01*
X188379943Y-63238220D01*
X188387835Y-63237474D01*
X188423961Y-63234059D01*
X188435819Y-63233500D01*
X206491800Y-63233500D01*
X206559921Y-63253502D01*
X206579147Y-63269843D01*
X206579420Y-63269540D01*
X206584332Y-63273963D01*
X206588747Y-63278866D01*
X206743248Y-63391118D01*
X206749276Y-63393802D01*
X206749278Y-63393803D01*
X206774625Y-63405088D01*
X206917712Y-63468794D01*
X207011112Y-63488647D01*
X207098056Y-63507128D01*
X207098061Y-63507128D01*
X207104513Y-63508500D01*
X207295487Y-63508500D01*
X207301939Y-63507128D01*
X207301944Y-63507128D01*
X207388888Y-63488647D01*
X207482288Y-63468794D01*
X207625375Y-63405088D01*
X207650722Y-63393803D01*
X207650724Y-63393802D01*
X207656752Y-63391118D01*
X207811253Y-63278866D01*
X207847851Y-63238220D01*
X207934621Y-63141852D01*
X207934622Y-63141851D01*
X207939040Y-63136944D01*
X208010931Y-63012425D01*
X208031223Y-62977279D01*
X208031224Y-62977278D01*
X208034527Y-62971556D01*
X208093542Y-62789928D01*
X208113504Y-62600000D01*
X208093542Y-62410072D01*
X208034527Y-62228444D01*
X207939040Y-62063056D01*
X207941777Y-62061476D01*
X207922351Y-62007653D01*
X207938178Y-61938443D01*
X207939114Y-61936987D01*
X207939040Y-61936944D01*
X208031223Y-61777279D01*
X208031224Y-61777278D01*
X208034527Y-61771556D01*
X208093542Y-61589928D01*
X208102648Y-61503295D01*
X208112814Y-61406565D01*
X208113504Y-61400000D01*
X208097555Y-61248255D01*
X208094232Y-61216635D01*
X208094232Y-61216633D01*
X208093542Y-61210072D01*
X208034527Y-61028444D01*
X207939040Y-60863056D01*
X207941777Y-60861476D01*
X207922351Y-60807653D01*
X207938178Y-60738443D01*
X207939114Y-60736987D01*
X207939040Y-60736944D01*
X208031223Y-60577279D01*
X208031224Y-60577278D01*
X208034527Y-60571556D01*
X208093542Y-60389928D01*
X208113504Y-60200000D01*
X208093542Y-60010072D01*
X208091503Y-60003797D01*
X208091502Y-60003792D01*
X208089762Y-59998438D01*
X208087733Y-59927471D01*
X208124394Y-59866672D01*
X208188106Y-59835346D01*
X208209594Y-59833500D01*
X211721233Y-59833500D01*
X211732416Y-59834027D01*
X211739909Y-59835702D01*
X211747835Y-59835453D01*
X211747836Y-59835453D01*
X211807986Y-59833562D01*
X211811945Y-59833500D01*
X211839856Y-59833500D01*
X211843791Y-59833003D01*
X211843856Y-59832995D01*
X211855693Y-59832062D01*
X211887951Y-59831048D01*
X211891970Y-59830922D01*
X211899889Y-59830673D01*
X211919343Y-59825021D01*
X211938700Y-59821013D01*
X211950930Y-59819468D01*
X211950931Y-59819468D01*
X211958797Y-59818474D01*
X211966168Y-59815555D01*
X211966170Y-59815555D01*
X211999912Y-59802196D01*
X212011142Y-59798351D01*
X212045983Y-59788229D01*
X212045984Y-59788229D01*
X212053593Y-59786018D01*
X212060412Y-59781985D01*
X212060417Y-59781983D01*
X212071028Y-59775707D01*
X212088776Y-59767012D01*
X212107617Y-59759552D01*
X212143387Y-59733564D01*
X212153307Y-59727048D01*
X212184535Y-59708580D01*
X212184538Y-59708578D01*
X212191362Y-59704542D01*
X212205683Y-59690221D01*
X212220717Y-59677380D01*
X212230694Y-59670131D01*
X212237107Y-59665472D01*
X212265298Y-59631395D01*
X212273288Y-59622616D01*
X214350499Y-57545405D01*
X214412811Y-57511379D01*
X214439594Y-57508500D01*
X214495487Y-57508500D01*
X214501939Y-57507128D01*
X214501944Y-57507128D01*
X214588888Y-57488647D01*
X214682288Y-57468794D01*
X214695176Y-57463056D01*
X214850722Y-57393803D01*
X214850724Y-57393802D01*
X214856752Y-57391118D01*
X215011253Y-57278866D01*
X215123672Y-57154012D01*
X215134621Y-57141852D01*
X215134622Y-57141851D01*
X215139040Y-57136944D01*
X215218105Y-57000000D01*
X215231223Y-56977279D01*
X215231224Y-56977278D01*
X215234527Y-56971556D01*
X215293542Y-56789928D01*
X215296005Y-56766500D01*
X215312814Y-56606565D01*
X215313504Y-56600000D01*
X215293542Y-56410072D01*
X215234527Y-56228444D01*
X215139040Y-56063056D01*
X215097243Y-56016635D01*
X215068137Y-55984310D01*
X215037419Y-55920303D01*
X215046184Y-55849849D01*
X215068137Y-55815690D01*
X215134621Y-55741852D01*
X215134622Y-55741851D01*
X215139040Y-55736944D01*
X215202168Y-55627604D01*
X215231223Y-55577279D01*
X215231224Y-55577278D01*
X215234527Y-55571556D01*
X215293542Y-55389928D01*
X215294872Y-55377279D01*
X215312814Y-55206565D01*
X215313504Y-55200000D01*
X215295473Y-55028444D01*
X215294232Y-55016635D01*
X215294232Y-55016633D01*
X215293542Y-55010072D01*
X215234527Y-54828444D01*
X215139040Y-54663056D01*
X215068137Y-54584310D01*
X215037419Y-54520303D01*
X215046184Y-54449849D01*
X215068137Y-54415690D01*
X215134621Y-54341852D01*
X215134622Y-54341851D01*
X215139040Y-54336944D01*
X215234527Y-54171556D01*
X215293542Y-53989928D01*
X215313504Y-53800000D01*
X215293542Y-53610072D01*
X215234527Y-53428444D01*
X215139040Y-53263056D01*
X215068137Y-53184310D01*
X215037419Y-53120303D01*
X215046184Y-53049849D01*
X215068137Y-53015690D01*
X215134621Y-52941852D01*
X215134622Y-52941851D01*
X215139040Y-52936944D01*
X215234527Y-52771556D01*
X215293542Y-52589928D01*
X215313504Y-52400000D01*
X215293542Y-52210072D01*
X215234527Y-52028444D01*
X215224585Y-52011223D01*
X215184415Y-51941647D01*
X215139040Y-51863056D01*
X215081196Y-51798813D01*
X215015675Y-51726045D01*
X215015674Y-51726044D01*
X215011253Y-51721134D01*
X214856752Y-51608882D01*
X214850724Y-51606198D01*
X214850722Y-51606197D01*
X214688319Y-51533891D01*
X214688318Y-51533891D01*
X214682288Y-51531206D01*
X214588888Y-51511353D01*
X214501944Y-51492872D01*
X214501939Y-51492872D01*
X214495487Y-51491500D01*
X214304513Y-51491500D01*
X214298061Y-51492872D01*
X214298056Y-51492872D01*
X214211113Y-51511353D01*
X214117712Y-51531206D01*
X214111682Y-51533891D01*
X214111681Y-51533891D01*
X213949278Y-51606197D01*
X213949276Y-51606198D01*
X213943248Y-51608882D01*
X213788747Y-51721134D01*
X213784326Y-51726044D01*
X213784325Y-51726045D01*
X213718805Y-51798813D01*
X213660960Y-51863056D01*
X213615585Y-51941647D01*
X213575416Y-52011223D01*
X213565473Y-52028444D01*
X213506458Y-52210072D01*
X213505768Y-52216633D01*
X213505768Y-52216635D01*
X213489093Y-52375293D01*
X213462080Y-52440950D01*
X213452878Y-52451218D01*
X209174500Y-56729595D01*
X209112188Y-56763621D01*
X209085405Y-56766500D01*
X198314595Y-56766500D01*
X198246474Y-56746498D01*
X198225500Y-56729595D01*
X197303652Y-55807747D01*
X197296112Y-55799461D01*
X197292000Y-55792982D01*
X197242348Y-55746356D01*
X197239507Y-55743602D01*
X197219770Y-55723865D01*
X197216573Y-55721385D01*
X197207551Y-55713680D01*
X197181100Y-55688841D01*
X197175321Y-55683414D01*
X197168375Y-55679595D01*
X197168372Y-55679593D01*
X197157566Y-55673652D01*
X197141047Y-55662801D01*
X197135048Y-55658148D01*
X197125041Y-55650386D01*
X197117772Y-55647241D01*
X197117768Y-55647238D01*
X197084463Y-55632826D01*
X197073813Y-55627609D01*
X197035060Y-55606305D01*
X197015437Y-55601267D01*
X196996734Y-55594863D01*
X196985420Y-55589967D01*
X196985419Y-55589967D01*
X196978145Y-55586819D01*
X196970322Y-55585580D01*
X196970312Y-55585577D01*
X196934476Y-55579901D01*
X196922854Y-55577495D01*
X196880549Y-55566633D01*
X196820664Y-55530367D01*
X196820580Y-55530460D01*
X196820091Y-55530020D01*
X196818252Y-55528906D01*
X196815672Y-55526041D01*
X196815668Y-55526038D01*
X196811253Y-55521134D01*
X196656752Y-55408882D01*
X196650724Y-55406198D01*
X196650722Y-55406197D01*
X196636803Y-55400000D01*
X198686496Y-55400000D01*
X198687186Y-55406565D01*
X198705307Y-55578973D01*
X198706458Y-55589928D01*
X198765473Y-55771556D01*
X198860960Y-55936944D01*
X198988747Y-56078866D01*
X199143248Y-56191118D01*
X199149276Y-56193802D01*
X199149278Y-56193803D01*
X199241200Y-56234729D01*
X199317712Y-56268794D01*
X199411113Y-56288647D01*
X199498056Y-56307128D01*
X199498061Y-56307128D01*
X199504513Y-56308500D01*
X199695487Y-56308500D01*
X199701939Y-56307128D01*
X199701944Y-56307128D01*
X199788887Y-56288647D01*
X199882288Y-56268794D01*
X199958800Y-56234729D01*
X200050722Y-56193803D01*
X200050724Y-56193802D01*
X200056752Y-56191118D01*
X200139214Y-56131206D01*
X200195855Y-56090053D01*
X200211253Y-56078866D01*
X200215668Y-56073963D01*
X200220580Y-56069540D01*
X200221705Y-56070789D01*
X200275014Y-56037949D01*
X200308200Y-56033500D01*
X205691800Y-56033500D01*
X205759921Y-56053502D01*
X205779147Y-56069843D01*
X205779420Y-56069540D01*
X205784332Y-56073963D01*
X205788747Y-56078866D01*
X205804145Y-56090053D01*
X205860787Y-56131206D01*
X205943248Y-56191118D01*
X205949276Y-56193802D01*
X205949278Y-56193803D01*
X206041200Y-56234729D01*
X206117712Y-56268794D01*
X206211113Y-56288647D01*
X206298056Y-56307128D01*
X206298061Y-56307128D01*
X206304513Y-56308500D01*
X206495487Y-56308500D01*
X206501939Y-56307128D01*
X206501944Y-56307128D01*
X206588887Y-56288647D01*
X206682288Y-56268794D01*
X206758800Y-56234729D01*
X206850722Y-56193803D01*
X206850724Y-56193802D01*
X206856752Y-56191118D01*
X207011253Y-56078866D01*
X207139040Y-55936944D01*
X207234527Y-55771556D01*
X207293542Y-55589928D01*
X207294694Y-55578973D01*
X207312814Y-55406565D01*
X207313504Y-55400000D01*
X207293542Y-55210072D01*
X207234527Y-55028444D01*
X207139040Y-54863056D01*
X207097243Y-54816635D01*
X207015675Y-54726045D01*
X207015674Y-54726044D01*
X207011253Y-54721134D01*
X206856752Y-54608882D01*
X206850724Y-54606198D01*
X206850722Y-54606197D01*
X206688319Y-54533891D01*
X206688318Y-54533891D01*
X206682288Y-54531206D01*
X206588888Y-54511353D01*
X206501944Y-54492872D01*
X206501939Y-54492872D01*
X206495487Y-54491500D01*
X206304513Y-54491500D01*
X206298061Y-54492872D01*
X206298056Y-54492872D01*
X206211112Y-54511353D01*
X206117712Y-54531206D01*
X206111682Y-54533891D01*
X206111681Y-54533891D01*
X205949278Y-54606197D01*
X205949276Y-54606198D01*
X205943248Y-54608882D01*
X205788747Y-54721134D01*
X205784332Y-54726037D01*
X205779420Y-54730460D01*
X205778295Y-54729211D01*
X205724986Y-54762051D01*
X205691800Y-54766500D01*
X200308200Y-54766500D01*
X200240079Y-54746498D01*
X200220853Y-54730157D01*
X200220580Y-54730460D01*
X200215668Y-54726037D01*
X200211253Y-54721134D01*
X200056752Y-54608882D01*
X200050724Y-54606198D01*
X200050722Y-54606197D01*
X199888319Y-54533891D01*
X199888318Y-54533891D01*
X199882288Y-54531206D01*
X199788888Y-54511353D01*
X199701944Y-54492872D01*
X199701939Y-54492872D01*
X199695487Y-54491500D01*
X199504513Y-54491500D01*
X199498061Y-54492872D01*
X199498056Y-54492872D01*
X199411112Y-54511353D01*
X199317712Y-54531206D01*
X199311682Y-54533891D01*
X199311681Y-54533891D01*
X199149278Y-54606197D01*
X199149276Y-54606198D01*
X199143248Y-54608882D01*
X198988747Y-54721134D01*
X198984326Y-54726044D01*
X198984325Y-54726045D01*
X198902758Y-54816635D01*
X198860960Y-54863056D01*
X198765473Y-55028444D01*
X198706458Y-55210072D01*
X198686496Y-55400000D01*
X196636803Y-55400000D01*
X196488319Y-55333891D01*
X196488318Y-55333891D01*
X196482288Y-55331206D01*
X196388888Y-55311353D01*
X196301944Y-55292872D01*
X196301939Y-55292872D01*
X196295487Y-55291500D01*
X196104513Y-55291500D01*
X196098061Y-55292872D01*
X196098056Y-55292872D01*
X196011112Y-55311353D01*
X195917712Y-55331206D01*
X195911682Y-55333891D01*
X195911681Y-55333891D01*
X195749278Y-55406197D01*
X195749276Y-55406198D01*
X195743248Y-55408882D01*
X195588747Y-55521134D01*
X195584329Y-55526041D01*
X195584325Y-55526045D01*
X195475203Y-55647238D01*
X195460960Y-55663056D01*
X195446073Y-55688841D01*
X195372837Y-55815690D01*
X195365473Y-55828444D01*
X195306458Y-56010072D01*
X195305768Y-56016633D01*
X195305768Y-56016635D01*
X195298820Y-56082745D01*
X195286496Y-56200000D01*
X195287186Y-56206565D01*
X195299228Y-56321134D01*
X195306458Y-56389928D01*
X195365473Y-56571556D01*
X195368776Y-56577278D01*
X195368777Y-56577279D01*
X195460960Y-56736944D01*
X195458223Y-56738524D01*
X195477649Y-56792347D01*
X195461822Y-56861557D01*
X195460886Y-56863013D01*
X195460960Y-56863056D01*
X195365473Y-57028444D01*
X195306458Y-57210072D01*
X195305768Y-57216633D01*
X195305768Y-57216635D01*
X195295193Y-57317251D01*
X195286496Y-57400000D01*
X195287186Y-57406565D01*
X195292608Y-57458148D01*
X195306458Y-57589928D01*
X195365473Y-57771556D01*
X195368776Y-57777278D01*
X195368777Y-57777279D01*
X195460960Y-57936944D01*
X195458223Y-57938524D01*
X195477649Y-57992347D01*
X195461822Y-58061557D01*
X195460886Y-58063013D01*
X195460960Y-58063056D01*
X195365473Y-58228444D01*
X195306458Y-58410072D01*
X195305768Y-58416633D01*
X195305768Y-58416635D01*
X195287186Y-58593435D01*
X195286496Y-58600000D01*
X195287186Y-58606565D01*
X195299228Y-58721134D01*
X195306458Y-58789928D01*
X195365473Y-58971556D01*
X195368776Y-58977278D01*
X195368777Y-58977279D01*
X195460960Y-59136944D01*
X195458223Y-59138524D01*
X195477649Y-59192347D01*
X195461822Y-59261557D01*
X195460886Y-59263013D01*
X195460960Y-59263056D01*
X195365473Y-59428444D01*
X195306458Y-59610072D01*
X195305768Y-59616633D01*
X195305768Y-59616635D01*
X195293479Y-59733564D01*
X195286496Y-59800000D01*
X195287186Y-59806565D01*
X195305145Y-59977432D01*
X195306458Y-59989928D01*
X195365473Y-60171556D01*
X195368776Y-60177278D01*
X195368777Y-60177279D01*
X195402686Y-60236010D01*
X195460960Y-60336944D01*
X195465378Y-60341851D01*
X195465379Y-60341852D01*
X195508667Y-60389928D01*
X195588747Y-60478866D01*
X195743248Y-60591118D01*
X195749276Y-60593802D01*
X195749278Y-60593803D01*
X195911681Y-60666109D01*
X195917712Y-60668794D01*
X196011112Y-60688647D01*
X196098056Y-60707128D01*
X196098061Y-60707128D01*
X196104513Y-60708500D01*
X196295487Y-60708500D01*
X196301939Y-60707128D01*
X196301944Y-60707128D01*
X196388888Y-60688647D01*
X196482288Y-60668794D01*
X196488319Y-60666109D01*
X196650722Y-60593803D01*
X196650724Y-60593802D01*
X196656752Y-60591118D01*
X196811253Y-60478866D01*
X196891333Y-60389928D01*
X196934621Y-60341852D01*
X196934622Y-60341851D01*
X196939040Y-60336944D01*
X196997314Y-60236010D01*
X197031223Y-60177279D01*
X197031224Y-60177278D01*
X197034527Y-60171556D01*
X197093542Y-59989928D01*
X197098124Y-59946329D01*
X197125137Y-59880673D01*
X197183358Y-59840043D01*
X197223434Y-59833500D01*
X206190406Y-59833500D01*
X206258527Y-59853502D01*
X206305020Y-59907158D01*
X206315124Y-59977432D01*
X206310238Y-59998438D01*
X206308498Y-60003792D01*
X206308497Y-60003797D01*
X206306458Y-60010072D01*
X206305768Y-60016633D01*
X206305768Y-60016635D01*
X206289093Y-60175292D01*
X206262080Y-60240949D01*
X206252878Y-60251217D01*
X205474500Y-61029595D01*
X205412188Y-61063621D01*
X205385405Y-61066500D01*
X189614595Y-61066500D01*
X189546474Y-61046498D01*
X189525499Y-61029595D01*
X189470404Y-60974499D01*
X189436379Y-60912186D01*
X189433500Y-60885404D01*
X189433500Y-57478763D01*
X189434027Y-57467579D01*
X189435701Y-57460091D01*
X189433562Y-57392032D01*
X189433500Y-57388075D01*
X189433500Y-57360144D01*
X189432994Y-57356138D01*
X189432061Y-57344292D01*
X189431334Y-57321134D01*
X189430673Y-57300110D01*
X189425022Y-57280658D01*
X189421014Y-57261306D01*
X189419468Y-57249068D01*
X189419467Y-57249066D01*
X189418474Y-57241203D01*
X189402194Y-57200086D01*
X189398359Y-57188885D01*
X189386018Y-57146406D01*
X189381985Y-57139587D01*
X189381983Y-57139582D01*
X189375707Y-57128971D01*
X189367010Y-57111221D01*
X189359552Y-57092383D01*
X189336878Y-57061175D01*
X189314995Y-56999843D01*
X189313504Y-57000000D01*
X189294232Y-56816635D01*
X189294232Y-56816633D01*
X189293542Y-56810072D01*
X189234527Y-56628444D01*
X189139040Y-56463056D01*
X189097243Y-56416635D01*
X189015675Y-56326045D01*
X189015674Y-56326044D01*
X189011253Y-56321134D01*
X188856752Y-56208882D01*
X188850724Y-56206198D01*
X188850722Y-56206197D01*
X188688319Y-56133891D01*
X188688318Y-56133891D01*
X188682288Y-56131206D01*
X188675833Y-56129834D01*
X188675824Y-56129831D01*
X188647361Y-56123781D01*
X188584888Y-56090053D01*
X188550567Y-56027903D01*
X188555295Y-55957064D01*
X188584464Y-55911440D01*
X192467247Y-52028657D01*
X192475537Y-52021113D01*
X192482018Y-52017000D01*
X192528659Y-51967332D01*
X192531413Y-51964491D01*
X192551134Y-51944770D01*
X192553612Y-51941575D01*
X192561318Y-51932553D01*
X192586158Y-51906101D01*
X192591586Y-51900321D01*
X192601346Y-51882568D01*
X192612199Y-51866045D01*
X192614517Y-51863056D01*
X192624613Y-51850041D01*
X192642176Y-51809457D01*
X192647383Y-51798827D01*
X192668695Y-51760060D01*
X192670666Y-51752383D01*
X192670668Y-51752378D01*
X192673732Y-51740442D01*
X192680138Y-51721730D01*
X192682077Y-51717251D01*
X192688181Y-51703145D01*
X192695097Y-51659481D01*
X192697504Y-51647860D01*
X192706528Y-51612711D01*
X192706528Y-51612710D01*
X192708500Y-51605030D01*
X192708500Y-51584769D01*
X192710051Y-51565058D01*
X192711979Y-51552885D01*
X192713219Y-51545057D01*
X192709059Y-51501046D01*
X192708500Y-51489189D01*
X192708500Y-46439594D01*
X192728502Y-46371473D01*
X192745405Y-46350499D01*
X192750499Y-46345405D01*
X192812811Y-46311379D01*
X192839594Y-46308500D01*
X192895487Y-46308500D01*
X192901939Y-46307128D01*
X192901944Y-46307128D01*
X192988888Y-46288647D01*
X193082288Y-46268794D01*
X193088319Y-46266109D01*
X193250722Y-46193803D01*
X193250724Y-46193802D01*
X193256752Y-46191118D01*
X193278904Y-46175024D01*
X193365542Y-46112077D01*
X193411253Y-46078866D01*
X193420704Y-46068370D01*
X193481149Y-46031132D01*
X193552133Y-46032484D01*
X193611117Y-46071998D01*
X193633616Y-46112076D01*
X193653818Y-46171421D01*
X193657512Y-46177425D01*
X193714567Y-46270166D01*
X193748862Y-46325912D01*
X193753793Y-46330947D01*
X193753795Y-46330950D01*
X193870843Y-46450475D01*
X193875771Y-46455507D01*
X194028238Y-46553765D01*
X194034858Y-46556174D01*
X194034861Y-46556176D01*
X194192066Y-46613394D01*
X194198685Y-46615803D01*
X194338769Y-46633500D01*
X194435610Y-46633500D01*
X194570255Y-46618397D01*
X194694065Y-46575282D01*
X194764972Y-46571768D01*
X194826524Y-46607149D01*
X194859177Y-46670191D01*
X194861500Y-46694273D01*
X194861500Y-46903663D01*
X194876235Y-47048727D01*
X194934465Y-47234541D01*
X195028870Y-47404850D01*
X195033019Y-47409691D01*
X195033022Y-47409695D01*
X195092684Y-47479303D01*
X195155591Y-47552698D01*
X195309453Y-47672046D01*
X195315176Y-47674862D01*
X195315179Y-47674864D01*
X195478444Y-47755200D01*
X195484171Y-47758018D01*
X195490349Y-47759627D01*
X195490351Y-47759628D01*
X195666425Y-47805492D01*
X195666428Y-47805492D01*
X195672607Y-47807102D01*
X195756597Y-47811504D01*
X195860683Y-47816959D01*
X195860687Y-47816959D01*
X195867064Y-47817293D01*
X196048008Y-47789928D01*
X196053285Y-47789130D01*
X196053286Y-47789130D01*
X196059599Y-47788175D01*
X196065585Y-47785972D01*
X196065591Y-47785971D01*
X196236360Y-47723140D01*
X196236365Y-47723138D01*
X196242346Y-47720937D01*
X196407840Y-47618326D01*
X196482362Y-47547855D01*
X196544685Y-47488919D01*
X196549322Y-47484534D01*
X196661011Y-47325025D01*
X196697753Y-47240120D01*
X196735810Y-47152175D01*
X196735811Y-47152171D01*
X196738345Y-47146316D01*
X196743315Y-47122528D01*
X196777176Y-46960443D01*
X196777177Y-46960438D01*
X196778165Y-46955707D01*
X196778500Y-46949315D01*
X196778500Y-45706337D01*
X196763765Y-45561273D01*
X196735969Y-45472575D01*
X196707444Y-45381549D01*
X196707442Y-45381544D01*
X196705535Y-45375459D01*
X196650808Y-45276730D01*
X196614223Y-45210729D01*
X196614221Y-45210726D01*
X196611130Y-45205150D01*
X196606981Y-45200309D01*
X196606978Y-45200305D01*
X196488560Y-45062145D01*
X196484409Y-45057302D01*
X196459460Y-45037949D01*
X196335594Y-44941869D01*
X196330547Y-44937954D01*
X196324824Y-44935138D01*
X196324821Y-44935136D01*
X196161556Y-44854800D01*
X196155829Y-44851982D01*
X196149651Y-44850373D01*
X196149649Y-44850372D01*
X195973575Y-44804508D01*
X195973572Y-44804508D01*
X195967393Y-44802898D01*
X195883403Y-44798496D01*
X195779317Y-44793041D01*
X195779313Y-44793041D01*
X195772936Y-44792707D01*
X195617587Y-44816201D01*
X195586715Y-44820870D01*
X195586714Y-44820870D01*
X195580401Y-44821825D01*
X195574415Y-44824028D01*
X195574409Y-44824029D01*
X195403640Y-44886860D01*
X195403635Y-44886862D01*
X195397654Y-44889063D01*
X195392232Y-44892425D01*
X195269307Y-44968642D01*
X195232160Y-44991674D01*
X195227527Y-44996055D01*
X195227526Y-44996056D01*
X195190766Y-45030818D01*
X195090678Y-45125466D01*
X195087019Y-45130692D01*
X195068946Y-45156502D01*
X195013488Y-45200831D01*
X194942869Y-45208139D01*
X194897481Y-45190144D01*
X194751762Y-45096235D01*
X194745142Y-45093826D01*
X194745139Y-45093824D01*
X194587934Y-45036606D01*
X194587933Y-45036606D01*
X194581315Y-45034197D01*
X194441231Y-45016500D01*
X194344390Y-45016500D01*
X194209745Y-45031603D01*
X194203092Y-45033920D01*
X194203091Y-45033920D01*
X194045106Y-45088936D01*
X194045103Y-45088938D01*
X194038448Y-45091255D01*
X194032469Y-45094991D01*
X194024367Y-45100054D01*
X193884624Y-45187374D01*
X193879628Y-45192336D01*
X193874102Y-45196715D01*
X193873263Y-45195657D01*
X193817474Y-45225866D01*
X193746676Y-45220552D01*
X193689990Y-45177806D01*
X193671290Y-45141588D01*
X193650910Y-45078866D01*
X193634527Y-45028444D01*
X193539040Y-44863056D01*
X193506365Y-44826766D01*
X193415675Y-44726045D01*
X193415674Y-44726044D01*
X193411253Y-44721134D01*
X193256752Y-44608882D01*
X193250724Y-44606198D01*
X193250722Y-44606197D01*
X193088319Y-44533891D01*
X193088318Y-44533891D01*
X193082288Y-44531206D01*
X192988888Y-44511353D01*
X192901944Y-44492872D01*
X192901939Y-44492872D01*
X192895487Y-44491500D01*
X192704513Y-44491500D01*
X192698061Y-44492872D01*
X192698056Y-44492872D01*
X192611113Y-44511353D01*
X192517712Y-44531206D01*
X192511682Y-44533891D01*
X192511681Y-44533891D01*
X192349278Y-44606197D01*
X192349276Y-44606198D01*
X192343248Y-44608882D01*
X192188747Y-44721134D01*
X192098945Y-44820870D01*
X192093636Y-44826766D01*
X192033190Y-44864006D01*
X191962207Y-44862654D01*
X191906364Y-44826766D01*
X191901056Y-44820870D01*
X191811253Y-44721134D01*
X191656752Y-44608882D01*
X191650724Y-44606198D01*
X191650722Y-44606197D01*
X191488319Y-44533891D01*
X191488318Y-44533891D01*
X191482288Y-44531206D01*
X191388888Y-44511353D01*
X191301944Y-44492872D01*
X191301939Y-44492872D01*
X191295487Y-44491500D01*
X191104513Y-44491500D01*
X191098061Y-44492872D01*
X191098056Y-44492872D01*
X191011113Y-44511353D01*
X190917712Y-44531206D01*
X190911682Y-44533891D01*
X190911681Y-44533891D01*
X190749278Y-44606197D01*
X190749276Y-44606198D01*
X190743248Y-44608882D01*
X190588747Y-44721134D01*
X190584326Y-44726044D01*
X190584325Y-44726045D01*
X190493636Y-44826766D01*
X190460960Y-44863056D01*
X190365473Y-45028444D01*
X190306458Y-45210072D01*
X190305768Y-45216633D01*
X190305768Y-45216635D01*
X190293843Y-45330095D01*
X190286496Y-45400000D01*
X190287186Y-45406565D01*
X190304114Y-45567622D01*
X190306458Y-45589928D01*
X190365473Y-45771556D01*
X190460960Y-45936944D01*
X190534137Y-46018215D01*
X190564853Y-46082221D01*
X190566500Y-46102524D01*
X190566500Y-50885406D01*
X190546498Y-50953527D01*
X190529595Y-50974501D01*
X187449500Y-54054595D01*
X187387188Y-54088621D01*
X187360405Y-54091500D01*
X187304513Y-54091500D01*
X187298061Y-54092872D01*
X187298056Y-54092872D01*
X187211113Y-54111353D01*
X187117712Y-54131206D01*
X187111682Y-54133891D01*
X187111681Y-54133891D01*
X186949278Y-54206197D01*
X186949276Y-54206198D01*
X186943248Y-54208882D01*
X186788747Y-54321134D01*
X186784326Y-54326044D01*
X186784325Y-54326045D01*
X186672852Y-54449849D01*
X186660960Y-54463056D01*
X186565473Y-54628444D01*
X186506458Y-54810072D01*
X186505768Y-54816633D01*
X186505768Y-54816635D01*
X186504527Y-54828444D01*
X186486496Y-55000000D01*
X186506458Y-55189928D01*
X186565473Y-55371556D01*
X186568776Y-55377278D01*
X186568777Y-55377279D01*
X186660960Y-55536944D01*
X186658223Y-55538524D01*
X186677649Y-55592347D01*
X186661822Y-55661557D01*
X186660886Y-55663013D01*
X186660960Y-55663056D01*
X186572837Y-55815690D01*
X186565473Y-55828444D01*
X186506458Y-56010072D01*
X186505768Y-56016633D01*
X186505768Y-56016635D01*
X186498820Y-56082745D01*
X186486496Y-56200000D01*
X186487186Y-56206565D01*
X186499228Y-56321134D01*
X186506458Y-56389928D01*
X186565473Y-56571556D01*
X186660960Y-56736944D01*
X186665378Y-56741851D01*
X186665379Y-56741852D01*
X186708667Y-56789928D01*
X186788747Y-56878866D01*
X186943248Y-56991118D01*
X186945326Y-56992043D01*
X186993212Y-57042267D01*
X187006646Y-57111981D01*
X186980257Y-57177891D01*
X186945805Y-57207744D01*
X186943248Y-57208882D01*
X186788747Y-57321134D01*
X186784326Y-57326044D01*
X186784325Y-57326045D01*
X186670764Y-57452168D01*
X186660960Y-57463056D01*
X186565473Y-57628444D01*
X186506458Y-57810072D01*
X186486496Y-58000000D01*
X186506458Y-58189928D01*
X186565473Y-58371556D01*
X186660960Y-58536944D01*
X186665378Y-58541851D01*
X186665379Y-58541852D01*
X186731863Y-58615690D01*
X186762581Y-58679697D01*
X186753816Y-58750151D01*
X186731863Y-58784310D01*
X186660960Y-58863056D01*
X186565473Y-59028444D01*
X186506458Y-59210072D01*
X186486496Y-59400000D01*
X185508500Y-59400000D01*
X185508500Y-46903663D01*
X186221500Y-46903663D01*
X186236235Y-47048727D01*
X186294465Y-47234541D01*
X186388870Y-47404850D01*
X186393019Y-47409691D01*
X186393022Y-47409695D01*
X186452684Y-47479303D01*
X186515591Y-47552698D01*
X186669453Y-47672046D01*
X186675176Y-47674862D01*
X186675179Y-47674864D01*
X186838444Y-47755200D01*
X186844171Y-47758018D01*
X186850349Y-47759627D01*
X186850351Y-47759628D01*
X187026425Y-47805492D01*
X187026428Y-47805492D01*
X187032607Y-47807102D01*
X187116597Y-47811504D01*
X187220683Y-47816959D01*
X187220687Y-47816959D01*
X187227064Y-47817293D01*
X187408008Y-47789928D01*
X187413285Y-47789130D01*
X187413286Y-47789130D01*
X187419599Y-47788175D01*
X187425585Y-47785972D01*
X187425591Y-47785971D01*
X187596360Y-47723140D01*
X187596365Y-47723138D01*
X187602346Y-47720937D01*
X187767840Y-47618326D01*
X187842362Y-47547855D01*
X187904685Y-47488919D01*
X187909322Y-47484534D01*
X188021011Y-47325025D01*
X188057753Y-47240120D01*
X188095810Y-47152175D01*
X188095811Y-47152171D01*
X188098345Y-47146316D01*
X188103315Y-47122528D01*
X188137176Y-46960443D01*
X188137177Y-46960438D01*
X188138165Y-46955707D01*
X188138500Y-46949315D01*
X188138500Y-46693770D01*
X188158502Y-46625649D01*
X188212158Y-46579156D01*
X188282432Y-46569052D01*
X188307592Y-46575368D01*
X188359642Y-46594313D01*
X188398997Y-46608637D01*
X188418685Y-46615803D01*
X188558769Y-46633500D01*
X188655610Y-46633500D01*
X188790255Y-46618397D01*
X188822555Y-46607149D01*
X188954894Y-46561064D01*
X188954897Y-46561062D01*
X188961552Y-46558745D01*
X188969522Y-46553765D01*
X189109402Y-46466359D01*
X189115376Y-46462626D01*
X189127612Y-46450475D01*
X189239085Y-46339778D01*
X189239088Y-46339774D01*
X189244082Y-46334815D01*
X189341273Y-46181666D01*
X189351672Y-46152463D01*
X189399757Y-46017425D01*
X189399758Y-46017420D01*
X189402119Y-46010790D01*
X189423596Y-45830680D01*
X189422860Y-45823676D01*
X189405372Y-45657288D01*
X189405371Y-45657286D01*
X189404636Y-45650288D01*
X189346182Y-45478579D01*
X189307750Y-45416109D01*
X189254834Y-45330095D01*
X189254832Y-45330092D01*
X189251138Y-45324088D01*
X189246207Y-45319053D01*
X189246205Y-45319050D01*
X189129157Y-45199525D01*
X189129156Y-45199524D01*
X189124229Y-45194493D01*
X188971762Y-45096235D01*
X188965142Y-45093826D01*
X188965139Y-45093824D01*
X188807934Y-45036606D01*
X188807933Y-45036606D01*
X188801315Y-45034197D01*
X188661231Y-45016500D01*
X188564390Y-45016500D01*
X188429745Y-45031603D01*
X188423092Y-45033920D01*
X188423091Y-45033920D01*
X188265106Y-45088936D01*
X188265103Y-45088938D01*
X188258448Y-45091255D01*
X188252469Y-45094991D01*
X188210716Y-45121081D01*
X188104624Y-45187374D01*
X188103777Y-45186018D01*
X188045774Y-45209489D01*
X187976011Y-45196312D01*
X187937663Y-45166103D01*
X187848560Y-45062145D01*
X187844409Y-45057302D01*
X187819460Y-45037949D01*
X187695594Y-44941869D01*
X187690547Y-44937954D01*
X187684824Y-44935138D01*
X187684821Y-44935136D01*
X187521556Y-44854800D01*
X187515829Y-44851982D01*
X187509651Y-44850373D01*
X187509649Y-44850372D01*
X187333575Y-44804508D01*
X187333572Y-44804508D01*
X187327393Y-44802898D01*
X187243403Y-44798496D01*
X187139317Y-44793041D01*
X187139313Y-44793041D01*
X187132936Y-44792707D01*
X186977587Y-44816201D01*
X186946715Y-44820870D01*
X186946714Y-44820870D01*
X186940401Y-44821825D01*
X186934415Y-44824028D01*
X186934409Y-44824029D01*
X186763640Y-44886860D01*
X186763635Y-44886862D01*
X186757654Y-44889063D01*
X186752232Y-44892425D01*
X186629307Y-44968642D01*
X186592160Y-44991674D01*
X186587527Y-44996055D01*
X186587526Y-44996056D01*
X186509818Y-45069540D01*
X186450678Y-45125466D01*
X186447019Y-45130692D01*
X186447015Y-45130697D01*
X186398275Y-45200305D01*
X186338989Y-45284975D01*
X186322063Y-45324088D01*
X186286373Y-45406565D01*
X186261655Y-45463684D01*
X186260350Y-45469931D01*
X186260349Y-45469934D01*
X186224064Y-45643624D01*
X186221835Y-45654293D01*
X186221500Y-45660685D01*
X186221500Y-46903663D01*
X185508500Y-46903663D01*
X185508500Y-44400000D01*
X200286496Y-44400000D01*
X200306458Y-44589928D01*
X200365473Y-44771556D01*
X200368776Y-44777278D01*
X200368777Y-44777279D01*
X200394496Y-44821825D01*
X200460960Y-44936944D01*
X200465378Y-44941851D01*
X200465379Y-44941852D01*
X200532592Y-45016500D01*
X200588747Y-45078866D01*
X200617906Y-45100051D01*
X200724926Y-45177806D01*
X200743248Y-45191118D01*
X200749276Y-45193802D01*
X200749278Y-45193803D01*
X200911681Y-45266109D01*
X200917712Y-45268794D01*
X201011113Y-45288647D01*
X201098056Y-45307128D01*
X201098061Y-45307128D01*
X201104513Y-45308500D01*
X201295487Y-45308500D01*
X201301939Y-45307128D01*
X201301944Y-45307128D01*
X201388887Y-45288647D01*
X201482288Y-45268794D01*
X201488319Y-45266109D01*
X201650722Y-45193803D01*
X201650724Y-45193802D01*
X201656752Y-45191118D01*
X201675075Y-45177806D01*
X201797393Y-45088936D01*
X201811253Y-45078866D01*
X201815668Y-45073963D01*
X201820580Y-45069540D01*
X201821705Y-45070789D01*
X201875014Y-45037949D01*
X201908200Y-45033500D01*
X202085406Y-45033500D01*
X202153527Y-45053502D01*
X202174501Y-45070405D01*
X204158258Y-47054162D01*
X204192284Y-47116474D01*
X204187219Y-47187289D01*
X204178284Y-47206254D01*
X204165473Y-47228444D01*
X204106458Y-47410072D01*
X204105768Y-47416633D01*
X204105768Y-47416635D01*
X204098632Y-47484534D01*
X204086496Y-47600000D01*
X204106458Y-47789928D01*
X204165473Y-47971556D01*
X204260960Y-48136944D01*
X204388747Y-48278866D01*
X204543248Y-48391118D01*
X204549276Y-48393802D01*
X204549278Y-48393803D01*
X204711681Y-48466109D01*
X204717712Y-48468794D01*
X204811112Y-48488647D01*
X204898056Y-48507128D01*
X204898061Y-48507128D01*
X204904513Y-48508500D01*
X205095487Y-48508500D01*
X205101939Y-48507128D01*
X205101944Y-48507128D01*
X205188888Y-48488647D01*
X205282288Y-48468794D01*
X205288319Y-48466109D01*
X205450722Y-48393803D01*
X205450724Y-48393802D01*
X205456752Y-48391118D01*
X205611253Y-48278866D01*
X205739040Y-48136944D01*
X205834527Y-47971556D01*
X205893542Y-47789928D01*
X205913504Y-47600000D01*
X205901368Y-47484534D01*
X205894232Y-47416635D01*
X205894232Y-47416633D01*
X205893542Y-47410072D01*
X205834527Y-47228444D01*
X205739040Y-47063056D01*
X205734620Y-47058147D01*
X205734617Y-47058143D01*
X205662613Y-46978174D01*
X205631801Y-46913579D01*
X205630922Y-46908028D01*
X205630673Y-46900110D01*
X205625022Y-46880658D01*
X205621014Y-46861306D01*
X205619467Y-46849063D01*
X205618474Y-46841203D01*
X205615556Y-46833832D01*
X205602200Y-46800097D01*
X205598355Y-46788870D01*
X205597721Y-46786687D01*
X205586018Y-46746407D01*
X205581984Y-46739585D01*
X205581981Y-46739579D01*
X205575706Y-46728968D01*
X205567010Y-46711218D01*
X205562472Y-46699756D01*
X205562469Y-46699751D01*
X205559552Y-46692383D01*
X205533573Y-46656625D01*
X205527057Y-46646707D01*
X205508944Y-46616081D01*
X205504542Y-46608637D01*
X205490218Y-46594313D01*
X205477376Y-46579278D01*
X205465472Y-46562893D01*
X205431406Y-46534711D01*
X205422627Y-46526722D01*
X202903652Y-44007747D01*
X202896112Y-43999461D01*
X202892000Y-43992982D01*
X202842348Y-43946356D01*
X202839507Y-43943602D01*
X202819770Y-43923865D01*
X202816573Y-43921385D01*
X202807551Y-43913680D01*
X202781100Y-43888841D01*
X202775321Y-43883414D01*
X202768375Y-43879595D01*
X202768372Y-43879593D01*
X202757566Y-43873652D01*
X202741047Y-43862801D01*
X202735048Y-43858148D01*
X202725041Y-43850386D01*
X202717772Y-43847241D01*
X202717768Y-43847238D01*
X202684463Y-43832826D01*
X202673813Y-43827609D01*
X202635060Y-43806305D01*
X202615437Y-43801267D01*
X202596734Y-43794863D01*
X202585420Y-43789967D01*
X202585419Y-43789967D01*
X202578145Y-43786819D01*
X202570322Y-43785580D01*
X202570312Y-43785577D01*
X202534476Y-43779901D01*
X202522856Y-43777495D01*
X202487711Y-43768472D01*
X202487710Y-43768472D01*
X202480030Y-43766500D01*
X202459776Y-43766500D01*
X202440065Y-43764949D01*
X202427886Y-43763020D01*
X202420057Y-43761780D01*
X202412165Y-43762526D01*
X202376039Y-43765941D01*
X202364181Y-43766500D01*
X201908200Y-43766500D01*
X201840079Y-43746498D01*
X201820853Y-43730157D01*
X201820580Y-43730460D01*
X201815668Y-43726037D01*
X201811253Y-43721134D01*
X201656752Y-43608882D01*
X201650724Y-43606198D01*
X201650722Y-43606197D01*
X201488319Y-43533891D01*
X201488318Y-43533891D01*
X201482288Y-43531206D01*
X201388888Y-43511353D01*
X201301944Y-43492872D01*
X201301939Y-43492872D01*
X201295487Y-43491500D01*
X201104513Y-43491500D01*
X201098061Y-43492872D01*
X201098056Y-43492872D01*
X201011113Y-43511353D01*
X200917712Y-43531206D01*
X200911682Y-43533891D01*
X200911681Y-43533891D01*
X200749278Y-43606197D01*
X200749276Y-43606198D01*
X200743248Y-43608882D01*
X200588747Y-43721134D01*
X200584326Y-43726044D01*
X200584325Y-43726045D01*
X200475203Y-43847238D01*
X200460960Y-43863056D01*
X200365473Y-44028444D01*
X200306458Y-44210072D01*
X200286496Y-44400000D01*
X185508500Y-44400000D01*
X185508500Y-42583663D01*
X186221500Y-42583663D01*
X186236235Y-42728727D01*
X186238144Y-42734818D01*
X186292556Y-42908451D01*
X186292558Y-42908456D01*
X186294465Y-42914541D01*
X186388870Y-43084850D01*
X186393019Y-43089691D01*
X186393022Y-43089695D01*
X186452684Y-43159303D01*
X186515591Y-43232698D01*
X186669453Y-43352046D01*
X186675176Y-43354862D01*
X186675179Y-43354864D01*
X186838444Y-43435200D01*
X186844171Y-43438018D01*
X186850349Y-43439627D01*
X186850351Y-43439628D01*
X187026425Y-43485492D01*
X187026428Y-43485492D01*
X187032607Y-43487102D01*
X187116526Y-43491500D01*
X187220683Y-43496959D01*
X187220687Y-43496959D01*
X187227064Y-43497293D01*
X187382413Y-43473799D01*
X187413285Y-43469130D01*
X187413286Y-43469130D01*
X187419599Y-43468175D01*
X187425585Y-43465972D01*
X187425591Y-43465971D01*
X187596360Y-43403140D01*
X187596365Y-43403138D01*
X187602346Y-43400937D01*
X187767840Y-43298326D01*
X187842362Y-43227855D01*
X187904685Y-43168919D01*
X187909322Y-43164534D01*
X188021011Y-43005025D01*
X188068857Y-42894459D01*
X188114268Y-42839885D01*
X188184494Y-42818500D01*
X194811812Y-42818500D01*
X194879933Y-42838502D01*
X194926426Y-42892158D01*
X194932042Y-42906811D01*
X194934465Y-42914541D01*
X195028870Y-43084850D01*
X195033019Y-43089691D01*
X195033022Y-43089695D01*
X195092684Y-43159303D01*
X195155591Y-43232698D01*
X195309453Y-43352046D01*
X195315176Y-43354862D01*
X195315179Y-43354864D01*
X195478444Y-43435200D01*
X195484171Y-43438018D01*
X195490349Y-43439627D01*
X195490351Y-43439628D01*
X195666425Y-43485492D01*
X195666428Y-43485492D01*
X195672607Y-43487102D01*
X195756526Y-43491500D01*
X195860683Y-43496959D01*
X195860687Y-43496959D01*
X195867064Y-43497293D01*
X196022413Y-43473799D01*
X196053285Y-43469130D01*
X196053286Y-43469130D01*
X196059599Y-43468175D01*
X196065585Y-43465972D01*
X196065591Y-43465971D01*
X196236360Y-43403140D01*
X196236365Y-43403138D01*
X196242346Y-43400937D01*
X196407840Y-43298326D01*
X196482362Y-43227855D01*
X196544685Y-43168919D01*
X196549322Y-43164534D01*
X196661011Y-43005025D01*
X196709853Y-42892158D01*
X196735810Y-42832175D01*
X196735811Y-42832171D01*
X196738345Y-42826316D01*
X196757460Y-42734818D01*
X196777176Y-42640443D01*
X196777177Y-42640438D01*
X196778165Y-42635707D01*
X196778500Y-42629315D01*
X196778500Y-41686337D01*
X196763765Y-41541273D01*
X196735632Y-41451500D01*
X196707444Y-41361549D01*
X196707441Y-41361541D01*
X196705535Y-41355459D01*
X196611130Y-41185150D01*
X196606981Y-41180309D01*
X196606978Y-41180305D01*
X196488560Y-41042145D01*
X196484409Y-41037302D01*
X196330547Y-40917954D01*
X196324824Y-40915138D01*
X196324821Y-40915136D01*
X196161556Y-40834800D01*
X196155829Y-40831982D01*
X196149651Y-40830373D01*
X196149649Y-40830372D01*
X195973575Y-40784508D01*
X195973572Y-40784508D01*
X195967393Y-40782898D01*
X195883403Y-40778496D01*
X195779317Y-40773041D01*
X195779313Y-40773041D01*
X195772936Y-40772707D01*
X195617587Y-40796201D01*
X195586715Y-40800870D01*
X195586714Y-40800870D01*
X195580401Y-40801825D01*
X195574415Y-40804028D01*
X195574409Y-40804029D01*
X195403640Y-40866860D01*
X195403635Y-40866862D01*
X195397654Y-40869063D01*
X195232160Y-40971674D01*
X195227527Y-40976055D01*
X195227526Y-40976056D01*
X195095315Y-41101081D01*
X195090678Y-41105466D01*
X194978989Y-41264975D01*
X194939833Y-41355459D01*
X194931143Y-41375541D01*
X194885732Y-41430115D01*
X194815506Y-41451500D01*
X188188188Y-41451500D01*
X188120067Y-41431498D01*
X188073574Y-41377842D01*
X188067958Y-41363189D01*
X188065535Y-41355459D01*
X187971130Y-41185150D01*
X187966981Y-41180309D01*
X187966978Y-41180305D01*
X187848560Y-41042145D01*
X187844409Y-41037302D01*
X187690547Y-40917954D01*
X187684824Y-40915138D01*
X187684821Y-40915136D01*
X187521556Y-40834800D01*
X187515829Y-40831982D01*
X187509651Y-40830373D01*
X187509649Y-40830372D01*
X187333575Y-40784508D01*
X187333572Y-40784508D01*
X187327393Y-40782898D01*
X187243403Y-40778496D01*
X187139317Y-40773041D01*
X187139313Y-40773041D01*
X187132936Y-40772707D01*
X186977587Y-40796201D01*
X186946715Y-40800870D01*
X186946714Y-40800870D01*
X186940401Y-40801825D01*
X186934415Y-40804028D01*
X186934409Y-40804029D01*
X186763640Y-40866860D01*
X186763635Y-40866862D01*
X186757654Y-40869063D01*
X186592160Y-40971674D01*
X186587527Y-40976055D01*
X186587526Y-40976056D01*
X186455315Y-41101081D01*
X186450678Y-41105466D01*
X186338989Y-41264975D01*
X186336452Y-41270838D01*
X186267527Y-41430115D01*
X186261655Y-41443684D01*
X186260350Y-41449931D01*
X186260349Y-41449934D01*
X186241268Y-41541273D01*
X186221835Y-41634293D01*
X186221500Y-41640685D01*
X186221500Y-42583663D01*
X185508500Y-42583663D01*
X185508500Y-40634500D01*
X185528502Y-40566379D01*
X185582158Y-40519886D01*
X185634500Y-40508500D01*
X224365500Y-40508500D01*
X224433621Y-40528502D01*
G37*
G04 #@! TD.AperFunction*
M02*
