%TF.GenerationSoftware,KiCad,Pcbnew,(6.0.10-0)*%
%TF.CreationDate,2022-12-22T21:20:58-05:00*%
%TF.ProjectId,rev2,72657632-2e6b-4696-9361-645f70636258,rev?*%
%TF.SameCoordinates,Original*%
%TF.FileFunction,Drillmap*%
%TF.FilePolarity,Positive*%
%FSLAX45Y45*%
G04 Gerber Fmt 4.5, Leading zero omitted, Abs format (unit mm)*
G04 Created by KiCad (PCBNEW (6.0.10-0)) date 2022-12-22 21:20:58*
%MOMM*%
%LPD*%
G01*
G04 APERTURE LIST*
%ADD10C,0.100000*%
%ADD11C,0.200000*%
%ADD12C,0.060000*%
G04 APERTURE END LIST*
D10*
X22500000Y-7000000D02*
X18500000Y-7000000D01*
X18500000Y-4000000D02*
X22500000Y-4000000D01*
X18500000Y-7000000D02*
X18500000Y-4000000D01*
X22500000Y-4000000D02*
X22500000Y-7000000D01*
D11*
D12*
X18831000Y-4552500D02*
X18891000Y-4612500D01*
X18891000Y-4552500D02*
X18831000Y-4612500D01*
X19409000Y-4552500D02*
X19469000Y-4612500D01*
X19469000Y-4552500D02*
X19409000Y-4612500D01*
D11*
X18752619Y-7315476D02*
X18752619Y-7115476D01*
X18800238Y-7115476D01*
X18828810Y-7125000D01*
X18847857Y-7144048D01*
X18857381Y-7163095D01*
X18866905Y-7201190D01*
X18866905Y-7229762D01*
X18857381Y-7267857D01*
X18847857Y-7286905D01*
X18828810Y-7305952D01*
X18800238Y-7315476D01*
X18752619Y-7315476D01*
X18952619Y-7315476D02*
X18952619Y-7182143D01*
X18952619Y-7220238D02*
X18962143Y-7201190D01*
X18971667Y-7191667D01*
X18990714Y-7182143D01*
X19009762Y-7182143D01*
X19076429Y-7315476D02*
X19076429Y-7182143D01*
X19076429Y-7115476D02*
X19066905Y-7125000D01*
X19076429Y-7134524D01*
X19085952Y-7125000D01*
X19076429Y-7115476D01*
X19076429Y-7134524D01*
X19200238Y-7315476D02*
X19181190Y-7305952D01*
X19171667Y-7286905D01*
X19171667Y-7115476D01*
X19305000Y-7315476D02*
X19285952Y-7305952D01*
X19276429Y-7286905D01*
X19276429Y-7115476D01*
X19533571Y-7315476D02*
X19533571Y-7115476D01*
X19600238Y-7258333D01*
X19666905Y-7115476D01*
X19666905Y-7315476D01*
X19847857Y-7315476D02*
X19847857Y-7210714D01*
X19838333Y-7191667D01*
X19819286Y-7182143D01*
X19781190Y-7182143D01*
X19762143Y-7191667D01*
X19847857Y-7305952D02*
X19828810Y-7315476D01*
X19781190Y-7315476D01*
X19762143Y-7305952D01*
X19752619Y-7286905D01*
X19752619Y-7267857D01*
X19762143Y-7248809D01*
X19781190Y-7239286D01*
X19828810Y-7239286D01*
X19847857Y-7229762D01*
X19943095Y-7182143D02*
X19943095Y-7382143D01*
X19943095Y-7191667D02*
X19962143Y-7182143D01*
X20000238Y-7182143D01*
X20019286Y-7191667D01*
X20028810Y-7201190D01*
X20038333Y-7220238D01*
X20038333Y-7277381D01*
X20028810Y-7296428D01*
X20019286Y-7305952D01*
X20000238Y-7315476D01*
X19962143Y-7315476D01*
X19943095Y-7305952D01*
X20124048Y-7296428D02*
X20133571Y-7305952D01*
X20124048Y-7315476D01*
X20114524Y-7305952D01*
X20124048Y-7296428D01*
X20124048Y-7315476D01*
X20124048Y-7191667D02*
X20133571Y-7201190D01*
X20124048Y-7210714D01*
X20114524Y-7201190D01*
X20124048Y-7191667D01*
X20124048Y-7210714D01*
D12*
X18435000Y-7615000D02*
X18495000Y-7675000D01*
X18495000Y-7615000D02*
X18435000Y-7675000D01*
D11*
X18790714Y-7535476D02*
X18809762Y-7535476D01*
X18828810Y-7545000D01*
X18838333Y-7554524D01*
X18847857Y-7573571D01*
X18857381Y-7611667D01*
X18857381Y-7659286D01*
X18847857Y-7697381D01*
X18838333Y-7716428D01*
X18828810Y-7725952D01*
X18809762Y-7735476D01*
X18790714Y-7735476D01*
X18771667Y-7725952D01*
X18762143Y-7716428D01*
X18752619Y-7697381D01*
X18743095Y-7659286D01*
X18743095Y-7611667D01*
X18752619Y-7573571D01*
X18762143Y-7554524D01*
X18771667Y-7545000D01*
X18790714Y-7535476D01*
X18943095Y-7716428D02*
X18952619Y-7725952D01*
X18943095Y-7735476D01*
X18933571Y-7725952D01*
X18943095Y-7716428D01*
X18943095Y-7735476D01*
X19124048Y-7535476D02*
X19085952Y-7535476D01*
X19066905Y-7545000D01*
X19057381Y-7554524D01*
X19038333Y-7583095D01*
X19028810Y-7621190D01*
X19028810Y-7697381D01*
X19038333Y-7716428D01*
X19047857Y-7725952D01*
X19066905Y-7735476D01*
X19105000Y-7735476D01*
X19124048Y-7725952D01*
X19133571Y-7716428D01*
X19143095Y-7697381D01*
X19143095Y-7649762D01*
X19133571Y-7630714D01*
X19124048Y-7621190D01*
X19105000Y-7611667D01*
X19066905Y-7611667D01*
X19047857Y-7621190D01*
X19038333Y-7630714D01*
X19028810Y-7649762D01*
X19266905Y-7535476D02*
X19285952Y-7535476D01*
X19305000Y-7545000D01*
X19314524Y-7554524D01*
X19324048Y-7573571D01*
X19333571Y-7611667D01*
X19333571Y-7659286D01*
X19324048Y-7697381D01*
X19314524Y-7716428D01*
X19305000Y-7725952D01*
X19285952Y-7735476D01*
X19266905Y-7735476D01*
X19247857Y-7725952D01*
X19238333Y-7716428D01*
X19228810Y-7697381D01*
X19219286Y-7659286D01*
X19219286Y-7611667D01*
X19228810Y-7573571D01*
X19238333Y-7554524D01*
X19247857Y-7545000D01*
X19266905Y-7535476D01*
X19457381Y-7535476D02*
X19476429Y-7535476D01*
X19495476Y-7545000D01*
X19505000Y-7554524D01*
X19514524Y-7573571D01*
X19524048Y-7611667D01*
X19524048Y-7659286D01*
X19514524Y-7697381D01*
X19505000Y-7716428D01*
X19495476Y-7725952D01*
X19476429Y-7735476D01*
X19457381Y-7735476D01*
X19438333Y-7725952D01*
X19428810Y-7716428D01*
X19419286Y-7697381D01*
X19409762Y-7659286D01*
X19409762Y-7611667D01*
X19419286Y-7573571D01*
X19428810Y-7554524D01*
X19438333Y-7545000D01*
X19457381Y-7535476D01*
X19609762Y-7735476D02*
X19609762Y-7602143D01*
X19609762Y-7621190D02*
X19619286Y-7611667D01*
X19638333Y-7602143D01*
X19666905Y-7602143D01*
X19685952Y-7611667D01*
X19695476Y-7630714D01*
X19695476Y-7735476D01*
X19695476Y-7630714D02*
X19705000Y-7611667D01*
X19724048Y-7602143D01*
X19752619Y-7602143D01*
X19771667Y-7611667D01*
X19781190Y-7630714D01*
X19781190Y-7735476D01*
X19876429Y-7735476D02*
X19876429Y-7602143D01*
X19876429Y-7621190D02*
X19885952Y-7611667D01*
X19905000Y-7602143D01*
X19933571Y-7602143D01*
X19952619Y-7611667D01*
X19962143Y-7630714D01*
X19962143Y-7735476D01*
X19962143Y-7630714D02*
X19971667Y-7611667D01*
X19990714Y-7602143D01*
X20019286Y-7602143D01*
X20038333Y-7611667D01*
X20047857Y-7630714D01*
X20047857Y-7735476D01*
X20438333Y-7525952D02*
X20266905Y-7783095D01*
X20695476Y-7535476D02*
X20714524Y-7535476D01*
X20733571Y-7545000D01*
X20743095Y-7554524D01*
X20752619Y-7573571D01*
X20762143Y-7611667D01*
X20762143Y-7659286D01*
X20752619Y-7697381D01*
X20743095Y-7716428D01*
X20733571Y-7725952D01*
X20714524Y-7735476D01*
X20695476Y-7735476D01*
X20676429Y-7725952D01*
X20666905Y-7716428D01*
X20657381Y-7697381D01*
X20647857Y-7659286D01*
X20647857Y-7611667D01*
X20657381Y-7573571D01*
X20666905Y-7554524D01*
X20676429Y-7545000D01*
X20695476Y-7535476D01*
X20847857Y-7716428D02*
X20857381Y-7725952D01*
X20847857Y-7735476D01*
X20838333Y-7725952D01*
X20847857Y-7716428D01*
X20847857Y-7735476D01*
X20981190Y-7535476D02*
X21000238Y-7535476D01*
X21019286Y-7545000D01*
X21028810Y-7554524D01*
X21038333Y-7573571D01*
X21047857Y-7611667D01*
X21047857Y-7659286D01*
X21038333Y-7697381D01*
X21028810Y-7716428D01*
X21019286Y-7725952D01*
X21000238Y-7735476D01*
X20981190Y-7735476D01*
X20962143Y-7725952D01*
X20952619Y-7716428D01*
X20943095Y-7697381D01*
X20933571Y-7659286D01*
X20933571Y-7611667D01*
X20943095Y-7573571D01*
X20952619Y-7554524D01*
X20962143Y-7545000D01*
X20981190Y-7535476D01*
X21124048Y-7554524D02*
X21133571Y-7545000D01*
X21152619Y-7535476D01*
X21200238Y-7535476D01*
X21219286Y-7545000D01*
X21228810Y-7554524D01*
X21238333Y-7573571D01*
X21238333Y-7592619D01*
X21228810Y-7621190D01*
X21114524Y-7735476D01*
X21238333Y-7735476D01*
X21305000Y-7535476D02*
X21428810Y-7535476D01*
X21362143Y-7611667D01*
X21390714Y-7611667D01*
X21409762Y-7621190D01*
X21419286Y-7630714D01*
X21428810Y-7649762D01*
X21428810Y-7697381D01*
X21419286Y-7716428D01*
X21409762Y-7725952D01*
X21390714Y-7735476D01*
X21333571Y-7735476D01*
X21314524Y-7725952D01*
X21305000Y-7716428D01*
X21600238Y-7535476D02*
X21562143Y-7535476D01*
X21543095Y-7545000D01*
X21533571Y-7554524D01*
X21514524Y-7583095D01*
X21505000Y-7621190D01*
X21505000Y-7697381D01*
X21514524Y-7716428D01*
X21524048Y-7725952D01*
X21543095Y-7735476D01*
X21581190Y-7735476D01*
X21600238Y-7725952D01*
X21609762Y-7716428D01*
X21619286Y-7697381D01*
X21619286Y-7649762D01*
X21609762Y-7630714D01*
X21600238Y-7621190D01*
X21581190Y-7611667D01*
X21543095Y-7611667D01*
X21524048Y-7621190D01*
X21514524Y-7630714D01*
X21505000Y-7649762D01*
X21695476Y-7535476D02*
X21695476Y-7573571D01*
X21771667Y-7535476D02*
X21771667Y-7573571D01*
X22066905Y-7811667D02*
X22057381Y-7802143D01*
X22038333Y-7773571D01*
X22028810Y-7754524D01*
X22019286Y-7725952D01*
X22009762Y-7678333D01*
X22009762Y-7640238D01*
X22019286Y-7592619D01*
X22028810Y-7564048D01*
X22038333Y-7545000D01*
X22057381Y-7516428D01*
X22066905Y-7506905D01*
X22133571Y-7554524D02*
X22143095Y-7545000D01*
X22162143Y-7535476D01*
X22209762Y-7535476D01*
X22228810Y-7545000D01*
X22238333Y-7554524D01*
X22247857Y-7573571D01*
X22247857Y-7592619D01*
X22238333Y-7621190D01*
X22124048Y-7735476D01*
X22247857Y-7735476D01*
X22485952Y-7735476D02*
X22485952Y-7535476D01*
X22571667Y-7735476D02*
X22571667Y-7630714D01*
X22562143Y-7611667D01*
X22543095Y-7602143D01*
X22514524Y-7602143D01*
X22495476Y-7611667D01*
X22485952Y-7621190D01*
X22695476Y-7735476D02*
X22676428Y-7725952D01*
X22666905Y-7716428D01*
X22657381Y-7697381D01*
X22657381Y-7640238D01*
X22666905Y-7621190D01*
X22676428Y-7611667D01*
X22695476Y-7602143D01*
X22724048Y-7602143D01*
X22743095Y-7611667D01*
X22752619Y-7621190D01*
X22762143Y-7640238D01*
X22762143Y-7697381D01*
X22752619Y-7716428D01*
X22743095Y-7725952D01*
X22724048Y-7735476D01*
X22695476Y-7735476D01*
X22876428Y-7735476D02*
X22857381Y-7725952D01*
X22847857Y-7706905D01*
X22847857Y-7535476D01*
X23028809Y-7725952D02*
X23009762Y-7735476D01*
X22971667Y-7735476D01*
X22952619Y-7725952D01*
X22943095Y-7706905D01*
X22943095Y-7630714D01*
X22952619Y-7611667D01*
X22971667Y-7602143D01*
X23009762Y-7602143D01*
X23028809Y-7611667D01*
X23038333Y-7630714D01*
X23038333Y-7649762D01*
X22943095Y-7668809D01*
X23114524Y-7725952D02*
X23133571Y-7735476D01*
X23171667Y-7735476D01*
X23190714Y-7725952D01*
X23200238Y-7706905D01*
X23200238Y-7697381D01*
X23190714Y-7678333D01*
X23171667Y-7668809D01*
X23143095Y-7668809D01*
X23124048Y-7659286D01*
X23114524Y-7640238D01*
X23114524Y-7630714D01*
X23124048Y-7611667D01*
X23143095Y-7602143D01*
X23171667Y-7602143D01*
X23190714Y-7611667D01*
X23266905Y-7811667D02*
X23276428Y-7802143D01*
X23295476Y-7773571D01*
X23305000Y-7754524D01*
X23314524Y-7725952D01*
X23324048Y-7678333D01*
X23324048Y-7640238D01*
X23314524Y-7592619D01*
X23305000Y-7564048D01*
X23295476Y-7545000D01*
X23276428Y-7516428D01*
X23266905Y-7506905D01*
X23628809Y-7811667D02*
X23619286Y-7802143D01*
X23600238Y-7773571D01*
X23590714Y-7754524D01*
X23581190Y-7725952D01*
X23571667Y-7678333D01*
X23571667Y-7640238D01*
X23581190Y-7592619D01*
X23590714Y-7564048D01*
X23600238Y-7545000D01*
X23619286Y-7516428D01*
X23628809Y-7506905D01*
X23705000Y-7602143D02*
X23705000Y-7735476D01*
X23705000Y-7621190D02*
X23714524Y-7611667D01*
X23733571Y-7602143D01*
X23762143Y-7602143D01*
X23781190Y-7611667D01*
X23790714Y-7630714D01*
X23790714Y-7735476D01*
X23914524Y-7735476D02*
X23895476Y-7725952D01*
X23885952Y-7716428D01*
X23876428Y-7697381D01*
X23876428Y-7640238D01*
X23885952Y-7621190D01*
X23895476Y-7611667D01*
X23914524Y-7602143D01*
X23943095Y-7602143D01*
X23962143Y-7611667D01*
X23971667Y-7621190D01*
X23981190Y-7640238D01*
X23981190Y-7697381D01*
X23971667Y-7716428D01*
X23962143Y-7725952D01*
X23943095Y-7735476D01*
X23914524Y-7735476D01*
X24038333Y-7602143D02*
X24114524Y-7602143D01*
X24066905Y-7535476D02*
X24066905Y-7706905D01*
X24076428Y-7725952D01*
X24095476Y-7735476D01*
X24114524Y-7735476D01*
X24333571Y-7602143D02*
X24333571Y-7802143D01*
X24333571Y-7611667D02*
X24352619Y-7602143D01*
X24390714Y-7602143D01*
X24409762Y-7611667D01*
X24419286Y-7621190D01*
X24428809Y-7640238D01*
X24428809Y-7697381D01*
X24419286Y-7716428D01*
X24409762Y-7725952D01*
X24390714Y-7735476D01*
X24352619Y-7735476D01*
X24333571Y-7725952D01*
X24543095Y-7735476D02*
X24524048Y-7725952D01*
X24514524Y-7706905D01*
X24514524Y-7535476D01*
X24705000Y-7735476D02*
X24705000Y-7630714D01*
X24695476Y-7611667D01*
X24676428Y-7602143D01*
X24638333Y-7602143D01*
X24619286Y-7611667D01*
X24705000Y-7725952D02*
X24685952Y-7735476D01*
X24638333Y-7735476D01*
X24619286Y-7725952D01*
X24609762Y-7706905D01*
X24609762Y-7687857D01*
X24619286Y-7668809D01*
X24638333Y-7659286D01*
X24685952Y-7659286D01*
X24705000Y-7649762D01*
X24771667Y-7602143D02*
X24847857Y-7602143D01*
X24800238Y-7535476D02*
X24800238Y-7706905D01*
X24809762Y-7725952D01*
X24828809Y-7735476D01*
X24847857Y-7735476D01*
X24990714Y-7725952D02*
X24971667Y-7735476D01*
X24933571Y-7735476D01*
X24914524Y-7725952D01*
X24905000Y-7706905D01*
X24905000Y-7630714D01*
X24914524Y-7611667D01*
X24933571Y-7602143D01*
X24971667Y-7602143D01*
X24990714Y-7611667D01*
X25000238Y-7630714D01*
X25000238Y-7649762D01*
X24905000Y-7668809D01*
X25171667Y-7735476D02*
X25171667Y-7535476D01*
X25171667Y-7725952D02*
X25152619Y-7735476D01*
X25114524Y-7735476D01*
X25095476Y-7725952D01*
X25085952Y-7716428D01*
X25076428Y-7697381D01*
X25076428Y-7640238D01*
X25085952Y-7621190D01*
X25095476Y-7611667D01*
X25114524Y-7602143D01*
X25152619Y-7602143D01*
X25171667Y-7611667D01*
X25247857Y-7811667D02*
X25257381Y-7802143D01*
X25276428Y-7773571D01*
X25285952Y-7754524D01*
X25295476Y-7725952D01*
X25305000Y-7678333D01*
X25305000Y-7640238D01*
X25295476Y-7592619D01*
X25285952Y-7564048D01*
X25276428Y-7545000D01*
X25257381Y-7516428D01*
X25247857Y-7506905D01*
M02*
