%TF.GenerationSoftware,KiCad,Pcbnew,(6.0.10-0)*%
%TF.CreationDate,2022-12-22T21:20:58-05:00*%
%TF.ProjectId,rev2,72657632-2e6b-4696-9361-645f70636258,rev?*%
%TF.SameCoordinates,Original*%
%TF.FileFunction,Drillmap*%
%TF.FilePolarity,Positive*%
%FSLAX45Y45*%
G04 Gerber Fmt 4.5, Leading zero omitted, Abs format (unit mm)*
G04 Created by KiCad (PCBNEW (6.0.10-0)) date 2022-12-22 21:20:58*
%MOMM*%
%LPD*%
G01*
G04 APERTURE LIST*
%ADD10C,0.100000*%
%ADD11C,0.200000*%
%ADD12C,0.040000*%
%ADD13C,0.060000*%
G04 APERTURE END LIST*
D10*
X22500000Y-7000000D02*
X18500000Y-7000000D01*
X18500000Y-4000000D02*
X22500000Y-4000000D01*
X18500000Y-7000000D02*
X18500000Y-4000000D01*
X22500000Y-4000000D02*
X22500000Y-7000000D01*
D11*
D12*
X18600000Y-5120000D02*
X18640000Y-5160000D01*
X18640000Y-5120000D02*
X18600000Y-5160000D01*
X18720000Y-5480000D02*
X18760000Y-5520000D01*
X18760000Y-5480000D02*
X18720000Y-5520000D01*
X18720000Y-5600000D02*
X18760000Y-5640000D01*
X18760000Y-5600000D02*
X18720000Y-5640000D01*
X18720000Y-5780000D02*
X18760000Y-5820000D01*
X18760000Y-5780000D02*
X18720000Y-5820000D01*
X18720000Y-5920000D02*
X18760000Y-5960000D01*
X18760000Y-5920000D02*
X18720000Y-5960000D01*
X18820000Y-5680000D02*
X18860000Y-5720000D01*
X18860000Y-5680000D02*
X18820000Y-5720000D01*
X18982500Y-5462500D02*
X19022500Y-5502500D01*
X19022500Y-5462500D02*
X18982500Y-5502500D01*
X19100000Y-4520000D02*
X19140000Y-4560000D01*
X19140000Y-4520000D02*
X19100000Y-4560000D01*
X19260000Y-4520000D02*
X19300000Y-4560000D01*
X19300000Y-4520000D02*
X19260000Y-4560000D01*
X19260000Y-4940000D02*
X19300000Y-4980000D01*
X19300000Y-4940000D02*
X19260000Y-4980000D01*
X19480000Y-4940000D02*
X19520000Y-4980000D01*
X19520000Y-4940000D02*
X19480000Y-4980000D01*
X19500000Y-5440000D02*
X19540000Y-5480000D01*
X19540000Y-5440000D02*
X19500000Y-5480000D01*
X19600000Y-5600000D02*
X19640000Y-5640000D01*
X19640000Y-5600000D02*
X19600000Y-5640000D01*
X19600000Y-5720000D02*
X19640000Y-5760000D01*
X19640000Y-5720000D02*
X19600000Y-5760000D01*
X19600000Y-5840000D02*
X19640000Y-5880000D01*
X19640000Y-5840000D02*
X19600000Y-5880000D01*
X19600000Y-5960000D02*
X19640000Y-6000000D01*
X19640000Y-5960000D02*
X19600000Y-6000000D01*
X19920000Y-5180000D02*
X19960000Y-5220000D01*
X19960000Y-5180000D02*
X19920000Y-5220000D01*
X19940000Y-5520000D02*
X19980000Y-5560000D01*
X19980000Y-5520000D02*
X19940000Y-5560000D01*
X19960000Y-4740000D02*
X20000000Y-4780000D01*
X20000000Y-4740000D02*
X19960000Y-4780000D01*
X20100000Y-4420000D02*
X20140000Y-4460000D01*
X20140000Y-4420000D02*
X20100000Y-4460000D01*
X20480000Y-4740000D02*
X20520000Y-4780000D01*
X20520000Y-4740000D02*
X20480000Y-4780000D01*
X20620000Y-5520000D02*
X20660000Y-5560000D01*
X20660000Y-5520000D02*
X20620000Y-5560000D01*
X20700000Y-6000000D02*
X20740000Y-6040000D01*
X20740000Y-6000000D02*
X20700000Y-6040000D01*
X20700000Y-6120000D02*
X20740000Y-6160000D01*
X20740000Y-6120000D02*
X20700000Y-6160000D01*
X20700000Y-6240000D02*
X20740000Y-6280000D01*
X20740000Y-6240000D02*
X20700000Y-6280000D01*
X21420000Y-5220000D02*
X21460000Y-5260000D01*
X21460000Y-5220000D02*
X21420000Y-5260000D01*
X21420000Y-5360000D02*
X21460000Y-5400000D01*
X21460000Y-5360000D02*
X21420000Y-5400000D01*
X21420000Y-5500000D02*
X21460000Y-5540000D01*
X21460000Y-5500000D02*
X21420000Y-5540000D01*
X21420000Y-5640000D02*
X21460000Y-5680000D01*
X21460000Y-5640000D02*
X21420000Y-5680000D01*
X21490000Y-4505000D02*
X21530000Y-4545000D01*
X21530000Y-4505000D02*
X21490000Y-4545000D01*
X22330000Y-4380000D02*
X22370000Y-4420000D01*
X22370000Y-4380000D02*
X22330000Y-4420000D01*
X22330000Y-5080000D02*
X22370000Y-5120000D01*
X22370000Y-5080000D02*
X22330000Y-5120000D01*
X22330000Y-5780000D02*
X22370000Y-5820000D01*
X22370000Y-5780000D02*
X22330000Y-5820000D01*
X22330000Y-6480000D02*
X22370000Y-6520000D01*
X22370000Y-6480000D02*
X22330000Y-6520000D01*
D13*
X18748000Y-4213500D02*
G75*
G03*
X18748000Y-4213500I-30000J0D01*
G01*
D11*
X18688000Y-4173500D02*
X18688000Y-4253500D01*
X18748000Y-4173500D02*
X18748000Y-4253500D01*
X18688000Y-4253500D02*
G75*
G03*
X18748000Y-4253500I30000J0D01*
G01*
X18748000Y-4173500D02*
G75*
G03*
X18688000Y-4173500I-30000J0D01*
G01*
D13*
X18748000Y-4630500D02*
G75*
G03*
X18748000Y-4630500I-30000J0D01*
G01*
D11*
X18688000Y-4575500D02*
X18688000Y-4685500D01*
X18748000Y-4575500D02*
X18748000Y-4685500D01*
X18688000Y-4685500D02*
G75*
G03*
X18748000Y-4685500I30000J0D01*
G01*
X18748000Y-4575500D02*
G75*
G03*
X18688000Y-4575500I-30000J0D01*
G01*
D13*
X19612000Y-4213500D02*
G75*
G03*
X19612000Y-4213500I-30000J0D01*
G01*
D11*
X19552000Y-4173500D02*
X19552000Y-4253500D01*
X19612000Y-4173500D02*
X19612000Y-4253500D01*
X19552000Y-4253500D02*
G75*
G03*
X19612000Y-4253500I30000J0D01*
G01*
X19612000Y-4173500D02*
G75*
G03*
X19552000Y-4173500I-30000J0D01*
G01*
D13*
X19612000Y-4630500D02*
G75*
G03*
X19612000Y-4630500I-30000J0D01*
G01*
D11*
X19552000Y-4575500D02*
X19552000Y-4685500D01*
X19612000Y-4575500D02*
X19612000Y-4685500D01*
X19552000Y-4685500D02*
G75*
G03*
X19612000Y-4685500I30000J0D01*
G01*
X19612000Y-4575500D02*
G75*
G03*
X19552000Y-4575500I-30000J0D01*
G01*
D10*
X21066000Y-6210000D02*
X21066000Y-6310000D01*
X21016000Y-6260000D02*
X21116000Y-6260000D01*
X21066000Y-6464000D02*
X21066000Y-6564000D01*
X21016000Y-6514000D02*
X21116000Y-6514000D01*
X21066000Y-6718000D02*
X21066000Y-6818000D01*
X21016000Y-6768000D02*
X21116000Y-6768000D01*
X21320000Y-6210000D02*
X21320000Y-6310000D01*
X21270000Y-6260000D02*
X21370000Y-6260000D01*
X21320000Y-6464000D02*
X21320000Y-6564000D01*
X21270000Y-6514000D02*
X21370000Y-6514000D01*
X21320000Y-6718000D02*
X21320000Y-6818000D01*
X21270000Y-6768000D02*
X21370000Y-6768000D01*
D11*
X18752619Y-7315476D02*
X18752619Y-7115476D01*
X18800238Y-7115476D01*
X18828810Y-7125000D01*
X18847857Y-7144048D01*
X18857381Y-7163095D01*
X18866905Y-7201190D01*
X18866905Y-7229762D01*
X18857381Y-7267857D01*
X18847857Y-7286905D01*
X18828810Y-7305952D01*
X18800238Y-7315476D01*
X18752619Y-7315476D01*
X18952619Y-7315476D02*
X18952619Y-7182143D01*
X18952619Y-7220238D02*
X18962143Y-7201190D01*
X18971667Y-7191667D01*
X18990714Y-7182143D01*
X19009762Y-7182143D01*
X19076429Y-7315476D02*
X19076429Y-7182143D01*
X19076429Y-7115476D02*
X19066905Y-7125000D01*
X19076429Y-7134524D01*
X19085952Y-7125000D01*
X19076429Y-7115476D01*
X19076429Y-7134524D01*
X19200238Y-7315476D02*
X19181190Y-7305952D01*
X19171667Y-7286905D01*
X19171667Y-7115476D01*
X19305000Y-7315476D02*
X19285952Y-7305952D01*
X19276429Y-7286905D01*
X19276429Y-7115476D01*
X19533571Y-7315476D02*
X19533571Y-7115476D01*
X19600238Y-7258333D01*
X19666905Y-7115476D01*
X19666905Y-7315476D01*
X19847857Y-7315476D02*
X19847857Y-7210714D01*
X19838333Y-7191667D01*
X19819286Y-7182143D01*
X19781190Y-7182143D01*
X19762143Y-7191667D01*
X19847857Y-7305952D02*
X19828810Y-7315476D01*
X19781190Y-7315476D01*
X19762143Y-7305952D01*
X19752619Y-7286905D01*
X19752619Y-7267857D01*
X19762143Y-7248809D01*
X19781190Y-7239286D01*
X19828810Y-7239286D01*
X19847857Y-7229762D01*
X19943095Y-7182143D02*
X19943095Y-7382143D01*
X19943095Y-7191667D02*
X19962143Y-7182143D01*
X20000238Y-7182143D01*
X20019286Y-7191667D01*
X20028810Y-7201190D01*
X20038333Y-7220238D01*
X20038333Y-7277381D01*
X20028810Y-7296428D01*
X20019286Y-7305952D01*
X20000238Y-7315476D01*
X19962143Y-7315476D01*
X19943095Y-7305952D01*
X20124048Y-7296428D02*
X20133571Y-7305952D01*
X20124048Y-7315476D01*
X20114524Y-7305952D01*
X20124048Y-7296428D01*
X20124048Y-7315476D01*
X20124048Y-7191667D02*
X20133571Y-7201190D01*
X20124048Y-7210714D01*
X20114524Y-7201190D01*
X20124048Y-7191667D01*
X20124048Y-7210714D01*
D12*
X18455000Y-7625000D02*
X18495000Y-7665000D01*
X18495000Y-7625000D02*
X18455000Y-7665000D01*
D11*
X18790714Y-7535476D02*
X18809762Y-7535476D01*
X18828810Y-7545000D01*
X18838333Y-7554524D01*
X18847857Y-7573571D01*
X18857381Y-7611667D01*
X18857381Y-7659286D01*
X18847857Y-7697381D01*
X18838333Y-7716428D01*
X18828810Y-7725952D01*
X18809762Y-7735476D01*
X18790714Y-7735476D01*
X18771667Y-7725952D01*
X18762143Y-7716428D01*
X18752619Y-7697381D01*
X18743095Y-7659286D01*
X18743095Y-7611667D01*
X18752619Y-7573571D01*
X18762143Y-7554524D01*
X18771667Y-7545000D01*
X18790714Y-7535476D01*
X18943095Y-7716428D02*
X18952619Y-7725952D01*
X18943095Y-7735476D01*
X18933571Y-7725952D01*
X18943095Y-7716428D01*
X18943095Y-7735476D01*
X19124048Y-7602143D02*
X19124048Y-7735476D01*
X19076429Y-7525952D02*
X19028810Y-7668809D01*
X19152619Y-7668809D01*
X19266905Y-7535476D02*
X19285952Y-7535476D01*
X19305000Y-7545000D01*
X19314524Y-7554524D01*
X19324048Y-7573571D01*
X19333571Y-7611667D01*
X19333571Y-7659286D01*
X19324048Y-7697381D01*
X19314524Y-7716428D01*
X19305000Y-7725952D01*
X19285952Y-7735476D01*
X19266905Y-7735476D01*
X19247857Y-7725952D01*
X19238333Y-7716428D01*
X19228810Y-7697381D01*
X19219286Y-7659286D01*
X19219286Y-7611667D01*
X19228810Y-7573571D01*
X19238333Y-7554524D01*
X19247857Y-7545000D01*
X19266905Y-7535476D01*
X19457381Y-7535476D02*
X19476429Y-7535476D01*
X19495476Y-7545000D01*
X19505000Y-7554524D01*
X19514524Y-7573571D01*
X19524048Y-7611667D01*
X19524048Y-7659286D01*
X19514524Y-7697381D01*
X19505000Y-7716428D01*
X19495476Y-7725952D01*
X19476429Y-7735476D01*
X19457381Y-7735476D01*
X19438333Y-7725952D01*
X19428810Y-7716428D01*
X19419286Y-7697381D01*
X19409762Y-7659286D01*
X19409762Y-7611667D01*
X19419286Y-7573571D01*
X19428810Y-7554524D01*
X19438333Y-7545000D01*
X19457381Y-7535476D01*
X19609762Y-7735476D02*
X19609762Y-7602143D01*
X19609762Y-7621190D02*
X19619286Y-7611667D01*
X19638333Y-7602143D01*
X19666905Y-7602143D01*
X19685952Y-7611667D01*
X19695476Y-7630714D01*
X19695476Y-7735476D01*
X19695476Y-7630714D02*
X19705000Y-7611667D01*
X19724048Y-7602143D01*
X19752619Y-7602143D01*
X19771667Y-7611667D01*
X19781190Y-7630714D01*
X19781190Y-7735476D01*
X19876429Y-7735476D02*
X19876429Y-7602143D01*
X19876429Y-7621190D02*
X19885952Y-7611667D01*
X19905000Y-7602143D01*
X19933571Y-7602143D01*
X19952619Y-7611667D01*
X19962143Y-7630714D01*
X19962143Y-7735476D01*
X19962143Y-7630714D02*
X19971667Y-7611667D01*
X19990714Y-7602143D01*
X20019286Y-7602143D01*
X20038333Y-7611667D01*
X20047857Y-7630714D01*
X20047857Y-7735476D01*
X20438333Y-7525952D02*
X20266905Y-7783095D01*
X20695476Y-7535476D02*
X20714524Y-7535476D01*
X20733571Y-7545000D01*
X20743095Y-7554524D01*
X20752619Y-7573571D01*
X20762143Y-7611667D01*
X20762143Y-7659286D01*
X20752619Y-7697381D01*
X20743095Y-7716428D01*
X20733571Y-7725952D01*
X20714524Y-7735476D01*
X20695476Y-7735476D01*
X20676429Y-7725952D01*
X20666905Y-7716428D01*
X20657381Y-7697381D01*
X20647857Y-7659286D01*
X20647857Y-7611667D01*
X20657381Y-7573571D01*
X20666905Y-7554524D01*
X20676429Y-7545000D01*
X20695476Y-7535476D01*
X20847857Y-7716428D02*
X20857381Y-7725952D01*
X20847857Y-7735476D01*
X20838333Y-7725952D01*
X20847857Y-7716428D01*
X20847857Y-7735476D01*
X20981190Y-7535476D02*
X21000238Y-7535476D01*
X21019286Y-7545000D01*
X21028810Y-7554524D01*
X21038333Y-7573571D01*
X21047857Y-7611667D01*
X21047857Y-7659286D01*
X21038333Y-7697381D01*
X21028810Y-7716428D01*
X21019286Y-7725952D01*
X21000238Y-7735476D01*
X20981190Y-7735476D01*
X20962143Y-7725952D01*
X20952619Y-7716428D01*
X20943095Y-7697381D01*
X20933571Y-7659286D01*
X20933571Y-7611667D01*
X20943095Y-7573571D01*
X20952619Y-7554524D01*
X20962143Y-7545000D01*
X20981190Y-7535476D01*
X21238333Y-7735476D02*
X21124048Y-7735476D01*
X21181190Y-7735476D02*
X21181190Y-7535476D01*
X21162143Y-7564048D01*
X21143095Y-7583095D01*
X21124048Y-7592619D01*
X21419286Y-7535476D02*
X21324048Y-7535476D01*
X21314524Y-7630714D01*
X21324048Y-7621190D01*
X21343095Y-7611667D01*
X21390714Y-7611667D01*
X21409762Y-7621190D01*
X21419286Y-7630714D01*
X21428810Y-7649762D01*
X21428810Y-7697381D01*
X21419286Y-7716428D01*
X21409762Y-7725952D01*
X21390714Y-7735476D01*
X21343095Y-7735476D01*
X21324048Y-7725952D01*
X21314524Y-7716428D01*
X21495476Y-7535476D02*
X21628810Y-7535476D01*
X21543095Y-7735476D01*
X21695476Y-7535476D02*
X21695476Y-7573571D01*
X21771667Y-7535476D02*
X21771667Y-7573571D01*
X22066905Y-7811667D02*
X22057381Y-7802143D01*
X22038333Y-7773571D01*
X22028810Y-7754524D01*
X22019286Y-7725952D01*
X22009762Y-7678333D01*
X22009762Y-7640238D01*
X22019286Y-7592619D01*
X22028810Y-7564048D01*
X22038333Y-7545000D01*
X22057381Y-7516428D01*
X22066905Y-7506905D01*
X22124048Y-7535476D02*
X22247857Y-7535476D01*
X22181190Y-7611667D01*
X22209762Y-7611667D01*
X22228810Y-7621190D01*
X22238333Y-7630714D01*
X22247857Y-7649762D01*
X22247857Y-7697381D01*
X22238333Y-7716428D01*
X22228810Y-7725952D01*
X22209762Y-7735476D01*
X22152619Y-7735476D01*
X22133571Y-7725952D01*
X22124048Y-7716428D01*
X22419286Y-7602143D02*
X22419286Y-7735476D01*
X22371667Y-7525952D02*
X22324048Y-7668809D01*
X22447857Y-7668809D01*
X22676428Y-7735476D02*
X22676428Y-7535476D01*
X22762143Y-7735476D02*
X22762143Y-7630714D01*
X22752619Y-7611667D01*
X22733571Y-7602143D01*
X22705000Y-7602143D01*
X22685952Y-7611667D01*
X22676428Y-7621190D01*
X22885952Y-7735476D02*
X22866905Y-7725952D01*
X22857381Y-7716428D01*
X22847857Y-7697381D01*
X22847857Y-7640238D01*
X22857381Y-7621190D01*
X22866905Y-7611667D01*
X22885952Y-7602143D01*
X22914524Y-7602143D01*
X22933571Y-7611667D01*
X22943095Y-7621190D01*
X22952619Y-7640238D01*
X22952619Y-7697381D01*
X22943095Y-7716428D01*
X22933571Y-7725952D01*
X22914524Y-7735476D01*
X22885952Y-7735476D01*
X23066905Y-7735476D02*
X23047857Y-7725952D01*
X23038333Y-7706905D01*
X23038333Y-7535476D01*
X23219286Y-7725952D02*
X23200238Y-7735476D01*
X23162143Y-7735476D01*
X23143095Y-7725952D01*
X23133571Y-7706905D01*
X23133571Y-7630714D01*
X23143095Y-7611667D01*
X23162143Y-7602143D01*
X23200238Y-7602143D01*
X23219286Y-7611667D01*
X23228809Y-7630714D01*
X23228809Y-7649762D01*
X23133571Y-7668809D01*
X23305000Y-7725952D02*
X23324048Y-7735476D01*
X23362143Y-7735476D01*
X23381190Y-7725952D01*
X23390714Y-7706905D01*
X23390714Y-7697381D01*
X23381190Y-7678333D01*
X23362143Y-7668809D01*
X23333571Y-7668809D01*
X23314524Y-7659286D01*
X23305000Y-7640238D01*
X23305000Y-7630714D01*
X23314524Y-7611667D01*
X23333571Y-7602143D01*
X23362143Y-7602143D01*
X23381190Y-7611667D01*
X23457381Y-7811667D02*
X23466905Y-7802143D01*
X23485952Y-7773571D01*
X23495476Y-7754524D01*
X23505000Y-7725952D01*
X23514524Y-7678333D01*
X23514524Y-7640238D01*
X23505000Y-7592619D01*
X23495476Y-7564048D01*
X23485952Y-7545000D01*
X23466905Y-7516428D01*
X23457381Y-7506905D01*
D13*
X18495000Y-7909000D02*
G75*
G03*
X18495000Y-7909000I-30000J0D01*
G01*
D11*
X18790714Y-7799476D02*
X18809762Y-7799476D01*
X18828810Y-7809000D01*
X18838333Y-7818524D01*
X18847857Y-7837571D01*
X18857381Y-7875667D01*
X18857381Y-7923286D01*
X18847857Y-7961381D01*
X18838333Y-7980428D01*
X18828810Y-7989952D01*
X18809762Y-7999476D01*
X18790714Y-7999476D01*
X18771667Y-7989952D01*
X18762143Y-7980428D01*
X18752619Y-7961381D01*
X18743095Y-7923286D01*
X18743095Y-7875667D01*
X18752619Y-7837571D01*
X18762143Y-7818524D01*
X18771667Y-7809000D01*
X18790714Y-7799476D01*
X18943095Y-7980428D02*
X18952619Y-7989952D01*
X18943095Y-7999476D01*
X18933571Y-7989952D01*
X18943095Y-7980428D01*
X18943095Y-7999476D01*
X19124048Y-7799476D02*
X19085952Y-7799476D01*
X19066905Y-7809000D01*
X19057381Y-7818524D01*
X19038333Y-7847095D01*
X19028810Y-7885190D01*
X19028810Y-7961381D01*
X19038333Y-7980428D01*
X19047857Y-7989952D01*
X19066905Y-7999476D01*
X19105000Y-7999476D01*
X19124048Y-7989952D01*
X19133571Y-7980428D01*
X19143095Y-7961381D01*
X19143095Y-7913762D01*
X19133571Y-7894714D01*
X19124048Y-7885190D01*
X19105000Y-7875667D01*
X19066905Y-7875667D01*
X19047857Y-7885190D01*
X19038333Y-7894714D01*
X19028810Y-7913762D01*
X19266905Y-7799476D02*
X19285952Y-7799476D01*
X19305000Y-7809000D01*
X19314524Y-7818524D01*
X19324048Y-7837571D01*
X19333571Y-7875667D01*
X19333571Y-7923286D01*
X19324048Y-7961381D01*
X19314524Y-7980428D01*
X19305000Y-7989952D01*
X19285952Y-7999476D01*
X19266905Y-7999476D01*
X19247857Y-7989952D01*
X19238333Y-7980428D01*
X19228810Y-7961381D01*
X19219286Y-7923286D01*
X19219286Y-7875667D01*
X19228810Y-7837571D01*
X19238333Y-7818524D01*
X19247857Y-7809000D01*
X19266905Y-7799476D01*
X19457381Y-7799476D02*
X19476429Y-7799476D01*
X19495476Y-7809000D01*
X19505000Y-7818524D01*
X19514524Y-7837571D01*
X19524048Y-7875667D01*
X19524048Y-7923286D01*
X19514524Y-7961381D01*
X19505000Y-7980428D01*
X19495476Y-7989952D01*
X19476429Y-7999476D01*
X19457381Y-7999476D01*
X19438333Y-7989952D01*
X19428810Y-7980428D01*
X19419286Y-7961381D01*
X19409762Y-7923286D01*
X19409762Y-7875667D01*
X19419286Y-7837571D01*
X19428810Y-7818524D01*
X19438333Y-7809000D01*
X19457381Y-7799476D01*
X19609762Y-7999476D02*
X19609762Y-7866143D01*
X19609762Y-7885190D02*
X19619286Y-7875667D01*
X19638333Y-7866143D01*
X19666905Y-7866143D01*
X19685952Y-7875667D01*
X19695476Y-7894714D01*
X19695476Y-7999476D01*
X19695476Y-7894714D02*
X19705000Y-7875667D01*
X19724048Y-7866143D01*
X19752619Y-7866143D01*
X19771667Y-7875667D01*
X19781190Y-7894714D01*
X19781190Y-7999476D01*
X19876429Y-7999476D02*
X19876429Y-7866143D01*
X19876429Y-7885190D02*
X19885952Y-7875667D01*
X19905000Y-7866143D01*
X19933571Y-7866143D01*
X19952619Y-7875667D01*
X19962143Y-7894714D01*
X19962143Y-7999476D01*
X19962143Y-7894714D02*
X19971667Y-7875667D01*
X19990714Y-7866143D01*
X20019286Y-7866143D01*
X20038333Y-7875667D01*
X20047857Y-7894714D01*
X20047857Y-7999476D01*
X20438333Y-7789952D02*
X20266905Y-8047095D01*
X20695476Y-7799476D02*
X20714524Y-7799476D01*
X20733571Y-7809000D01*
X20743095Y-7818524D01*
X20752619Y-7837571D01*
X20762143Y-7875667D01*
X20762143Y-7923286D01*
X20752619Y-7961381D01*
X20743095Y-7980428D01*
X20733571Y-7989952D01*
X20714524Y-7999476D01*
X20695476Y-7999476D01*
X20676429Y-7989952D01*
X20666905Y-7980428D01*
X20657381Y-7961381D01*
X20647857Y-7923286D01*
X20647857Y-7875667D01*
X20657381Y-7837571D01*
X20666905Y-7818524D01*
X20676429Y-7809000D01*
X20695476Y-7799476D01*
X20847857Y-7980428D02*
X20857381Y-7989952D01*
X20847857Y-7999476D01*
X20838333Y-7989952D01*
X20847857Y-7980428D01*
X20847857Y-7999476D01*
X20981190Y-7799476D02*
X21000238Y-7799476D01*
X21019286Y-7809000D01*
X21028810Y-7818524D01*
X21038333Y-7837571D01*
X21047857Y-7875667D01*
X21047857Y-7923286D01*
X21038333Y-7961381D01*
X21028810Y-7980428D01*
X21019286Y-7989952D01*
X21000238Y-7999476D01*
X20981190Y-7999476D01*
X20962143Y-7989952D01*
X20952619Y-7980428D01*
X20943095Y-7961381D01*
X20933571Y-7923286D01*
X20933571Y-7875667D01*
X20943095Y-7837571D01*
X20952619Y-7818524D01*
X20962143Y-7809000D01*
X20981190Y-7799476D01*
X21124048Y-7818524D02*
X21133571Y-7809000D01*
X21152619Y-7799476D01*
X21200238Y-7799476D01*
X21219286Y-7809000D01*
X21228810Y-7818524D01*
X21238333Y-7837571D01*
X21238333Y-7856619D01*
X21228810Y-7885190D01*
X21114524Y-7999476D01*
X21238333Y-7999476D01*
X21305000Y-7799476D02*
X21428810Y-7799476D01*
X21362143Y-7875667D01*
X21390714Y-7875667D01*
X21409762Y-7885190D01*
X21419286Y-7894714D01*
X21428810Y-7913762D01*
X21428810Y-7961381D01*
X21419286Y-7980428D01*
X21409762Y-7989952D01*
X21390714Y-7999476D01*
X21333571Y-7999476D01*
X21314524Y-7989952D01*
X21305000Y-7980428D01*
X21600238Y-7799476D02*
X21562143Y-7799476D01*
X21543095Y-7809000D01*
X21533571Y-7818524D01*
X21514524Y-7847095D01*
X21505000Y-7885190D01*
X21505000Y-7961381D01*
X21514524Y-7980428D01*
X21524048Y-7989952D01*
X21543095Y-7999476D01*
X21581190Y-7999476D01*
X21600238Y-7989952D01*
X21609762Y-7980428D01*
X21619286Y-7961381D01*
X21619286Y-7913762D01*
X21609762Y-7894714D01*
X21600238Y-7885190D01*
X21581190Y-7875667D01*
X21543095Y-7875667D01*
X21524048Y-7885190D01*
X21514524Y-7894714D01*
X21505000Y-7913762D01*
X21695476Y-7799476D02*
X21695476Y-7837571D01*
X21771667Y-7799476D02*
X21771667Y-7837571D01*
X22066905Y-8075667D02*
X22057381Y-8066143D01*
X22038333Y-8037571D01*
X22028810Y-8018524D01*
X22019286Y-7989952D01*
X22009762Y-7942333D01*
X22009762Y-7904238D01*
X22019286Y-7856619D01*
X22028810Y-7828048D01*
X22038333Y-7809000D01*
X22057381Y-7780428D01*
X22066905Y-7770905D01*
X22181190Y-7799476D02*
X22200238Y-7799476D01*
X22219286Y-7809000D01*
X22228810Y-7818524D01*
X22238333Y-7837571D01*
X22247857Y-7875667D01*
X22247857Y-7923286D01*
X22238333Y-7961381D01*
X22228810Y-7980428D01*
X22219286Y-7989952D01*
X22200238Y-7999476D01*
X22181190Y-7999476D01*
X22162143Y-7989952D01*
X22152619Y-7980428D01*
X22143095Y-7961381D01*
X22133571Y-7923286D01*
X22133571Y-7875667D01*
X22143095Y-7837571D01*
X22152619Y-7818524D01*
X22162143Y-7809000D01*
X22181190Y-7799476D01*
X22485952Y-7999476D02*
X22485952Y-7799476D01*
X22571667Y-7999476D02*
X22571667Y-7894714D01*
X22562143Y-7875667D01*
X22543095Y-7866143D01*
X22514524Y-7866143D01*
X22495476Y-7875667D01*
X22485952Y-7885190D01*
X22695476Y-7999476D02*
X22676428Y-7989952D01*
X22666905Y-7980428D01*
X22657381Y-7961381D01*
X22657381Y-7904238D01*
X22666905Y-7885190D01*
X22676428Y-7875667D01*
X22695476Y-7866143D01*
X22724048Y-7866143D01*
X22743095Y-7875667D01*
X22752619Y-7885190D01*
X22762143Y-7904238D01*
X22762143Y-7961381D01*
X22752619Y-7980428D01*
X22743095Y-7989952D01*
X22724048Y-7999476D01*
X22695476Y-7999476D01*
X22876428Y-7999476D02*
X22857381Y-7989952D01*
X22847857Y-7970905D01*
X22847857Y-7799476D01*
X23028809Y-7989952D02*
X23009762Y-7999476D01*
X22971667Y-7999476D01*
X22952619Y-7989952D01*
X22943095Y-7970905D01*
X22943095Y-7894714D01*
X22952619Y-7875667D01*
X22971667Y-7866143D01*
X23009762Y-7866143D01*
X23028809Y-7875667D01*
X23038333Y-7894714D01*
X23038333Y-7913762D01*
X22943095Y-7932809D01*
X23114524Y-7989952D02*
X23133571Y-7999476D01*
X23171667Y-7999476D01*
X23190714Y-7989952D01*
X23200238Y-7970905D01*
X23200238Y-7961381D01*
X23190714Y-7942333D01*
X23171667Y-7932809D01*
X23143095Y-7932809D01*
X23124048Y-7923286D01*
X23114524Y-7904238D01*
X23114524Y-7894714D01*
X23124048Y-7875667D01*
X23143095Y-7866143D01*
X23171667Y-7866143D01*
X23190714Y-7875667D01*
X23438333Y-7923286D02*
X23590714Y-7923286D01*
X23514524Y-7999476D02*
X23514524Y-7847095D01*
X23924048Y-7866143D02*
X23924048Y-7999476D01*
X23876428Y-7789952D02*
X23828809Y-7932809D01*
X23952619Y-7932809D01*
X24171667Y-7989952D02*
X24190714Y-7999476D01*
X24228809Y-7999476D01*
X24247857Y-7989952D01*
X24257381Y-7970905D01*
X24257381Y-7961381D01*
X24247857Y-7942333D01*
X24228809Y-7932809D01*
X24200238Y-7932809D01*
X24181190Y-7923286D01*
X24171667Y-7904238D01*
X24171667Y-7894714D01*
X24181190Y-7875667D01*
X24200238Y-7866143D01*
X24228809Y-7866143D01*
X24247857Y-7875667D01*
X24371667Y-7999476D02*
X24352619Y-7989952D01*
X24343095Y-7970905D01*
X24343095Y-7799476D01*
X24476428Y-7999476D02*
X24457381Y-7989952D01*
X24447857Y-7980428D01*
X24438333Y-7961381D01*
X24438333Y-7904238D01*
X24447857Y-7885190D01*
X24457381Y-7875667D01*
X24476428Y-7866143D01*
X24505000Y-7866143D01*
X24524048Y-7875667D01*
X24533571Y-7885190D01*
X24543095Y-7904238D01*
X24543095Y-7961381D01*
X24533571Y-7980428D01*
X24524048Y-7989952D01*
X24505000Y-7999476D01*
X24476428Y-7999476D01*
X24600238Y-7866143D02*
X24676428Y-7866143D01*
X24628809Y-7799476D02*
X24628809Y-7970905D01*
X24638333Y-7989952D01*
X24657381Y-7999476D01*
X24676428Y-7999476D01*
X24733571Y-7989952D02*
X24752619Y-7999476D01*
X24790714Y-7999476D01*
X24809762Y-7989952D01*
X24819286Y-7970905D01*
X24819286Y-7961381D01*
X24809762Y-7942333D01*
X24790714Y-7932809D01*
X24762143Y-7932809D01*
X24743095Y-7923286D01*
X24733571Y-7904238D01*
X24733571Y-7894714D01*
X24743095Y-7875667D01*
X24762143Y-7866143D01*
X24790714Y-7866143D01*
X24809762Y-7875667D01*
X24885952Y-8075667D02*
X24895476Y-8066143D01*
X24914524Y-8037571D01*
X24924048Y-8018524D01*
X24933571Y-7989952D01*
X24943095Y-7942333D01*
X24943095Y-7904238D01*
X24933571Y-7856619D01*
X24924048Y-7828048D01*
X24914524Y-7809000D01*
X24895476Y-7780428D01*
X24885952Y-7770905D01*
D10*
X18445000Y-8123000D02*
X18445000Y-8223000D01*
X18395000Y-8173000D02*
X18495000Y-8173000D01*
D11*
X18857381Y-8263476D02*
X18743095Y-8263476D01*
X18800238Y-8263476D02*
X18800238Y-8063476D01*
X18781190Y-8092048D01*
X18762143Y-8111095D01*
X18743095Y-8120619D01*
X18943095Y-8244428D02*
X18952619Y-8253952D01*
X18943095Y-8263476D01*
X18933571Y-8253952D01*
X18943095Y-8244428D01*
X18943095Y-8263476D01*
X19076429Y-8063476D02*
X19095476Y-8063476D01*
X19114524Y-8073000D01*
X19124048Y-8082524D01*
X19133571Y-8101571D01*
X19143095Y-8139667D01*
X19143095Y-8187286D01*
X19133571Y-8225381D01*
X19124048Y-8244428D01*
X19114524Y-8253952D01*
X19095476Y-8263476D01*
X19076429Y-8263476D01*
X19057381Y-8253952D01*
X19047857Y-8244428D01*
X19038333Y-8225381D01*
X19028810Y-8187286D01*
X19028810Y-8139667D01*
X19038333Y-8101571D01*
X19047857Y-8082524D01*
X19057381Y-8073000D01*
X19076429Y-8063476D01*
X19266905Y-8063476D02*
X19285952Y-8063476D01*
X19305000Y-8073000D01*
X19314524Y-8082524D01*
X19324048Y-8101571D01*
X19333571Y-8139667D01*
X19333571Y-8187286D01*
X19324048Y-8225381D01*
X19314524Y-8244428D01*
X19305000Y-8253952D01*
X19285952Y-8263476D01*
X19266905Y-8263476D01*
X19247857Y-8253952D01*
X19238333Y-8244428D01*
X19228810Y-8225381D01*
X19219286Y-8187286D01*
X19219286Y-8139667D01*
X19228810Y-8101571D01*
X19238333Y-8082524D01*
X19247857Y-8073000D01*
X19266905Y-8063476D01*
X19457381Y-8063476D02*
X19476429Y-8063476D01*
X19495476Y-8073000D01*
X19505000Y-8082524D01*
X19514524Y-8101571D01*
X19524048Y-8139667D01*
X19524048Y-8187286D01*
X19514524Y-8225381D01*
X19505000Y-8244428D01*
X19495476Y-8253952D01*
X19476429Y-8263476D01*
X19457381Y-8263476D01*
X19438333Y-8253952D01*
X19428810Y-8244428D01*
X19419286Y-8225381D01*
X19409762Y-8187286D01*
X19409762Y-8139667D01*
X19419286Y-8101571D01*
X19428810Y-8082524D01*
X19438333Y-8073000D01*
X19457381Y-8063476D01*
X19609762Y-8263476D02*
X19609762Y-8130143D01*
X19609762Y-8149190D02*
X19619286Y-8139667D01*
X19638333Y-8130143D01*
X19666905Y-8130143D01*
X19685952Y-8139667D01*
X19695476Y-8158714D01*
X19695476Y-8263476D01*
X19695476Y-8158714D02*
X19705000Y-8139667D01*
X19724048Y-8130143D01*
X19752619Y-8130143D01*
X19771667Y-8139667D01*
X19781190Y-8158714D01*
X19781190Y-8263476D01*
X19876429Y-8263476D02*
X19876429Y-8130143D01*
X19876429Y-8149190D02*
X19885952Y-8139667D01*
X19905000Y-8130143D01*
X19933571Y-8130143D01*
X19952619Y-8139667D01*
X19962143Y-8158714D01*
X19962143Y-8263476D01*
X19962143Y-8158714D02*
X19971667Y-8139667D01*
X19990714Y-8130143D01*
X20019286Y-8130143D01*
X20038333Y-8139667D01*
X20047857Y-8158714D01*
X20047857Y-8263476D01*
X20438333Y-8053952D02*
X20266905Y-8311095D01*
X20695476Y-8063476D02*
X20714524Y-8063476D01*
X20733571Y-8073000D01*
X20743095Y-8082524D01*
X20752619Y-8101571D01*
X20762143Y-8139667D01*
X20762143Y-8187286D01*
X20752619Y-8225381D01*
X20743095Y-8244428D01*
X20733571Y-8253952D01*
X20714524Y-8263476D01*
X20695476Y-8263476D01*
X20676429Y-8253952D01*
X20666905Y-8244428D01*
X20657381Y-8225381D01*
X20647857Y-8187286D01*
X20647857Y-8139667D01*
X20657381Y-8101571D01*
X20666905Y-8082524D01*
X20676429Y-8073000D01*
X20695476Y-8063476D01*
X20847857Y-8244428D02*
X20857381Y-8253952D01*
X20847857Y-8263476D01*
X20838333Y-8253952D01*
X20847857Y-8244428D01*
X20847857Y-8263476D01*
X20981190Y-8063476D02*
X21000238Y-8063476D01*
X21019286Y-8073000D01*
X21028810Y-8082524D01*
X21038333Y-8101571D01*
X21047857Y-8139667D01*
X21047857Y-8187286D01*
X21038333Y-8225381D01*
X21028810Y-8244428D01*
X21019286Y-8253952D01*
X21000238Y-8263476D01*
X20981190Y-8263476D01*
X20962143Y-8253952D01*
X20952619Y-8244428D01*
X20943095Y-8225381D01*
X20933571Y-8187286D01*
X20933571Y-8139667D01*
X20943095Y-8101571D01*
X20952619Y-8082524D01*
X20962143Y-8073000D01*
X20981190Y-8063476D01*
X21114524Y-8063476D02*
X21238333Y-8063476D01*
X21171667Y-8139667D01*
X21200238Y-8139667D01*
X21219286Y-8149190D01*
X21228810Y-8158714D01*
X21238333Y-8177762D01*
X21238333Y-8225381D01*
X21228810Y-8244428D01*
X21219286Y-8253952D01*
X21200238Y-8263476D01*
X21143095Y-8263476D01*
X21124048Y-8253952D01*
X21114524Y-8244428D01*
X21333571Y-8263476D02*
X21371667Y-8263476D01*
X21390714Y-8253952D01*
X21400238Y-8244428D01*
X21419286Y-8215857D01*
X21428810Y-8177762D01*
X21428810Y-8101571D01*
X21419286Y-8082524D01*
X21409762Y-8073000D01*
X21390714Y-8063476D01*
X21352619Y-8063476D01*
X21333571Y-8073000D01*
X21324048Y-8082524D01*
X21314524Y-8101571D01*
X21314524Y-8149190D01*
X21324048Y-8168238D01*
X21333571Y-8177762D01*
X21352619Y-8187286D01*
X21390714Y-8187286D01*
X21409762Y-8177762D01*
X21419286Y-8168238D01*
X21428810Y-8149190D01*
X21600238Y-8130143D02*
X21600238Y-8263476D01*
X21552619Y-8053952D02*
X21505000Y-8196809D01*
X21628810Y-8196809D01*
X21695476Y-8063476D02*
X21695476Y-8101571D01*
X21771667Y-8063476D02*
X21771667Y-8101571D01*
X22066905Y-8339667D02*
X22057381Y-8330143D01*
X22038333Y-8301571D01*
X22028810Y-8282524D01*
X22019286Y-8253952D01*
X22009762Y-8206333D01*
X22009762Y-8168238D01*
X22019286Y-8120619D01*
X22028810Y-8092048D01*
X22038333Y-8073000D01*
X22057381Y-8044428D01*
X22066905Y-8034905D01*
X22228810Y-8063476D02*
X22190714Y-8063476D01*
X22171667Y-8073000D01*
X22162143Y-8082524D01*
X22143095Y-8111095D01*
X22133571Y-8149190D01*
X22133571Y-8225381D01*
X22143095Y-8244428D01*
X22152619Y-8253952D01*
X22171667Y-8263476D01*
X22209762Y-8263476D01*
X22228810Y-8253952D01*
X22238333Y-8244428D01*
X22247857Y-8225381D01*
X22247857Y-8177762D01*
X22238333Y-8158714D01*
X22228810Y-8149190D01*
X22209762Y-8139667D01*
X22171667Y-8139667D01*
X22152619Y-8149190D01*
X22143095Y-8158714D01*
X22133571Y-8177762D01*
X22485952Y-8263476D02*
X22485952Y-8063476D01*
X22571667Y-8263476D02*
X22571667Y-8158714D01*
X22562143Y-8139667D01*
X22543095Y-8130143D01*
X22514524Y-8130143D01*
X22495476Y-8139667D01*
X22485952Y-8149190D01*
X22695476Y-8263476D02*
X22676428Y-8253952D01*
X22666905Y-8244428D01*
X22657381Y-8225381D01*
X22657381Y-8168238D01*
X22666905Y-8149190D01*
X22676428Y-8139667D01*
X22695476Y-8130143D01*
X22724048Y-8130143D01*
X22743095Y-8139667D01*
X22752619Y-8149190D01*
X22762143Y-8168238D01*
X22762143Y-8225381D01*
X22752619Y-8244428D01*
X22743095Y-8253952D01*
X22724048Y-8263476D01*
X22695476Y-8263476D01*
X22876428Y-8263476D02*
X22857381Y-8253952D01*
X22847857Y-8234905D01*
X22847857Y-8063476D01*
X23028809Y-8253952D02*
X23009762Y-8263476D01*
X22971667Y-8263476D01*
X22952619Y-8253952D01*
X22943095Y-8234905D01*
X22943095Y-8158714D01*
X22952619Y-8139667D01*
X22971667Y-8130143D01*
X23009762Y-8130143D01*
X23028809Y-8139667D01*
X23038333Y-8158714D01*
X23038333Y-8177762D01*
X22943095Y-8196809D01*
X23114524Y-8253952D02*
X23133571Y-8263476D01*
X23171667Y-8263476D01*
X23190714Y-8253952D01*
X23200238Y-8234905D01*
X23200238Y-8225381D01*
X23190714Y-8206333D01*
X23171667Y-8196809D01*
X23143095Y-8196809D01*
X23124048Y-8187286D01*
X23114524Y-8168238D01*
X23114524Y-8158714D01*
X23124048Y-8139667D01*
X23143095Y-8130143D01*
X23171667Y-8130143D01*
X23190714Y-8139667D01*
X23266905Y-8339667D02*
X23276428Y-8330143D01*
X23295476Y-8301571D01*
X23305000Y-8282524D01*
X23314524Y-8253952D01*
X23324048Y-8206333D01*
X23324048Y-8168238D01*
X23314524Y-8120619D01*
X23305000Y-8092048D01*
X23295476Y-8073000D01*
X23276428Y-8044428D01*
X23266905Y-8034905D01*
M02*
