G04 #@! TF.GenerationSoftware,KiCad,Pcbnew,(6.0.10-0)*
G04 #@! TF.CreationDate,2022-12-22T21:19:14-05:00*
G04 #@! TF.ProjectId,rev2,72657632-2e6b-4696-9361-645f70636258,rev?*
G04 #@! TF.SameCoordinates,Original*
G04 #@! TF.FileFunction,Copper,L1,Top*
G04 #@! TF.FilePolarity,Positive*
%FSLAX46Y46*%
G04 Gerber Fmt 4.6, Leading zero omitted, Abs format (unit mm)*
G04 Created by KiCad (PCBNEW (6.0.10-0)) date 2022-12-22 21:19:14*
%MOMM*%
%LPD*%
G01*
G04 APERTURE LIST*
G04 Aperture macros list*
%AMRoundRect*
0 Rectangle with rounded corners*
0 $1 Rounding radius*
0 $2 $3 $4 $5 $6 $7 $8 $9 X,Y pos of 4 corners*
0 Add a 4 corners polygon primitive as box body*
4,1,4,$2,$3,$4,$5,$6,$7,$8,$9,$2,$3,0*
0 Add four circle primitives for the rounded corners*
1,1,$1+$1,$2,$3*
1,1,$1+$1,$4,$5*
1,1,$1+$1,$6,$7*
1,1,$1+$1,$8,$9*
0 Add four rect primitives between the rounded corners*
20,1,$1+$1,$2,$3,$4,$5,0*
20,1,$1+$1,$4,$5,$6,$7,0*
20,1,$1+$1,$6,$7,$8,$9,0*
20,1,$1+$1,$8,$9,$2,$3,0*%
%AMFreePoly0*
4,1,6,0.725000,-0.725000,-0.725000,-0.725000,-0.725000,0.125000,-0.125000,0.725000,0.725000,0.725000,0.725000,-0.725000,0.725000,-0.725000,$1*%
G04 Aperture macros list end*
G04 #@! TA.AperFunction,SMDPad,CuDef*
%ADD10R,1.800000X1.100000*%
G04 #@! TD*
G04 #@! TA.AperFunction,SMDPad,CuDef*
%ADD11RoundRect,0.135000X0.185000X-0.135000X0.185000X0.135000X-0.185000X0.135000X-0.185000X-0.135000X0*%
G04 #@! TD*
G04 #@! TA.AperFunction,SMDPad,CuDef*
%ADD12R,0.800000X0.400000*%
G04 #@! TD*
G04 #@! TA.AperFunction,SMDPad,CuDef*
%ADD13R,0.400000X0.800000*%
G04 #@! TD*
G04 #@! TA.AperFunction,SMDPad,CuDef*
%ADD14R,0.700000X0.700000*%
G04 #@! TD*
G04 #@! TA.AperFunction,SMDPad,CuDef*
%ADD15R,1.450000X1.450000*%
G04 #@! TD*
G04 #@! TA.AperFunction,SMDPad,CuDef*
%ADD16FreePoly0,180.000000*%
G04 #@! TD*
G04 #@! TA.AperFunction,SMDPad,CuDef*
%ADD17RoundRect,0.135000X-0.185000X0.135000X-0.185000X-0.135000X0.185000X-0.135000X0.185000X0.135000X0*%
G04 #@! TD*
G04 #@! TA.AperFunction,SMDPad,CuDef*
%ADD18RoundRect,0.225000X-0.250000X0.225000X-0.250000X-0.225000X0.250000X-0.225000X0.250000X0.225000X0*%
G04 #@! TD*
G04 #@! TA.AperFunction,SMDPad,CuDef*
%ADD19RoundRect,0.140000X0.170000X-0.140000X0.170000X0.140000X-0.170000X0.140000X-0.170000X-0.140000X0*%
G04 #@! TD*
G04 #@! TA.AperFunction,SMDPad,CuDef*
%ADD20R,0.900000X1.200000*%
G04 #@! TD*
G04 #@! TA.AperFunction,SMDPad,CuDef*
%ADD21R,1.300000X0.300000*%
G04 #@! TD*
G04 #@! TA.AperFunction,SMDPad,CuDef*
%ADD22R,2.200000X1.800000*%
G04 #@! TD*
G04 #@! TA.AperFunction,SMDPad,CuDef*
%ADD23RoundRect,0.140000X-0.170000X0.140000X-0.170000X-0.140000X0.170000X-0.140000X0.170000X0.140000X0*%
G04 #@! TD*
G04 #@! TA.AperFunction,SMDPad,CuDef*
%ADD24RoundRect,0.140000X-0.140000X-0.170000X0.140000X-0.170000X0.140000X0.170000X-0.140000X0.170000X0*%
G04 #@! TD*
G04 #@! TA.AperFunction,SMDPad,CuDef*
%ADD25RoundRect,0.150000X-0.150000X0.512500X-0.150000X-0.512500X0.150000X-0.512500X0.150000X0.512500X0*%
G04 #@! TD*
G04 #@! TA.AperFunction,SMDPad,CuDef*
%ADD26RoundRect,0.225000X-0.225000X-0.250000X0.225000X-0.250000X0.225000X0.250000X-0.225000X0.250000X0*%
G04 #@! TD*
G04 #@! TA.AperFunction,SMDPad,CuDef*
%ADD27R,0.600000X1.160000*%
G04 #@! TD*
G04 #@! TA.AperFunction,SMDPad,CuDef*
%ADD28R,0.300000X1.160000*%
G04 #@! TD*
G04 #@! TA.AperFunction,ComponentPad*
%ADD29O,0.900000X1.700000*%
G04 #@! TD*
G04 #@! TA.AperFunction,ComponentPad*
%ADD30O,0.900000X2.000000*%
G04 #@! TD*
G04 #@! TA.AperFunction,ComponentPad*
%ADD31R,1.700000X1.700000*%
G04 #@! TD*
G04 #@! TA.AperFunction,ComponentPad*
%ADD32O,1.700000X1.700000*%
G04 #@! TD*
G04 #@! TA.AperFunction,ViaPad*
%ADD33C,0.800000*%
G04 #@! TD*
G04 #@! TA.AperFunction,Conductor*
%ADD34C,0.350000*%
G04 #@! TD*
G04 #@! TA.AperFunction,Conductor*
%ADD35C,0.250000*%
G04 #@! TD*
G04 APERTURE END LIST*
D10*
X223100000Y-53350000D03*
X216900000Y-53350000D03*
X223100000Y-49650000D03*
X216900000Y-49650000D03*
D11*
X199600000Y-57800000D03*
X199600000Y-56780000D03*
D12*
X197900000Y-62500000D03*
X197900000Y-61700000D03*
X197900000Y-60900000D03*
X197900000Y-60100000D03*
X197900000Y-59300000D03*
X197900000Y-58500000D03*
X197900000Y-57700000D03*
X197900000Y-56900000D03*
X197900000Y-56100000D03*
X197900000Y-55300000D03*
X197900000Y-54500000D03*
D13*
X196800000Y-53600000D03*
X196000000Y-53600000D03*
X195200000Y-53600000D03*
X194400000Y-53600000D03*
X193600000Y-53600000D03*
X192800000Y-53600000D03*
X192000000Y-53600000D03*
X191200000Y-53600000D03*
X190400000Y-53600000D03*
X189600000Y-53600000D03*
X188800000Y-53600000D03*
X188000000Y-53600000D03*
X187200000Y-53600000D03*
D12*
X186100000Y-54500000D03*
X186100000Y-55300000D03*
X186100000Y-56100000D03*
X186100000Y-56900000D03*
X186100000Y-57700000D03*
X186100000Y-58500000D03*
X186100000Y-59300000D03*
X186100000Y-60100000D03*
X186100000Y-60900000D03*
X186100000Y-61700000D03*
X186100000Y-62500000D03*
D14*
X186050000Y-53550000D03*
D13*
X188000000Y-63400000D03*
X196000000Y-63400000D03*
D14*
X186050000Y-63450000D03*
D13*
X196800000Y-63400000D03*
X194400000Y-63400000D03*
D15*
X190025000Y-56525000D03*
X190025000Y-58500000D03*
D13*
X192000000Y-63400000D03*
D15*
X192000000Y-58500000D03*
X193975000Y-58500000D03*
D13*
X189600000Y-63400000D03*
X193600000Y-63400000D03*
X190400000Y-63400000D03*
X192800000Y-63400000D03*
D15*
X192000000Y-60475000D03*
D16*
X193975000Y-60475000D03*
D13*
X191200000Y-63400000D03*
X195200000Y-63400000D03*
X187200000Y-63400000D03*
D14*
X197950000Y-53550000D03*
D15*
X190025000Y-60475000D03*
D13*
X188800000Y-63400000D03*
D15*
X192000000Y-56525000D03*
X193975000Y-56525000D03*
D14*
X197950000Y-63450000D03*
D17*
X190400000Y-48890000D03*
X190400000Y-49910000D03*
D10*
X223100000Y-67350000D03*
X216900000Y-67350000D03*
X223100000Y-63650000D03*
X216900000Y-63650000D03*
D18*
X201200000Y-61650000D03*
X201200000Y-63200000D03*
D19*
X199600000Y-54160000D03*
X199600000Y-53200000D03*
D20*
X214000000Y-41800000D03*
X210700000Y-41800000D03*
D21*
X201650000Y-57400000D03*
X201650000Y-56900000D03*
X201650000Y-56400000D03*
X201650000Y-55900000D03*
X201650000Y-55400000D03*
X201650000Y-54900000D03*
X201650000Y-54400000D03*
X201650000Y-53900000D03*
X201650000Y-53400000D03*
X201650000Y-52900000D03*
X201650000Y-52400000D03*
X201650000Y-51900000D03*
X201650000Y-51400000D03*
X201650000Y-50900000D03*
X201650000Y-50400000D03*
X201650000Y-49900000D03*
X201650000Y-49400000D03*
X201650000Y-48900000D03*
X201650000Y-48400000D03*
X201650000Y-47900000D03*
X201650000Y-47400000D03*
X201650000Y-46900000D03*
X201650000Y-46400000D03*
X201650000Y-45900000D03*
D22*
X204900000Y-44000000D03*
X204900000Y-59300000D03*
D17*
X199800000Y-45580000D03*
X199800000Y-46600000D03*
D23*
X199600000Y-61040000D03*
X199600000Y-62000000D03*
D24*
X212890000Y-45500000D03*
X213850000Y-45500000D03*
D17*
X187200000Y-48890000D03*
X187200000Y-49910000D03*
D10*
X223100000Y-46350000D03*
X216900000Y-46350000D03*
X223100000Y-42650000D03*
X216900000Y-42650000D03*
D25*
X214850000Y-47225000D03*
X213900000Y-47225000D03*
X212950000Y-47225000D03*
X212950000Y-49500000D03*
X214850000Y-49500000D03*
D17*
X191600000Y-48890000D03*
X191600000Y-49910000D03*
D10*
X223100000Y-60350000D03*
X216900000Y-60350000D03*
X223100000Y-56650000D03*
X216900000Y-56650000D03*
D26*
X212800000Y-44000000D03*
X214350000Y-44000000D03*
D27*
X194700000Y-46885000D03*
X193900000Y-46885000D03*
D28*
X192750000Y-46885000D03*
X191750000Y-46885000D03*
X191250000Y-46885000D03*
X190250000Y-46885000D03*
D27*
X189100000Y-46885000D03*
X188300000Y-46885000D03*
X188300000Y-46885000D03*
X189100000Y-46885000D03*
D28*
X189750000Y-46885000D03*
X190750000Y-46885000D03*
X192250000Y-46885000D03*
X193250000Y-46885000D03*
D27*
X193900000Y-46885000D03*
X194700000Y-46885000D03*
D29*
X187180000Y-42135000D03*
X195820000Y-42135000D03*
D30*
X187180000Y-46305000D03*
X195820000Y-46305000D03*
D31*
X213200000Y-62600000D03*
D32*
X210660000Y-62600000D03*
X213200000Y-65140000D03*
X210660000Y-65140000D03*
X213200000Y-67680000D03*
X210660000Y-67680000D03*
D33*
X215100000Y-45250000D03*
X223500000Y-65000000D03*
X190025000Y-54825000D03*
X199800000Y-47600000D03*
X223500000Y-51000000D03*
X199400000Y-52000000D03*
X195000000Y-49600000D03*
X223500000Y-58000000D03*
X186200000Y-51400000D03*
X223500000Y-44000000D03*
X192800000Y-49600000D03*
X195200000Y-54600000D03*
X205000000Y-47600000D03*
X201200000Y-44400000D03*
X206400000Y-55400000D03*
X199600000Y-55400000D03*
X214400000Y-56600000D03*
X196200000Y-59800000D03*
X214400000Y-55200000D03*
X196200000Y-58600000D03*
X214400000Y-53800000D03*
X196200000Y-57400000D03*
X196200000Y-56200000D03*
X214400000Y-52400000D03*
X188400000Y-57000000D03*
X207200000Y-60200000D03*
X207200000Y-61400000D03*
X187400000Y-58000000D03*
X207200000Y-62600000D03*
X187400000Y-59400000D03*
X187400000Y-56200000D03*
X192800000Y-45400000D03*
X187400000Y-55000000D03*
X191200000Y-45400000D03*
D34*
X212950000Y-47225000D02*
X212950000Y-48100000D01*
X212890000Y-47165000D02*
X212950000Y-47225000D01*
X212800000Y-44000000D02*
X212800000Y-45410000D01*
X214350000Y-48500000D02*
X214850000Y-48000000D01*
X214000000Y-41800000D02*
X213400000Y-41800000D01*
X212950000Y-48100000D02*
X213350000Y-48500000D01*
X214850000Y-48000000D02*
X214850000Y-47225000D01*
X212800000Y-45410000D02*
X212890000Y-45500000D01*
X213400000Y-41800000D02*
X212800000Y-42400000D01*
X212800000Y-42400000D02*
X212800000Y-44000000D01*
X212890000Y-45500000D02*
X212890000Y-47165000D01*
X213350000Y-48500000D02*
X214350000Y-48500000D01*
D35*
X190025000Y-56525000D02*
X192000000Y-56525000D01*
X187150000Y-63450000D02*
X187200000Y-63400000D01*
X200400000Y-51200000D02*
X200400000Y-51600000D01*
D34*
X213850000Y-45500000D02*
X214850000Y-45500000D01*
D35*
X190400000Y-63400000D02*
X189600000Y-63400000D01*
X190025000Y-60475000D02*
X192000000Y-60475000D01*
X193975000Y-56525000D02*
X193975000Y-58500000D01*
X198200000Y-53200000D02*
X199600000Y-53200000D01*
X190025000Y-56525000D02*
X190025000Y-58500000D01*
X223100000Y-63650000D02*
X223100000Y-64600000D01*
X193975000Y-58500000D02*
X192000000Y-58500000D01*
X195200000Y-53600000D02*
X195200000Y-54600000D01*
X199800000Y-46600000D02*
X199800000Y-47600000D01*
X191600000Y-49910000D02*
X192490000Y-49910000D01*
X188800000Y-61700000D02*
X190025000Y-60475000D01*
D34*
X186200000Y-50400000D02*
X186200000Y-51400000D01*
D35*
X190400000Y-49910000D02*
X191600000Y-49910000D01*
X202600000Y-55400000D02*
X201650000Y-55400000D01*
X223100000Y-43600000D02*
X223500000Y-44000000D01*
X197900000Y-61700000D02*
X197900000Y-62500000D01*
X223100000Y-49650000D02*
X223100000Y-50600000D01*
X200400000Y-51600000D02*
X200700000Y-51900000D01*
X188800000Y-63400000D02*
X188000000Y-63400000D01*
X201650000Y-53400000D02*
X199800000Y-53400000D01*
X223100000Y-50600000D02*
X223500000Y-51000000D01*
X223100000Y-56650000D02*
X223100000Y-57600000D01*
X192800000Y-63400000D02*
X192000000Y-63400000D01*
X189600000Y-63400000D02*
X188800000Y-63400000D01*
X197950000Y-53550000D02*
X197950000Y-54450000D01*
D34*
X194700000Y-49300000D02*
X195000000Y-49600000D01*
D35*
X199100000Y-62500000D02*
X199600000Y-62000000D01*
D34*
X188300000Y-49300000D02*
X187690000Y-49910000D01*
D35*
X201650000Y-52900000D02*
X201650000Y-52400000D01*
X196850000Y-63450000D02*
X196800000Y-63400000D01*
D34*
X187200000Y-49910000D02*
X186690000Y-49910000D01*
D35*
X190400000Y-63400000D02*
X191200000Y-63400000D01*
D34*
X188300000Y-46885000D02*
X188300000Y-49300000D01*
D35*
X199800000Y-46600000D02*
X200000000Y-46600000D01*
X213900000Y-45550000D02*
X213850000Y-45500000D01*
X202500000Y-56900000D02*
X202800000Y-56600000D01*
X191200000Y-63400000D02*
X192000000Y-63400000D01*
X195200000Y-63400000D02*
X194400000Y-63400000D01*
X223100000Y-57600000D02*
X223500000Y-58000000D01*
X190025000Y-56525000D02*
X190025000Y-54825000D01*
X197950000Y-53450000D02*
X198200000Y-53200000D01*
D34*
X186690000Y-49910000D02*
X186200000Y-50400000D01*
D35*
X186050000Y-51550000D02*
X186200000Y-51400000D01*
X199600000Y-53200000D02*
X199600000Y-52200000D01*
D34*
X214850000Y-45500000D02*
X215100000Y-45250000D01*
D35*
X202800000Y-55600000D02*
X202600000Y-55400000D01*
X197900000Y-62500000D02*
X199100000Y-62500000D01*
X197900000Y-62500000D02*
X197900000Y-63400000D01*
X196000000Y-63400000D02*
X196800000Y-63400000D01*
X223100000Y-42650000D02*
X223100000Y-43600000D01*
X193975000Y-60475000D02*
X194400000Y-60900000D01*
X194400000Y-63400000D02*
X193600000Y-63400000D01*
X192000000Y-60475000D02*
X192000000Y-63400000D01*
X192000000Y-56525000D02*
X192000000Y-58500000D01*
X199800000Y-53400000D02*
X199600000Y-53200000D01*
X201650000Y-53900000D02*
X201650000Y-54400000D01*
X201650000Y-53900000D02*
X201650000Y-53400000D01*
X192000000Y-58500000D02*
X192000000Y-60475000D01*
X186050000Y-53550000D02*
X186050000Y-51550000D01*
X199600000Y-52200000D02*
X199400000Y-52000000D01*
X188800000Y-63400000D02*
X188800000Y-61700000D01*
X200950000Y-63450000D02*
X201200000Y-63200000D01*
X201650000Y-52900000D02*
X201650000Y-53400000D01*
X190025000Y-58500000D02*
X192000000Y-58500000D01*
X196000000Y-63400000D02*
X195200000Y-63400000D01*
X192490000Y-49910000D02*
X192800000Y-49600000D01*
D34*
X194700000Y-46885000D02*
X194700000Y-49300000D01*
D35*
X200000000Y-46600000D02*
X200300000Y-46900000D01*
X202800000Y-56600000D02*
X202800000Y-55600000D01*
D34*
X213900000Y-47225000D02*
X213900000Y-45550000D01*
D35*
X194400000Y-60900000D02*
X194400000Y-63400000D01*
X201650000Y-50900000D02*
X200700000Y-50900000D01*
X197950000Y-54450000D02*
X197900000Y-54500000D01*
X200300000Y-46900000D02*
X201650000Y-46900000D01*
X193975000Y-60475000D02*
X192000000Y-60475000D01*
X186050000Y-63450000D02*
X187150000Y-63450000D01*
D34*
X214350000Y-45000000D02*
X213850000Y-45500000D01*
D35*
X197900000Y-63400000D02*
X197950000Y-63450000D01*
X201650000Y-55400000D02*
X201650000Y-54900000D01*
X201650000Y-51900000D02*
X201650000Y-52400000D01*
X192000000Y-56525000D02*
X193975000Y-56525000D01*
X193600000Y-63400000D02*
X192800000Y-63400000D01*
X197950000Y-63450000D02*
X196850000Y-63450000D01*
X201650000Y-56900000D02*
X202500000Y-56900000D01*
X201650000Y-56900000D02*
X201650000Y-57400000D01*
X193975000Y-60475000D02*
X193975000Y-58500000D01*
X188000000Y-63400000D02*
X187200000Y-63400000D01*
X200700000Y-50900000D02*
X200400000Y-51200000D01*
D34*
X214350000Y-44000000D02*
X214350000Y-45000000D01*
D35*
X223100000Y-64600000D02*
X223500000Y-65000000D01*
X197950000Y-63450000D02*
X200950000Y-63450000D01*
X197950000Y-53550000D02*
X197950000Y-53450000D01*
X200700000Y-51900000D02*
X201650000Y-51900000D01*
D34*
X187690000Y-49910000D02*
X187200000Y-49910000D01*
D35*
X201650000Y-54400000D02*
X201650000Y-54900000D01*
X190025000Y-58500000D02*
X190025000Y-60475000D01*
X201200000Y-61650000D02*
X201200000Y-60400000D01*
X213800000Y-51200000D02*
X210800000Y-51200000D01*
X199272792Y-44400000D02*
X201200000Y-44400000D01*
X198000000Y-61000000D02*
X199560000Y-61000000D01*
X198900000Y-44772792D02*
X199272792Y-44400000D01*
X201200000Y-60400000D02*
X205000000Y-56600000D01*
X200590000Y-61040000D02*
X201200000Y-61650000D01*
X214850000Y-49500000D02*
X214850000Y-50150000D01*
X205000000Y-56600000D02*
X205000000Y-47600000D01*
X199560000Y-61000000D02*
X199600000Y-61040000D01*
X210800000Y-51200000D02*
X207200000Y-47600000D01*
X201650000Y-45250000D02*
X201650000Y-45900000D01*
X199600000Y-61040000D02*
X200590000Y-61040000D01*
X197900000Y-60900000D02*
X198000000Y-61000000D01*
X214850000Y-50150000D02*
X213800000Y-51200000D01*
X209800000Y-56600000D02*
X213200000Y-60000000D01*
X199200000Y-48400000D02*
X198900000Y-48100000D01*
X201200000Y-44400000D02*
X201200000Y-44800000D01*
X201650000Y-48400000D02*
X199200000Y-48400000D01*
X213200000Y-60000000D02*
X213200000Y-62600000D01*
X198900000Y-48100000D02*
X198900000Y-44772792D01*
X205000000Y-56600000D02*
X209800000Y-56600000D01*
X199600000Y-57800000D02*
X199600000Y-61040000D01*
X201650000Y-47900000D02*
X201650000Y-48400000D01*
X201650000Y-47400000D02*
X201650000Y-47900000D01*
X201200000Y-44800000D02*
X201650000Y-45250000D01*
X207200000Y-47600000D02*
X205000000Y-47600000D01*
D34*
X198800000Y-41000000D02*
X209900000Y-41000000D01*
X193900000Y-49900000D02*
X193200000Y-50600000D01*
X195425000Y-50375000D02*
X197400000Y-48400000D01*
X194375000Y-50375000D02*
X195425000Y-50375000D01*
X193900000Y-46885000D02*
X193900000Y-49900000D01*
X193200000Y-50600000D02*
X189800000Y-50600000D01*
X193900000Y-49900000D02*
X194375000Y-50375000D01*
X197400000Y-48400000D02*
X197400000Y-42400000D01*
X197400000Y-42400000D02*
X198800000Y-41000000D01*
X189800000Y-50600000D02*
X189100000Y-49900000D01*
X189100000Y-49900000D02*
X189100000Y-46885000D01*
X209900000Y-41000000D02*
X210700000Y-41800000D01*
D35*
X192750000Y-46885000D02*
X192750000Y-47650000D01*
X192000000Y-48000000D02*
X191600000Y-48400000D01*
X191600000Y-48400000D02*
X191600000Y-48890000D01*
X192750000Y-47650000D02*
X192400000Y-48000000D01*
X192400000Y-48000000D02*
X192000000Y-48000000D01*
X189750000Y-47750000D02*
X190400000Y-48400000D01*
X190400000Y-48400000D02*
X190400000Y-48890000D01*
X189750000Y-46885000D02*
X189750000Y-47750000D01*
X199172792Y-48900000D02*
X201650000Y-48900000D01*
X191200000Y-53600000D02*
X191200000Y-52800000D01*
X192000000Y-52000000D02*
X196072792Y-52000000D01*
X196072792Y-52000000D02*
X199172792Y-48900000D01*
X191200000Y-52800000D02*
X192000000Y-52000000D01*
X194100000Y-52450000D02*
X196259188Y-52450000D01*
X193600000Y-52950000D02*
X194100000Y-52450000D01*
X199309188Y-49400000D02*
X201650000Y-49400000D01*
X196259188Y-52450000D02*
X199309188Y-49400000D01*
X193600000Y-53600000D02*
X193600000Y-52950000D01*
X195886396Y-51550000D02*
X198450000Y-48986396D01*
X202613604Y-43650000D02*
X202881802Y-43918198D01*
X198450000Y-48986396D02*
X198450000Y-44586396D01*
X191800000Y-51550000D02*
X195886396Y-51550000D01*
X190400000Y-52950000D02*
X191800000Y-51550000D01*
X202500000Y-49900000D02*
X201650000Y-49900000D01*
X199386396Y-43650000D02*
X202613604Y-43650000D01*
X202881802Y-43918198D02*
X202881802Y-49518198D01*
X202881802Y-49518198D02*
X202500000Y-49900000D01*
X198450000Y-44586396D02*
X199386396Y-43650000D01*
X190400000Y-53600000D02*
X190400000Y-52950000D01*
X196800000Y-53600000D02*
X196800000Y-52545584D01*
X196800000Y-52545584D02*
X198945584Y-50400000D01*
X198945584Y-50400000D02*
X201650000Y-50400000D01*
X203400000Y-43800000D02*
X203400000Y-50600000D01*
X189600000Y-53600000D02*
X189600000Y-52950000D01*
X189600000Y-52950000D02*
X191450000Y-51100000D01*
X195700000Y-51100000D02*
X198000000Y-48800000D01*
X198000000Y-44400000D02*
X199200000Y-43200000D01*
X202600000Y-51400000D02*
X201650000Y-51400000D01*
X198000000Y-48800000D02*
X198000000Y-44400000D01*
X199200000Y-43200000D02*
X202800000Y-43200000D01*
X191450000Y-51100000D02*
X195700000Y-51100000D01*
X202800000Y-43200000D02*
X203400000Y-43800000D01*
X203400000Y-50600000D02*
X202600000Y-51400000D01*
X214600000Y-63740000D02*
X213200000Y-65140000D01*
X199600000Y-54160000D02*
X199600000Y-55400000D01*
X214600000Y-60000000D02*
X214600000Y-63740000D01*
X210000000Y-55400000D02*
X214600000Y-60000000D01*
X197900000Y-56900000D02*
X199480000Y-56900000D01*
X206400000Y-55400000D02*
X210000000Y-55400000D01*
X199480000Y-56900000D02*
X199600000Y-56780000D01*
X199600000Y-56780000D02*
X199600000Y-55400000D01*
X215400000Y-61000000D02*
X215400000Y-57000000D01*
X217850000Y-67350000D02*
X218800000Y-66400000D01*
X216200000Y-61800000D02*
X215400000Y-61000000D01*
X216900000Y-67350000D02*
X217850000Y-67350000D01*
X218800000Y-63000000D02*
X217600000Y-61800000D01*
X215000000Y-56600000D02*
X214400000Y-56600000D01*
X218800000Y-66400000D02*
X218800000Y-63000000D01*
X217600000Y-61800000D02*
X216200000Y-61800000D01*
X215400000Y-57000000D02*
X215000000Y-56600000D01*
X197900000Y-59300000D02*
X196700000Y-59300000D01*
X196700000Y-59300000D02*
X196200000Y-59800000D01*
X196300000Y-58500000D02*
X196200000Y-58600000D01*
X216900000Y-60350000D02*
X217450000Y-60350000D01*
X217450000Y-60350000D02*
X218600000Y-59200000D01*
X218600000Y-59200000D02*
X218600000Y-56000000D01*
X217800000Y-55200000D02*
X214400000Y-55200000D01*
X218600000Y-56000000D02*
X217800000Y-55200000D01*
X197900000Y-58500000D02*
X196300000Y-58500000D01*
X216900000Y-53350000D02*
X215850000Y-53350000D01*
X195200000Y-56800000D02*
X195800000Y-57400000D01*
X195200000Y-55800000D02*
X195200000Y-56800000D01*
X195800000Y-57400000D02*
X196200000Y-57400000D01*
X192000000Y-53600000D02*
X192000000Y-54600000D01*
X192000000Y-54600000D02*
X192600000Y-55200000D01*
X192600000Y-55200000D02*
X194600000Y-55200000D01*
X215850000Y-53350000D02*
X215400000Y-53800000D01*
X215400000Y-53800000D02*
X214400000Y-53800000D01*
X194600000Y-55200000D02*
X195200000Y-55800000D01*
X196000000Y-53600000D02*
X196000000Y-54400000D01*
X218600000Y-50600000D02*
X217600000Y-51600000D01*
X196200000Y-54600000D02*
X196200000Y-56200000D01*
X215200000Y-51600000D02*
X214400000Y-52400000D01*
X216900000Y-46350000D02*
X217550000Y-46350000D01*
X218600000Y-47400000D02*
X218600000Y-50600000D01*
X217600000Y-51600000D02*
X215200000Y-51600000D01*
X196000000Y-54400000D02*
X196200000Y-54600000D01*
X217550000Y-46350000D02*
X218600000Y-47400000D01*
X188800000Y-56600000D02*
X188400000Y-57000000D01*
X188000000Y-54200000D02*
X188800000Y-55000000D01*
X207200000Y-60200000D02*
X208260000Y-60200000D01*
X188000000Y-53600000D02*
X188000000Y-54200000D01*
X208260000Y-60200000D02*
X210660000Y-62600000D01*
X188800000Y-55000000D02*
X188800000Y-56600000D01*
X210660000Y-65140000D02*
X209000000Y-63480000D01*
X186900000Y-58500000D02*
X187400000Y-58000000D01*
X207800000Y-61400000D02*
X207200000Y-61400000D01*
X186100000Y-58500000D02*
X186900000Y-58500000D01*
X209000000Y-63480000D02*
X209000000Y-62600000D01*
X209000000Y-62600000D02*
X207800000Y-61400000D01*
X208400000Y-63800000D02*
X207200000Y-62600000D01*
X210660000Y-67680000D02*
X208400000Y-65420000D01*
X187300000Y-59300000D02*
X187400000Y-59400000D01*
X208400000Y-65420000D02*
X208400000Y-63800000D01*
X186100000Y-59300000D02*
X187300000Y-59300000D01*
X195820000Y-42135000D02*
X195820000Y-46305000D01*
D34*
X187180000Y-46305000D02*
X187180000Y-42135000D01*
X187180000Y-48870000D02*
X187180000Y-46305000D01*
D35*
X187200000Y-48890000D02*
X187180000Y-48870000D01*
X199800000Y-45580000D02*
X199980000Y-45580000D01*
X199980000Y-45580000D02*
X200800000Y-46400000D01*
X200800000Y-46400000D02*
X201650000Y-46400000D01*
X191000000Y-48000000D02*
X190750000Y-47750000D01*
X190400000Y-45800000D02*
X190750000Y-46150000D01*
X190725000Y-44675000D02*
X190400000Y-45000000D01*
X186100000Y-56100000D02*
X187300000Y-56100000D01*
X191363604Y-48000000D02*
X191000000Y-48000000D01*
X191750000Y-46885000D02*
X191750000Y-47613604D01*
X190400000Y-45000000D02*
X190400000Y-45800000D01*
X190750000Y-47750000D02*
X190750000Y-46885000D01*
X190750000Y-46150000D02*
X190750000Y-46885000D01*
X192800000Y-45400000D02*
X192075000Y-44675000D01*
X191750000Y-47613604D02*
X191363604Y-48000000D01*
X192075000Y-44675000D02*
X190725000Y-44675000D01*
X187300000Y-56100000D02*
X187400000Y-56200000D01*
X191250000Y-46885000D02*
X191250000Y-45450000D01*
X186100000Y-55300000D02*
X187100000Y-55300000D01*
X192250000Y-46885000D02*
X192250000Y-46005000D01*
X191645000Y-45400000D02*
X191200000Y-45400000D01*
X192250000Y-46005000D02*
X191645000Y-45400000D01*
X191250000Y-45450000D02*
X191200000Y-45400000D01*
X187100000Y-55300000D02*
X187400000Y-55000000D01*
M02*
