G04 #@! TF.GenerationSoftware,KiCad,Pcbnew,(6.0.10-0)*
G04 #@! TF.CreationDate,2022-12-22T21:19:14-05:00*
G04 #@! TF.ProjectId,rev2,72657632-2e6b-4696-9361-645f70636258,rev?*
G04 #@! TF.SameCoordinates,Original*
G04 #@! TF.FileFunction,Legend,Bot*
G04 #@! TF.FilePolarity,Positive*
%FSLAX46Y46*%
G04 Gerber Fmt 4.6, Leading zero omitted, Abs format (unit mm)*
G04 Created by KiCad (PCBNEW (6.0.10-0)) date 2022-12-22 21:19:14*
%MOMM*%
%LPD*%
G01*
G04 APERTURE LIST*
%ADD10C,0.150000*%
%ADD11C,0.300000*%
%ADD12C,0.120000*%
%ADD13C,0.070000*%
%ADD14C,0.600000*%
%ADD15O,0.900000X1.700000*%
%ADD16O,0.900000X2.000000*%
%ADD17R,1.700000X1.700000*%
%ADD18O,1.700000X1.700000*%
G04 APERTURE END LIST*
D10*
X190995238Y-68052380D02*
X190995238Y-67385714D01*
X190995238Y-67576190D02*
X190947619Y-67480952D01*
X190900000Y-67433333D01*
X190804761Y-67385714D01*
X190709523Y-67385714D01*
X189995238Y-68004761D02*
X190090476Y-68052380D01*
X190280952Y-68052380D01*
X190376190Y-68004761D01*
X190423809Y-67909523D01*
X190423809Y-67528571D01*
X190376190Y-67433333D01*
X190280952Y-67385714D01*
X190090476Y-67385714D01*
X189995238Y-67433333D01*
X189947619Y-67528571D01*
X189947619Y-67623809D01*
X190423809Y-67719047D01*
X189614285Y-67385714D02*
X189376190Y-68052380D01*
X189138095Y-67385714D01*
X188757142Y-67957142D02*
X188709523Y-68004761D01*
X188757142Y-68052380D01*
X188804761Y-68004761D01*
X188757142Y-67957142D01*
X188757142Y-68052380D01*
X188328571Y-67147619D02*
X188280952Y-67100000D01*
X188185714Y-67052380D01*
X187947619Y-67052380D01*
X187852380Y-67100000D01*
X187804761Y-67147619D01*
X187757142Y-67242857D01*
X187757142Y-67338095D01*
X187804761Y-67480952D01*
X188376190Y-68052380D01*
X187757142Y-68052380D01*
D11*
X192042857Y-65692857D02*
X192542857Y-65692857D01*
X192542857Y-66478571D02*
X192542857Y-64978571D01*
X191828571Y-64978571D01*
X191257142Y-66478571D02*
X191257142Y-65478571D01*
X191257142Y-64978571D02*
X191328571Y-65050000D01*
X191257142Y-65121428D01*
X191185714Y-65050000D01*
X191257142Y-64978571D01*
X191257142Y-65121428D01*
X190542857Y-66478571D02*
X190542857Y-65478571D01*
X190542857Y-65764285D02*
X190471428Y-65621428D01*
X190400000Y-65550000D01*
X190257142Y-65478571D01*
X190114285Y-65478571D01*
X189042857Y-66407142D02*
X189185714Y-66478571D01*
X189471428Y-66478571D01*
X189614285Y-66407142D01*
X189685714Y-66264285D01*
X189685714Y-65692857D01*
X189614285Y-65550000D01*
X189471428Y-65478571D01*
X189185714Y-65478571D01*
X189042857Y-65550000D01*
X188971428Y-65692857D01*
X188971428Y-65835714D01*
X189685714Y-65978571D01*
X188542857Y-65478571D02*
X187971428Y-65478571D01*
X188328571Y-66478571D02*
X188328571Y-65192857D01*
X188257142Y-65050000D01*
X188114285Y-64978571D01*
X187971428Y-64978571D01*
X187257142Y-66478571D02*
X187400000Y-66407142D01*
X187471428Y-66264285D01*
X187471428Y-64978571D01*
X186828571Y-65478571D02*
X186471428Y-66478571D01*
X186114285Y-65478571D02*
X186471428Y-66478571D01*
X186614285Y-66835714D01*
X186685714Y-66907142D01*
X186828571Y-66978571D01*
D10*
X212263333Y-59722380D02*
X212263333Y-60436666D01*
X212310952Y-60579523D01*
X212406190Y-60674761D01*
X212549047Y-60722380D01*
X212644285Y-60722380D01*
X211834761Y-59817619D02*
X211787142Y-59770000D01*
X211691904Y-59722380D01*
X211453809Y-59722380D01*
X211358571Y-59770000D01*
X211310952Y-59817619D01*
X211263333Y-59912857D01*
X211263333Y-60008095D01*
X211310952Y-60150952D01*
X211882380Y-60722380D01*
X211263333Y-60722380D01*
D12*
X209330000Y-61270000D02*
X209330000Y-69010000D01*
X214530000Y-62600000D02*
X214530000Y-61270000D01*
X214530000Y-69010000D02*
X209330000Y-69010000D01*
X214530000Y-63870000D02*
X211930000Y-63870000D01*
X214530000Y-61270000D02*
X213200000Y-61270000D01*
X214530000Y-63870000D02*
X214530000Y-69010000D01*
X211930000Y-61270000D02*
X209330000Y-61270000D01*
X211930000Y-63870000D02*
X211930000Y-61270000D01*
G36*
X195910162Y-61227609D02*
G01*
X195896482Y-61248562D01*
X195883195Y-61269787D01*
X195857638Y-61313267D01*
X195833167Y-61358484D01*
X195809455Y-61405872D01*
X195786178Y-61455863D01*
X195763009Y-61508894D01*
X195739622Y-61565397D01*
X195715694Y-61625806D01*
X195692441Y-61706188D01*
X195674221Y-61787466D01*
X195660206Y-61869448D01*
X195649569Y-61951947D01*
X195635117Y-62117730D01*
X195624247Y-62283296D01*
X195610338Y-62447126D01*
X195600176Y-62527915D01*
X195586771Y-62607700D01*
X195569297Y-62686291D01*
X195546926Y-62763499D01*
X195518831Y-62839133D01*
X195484183Y-62913004D01*
X195524379Y-62887047D01*
X195561793Y-62861185D01*
X195596685Y-62835296D01*
X195629311Y-62809258D01*
X195659930Y-62782949D01*
X195688799Y-62756246D01*
X195716175Y-62729028D01*
X195742317Y-62701172D01*
X195767483Y-62672556D01*
X195791929Y-62643059D01*
X195815915Y-62612558D01*
X195839697Y-62580931D01*
X195887681Y-62513811D01*
X195937944Y-62440723D01*
X195969361Y-62682941D01*
X195981793Y-62807631D01*
X195991336Y-62933840D01*
X195997461Y-63060918D01*
X195999638Y-63188212D01*
X195997339Y-63315073D01*
X195990034Y-63440848D01*
X195977194Y-63564887D01*
X195958292Y-63686538D01*
X195932796Y-63805151D01*
X195900179Y-63920074D01*
X195859911Y-64030657D01*
X195811463Y-64136247D01*
X195754307Y-64236195D01*
X195722298Y-64283849D01*
X195687913Y-64329848D01*
X195723001Y-64335726D01*
X195765315Y-64340409D01*
X195822768Y-64343884D01*
X195894328Y-64344374D01*
X195978965Y-64340103D01*
X196075648Y-64329294D01*
X196128184Y-64320882D01*
X196183345Y-64310170D01*
X196241002Y-64296934D01*
X196301026Y-64280953D01*
X196363289Y-64262004D01*
X196427661Y-64239866D01*
X196494013Y-64214317D01*
X196562217Y-64185134D01*
X196632144Y-64152095D01*
X196703665Y-64114977D01*
X196776650Y-64073560D01*
X196850972Y-64027621D01*
X196926501Y-63976937D01*
X197003109Y-63921286D01*
X197080666Y-63860447D01*
X197159044Y-63794197D01*
X197238113Y-63722315D01*
X197317746Y-63644577D01*
X197323151Y-63666437D01*
X197327239Y-63688582D01*
X197330049Y-63710971D01*
X197331618Y-63733564D01*
X197331988Y-63756319D01*
X197331196Y-63779197D01*
X197329281Y-63802155D01*
X197326283Y-63825155D01*
X197317192Y-63871114D01*
X197304235Y-63916746D01*
X197287724Y-63961728D01*
X197267971Y-64005733D01*
X197245288Y-64048436D01*
X197219987Y-64089511D01*
X197192380Y-64128633D01*
X197162779Y-64165475D01*
X197131495Y-64199714D01*
X197098842Y-64231022D01*
X197065131Y-64259075D01*
X197030673Y-64283546D01*
X197098537Y-64271482D01*
X197185513Y-64249108D01*
X197288578Y-64216317D01*
X197404706Y-64172999D01*
X197530873Y-64119046D01*
X197664052Y-64054350D01*
X197801220Y-63978801D01*
X197939350Y-63892292D01*
X198075419Y-63794714D01*
X198141735Y-63741741D01*
X198206401Y-63685959D01*
X198269039Y-63627355D01*
X198329271Y-63565917D01*
X198386719Y-63501630D01*
X198441004Y-63434481D01*
X198491749Y-63364455D01*
X198538576Y-63291541D01*
X198581105Y-63215724D01*
X198618960Y-63136990D01*
X198651762Y-63055326D01*
X198679132Y-62970718D01*
X198700694Y-62883154D01*
X198716068Y-62792618D01*
X199762495Y-64561358D01*
X198521599Y-64440972D01*
X198841084Y-65007015D01*
X198988237Y-65261658D01*
X199146677Y-65530952D01*
X199308590Y-65799595D01*
X199466162Y-66052285D01*
X199050167Y-65647286D01*
X198857199Y-65463507D01*
X198673239Y-65291773D01*
X198497526Y-65131759D01*
X198329301Y-64983140D01*
X198167804Y-64845591D01*
X198012276Y-64718784D01*
X197997382Y-64874663D01*
X197987317Y-65036876D01*
X197981918Y-65205682D01*
X197981022Y-65381338D01*
X197984468Y-65564103D01*
X197992092Y-65754233D01*
X198019222Y-66157622D01*
X198061111Y-66593567D01*
X198116456Y-67064130D01*
X198183956Y-67571373D01*
X198262308Y-68117357D01*
X198066229Y-67628437D01*
X197879592Y-67175110D01*
X197700551Y-66756511D01*
X197527262Y-66371769D01*
X197357880Y-66020018D01*
X197190559Y-65700389D01*
X197023456Y-65412014D01*
X196939409Y-65279275D01*
X196854725Y-65154025D01*
X196793410Y-65336827D01*
X196734049Y-65531242D01*
X196675991Y-65737593D01*
X196618583Y-65956208D01*
X196561176Y-66187411D01*
X196503118Y-66431527D01*
X196382443Y-66959805D01*
X196377090Y-66380740D01*
X196370235Y-66114322D01*
X196360450Y-65862446D01*
X196347626Y-65624461D01*
X196331656Y-65399715D01*
X196312429Y-65187557D01*
X196289839Y-64987337D01*
X196168023Y-65086755D01*
X196045433Y-65194068D01*
X195921731Y-65309358D01*
X195796577Y-65432705D01*
X195669633Y-65564191D01*
X195540559Y-65703897D01*
X195409017Y-65851906D01*
X195274666Y-66008297D01*
X195137169Y-66173154D01*
X194996185Y-66346556D01*
X194702402Y-66719324D01*
X194390604Y-67127252D01*
X194058079Y-67570992D01*
X194454251Y-66635835D01*
X194624881Y-66213890D01*
X194775761Y-65819617D01*
X194905805Y-65450954D01*
X195013927Y-65105841D01*
X195099044Y-64782215D01*
X195132635Y-64627815D01*
X195160068Y-64478014D01*
X194989420Y-64565698D01*
X194810632Y-64662065D01*
X194623380Y-64767113D01*
X194427338Y-64880842D01*
X194222180Y-65003253D01*
X194007581Y-65134346D01*
X193783214Y-65274120D01*
X193548756Y-65422576D01*
X193949847Y-65011790D01*
X194133464Y-64820125D01*
X194305794Y-64636598D01*
X194466839Y-64460451D01*
X194616597Y-64290924D01*
X194755069Y-64127258D01*
X194882256Y-63968691D01*
X194726377Y-63950539D01*
X194564164Y-63937636D01*
X194395358Y-63929807D01*
X194219701Y-63926875D01*
X194036937Y-63928663D01*
X193846807Y-63934996D01*
X193443418Y-63960588D01*
X193007473Y-64002242D01*
X192536910Y-64058546D01*
X192029668Y-64128090D01*
X191483683Y-64209462D01*
X191972604Y-64013384D01*
X192425930Y-63826747D01*
X192844530Y-63647706D01*
X193229271Y-63474417D01*
X193581022Y-63305034D01*
X193900651Y-63137714D01*
X194189027Y-62970610D01*
X194321765Y-62886564D01*
X194447016Y-62801879D01*
X194264213Y-62743224D01*
X194069799Y-62685111D01*
X193863447Y-62627216D01*
X193644833Y-62569211D01*
X193413630Y-62510773D01*
X193169513Y-62451575D01*
X192641235Y-62329598D01*
X192959960Y-62325619D01*
X193293226Y-62315129D01*
X193933063Y-62283296D01*
X194613704Y-62236994D01*
X193798787Y-61199827D01*
X195910162Y-61227609D01*
G37*
D13*
X195910162Y-61227609D02*
X195896482Y-61248562D01*
X195883195Y-61269787D01*
X195857638Y-61313267D01*
X195833167Y-61358484D01*
X195809455Y-61405872D01*
X195786178Y-61455863D01*
X195763009Y-61508894D01*
X195739622Y-61565397D01*
X195715694Y-61625806D01*
X195692441Y-61706188D01*
X195674221Y-61787466D01*
X195660206Y-61869448D01*
X195649569Y-61951947D01*
X195635117Y-62117730D01*
X195624247Y-62283296D01*
X195610338Y-62447126D01*
X195600176Y-62527915D01*
X195586771Y-62607700D01*
X195569297Y-62686291D01*
X195546926Y-62763499D01*
X195518831Y-62839133D01*
X195484183Y-62913004D01*
X195524379Y-62887047D01*
X195561793Y-62861185D01*
X195596685Y-62835296D01*
X195629311Y-62809258D01*
X195659930Y-62782949D01*
X195688799Y-62756246D01*
X195716175Y-62729028D01*
X195742317Y-62701172D01*
X195767483Y-62672556D01*
X195791929Y-62643059D01*
X195815915Y-62612558D01*
X195839697Y-62580931D01*
X195887681Y-62513811D01*
X195937944Y-62440723D01*
X195969361Y-62682941D01*
X195981793Y-62807631D01*
X195991336Y-62933840D01*
X195997461Y-63060918D01*
X195999638Y-63188212D01*
X195997339Y-63315073D01*
X195990034Y-63440848D01*
X195977194Y-63564887D01*
X195958292Y-63686538D01*
X195932796Y-63805151D01*
X195900179Y-63920074D01*
X195859911Y-64030657D01*
X195811463Y-64136247D01*
X195754307Y-64236195D01*
X195722298Y-64283849D01*
X195687913Y-64329848D01*
X195723001Y-64335726D01*
X195765315Y-64340409D01*
X195822768Y-64343884D01*
X195894328Y-64344374D01*
X195978965Y-64340103D01*
X196075648Y-64329294D01*
X196128184Y-64320882D01*
X196183345Y-64310170D01*
X196241002Y-64296934D01*
X196301026Y-64280953D01*
X196363289Y-64262004D01*
X196427661Y-64239866D01*
X196494013Y-64214317D01*
X196562217Y-64185134D01*
X196632144Y-64152095D01*
X196703665Y-64114977D01*
X196776650Y-64073560D01*
X196850972Y-64027621D01*
X196926501Y-63976937D01*
X197003109Y-63921286D01*
X197080666Y-63860447D01*
X197159044Y-63794197D01*
X197238113Y-63722315D01*
X197317746Y-63644577D01*
X197323151Y-63666437D01*
X197327239Y-63688582D01*
X197330049Y-63710971D01*
X197331618Y-63733564D01*
X197331988Y-63756319D01*
X197331196Y-63779197D01*
X197329281Y-63802155D01*
X197326283Y-63825155D01*
X197317192Y-63871114D01*
X197304235Y-63916746D01*
X197287724Y-63961728D01*
X197267971Y-64005733D01*
X197245288Y-64048436D01*
X197219987Y-64089511D01*
X197192380Y-64128633D01*
X197162779Y-64165475D01*
X197131495Y-64199714D01*
X197098842Y-64231022D01*
X197065131Y-64259075D01*
X197030673Y-64283546D01*
X197098537Y-64271482D01*
X197185513Y-64249108D01*
X197288578Y-64216317D01*
X197404706Y-64172999D01*
X197530873Y-64119046D01*
X197664052Y-64054350D01*
X197801220Y-63978801D01*
X197939350Y-63892292D01*
X198075419Y-63794714D01*
X198141735Y-63741741D01*
X198206401Y-63685959D01*
X198269039Y-63627355D01*
X198329271Y-63565917D01*
X198386719Y-63501630D01*
X198441004Y-63434481D01*
X198491749Y-63364455D01*
X198538576Y-63291541D01*
X198581105Y-63215724D01*
X198618960Y-63136990D01*
X198651762Y-63055326D01*
X198679132Y-62970718D01*
X198700694Y-62883154D01*
X198716068Y-62792618D01*
X199762495Y-64561358D01*
X198521599Y-64440972D01*
X198841084Y-65007015D01*
X198988237Y-65261658D01*
X199146677Y-65530952D01*
X199308590Y-65799595D01*
X199466162Y-66052285D01*
X199050167Y-65647286D01*
X198857199Y-65463507D01*
X198673239Y-65291773D01*
X198497526Y-65131759D01*
X198329301Y-64983140D01*
X198167804Y-64845591D01*
X198012276Y-64718784D01*
X197997382Y-64874663D01*
X197987317Y-65036876D01*
X197981918Y-65205682D01*
X197981022Y-65381338D01*
X197984468Y-65564103D01*
X197992092Y-65754233D01*
X198019222Y-66157622D01*
X198061111Y-66593567D01*
X198116456Y-67064130D01*
X198183956Y-67571373D01*
X198262308Y-68117357D01*
X198066229Y-67628437D01*
X197879592Y-67175110D01*
X197700551Y-66756511D01*
X197527262Y-66371769D01*
X197357880Y-66020018D01*
X197190559Y-65700389D01*
X197023456Y-65412014D01*
X196939409Y-65279275D01*
X196854725Y-65154025D01*
X196793410Y-65336827D01*
X196734049Y-65531242D01*
X196675991Y-65737593D01*
X196618583Y-65956208D01*
X196561176Y-66187411D01*
X196503118Y-66431527D01*
X196382443Y-66959805D01*
X196377090Y-66380740D01*
X196370235Y-66114322D01*
X196360450Y-65862446D01*
X196347626Y-65624461D01*
X196331656Y-65399715D01*
X196312429Y-65187557D01*
X196289839Y-64987337D01*
X196168023Y-65086755D01*
X196045433Y-65194068D01*
X195921731Y-65309358D01*
X195796577Y-65432705D01*
X195669633Y-65564191D01*
X195540559Y-65703897D01*
X195409017Y-65851906D01*
X195274666Y-66008297D01*
X195137169Y-66173154D01*
X194996185Y-66346556D01*
X194702402Y-66719324D01*
X194390604Y-67127252D01*
X194058079Y-67570992D01*
X194454251Y-66635835D01*
X194624881Y-66213890D01*
X194775761Y-65819617D01*
X194905805Y-65450954D01*
X195013927Y-65105841D01*
X195099044Y-64782215D01*
X195132635Y-64627815D01*
X195160068Y-64478014D01*
X194989420Y-64565698D01*
X194810632Y-64662065D01*
X194623380Y-64767113D01*
X194427338Y-64880842D01*
X194222180Y-65003253D01*
X194007581Y-65134346D01*
X193783214Y-65274120D01*
X193548756Y-65422576D01*
X193949847Y-65011790D01*
X194133464Y-64820125D01*
X194305794Y-64636598D01*
X194466839Y-64460451D01*
X194616597Y-64290924D01*
X194755069Y-64127258D01*
X194882256Y-63968691D01*
X194726377Y-63950539D01*
X194564164Y-63937636D01*
X194395358Y-63929807D01*
X194219701Y-63926875D01*
X194036937Y-63928663D01*
X193846807Y-63934996D01*
X193443418Y-63960588D01*
X193007473Y-64002242D01*
X192536910Y-64058546D01*
X192029668Y-64128090D01*
X191483683Y-64209462D01*
X191972604Y-64013384D01*
X192425930Y-63826747D01*
X192844530Y-63647706D01*
X193229271Y-63474417D01*
X193581022Y-63305034D01*
X193900651Y-63137714D01*
X194189027Y-62970610D01*
X194321765Y-62886564D01*
X194447016Y-62801879D01*
X194264213Y-62743224D01*
X194069799Y-62685111D01*
X193863447Y-62627216D01*
X193644833Y-62569211D01*
X193413630Y-62510773D01*
X193169513Y-62451575D01*
X192641235Y-62329598D01*
X192959960Y-62325619D01*
X193293226Y-62315129D01*
X193933063Y-62283296D01*
X194613704Y-62236994D01*
X193798787Y-61199827D01*
X195910162Y-61227609D01*
G36*
X197808547Y-61255390D02*
G01*
X198308610Y-62088828D01*
X198236297Y-62179116D01*
X198158544Y-62268971D01*
X198075772Y-62357741D01*
X197988402Y-62444774D01*
X197896853Y-62529420D01*
X197801547Y-62611027D01*
X197702905Y-62688945D01*
X197601345Y-62762522D01*
X197497290Y-62831107D01*
X197391159Y-62894049D01*
X197283373Y-62950696D01*
X197174353Y-63000399D01*
X197064519Y-63042505D01*
X197009428Y-63060506D01*
X196954292Y-63076363D01*
X196899162Y-63089996D01*
X196844091Y-63101323D01*
X196789133Y-63110262D01*
X196734339Y-63116733D01*
X196764833Y-63079504D01*
X196796846Y-63034203D01*
X196829728Y-62981442D01*
X196862827Y-62921830D01*
X196895492Y-62855978D01*
X196927071Y-62784497D01*
X196956914Y-62707997D01*
X196984370Y-62627088D01*
X197008787Y-62542381D01*
X197029514Y-62454486D01*
X197045901Y-62364014D01*
X197057296Y-62271575D01*
X197060918Y-62224809D01*
X197063047Y-62177779D01*
X197063604Y-62130564D01*
X197062505Y-62083238D01*
X197059670Y-62035878D01*
X197055017Y-61988560D01*
X197048465Y-61941362D01*
X197039932Y-61894358D01*
X197028145Y-61929197D01*
X197015414Y-61962543D01*
X197001824Y-61994420D01*
X196987463Y-62024854D01*
X196972417Y-62053870D01*
X196956772Y-62081495D01*
X196940615Y-62107753D01*
X196924033Y-62132669D01*
X196889937Y-62178580D01*
X196855176Y-62219431D01*
X196820443Y-62255426D01*
X196786429Y-62286768D01*
X196753825Y-62313661D01*
X196723324Y-62336308D01*
X196695617Y-62354912D01*
X196671397Y-62369678D01*
X196636182Y-62388506D01*
X196623214Y-62394421D01*
X196628332Y-62379246D01*
X196641590Y-62335530D01*
X196650288Y-62303817D01*
X196659840Y-62265987D01*
X196669853Y-62222377D01*
X196679934Y-62173328D01*
X196689689Y-62119179D01*
X196698726Y-62060268D01*
X196706650Y-61996935D01*
X196713069Y-61929519D01*
X196717588Y-61858359D01*
X196719815Y-61783794D01*
X196719946Y-61745341D01*
X196719356Y-61706164D01*
X196717997Y-61666305D01*
X196715818Y-61625806D01*
X196712816Y-61577587D01*
X196710899Y-61530019D01*
X196710284Y-61482885D01*
X196711188Y-61435968D01*
X196713829Y-61389051D01*
X196715868Y-61365525D01*
X196718423Y-61341917D01*
X196721520Y-61318201D01*
X196725187Y-61294349D01*
X196729451Y-61270334D01*
X196734339Y-61246129D01*
X197808547Y-61255390D01*
G37*
X197808547Y-61255390D02*
X198308610Y-62088828D01*
X198236297Y-62179116D01*
X198158544Y-62268971D01*
X198075772Y-62357741D01*
X197988402Y-62444774D01*
X197896853Y-62529420D01*
X197801547Y-62611027D01*
X197702905Y-62688945D01*
X197601345Y-62762522D01*
X197497290Y-62831107D01*
X197391159Y-62894049D01*
X197283373Y-62950696D01*
X197174353Y-63000399D01*
X197064519Y-63042505D01*
X197009428Y-63060506D01*
X196954292Y-63076363D01*
X196899162Y-63089996D01*
X196844091Y-63101323D01*
X196789133Y-63110262D01*
X196734339Y-63116733D01*
X196764833Y-63079504D01*
X196796846Y-63034203D01*
X196829728Y-62981442D01*
X196862827Y-62921830D01*
X196895492Y-62855978D01*
X196927071Y-62784497D01*
X196956914Y-62707997D01*
X196984370Y-62627088D01*
X197008787Y-62542381D01*
X197029514Y-62454486D01*
X197045901Y-62364014D01*
X197057296Y-62271575D01*
X197060918Y-62224809D01*
X197063047Y-62177779D01*
X197063604Y-62130564D01*
X197062505Y-62083238D01*
X197059670Y-62035878D01*
X197055017Y-61988560D01*
X197048465Y-61941362D01*
X197039932Y-61894358D01*
X197028145Y-61929197D01*
X197015414Y-61962543D01*
X197001824Y-61994420D01*
X196987463Y-62024854D01*
X196972417Y-62053870D01*
X196956772Y-62081495D01*
X196940615Y-62107753D01*
X196924033Y-62132669D01*
X196889937Y-62178580D01*
X196855176Y-62219431D01*
X196820443Y-62255426D01*
X196786429Y-62286768D01*
X196753825Y-62313661D01*
X196723324Y-62336308D01*
X196695617Y-62354912D01*
X196671397Y-62369678D01*
X196636182Y-62388506D01*
X196623214Y-62394421D01*
X196628332Y-62379246D01*
X196641590Y-62335530D01*
X196650288Y-62303817D01*
X196659840Y-62265987D01*
X196669853Y-62222377D01*
X196679934Y-62173328D01*
X196689689Y-62119179D01*
X196698726Y-62060268D01*
X196706650Y-61996935D01*
X196713069Y-61929519D01*
X196717588Y-61858359D01*
X196719815Y-61783794D01*
X196719946Y-61745341D01*
X196719356Y-61706164D01*
X196717997Y-61666305D01*
X196715818Y-61625806D01*
X196712816Y-61577587D01*
X196710899Y-61530019D01*
X196710284Y-61482885D01*
X196711188Y-61435968D01*
X196713829Y-61389051D01*
X196715868Y-61365525D01*
X196718423Y-61341917D01*
X196721520Y-61318201D01*
X196725187Y-61294349D01*
X196729451Y-61270334D01*
X196734339Y-61246129D01*
X197808547Y-61255390D01*
G36*
X201036562Y-59156964D02*
G01*
X201316219Y-60794105D01*
X201554638Y-62461631D01*
X201751169Y-64056665D01*
X202015959Y-66617748D01*
X202105380Y-67654336D01*
X198040057Y-60829410D01*
X190094619Y-60718285D01*
X191036433Y-60278705D01*
X192079731Y-59805085D01*
X193385540Y-59229673D01*
X194567240Y-58729005D01*
X199771362Y-58729005D01*
X199774070Y-58764337D01*
X199776647Y-58781532D01*
X199780034Y-58798367D01*
X199784229Y-58814809D01*
X199789227Y-58830824D01*
X199795026Y-58846378D01*
X199801621Y-58861436D01*
X199809010Y-58875965D01*
X199817189Y-58889932D01*
X199826155Y-58903301D01*
X199835904Y-58916040D01*
X199846434Y-58928114D01*
X199857740Y-58939489D01*
X199869819Y-58950132D01*
X199882668Y-58960009D01*
X199896283Y-58969085D01*
X199910661Y-58977327D01*
X199924737Y-58984654D01*
X199939162Y-58991014D01*
X199953905Y-58996418D01*
X199968937Y-59000876D01*
X199984226Y-59004398D01*
X199999743Y-59006994D01*
X200015457Y-59008674D01*
X200031336Y-59009449D01*
X200047351Y-59009328D01*
X200063472Y-59008323D01*
X200079667Y-59006443D01*
X200095906Y-59003697D01*
X200112158Y-59000097D01*
X200128394Y-58995653D01*
X200144582Y-58990375D01*
X200160693Y-58984272D01*
X200176694Y-58977356D01*
X200192557Y-58969635D01*
X200208250Y-58961122D01*
X200223743Y-58951824D01*
X200239005Y-58941754D01*
X200254007Y-58930921D01*
X200268716Y-58919334D01*
X200283104Y-58907006D01*
X200297138Y-58893944D01*
X200310790Y-58880160D01*
X200324028Y-58865664D01*
X200336821Y-58850466D01*
X200349140Y-58834577D01*
X200360954Y-58818005D01*
X200372231Y-58800762D01*
X200382943Y-58782858D01*
X200402155Y-58746006D01*
X200418139Y-58708558D01*
X200430922Y-58670784D01*
X200440531Y-58632955D01*
X200446992Y-58595344D01*
X200450334Y-58558221D01*
X200450583Y-58521857D01*
X200447766Y-58486525D01*
X200441910Y-58452495D01*
X200433043Y-58420038D01*
X200427489Y-58404485D01*
X200421192Y-58389426D01*
X200414155Y-58374897D01*
X200406383Y-58360931D01*
X200397878Y-58347561D01*
X200388644Y-58334822D01*
X200378685Y-58322748D01*
X200368003Y-58311373D01*
X200356602Y-58300730D01*
X200344486Y-58290853D01*
X200331657Y-58281777D01*
X200318120Y-58273535D01*
X200304044Y-58266209D01*
X200289619Y-58259848D01*
X200274876Y-58254444D01*
X200259844Y-58249986D01*
X200244555Y-58246465D01*
X200229038Y-58243869D01*
X200213324Y-58242188D01*
X200197445Y-58241413D01*
X200181430Y-58241534D01*
X200165309Y-58242539D01*
X200149114Y-58244420D01*
X200132875Y-58247165D01*
X200116622Y-58250765D01*
X200100387Y-58255209D01*
X200084199Y-58260487D01*
X200068088Y-58266590D01*
X200052087Y-58273506D01*
X200036224Y-58281227D01*
X200020531Y-58289740D01*
X200005038Y-58299038D01*
X199989776Y-58309108D01*
X199974774Y-58319941D01*
X199960065Y-58331528D01*
X199945677Y-58343857D01*
X199931643Y-58356918D01*
X199917991Y-58370702D01*
X199904753Y-58385198D01*
X199891960Y-58400396D01*
X199879641Y-58416286D01*
X199867827Y-58432857D01*
X199856550Y-58450100D01*
X199845838Y-58468004D01*
X199824998Y-58504856D01*
X199807603Y-58542304D01*
X199793627Y-58580079D01*
X199783041Y-58617907D01*
X199775820Y-58655518D01*
X199771936Y-58692641D01*
X199771362Y-58729005D01*
X194567240Y-58729005D01*
X194864548Y-58603040D01*
X196281143Y-58034474D01*
X198571353Y-58034474D01*
X198573689Y-58069806D01*
X198579171Y-58103836D01*
X198583097Y-58120278D01*
X198587815Y-58136293D01*
X198593326Y-58151846D01*
X198599632Y-58166905D01*
X198606735Y-58181434D01*
X198614637Y-58195400D01*
X198623339Y-58208770D01*
X198632844Y-58221509D01*
X198643152Y-58233583D01*
X198654265Y-58244958D01*
X198666186Y-58255601D01*
X198678915Y-58265478D01*
X198692455Y-58274554D01*
X198706807Y-58282796D01*
X198720883Y-58290122D01*
X198735307Y-58296483D01*
X198750051Y-58301887D01*
X198765083Y-58306345D01*
X198780372Y-58309866D01*
X198795889Y-58312462D01*
X198811602Y-58314143D01*
X198827482Y-58314918D01*
X198843497Y-58314797D01*
X198859618Y-58313792D01*
X198875813Y-58311911D01*
X198892052Y-58309166D01*
X198908304Y-58305566D01*
X198924540Y-58301122D01*
X198940728Y-58295843D01*
X198956838Y-58289741D01*
X198972840Y-58282824D01*
X198988703Y-58275104D01*
X199004396Y-58266590D01*
X199019889Y-58257293D01*
X199035151Y-58247223D01*
X199050152Y-58236389D01*
X199064862Y-58224803D01*
X199079249Y-58212474D01*
X199093284Y-58199413D01*
X199106936Y-58185629D01*
X199120174Y-58171133D01*
X199132967Y-58155935D01*
X199145286Y-58140045D01*
X199157099Y-58123474D01*
X199168377Y-58106231D01*
X199179088Y-58088327D01*
X199198301Y-58051475D01*
X199214285Y-58014026D01*
X199227068Y-57976252D01*
X199236676Y-57938424D01*
X199243138Y-57900812D01*
X199246479Y-57863689D01*
X199246728Y-57827326D01*
X199243911Y-57791993D01*
X199238056Y-57757963D01*
X199229189Y-57725507D01*
X199223634Y-57709953D01*
X199217337Y-57694895D01*
X199210301Y-57680365D01*
X199202529Y-57666399D01*
X199194024Y-57653030D01*
X199184790Y-57640291D01*
X199174831Y-57628217D01*
X199164149Y-57616841D01*
X199152748Y-57606198D01*
X199140631Y-57596322D01*
X199127803Y-57587246D01*
X199114265Y-57579004D01*
X199100190Y-57571677D01*
X199085765Y-57565317D01*
X199071021Y-57559913D01*
X199055990Y-57555455D01*
X199040700Y-57551933D01*
X199025183Y-57549337D01*
X199009470Y-57547657D01*
X198993590Y-57546882D01*
X198977575Y-57547002D01*
X198961455Y-57548008D01*
X198945260Y-57549888D01*
X198929021Y-57552633D01*
X198912768Y-57556233D01*
X198896532Y-57560678D01*
X198880344Y-57565956D01*
X198864234Y-57572059D01*
X198848232Y-57578975D01*
X198832370Y-57586695D01*
X198816676Y-57595209D01*
X198801183Y-57604506D01*
X198785921Y-57614577D01*
X198770920Y-57625410D01*
X198756210Y-57636996D01*
X198741823Y-57649325D01*
X198727788Y-57662387D01*
X198714137Y-57676170D01*
X198700899Y-57690666D01*
X198688105Y-57705864D01*
X198675786Y-57721754D01*
X198663973Y-57738326D01*
X198652695Y-57755568D01*
X198641984Y-57773473D01*
X198622670Y-57810324D01*
X198606408Y-57847773D01*
X198593211Y-57885547D01*
X198583094Y-57923376D01*
X198576069Y-57960987D01*
X198572151Y-57998110D01*
X198571353Y-58034474D01*
X196281143Y-58034474D01*
X196427443Y-57975755D01*
X197212437Y-57677672D01*
X197984911Y-57398390D01*
X198733700Y-57144230D01*
X199447640Y-56921515D01*
X199499771Y-56908185D01*
X199551926Y-56897683D01*
X199604024Y-56889958D01*
X199655982Y-56884961D01*
X199707715Y-56882644D01*
X199759142Y-56882956D01*
X199810178Y-56885849D01*
X199860742Y-56891273D01*
X199910749Y-56899180D01*
X199960117Y-56909521D01*
X200008763Y-56922245D01*
X200056603Y-56937304D01*
X200103555Y-56954649D01*
X200149535Y-56974231D01*
X200194461Y-56995999D01*
X200238249Y-57019906D01*
X200280815Y-57045902D01*
X200322078Y-57073938D01*
X200361954Y-57103965D01*
X200400360Y-57135933D01*
X200437213Y-57169793D01*
X200472429Y-57205497D01*
X200505926Y-57242994D01*
X200537621Y-57282237D01*
X200567429Y-57323175D01*
X200595270Y-57365759D01*
X200621058Y-57409941D01*
X200644712Y-57455670D01*
X200666148Y-57502899D01*
X200685283Y-57551578D01*
X200702034Y-57601657D01*
X200716318Y-57653087D01*
X200753421Y-57827326D01*
X200901318Y-58521857D01*
X201036562Y-59156964D01*
G37*
X201036562Y-59156964D02*
X201316219Y-60794105D01*
X201554638Y-62461631D01*
X201751169Y-64056665D01*
X202015959Y-66617748D01*
X202105380Y-67654336D01*
X198040057Y-60829410D01*
X190094619Y-60718285D01*
X191036433Y-60278705D01*
X192079731Y-59805085D01*
X193385540Y-59229673D01*
X194567240Y-58729005D01*
X199771362Y-58729005D01*
X199774070Y-58764337D01*
X199776647Y-58781532D01*
X199780034Y-58798367D01*
X199784229Y-58814809D01*
X199789227Y-58830824D01*
X199795026Y-58846378D01*
X199801621Y-58861436D01*
X199809010Y-58875965D01*
X199817189Y-58889932D01*
X199826155Y-58903301D01*
X199835904Y-58916040D01*
X199846434Y-58928114D01*
X199857740Y-58939489D01*
X199869819Y-58950132D01*
X199882668Y-58960009D01*
X199896283Y-58969085D01*
X199910661Y-58977327D01*
X199924737Y-58984654D01*
X199939162Y-58991014D01*
X199953905Y-58996418D01*
X199968937Y-59000876D01*
X199984226Y-59004398D01*
X199999743Y-59006994D01*
X200015457Y-59008674D01*
X200031336Y-59009449D01*
X200047351Y-59009328D01*
X200063472Y-59008323D01*
X200079667Y-59006443D01*
X200095906Y-59003697D01*
X200112158Y-59000097D01*
X200128394Y-58995653D01*
X200144582Y-58990375D01*
X200160693Y-58984272D01*
X200176694Y-58977356D01*
X200192557Y-58969635D01*
X200208250Y-58961122D01*
X200223743Y-58951824D01*
X200239005Y-58941754D01*
X200254007Y-58930921D01*
X200268716Y-58919334D01*
X200283104Y-58907006D01*
X200297138Y-58893944D01*
X200310790Y-58880160D01*
X200324028Y-58865664D01*
X200336821Y-58850466D01*
X200349140Y-58834577D01*
X200360954Y-58818005D01*
X200372231Y-58800762D01*
X200382943Y-58782858D01*
X200402155Y-58746006D01*
X200418139Y-58708558D01*
X200430922Y-58670784D01*
X200440531Y-58632955D01*
X200446992Y-58595344D01*
X200450334Y-58558221D01*
X200450583Y-58521857D01*
X200447766Y-58486525D01*
X200441910Y-58452495D01*
X200433043Y-58420038D01*
X200427489Y-58404485D01*
X200421192Y-58389426D01*
X200414155Y-58374897D01*
X200406383Y-58360931D01*
X200397878Y-58347561D01*
X200388644Y-58334822D01*
X200378685Y-58322748D01*
X200368003Y-58311373D01*
X200356602Y-58300730D01*
X200344486Y-58290853D01*
X200331657Y-58281777D01*
X200318120Y-58273535D01*
X200304044Y-58266209D01*
X200289619Y-58259848D01*
X200274876Y-58254444D01*
X200259844Y-58249986D01*
X200244555Y-58246465D01*
X200229038Y-58243869D01*
X200213324Y-58242188D01*
X200197445Y-58241413D01*
X200181430Y-58241534D01*
X200165309Y-58242539D01*
X200149114Y-58244420D01*
X200132875Y-58247165D01*
X200116622Y-58250765D01*
X200100387Y-58255209D01*
X200084199Y-58260487D01*
X200068088Y-58266590D01*
X200052087Y-58273506D01*
X200036224Y-58281227D01*
X200020531Y-58289740D01*
X200005038Y-58299038D01*
X199989776Y-58309108D01*
X199974774Y-58319941D01*
X199960065Y-58331528D01*
X199945677Y-58343857D01*
X199931643Y-58356918D01*
X199917991Y-58370702D01*
X199904753Y-58385198D01*
X199891960Y-58400396D01*
X199879641Y-58416286D01*
X199867827Y-58432857D01*
X199856550Y-58450100D01*
X199845838Y-58468004D01*
X199824998Y-58504856D01*
X199807603Y-58542304D01*
X199793627Y-58580079D01*
X199783041Y-58617907D01*
X199775820Y-58655518D01*
X199771936Y-58692641D01*
X199771362Y-58729005D01*
X194567240Y-58729005D01*
X194864548Y-58603040D01*
X196281143Y-58034474D01*
X198571353Y-58034474D01*
X198573689Y-58069806D01*
X198579171Y-58103836D01*
X198583097Y-58120278D01*
X198587815Y-58136293D01*
X198593326Y-58151846D01*
X198599632Y-58166905D01*
X198606735Y-58181434D01*
X198614637Y-58195400D01*
X198623339Y-58208770D01*
X198632844Y-58221509D01*
X198643152Y-58233583D01*
X198654265Y-58244958D01*
X198666186Y-58255601D01*
X198678915Y-58265478D01*
X198692455Y-58274554D01*
X198706807Y-58282796D01*
X198720883Y-58290122D01*
X198735307Y-58296483D01*
X198750051Y-58301887D01*
X198765083Y-58306345D01*
X198780372Y-58309866D01*
X198795889Y-58312462D01*
X198811602Y-58314143D01*
X198827482Y-58314918D01*
X198843497Y-58314797D01*
X198859618Y-58313792D01*
X198875813Y-58311911D01*
X198892052Y-58309166D01*
X198908304Y-58305566D01*
X198924540Y-58301122D01*
X198940728Y-58295843D01*
X198956838Y-58289741D01*
X198972840Y-58282824D01*
X198988703Y-58275104D01*
X199004396Y-58266590D01*
X199019889Y-58257293D01*
X199035151Y-58247223D01*
X199050152Y-58236389D01*
X199064862Y-58224803D01*
X199079249Y-58212474D01*
X199093284Y-58199413D01*
X199106936Y-58185629D01*
X199120174Y-58171133D01*
X199132967Y-58155935D01*
X199145286Y-58140045D01*
X199157099Y-58123474D01*
X199168377Y-58106231D01*
X199179088Y-58088327D01*
X199198301Y-58051475D01*
X199214285Y-58014026D01*
X199227068Y-57976252D01*
X199236676Y-57938424D01*
X199243138Y-57900812D01*
X199246479Y-57863689D01*
X199246728Y-57827326D01*
X199243911Y-57791993D01*
X199238056Y-57757963D01*
X199229189Y-57725507D01*
X199223634Y-57709953D01*
X199217337Y-57694895D01*
X199210301Y-57680365D01*
X199202529Y-57666399D01*
X199194024Y-57653030D01*
X199184790Y-57640291D01*
X199174831Y-57628217D01*
X199164149Y-57616841D01*
X199152748Y-57606198D01*
X199140631Y-57596322D01*
X199127803Y-57587246D01*
X199114265Y-57579004D01*
X199100190Y-57571677D01*
X199085765Y-57565317D01*
X199071021Y-57559913D01*
X199055990Y-57555455D01*
X199040700Y-57551933D01*
X199025183Y-57549337D01*
X199009470Y-57547657D01*
X198993590Y-57546882D01*
X198977575Y-57547002D01*
X198961455Y-57548008D01*
X198945260Y-57549888D01*
X198929021Y-57552633D01*
X198912768Y-57556233D01*
X198896532Y-57560678D01*
X198880344Y-57565956D01*
X198864234Y-57572059D01*
X198848232Y-57578975D01*
X198832370Y-57586695D01*
X198816676Y-57595209D01*
X198801183Y-57604506D01*
X198785921Y-57614577D01*
X198770920Y-57625410D01*
X198756210Y-57636996D01*
X198741823Y-57649325D01*
X198727788Y-57662387D01*
X198714137Y-57676170D01*
X198700899Y-57690666D01*
X198688105Y-57705864D01*
X198675786Y-57721754D01*
X198663973Y-57738326D01*
X198652695Y-57755568D01*
X198641984Y-57773473D01*
X198622670Y-57810324D01*
X198606408Y-57847773D01*
X198593211Y-57885547D01*
X198583094Y-57923376D01*
X198576069Y-57960987D01*
X198572151Y-57998110D01*
X198571353Y-58034474D01*
X196281143Y-58034474D01*
X196427443Y-57975755D01*
X197212437Y-57677672D01*
X197984911Y-57398390D01*
X198733700Y-57144230D01*
X199447640Y-56921515D01*
X199499771Y-56908185D01*
X199551926Y-56897683D01*
X199604024Y-56889958D01*
X199655982Y-56884961D01*
X199707715Y-56882644D01*
X199759142Y-56882956D01*
X199810178Y-56885849D01*
X199860742Y-56891273D01*
X199910749Y-56899180D01*
X199960117Y-56909521D01*
X200008763Y-56922245D01*
X200056603Y-56937304D01*
X200103555Y-56954649D01*
X200149535Y-56974231D01*
X200194461Y-56995999D01*
X200238249Y-57019906D01*
X200280815Y-57045902D01*
X200322078Y-57073938D01*
X200361954Y-57103965D01*
X200400360Y-57135933D01*
X200437213Y-57169793D01*
X200472429Y-57205497D01*
X200505926Y-57242994D01*
X200537621Y-57282237D01*
X200567429Y-57323175D01*
X200595270Y-57365759D01*
X200621058Y-57409941D01*
X200644712Y-57455670D01*
X200666148Y-57502899D01*
X200685283Y-57551578D01*
X200702034Y-57601657D01*
X200716318Y-57653087D01*
X200753421Y-57827326D01*
X200901318Y-58521857D01*
X201036562Y-59156964D01*
%LPC*%
D14*
X194390000Y-45825000D03*
X188610000Y-45825000D03*
D15*
X187180000Y-42135000D03*
X195820000Y-42135000D03*
D16*
X187180000Y-46305000D03*
X195820000Y-46305000D03*
D17*
X213200000Y-62600000D03*
D18*
X210660000Y-62600000D03*
X213200000Y-65140000D03*
X210660000Y-65140000D03*
X213200000Y-67680000D03*
X210660000Y-67680000D03*
M02*
