M48
; DRILL file {KiCad (6.0.10-0)} date Thursday, December 22, 2022 at 09:20:36 pm
; FORMAT={-:-/ absolute / metric / decimal}
; #@! TF.CreationDate,2022-12-22T21:20:36-05:00
; #@! TF.GenerationSoftware,Kicad,Pcbnew,(6.0.10-0)
; #@! TF.FileFunction,Plated,1,2,PTH
FMAT,2
METRIC
; #@! TA.AperFunction,Plated,PTH,ViaDrill
T1C0.400
; #@! TA.AperFunction,Plated,PTH,ComponentDrill
T2C0.600
; #@! TA.AperFunction,Plated,PTH,ComponentDrill
T3C1.000
%
G90
G05
T1
X186.2Y-51.4
X187.4Y-55.0
X187.4Y-56.2
X187.4Y-58.0
X187.4Y-59.4
X188.4Y-57.0
X190.025Y-54.825
X191.2Y-45.4
X192.8Y-45.4
X192.8Y-49.6
X195.0Y-49.6
X195.2Y-54.6
X196.2Y-56.2
X196.2Y-57.4
X196.2Y-58.6
X196.2Y-59.8
X199.4Y-52.0
X199.6Y-55.4
X199.8Y-47.6
X201.2Y-44.4
X205.0Y-47.6
X206.4Y-55.4
X207.2Y-60.2
X207.2Y-61.4
X207.2Y-62.6
X214.4Y-52.4
X214.4Y-53.8
X214.4Y-55.2
X214.4Y-56.6
X215.1Y-45.25
X223.5Y-44.0
X223.5Y-51.0
X223.5Y-58.0
X223.5Y-65.0
T3
X210.66Y-62.6
X210.66Y-65.14
X210.66Y-67.68
X213.2Y-62.6
X213.2Y-65.14
X213.2Y-67.68
T2
X187.18Y-41.735G85X187.18Y-42.535
G05
X187.18Y-45.755G85X187.18Y-46.855
G05
X195.82Y-41.735G85X195.82Y-42.535
G05
X195.82Y-45.755G85X195.82Y-46.855
G05
T0
M30
