G04 #@! TF.GenerationSoftware,KiCad,Pcbnew,(6.0.10-0)*
G04 #@! TF.CreationDate,2022-12-22T21:19:15-05:00*
G04 #@! TF.ProjectId,rev2,72657632-2e6b-4696-9361-645f70636258,rev?*
G04 #@! TF.SameCoordinates,Original*
G04 #@! TF.FileFunction,AssemblyDrawing,Bot*
%FSLAX46Y46*%
G04 Gerber Fmt 4.6, Leading zero omitted, Abs format (unit mm)*
G04 Created by KiCad (PCBNEW (6.0.10-0)) date 2022-12-22 21:19:15*
%MOMM*%
%LPD*%
G01*
G04 APERTURE LIST*
%ADD10C,0.150000*%
%ADD11C,0.100000*%
G04 APERTURE END LIST*
D10*
X211382380Y-64806666D02*
X212096666Y-64806666D01*
X212239523Y-64759047D01*
X212334761Y-64663809D01*
X212382380Y-64520952D01*
X212382380Y-64425714D01*
X211477619Y-65235238D02*
X211430000Y-65282857D01*
X211382380Y-65378095D01*
X211382380Y-65616190D01*
X211430000Y-65711428D01*
X211477619Y-65759047D01*
X211572857Y-65806666D01*
X211668095Y-65806666D01*
X211810952Y-65759047D01*
X212382380Y-65187619D01*
X212382380Y-65806666D01*
X193633333Y-58152380D02*
X193966666Y-57676190D01*
X194204761Y-58152380D02*
X194204761Y-57152380D01*
X193823809Y-57152380D01*
X193728571Y-57200000D01*
X193680952Y-57247619D01*
X193633333Y-57342857D01*
X193633333Y-57485714D01*
X193680952Y-57580952D01*
X193728571Y-57628571D01*
X193823809Y-57676190D01*
X194204761Y-57676190D01*
X193204761Y-57628571D02*
X192871428Y-57628571D01*
X192728571Y-58152380D02*
X193204761Y-58152380D01*
X193204761Y-57152380D01*
X192728571Y-57152380D01*
X191966666Y-57628571D02*
X192300000Y-57628571D01*
X192300000Y-58152380D02*
X192300000Y-57152380D01*
X191823809Y-57152380D01*
X191300000Y-57152380D02*
X191300000Y-57390476D01*
X191538095Y-57295238D02*
X191300000Y-57390476D01*
X191061904Y-57295238D01*
X191442857Y-57580952D02*
X191300000Y-57390476D01*
X191157142Y-57580952D01*
X190538095Y-57152380D02*
X190538095Y-57390476D01*
X190776190Y-57295238D02*
X190538095Y-57390476D01*
X190300000Y-57295238D01*
X190680952Y-57580952D02*
X190538095Y-57390476D01*
X190395238Y-57580952D01*
D11*
X214470000Y-62600000D02*
X213200000Y-61330000D01*
X214470000Y-68950000D02*
X214470000Y-62600000D01*
X209390000Y-68950000D02*
X214470000Y-68950000D01*
X209390000Y-61330000D02*
X209390000Y-68950000D01*
X213200000Y-61330000D02*
X209390000Y-61330000D01*
M02*
