<?xml version="1.0" standalone="no"?>
 <!DOCTYPE svg PUBLIC "-//W3C//DTD SVG 1.1//EN" 
 "http://www.w3.org/Graphics/SVG/1.1/DTD/svg11.dtd"> 
<svg
  xmlns:svg="http://www.w3.org/2000/svg"
  xmlns="http://www.w3.org/2000/svg"
  xmlns:xlink="http://www.w3.org/1999/xlink"
  version="1.1"
  width="297.0022mm" height="210.0072mm" viewBox="0.0000 0.0000 297.0022 210.0072">
<title>SVG Image created as pixie-rev-4-Power.svg date 2024/04/25 03:52:19 </title>
  <desc>Image generated by Eeschema-SVG </desc>
<g style="fill:#000000; fill-opacity:1.0000;stroke:#000000; stroke-opacity:1.0000;
stroke-linecap:round; stroke-linejoin:round;"
 transform="translate(0 0) scale(1 1)">
</g>
<g style="fill:#F5F4EF; fill-opacity:1.0000; 
stroke:#F5F4EF; stroke-width:0.0001; stroke-opacity:1; 
stroke-linecap:round; stroke-linejoin:round;">
<rect x="0.000000" y="0.000000" width="297.002200" height="210.007200" rx="0.000000" />
</g>
<g style="fill:none; 
stroke:#840000; stroke-width:0.1524; stroke-opacity:1; 
stroke-linecap:round; stroke-linejoin:round;">
<path d="M177.0022 166.0072
L285.0022 166.0072
L285.0022 198.0072
L177.0022 198.0072
L177.0022 166.0072
" />
<path d="M10.0000 10.0000
L287.0022 10.0000
L287.0022 200.0072
L10.0000 200.0072
L10.0000 10.0000
" />
<path d="M12.0000 12.0000
L285.0022 12.0000
L285.0022 198.0072
L12.0000 198.0072
L12.0000 12.0000
" />
<path d="M60.0000 12.0000
L60.0000 10.0000
" />
<path d="M110.0000 12.0000
L110.0000 10.0000
" />
<path d="M160.0000 12.0000
L160.0000 10.0000
" />
<path d="M210.0000 12.0000
L210.0000 10.0000
" />
<path d="M260.0000 12.0000
L260.0000 10.0000
" />
<text x="35.0000" y="11.6500"
textLength="1.4353" font-size="1.7333" lengthAdjust="spacingAndGlyphs"
text-anchor="start" opacity="0">1</text>
<g class="stroked-text"><desc>1</desc>
<path d="M36.0906 11.5935
L35.3478 11.5935
" />
<path d="M35.7192 11.5935
L35.7192 10.2935
" />
<path d="M35.7192 10.2935
L35.5954 10.4792
" />
<path d="M35.5954 10.4792
L35.4716 10.6030
" />
<path d="M35.4716 10.6030
L35.3478 10.6649
" />
</g><text x="85.0000" y="11.6500"
textLength="1.4353" font-size="1.7333" lengthAdjust="spacingAndGlyphs"
text-anchor="start" opacity="0">2</text>
<g class="stroked-text"><desc>2</desc>
<path d="M85.3478 10.4173
L85.4097 10.3554
" />
<path d="M85.4097 10.3554
L85.5335 10.2935
" />
<path d="M85.5335 10.2935
L85.8430 10.2935
" />
<path d="M85.8430 10.2935
L85.9668 10.3554
" />
<path d="M85.9668 10.3554
L86.0287 10.4173
" />
<path d="M86.0287 10.4173
L86.0906 10.5411
" />
<path d="M86.0906 10.5411
L86.0906 10.6649
" />
<path d="M86.0906 10.6649
L86.0287 10.8506
" />
<path d="M86.0287 10.8506
L85.2859 11.5935
" />
<path d="M85.2859 11.5935
L86.0906 11.5935
" />
</g><text x="135.0000" y="11.6500"
textLength="1.4353" font-size="1.7333" lengthAdjust="spacingAndGlyphs"
text-anchor="start" opacity="0">3</text>
<g class="stroked-text"><desc>3</desc>
<path d="M135.2859 10.2935
L136.0906 10.2935
" />
<path d="M136.0906 10.2935
L135.6573 10.7887
" />
<path d="M135.6573 10.7887
L135.8430 10.7887
" />
<path d="M135.8430 10.7887
L135.9668 10.8506
" />
<path d="M135.9668 10.8506
L136.0287 10.9125
" />
<path d="M136.0287 10.9125
L136.0906 11.0363
" />
<path d="M136.0906 11.0363
L136.0906 11.3458
" />
<path d="M136.0906 11.3458
L136.0287 11.4696
" />
<path d="M136.0287 11.4696
L135.9668 11.5316
" />
<path d="M135.9668 11.5316
L135.8430 11.5935
" />
<path d="M135.8430 11.5935
L135.4716 11.5935
" />
<path d="M135.4716 11.5935
L135.3478 11.5316
" />
<path d="M135.3478 11.5316
L135.2859 11.4696
" />
</g><text x="185.0000" y="11.6500"
textLength="1.4353" font-size="1.7333" lengthAdjust="spacingAndGlyphs"
text-anchor="start" opacity="0">4</text>
<g class="stroked-text"><desc>4</desc>
<path d="M185.9668 10.7268
L185.9668 11.5935
" />
<path d="M185.6573 10.2316
L185.3478 11.1601
" />
<path d="M185.3478 11.1601
L186.1525 11.1601
" />
</g><text x="235.0000" y="11.6500"
textLength="1.4353" font-size="1.7333" lengthAdjust="spacingAndGlyphs"
text-anchor="start" opacity="0">5</text>
<g class="stroked-text"><desc>5</desc>
<path d="M236.0287 10.2935
L235.4097 10.2935
" />
<path d="M235.4097 10.2935
L235.3478 10.9125
" />
<path d="M235.3478 10.9125
L235.4097 10.8506
" />
<path d="M235.4097 10.8506
L235.5335 10.7887
" />
<path d="M235.5335 10.7887
L235.8430 10.7887
" />
<path d="M235.8430 10.7887
L235.9668 10.8506
" />
<path d="M235.9668 10.8506
L236.0287 10.9125
" />
<path d="M236.0287 10.9125
L236.0906 11.0363
" />
<path d="M236.0906 11.0363
L236.0906 11.3458
" />
<path d="M236.0906 11.3458
L236.0287 11.4696
" />
<path d="M236.0287 11.4696
L235.9668 11.5316
" />
<path d="M235.9668 11.5316
L235.8430 11.5935
" />
<path d="M235.8430 11.5935
L235.5335 11.5935
" />
<path d="M235.5335 11.5935
L235.4097 11.5316
" />
<path d="M235.4097 11.5316
L235.3478 11.4696
" />
</g><text x="285.0000" y="11.6500"
textLength="1.4353" font-size="1.7333" lengthAdjust="spacingAndGlyphs"
text-anchor="start" opacity="0">6</text>
<g class="stroked-text"><desc>6</desc>
<path d="M285.9668 10.2935
L285.7192 10.2935
" />
<path d="M285.7192 10.2935
L285.5954 10.3554
" />
<path d="M285.5954 10.3554
L285.5335 10.4173
" />
<path d="M285.5335 10.4173
L285.4097 10.6030
" />
<path d="M285.4097 10.6030
L285.3478 10.8506
" />
<path d="M285.3478 10.8506
L285.3478 11.3458
" />
<path d="M285.3478 11.3458
L285.4097 11.4696
" />
<path d="M285.4097 11.4696
L285.4716 11.5316
" />
<path d="M285.4716 11.5316
L285.5954 11.5935
" />
<path d="M285.5954 11.5935
L285.8430 11.5935
" />
<path d="M285.8430 11.5935
L285.9668 11.5316
" />
<path d="M285.9668 11.5316
L286.0287 11.4696
" />
<path d="M286.0287 11.4696
L286.0906 11.3458
" />
<path d="M286.0906 11.3458
L286.0906 11.0363
" />
<path d="M286.0906 11.0363
L286.0287 10.9125
" />
<path d="M286.0287 10.9125
L285.9668 10.8506
" />
<path d="M285.9668 10.8506
L285.8430 10.7887
" />
<path d="M285.8430 10.7887
L285.5954 10.7887
" />
<path d="M285.5954 10.7887
L285.4716 10.8506
" />
<path d="M285.4716 10.8506
L285.4097 10.9125
" />
<path d="M285.4097 10.9125
L285.3478 11.0363
" />
</g><path d="M60.0000 198.0072
L60.0000 200.0072
" />
<path d="M110.0000 198.0072
L110.0000 200.0072
" />
<path d="M160.0000 198.0072
L160.0000 200.0072
" />
<path d="M210.0000 198.0072
L210.0000 200.0072
" />
<path d="M260.0000 198.0072
L260.0000 200.0072
" />
<text x="35.0000" y="199.6572"
textLength="1.4353" font-size="1.7333" lengthAdjust="spacingAndGlyphs"
text-anchor="start" opacity="0">1</text>
<g class="stroked-text"><desc>1</desc>
<path d="M36.0906 199.6007
L35.3478 199.6007
" />
<path d="M35.7192 199.6007
L35.7192 198.3007
" />
<path d="M35.7192 198.3007
L35.5954 198.4864
" />
<path d="M35.5954 198.4864
L35.4716 198.6102
" />
<path d="M35.4716 198.6102
L35.3478 198.6721
" />
</g><text x="85.0000" y="199.6572"
textLength="1.4353" font-size="1.7333" lengthAdjust="spacingAndGlyphs"
text-anchor="start" opacity="0">2</text>
<g class="stroked-text"><desc>2</desc>
<path d="M85.3478 198.4245
L85.4097 198.3626
" />
<path d="M85.4097 198.3626
L85.5335 198.3007
" />
<path d="M85.5335 198.3007
L85.8430 198.3007
" />
<path d="M85.8430 198.3007
L85.9668 198.3626
" />
<path d="M85.9668 198.3626
L86.0287 198.4245
" />
<path d="M86.0287 198.4245
L86.0906 198.5483
" />
<path d="M86.0906 198.5483
L86.0906 198.6721
" />
<path d="M86.0906 198.6721
L86.0287 198.8578
" />
<path d="M86.0287 198.8578
L85.2859 199.6007
" />
<path d="M85.2859 199.6007
L86.0906 199.6007
" />
</g><text x="135.0000" y="199.6572"
textLength="1.4353" font-size="1.7333" lengthAdjust="spacingAndGlyphs"
text-anchor="start" opacity="0">3</text>
<g class="stroked-text"><desc>3</desc>
<path d="M135.2859 198.3007
L136.0906 198.3007
" />
<path d="M136.0906 198.3007
L135.6573 198.7959
" />
<path d="M135.6573 198.7959
L135.8430 198.7959
" />
<path d="M135.8430 198.7959
L135.9668 198.8578
" />
<path d="M135.9668 198.8578
L136.0287 198.9197
" />
<path d="M136.0287 198.9197
L136.0906 199.0435
" />
<path d="M136.0906 199.0435
L136.0906 199.3530
" />
<path d="M136.0906 199.3530
L136.0287 199.4768
" />
<path d="M136.0287 199.4768
L135.9668 199.5388
" />
<path d="M135.9668 199.5388
L135.8430 199.6007
" />
<path d="M135.8430 199.6007
L135.4716 199.6007
" />
<path d="M135.4716 199.6007
L135.3478 199.5388
" />
<path d="M135.3478 199.5388
L135.2859 199.4768
" />
</g><text x="185.0000" y="199.6572"
textLength="1.4353" font-size="1.7333" lengthAdjust="spacingAndGlyphs"
text-anchor="start" opacity="0">4</text>
<g class="stroked-text"><desc>4</desc>
<path d="M185.9668 198.7340
L185.9668 199.6007
" />
<path d="M185.6573 198.2388
L185.3478 199.1673
" />
<path d="M185.3478 199.1673
L186.1525 199.1673
" />
</g><text x="235.0000" y="199.6572"
textLength="1.4353" font-size="1.7333" lengthAdjust="spacingAndGlyphs"
text-anchor="start" opacity="0">5</text>
<g class="stroked-text"><desc>5</desc>
<path d="M236.0287 198.3007
L235.4097 198.3007
" />
<path d="M235.4097 198.3007
L235.3478 198.9197
" />
<path d="M235.3478 198.9197
L235.4097 198.8578
" />
<path d="M235.4097 198.8578
L235.5335 198.7959
" />
<path d="M235.5335 198.7959
L235.8430 198.7959
" />
<path d="M235.8430 198.7959
L235.9668 198.8578
" />
<path d="M235.9668 198.8578
L236.0287 198.9197
" />
<path d="M236.0287 198.9197
L236.0906 199.0435
" />
<path d="M236.0906 199.0435
L236.0906 199.3530
" />
<path d="M236.0906 199.3530
L236.0287 199.4768
" />
<path d="M236.0287 199.4768
L235.9668 199.5388
" />
<path d="M235.9668 199.5388
L235.8430 199.6007
" />
<path d="M235.8430 199.6007
L235.5335 199.6007
" />
<path d="M235.5335 199.6007
L235.4097 199.5388
" />
<path d="M235.4097 199.5388
L235.3478 199.4768
" />
</g><text x="285.0000" y="199.6572"
textLength="1.4353" font-size="1.7333" lengthAdjust="spacingAndGlyphs"
text-anchor="start" opacity="0">6</text>
<g class="stroked-text"><desc>6</desc>
<path d="M285.9668 198.3007
L285.7192 198.3007
" />
<path d="M285.7192 198.3007
L285.5954 198.3626
" />
<path d="M285.5954 198.3626
L285.5335 198.4245
" />
<path d="M285.5335 198.4245
L285.4097 198.6102
" />
<path d="M285.4097 198.6102
L285.3478 198.8578
" />
<path d="M285.3478 198.8578
L285.3478 199.3530
" />
<path d="M285.3478 199.3530
L285.4097 199.4768
" />
<path d="M285.4097 199.4768
L285.4716 199.5388
" />
<path d="M285.4716 199.5388
L285.5954 199.6007
" />
<path d="M285.5954 199.6007
L285.8430 199.6007
" />
<path d="M285.8430 199.6007
L285.9668 199.5388
" />
<path d="M285.9668 199.5388
L286.0287 199.4768
" />
<path d="M286.0287 199.4768
L286.0906 199.3530
" />
<path d="M286.0906 199.3530
L286.0906 199.0435
" />
<path d="M286.0906 199.0435
L286.0287 198.9197
" />
<path d="M286.0287 198.9197
L285.9668 198.8578
" />
<path d="M285.9668 198.8578
L285.8430 198.7959
" />
<path d="M285.8430 198.7959
L285.5954 198.7959
" />
<path d="M285.5954 198.7959
L285.4716 198.8578
" />
<path d="M285.4716 198.8578
L285.4097 198.9197
" />
<path d="M285.4097 198.9197
L285.3478 199.0435
" />
</g><path d="M10.0000 60.0000
L12.0000 60.0000
" />
<path d="M10.0000 110.0000
L12.0000 110.0000
" />
<path d="M10.0000 160.0000
L12.0000 160.0000
" />
<text x="11.0000" y="35.6500"
textLength="1.3115" font-size="1.7333" lengthAdjust="spacingAndGlyphs"
text-anchor="middle" opacity="0">A</text>
<g class="stroked-text"><desc>A</desc>
<path d="M10.6905 35.2220
L11.3095 35.2220
" />
<path d="M10.5667 35.5935
L11.0000 34.2935
" />
<path d="M11.0000 34.2935
L11.4333 35.5935
" />
</g><text x="11.0000" y="85.6500"
textLength="1.4972" font-size="1.7333" lengthAdjust="spacingAndGlyphs"
text-anchor="middle" opacity="0">B</text>
<g class="stroked-text"><desc>B</desc>
<path d="M11.0928 84.9125
L11.2785 84.9744
" />
<path d="M11.2785 84.9744
L11.3404 85.0363
" />
<path d="M11.3404 85.0363
L11.4023 85.1601
" />
<path d="M11.4023 85.1601
L11.4023 85.3458
" />
<path d="M11.4023 85.3458
L11.3404 85.4696
" />
<path d="M11.3404 85.4696
L11.2785 85.5316
" />
<path d="M11.2785 85.5316
L11.1547 85.5935
" />
<path d="M11.1547 85.5935
L10.6595 85.5935
" />
<path d="M10.6595 85.5935
L10.6595 84.2935
" />
<path d="M10.6595 84.2935
L11.0928 84.2935
" />
<path d="M11.0928 84.2935
L11.2166 84.3554
" />
<path d="M11.2166 84.3554
L11.2785 84.4173
" />
<path d="M11.2785 84.4173
L11.3404 84.5411
" />
<path d="M11.3404 84.5411
L11.3404 84.6649
" />
<path d="M11.3404 84.6649
L11.2785 84.7887
" />
<path d="M11.2785 84.7887
L11.2166 84.8506
" />
<path d="M11.2166 84.8506
L11.0928 84.9125
" />
<path d="M11.0928 84.9125
L10.6595 84.9125
" />
</g><text x="11.0000" y="135.6500"
textLength="1.4972" font-size="1.7333" lengthAdjust="spacingAndGlyphs"
text-anchor="middle" opacity="0">C</text>
<g class="stroked-text"><desc>C</desc>
<path d="M11.4023 135.4696
L11.3404 135.5316
" />
<path d="M11.3404 135.5316
L11.1547 135.5935
" />
<path d="M11.1547 135.5935
L11.0309 135.5935
" />
<path d="M11.0309 135.5935
L10.8452 135.5316
" />
<path d="M10.8452 135.5316
L10.7214 135.4077
" />
<path d="M10.7214 135.4077
L10.6595 135.2839
" />
<path d="M10.6595 135.2839
L10.5976 135.0363
" />
<path d="M10.5976 135.0363
L10.5976 134.8506
" />
<path d="M10.5976 134.8506
L10.6595 134.6030
" />
<path d="M10.6595 134.6030
L10.7214 134.4792
" />
<path d="M10.7214 134.4792
L10.8452 134.3554
" />
<path d="M10.8452 134.3554
L11.0309 134.2935
" />
<path d="M11.0309 134.2935
L11.1547 134.2935
" />
<path d="M11.1547 134.2935
L11.3404 134.3554
" />
<path d="M11.3404 134.3554
L11.4023 134.4173
" />
</g><text x="11.0000" y="185.6500"
textLength="1.4972" font-size="1.7333" lengthAdjust="spacingAndGlyphs"
text-anchor="middle" opacity="0">D</text>
<g class="stroked-text"><desc>D</desc>
<path d="M10.6595 185.5935
L10.6595 184.2935
" />
<path d="M10.6595 184.2935
L10.9690 184.2935
" />
<path d="M10.9690 184.2935
L11.1547 184.3554
" />
<path d="M11.1547 184.3554
L11.2785 184.4792
" />
<path d="M11.2785 184.4792
L11.3404 184.6030
" />
<path d="M11.3404 184.6030
L11.4023 184.8506
" />
<path d="M11.4023 184.8506
L11.4023 185.0363
" />
<path d="M11.4023 185.0363
L11.3404 185.2839
" />
<path d="M11.3404 185.2839
L11.2785 185.4077
" />
<path d="M11.2785 185.4077
L11.1547 185.5316
" />
<path d="M11.1547 185.5316
L10.9690 185.5935
" />
<path d="M10.9690 185.5935
L10.6595 185.5935
" />
</g><path d="M287.0022 60.0000
L285.0022 60.0000
" />
<path d="M287.0022 110.0000
L285.0022 110.0000
" />
<path d="M287.0022 160.0000
L285.0022 160.0000
" />
<text x="286.0022" y="35.6500"
textLength="1.3115" font-size="1.7333" lengthAdjust="spacingAndGlyphs"
text-anchor="middle" opacity="0">A</text>
<g class="stroked-text"><desc>A</desc>
<path d="M285.6927 35.2220
L286.3117 35.2220
" />
<path d="M285.5689 35.5935
L286.0022 34.2935
" />
<path d="M286.0022 34.2935
L286.4355 35.5935
" />
</g><text x="286.0022" y="85.6500"
textLength="1.4972" font-size="1.7333" lengthAdjust="spacingAndGlyphs"
text-anchor="middle" opacity="0">B</text>
<g class="stroked-text"><desc>B</desc>
<path d="M286.0950 84.9125
L286.2807 84.9744
" />
<path d="M286.2807 84.9744
L286.3426 85.0363
" />
<path d="M286.3426 85.0363
L286.4045 85.1601
" />
<path d="M286.4045 85.1601
L286.4045 85.3458
" />
<path d="M286.4045 85.3458
L286.3426 85.4696
" />
<path d="M286.3426 85.4696
L286.2807 85.5316
" />
<path d="M286.2807 85.5316
L286.1569 85.5935
" />
<path d="M286.1569 85.5935
L285.6617 85.5935
" />
<path d="M285.6617 85.5935
L285.6617 84.2935
" />
<path d="M285.6617 84.2935
L286.0950 84.2935
" />
<path d="M286.0950 84.2935
L286.2188 84.3554
" />
<path d="M286.2188 84.3554
L286.2807 84.4173
" />
<path d="M286.2807 84.4173
L286.3426 84.5411
" />
<path d="M286.3426 84.5411
L286.3426 84.6649
" />
<path d="M286.3426 84.6649
L286.2807 84.7887
" />
<path d="M286.2807 84.7887
L286.2188 84.8506
" />
<path d="M286.2188 84.8506
L286.0950 84.9125
" />
<path d="M286.0950 84.9125
L285.6617 84.9125
" />
</g><text x="286.0022" y="135.6500"
textLength="1.4972" font-size="1.7333" lengthAdjust="spacingAndGlyphs"
text-anchor="middle" opacity="0">C</text>
<g class="stroked-text"><desc>C</desc>
<path d="M286.4045 135.4696
L286.3426 135.5316
" />
<path d="M286.3426 135.5316
L286.1569 135.5935
" />
<path d="M286.1569 135.5935
L286.0331 135.5935
" />
<path d="M286.0331 135.5935
L285.8474 135.5316
" />
<path d="M285.8474 135.5316
L285.7236 135.4077
" />
<path d="M285.7236 135.4077
L285.6617 135.2839
" />
<path d="M285.6617 135.2839
L285.5998 135.0363
" />
<path d="M285.5998 135.0363
L285.5998 134.8506
" />
<path d="M285.5998 134.8506
L285.6617 134.6030
" />
<path d="M285.6617 134.6030
L285.7236 134.4792
" />
<path d="M285.7236 134.4792
L285.8474 134.3554
" />
<path d="M285.8474 134.3554
L286.0331 134.2935
" />
<path d="M286.0331 134.2935
L286.1569 134.2935
" />
<path d="M286.1569 134.2935
L286.3426 134.3554
" />
<path d="M286.3426 134.3554
L286.4045 134.4173
" />
</g><text x="286.0022" y="185.6500"
textLength="1.4972" font-size="1.7333" lengthAdjust="spacingAndGlyphs"
text-anchor="middle" opacity="0">D</text>
<g class="stroked-text"><desc>D</desc>
<path d="M285.6617 185.5935
L285.6617 184.2935
" />
<path d="M285.6617 184.2935
L285.9712 184.2935
" />
<path d="M285.9712 184.2935
L286.1569 184.3554
" />
<path d="M286.1569 184.3554
L286.2807 184.4792
" />
<path d="M286.2807 184.4792
L286.3426 184.6030
" />
<path d="M286.3426 184.6030
L286.4045 184.8506
" />
<path d="M286.4045 184.8506
L286.4045 185.0363
" />
<path d="M286.4045 185.0363
L286.3426 185.2839
" />
<path d="M286.3426 185.2839
L286.2807 185.4077
" />
<path d="M286.2807 185.4077
L286.1569 185.5316
" />
<path d="M286.1569 185.5316
L285.9712 185.5935
" />
<path d="M285.9712 185.5935
L285.6617 185.5935
" />
</g><text x="200.0022" y="193.8572"
textLength="7.0143" font-size="2.0000" lengthAdjust="spacingAndGlyphs"
text-anchor="start" opacity="0">Date: </text>
<g class="stroked-text"><desc>Date: </desc>
<path d="M200.4595 193.7931
L200.4595 192.2931
" />
<path d="M200.4595 192.2931
L200.8166 192.2931
" />
<path d="M200.8166 192.2931
L201.0309 192.3645
" />
<path d="M201.0309 192.3645
L201.1738 192.5074
" />
<path d="M201.1738 192.5074
L201.2452 192.6502
" />
<path d="M201.2452 192.6502
L201.3166 192.9359
" />
<path d="M201.3166 192.9359
L201.3166 193.1502
" />
<path d="M201.3166 193.1502
L201.2452 193.4359
" />
<path d="M201.2452 193.4359
L201.1738 193.5788
" />
<path d="M201.1738 193.5788
L201.0309 193.7217
" />
<path d="M201.0309 193.7217
L200.8166 193.7931
" />
<path d="M200.8166 193.7931
L200.4595 193.7931
" />
<path d="M202.6024 193.7931
L202.6024 193.0074
" />
<path d="M202.6024 193.0074
L202.5309 192.8645
" />
<path d="M202.5309 192.8645
L202.3881 192.7931
" />
<path d="M202.3881 192.7931
L202.1024 192.7931
" />
<path d="M202.1024 192.7931
L201.9595 192.8645
" />
<path d="M202.6024 193.7217
L202.4595 193.7931
" />
<path d="M202.4595 193.7931
L202.1024 193.7931
" />
<path d="M202.1024 193.7931
L201.9595 193.7217
" />
<path d="M201.9595 193.7217
L201.8881 193.5788
" />
<path d="M201.8881 193.5788
L201.8881 193.4359
" />
<path d="M201.8881 193.4359
L201.9595 193.2931
" />
<path d="M201.9595 193.2931
L202.1024 193.2217
" />
<path d="M202.1024 193.2217
L202.4595 193.2217
" />
<path d="M202.4595 193.2217
L202.6024 193.1502
" />
<path d="M203.1023 192.7931
L203.6737 192.7931
" />
<path d="M203.3166 192.2931
L203.3166 193.5788
" />
<path d="M203.3166 193.5788
L203.3880 193.7217
" />
<path d="M203.3880 193.7217
L203.5309 193.7931
" />
<path d="M203.5309 193.7931
L203.6737 193.7931
" />
<path d="M204.7451 193.7217
L204.6023 193.7931
" />
<path d="M204.6023 193.7931
L204.3166 193.7931
" />
<path d="M204.3166 193.7931
L204.1737 193.7217
" />
<path d="M204.1737 193.7217
L204.1023 193.5788
" />
<path d="M204.1023 193.5788
L204.1023 193.0074
" />
<path d="M204.1023 193.0074
L204.1737 192.8645
" />
<path d="M204.1737 192.8645
L204.3166 192.7931
" />
<path d="M204.3166 192.7931
L204.6023 192.7931
" />
<path d="M204.6023 192.7931
L204.7451 192.8645
" />
<path d="M204.7451 192.8645
L204.8166 193.0074
" />
<path d="M204.8166 193.0074
L204.8166 193.1502
" />
<path d="M204.8166 193.1502
L204.1023 193.2931
" />
<path d="M205.4594 193.6502
L205.5308 193.7217
" />
<path d="M205.5308 193.7217
L205.4594 193.7931
" />
<path d="M205.4594 193.7931
L205.3880 193.7217
" />
<path d="M205.3880 193.7217
L205.4594 193.6502
" />
<path d="M205.4594 193.6502
L205.4594 193.7931
" />
<path d="M205.4594 192.8645
L205.5308 192.9359
" />
<path d="M205.5308 192.9359
L205.4594 193.0074
" />
<path d="M205.4594 193.0074
L205.3880 192.9359
" />
<path d="M205.3880 192.9359
L205.4594 192.8645
" />
<path d="M205.4594 192.8645
L205.4594 193.0074
" />
</g><path d="M177.0022 194.5072
L285.0022 194.5072
" />
<text x="178.0022" y="196.6572"
textLength="20.8716" font-size="2.0000" lengthAdjust="spacingAndGlyphs"
text-anchor="start" opacity="0">KiCad E.D.A. 8.0.1</text>
<g class="stroked-text"><desc>KiCad E.D.A. 8.0.1</desc>
<path d="M178.4595 196.5931
L178.4595 195.0931
" />
<path d="M179.3166 196.5931
L178.6738 195.7359
" />
<path d="M179.3166 195.0931
L178.4595 195.9502
" />
<path d="M179.9595 196.5931
L179.9595 195.5931
" />
<path d="M179.9595 195.0931
L179.8881 195.1645
" />
<path d="M179.8881 195.1645
L179.9595 195.2359
" />
<path d="M179.9595 195.2359
L180.0309 195.1645
" />
<path d="M180.0309 195.1645
L179.9595 195.0931
" />
<path d="M179.9595 195.0931
L179.9595 195.2359
" />
<path d="M181.5309 196.4502
L181.4595 196.5217
" />
<path d="M181.4595 196.5217
L181.2452 196.5931
" />
<path d="M181.2452 196.5931
L181.1024 196.5931
" />
<path d="M181.1024 196.5931
L180.8881 196.5217
" />
<path d="M180.8881 196.5217
L180.7452 196.3788
" />
<path d="M180.7452 196.3788
L180.6738 196.2359
" />
<path d="M180.6738 196.2359
L180.6024 195.9502
" />
<path d="M180.6024 195.9502
L180.6024 195.7359
" />
<path d="M180.6024 195.7359
L180.6738 195.4502
" />
<path d="M180.6738 195.4502
L180.7452 195.3074
" />
<path d="M180.7452 195.3074
L180.8881 195.1645
" />
<path d="M180.8881 195.1645
L181.1024 195.0931
" />
<path d="M181.1024 195.0931
L181.2452 195.0931
" />
<path d="M181.2452 195.0931
L181.4595 195.1645
" />
<path d="M181.4595 195.1645
L181.5309 195.2359
" />
<path d="M182.8167 196.5931
L182.8167 195.8074
" />
<path d="M182.8167 195.8074
L182.7452 195.6645
" />
<path d="M182.7452 195.6645
L182.6024 195.5931
" />
<path d="M182.6024 195.5931
L182.3167 195.5931
" />
<path d="M182.3167 195.5931
L182.1738 195.6645
" />
<path d="M182.8167 196.5217
L182.6738 196.5931
" />
<path d="M182.6738 196.5931
L182.3167 196.5931
" />
<path d="M182.3167 196.5931
L182.1738 196.5217
" />
<path d="M182.1738 196.5217
L182.1024 196.3788
" />
<path d="M182.1024 196.3788
L182.1024 196.2359
" />
<path d="M182.1024 196.2359
L182.1738 196.0931
" />
<path d="M182.1738 196.0931
L182.3167 196.0217
" />
<path d="M182.3167 196.0217
L182.6738 196.0217
" />
<path d="M182.6738 196.0217
L182.8167 195.9502
" />
<path d="M184.1738 196.5931
L184.1738 195.0931
" />
<path d="M184.1738 196.5217
L184.0309 196.5931
" />
<path d="M184.0309 196.5931
L183.7452 196.5931
" />
<path d="M183.7452 196.5931
L183.6023 196.5217
" />
<path d="M183.6023 196.5217
L183.5309 196.4502
" />
<path d="M183.5309 196.4502
L183.4595 196.3074
" />
<path d="M183.4595 196.3074
L183.4595 195.8788
" />
<path d="M183.4595 195.8788
L183.5309 195.7359
" />
<path d="M183.5309 195.7359
L183.6023 195.6645
" />
<path d="M183.6023 195.6645
L183.7452 195.5931
" />
<path d="M183.7452 195.5931
L184.0309 195.5931
" />
<path d="M184.0309 195.5931
L184.1738 195.6645
" />
<path d="M186.0309 195.8074
L186.5309 195.8074
" />
<path d="M186.7452 196.5931
L186.0309 196.5931
" />
<path d="M186.0309 196.5931
L186.0309 195.0931
" />
<path d="M186.0309 195.0931
L186.7452 195.0931
" />
<path d="M187.3880 196.4502
L187.4594 196.5217
" />
<path d="M187.4594 196.5217
L187.3880 196.5931
" />
<path d="M187.3880 196.5931
L187.3166 196.5217
" />
<path d="M187.3166 196.5217
L187.3880 196.4502
" />
<path d="M187.3880 196.4502
L187.3880 196.5931
" />
<path d="M188.1023 196.5931
L188.1023 195.0931
" />
<path d="M188.1023 195.0931
L188.4594 195.0931
" />
<path d="M188.4594 195.0931
L188.6737 195.1645
" />
<path d="M188.6737 195.1645
L188.8166 195.3074
" />
<path d="M188.8166 195.3074
L188.8880 195.4502
" />
<path d="M188.8880 195.4502
L188.9594 195.7359
" />
<path d="M188.9594 195.7359
L188.9594 195.9502
" />
<path d="M188.9594 195.9502
L188.8880 196.2359
" />
<path d="M188.8880 196.2359
L188.8166 196.3788
" />
<path d="M188.8166 196.3788
L188.6737 196.5217
" />
<path d="M188.6737 196.5217
L188.4594 196.5931
" />
<path d="M188.4594 196.5931
L188.1023 196.5931
" />
<path d="M189.6023 196.4502
L189.6737 196.5217
" />
<path d="M189.6737 196.5217
L189.6023 196.5931
" />
<path d="M189.6023 196.5931
L189.5309 196.5217
" />
<path d="M189.5309 196.5217
L189.6023 196.4502
" />
<path d="M189.6023 196.4502
L189.6023 196.5931
" />
<path d="M190.2452 196.1645
L190.9595 196.1645
" />
<path d="M190.1023 196.5931
L190.6023 195.0931
" />
<path d="M190.6023 195.0931
L191.1023 196.5931
" />
<path d="M191.6023 196.4502
L191.6737 196.5217
" />
<path d="M191.6737 196.5217
L191.6023 196.5931
" />
<path d="M191.6023 196.5931
L191.5309 196.5217
" />
<path d="M191.5309 196.5217
L191.6023 196.4502
" />
<path d="M191.6023 196.4502
L191.6023 196.5931
" />
<path d="M193.6738 195.7359
L193.5309 195.6645
" />
<path d="M193.5309 195.6645
L193.4595 195.5931
" />
<path d="M193.4595 195.5931
L193.3881 195.4502
" />
<path d="M193.3881 195.4502
L193.3881 195.3788
" />
<path d="M193.3881 195.3788
L193.4595 195.2359
" />
<path d="M193.4595 195.2359
L193.5309 195.1645
" />
<path d="M193.5309 195.1645
L193.6738 195.0931
" />
<path d="M193.6738 195.0931
L193.9595 195.0931
" />
<path d="M193.9595 195.0931
L194.1024 195.1645
" />
<path d="M194.1024 195.1645
L194.1738 195.2359
" />
<path d="M194.1738 195.2359
L194.2452 195.3788
" />
<path d="M194.2452 195.3788
L194.2452 195.4502
" />
<path d="M194.2452 195.4502
L194.1738 195.5931
" />
<path d="M194.1738 195.5931
L194.1024 195.6645
" />
<path d="M194.1024 195.6645
L193.9595 195.7359
" />
<path d="M193.9595 195.7359
L193.6738 195.7359
" />
<path d="M193.6738 195.7359
L193.5309 195.8074
" />
<path d="M193.5309 195.8074
L193.4595 195.8788
" />
<path d="M193.4595 195.8788
L193.3881 196.0217
" />
<path d="M193.3881 196.0217
L193.3881 196.3074
" />
<path d="M193.3881 196.3074
L193.4595 196.4502
" />
<path d="M193.4595 196.4502
L193.5309 196.5217
" />
<path d="M193.5309 196.5217
L193.6738 196.5931
" />
<path d="M193.6738 196.5931
L193.9595 196.5931
" />
<path d="M193.9595 196.5931
L194.1024 196.5217
" />
<path d="M194.1024 196.5217
L194.1738 196.4502
" />
<path d="M194.1738 196.4502
L194.2452 196.3074
" />
<path d="M194.2452 196.3074
L194.2452 196.0217
" />
<path d="M194.2452 196.0217
L194.1738 195.8788
" />
<path d="M194.1738 195.8788
L194.1024 195.8074
" />
<path d="M194.1024 195.8074
L193.9595 195.7359
" />
<path d="M194.8881 196.4502
L194.9595 196.5217
" />
<path d="M194.9595 196.5217
L194.8881 196.5931
" />
<path d="M194.8881 196.5931
L194.8167 196.5217
" />
<path d="M194.8167 196.5217
L194.8881 196.4502
" />
<path d="M194.8881 196.4502
L194.8881 196.5931
" />
<path d="M195.8881 195.0931
L196.0310 195.0931
" />
<path d="M196.0310 195.0931
L196.1738 195.1645
" />
<path d="M196.1738 195.1645
L196.2453 195.2359
" />
<path d="M196.2453 195.2359
L196.3167 195.3788
" />
<path d="M196.3167 195.3788
L196.3881 195.6645
" />
<path d="M196.3881 195.6645
L196.3881 196.0217
" />
<path d="M196.3881 196.0217
L196.3167 196.3074
" />
<path d="M196.3167 196.3074
L196.2453 196.4502
" />
<path d="M196.2453 196.4502
L196.1738 196.5217
" />
<path d="M196.1738 196.5217
L196.0310 196.5931
" />
<path d="M196.0310 196.5931
L195.8881 196.5931
" />
<path d="M195.8881 196.5931
L195.7453 196.5217
" />
<path d="M195.7453 196.5217
L195.6738 196.4502
" />
<path d="M195.6738 196.4502
L195.6024 196.3074
" />
<path d="M195.6024 196.3074
L195.5310 196.0217
" />
<path d="M195.5310 196.0217
L195.5310 195.6645
" />
<path d="M195.5310 195.6645
L195.6024 195.3788
" />
<path d="M195.6024 195.3788
L195.6738 195.2359
" />
<path d="M195.6738 195.2359
L195.7453 195.1645
" />
<path d="M195.7453 195.1645
L195.8881 195.0931
" />
<path d="M197.0310 196.4502
L197.1024 196.5217
" />
<path d="M197.1024 196.5217
L197.0310 196.5931
" />
<path d="M197.0310 196.5931
L196.9596 196.5217
" />
<path d="M196.9596 196.5217
L197.0310 196.4502
" />
<path d="M197.0310 196.4502
L197.0310 196.5931
" />
<path d="M198.5310 196.5931
L197.6739 196.5931
" />
<path d="M198.1024 196.5931
L198.1024 195.0931
" />
<path d="M198.1024 195.0931
L197.9596 195.3074
" />
<path d="M197.9596 195.3074
L197.8167 195.4502
" />
<path d="M197.8167 195.4502
L197.6739 195.5217
" />
</g><path d="M177.0022 191.5072
L285.0022 191.5072
" />
</g>
<g style="fill:none; 
stroke:#840000; stroke-width:0.3000; stroke-opacity:1; 
stroke-linecap:round; stroke-linejoin:round;">
<text x="263.0022" y="193.8572"
textLength="6.3858" font-size="2.0000" lengthAdjust="spacingAndGlyphs"
text-anchor="start" opacity="0">Rev: </text>
<g class="stroked-text"><desc>Rev: </desc>
<path d="M264.4137 193.7855
L263.9137 193.0712
" />
<path d="M263.5566 193.7855
L263.5566 192.2855
" />
<path d="M263.5566 192.2855
L264.1280 192.2855
" />
<path d="M264.1280 192.2855
L264.2709 192.3569
" />
<path d="M264.2709 192.3569
L264.3423 192.4283
" />
<path d="M264.3423 192.4283
L264.4137 192.5712
" />
<path d="M264.4137 192.5712
L264.4137 192.7855
" />
<path d="M264.4137 192.7855
L264.3423 192.9283
" />
<path d="M264.3423 192.9283
L264.2709 192.9998
" />
<path d="M264.2709 192.9998
L264.1280 193.0712
" />
<path d="M264.1280 193.0712
L263.5566 193.0712
" />
<path d="M265.6280 193.7141
L265.4852 193.7855
" />
<path d="M265.4852 193.7855
L265.1995 193.7855
" />
<path d="M265.1995 193.7855
L265.0566 193.7141
" />
<path d="M265.0566 193.7141
L264.9852 193.5712
" />
<path d="M264.9852 193.5712
L264.9852 192.9998
" />
<path d="M264.9852 192.9998
L265.0566 192.8569
" />
<path d="M265.0566 192.8569
L265.1995 192.7855
" />
<path d="M265.1995 192.7855
L265.4852 192.7855
" />
<path d="M265.4852 192.7855
L265.6280 192.8569
" />
<path d="M265.6280 192.8569
L265.6995 192.9998
" />
<path d="M265.6995 192.9998
L265.6995 193.1426
" />
<path d="M265.6995 193.1426
L264.9852 193.2855
" />
<path d="M266.1994 192.7855
L266.5566 193.7855
" />
<path d="M266.5566 193.7855
L266.9137 192.7855
" />
<path d="M267.4852 193.6426
L267.5566 193.7141
" />
<path d="M267.5566 193.7141
L267.4852 193.7855
" />
<path d="M267.4852 193.7855
L267.4138 193.7141
" />
<path d="M267.4138 193.7141
L267.4852 193.6426
" />
<path d="M267.4852 193.6426
L267.4852 193.7855
" />
<path d="M267.4852 192.8569
L267.5566 192.9283
" />
<path d="M267.5566 192.9283
L267.4852 192.9998
" />
<path d="M267.4852 192.9998
L267.4138 192.9283
" />
<path d="M267.4138 192.9283
L267.4852 192.8569
" />
<path d="M267.4852 192.8569
L267.4852 192.9998
" />
</g></g>
<g style="fill:none; 
stroke:#840000; stroke-width:0.1524; stroke-opacity:1; 
stroke-linecap:round; stroke-linejoin:round;">
<text x="178.0022" y="193.8572"
textLength="9.3716" font-size="2.0000" lengthAdjust="spacingAndGlyphs"
text-anchor="start" opacity="0">Size: A4</text>
<g class="stroked-text"><desc>Size: A4</desc>
<path d="M178.3881 193.7217
L178.6024 193.7931
" />
<path d="M178.6024 193.7931
L178.9595 193.7931
" />
<path d="M178.9595 193.7931
L179.1024 193.7217
" />
<path d="M179.1024 193.7217
L179.1738 193.6502
" />
<path d="M179.1738 193.6502
L179.2452 193.5074
" />
<path d="M179.2452 193.5074
L179.2452 193.3645
" />
<path d="M179.2452 193.3645
L179.1738 193.2217
" />
<path d="M179.1738 193.2217
L179.1024 193.1502
" />
<path d="M179.1024 193.1502
L178.9595 193.0788
" />
<path d="M178.9595 193.0788
L178.6738 193.0074
" />
<path d="M178.6738 193.0074
L178.5309 192.9359
" />
<path d="M178.5309 192.9359
L178.4595 192.8645
" />
<path d="M178.4595 192.8645
L178.3881 192.7217
" />
<path d="M178.3881 192.7217
L178.3881 192.5788
" />
<path d="M178.3881 192.5788
L178.4595 192.4359
" />
<path d="M178.4595 192.4359
L178.5309 192.3645
" />
<path d="M178.5309 192.3645
L178.6738 192.2931
" />
<path d="M178.6738 192.2931
L179.0309 192.2931
" />
<path d="M179.0309 192.2931
L179.2452 192.3645
" />
<path d="M179.8881 193.7931
L179.8881 192.7931
" />
<path d="M179.8881 192.2931
L179.8167 192.3645
" />
<path d="M179.8167 192.3645
L179.8881 192.4359
" />
<path d="M179.8881 192.4359
L179.9595 192.3645
" />
<path d="M179.9595 192.3645
L179.8881 192.2931
" />
<path d="M179.8881 192.2931
L179.8881 192.4359
" />
<path d="M180.4595 192.7931
L181.2453 192.7931
" />
<path d="M181.2453 192.7931
L180.4595 193.7931
" />
<path d="M180.4595 193.7931
L181.2453 193.7931
" />
<path d="M182.3881 193.7217
L182.2453 193.7931
" />
<path d="M182.2453 193.7931
L181.9596 193.7931
" />
<path d="M181.9596 193.7931
L181.8167 193.7217
" />
<path d="M181.8167 193.7217
L181.7453 193.5788
" />
<path d="M181.7453 193.5788
L181.7453 193.0074
" />
<path d="M181.7453 193.0074
L181.8167 192.8645
" />
<path d="M181.8167 192.8645
L181.9596 192.7931
" />
<path d="M181.9596 192.7931
L182.2453 192.7931
" />
<path d="M182.2453 192.7931
L182.3881 192.8645
" />
<path d="M182.3881 192.8645
L182.4596 193.0074
" />
<path d="M182.4596 193.0074
L182.4596 193.1502
" />
<path d="M182.4596 193.1502
L181.7453 193.2931
" />
<path d="M183.1024 193.6502
L183.1738 193.7217
" />
<path d="M183.1738 193.7217
L183.1024 193.7931
" />
<path d="M183.1024 193.7931
L183.0310 193.7217
" />
<path d="M183.0310 193.7217
L183.1024 193.6502
" />
<path d="M183.1024 193.6502
L183.1024 193.7931
" />
<path d="M183.1024 192.8645
L183.1738 192.9359
" />
<path d="M183.1738 192.9359
L183.1024 193.0074
" />
<path d="M183.1024 193.0074
L183.0310 192.9359
" />
<path d="M183.0310 192.9359
L183.1024 192.8645
" />
<path d="M183.1024 192.8645
L183.1024 193.0074
" />
<path d="M184.8882 193.3645
L185.6025 193.3645
" />
<path d="M184.7453 193.7931
L185.2453 192.2931
" />
<path d="M185.2453 192.2931
L185.7453 193.7931
" />
<path d="M186.8882 192.7931
L186.8882 193.7931
" />
<path d="M186.5310 192.2217
L186.1739 193.2931
" />
<path d="M186.1739 193.2931
L187.1024 193.2931
" />
</g><text x="263.0022" y="196.6572"
textLength="8.5144" font-size="2.0000" lengthAdjust="spacingAndGlyphs"
text-anchor="start" opacity="0">Id: 2/4</text>
<g class="stroked-text"><desc>Id: 2/4</desc>
<path d="M263.4595 196.5931
L263.4595 195.0931
" />
<path d="M264.8167 196.5931
L264.8167 195.0931
" />
<path d="M264.8167 196.5217
L264.6738 196.5931
" />
<path d="M264.6738 196.5931
L264.3881 196.5931
" />
<path d="M264.3881 196.5931
L264.2452 196.5217
" />
<path d="M264.2452 196.5217
L264.1738 196.4502
" />
<path d="M264.1738 196.4502
L264.1024 196.3074
" />
<path d="M264.1024 196.3074
L264.1024 195.8788
" />
<path d="M264.1024 195.8788
L264.1738 195.7359
" />
<path d="M264.1738 195.7359
L264.2452 195.6645
" />
<path d="M264.2452 195.6645
L264.3881 195.5931
" />
<path d="M264.3881 195.5931
L264.6738 195.5931
" />
<path d="M264.6738 195.5931
L264.8167 195.6645
" />
<path d="M265.5309 196.4502
L265.6023 196.5217
" />
<path d="M265.6023 196.5217
L265.5309 196.5931
" />
<path d="M265.5309 196.5931
L265.4595 196.5217
" />
<path d="M265.4595 196.5217
L265.5309 196.4502
" />
<path d="M265.5309 196.4502
L265.5309 196.5931
" />
<path d="M265.5309 195.6645
L265.6023 195.7359
" />
<path d="M265.6023 195.7359
L265.5309 195.8074
" />
<path d="M265.5309 195.8074
L265.4595 195.7359
" />
<path d="M265.4595 195.7359
L265.5309 195.6645
" />
<path d="M265.5309 195.6645
L265.5309 195.8074
" />
<path d="M267.3167 195.2359
L267.3881 195.1645
" />
<path d="M267.3881 195.1645
L267.5310 195.0931
" />
<path d="M267.5310 195.0931
L267.8881 195.0931
" />
<path d="M267.8881 195.0931
L268.0310 195.1645
" />
<path d="M268.0310 195.1645
L268.1024 195.2359
" />
<path d="M268.1024 195.2359
L268.1738 195.3788
" />
<path d="M268.1738 195.3788
L268.1738 195.5217
" />
<path d="M268.1738 195.5217
L268.1024 195.7359
" />
<path d="M268.1024 195.7359
L267.2452 196.5931
" />
<path d="M267.2452 196.5931
L268.1738 196.5931
" />
<path d="M269.8881 195.0217
L268.6024 196.9502
" />
<path d="M271.0310 195.5931
L271.0310 196.5931
" />
<path d="M270.6738 195.0217
L270.3167 196.0931
" />
<path d="M270.3167 196.0931
L271.2452 196.0931
" />
</g><path d="M177.0022 187.5072
L285.0022 187.5072
" />
</g>
<g style="fill:none; 
stroke:#840000; stroke-width:0.4000; stroke-opacity:1; 
stroke-linecap:round; stroke-linejoin:round;">
<text x="178.0022" y="190.3072"
textLength="9.6572" font-size="2.6666" lengthAdjust="spacingAndGlyphs"
text-anchor="start" opacity="0">Title: </text>
<g class="stroked-text"><desc>Title: </desc>
<path d="M178.6938 188.2116
L179.8367 188.2116
" />
<path d="M179.0153 190.2116
L179.2653 188.2116
" />
<path d="M180.2533 190.2116
L180.4200 188.8783
" />
<path d="M180.5033 188.2116
L180.3962 188.3068
" />
<path d="M180.3962 188.3068
L180.4795 188.4021
" />
<path d="M180.4795 188.4021
L180.5867 188.3068
" />
<path d="M180.5867 188.3068
L180.5033 188.2116
" />
<path d="M180.5033 188.2116
L180.4795 188.4021
" />
<path d="M181.0867 188.8783
L181.8486 188.8783
" />
<path d="M181.4557 188.2116
L181.2415 189.9259
" />
<path d="M181.2415 189.9259
L181.3129 190.1164
" />
<path d="M181.3129 190.1164
L181.4915 190.2116
" />
<path d="M181.4915 190.2116
L181.6819 190.2116
" />
<path d="M182.6344 190.2116
L182.4558 190.1164
" />
<path d="M182.4558 190.1164
L182.3844 189.9259
" />
<path d="M182.3844 189.9259
L182.5986 188.2116
" />
<path d="M184.1700 190.1164
L183.9677 190.2116
" />
<path d="M183.9677 190.2116
L183.5867 190.2116
" />
<path d="M183.5867 190.2116
L183.4081 190.1164
" />
<path d="M183.4081 190.1164
L183.3367 189.9259
" />
<path d="M183.3367 189.9259
L183.4320 189.1640
" />
<path d="M183.4320 189.1640
L183.5510 188.9735
" />
<path d="M183.5510 188.9735
L183.7534 188.8783
" />
<path d="M183.7534 188.8783
L184.1343 188.8783
" />
<path d="M184.1343 188.8783
L184.3129 188.9735
" />
<path d="M184.3129 188.9735
L184.3843 189.1640
" />
<path d="M184.3843 189.1640
L184.3605 189.3544
" />
<path d="M184.3605 189.3544
L183.3843 189.5449
" />
<path d="M185.1343 190.0211
L185.2177 190.1164
" />
<path d="M185.2177 190.1164
L185.1105 190.2116
" />
<path d="M185.1105 190.2116
L185.0272 190.1164
" />
<path d="M185.0272 190.1164
L185.1343 190.0211
" />
<path d="M185.1343 190.0211
L185.1105 190.2116
" />
<path d="M185.2653 188.9735
L185.3486 189.0687
" />
<path d="M185.3486 189.0687
L185.2415 189.1640
" />
<path d="M185.2415 189.1640
L185.1582 189.0687
" />
<path d="M185.1582 189.0687
L185.2653 188.9735
" />
<path d="M185.2653 188.9735
L185.2415 189.1640
" />
</g></g>
<g style="fill:none; 
stroke:#840000; stroke-width:0.1524; stroke-opacity:1; 
stroke-linecap:round; stroke-linejoin:round;">
<text x="178.0022" y="186.4572"
textLength="24.2285" font-size="2.0000" lengthAdjust="spacingAndGlyphs"
text-anchor="start" opacity="0">File: power.kicad_sch</text>
<g class="stroked-text"><desc>File: power.kicad_sch</desc>
<path d="M178.9595 185.6074
L178.4595 185.6074
" />
<path d="M178.4595 186.3931
L178.4595 184.8931
" />
<path d="M178.4595 184.8931
L179.1738 184.8931
" />
<path d="M179.7452 186.3931
L179.7452 185.3931
" />
<path d="M179.7452 184.8931
L179.6738 184.9645
" />
<path d="M179.6738 184.9645
L179.7452 185.0359
" />
<path d="M179.7452 185.0359
L179.8166 184.9645
" />
<path d="M179.8166 184.9645
L179.7452 184.8931
" />
<path d="M179.7452 184.8931
L179.7452 185.0359
" />
<path d="M180.6738 186.3931
L180.5309 186.3217
" />
<path d="M180.5309 186.3217
L180.4595 186.1788
" />
<path d="M180.4595 186.1788
L180.4595 184.8931
" />
<path d="M181.8166 186.3217
L181.6738 186.3931
" />
<path d="M181.6738 186.3931
L181.3881 186.3931
" />
<path d="M181.3881 186.3931
L181.2452 186.3217
" />
<path d="M181.2452 186.3217
L181.1738 186.1788
" />
<path d="M181.1738 186.1788
L181.1738 185.6074
" />
<path d="M181.1738 185.6074
L181.2452 185.4645
" />
<path d="M181.2452 185.4645
L181.3881 185.3931
" />
<path d="M181.3881 185.3931
L181.6738 185.3931
" />
<path d="M181.6738 185.3931
L181.8166 185.4645
" />
<path d="M181.8166 185.4645
L181.8881 185.6074
" />
<path d="M181.8881 185.6074
L181.8881 185.7502
" />
<path d="M181.8881 185.7502
L181.1738 185.8931
" />
<path d="M182.5309 186.2502
L182.6023 186.3217
" />
<path d="M182.6023 186.3217
L182.5309 186.3931
" />
<path d="M182.5309 186.3931
L182.4595 186.3217
" />
<path d="M182.4595 186.3217
L182.5309 186.2502
" />
<path d="M182.5309 186.2502
L182.5309 186.3931
" />
<path d="M182.5309 185.4645
L182.6023 185.5359
" />
<path d="M182.6023 185.5359
L182.5309 185.6074
" />
<path d="M182.5309 185.6074
L182.4595 185.5359
" />
<path d="M182.4595 185.5359
L182.5309 185.4645
" />
<path d="M182.5309 185.4645
L182.5309 185.6074
" />
<path d="M184.3881 185.3931
L184.3881 186.8931
" />
<path d="M184.3881 185.4645
L184.5310 185.3931
" />
<path d="M184.5310 185.3931
L184.8167 185.3931
" />
<path d="M184.8167 185.3931
L184.9595 185.4645
" />
<path d="M184.9595 185.4645
L185.0310 185.5359
" />
<path d="M185.0310 185.5359
L185.1024 185.6788
" />
<path d="M185.1024 185.6788
L185.1024 186.1074
" />
<path d="M185.1024 186.1074
L185.0310 186.2502
" />
<path d="M185.0310 186.2502
L184.9595 186.3217
" />
<path d="M184.9595 186.3217
L184.8167 186.3931
" />
<path d="M184.8167 186.3931
L184.5310 186.3931
" />
<path d="M184.5310 186.3931
L184.3881 186.3217
" />
<path d="M185.9595 186.3931
L185.8166 186.3217
" />
<path d="M185.8166 186.3217
L185.7452 186.2502
" />
<path d="M185.7452 186.2502
L185.6738 186.1074
" />
<path d="M185.6738 186.1074
L185.6738 185.6788
" />
<path d="M185.6738 185.6788
L185.7452 185.5359
" />
<path d="M185.7452 185.5359
L185.8166 185.4645
" />
<path d="M185.8166 185.4645
L185.9595 185.3931
" />
<path d="M185.9595 185.3931
L186.1738 185.3931
" />
<path d="M186.1738 185.3931
L186.3166 185.4645
" />
<path d="M186.3166 185.4645
L186.3881 185.5359
" />
<path d="M186.3881 185.5359
L186.4595 185.6788
" />
<path d="M186.4595 185.6788
L186.4595 186.1074
" />
<path d="M186.4595 186.1074
L186.3881 186.2502
" />
<path d="M186.3881 186.2502
L186.3166 186.3217
" />
<path d="M186.3166 186.3217
L186.1738 186.3931
" />
<path d="M186.1738 186.3931
L185.9595 186.3931
" />
<path d="M186.9594 185.3931
L187.2452 186.3931
" />
<path d="M187.2452 186.3931
L187.5309 185.6788
" />
<path d="M187.5309 185.6788
L187.8166 186.3931
" />
<path d="M187.8166 186.3931
L188.1023 185.3931
" />
<path d="M189.2451 186.3217
L189.1023 186.3931
" />
<path d="M189.1023 186.3931
L188.8166 186.3931
" />
<path d="M188.8166 186.3931
L188.6737 186.3217
" />
<path d="M188.6737 186.3217
L188.6023 186.1788
" />
<path d="M188.6023 186.1788
L188.6023 185.6074
" />
<path d="M188.6023 185.6074
L188.6737 185.4645
" />
<path d="M188.6737 185.4645
L188.8166 185.3931
" />
<path d="M188.8166 185.3931
L189.1023 185.3931
" />
<path d="M189.1023 185.3931
L189.2451 185.4645
" />
<path d="M189.2451 185.4645
L189.3166 185.6074
" />
<path d="M189.3166 185.6074
L189.3166 185.7502
" />
<path d="M189.3166 185.7502
L188.6023 185.8931
" />
<path d="M189.9594 186.3931
L189.9594 185.3931
" />
<path d="M189.9594 185.6788
L190.0308 185.5359
" />
<path d="M190.0308 185.5359
L190.1023 185.4645
" />
<path d="M190.1023 185.4645
L190.2451 185.3931
" />
<path d="M190.2451 185.3931
L190.3880 185.3931
" />
<path d="M190.8880 186.2502
L190.9594 186.3217
" />
<path d="M190.9594 186.3217
L190.8880 186.3931
" />
<path d="M190.8880 186.3931
L190.8166 186.3217
" />
<path d="M190.8166 186.3217
L190.8880 186.2502
" />
<path d="M190.8880 186.2502
L190.8880 186.3931
" />
<path d="M191.6023 186.3931
L191.6023 184.8931
" />
<path d="M191.7452 185.8217
L192.1737 186.3931
" />
<path d="M192.1737 185.3931
L191.6023 185.9645
" />
<path d="M192.8166 186.3931
L192.8166 185.3931
" />
<path d="M192.8166 184.8931
L192.7452 184.9645
" />
<path d="M192.7452 184.9645
L192.8166 185.0359
" />
<path d="M192.8166 185.0359
L192.8880 184.9645
" />
<path d="M192.8880 184.9645
L192.8166 184.8931
" />
<path d="M192.8166 184.8931
L192.8166 185.0359
" />
<path d="M194.1738 186.3217
L194.0309 186.3931
" />
<path d="M194.0309 186.3931
L193.7452 186.3931
" />
<path d="M193.7452 186.3931
L193.6023 186.3217
" />
<path d="M193.6023 186.3217
L193.5309 186.2502
" />
<path d="M193.5309 186.2502
L193.4595 186.1074
" />
<path d="M193.4595 186.1074
L193.4595 185.6788
" />
<path d="M193.4595 185.6788
L193.5309 185.5359
" />
<path d="M193.5309 185.5359
L193.6023 185.4645
" />
<path d="M193.6023 185.4645
L193.7452 185.3931
" />
<path d="M193.7452 185.3931
L194.0309 185.3931
" />
<path d="M194.0309 185.3931
L194.1738 185.4645
" />
<path d="M195.4595 186.3931
L195.4595 185.6074
" />
<path d="M195.4595 185.6074
L195.3880 185.4645
" />
<path d="M195.3880 185.4645
L195.2452 185.3931
" />
<path d="M195.2452 185.3931
L194.9595 185.3931
" />
<path d="M194.9595 185.3931
L194.8166 185.4645
" />
<path d="M195.4595 186.3217
L195.3166 186.3931
" />
<path d="M195.3166 186.3931
L194.9595 186.3931
" />
<path d="M194.9595 186.3931
L194.8166 186.3217
" />
<path d="M194.8166 186.3217
L194.7452 186.1788
" />
<path d="M194.7452 186.1788
L194.7452 186.0359
" />
<path d="M194.7452 186.0359
L194.8166 185.8931
" />
<path d="M194.8166 185.8931
L194.9595 185.8217
" />
<path d="M194.9595 185.8217
L195.3166 185.8217
" />
<path d="M195.3166 185.8217
L195.4595 185.7502
" />
<path d="M196.8166 186.3931
L196.8166 184.8931
" />
<path d="M196.8166 186.3217
L196.6737 186.3931
" />
<path d="M196.6737 186.3931
L196.3880 186.3931
" />
<path d="M196.3880 186.3931
L196.2451 186.3217
" />
<path d="M196.2451 186.3217
L196.1737 186.2502
" />
<path d="M196.1737 186.2502
L196.1023 186.1074
" />
<path d="M196.1023 186.1074
L196.1023 185.6788
" />
<path d="M196.1023 185.6788
L196.1737 185.5359
" />
<path d="M196.1737 185.5359
L196.2451 185.4645
" />
<path d="M196.2451 185.4645
L196.3880 185.3931
" />
<path d="M196.3880 185.3931
L196.6737 185.3931
" />
<path d="M196.6737 185.3931
L196.8166 185.4645
" />
<path d="M197.1737 186.5359
L198.3165 186.5359
" />
<path d="M198.6023 186.3217
L198.7451 186.3931
" />
<path d="M198.7451 186.3931
L199.0308 186.3931
" />
<path d="M199.0308 186.3931
L199.1737 186.3217
" />
<path d="M199.1737 186.3217
L199.2451 186.1788
" />
<path d="M199.2451 186.1788
L199.2451 186.1074
" />
<path d="M199.2451 186.1074
L199.1737 185.9645
" />
<path d="M199.1737 185.9645
L199.0308 185.8931
" />
<path d="M199.0308 185.8931
L198.8166 185.8931
" />
<path d="M198.8166 185.8931
L198.6737 185.8217
" />
<path d="M198.6737 185.8217
L198.6023 185.6788
" />
<path d="M198.6023 185.6788
L198.6023 185.6074
" />
<path d="M198.6023 185.6074
L198.6737 185.4645
" />
<path d="M198.6737 185.4645
L198.8166 185.3931
" />
<path d="M198.8166 185.3931
L199.0308 185.3931
" />
<path d="M199.0308 185.3931
L199.1737 185.4645
" />
<path d="M200.5309 186.3217
L200.3880 186.3931
" />
<path d="M200.3880 186.3931
L200.1023 186.3931
" />
<path d="M200.1023 186.3931
L199.9594 186.3217
" />
<path d="M199.9594 186.3217
L199.8880 186.2502
" />
<path d="M199.8880 186.2502
L199.8166 186.1074
" />
<path d="M199.8166 186.1074
L199.8166 185.6788
" />
<path d="M199.8166 185.6788
L199.8880 185.5359
" />
<path d="M199.8880 185.5359
L199.9594 185.4645
" />
<path d="M199.9594 185.4645
L200.1023 185.3931
" />
<path d="M200.1023 185.3931
L200.3880 185.3931
" />
<path d="M200.3880 185.3931
L200.5309 185.4645
" />
<path d="M201.1737 186.3931
L201.1737 184.8931
" />
<path d="M201.8166 186.3931
L201.8166 185.6074
" />
<path d="M201.8166 185.6074
L201.7451 185.4645
" />
<path d="M201.7451 185.4645
L201.6023 185.3931
" />
<path d="M201.6023 185.3931
L201.3880 185.3931
" />
<path d="M201.3880 185.3931
L201.2451 185.4645
" />
<path d="M201.2451 185.4645
L201.1737 185.5359
" />
</g><path d="M177.0022 181.5072
L285.0022 181.5072
" />
<text x="178.0022" y="183.7572"
textLength="18.0142" font-size="2.0000" lengthAdjust="spacingAndGlyphs"
text-anchor="start" opacity="0">Sheet: /Power/</text>
<g class="stroked-text"><desc>Sheet: /Power/</desc>
<path d="M178.3881 183.6217
L178.6024 183.6931
" />
<path d="M178.6024 183.6931
L178.9595 183.6931
" />
<path d="M178.9595 183.6931
L179.1024 183.6217
" />
<path d="M179.1024 183.6217
L179.1738 183.5502
" />
<path d="M179.1738 183.5502
L179.2452 183.4074
" />
<path d="M179.2452 183.4074
L179.2452 183.2645
" />
<path d="M179.2452 183.2645
L179.1738 183.1217
" />
<path d="M179.1738 183.1217
L179.1024 183.0502
" />
<path d="M179.1024 183.0502
L178.9595 182.9788
" />
<path d="M178.9595 182.9788
L178.6738 182.9074
" />
<path d="M178.6738 182.9074
L178.5309 182.8359
" />
<path d="M178.5309 182.8359
L178.4595 182.7645
" />
<path d="M178.4595 182.7645
L178.3881 182.6217
" />
<path d="M178.3881 182.6217
L178.3881 182.4788
" />
<path d="M178.3881 182.4788
L178.4595 182.3359
" />
<path d="M178.4595 182.3359
L178.5309 182.2645
" />
<path d="M178.5309 182.2645
L178.6738 182.1931
" />
<path d="M178.6738 182.1931
L179.0309 182.1931
" />
<path d="M179.0309 182.1931
L179.2452 182.2645
" />
<path d="M179.8881 183.6931
L179.8881 182.1931
" />
<path d="M180.5310 183.6931
L180.5310 182.9074
" />
<path d="M180.5310 182.9074
L180.4595 182.7645
" />
<path d="M180.4595 182.7645
L180.3167 182.6931
" />
<path d="M180.3167 182.6931
L180.1024 182.6931
" />
<path d="M180.1024 182.6931
L179.9595 182.7645
" />
<path d="M179.9595 182.7645
L179.8881 182.8359
" />
<path d="M181.8166 183.6217
L181.6738 183.6931
" />
<path d="M181.6738 183.6931
L181.3881 183.6931
" />
<path d="M181.3881 183.6931
L181.2452 183.6217
" />
<path d="M181.2452 183.6217
L181.1738 183.4788
" />
<path d="M181.1738 183.4788
L181.1738 182.9074
" />
<path d="M181.1738 182.9074
L181.2452 182.7645
" />
<path d="M181.2452 182.7645
L181.3881 182.6931
" />
<path d="M181.3881 182.6931
L181.6738 182.6931
" />
<path d="M181.6738 182.6931
L181.8166 182.7645
" />
<path d="M181.8166 182.7645
L181.8881 182.9074
" />
<path d="M181.8881 182.9074
L181.8881 183.0502
" />
<path d="M181.8881 183.0502
L181.1738 183.1931
" />
<path d="M183.1023 183.6217
L182.9595 183.6931
" />
<path d="M182.9595 183.6931
L182.6738 183.6931
" />
<path d="M182.6738 183.6931
L182.5309 183.6217
" />
<path d="M182.5309 183.6217
L182.4595 183.4788
" />
<path d="M182.4595 183.4788
L182.4595 182.9074
" />
<path d="M182.4595 182.9074
L182.5309 182.7645
" />
<path d="M182.5309 182.7645
L182.6738 182.6931
" />
<path d="M182.6738 182.6931
L182.9595 182.6931
" />
<path d="M182.9595 182.6931
L183.1023 182.7645
" />
<path d="M183.1023 182.7645
L183.1738 182.9074
" />
<path d="M183.1738 182.9074
L183.1738 183.0502
" />
<path d="M183.1738 183.0502
L182.4595 183.1931
" />
<path d="M183.6023 182.6931
L184.1737 182.6931
" />
<path d="M183.8166 182.1931
L183.8166 183.4788
" />
<path d="M183.8166 183.4788
L183.8880 183.6217
" />
<path d="M183.8880 183.6217
L184.0309 183.6931
" />
<path d="M184.0309 183.6931
L184.1737 183.6931
" />
<path d="M184.6737 183.5502
L184.7451 183.6217
" />
<path d="M184.7451 183.6217
L184.6737 183.6931
" />
<path d="M184.6737 183.6931
L184.6023 183.6217
" />
<path d="M184.6023 183.6217
L184.6737 183.5502
" />
<path d="M184.6737 183.5502
L184.6737 183.6931
" />
<path d="M184.6737 182.7645
L184.7451 182.8359
" />
<path d="M184.7451 182.8359
L184.6737 182.9074
" />
<path d="M184.6737 182.9074
L184.6023 182.8359
" />
<path d="M184.6023 182.8359
L184.6737 182.7645
" />
<path d="M184.6737 182.7645
L184.6737 182.9074
" />
<path d="M187.6023 182.1217
L186.3166 184.0502
" />
<path d="M188.1023 183.6931
L188.1023 182.1931
" />
<path d="M188.1023 182.1931
L188.6737 182.1931
" />
<path d="M188.6737 182.1931
L188.8166 182.2645
" />
<path d="M188.8166 182.2645
L188.8880 182.3359
" />
<path d="M188.8880 182.3359
L188.9594 182.4788
" />
<path d="M188.9594 182.4788
L188.9594 182.6931
" />
<path d="M188.9594 182.6931
L188.8880 182.8359
" />
<path d="M188.8880 182.8359
L188.8166 182.9074
" />
<path d="M188.8166 182.9074
L188.6737 182.9788
" />
<path d="M188.6737 182.9788
L188.1023 182.9788
" />
<path d="M189.8166 183.6931
L189.6737 183.6217
" />
<path d="M189.6737 183.6217
L189.6023 183.5502
" />
<path d="M189.6023 183.5502
L189.5309 183.4074
" />
<path d="M189.5309 183.4074
L189.5309 182.9788
" />
<path d="M189.5309 182.9788
L189.6023 182.8359
" />
<path d="M189.6023 182.8359
L189.6737 182.7645
" />
<path d="M189.6737 182.7645
L189.8166 182.6931
" />
<path d="M189.8166 182.6931
L190.0309 182.6931
" />
<path d="M190.0309 182.6931
L190.1737 182.7645
" />
<path d="M190.1737 182.7645
L190.2452 182.8359
" />
<path d="M190.2452 182.8359
L190.3166 182.9788
" />
<path d="M190.3166 182.9788
L190.3166 183.4074
" />
<path d="M190.3166 183.4074
L190.2452 183.5502
" />
<path d="M190.2452 183.5502
L190.1737 183.6217
" />
<path d="M190.1737 183.6217
L190.0309 183.6931
" />
<path d="M190.0309 183.6931
L189.8166 183.6931
" />
<path d="M190.8165 182.6931
L191.1023 183.6931
" />
<path d="M191.1023 183.6931
L191.3880 182.9788
" />
<path d="M191.3880 182.9788
L191.6737 183.6931
" />
<path d="M191.6737 183.6931
L191.9594 182.6931
" />
<path d="M193.1022 183.6217
L192.9594 183.6931
" />
<path d="M192.9594 183.6931
L192.6737 183.6931
" />
<path d="M192.6737 183.6931
L192.5308 183.6217
" />
<path d="M192.5308 183.6217
L192.4594 183.4788
" />
<path d="M192.4594 183.4788
L192.4594 182.9074
" />
<path d="M192.4594 182.9074
L192.5308 182.7645
" />
<path d="M192.5308 182.7645
L192.6737 182.6931
" />
<path d="M192.6737 182.6931
L192.9594 182.6931
" />
<path d="M192.9594 182.6931
L193.1022 182.7645
" />
<path d="M193.1022 182.7645
L193.1737 182.9074
" />
<path d="M193.1737 182.9074
L193.1737 183.0502
" />
<path d="M193.1737 183.0502
L192.4594 183.1931
" />
<path d="M193.8165 183.6931
L193.8165 182.6931
" />
<path d="M193.8165 182.9788
L193.8879 182.8359
" />
<path d="M193.8879 182.8359
L193.9594 182.7645
" />
<path d="M193.9594 182.7645
L194.1022 182.6931
" />
<path d="M194.1022 182.6931
L194.2451 182.6931
" />
<path d="M195.8165 182.1217
L194.5308 184.0502
" />
</g></g>
<g style="fill:none; 
stroke:#840000; stroke-width:0.3000; stroke-opacity:1; 
stroke-linecap:round; stroke-linejoin:round;">
<text x="178.0022" y="180.7572"
textLength="0.9000" font-size="2.0000" lengthAdjust="spacingAndGlyphs"
text-anchor="start" opacity="0"></text>
<g class="stroked-text"><desc></desc>
</g></g>
<g style="fill:none; 
stroke:#840000; stroke-width:0.1524; stroke-opacity:1; 
stroke-linecap:round; stroke-linejoin:round;">
<text x="178.0022" y="177.7572"
textLength="0.4572" font-size="2.0000" lengthAdjust="spacingAndGlyphs"
text-anchor="start" opacity="0"></text>
<g class="stroked-text"><desc></desc>
</g><text x="178.0022" y="174.7572"
textLength="0.4572" font-size="2.0000" lengthAdjust="spacingAndGlyphs"
text-anchor="start" opacity="0"></text>
<g class="stroked-text"><desc></desc>
</g><text x="178.0022" y="171.7572"
textLength="0.4572" font-size="2.0000" lengthAdjust="spacingAndGlyphs"
text-anchor="start" opacity="0"></text>
<g class="stroked-text"><desc></desc>
</g><text x="178.0022" y="168.7572"
textLength="0.4572" font-size="2.0000" lengthAdjust="spacingAndGlyphs"
text-anchor="start" opacity="0"></text>
<g class="stroked-text"><desc></desc>
</g><path d="M197.0022 191.5072
L197.0022 194.5072
" />
<path d="M261.0022 191.5072
L261.0022 198.0072
" />
</g> 
</svg>
