%TF.GenerationSoftware,KiCad,Pcbnew,7.0.10*%
%TF.CreationDate,2024-04-07T01:49:58-04:00*%
%TF.ProjectId,pixie-rev-4,70697869-652d-4726-9576-2d342e6b6963,rev?*%
%TF.SameCoordinates,Original*%
%TF.FileFunction,Profile,NP*%
%FSLAX46Y46*%
G04 Gerber Fmt 4.6, Leading zero omitted, Abs format (unit mm)*
G04 Created by KiCad (PCBNEW 7.0.10) date 2024-04-07 01:49:58*
%MOMM*%
%LPD*%
G01*
G04 APERTURE LIST*
%TA.AperFunction,Profile*%
%ADD10C,0.100000*%
%TD*%
G04 APERTURE END LIST*
D10*
X135891142Y-108358043D02*
X139161371Y-102751935D01*
X143200000Y-70000000D02*
X142000000Y-70000000D01*
X139000000Y-100000000D02*
G75*
G03*
X140000000Y-99000000I0J1000000D01*
G01*
X140000000Y-77300000D02*
X141500000Y-77300000D01*
X101000000Y-70000000D02*
X105760000Y-70000000D01*
X104400000Y-130650000D02*
G75*
G03*
X102400000Y-130650000I-1000000J0D01*
G01*
X102400000Y-130650000D02*
G75*
G03*
X104400000Y-130650000I1000000J0D01*
G01*
X100000000Y-126600000D02*
G75*
G03*
X100500000Y-126100000I0J500000D01*
G01*
X115000000Y-76650000D02*
X115000000Y-70000000D01*
X98000000Y-133000000D02*
X93000000Y-133000000D01*
X98500000Y-130200000D02*
G75*
G03*
X98000000Y-130700000I0J-500000D01*
G01*
X157000000Y-70000000D02*
X157000000Y-68500000D01*
X157780911Y-124303545D02*
G75*
G03*
X157809383Y-123565228I-322511J382145D01*
G01*
X145098549Y-126576598D02*
G75*
G03*
X145480218Y-126747639I376551J328898D01*
G01*
X148350000Y-100000000D02*
X148350000Y-101385016D01*
X142000000Y-100000000D02*
X142000000Y-77800000D01*
X154820154Y-126651851D02*
G75*
G03*
X155137461Y-126534016I-5054J499751D01*
G01*
X100500000Y-102000000D02*
X131700000Y-102000000D01*
X100500000Y-107000000D02*
X100500000Y-126100000D01*
X100000000Y-63700000D02*
G75*
G03*
X100500000Y-63200000I0J500000D01*
G01*
X161000000Y-68000000D02*
X163000000Y-68000000D01*
X104400000Y-65350000D02*
G75*
G03*
X102400000Y-65350000I-1000000J0D01*
G01*
X102400000Y-65350000D02*
G75*
G03*
X104400000Y-65350000I1000000J0D01*
G01*
X100500000Y-73300000D02*
G75*
G03*
X100000000Y-72800000I-500000J0D01*
G01*
X100500000Y-106800000D02*
G75*
G03*
X100000000Y-106300000I-500000J0D01*
G01*
X148200000Y-68000000D02*
G75*
G03*
X147700000Y-68500000I0J-500000D01*
G01*
X100000000Y-79000000D02*
X100000000Y-79000000D01*
X131200000Y-70000000D02*
X115000000Y-70000000D01*
X100500000Y-68000000D02*
X100500000Y-67800000D01*
X139161385Y-102751943D02*
G75*
G03*
X138729482Y-102000000I-431885J251943D01*
G01*
X148200000Y-68000000D02*
X156500000Y-68000000D01*
X139500000Y-73300000D02*
G75*
G03*
X140000000Y-73800000I500000J0D01*
G01*
X100000000Y-67300000D02*
X98500000Y-67300000D01*
X132200000Y-70000000D02*
X132200000Y-68500000D01*
X100000000Y-63700000D02*
X98500000Y-63700000D01*
X161500000Y-70000000D02*
X163000000Y-70000000D01*
X139000000Y-100000000D02*
X136700000Y-100000000D01*
X100000000Y-78300000D02*
G75*
G03*
X100500000Y-77800000I0J500000D01*
G01*
X141816425Y-122070432D02*
G75*
G03*
X141774229Y-122771157I334375J-371768D01*
G01*
X139000000Y-70000000D02*
X136700000Y-70000000D01*
X131200000Y-70000000D02*
G75*
G03*
X132200000Y-70000000I500000J0D01*
G01*
X163000000Y-63000000D02*
X100500000Y-63000000D01*
X98000000Y-130700000D02*
X98000000Y-133000000D01*
X154820154Y-126651845D02*
X145480218Y-126747639D01*
X142000000Y-77800000D02*
G75*
G03*
X141500000Y-77300000I-500000J0D01*
G01*
X157780941Y-124303581D02*
X155137462Y-126534017D01*
X98000000Y-67800000D02*
X98000000Y-73300000D01*
X140160564Y-116804597D02*
X135882632Y-108846724D01*
X100000000Y-78300000D02*
X100000000Y-99000000D01*
X105760000Y-70000000D02*
X105760000Y-76650000D01*
X156000000Y-70000000D02*
X148700000Y-70000000D01*
X105760000Y-76650000D02*
X115000000Y-76650000D01*
X100000000Y-126600000D02*
X98500000Y-126600000D01*
X100500000Y-63000000D02*
X100500000Y-63200000D01*
X156000000Y-70000000D02*
G75*
G03*
X157000000Y-70000000I500000J0D01*
G01*
X135700000Y-100000000D02*
X135700000Y-101500000D01*
X100000000Y-130200000D02*
X98500000Y-130200000D01*
X152105365Y-101755365D02*
X151923223Y-101573223D01*
X152173749Y-101981234D02*
G75*
G03*
X152105365Y-101755365I-245249J49034D01*
G01*
X145098534Y-126576611D02*
X141774229Y-122771157D01*
X144200000Y-68500000D02*
G75*
G03*
X143700000Y-68000000I-500000J0D01*
G01*
X100000000Y-73800000D02*
G75*
G03*
X100500000Y-73300000I0J500000D01*
G01*
X154000000Y-65350000D02*
G75*
G03*
X152000000Y-65350000I-1000000J0D01*
G01*
X152000000Y-65350000D02*
G75*
G03*
X154000000Y-65350000I1000000J0D01*
G01*
X157000000Y-68500000D02*
G75*
G03*
X156500000Y-68000000I-500000J0D01*
G01*
X147350000Y-100000000D02*
X143200000Y-100000000D01*
X100500000Y-77800000D02*
X100500000Y-77800000D01*
X100500000Y-130700000D02*
G75*
G03*
X100000000Y-130200000I-500000J0D01*
G01*
X138729482Y-102000000D02*
X136200000Y-102000000D01*
X98000000Y-63000000D02*
X98000000Y-63200000D01*
X142000000Y-73300000D02*
X142000000Y-70000000D01*
X140000000Y-72800000D02*
G75*
G03*
X139500000Y-73300000I0J-500000D01*
G01*
X152850000Y-100000000D02*
X163000000Y-100000000D01*
X160500000Y-70000000D02*
X160500000Y-68500000D01*
X98500000Y-106300000D02*
G75*
G03*
X98000000Y-106800000I0J-500000D01*
G01*
X100500000Y-107000000D02*
X100500000Y-106800000D01*
X135700000Y-70000000D02*
X135700000Y-68500000D01*
X140160592Y-116804582D02*
G75*
G03*
X140842670Y-117005545I440408J236782D01*
G01*
X100000000Y-73800000D02*
X98500000Y-73800000D01*
X140000000Y-71000000D02*
G75*
G03*
X139000000Y-70000000I-1000000J0D01*
G01*
X161000000Y-68000000D02*
G75*
G03*
X160500000Y-68500000I0J-500000D01*
G01*
X98000000Y-63200000D02*
G75*
G03*
X98500000Y-63700000I500000J0D01*
G01*
X98000000Y-77800000D02*
X98000000Y-102200000D01*
X98000000Y-126100000D02*
G75*
G03*
X98500000Y-126600000I500000J0D01*
G01*
X141500000Y-73800000D02*
G75*
G03*
X142000000Y-73300000I0J500000D01*
G01*
X93000000Y-133000000D02*
X93000000Y-63000000D01*
X143700000Y-68000000D02*
X136200000Y-68000000D01*
X98000000Y-106800000D02*
X98000000Y-107000000D01*
X100000000Y-77300000D02*
X98500000Y-77300000D01*
X93000000Y-63000000D02*
X98000000Y-63000000D01*
X100500000Y-130700000D02*
X100500000Y-133000000D01*
X154236577Y-120045867D02*
X157809384Y-123565227D01*
X142672458Y-115995090D02*
X140842670Y-117005546D01*
X98500000Y-77300000D02*
G75*
G03*
X98000000Y-77800000I0J-500000D01*
G01*
X132200000Y-100000000D02*
G75*
G03*
X131200000Y-100000000I-500000J0D01*
G01*
X151849980Y-101396447D02*
G75*
G03*
X151923224Y-101573222I249820J-53D01*
G01*
X144200000Y-70000000D02*
X144200000Y-68500000D01*
X100000000Y-102700000D02*
X98500000Y-102700000D01*
X147700000Y-70000000D02*
X147700000Y-68500000D01*
X160500000Y-70000000D02*
G75*
G03*
X161500000Y-70000000I500000J0D01*
G01*
X141816436Y-122070445D02*
X144758423Y-119424558D01*
X100000000Y-102700000D02*
G75*
G03*
X100500000Y-102200000I0J500000D01*
G01*
X139500000Y-77800000D02*
G75*
G03*
X140000000Y-78300000I500000J0D01*
G01*
X163000000Y-70000000D02*
X163000000Y-100000000D01*
X131700000Y-68000000D02*
X100500000Y-68000000D01*
X100500000Y-102000000D02*
X100500000Y-102200000D01*
X140000000Y-99000000D02*
X140000000Y-78300000D01*
X140000000Y-72800000D02*
X140000000Y-71000000D01*
X154000000Y-130650000D02*
G75*
G03*
X152000000Y-130650000I-1000000J0D01*
G01*
X152000000Y-130650000D02*
G75*
G03*
X154000000Y-130650000I1000000J0D01*
G01*
X135891159Y-108358053D02*
G75*
G03*
X135882632Y-108846724I431941J-251947D01*
G01*
X147700000Y-70000000D02*
G75*
G03*
X148700000Y-70000000I500000J0D01*
G01*
X132200000Y-68500000D02*
G75*
G03*
X131700000Y-68000000I-500000J0D01*
G01*
X151850000Y-100000000D02*
X151850000Y-101396447D01*
X98500000Y-67300000D02*
G75*
G03*
X98000000Y-67800000I0J-500000D01*
G01*
X135700000Y-101500000D02*
G75*
G03*
X136200000Y-102000000I500000J0D01*
G01*
X148091934Y-101721173D02*
G75*
G03*
X148004846Y-101921005I162766J-189827D01*
G01*
X162999942Y-121611217D02*
G75*
G03*
X162785584Y-121200802I-500042J17D01*
G01*
X132200000Y-100000000D02*
X132200000Y-101500000D01*
X143200000Y-70000000D02*
G75*
G03*
X144200000Y-70000000I500000J0D01*
G01*
X148350000Y-100000000D02*
G75*
G03*
X147350000Y-100000000I-500000J0D01*
G01*
X100000000Y-99000000D02*
G75*
G03*
X101000000Y-100000000I1000000J0D01*
G01*
X148262690Y-101574821D02*
G75*
G03*
X148350000Y-101385016I-162690J189821D01*
G01*
X135700000Y-70000000D02*
G75*
G03*
X136700000Y-70000000I500000J0D01*
G01*
X148091947Y-101721188D02*
X148262698Y-101574830D01*
X98000000Y-107000000D02*
X98000000Y-126100000D01*
X100500000Y-67800000D02*
G75*
G03*
X100000000Y-67300000I-500000J0D01*
G01*
X157074065Y-117226501D02*
X162785584Y-121200801D01*
X100000000Y-71000000D02*
X100000000Y-72800000D01*
X136700000Y-100000000D02*
G75*
G03*
X135700000Y-100000000I-500000J0D01*
G01*
X131200000Y-100000000D02*
X101000000Y-100000000D01*
X98000000Y-73300000D02*
G75*
G03*
X98500000Y-73800000I500000J0D01*
G01*
X136200000Y-68000000D02*
G75*
G03*
X135700000Y-68500000I0J-500000D01*
G01*
X100000000Y-106300000D02*
X98500000Y-106300000D01*
X131700000Y-102000000D02*
G75*
G03*
X132200000Y-101500000I0J500000D01*
G01*
X152850000Y-100000000D02*
G75*
G03*
X151850000Y-100000000I-500000J0D01*
G01*
X140000000Y-73800000D02*
X141500000Y-73800000D01*
X163000000Y-121611217D02*
X163000000Y-133000000D01*
X152099639Y-102351186D02*
X152173722Y-101981229D01*
X98000000Y-102200000D02*
G75*
G03*
X98500000Y-102700000I500000J0D01*
G01*
X163000000Y-133000000D02*
X100500000Y-133000000D01*
X143200000Y-100000000D02*
X142000000Y-100000000D01*
X101000000Y-70000000D02*
G75*
G03*
X100000000Y-71000000I0J-1000000D01*
G01*
X163000000Y-68000000D02*
X163000000Y-63000000D01*
X100500000Y-77800000D02*
G75*
G03*
X100000000Y-77300000I-500000J0D01*
G01*
X148025737Y-102442711D02*
X148004846Y-101921005D01*
X140000000Y-77300000D02*
G75*
G03*
X139500000Y-77800000I0J-500000D01*
G01*
%TO.C,REF\u002A\u002A*%
X139197240Y-109122848D02*
X139210161Y-108927850D01*
X139200648Y-109318685D02*
X139197240Y-109122848D01*
X139210161Y-108927850D02*
X139239236Y-108734753D01*
X139220558Y-109514300D02*
X139200648Y-109318685D01*
X139239236Y-108734753D02*
X139284295Y-108544614D01*
X139257140Y-109708630D02*
X139220558Y-109514300D01*
X139281736Y-109804983D02*
X139257140Y-109708630D01*
X139284295Y-108544614D02*
X139345165Y-108358496D01*
X139310569Y-109900618D02*
X139281736Y-109804983D01*
X139343654Y-109995402D02*
X139310569Y-109900618D01*
X139345165Y-108358496D02*
X139421671Y-108177458D01*
X139381016Y-110089203D02*
X139343654Y-109995402D01*
X139421671Y-108177458D02*
X139513643Y-108002565D01*
X139422676Y-110181888D02*
X139381016Y-110089203D01*
X139468654Y-110273324D02*
X139422676Y-110181888D01*
X139513643Y-108002565D02*
X139565375Y-107917751D01*
X139565375Y-107917751D02*
X139620907Y-107834869D01*
X139620907Y-107834869D02*
X139680218Y-107754056D01*
X139680218Y-107754056D02*
X139743290Y-107675439D01*
X139743290Y-107675439D02*
X139810099Y-107599155D01*
X139810099Y-107599155D02*
X139880620Y-107525333D01*
X139880620Y-107525333D02*
X139954838Y-107454109D01*
X139954838Y-107454109D02*
X140032728Y-107385610D01*
X140032728Y-107385610D02*
X140110352Y-107320446D01*
X140110352Y-107320446D02*
X140190026Y-107259130D01*
X140184005Y-111615890D02*
X139468654Y-110273324D01*
X140190026Y-107259130D02*
X140271624Y-107201664D01*
X140271624Y-107201664D02*
X140355033Y-107148053D01*
X140355033Y-107148053D02*
X140440122Y-107098294D01*
X140440122Y-107098294D02*
X140526773Y-107052392D01*
X140526773Y-107052392D02*
X140614862Y-107010345D01*
X140614862Y-107010345D02*
X140704273Y-106972157D01*
X140704273Y-106972157D02*
X140794878Y-106937832D01*
X140794878Y-106937832D02*
X140886557Y-106907364D01*
X140886557Y-106907364D02*
X140979189Y-106880762D01*
X140918661Y-112952239D02*
X140184005Y-111615890D01*
X140979189Y-106880762D02*
X141072653Y-106858025D01*
X141072653Y-106858025D02*
X141166824Y-106839153D01*
X141166824Y-106839153D02*
X141261584Y-106824149D01*
X141261584Y-106824149D02*
X141356811Y-106813014D01*
X141356811Y-106813014D02*
X141452379Y-106805751D01*
X141452379Y-106805751D02*
X141548170Y-106802359D01*
X141548170Y-106802359D02*
X141644061Y-106802843D01*
X141644061Y-106802843D02*
X141739929Y-106807201D01*
X141739929Y-106807201D02*
X141835657Y-106815436D01*
X141835657Y-106815436D02*
X141931118Y-106827550D01*
X141838601Y-114579636D02*
X140918661Y-112952239D01*
X141931118Y-106827550D02*
X142026191Y-106843545D01*
X142026191Y-106843545D02*
X142120756Y-106863421D01*
X142120756Y-106863421D02*
X142214692Y-106887179D01*
X142195161Y-115234950D02*
X141838601Y-114579636D01*
X142195161Y-115234950D02*
X142672458Y-115995090D01*
X142214692Y-106887179D02*
X142307875Y-106914822D01*
X142307875Y-106914822D02*
X142400183Y-106946354D01*
X142400183Y-106946354D02*
X142491496Y-106981770D01*
X142491496Y-106981770D02*
X142581691Y-107021076D01*
X142581691Y-107021076D02*
X142670647Y-107064274D01*
X142670647Y-107064274D02*
X142758240Y-107111365D01*
X142758240Y-107111365D02*
X142844351Y-107162349D01*
X142844351Y-107162349D02*
X142928859Y-107217229D01*
X142928859Y-107217229D02*
X143028325Y-106959217D01*
X143028325Y-106959217D02*
X143137361Y-106703276D01*
X143137361Y-106703276D02*
X143256065Y-106449902D01*
X143256065Y-106449902D02*
X143384537Y-106199585D01*
X143384537Y-106199585D02*
X143522872Y-105952818D01*
X143522872Y-105952818D02*
X143671176Y-105710098D01*
X143671176Y-105710098D02*
X143829541Y-105471919D01*
X143829541Y-105471919D02*
X143998071Y-105238767D01*
X143998071Y-105238767D02*
X144246208Y-104924774D01*
X144246208Y-104924774D02*
X144507132Y-104626908D01*
X144507132Y-104626908D02*
X144780158Y-104345271D01*
X144780158Y-104345271D02*
X145064600Y-104079956D01*
X145064600Y-104079956D02*
X145359780Y-103831062D01*
X145214845Y-120065627D02*
X144758423Y-119424558D01*
X145359780Y-103831062D02*
X145665011Y-103598687D01*
X145665011Y-103598687D02*
X145979613Y-103382924D01*
X145802444Y-120918063D02*
X145214845Y-120065627D01*
X145979613Y-103382924D02*
X146302899Y-103183877D01*
X146302899Y-103183877D02*
X146634192Y-103001635D01*
X146380643Y-121714731D02*
X145802444Y-120918063D01*
X146397483Y-121731568D02*
X146380643Y-121714731D01*
X146475209Y-121831395D02*
X146397483Y-121731568D01*
X146556785Y-121928758D02*
X146475209Y-121831395D01*
X146634192Y-103001635D02*
X146972803Y-102836303D01*
X146642111Y-122023552D02*
X146556785Y-121928758D01*
X146731086Y-122115684D02*
X146642111Y-122023552D01*
X146823610Y-122205053D02*
X146731086Y-122115684D01*
X146919591Y-122291564D02*
X146823610Y-122205053D01*
X146972803Y-102836303D02*
X147318054Y-102687973D01*
X147018926Y-122375112D02*
X146919591Y-122291564D01*
X147121516Y-122455602D02*
X147018926Y-122375112D01*
X147250087Y-122547998D02*
X147121516Y-122455602D01*
X147318054Y-102687973D02*
X147669260Y-102556743D01*
X147381514Y-122634184D02*
X147250087Y-122547998D01*
X147515600Y-122714168D02*
X147381514Y-122634184D01*
X147652143Y-122787955D02*
X147515600Y-122714168D01*
X147669260Y-102556743D02*
X148025737Y-102442711D01*
X147790943Y-122855550D02*
X147652143Y-122787955D01*
X147931798Y-122916961D02*
X147790943Y-122855550D01*
X148074510Y-122972193D02*
X147931798Y-122916961D01*
X148218879Y-123021252D02*
X148074510Y-122972193D01*
X148364702Y-123064146D02*
X148218879Y-123021252D01*
X148511778Y-123100878D02*
X148364702Y-123064146D01*
X148659913Y-123131459D02*
X148511778Y-123100878D01*
X148808899Y-123155891D02*
X148659913Y-123131459D01*
X148958538Y-123174181D02*
X148808899Y-123155891D01*
X149108633Y-123186335D02*
X148958538Y-123174181D01*
X149258977Y-123192360D02*
X149108633Y-123186335D01*
X149409377Y-123192263D02*
X149258977Y-123192360D01*
X149559628Y-123186049D02*
X149409377Y-123192263D01*
X149709526Y-123173722D02*
X149559628Y-123186049D01*
X149858883Y-123155293D02*
X149709526Y-123173722D01*
X150007486Y-123130766D02*
X149858883Y-123155293D01*
X150155142Y-123100144D02*
X150007486Y-123130766D01*
X150301646Y-123063438D02*
X150155142Y-123100144D01*
X150446800Y-123020651D02*
X150301646Y-123063438D01*
X150590403Y-122971790D02*
X150446800Y-123020651D01*
X150732255Y-122916862D02*
X150590403Y-122971790D01*
X150872156Y-122855874D02*
X150732255Y-122916862D01*
X151009904Y-122788830D02*
X150872156Y-122855874D01*
X151145301Y-122715734D02*
X151009904Y-122788830D01*
X151278142Y-122636598D02*
X151145301Y-122715734D01*
X151408233Y-122551425D02*
X151278142Y-122636598D01*
X151535369Y-122460223D02*
X151408233Y-122551425D01*
X151659350Y-122362993D02*
X151535369Y-122460223D01*
X151667770Y-122354575D02*
X151659350Y-122362993D01*
X152099639Y-102351186D02*
X152466114Y-102451100D01*
X152466114Y-102451100D02*
X152828985Y-102569476D01*
X152828985Y-102569476D02*
X153187564Y-102706411D01*
X153186871Y-121026610D02*
X151667770Y-122354575D01*
X153187564Y-102706411D02*
X153541178Y-102861997D01*
X153541178Y-102861997D02*
X153889133Y-103036336D01*
X153889133Y-103036336D02*
X154230752Y-103229525D01*
X154230752Y-103229525D02*
X154565350Y-103441657D01*
X154236577Y-120045867D02*
X153186871Y-121026610D01*
X154565350Y-103441657D02*
X154892243Y-103672835D01*
X154892243Y-103672835D02*
X155230139Y-103939562D01*
X155230139Y-103939562D02*
X155549188Y-104221385D01*
X155549188Y-104221385D02*
X155849296Y-104517414D01*
X155849296Y-104517414D02*
X156130363Y-104826763D01*
X156130363Y-104826763D02*
X156392289Y-105148542D01*
X156392289Y-105148542D02*
X156634975Y-105481865D01*
X156634975Y-105481865D02*
X156858326Y-105825843D01*
X156858326Y-105825843D02*
X157062238Y-106179590D01*
X157062238Y-106179590D02*
X157246617Y-106542215D01*
X157246617Y-106542215D02*
X157411364Y-106912830D01*
X157411364Y-106912830D02*
X157556376Y-107290551D01*
X157556376Y-107290551D02*
X157681561Y-107674486D01*
X157681561Y-107674486D02*
X157786812Y-108063751D01*
X157756805Y-116488642D02*
X157074065Y-117226501D01*
X157786812Y-108063751D02*
X157872040Y-108457451D01*
X157872040Y-108457451D02*
X157937139Y-108854708D01*
X157937139Y-108854708D02*
X157982011Y-109254627D01*
X157982011Y-109254627D02*
X158386123Y-109086248D01*
X158386123Y-109086248D02*
X158534128Y-109030083D01*
X158534128Y-109030083D02*
X158684191Y-108984609D01*
X158684191Y-108984609D02*
X158835811Y-108949670D01*
X158835811Y-108949670D02*
X158988476Y-108925101D01*
X158988476Y-108925101D02*
X159141686Y-108910744D01*
X159141686Y-108910744D02*
X159294932Y-108906438D01*
X159294932Y-108906438D02*
X159447708Y-108912023D01*
X159447708Y-108912023D02*
X159599512Y-108927337D01*
X159599512Y-108927337D02*
X159749835Y-108952222D01*
X159749835Y-108952222D02*
X159898170Y-108986519D01*
X159898170Y-108986519D02*
X160044019Y-109030061D01*
X160044019Y-109030061D02*
X160186868Y-109082694D01*
X160064135Y-113996095D02*
X157756805Y-116488642D01*
X160186868Y-109082694D02*
X160326214Y-109144256D01*
X160326214Y-109144256D02*
X160461554Y-109214586D01*
X160461554Y-109214586D02*
X160592378Y-109293525D01*
X160592378Y-109293525D02*
X160718185Y-109380912D01*
X160718185Y-109380912D02*
X160754104Y-109408138D01*
X160754104Y-109408138D02*
X160789270Y-109436144D01*
X160789270Y-109436144D02*
X160823720Y-109464913D01*
X160823720Y-109464913D02*
X160857491Y-109494436D01*
X160857491Y-109494436D02*
X160923150Y-109555688D01*
X160923150Y-109555688D02*
X160986539Y-109619800D01*
X160986539Y-109619800D02*
X161047955Y-109686677D01*
X161047955Y-109686677D02*
X161107694Y-109756214D01*
X161080202Y-112857954D02*
X160064135Y-113996095D01*
X161107694Y-109756214D02*
X161166052Y-109828317D01*
X161146894Y-112778702D02*
X161080202Y-112857954D01*
X161166052Y-109828317D02*
X161223323Y-109902889D01*
X161209635Y-112697310D02*
X161146894Y-112778702D01*
X161223323Y-109902889D02*
X161282027Y-109988257D01*
X161268416Y-112613909D02*
X161209635Y-112697310D01*
X161282027Y-109988257D02*
X161336591Y-110075370D01*
X161323233Y-112528626D02*
X161268416Y-112613909D01*
X161336591Y-110075370D02*
X161387028Y-110164100D01*
X161374079Y-112441594D02*
X161323233Y-112528626D01*
X161387028Y-110164100D02*
X161433338Y-110254316D01*
X161420947Y-112352937D02*
X161374079Y-112441594D01*
X161433338Y-110254316D02*
X161475529Y-110345887D01*
X161463834Y-112262789D02*
X161420947Y-112352937D01*
X161475529Y-110345887D02*
X161513606Y-110438685D01*
X161502730Y-112171279D02*
X161463834Y-112262789D01*
X161513606Y-110438685D02*
X161547576Y-110532584D01*
X161537630Y-112078536D02*
X161502730Y-112171279D01*
X161547576Y-110532584D02*
X161577447Y-110627448D01*
X161568526Y-111984690D02*
X161537630Y-112078536D01*
X161577447Y-110627448D02*
X161603224Y-110723151D01*
X161595415Y-111889869D02*
X161568526Y-111984690D01*
X161603224Y-110723151D02*
X161624910Y-110819564D01*
X161618292Y-111794201D02*
X161595415Y-111889869D01*
X161624910Y-110819564D02*
X161642517Y-110916555D01*
X161637149Y-111697821D02*
X161618292Y-111794201D01*
X161642517Y-110916555D02*
X161656047Y-111013997D01*
X161651977Y-111600851D02*
X161637149Y-111697821D01*
X161656047Y-111013997D02*
X161665506Y-111111761D01*
X161662773Y-111503428D02*
X161651977Y-111600851D01*
X161665506Y-111111761D02*
X161670904Y-111209714D01*
X161669529Y-111405677D02*
X161662773Y-111503428D01*
X161670904Y-111209714D02*
X161672243Y-111307730D01*
X161672243Y-111307730D02*
X161669529Y-111405677D01*
%TD*%
M02*
