%TF.GenerationSoftware,KiCad,Pcbnew,7.0.10*%
%TF.CreationDate,2024-04-07T01:49:58-04:00*%
%TF.ProjectId,pixie-rev-4,70697869-652d-4726-9576-2d342e6b6963,rev?*%
%TF.SameCoordinates,Original*%
%TF.FileFunction,Legend,Bot*%
%TF.FilePolarity,Positive*%
%FSLAX46Y46*%
G04 Gerber Fmt 4.6, Leading zero omitted, Abs format (unit mm)*
G04 Created by KiCad (PCBNEW 7.0.10) date 2024-04-07 01:49:58*
%MOMM*%
%LPD*%
G01*
G04 APERTURE LIST*
%ADD10C,0.125000*%
%ADD11C,0.150000*%
%ADD12C,5.000000*%
%ADD13C,0.500000*%
%ADD14O,1.300000X2.100000*%
%ADD15O,1.300000X2.500000*%
G04 APERTURE END LIST*
D10*
X126714286Y-98756119D02*
X126714286Y-97756119D01*
X126285715Y-98756119D02*
X126285715Y-98232309D01*
X126285715Y-98232309D02*
X126333334Y-98137071D01*
X126333334Y-98137071D02*
X126428572Y-98089452D01*
X126428572Y-98089452D02*
X126571429Y-98089452D01*
X126571429Y-98089452D02*
X126666667Y-98137071D01*
X126666667Y-98137071D02*
X126714286Y-98184690D01*
X125952381Y-98089452D02*
X125571429Y-98089452D01*
X125809524Y-97756119D02*
X125809524Y-98613261D01*
X125809524Y-98613261D02*
X125761905Y-98708500D01*
X125761905Y-98708500D02*
X125666667Y-98756119D01*
X125666667Y-98756119D02*
X125571429Y-98756119D01*
X125380952Y-98089452D02*
X125000000Y-98089452D01*
X125238095Y-97756119D02*
X125238095Y-98613261D01*
X125238095Y-98613261D02*
X125190476Y-98708500D01*
X125190476Y-98708500D02*
X125095238Y-98756119D01*
X125095238Y-98756119D02*
X125000000Y-98756119D01*
X124666666Y-98089452D02*
X124666666Y-99089452D01*
X124666666Y-98137071D02*
X124571428Y-98089452D01*
X124571428Y-98089452D02*
X124380952Y-98089452D01*
X124380952Y-98089452D02*
X124285714Y-98137071D01*
X124285714Y-98137071D02*
X124238095Y-98184690D01*
X124238095Y-98184690D02*
X124190476Y-98279928D01*
X124190476Y-98279928D02*
X124190476Y-98565642D01*
X124190476Y-98565642D02*
X124238095Y-98660880D01*
X124238095Y-98660880D02*
X124285714Y-98708500D01*
X124285714Y-98708500D02*
X124380952Y-98756119D01*
X124380952Y-98756119D02*
X124571428Y-98756119D01*
X124571428Y-98756119D02*
X124666666Y-98708500D01*
X123809523Y-98708500D02*
X123714285Y-98756119D01*
X123714285Y-98756119D02*
X123523809Y-98756119D01*
X123523809Y-98756119D02*
X123428571Y-98708500D01*
X123428571Y-98708500D02*
X123380952Y-98613261D01*
X123380952Y-98613261D02*
X123380952Y-98565642D01*
X123380952Y-98565642D02*
X123428571Y-98470404D01*
X123428571Y-98470404D02*
X123523809Y-98422785D01*
X123523809Y-98422785D02*
X123666666Y-98422785D01*
X123666666Y-98422785D02*
X123761904Y-98375166D01*
X123761904Y-98375166D02*
X123809523Y-98279928D01*
X123809523Y-98279928D02*
X123809523Y-98232309D01*
X123809523Y-98232309D02*
X123761904Y-98137071D01*
X123761904Y-98137071D02*
X123666666Y-98089452D01*
X123666666Y-98089452D02*
X123523809Y-98089452D01*
X123523809Y-98089452D02*
X123428571Y-98137071D01*
X122952380Y-98660880D02*
X122904761Y-98708500D01*
X122904761Y-98708500D02*
X122952380Y-98756119D01*
X122952380Y-98756119D02*
X122999999Y-98708500D01*
X122999999Y-98708500D02*
X122952380Y-98660880D01*
X122952380Y-98660880D02*
X122952380Y-98756119D01*
X122952380Y-98137071D02*
X122904761Y-98184690D01*
X122904761Y-98184690D02*
X122952380Y-98232309D01*
X122952380Y-98232309D02*
X122999999Y-98184690D01*
X122999999Y-98184690D02*
X122952380Y-98137071D01*
X122952380Y-98137071D02*
X122952380Y-98232309D01*
X121761905Y-97708500D02*
X122619047Y-98994214D01*
X120714286Y-97708500D02*
X121571428Y-98994214D01*
X120523809Y-98089452D02*
X120142857Y-98089452D01*
X120380952Y-98756119D02*
X120380952Y-97898976D01*
X120380952Y-97898976D02*
X120333333Y-97803738D01*
X120333333Y-97803738D02*
X120238095Y-97756119D01*
X120238095Y-97756119D02*
X120142857Y-97756119D01*
X119809523Y-98756119D02*
X119809523Y-98089452D01*
X119809523Y-97756119D02*
X119857142Y-97803738D01*
X119857142Y-97803738D02*
X119809523Y-97851357D01*
X119809523Y-97851357D02*
X119761904Y-97803738D01*
X119761904Y-97803738D02*
X119809523Y-97756119D01*
X119809523Y-97756119D02*
X119809523Y-97851357D01*
X119333333Y-98756119D02*
X119333333Y-98089452D01*
X119333333Y-98279928D02*
X119285714Y-98184690D01*
X119285714Y-98184690D02*
X119238095Y-98137071D01*
X119238095Y-98137071D02*
X119142857Y-98089452D01*
X119142857Y-98089452D02*
X119047619Y-98089452D01*
X118333333Y-98708500D02*
X118428571Y-98756119D01*
X118428571Y-98756119D02*
X118619047Y-98756119D01*
X118619047Y-98756119D02*
X118714285Y-98708500D01*
X118714285Y-98708500D02*
X118761904Y-98613261D01*
X118761904Y-98613261D02*
X118761904Y-98232309D01*
X118761904Y-98232309D02*
X118714285Y-98137071D01*
X118714285Y-98137071D02*
X118619047Y-98089452D01*
X118619047Y-98089452D02*
X118428571Y-98089452D01*
X118428571Y-98089452D02*
X118333333Y-98137071D01*
X118333333Y-98137071D02*
X118285714Y-98232309D01*
X118285714Y-98232309D02*
X118285714Y-98327547D01*
X118285714Y-98327547D02*
X118761904Y-98422785D01*
X117999999Y-98089452D02*
X117619047Y-98089452D01*
X117857142Y-98756119D02*
X117857142Y-97898976D01*
X117857142Y-97898976D02*
X117809523Y-97803738D01*
X117809523Y-97803738D02*
X117714285Y-97756119D01*
X117714285Y-97756119D02*
X117619047Y-97756119D01*
X117142856Y-98756119D02*
X117238094Y-98708500D01*
X117238094Y-98708500D02*
X117285713Y-98613261D01*
X117285713Y-98613261D02*
X117285713Y-97756119D01*
X116857141Y-98089452D02*
X116619046Y-98756119D01*
X116380951Y-98089452D02*
X116619046Y-98756119D01*
X116619046Y-98756119D02*
X116714284Y-98994214D01*
X116714284Y-98994214D02*
X116761903Y-99041833D01*
X116761903Y-99041833D02*
X116857141Y-99089452D01*
X115999998Y-98660880D02*
X115952379Y-98708500D01*
X115952379Y-98708500D02*
X115999998Y-98756119D01*
X115999998Y-98756119D02*
X116047617Y-98708500D01*
X116047617Y-98708500D02*
X115999998Y-98660880D01*
X115999998Y-98660880D02*
X115999998Y-98756119D01*
X115095237Y-98756119D02*
X115095237Y-98232309D01*
X115095237Y-98232309D02*
X115142856Y-98137071D01*
X115142856Y-98137071D02*
X115238094Y-98089452D01*
X115238094Y-98089452D02*
X115428570Y-98089452D01*
X115428570Y-98089452D02*
X115523808Y-98137071D01*
X115095237Y-98708500D02*
X115190475Y-98756119D01*
X115190475Y-98756119D02*
X115428570Y-98756119D01*
X115428570Y-98756119D02*
X115523808Y-98708500D01*
X115523808Y-98708500D02*
X115571427Y-98613261D01*
X115571427Y-98613261D02*
X115571427Y-98518023D01*
X115571427Y-98518023D02*
X115523808Y-98422785D01*
X115523808Y-98422785D02*
X115428570Y-98375166D01*
X115428570Y-98375166D02*
X115190475Y-98375166D01*
X115190475Y-98375166D02*
X115095237Y-98327547D01*
X114619046Y-98089452D02*
X114619046Y-99089452D01*
X114619046Y-98137071D02*
X114523808Y-98089452D01*
X114523808Y-98089452D02*
X114333332Y-98089452D01*
X114333332Y-98089452D02*
X114238094Y-98137071D01*
X114238094Y-98137071D02*
X114190475Y-98184690D01*
X114190475Y-98184690D02*
X114142856Y-98279928D01*
X114142856Y-98279928D02*
X114142856Y-98565642D01*
X114142856Y-98565642D02*
X114190475Y-98660880D01*
X114190475Y-98660880D02*
X114238094Y-98708500D01*
X114238094Y-98708500D02*
X114333332Y-98756119D01*
X114333332Y-98756119D02*
X114523808Y-98756119D01*
X114523808Y-98756119D02*
X114619046Y-98708500D01*
X113714284Y-98089452D02*
X113714284Y-99089452D01*
X113714284Y-98137071D02*
X113619046Y-98089452D01*
X113619046Y-98089452D02*
X113428570Y-98089452D01*
X113428570Y-98089452D02*
X113333332Y-98137071D01*
X113333332Y-98137071D02*
X113285713Y-98184690D01*
X113285713Y-98184690D02*
X113238094Y-98279928D01*
X113238094Y-98279928D02*
X113238094Y-98565642D01*
X113238094Y-98565642D02*
X113285713Y-98660880D01*
X113285713Y-98660880D02*
X113333332Y-98708500D01*
X113333332Y-98708500D02*
X113428570Y-98756119D01*
X113428570Y-98756119D02*
X113619046Y-98756119D01*
X113619046Y-98756119D02*
X113714284Y-98708500D01*
D11*
X104901190Y-98754819D02*
X104817856Y-98088152D01*
X104841666Y-98278628D02*
X104782142Y-98183390D01*
X104782142Y-98183390D02*
X104728571Y-98135771D01*
X104728571Y-98135771D02*
X104627380Y-98088152D01*
X104627380Y-98088152D02*
X104532142Y-98088152D01*
X103895237Y-98707200D02*
X103996427Y-98754819D01*
X103996427Y-98754819D02*
X104186904Y-98754819D01*
X104186904Y-98754819D02*
X104276189Y-98707200D01*
X104276189Y-98707200D02*
X104311904Y-98611961D01*
X104311904Y-98611961D02*
X104264285Y-98231009D01*
X104264285Y-98231009D02*
X104204761Y-98135771D01*
X104204761Y-98135771D02*
X104103570Y-98088152D01*
X104103570Y-98088152D02*
X103913094Y-98088152D01*
X103913094Y-98088152D02*
X103823808Y-98135771D01*
X103823808Y-98135771D02*
X103788094Y-98231009D01*
X103788094Y-98231009D02*
X103799999Y-98326247D01*
X103799999Y-98326247D02*
X104288094Y-98421485D01*
X103436903Y-98088152D02*
X103282142Y-98754819D01*
X103282142Y-98754819D02*
X102960713Y-98088152D01*
X102651189Y-98659580D02*
X102609522Y-98707200D01*
X102609522Y-98707200D02*
X102663094Y-98754819D01*
X102663094Y-98754819D02*
X102704760Y-98707200D01*
X102704760Y-98707200D02*
X102651189Y-98659580D01*
X102651189Y-98659580D02*
X102663094Y-98754819D01*
X101585713Y-97754819D02*
X102061904Y-97754819D01*
X102061904Y-97754819D02*
X102169047Y-98231009D01*
X102169047Y-98231009D02*
X102115475Y-98183390D01*
X102115475Y-98183390D02*
X102014285Y-98135771D01*
X102014285Y-98135771D02*
X101776189Y-98135771D01*
X101776189Y-98135771D02*
X101686904Y-98183390D01*
X101686904Y-98183390D02*
X101645237Y-98231009D01*
X101645237Y-98231009D02*
X101609523Y-98326247D01*
X101609523Y-98326247D02*
X101639285Y-98564342D01*
X101639285Y-98564342D02*
X101698808Y-98659580D01*
X101698808Y-98659580D02*
X101752380Y-98707200D01*
X101752380Y-98707200D02*
X101853570Y-98754819D01*
X101853570Y-98754819D02*
X102091666Y-98754819D01*
X102091666Y-98754819D02*
X102180951Y-98707200D01*
X102180951Y-98707200D02*
X102222618Y-98659580D01*
%TO.C,branding-logo-1*%
G36*
X137215416Y-74788602D02*
G01*
X137331339Y-75332979D01*
X137571045Y-76736242D01*
X137775405Y-78165550D01*
X137943860Y-79532722D01*
X138170823Y-81727937D01*
X138247469Y-82616440D01*
X134762907Y-76766504D01*
X127952531Y-76671254D01*
X128759800Y-76294471D01*
X129654056Y-75888511D01*
X130773321Y-75395301D01*
X131786207Y-74966156D01*
X136246882Y-74966156D01*
X136249204Y-74996441D01*
X136251412Y-75011180D01*
X136254316Y-75025610D01*
X136257911Y-75039703D01*
X136262195Y-75053430D01*
X136267165Y-75066762D01*
X136272818Y-75079669D01*
X136279152Y-75092123D01*
X136286163Y-75104094D01*
X136293848Y-75115553D01*
X136302204Y-75126472D01*
X136311229Y-75136821D01*
X136320920Y-75146572D01*
X136331274Y-75155694D01*
X136342287Y-75164160D01*
X136353957Y-75171939D01*
X136366282Y-75179004D01*
X136378346Y-75185284D01*
X136390710Y-75190736D01*
X136403348Y-75195368D01*
X136416232Y-75199189D01*
X136429337Y-75202207D01*
X136442637Y-75204433D01*
X136456106Y-75205873D01*
X136469717Y-75206537D01*
X136483444Y-75206434D01*
X136497262Y-75205572D01*
X136511143Y-75203960D01*
X136525063Y-75201607D01*
X136538993Y-75198522D01*
X136552910Y-75194712D01*
X136566785Y-75190188D01*
X136580594Y-75184957D01*
X136594310Y-75179029D01*
X136607906Y-75172411D01*
X136621358Y-75165114D01*
X136634637Y-75157145D01*
X136647719Y-75148513D01*
X136660577Y-75139227D01*
X136673186Y-75129296D01*
X136685518Y-75118728D01*
X136697548Y-75107533D01*
X136709249Y-75095718D01*
X136720596Y-75083293D01*
X136731562Y-75070266D01*
X136742120Y-75056646D01*
X136752246Y-75042442D01*
X136761913Y-75027663D01*
X136771094Y-75012316D01*
X136787562Y-74980729D01*
X136801263Y-74948630D01*
X136812219Y-74916253D01*
X136820455Y-74883828D01*
X136825994Y-74851590D01*
X136828858Y-74819770D01*
X136829071Y-74788602D01*
X136826657Y-74758317D01*
X136821638Y-74729148D01*
X136814037Y-74701328D01*
X136809276Y-74687996D01*
X136803879Y-74675089D01*
X136797848Y-74662635D01*
X136791186Y-74650664D01*
X136783896Y-74639205D01*
X136775981Y-74628286D01*
X136767445Y-74617937D01*
X136758289Y-74608186D01*
X136748516Y-74599064D01*
X136738131Y-74590598D01*
X136727135Y-74582819D01*
X136715532Y-74575754D01*
X136703467Y-74569474D01*
X136691103Y-74564022D01*
X136678465Y-74559390D01*
X136665581Y-74555569D01*
X136652476Y-74552550D01*
X136639176Y-74550325D01*
X136625707Y-74548885D01*
X136612096Y-74548221D01*
X136598369Y-74548324D01*
X136584551Y-74549186D01*
X136570670Y-74550798D01*
X136556750Y-74553151D01*
X136542820Y-74556236D01*
X136528903Y-74560046D01*
X136515028Y-74564570D01*
X136501219Y-74569801D01*
X136487503Y-74575729D01*
X136473907Y-74582347D01*
X136460456Y-74589644D01*
X136447176Y-74597613D01*
X136434094Y-74606245D01*
X136421236Y-74615531D01*
X136408627Y-74625462D01*
X136396295Y-74636029D01*
X136384265Y-74647225D01*
X136372564Y-74659040D01*
X136361217Y-74671465D01*
X136350252Y-74684492D01*
X136339693Y-74698111D01*
X136329567Y-74712315D01*
X136319900Y-74727095D01*
X136310719Y-74742441D01*
X136292856Y-74774029D01*
X136277946Y-74806127D01*
X136265966Y-74838505D01*
X136256893Y-74870930D01*
X136250703Y-74903168D01*
X136247374Y-74934988D01*
X136246882Y-74966156D01*
X131786207Y-74966156D01*
X132041042Y-74858186D01*
X133255267Y-74370844D01*
X135218303Y-74370844D01*
X135220305Y-74401129D01*
X135225004Y-74430298D01*
X135228369Y-74444391D01*
X135232413Y-74458118D01*
X135237137Y-74471449D01*
X135242542Y-74484356D01*
X135248631Y-74496810D01*
X135255404Y-74508781D01*
X135262863Y-74520241D01*
X135271009Y-74531160D01*
X135279845Y-74541509D01*
X135289371Y-74551259D01*
X135299588Y-74560382D01*
X135310499Y-74568847D01*
X135322105Y-74576627D01*
X135334407Y-74583691D01*
X135346471Y-74589971D01*
X135358835Y-74595423D01*
X135371473Y-74600055D01*
X135384357Y-74603876D01*
X135397462Y-74606895D01*
X135410762Y-74609120D01*
X135424231Y-74610560D01*
X135437842Y-74611225D01*
X135451569Y-74611121D01*
X135465387Y-74610259D01*
X135479268Y-74608648D01*
X135493188Y-74606295D01*
X135507118Y-74603209D01*
X135521035Y-74599400D01*
X135534910Y-74594875D01*
X135548719Y-74589644D01*
X135562435Y-74583716D01*
X135576031Y-74577099D01*
X135589483Y-74569801D01*
X135602762Y-74561832D01*
X135615844Y-74553200D01*
X135628702Y-74543915D01*
X135641311Y-74533984D01*
X135653643Y-74523416D01*
X135665673Y-74512220D01*
X135677374Y-74500406D01*
X135688721Y-74487981D01*
X135699686Y-74474954D01*
X135710245Y-74461334D01*
X135720371Y-74447130D01*
X135730038Y-74432350D01*
X135739219Y-74417004D01*
X135755687Y-74385417D01*
X135769388Y-74353318D01*
X135780344Y-74320940D01*
X135788580Y-74288516D01*
X135794119Y-74256277D01*
X135796983Y-74224457D01*
X135797196Y-74193289D01*
X135794781Y-74163004D01*
X135789762Y-74133835D01*
X135782162Y-74106015D01*
X135777401Y-74092683D01*
X135772004Y-74079776D01*
X135765973Y-74067323D01*
X135759311Y-74055351D01*
X135752021Y-74043892D01*
X135744106Y-74032973D01*
X135735569Y-74022624D01*
X135726414Y-74012873D01*
X135716641Y-74003751D01*
X135706256Y-73995285D01*
X135695260Y-73987506D01*
X135683656Y-73980441D01*
X135671592Y-73974161D01*
X135659228Y-73968710D01*
X135646590Y-73964078D01*
X135633706Y-73960257D01*
X135620601Y-73957238D01*
X135607300Y-73955013D01*
X135593832Y-73953572D01*
X135580221Y-73952908D01*
X135566493Y-73953011D01*
X135552676Y-73953873D01*
X135538794Y-73955485D01*
X135524875Y-73957838D01*
X135510944Y-73960924D01*
X135497028Y-73964733D01*
X135483152Y-73969257D01*
X135469344Y-73974488D01*
X135455628Y-73980417D01*
X135442031Y-73987034D01*
X135428580Y-73994332D01*
X135415301Y-74002301D01*
X135402218Y-74010932D01*
X135389360Y-74020218D01*
X135376752Y-74030149D01*
X135364420Y-74040717D01*
X135352390Y-74051912D01*
X135340689Y-74063727D01*
X135329342Y-74076152D01*
X135318376Y-74089179D01*
X135307817Y-74102799D01*
X135297692Y-74117003D01*
X135288025Y-74131782D01*
X135278844Y-74147129D01*
X135262289Y-74178716D01*
X135248350Y-74210815D01*
X135237038Y-74243193D01*
X135228367Y-74275617D01*
X135222346Y-74307855D01*
X135218987Y-74339675D01*
X135218303Y-74370844D01*
X133255267Y-74370844D01*
X133380666Y-74320514D01*
X134053518Y-74065014D01*
X134715638Y-73825629D01*
X135357457Y-73607778D01*
X135969406Y-73416879D01*
X136014090Y-73405454D01*
X136058794Y-73396452D01*
X136103450Y-73389831D01*
X136147985Y-73385548D01*
X136192328Y-73383561D01*
X136236408Y-73383829D01*
X136280153Y-73386308D01*
X136323493Y-73390958D01*
X136366357Y-73397736D01*
X136408672Y-73406599D01*
X136450369Y-73417505D01*
X136491375Y-73430413D01*
X136531619Y-73445280D01*
X136571031Y-73462064D01*
X136609538Y-73480723D01*
X136647071Y-73501215D01*
X136683557Y-73523497D01*
X136718925Y-73547528D01*
X136753104Y-73573265D01*
X136786023Y-73600666D01*
X136817611Y-73629689D01*
X136847797Y-73660292D01*
X136876508Y-73692433D01*
X136903675Y-73726069D01*
X136929226Y-73761159D01*
X136953089Y-73797660D01*
X136975193Y-73835530D01*
X136995468Y-73874727D01*
X137013842Y-73915209D01*
X137030243Y-73956933D01*
X137044601Y-73999858D01*
X137056844Y-74043941D01*
X137088647Y-74193289D01*
X137215416Y-74788602D01*
G37*
%TO.C,branding-name-1*%
G36*
X136550878Y-85857250D02*
G01*
X136085212Y-85857250D01*
X136085212Y-84148042D01*
X136085273Y-84145097D01*
X136085457Y-84142215D01*
X136085761Y-84139400D01*
X136086183Y-84136652D01*
X136086721Y-84133975D01*
X136087374Y-84131368D01*
X136088139Y-84128836D01*
X136089015Y-84126379D01*
X136089999Y-84124000D01*
X136091090Y-84121700D01*
X136092285Y-84119481D01*
X136093583Y-84117346D01*
X136094982Y-84115296D01*
X136096480Y-84113333D01*
X136098074Y-84111460D01*
X136099764Y-84109677D01*
X136101546Y-84107988D01*
X136103420Y-84106393D01*
X136105383Y-84104896D01*
X136107432Y-84103497D01*
X136109568Y-84102199D01*
X136111786Y-84101003D01*
X136114086Y-84099913D01*
X136116466Y-84098929D01*
X136118922Y-84098053D01*
X136121455Y-84097288D01*
X136124061Y-84096635D01*
X136126739Y-84096097D01*
X136129486Y-84095675D01*
X136132302Y-84095371D01*
X136135183Y-84095187D01*
X136138128Y-84095125D01*
X136550878Y-84095125D01*
X136550878Y-85857250D01*
G37*
G36*
X136550878Y-83888750D02*
G01*
X136079920Y-83888750D01*
X136079920Y-83513042D01*
X136079981Y-83510097D01*
X136080165Y-83507215D01*
X136080469Y-83504400D01*
X136080891Y-83501652D01*
X136081430Y-83498975D01*
X136082082Y-83496369D01*
X136082848Y-83493836D01*
X136083723Y-83491379D01*
X136084707Y-83489000D01*
X136085798Y-83486700D01*
X136086993Y-83484481D01*
X136088291Y-83482346D01*
X136089690Y-83480296D01*
X136091188Y-83478333D01*
X136092782Y-83476460D01*
X136094472Y-83474677D01*
X136096254Y-83472988D01*
X136098128Y-83471393D01*
X136100091Y-83469896D01*
X136102141Y-83468497D01*
X136104276Y-83467199D01*
X136106494Y-83466003D01*
X136108794Y-83464913D01*
X136111174Y-83463929D01*
X136113631Y-83463053D01*
X136116163Y-83462288D01*
X136118769Y-83461635D01*
X136121447Y-83461097D01*
X136124195Y-83460675D01*
X136127010Y-83460371D01*
X136129891Y-83460187D01*
X136132837Y-83460125D01*
X136550878Y-83460125D01*
X136550878Y-83888750D01*
G37*
G36*
X131396795Y-85857250D02*
G01*
X130931128Y-85857250D01*
X130931128Y-83528917D01*
X130931190Y-83525972D01*
X130931373Y-83523090D01*
X130931677Y-83520275D01*
X130932099Y-83517527D01*
X130932638Y-83514850D01*
X130933291Y-83512244D01*
X130934056Y-83509711D01*
X130934931Y-83507254D01*
X130935915Y-83504875D01*
X130937006Y-83502575D01*
X130938202Y-83500356D01*
X130939500Y-83498221D01*
X130940898Y-83496171D01*
X130942396Y-83494208D01*
X130943991Y-83492335D01*
X130945680Y-83490552D01*
X130947463Y-83488863D01*
X130949336Y-83487268D01*
X130951299Y-83485771D01*
X130953349Y-83484372D01*
X130955484Y-83483074D01*
X130957703Y-83481878D01*
X130960003Y-83480788D01*
X130962382Y-83479804D01*
X130964839Y-83478928D01*
X130967371Y-83478163D01*
X130969977Y-83477510D01*
X130972655Y-83476972D01*
X130975403Y-83476550D01*
X130978218Y-83476246D01*
X130981099Y-83476062D01*
X130984045Y-83476000D01*
X131396795Y-83476000D01*
X131396795Y-85857250D01*
G37*
G36*
X129772253Y-85396875D02*
G01*
X130142670Y-84126875D01*
X130144776Y-84122971D01*
X130147114Y-84119206D01*
X130149670Y-84115597D01*
X130152427Y-84112157D01*
X130155370Y-84108904D01*
X130158483Y-84105853D01*
X130161752Y-84103018D01*
X130165160Y-84100417D01*
X130168692Y-84098063D01*
X130172333Y-84095972D01*
X130176066Y-84094161D01*
X130179878Y-84092644D01*
X130183751Y-84091438D01*
X130187670Y-84090557D01*
X130189643Y-84090243D01*
X130191621Y-84090017D01*
X130193603Y-84089879D01*
X130195587Y-84089833D01*
X130671837Y-84089833D01*
X130015671Y-85915458D01*
X130025582Y-85951663D01*
X130035432Y-85984829D01*
X130040314Y-86000253D01*
X130045157Y-86014894D01*
X130049954Y-86028745D01*
X130054697Y-86041797D01*
X130059377Y-86054043D01*
X130063988Y-86065475D01*
X130068521Y-86076086D01*
X130072969Y-86085867D01*
X130077324Y-86094810D01*
X130081579Y-86102909D01*
X130085724Y-86110156D01*
X130089754Y-86116542D01*
X130097255Y-86125222D01*
X130105856Y-86133399D01*
X130115543Y-86141064D01*
X130126300Y-86148209D01*
X130138110Y-86154828D01*
X130150960Y-86160911D01*
X130164832Y-86166452D01*
X130179712Y-86171443D01*
X130195585Y-86175875D01*
X130212434Y-86179742D01*
X130230244Y-86183035D01*
X130249000Y-86185747D01*
X130268686Y-86187869D01*
X130289287Y-86189395D01*
X130310787Y-86190316D01*
X130333170Y-86190625D01*
X130365830Y-86190542D01*
X130379772Y-86190346D01*
X130392040Y-86189964D01*
X130397527Y-86189683D01*
X130402572Y-86189333D01*
X130407167Y-86188906D01*
X130411305Y-86188393D01*
X130414978Y-86187787D01*
X130418178Y-86187080D01*
X130420897Y-86186265D01*
X130423128Y-86185333D01*
X130423128Y-86555750D01*
X130200879Y-86561042D01*
X130166833Y-86560608D01*
X130134144Y-86559305D01*
X130102804Y-86557135D01*
X130072804Y-86554096D01*
X130044138Y-86550190D01*
X130016797Y-86545415D01*
X129990774Y-86539772D01*
X129966061Y-86533261D01*
X129942650Y-86525881D01*
X129920534Y-86517634D01*
X129899705Y-86508518D01*
X129880154Y-86498534D01*
X129861875Y-86487682D01*
X129844859Y-86475962D01*
X129829099Y-86463373D01*
X129814587Y-86449917D01*
X129801444Y-86434724D01*
X129787819Y-86416927D01*
X129773730Y-86396525D01*
X129759190Y-86373518D01*
X129728825Y-86319692D01*
X129696848Y-86255448D01*
X129663382Y-86180786D01*
X129628552Y-86095706D01*
X129592482Y-86000208D01*
X129555296Y-85894292D01*
X128946754Y-84163917D01*
X128945389Y-84160926D01*
X128944266Y-84157912D01*
X128943380Y-84154883D01*
X128942724Y-84151845D01*
X128942292Y-84148808D01*
X128942080Y-84145778D01*
X128942081Y-84142764D01*
X128942289Y-84139774D01*
X128942699Y-84136814D01*
X128943305Y-84133893D01*
X128944100Y-84131018D01*
X128945080Y-84128198D01*
X128946238Y-84125440D01*
X128947568Y-84122751D01*
X128949065Y-84120141D01*
X128950723Y-84117615D01*
X128952536Y-84115182D01*
X128954498Y-84112850D01*
X128956603Y-84110627D01*
X128958846Y-84108520D01*
X128961221Y-84106537D01*
X128963722Y-84104685D01*
X128966343Y-84102974D01*
X128969078Y-84101409D01*
X128971922Y-84100000D01*
X128974868Y-84098753D01*
X128977912Y-84097677D01*
X128981046Y-84096779D01*
X128984266Y-84096067D01*
X128987565Y-84095549D01*
X128990938Y-84095233D01*
X128994379Y-84095125D01*
X128994379Y-84089833D01*
X129401837Y-84089833D01*
X129772253Y-85396875D01*
G37*
G36*
X134746808Y-84047764D02*
G01*
X134762856Y-84048553D01*
X134778690Y-84049868D01*
X134794314Y-84051707D01*
X134809728Y-84054069D01*
X134824935Y-84056953D01*
X134839936Y-84060359D01*
X134854734Y-84064285D01*
X134869330Y-84068730D01*
X134883727Y-84073694D01*
X134897926Y-84079175D01*
X134911929Y-84085172D01*
X134925739Y-84091685D01*
X134939356Y-84098713D01*
X134952784Y-84106254D01*
X134966024Y-84114307D01*
X134991948Y-84131948D01*
X135017142Y-84151628D01*
X135041624Y-84173339D01*
X135065408Y-84197072D01*
X135088510Y-84222822D01*
X135110945Y-84250578D01*
X135132729Y-84280335D01*
X135153878Y-84312084D01*
X135169670Y-84335979D01*
X135177412Y-84348081D01*
X135184967Y-84360370D01*
X135192274Y-84372907D01*
X135199271Y-84385753D01*
X135205896Y-84398972D01*
X135209049Y-84405741D01*
X135212086Y-84412625D01*
X135212086Y-84148042D01*
X135212148Y-84145097D01*
X135212332Y-84142215D01*
X135212636Y-84139400D01*
X135213058Y-84136652D01*
X135213596Y-84133975D01*
X135214249Y-84131368D01*
X135215014Y-84128836D01*
X135215890Y-84126379D01*
X135216874Y-84124000D01*
X135217965Y-84121700D01*
X135219160Y-84119481D01*
X135220458Y-84117346D01*
X135221857Y-84115296D01*
X135223354Y-84113333D01*
X135224949Y-84111460D01*
X135226639Y-84109677D01*
X135228421Y-84107988D01*
X135230295Y-84106393D01*
X135232257Y-84104896D01*
X135234307Y-84103497D01*
X135236443Y-84102199D01*
X135238661Y-84101003D01*
X135240961Y-84099913D01*
X135243340Y-84098929D01*
X135245797Y-84098053D01*
X135248330Y-84097288D01*
X135250936Y-84096635D01*
X135253614Y-84096097D01*
X135256361Y-84095675D01*
X135259177Y-84095371D01*
X135262058Y-84095187D01*
X135265003Y-84095125D01*
X135651295Y-84095125D01*
X135651295Y-85857250D01*
X135185628Y-85857250D01*
X135185628Y-84941792D01*
X135185195Y-84915437D01*
X135183902Y-84889950D01*
X135181756Y-84865331D01*
X135178766Y-84841581D01*
X135174938Y-84818699D01*
X135170280Y-84796684D01*
X135164801Y-84775538D01*
X135158508Y-84755261D01*
X135151409Y-84735851D01*
X135143512Y-84717309D01*
X135134824Y-84699636D01*
X135125353Y-84682831D01*
X135115107Y-84666894D01*
X135104093Y-84651825D01*
X135092320Y-84637624D01*
X135079795Y-84624292D01*
X135066462Y-84611767D01*
X135052261Y-84599994D01*
X135037193Y-84588980D01*
X135021256Y-84578734D01*
X135004450Y-84569263D01*
X134986777Y-84560575D01*
X134968236Y-84552677D01*
X134948826Y-84545578D01*
X134928548Y-84539285D01*
X134907402Y-84533806D01*
X134885388Y-84529149D01*
X134862506Y-84525321D01*
X134838755Y-84522330D01*
X134814137Y-84520184D01*
X134788650Y-84518891D01*
X134762295Y-84518458D01*
X134726659Y-84518541D01*
X134708996Y-84518738D01*
X134691519Y-84519120D01*
X134674290Y-84519750D01*
X134657371Y-84520691D01*
X134640824Y-84522004D01*
X134624712Y-84523750D01*
X134624712Y-84100417D01*
X134624788Y-84097937D01*
X134625015Y-84095462D01*
X134625387Y-84092997D01*
X134625900Y-84090547D01*
X134626549Y-84088115D01*
X134627328Y-84085708D01*
X134628233Y-84083330D01*
X134629259Y-84080986D01*
X134630402Y-84078681D01*
X134631656Y-84076420D01*
X134633016Y-84074206D01*
X134634478Y-84072046D01*
X134636038Y-84069945D01*
X134637689Y-84067906D01*
X134639427Y-84065935D01*
X134641248Y-84064037D01*
X134643146Y-84062216D01*
X134645117Y-84060477D01*
X134647156Y-84058826D01*
X134649258Y-84057267D01*
X134651418Y-84055805D01*
X134653631Y-84054444D01*
X134655893Y-84053190D01*
X134658198Y-84052048D01*
X134660542Y-84051021D01*
X134662920Y-84050116D01*
X134665327Y-84049337D01*
X134667758Y-84048689D01*
X134670209Y-84048176D01*
X134672674Y-84047804D01*
X134675149Y-84047577D01*
X134677628Y-84047500D01*
X134730545Y-84047500D01*
X134746808Y-84047764D01*
G37*
G36*
X137087755Y-83439455D02*
G01*
X137120807Y-83440943D01*
X137152743Y-83443423D01*
X137183563Y-83446896D01*
X137213267Y-83451361D01*
X137241854Y-83456818D01*
X137269325Y-83463267D01*
X137295680Y-83470709D01*
X137320919Y-83479142D01*
X137345041Y-83488568D01*
X137368048Y-83498986D01*
X137389938Y-83510396D01*
X137410712Y-83522798D01*
X137430370Y-83536193D01*
X137448911Y-83550580D01*
X137466336Y-83565958D01*
X137482647Y-83581398D01*
X137497849Y-83597946D01*
X137511950Y-83615595D01*
X137524958Y-83634337D01*
X137536881Y-83654164D01*
X137547727Y-83675068D01*
X137557503Y-83697042D01*
X137566217Y-83720078D01*
X137573876Y-83744169D01*
X137580490Y-83769305D01*
X137586064Y-83795481D01*
X137590608Y-83822687D01*
X137594128Y-83850917D01*
X137596633Y-83880162D01*
X137598131Y-83910414D01*
X137598628Y-83941667D01*
X137598628Y-84089834D01*
X137857920Y-84089834D01*
X137857920Y-84417917D01*
X137598628Y-84417917D01*
X137598628Y-85851958D01*
X137132961Y-85851958D01*
X137132961Y-84417917D01*
X136831336Y-84417917D01*
X136831336Y-84142750D01*
X136831398Y-84139805D01*
X136831582Y-84136924D01*
X136831886Y-84134108D01*
X136832308Y-84131361D01*
X136832846Y-84128683D01*
X136833499Y-84126077D01*
X136834264Y-84123544D01*
X136835140Y-84121088D01*
X136836124Y-84118708D01*
X136837215Y-84116408D01*
X136838410Y-84114190D01*
X136839708Y-84112055D01*
X136841107Y-84110005D01*
X136842604Y-84108042D01*
X136844199Y-84106168D01*
X136845889Y-84104386D01*
X136847671Y-84102696D01*
X136849545Y-84101102D01*
X136851507Y-84099604D01*
X136853557Y-84098205D01*
X136855693Y-84096907D01*
X136857911Y-84095712D01*
X136860211Y-84094621D01*
X136862590Y-84093637D01*
X136865047Y-84092762D01*
X136867580Y-84091996D01*
X136870186Y-84091344D01*
X136872864Y-84090805D01*
X136875611Y-84090383D01*
X136878427Y-84090079D01*
X136881308Y-84089895D01*
X136884253Y-84089834D01*
X137132961Y-84089834D01*
X137132961Y-84010459D01*
X137132837Y-83995945D01*
X137132465Y-83982161D01*
X137131845Y-83969089D01*
X137130977Y-83956715D01*
X137129861Y-83945023D01*
X137128497Y-83933998D01*
X137126884Y-83923624D01*
X137125024Y-83913886D01*
X137122915Y-83904767D01*
X137120559Y-83896254D01*
X137117954Y-83888329D01*
X137115102Y-83880978D01*
X137112001Y-83874185D01*
X137108653Y-83867935D01*
X137105056Y-83862212D01*
X137101211Y-83857000D01*
X137096996Y-83852224D01*
X137092292Y-83847812D01*
X137087108Y-83843757D01*
X137081450Y-83840050D01*
X137075328Y-83836685D01*
X137068748Y-83833653D01*
X137061719Y-83830946D01*
X137054248Y-83828558D01*
X137046343Y-83826479D01*
X137038011Y-83824702D01*
X137029261Y-83823221D01*
X137020100Y-83822026D01*
X137010536Y-83821110D01*
X137000577Y-83820465D01*
X136990230Y-83820084D01*
X136979503Y-83819959D01*
X136836628Y-83819959D01*
X136836628Y-83497167D01*
X136836690Y-83494687D01*
X136836872Y-83492212D01*
X136837173Y-83489747D01*
X136837590Y-83487297D01*
X136838118Y-83484865D01*
X136838756Y-83482458D01*
X136839501Y-83480081D01*
X136840349Y-83477737D01*
X136841298Y-83475431D01*
X136842345Y-83473170D01*
X136843487Y-83470956D01*
X136844721Y-83468797D01*
X136846044Y-83466695D01*
X136847453Y-83464656D01*
X136848946Y-83462685D01*
X136850519Y-83460787D01*
X136852169Y-83458966D01*
X136853895Y-83457227D01*
X136855692Y-83455576D01*
X136857557Y-83454017D01*
X136859489Y-83452555D01*
X136861483Y-83451194D01*
X136863538Y-83449940D01*
X136865650Y-83448798D01*
X136867816Y-83447771D01*
X136870033Y-83446866D01*
X136872299Y-83446087D01*
X136874610Y-83445439D01*
X136876964Y-83444926D01*
X136879358Y-83444554D01*
X136881789Y-83444327D01*
X136884253Y-83444250D01*
X136900366Y-83442504D01*
X136916913Y-83441191D01*
X136933832Y-83440250D01*
X136951061Y-83439620D01*
X136986201Y-83439041D01*
X137021837Y-83438959D01*
X137053587Y-83438959D01*
X137087755Y-83439455D01*
G37*
G36*
X131928381Y-83439455D02*
G01*
X131961433Y-83440943D01*
X131993369Y-83443423D01*
X132024189Y-83446896D01*
X132053892Y-83451361D01*
X132082480Y-83456818D01*
X132109951Y-83463267D01*
X132136306Y-83470709D01*
X132161545Y-83479142D01*
X132185667Y-83488568D01*
X132208673Y-83498986D01*
X132230563Y-83510396D01*
X132251337Y-83522798D01*
X132270995Y-83536193D01*
X132289537Y-83550580D01*
X132306962Y-83565958D01*
X132323272Y-83581398D01*
X132338474Y-83597946D01*
X132352575Y-83615595D01*
X132365584Y-83634337D01*
X132377507Y-83654164D01*
X132388352Y-83675068D01*
X132398128Y-83697042D01*
X132406842Y-83720078D01*
X132414502Y-83744169D01*
X132421115Y-83769305D01*
X132426690Y-83795481D01*
X132431233Y-83822687D01*
X132434754Y-83850917D01*
X132437259Y-83880162D01*
X132438756Y-83910414D01*
X132439254Y-83941667D01*
X132439254Y-84089834D01*
X132698545Y-84089834D01*
X132698545Y-84417917D01*
X132439254Y-84417917D01*
X132439254Y-85851958D01*
X131973587Y-85851958D01*
X131973587Y-84412625D01*
X131677254Y-84412625D01*
X131677254Y-84142750D01*
X131677315Y-84139805D01*
X131677499Y-84136924D01*
X131677803Y-84134108D01*
X131678225Y-84131361D01*
X131678764Y-84128683D01*
X131679416Y-84126077D01*
X131680181Y-84123544D01*
X131681057Y-84121088D01*
X131682041Y-84118708D01*
X131683132Y-84116408D01*
X131684327Y-84114190D01*
X131685625Y-84112055D01*
X131687024Y-84110005D01*
X131688522Y-84108042D01*
X131690116Y-84106168D01*
X131691806Y-84104386D01*
X131693588Y-84102696D01*
X131695462Y-84101102D01*
X131697424Y-84099604D01*
X131699474Y-84098205D01*
X131701610Y-84096907D01*
X131703828Y-84095712D01*
X131706128Y-84094621D01*
X131708507Y-84093637D01*
X131710964Y-84092762D01*
X131713497Y-84091996D01*
X131716103Y-84091344D01*
X131718781Y-84090805D01*
X131721528Y-84090383D01*
X131724344Y-84090079D01*
X131727225Y-84089895D01*
X131730170Y-84089834D01*
X131978879Y-84089834D01*
X131978879Y-84010459D01*
X131978755Y-83995945D01*
X131978383Y-83982161D01*
X131977763Y-83969089D01*
X131976894Y-83956715D01*
X131975778Y-83945023D01*
X131974414Y-83933998D01*
X131972802Y-83923624D01*
X131970941Y-83913886D01*
X131968833Y-83904767D01*
X131966476Y-83896254D01*
X131963872Y-83888329D01*
X131961019Y-83880978D01*
X131957919Y-83874185D01*
X131954570Y-83867935D01*
X131950974Y-83862212D01*
X131947129Y-83857000D01*
X131942913Y-83852224D01*
X131938210Y-83847812D01*
X131933025Y-83843757D01*
X131927368Y-83840050D01*
X131921245Y-83836685D01*
X131914666Y-83833653D01*
X131907636Y-83830946D01*
X131900165Y-83828558D01*
X131892260Y-83826479D01*
X131883928Y-83824702D01*
X131875178Y-83823221D01*
X131866017Y-83822026D01*
X131856453Y-83821110D01*
X131846494Y-83820465D01*
X131836147Y-83820084D01*
X131825420Y-83819959D01*
X131677254Y-83819959D01*
X131677254Y-83497167D01*
X131677315Y-83494687D01*
X131677498Y-83492212D01*
X131677799Y-83489747D01*
X131678215Y-83487297D01*
X131678743Y-83484865D01*
X131679381Y-83482458D01*
X131680126Y-83480081D01*
X131680974Y-83477737D01*
X131681923Y-83475431D01*
X131682970Y-83473170D01*
X131684112Y-83470956D01*
X131685346Y-83468797D01*
X131686669Y-83466695D01*
X131688078Y-83464656D01*
X131689571Y-83462685D01*
X131691144Y-83460787D01*
X131692795Y-83458966D01*
X131694520Y-83457227D01*
X131696317Y-83455576D01*
X131698182Y-83454017D01*
X131700114Y-83452555D01*
X131702108Y-83451194D01*
X131704163Y-83449940D01*
X131706275Y-83448798D01*
X131708441Y-83447771D01*
X131710658Y-83446866D01*
X131712924Y-83446087D01*
X131715235Y-83445439D01*
X131717589Y-83444926D01*
X131719983Y-83444554D01*
X131722413Y-83444327D01*
X131724878Y-83444250D01*
X131740991Y-83442504D01*
X131757538Y-83441191D01*
X131774457Y-83440250D01*
X131791686Y-83439620D01*
X131826826Y-83439041D01*
X131862462Y-83438959D01*
X131894212Y-83438959D01*
X131928381Y-83439455D01*
G37*
G36*
X134484606Y-84795500D02*
G01*
X134488947Y-84844651D01*
X134491551Y-84895181D01*
X134492419Y-84947084D01*
X134491553Y-85002892D01*
X134488957Y-85057196D01*
X134484641Y-85109981D01*
X134478611Y-85161231D01*
X134470877Y-85210931D01*
X134461445Y-85259065D01*
X134450323Y-85305617D01*
X134437518Y-85350573D01*
X134423040Y-85393917D01*
X134406895Y-85435633D01*
X134389091Y-85475705D01*
X134369636Y-85514119D01*
X134348538Y-85550858D01*
X134325804Y-85585908D01*
X134301443Y-85619252D01*
X134275461Y-85650875D01*
X134247928Y-85680701D01*
X134218907Y-85708660D01*
X134188397Y-85734742D01*
X134156399Y-85758941D01*
X134122912Y-85781248D01*
X134087938Y-85801657D01*
X134051475Y-85820158D01*
X134013524Y-85836745D01*
X133974084Y-85851409D01*
X133933157Y-85864144D01*
X133890741Y-85874940D01*
X133846837Y-85883791D01*
X133801444Y-85890689D01*
X133754563Y-85895625D01*
X133706194Y-85898593D01*
X133656337Y-85899584D01*
X133616088Y-85899024D01*
X133576693Y-85897341D01*
X133538135Y-85894526D01*
X133500398Y-85890571D01*
X133463467Y-85885469D01*
X133427327Y-85879213D01*
X133391963Y-85871793D01*
X133357357Y-85863203D01*
X133323497Y-85853435D01*
X133290364Y-85842481D01*
X133257945Y-85830333D01*
X133226223Y-85816984D01*
X133195184Y-85802425D01*
X133164811Y-85786650D01*
X133135090Y-85769650D01*
X133106004Y-85751417D01*
X133082686Y-85735170D01*
X133060353Y-85718179D01*
X133038996Y-85700443D01*
X133018608Y-85681964D01*
X132999182Y-85662740D01*
X132980709Y-85642773D01*
X132963181Y-85622061D01*
X132946592Y-85600605D01*
X132930933Y-85578404D01*
X132916196Y-85555460D01*
X132902374Y-85531772D01*
X132889458Y-85507339D01*
X132877442Y-85482162D01*
X132866318Y-85456241D01*
X132856077Y-85429576D01*
X132846712Y-85402167D01*
X132845827Y-85399176D01*
X132845155Y-85396162D01*
X132844690Y-85393133D01*
X132844428Y-85390096D01*
X132844363Y-85387058D01*
X132844491Y-85384029D01*
X132844807Y-85381015D01*
X132845306Y-85378024D01*
X132845984Y-85375064D01*
X132846835Y-85372143D01*
X132847854Y-85369269D01*
X132849037Y-85366448D01*
X132850379Y-85363690D01*
X132851876Y-85361002D01*
X132853521Y-85358391D01*
X132855311Y-85355865D01*
X132857240Y-85353432D01*
X132859304Y-85351100D01*
X132861498Y-85348877D01*
X132863817Y-85346770D01*
X132866256Y-85344787D01*
X132868810Y-85342936D01*
X132871475Y-85341224D01*
X132874245Y-85339659D01*
X132877116Y-85338250D01*
X132880083Y-85337003D01*
X132883141Y-85335927D01*
X132886286Y-85335029D01*
X132889511Y-85334317D01*
X132892814Y-85333799D01*
X132896188Y-85333483D01*
X132899628Y-85333375D01*
X133301795Y-85333375D01*
X133305019Y-85343235D01*
X133308740Y-85352971D01*
X133312957Y-85362583D01*
X133317670Y-85372071D01*
X133322879Y-85381435D01*
X133328584Y-85390674D01*
X133334785Y-85399790D01*
X133341482Y-85408782D01*
X133348676Y-85417649D01*
X133356365Y-85426393D01*
X133364551Y-85435013D01*
X133373232Y-85443508D01*
X133382410Y-85451880D01*
X133392084Y-85460128D01*
X133402254Y-85468251D01*
X133412920Y-85476251D01*
X133424827Y-85483008D01*
X133436743Y-85489387D01*
X133448674Y-85495377D01*
X133460628Y-85500972D01*
X133472613Y-85506165D01*
X133484636Y-85510946D01*
X133496707Y-85515309D01*
X133508831Y-85519245D01*
X133521018Y-85522747D01*
X133533274Y-85525808D01*
X133545608Y-85528419D01*
X133558027Y-85530573D01*
X133570539Y-85532261D01*
X133583152Y-85533477D01*
X133595874Y-85534212D01*
X133608711Y-85534459D01*
X133636056Y-85533903D01*
X133662517Y-85532247D01*
X133688078Y-85529505D01*
X133712726Y-85525694D01*
X133736442Y-85520829D01*
X133759214Y-85514925D01*
X133781024Y-85507998D01*
X133801857Y-85500063D01*
X133821698Y-85491136D01*
X133840532Y-85481232D01*
X133858342Y-85470367D01*
X133875114Y-85458556D01*
X133890831Y-85445816D01*
X133898290Y-85439101D01*
X133905479Y-85432160D01*
X133912397Y-85424994D01*
X133919041Y-85417606D01*
X133925411Y-85409996D01*
X133931503Y-85402167D01*
X133941177Y-85388836D01*
X133950354Y-85374644D01*
X133959036Y-85359600D01*
X133967222Y-85343711D01*
X133974911Y-85326984D01*
X133982105Y-85309428D01*
X133988802Y-85291051D01*
X133995003Y-85271860D01*
X134000708Y-85251862D01*
X134005917Y-85231066D01*
X134010630Y-85209480D01*
X134014847Y-85187110D01*
X134018568Y-85163966D01*
X134021792Y-85140054D01*
X134024521Y-85115382D01*
X134026753Y-85089959D01*
X132830836Y-85089959D01*
X132826951Y-85070115D01*
X132825163Y-85060193D01*
X132823561Y-85050271D01*
X132822207Y-85040349D01*
X132821163Y-85030427D01*
X132820491Y-85020506D01*
X132820314Y-85015545D01*
X132820253Y-85010584D01*
X132820253Y-84984125D01*
X132821120Y-84928436D01*
X132823716Y-84874468D01*
X132828032Y-84822205D01*
X132831439Y-84793625D01*
X133307087Y-84793625D01*
X134026753Y-84793625D01*
X134023593Y-84776012D01*
X134020076Y-84758888D01*
X134016219Y-84742244D01*
X134012035Y-84726074D01*
X134007542Y-84710368D01*
X134002754Y-84695119D01*
X133997687Y-84680321D01*
X133992357Y-84665964D01*
X133986778Y-84652041D01*
X133980967Y-84638544D01*
X133974939Y-84625466D01*
X133968710Y-84612799D01*
X133962294Y-84600535D01*
X133955708Y-84588666D01*
X133948967Y-84577185D01*
X133942086Y-84566083D01*
X133929810Y-84549714D01*
X133916806Y-84534344D01*
X133903088Y-84519982D01*
X133888673Y-84506635D01*
X133873576Y-84494311D01*
X133857812Y-84483019D01*
X133841397Y-84472765D01*
X133824347Y-84463558D01*
X133806676Y-84455404D01*
X133788401Y-84448313D01*
X133769536Y-84442291D01*
X133750098Y-84437347D01*
X133730102Y-84433488D01*
X133709563Y-84430722D01*
X133688497Y-84429057D01*
X133666920Y-84428500D01*
X133644412Y-84428936D01*
X133622540Y-84430247D01*
X133601319Y-84432442D01*
X133580765Y-84435528D01*
X133560893Y-84439514D01*
X133541718Y-84444406D01*
X133523257Y-84450213D01*
X133505524Y-84456943D01*
X133488535Y-84464603D01*
X133472306Y-84473200D01*
X133456852Y-84482744D01*
X133449421Y-84487872D01*
X133442189Y-84493240D01*
X133435159Y-84498849D01*
X133428332Y-84504698D01*
X133421711Y-84510790D01*
X133415297Y-84517125D01*
X133409092Y-84523704D01*
X133403099Y-84530529D01*
X133397318Y-84537599D01*
X133391753Y-84544917D01*
X133383070Y-84556140D01*
X133374875Y-84567975D01*
X133367161Y-84580415D01*
X133359920Y-84593451D01*
X133353144Y-84607077D01*
X133346826Y-84621284D01*
X133340956Y-84636065D01*
X133335529Y-84651412D01*
X133330536Y-84667316D01*
X133325969Y-84683771D01*
X133321821Y-84700769D01*
X133318083Y-84718302D01*
X133314749Y-84736361D01*
X133311810Y-84754940D01*
X133309258Y-84774031D01*
X133307087Y-84793625D01*
X132831439Y-84793625D01*
X132834061Y-84771632D01*
X132841796Y-84722733D01*
X132851228Y-84675493D01*
X132862350Y-84629896D01*
X132875154Y-84585927D01*
X132889633Y-84543571D01*
X132905778Y-84502811D01*
X132923582Y-84463632D01*
X132943037Y-84426020D01*
X132964135Y-84389957D01*
X132986868Y-84355430D01*
X133011230Y-84322421D01*
X133037212Y-84290917D01*
X133064745Y-84261150D01*
X133093766Y-84233360D01*
X133124276Y-84207538D01*
X133156274Y-84183678D01*
X133189760Y-84161771D01*
X133224735Y-84141810D01*
X133261198Y-84123786D01*
X133299149Y-84107693D01*
X133338589Y-84093522D01*
X133379516Y-84081266D01*
X133421932Y-84070916D01*
X133465837Y-84062466D01*
X133511229Y-84055907D01*
X133558110Y-84051231D01*
X133606479Y-84048432D01*
X133656337Y-84047500D01*
X133704332Y-84048430D01*
X133751080Y-84051221D01*
X133796572Y-84055872D01*
X133840801Y-84062383D01*
X133883758Y-84070755D01*
X133925436Y-84080987D01*
X133965828Y-84093079D01*
X134004925Y-84107032D01*
X134042720Y-84122845D01*
X134079205Y-84140518D01*
X134114372Y-84160052D01*
X134148213Y-84181446D01*
X134180722Y-84204700D01*
X134211889Y-84229815D01*
X134241708Y-84256790D01*
X134270170Y-84285625D01*
X134297083Y-84316134D01*
X134322260Y-84348123D01*
X134345700Y-84381585D01*
X134367404Y-84416511D01*
X134387372Y-84452895D01*
X134405603Y-84490729D01*
X134422098Y-84530004D01*
X134436857Y-84570714D01*
X134449879Y-84612850D01*
X134461166Y-84656404D01*
X134470715Y-84701369D01*
X134478529Y-84747737D01*
X134484367Y-84793625D01*
X134484606Y-84795500D01*
G37*
%TD*%
%LPC*%
%TO.C,REF\u002A\u002A*%
D12*
X152458581Y-112090916D02*
G75*
G03*
X147458581Y-112090916I-2500000J0D01*
G01*
X147458581Y-112090916D02*
G75*
G03*
X152458581Y-112090916I2500000J0D01*
G01*
%TO.C,branding-logo-1*%
G36*
X134492313Y-77179188D02*
G01*
X134920938Y-77893564D01*
X134858955Y-77970954D01*
X134792310Y-78047972D01*
X134721362Y-78124061D01*
X134646474Y-78198661D01*
X134568003Y-78271214D01*
X134486313Y-78341163D01*
X134401762Y-78407950D01*
X134314711Y-78471016D01*
X134225520Y-78529803D01*
X134134551Y-78583753D01*
X134042163Y-78632308D01*
X133948718Y-78674910D01*
X133854574Y-78711001D01*
X133807353Y-78726430D01*
X133760093Y-78740023D01*
X133712839Y-78751708D01*
X133665636Y-78761417D01*
X133618529Y-78769079D01*
X133571562Y-78774625D01*
X133597700Y-78742714D01*
X133625140Y-78703885D01*
X133653325Y-78658661D01*
X133681695Y-78607566D01*
X133709693Y-78551121D01*
X133736761Y-78489852D01*
X133762341Y-78424280D01*
X133785875Y-78354930D01*
X133806804Y-78282324D01*
X133824570Y-78206985D01*
X133838616Y-78129438D01*
X133848383Y-78050204D01*
X133851487Y-78010119D01*
X133853313Y-77969808D01*
X133853789Y-77929337D01*
X133852847Y-77888772D01*
X133850417Y-77848178D01*
X133846429Y-77807620D01*
X133840813Y-77767164D01*
X133833500Y-77726875D01*
X133823396Y-77756737D01*
X133812484Y-77785319D01*
X133800835Y-77812643D01*
X133788526Y-77838729D01*
X133775629Y-77863600D01*
X133762219Y-77887278D01*
X133748371Y-77909785D01*
X133734157Y-77931142D01*
X133704932Y-77970494D01*
X133675137Y-78005510D01*
X133645366Y-78036362D01*
X133616211Y-78063227D01*
X133588265Y-78086278D01*
X133562121Y-78105690D01*
X133538373Y-78121636D01*
X133517612Y-78134292D01*
X133487428Y-78150431D01*
X133476313Y-78155500D01*
X133480700Y-78142494D01*
X133492063Y-78105023D01*
X133499518Y-78077841D01*
X133507706Y-78045414D01*
X133516289Y-78008035D01*
X133524930Y-77965993D01*
X133533292Y-77919579D01*
X133541037Y-77869084D01*
X133547829Y-77814799D01*
X133553331Y-77757013D01*
X133557205Y-77696019D01*
X133559114Y-77632106D01*
X133559226Y-77599146D01*
X133558720Y-77565566D01*
X133557555Y-77531401D01*
X133555688Y-77496688D01*
X133553114Y-77455357D01*
X133551471Y-77414585D01*
X133550944Y-77374184D01*
X133551719Y-77333969D01*
X133553982Y-77293755D01*
X133555730Y-77273589D01*
X133557920Y-77253354D01*
X133560575Y-77233026D01*
X133563718Y-77212582D01*
X133567373Y-77191998D01*
X133571563Y-77171251D01*
X134492313Y-77179188D01*
G37*
G36*
X134473250Y-77182969D02*
G01*
X134901875Y-77897345D01*
X134839892Y-77974735D01*
X134773247Y-78051753D01*
X134702299Y-78127842D01*
X134627411Y-78202442D01*
X134548940Y-78274995D01*
X134467250Y-78344944D01*
X134382699Y-78411731D01*
X134295648Y-78474797D01*
X134206457Y-78533584D01*
X134115488Y-78587534D01*
X134023100Y-78636089D01*
X133929655Y-78678691D01*
X133835511Y-78714782D01*
X133788290Y-78730211D01*
X133741030Y-78743804D01*
X133693776Y-78755489D01*
X133646573Y-78765198D01*
X133599466Y-78772860D01*
X133552499Y-78778406D01*
X133578637Y-78746495D01*
X133606077Y-78707666D01*
X133634262Y-78662442D01*
X133662632Y-78611347D01*
X133690630Y-78554902D01*
X133717698Y-78493633D01*
X133743278Y-78428061D01*
X133766812Y-78358711D01*
X133787741Y-78286105D01*
X133805507Y-78210766D01*
X133819553Y-78133219D01*
X133829320Y-78053985D01*
X133832424Y-78013900D01*
X133834250Y-77973589D01*
X133834726Y-77933118D01*
X133833784Y-77892553D01*
X133831354Y-77851959D01*
X133827366Y-77811401D01*
X133821750Y-77770945D01*
X133814437Y-77730656D01*
X133804333Y-77760518D01*
X133793421Y-77789100D01*
X133781772Y-77816424D01*
X133769463Y-77842510D01*
X133756566Y-77867381D01*
X133743156Y-77891059D01*
X133729308Y-77913566D01*
X133715094Y-77934923D01*
X133685869Y-77974275D01*
X133656074Y-78009291D01*
X133626303Y-78040143D01*
X133597148Y-78067008D01*
X133569202Y-78090059D01*
X133543058Y-78109471D01*
X133519310Y-78125417D01*
X133498549Y-78138073D01*
X133468365Y-78154212D01*
X133457250Y-78159281D01*
X133461637Y-78146275D01*
X133473000Y-78108804D01*
X133480455Y-78081622D01*
X133488643Y-78049195D01*
X133497226Y-78011816D01*
X133505867Y-77969774D01*
X133514229Y-77923360D01*
X133521974Y-77872865D01*
X133528766Y-77818580D01*
X133534268Y-77760794D01*
X133538142Y-77699800D01*
X133540051Y-77635887D01*
X133540163Y-77602927D01*
X133539657Y-77569347D01*
X133538492Y-77535182D01*
X133536625Y-77500469D01*
X133534051Y-77459138D01*
X133532408Y-77418366D01*
X133531881Y-77377965D01*
X133532656Y-77337750D01*
X133534919Y-77297536D01*
X133536667Y-77277370D01*
X133538857Y-77257135D01*
X133541512Y-77236807D01*
X133544655Y-77216363D01*
X133548310Y-77195779D01*
X133552500Y-77175032D01*
X134473250Y-77182969D01*
G37*
G36*
X132865125Y-77155376D02*
G01*
X132853399Y-77173336D01*
X132842010Y-77191529D01*
X132820105Y-77228798D01*
X132799129Y-77267555D01*
X132778805Y-77308173D01*
X132758853Y-77351023D01*
X132738994Y-77396477D01*
X132718948Y-77444908D01*
X132698438Y-77496688D01*
X132678507Y-77565587D01*
X132662890Y-77635253D01*
X132650877Y-77705524D01*
X132641759Y-77776237D01*
X132629372Y-77918337D01*
X132620055Y-78060251D01*
X132608133Y-78200676D01*
X132599423Y-78269924D01*
X132587933Y-78338311D01*
X132572955Y-78405675D01*
X132553780Y-78471853D01*
X132529698Y-78536683D01*
X132500000Y-78600000D01*
X132534454Y-78577752D01*
X132566524Y-78555585D01*
X132596431Y-78533394D01*
X132624396Y-78511076D01*
X132650641Y-78488525D01*
X132675385Y-78465636D01*
X132698851Y-78442307D01*
X132721258Y-78418430D01*
X132742829Y-78393902D01*
X132763783Y-78368619D01*
X132784342Y-78342475D01*
X132804726Y-78315367D01*
X132845856Y-78257835D01*
X132888938Y-78195188D01*
X132915867Y-78402803D01*
X132926523Y-78509681D01*
X132934703Y-78617860D01*
X132939953Y-78726784D01*
X132941819Y-78835893D01*
X132939848Y-78944631D01*
X132933587Y-79052438D01*
X132922582Y-79158757D01*
X132906379Y-79263030D01*
X132884526Y-79364698D01*
X132856568Y-79463204D01*
X132822053Y-79557989D01*
X132780526Y-79648495D01*
X132731535Y-79734164D01*
X132704099Y-79775010D01*
X132674626Y-79814438D01*
X132704702Y-79819477D01*
X132740971Y-79823490D01*
X132790216Y-79826469D01*
X132851553Y-79826889D01*
X132924099Y-79823228D01*
X133006970Y-79813964D01*
X133052001Y-79806753D01*
X133099282Y-79797571D01*
X133148702Y-79786226D01*
X133200152Y-79772528D01*
X133253520Y-79756287D01*
X133308696Y-79737311D01*
X133365569Y-79715412D01*
X133424030Y-79690397D01*
X133483967Y-79662078D01*
X133545270Y-79630263D01*
X133607829Y-79594763D01*
X133671534Y-79555386D01*
X133736273Y-79511943D01*
X133801937Y-79464242D01*
X133868414Y-79412095D01*
X133935595Y-79355309D01*
X134003369Y-79293695D01*
X134071626Y-79227063D01*
X134076259Y-79245800D01*
X134079763Y-79264782D01*
X134082171Y-79283972D01*
X134083516Y-79303337D01*
X134083833Y-79322842D01*
X134083154Y-79342451D01*
X134081513Y-79362130D01*
X134078943Y-79381844D01*
X134071151Y-79421237D01*
X134060045Y-79460351D01*
X134045893Y-79498907D01*
X134028962Y-79536625D01*
X134009519Y-79573228D01*
X133987832Y-79608435D01*
X133964169Y-79641968D01*
X133938797Y-79673547D01*
X133911982Y-79702895D01*
X133883994Y-79729730D01*
X133855098Y-79753775D01*
X133825563Y-79774751D01*
X133883732Y-79764410D01*
X133958284Y-79745233D01*
X134046625Y-79717126D01*
X134146163Y-79679996D01*
X134254306Y-79633751D01*
X134368460Y-79578297D01*
X134486032Y-79513541D01*
X134604429Y-79439391D01*
X134721060Y-79355752D01*
X134777902Y-79310346D01*
X134833330Y-79262533D01*
X134887020Y-79212302D01*
X134938647Y-79159640D01*
X134987888Y-79104537D01*
X135034419Y-79046980D01*
X135077914Y-78986959D01*
X135118051Y-78924461D01*
X135154505Y-78859474D01*
X135186952Y-78791988D01*
X135215068Y-78721991D01*
X135238528Y-78649470D01*
X135257010Y-78574414D01*
X135270187Y-78496813D01*
X136167125Y-80012875D01*
X135103500Y-79909687D01*
X135377344Y-80394867D01*
X135503475Y-80613133D01*
X135639281Y-80843956D01*
X135778063Y-81074221D01*
X135913125Y-81290813D01*
X135556558Y-80943671D01*
X135391157Y-80786146D01*
X135233477Y-80638945D01*
X135082866Y-80501791D01*
X134938673Y-80374403D01*
X134800247Y-80256503D01*
X134666938Y-80147812D01*
X134654171Y-80281422D01*
X134645543Y-80420462D01*
X134640916Y-80565153D01*
X134640148Y-80715716D01*
X134643102Y-80872371D01*
X134649636Y-81035340D01*
X134672891Y-81381102D01*
X134708795Y-81754769D01*
X134756234Y-82158108D01*
X134814091Y-82592888D01*
X134881250Y-83060875D01*
X134713183Y-82641800D01*
X134553208Y-82253234D01*
X134399745Y-81894435D01*
X134251211Y-81564656D01*
X134106026Y-81263155D01*
X133962609Y-80989188D01*
X133819377Y-80742009D01*
X133747337Y-80628233D01*
X133674750Y-80520875D01*
X133622195Y-80677563D01*
X133571314Y-80844204D01*
X133521550Y-81021077D01*
X133472344Y-81208461D01*
X133423137Y-81406635D01*
X133373373Y-81615878D01*
X133269938Y-82068687D01*
X133265349Y-81572345D01*
X133259473Y-81343987D01*
X133251086Y-81128094D01*
X133240094Y-80924106D01*
X133226405Y-80731467D01*
X133209926Y-80549617D01*
X133190563Y-80378000D01*
X133086149Y-80463215D01*
X132981072Y-80555198D01*
X132875041Y-80654018D01*
X132767767Y-80759744D01*
X132658958Y-80872446D01*
X132548323Y-80992195D01*
X132435572Y-81119059D01*
X132320414Y-81253109D01*
X132202559Y-81394414D01*
X132081716Y-81543045D01*
X131829902Y-81862560D01*
X131562647Y-82212213D01*
X131277626Y-82592562D01*
X131617201Y-81790999D01*
X131763456Y-81429331D01*
X131892781Y-81091383D01*
X132004247Y-80775386D01*
X132096924Y-80479575D01*
X132169881Y-80202181D01*
X132198674Y-80069838D01*
X132222188Y-79941437D01*
X132075918Y-80016596D01*
X131922671Y-80099195D01*
X131762169Y-80189236D01*
X131594133Y-80286719D01*
X131418283Y-80391643D01*
X131234341Y-80504008D01*
X131042027Y-80623814D01*
X130841063Y-80751062D01*
X131184855Y-80398960D01*
X131342241Y-80234675D01*
X131489953Y-80077367D01*
X131627991Y-79926384D01*
X131756355Y-79781075D01*
X131875046Y-79640789D01*
X131984062Y-79504875D01*
X131850452Y-79489316D01*
X131711412Y-79478257D01*
X131566721Y-79471546D01*
X131416159Y-79469032D01*
X131259504Y-79470565D01*
X131096535Y-79475993D01*
X130750773Y-79497930D01*
X130377106Y-79533633D01*
X129973767Y-79581894D01*
X129538987Y-79641503D01*
X129071000Y-79711250D01*
X129490075Y-79543183D01*
X129878641Y-79383208D01*
X130237440Y-79229745D01*
X130567219Y-79081211D01*
X130868720Y-78936026D01*
X131142687Y-78792609D01*
X131389866Y-78649377D01*
X131503642Y-78577337D01*
X131611000Y-78504751D01*
X131454312Y-78454475D01*
X131287671Y-78404664D01*
X131110798Y-78355039D01*
X130923414Y-78305321D01*
X130725240Y-78255231D01*
X130515997Y-78204490D01*
X130063188Y-78099938D01*
X130336380Y-78096528D01*
X130622038Y-78087536D01*
X131170469Y-78060251D01*
X131753875Y-78020563D01*
X131055375Y-77131563D01*
X132865125Y-77155376D01*
G37*
G36*
X132846062Y-77159157D02*
G01*
X132834336Y-77177117D01*
X132822947Y-77195310D01*
X132801042Y-77232579D01*
X132780066Y-77271336D01*
X132759742Y-77311954D01*
X132739790Y-77354804D01*
X132719931Y-77400258D01*
X132699885Y-77448689D01*
X132679375Y-77500469D01*
X132659444Y-77569368D01*
X132643827Y-77639034D01*
X132631814Y-77709305D01*
X132622696Y-77780018D01*
X132610309Y-77922118D01*
X132600992Y-78064032D01*
X132589070Y-78204457D01*
X132580360Y-78273705D01*
X132568870Y-78342092D01*
X132553892Y-78409456D01*
X132534717Y-78475634D01*
X132510635Y-78540464D01*
X132480937Y-78603781D01*
X132515391Y-78581533D01*
X132547461Y-78559366D01*
X132577368Y-78537175D01*
X132605333Y-78514857D01*
X132631578Y-78492306D01*
X132656322Y-78469417D01*
X132679788Y-78446088D01*
X132702195Y-78422211D01*
X132723766Y-78397683D01*
X132744720Y-78372400D01*
X132765279Y-78346256D01*
X132785663Y-78319148D01*
X132826793Y-78261616D01*
X132869875Y-78198969D01*
X132896804Y-78406584D01*
X132907460Y-78513462D01*
X132915640Y-78621641D01*
X132920890Y-78730565D01*
X132922756Y-78839674D01*
X132920785Y-78948412D01*
X132914524Y-79056219D01*
X132903519Y-79162538D01*
X132887316Y-79266811D01*
X132865463Y-79368479D01*
X132837505Y-79466985D01*
X132802990Y-79561770D01*
X132761463Y-79652276D01*
X132712472Y-79737945D01*
X132685036Y-79778791D01*
X132655563Y-79818219D01*
X132685639Y-79823258D01*
X132721908Y-79827271D01*
X132771153Y-79830250D01*
X132832490Y-79830670D01*
X132905036Y-79827009D01*
X132987907Y-79817745D01*
X133032938Y-79810534D01*
X133080219Y-79801352D01*
X133129639Y-79790007D01*
X133181089Y-79776309D01*
X133234457Y-79760068D01*
X133289633Y-79741092D01*
X133346506Y-79719193D01*
X133404967Y-79694178D01*
X133464904Y-79665859D01*
X133526207Y-79634044D01*
X133588766Y-79598544D01*
X133652471Y-79559167D01*
X133717210Y-79515724D01*
X133782874Y-79468023D01*
X133849351Y-79415876D01*
X133916532Y-79359090D01*
X133984306Y-79297476D01*
X134052563Y-79230844D01*
X134057196Y-79249581D01*
X134060700Y-79268563D01*
X134063108Y-79287753D01*
X134064453Y-79307118D01*
X134064770Y-79326623D01*
X134064091Y-79346232D01*
X134062450Y-79365911D01*
X134059880Y-79385625D01*
X134052088Y-79425018D01*
X134040982Y-79464132D01*
X134026830Y-79502688D01*
X134009899Y-79540406D01*
X133990456Y-79577009D01*
X133968769Y-79612216D01*
X133945106Y-79645749D01*
X133919734Y-79677328D01*
X133892919Y-79706676D01*
X133864931Y-79733511D01*
X133836035Y-79757556D01*
X133806500Y-79778532D01*
X133864669Y-79768191D01*
X133939221Y-79749014D01*
X134027562Y-79720907D01*
X134127100Y-79683777D01*
X134235243Y-79637532D01*
X134349397Y-79582078D01*
X134466969Y-79517322D01*
X134585366Y-79443172D01*
X134701997Y-79359533D01*
X134758839Y-79314127D01*
X134814267Y-79266314D01*
X134867957Y-79216083D01*
X134919584Y-79163421D01*
X134968825Y-79108318D01*
X135015356Y-79050761D01*
X135058851Y-78990740D01*
X135098988Y-78928242D01*
X135135442Y-78863255D01*
X135167889Y-78795769D01*
X135196005Y-78725772D01*
X135219465Y-78653251D01*
X135237947Y-78578195D01*
X135251124Y-78500594D01*
X136148062Y-80016656D01*
X135084437Y-79913468D01*
X135358281Y-80398648D01*
X135484412Y-80616914D01*
X135620218Y-80847737D01*
X135759000Y-81078002D01*
X135894062Y-81294594D01*
X135537495Y-80947452D01*
X135372094Y-80789927D01*
X135214414Y-80642726D01*
X135063803Y-80505572D01*
X134919610Y-80378184D01*
X134781184Y-80260284D01*
X134647875Y-80151593D01*
X134635108Y-80285203D01*
X134626480Y-80424243D01*
X134621853Y-80568934D01*
X134621085Y-80719497D01*
X134624039Y-80876152D01*
X134630573Y-81039121D01*
X134653828Y-81384883D01*
X134689732Y-81758550D01*
X134737171Y-82161889D01*
X134795028Y-82596669D01*
X134862187Y-83064656D01*
X134694120Y-82645581D01*
X134534145Y-82257015D01*
X134380682Y-81898216D01*
X134232148Y-81568437D01*
X134086963Y-81266936D01*
X133943546Y-80992969D01*
X133800314Y-80745790D01*
X133728274Y-80632014D01*
X133655687Y-80524656D01*
X133603132Y-80681344D01*
X133552251Y-80847985D01*
X133502487Y-81024858D01*
X133453281Y-81212242D01*
X133404074Y-81410416D01*
X133354310Y-81619659D01*
X133250875Y-82072468D01*
X133246286Y-81576126D01*
X133240410Y-81347768D01*
X133232023Y-81131875D01*
X133221031Y-80927887D01*
X133207342Y-80735248D01*
X133190863Y-80553398D01*
X133171500Y-80381781D01*
X133067086Y-80466996D01*
X132962009Y-80558979D01*
X132855978Y-80657799D01*
X132748704Y-80763525D01*
X132639895Y-80876227D01*
X132529260Y-80995976D01*
X132416509Y-81122840D01*
X132301351Y-81256890D01*
X132183496Y-81398195D01*
X132062653Y-81546826D01*
X131810839Y-81866341D01*
X131543584Y-82215994D01*
X131258563Y-82596343D01*
X131598138Y-81794780D01*
X131744393Y-81433112D01*
X131873718Y-81095164D01*
X131985184Y-80779167D01*
X132077861Y-80483356D01*
X132150818Y-80205962D01*
X132179611Y-80073619D01*
X132203125Y-79945218D01*
X132056855Y-80020377D01*
X131903608Y-80102976D01*
X131743106Y-80193017D01*
X131575070Y-80290500D01*
X131399220Y-80395424D01*
X131215278Y-80507789D01*
X131022964Y-80627595D01*
X130822000Y-80754843D01*
X131165792Y-80402741D01*
X131323178Y-80238456D01*
X131470890Y-80081148D01*
X131608928Y-79930165D01*
X131737292Y-79784856D01*
X131855983Y-79644570D01*
X131964999Y-79508656D01*
X131831389Y-79493097D01*
X131692349Y-79482038D01*
X131547658Y-79475327D01*
X131397096Y-79472813D01*
X131240441Y-79474346D01*
X131077472Y-79479774D01*
X130731710Y-79501711D01*
X130358043Y-79537414D01*
X129954704Y-79585675D01*
X129519924Y-79645284D01*
X129051937Y-79715031D01*
X129471012Y-79546964D01*
X129859578Y-79386989D01*
X130218377Y-79233526D01*
X130548156Y-79084992D01*
X130849657Y-78939807D01*
X131123624Y-78796390D01*
X131370803Y-78653158D01*
X131484579Y-78581118D01*
X131591937Y-78508532D01*
X131435249Y-78458256D01*
X131268608Y-78408445D01*
X131091735Y-78358820D01*
X130904351Y-78309102D01*
X130706177Y-78259012D01*
X130496934Y-78208271D01*
X130044125Y-78103719D01*
X130317317Y-78100309D01*
X130602975Y-78091317D01*
X131151406Y-78064032D01*
X131734812Y-78024344D01*
X131036312Y-77135344D01*
X132846062Y-77159157D01*
G37*
%TD*%
D13*
%TO.C,REF\u002A\u002A*%
X100700000Y-67000000D03*
X100700000Y-66250000D03*
X100700000Y-65500000D03*
X100700000Y-64750000D03*
X100700000Y-64000000D03*
%TD*%
D14*
%TO.C,J1*%
X115980000Y-76100000D03*
D15*
X116000000Y-72100000D03*
D14*
X104780000Y-76100000D03*
D15*
X104760000Y-72100000D03*
%TD*%
D13*
%TO.C,REF\u002A\u002A*%
X148600000Y-99250000D03*
X149350000Y-99250000D03*
X150100000Y-99250000D03*
X150850000Y-99250000D03*
X151600000Y-99250000D03*
%TD*%
%TO.C,REF\u002A\u002A*%
X100700000Y-129900000D03*
X100700000Y-129150000D03*
X100700000Y-128400000D03*
X100700000Y-127650000D03*
X100700000Y-126900000D03*
%TD*%
%TO.C,REF\u002A\u002A*%
X100700000Y-106000000D03*
X100700000Y-105250000D03*
X100700000Y-104500000D03*
X100700000Y-103750000D03*
X100700000Y-103000000D03*
%TD*%
%TO.C,REF\u002A\u002A*%
X144450000Y-70750000D03*
X145200000Y-70750000D03*
X145950000Y-70750000D03*
X146700000Y-70750000D03*
X147450000Y-70750000D03*
%TD*%
%TO.C,REF\u002A\u002A*%
X132450000Y-70700000D03*
X133200000Y-70700000D03*
X133950000Y-70700000D03*
X134700000Y-70700000D03*
X135450000Y-70700000D03*
%TD*%
%TO.C,REF\u002A\u002A*%
X132450000Y-99300000D03*
X133200000Y-99300000D03*
X133950000Y-99300000D03*
X134700000Y-99300000D03*
X135450000Y-99300000D03*
%TD*%
%TO.C,REF\u002A\u002A*%
X142797232Y-116506712D03*
X143172232Y-117156232D03*
X143547232Y-117805750D03*
X143922231Y-118455270D03*
X144297231Y-119104790D03*
X148600002Y-102050000D03*
X149350001Y-102050000D03*
X150100001Y-102050000D03*
X150850001Y-102050000D03*
X151600000Y-102050000D03*
X154554775Y-119692314D03*
X155085105Y-119161984D03*
X155615434Y-118631655D03*
X156145764Y-118101324D03*
X156676093Y-117570994D03*
%TD*%
%TO.C,REF\u002A\u002A*%
X139300000Y-77050000D03*
X139300000Y-76300000D03*
X139300000Y-75550000D03*
X139300000Y-74800000D03*
X139300000Y-74050000D03*
%TD*%
%TO.C,REF\u002A\u002A*%
X100700000Y-77050000D03*
X100700000Y-76300000D03*
X100700000Y-75550000D03*
X100700000Y-74800000D03*
X100700000Y-74050000D03*
%TD*%
%TO.C,REF\u002A\u002A*%
X157250000Y-70750000D03*
X158000000Y-70750000D03*
X158750000Y-70750000D03*
X159500000Y-70750000D03*
X160250000Y-70750000D03*
%TD*%
%LPD*%
M02*
