%TF.GenerationSoftware,KiCad,Pcbnew,7.0.10*%
%TF.CreationDate,2024-04-07T01:49:58-04:00*%
%TF.ProjectId,pixie-rev-4,70697869-652d-4726-9576-2d342e6b6963,rev?*%
%TF.SameCoordinates,Original*%
%TF.FileFunction,Copper,L4,Bot*%
%TF.FilePolarity,Positive*%
%FSLAX46Y46*%
G04 Gerber Fmt 4.6, Leading zero omitted, Abs format (unit mm)*
G04 Created by KiCad (PCBNEW 7.0.10) date 2024-04-07 01:49:58*
%MOMM*%
%LPD*%
G01*
G04 APERTURE LIST*
%TA.AperFunction,EtchedComponent*%
%ADD10C,5.000000*%
%TD*%
%TA.AperFunction,ComponentPad*%
%ADD11O,1.300000X2.100000*%
%TD*%
%TA.AperFunction,ComponentPad*%
%ADD12O,1.300000X2.500000*%
%TD*%
%TA.AperFunction,ComponentPad*%
%ADD13R,0.900000X0.500000*%
%TD*%
%TA.AperFunction,ViaPad*%
%ADD14C,0.600000*%
%TD*%
%TA.AperFunction,ViaPad*%
%ADD15C,0.808000*%
%TD*%
%TA.AperFunction,Conductor*%
%ADD16C,0.508000*%
%TD*%
%TA.AperFunction,Conductor*%
%ADD17C,0.254000*%
%TD*%
G04 APERTURE END LIST*
%TO.C,REF\u002A\u002A*%
D10*
X152458581Y-112090916D02*
G75*
G03*
X147458581Y-112090916I-2500000J0D01*
G01*
X147458581Y-112090916D02*
G75*
G03*
X152458581Y-112090916I2500000J0D01*
G01*
%TD*%
D11*
%TO.P,J1,S1,SHEILD*%
%TO.N,unconnected-(J1-SHEILD-PadS1)*%
X115980000Y-76100000D03*
D12*
%TO.P,J1,S2,SHEILD*%
%TO.N,unconnected-(J1-SHEILD-PadS2)*%
X116000000Y-72100000D03*
D11*
%TO.P,J1,S3,SHEILD*%
%TO.N,unconnected-(J1-SHEILD-PadS3)*%
X104780000Y-76100000D03*
D12*
%TO.P,J1,S4,SHEILD*%
%TO.N,unconnected-(J1-SHEILD-PadS4)*%
X104760000Y-72100000D03*
%TD*%
D13*
%TO.P,AE1,2*%
%TO.N,GND*%
X101500000Y-94550000D03*
%TD*%
D14*
%TO.N,GND*%
X105050000Y-82750000D03*
X105250000Y-91425000D03*
X101450000Y-83850000D03*
D15*
X128500000Y-72300000D03*
D14*
X114500000Y-94500000D03*
X100500000Y-92800000D03*
X102380498Y-78950000D03*
X116525500Y-90550000D03*
X120500000Y-79200000D03*
X100500000Y-89400000D03*
X117650000Y-90800000D03*
X100500000Y-87700000D03*
X104650000Y-83500000D03*
X132050000Y-88500000D03*
X100500000Y-80900000D03*
X106700000Y-91325000D03*
X105600000Y-94500000D03*
X115600000Y-94500000D03*
X108325000Y-87825000D03*
X139500000Y-96500000D03*
X102300000Y-93700000D03*
X113410000Y-80700000D03*
X138299999Y-70500000D03*
X107300000Y-85050000D03*
X102350000Y-83950000D03*
X139500000Y-83000000D03*
X100500000Y-91100000D03*
X120850000Y-83350000D03*
X106400000Y-77280000D03*
X102800000Y-89500000D03*
X131700000Y-92800000D03*
X111220000Y-90280000D03*
X110075000Y-94500000D03*
X113400000Y-94500000D03*
X118800000Y-83900000D03*
X101800000Y-89500000D03*
X104360000Y-91560000D03*
X101275000Y-88700000D03*
X108650000Y-92150000D03*
X118900000Y-87350000D03*
X100500000Y-93700000D03*
X104525000Y-92625000D03*
X103600000Y-92900000D03*
X105225000Y-92150000D03*
X102900000Y-84800000D03*
X139500000Y-94000000D03*
X106400000Y-86975000D03*
X118750000Y-82300000D03*
X100500000Y-86000000D03*
X128000000Y-78450000D03*
X116700000Y-94500000D03*
X102435500Y-81400000D03*
X128250000Y-83300000D03*
X104500000Y-94500000D03*
X100518219Y-94527124D03*
X107825000Y-92400000D03*
X108900000Y-94500000D03*
X107240000Y-92960000D03*
X102410355Y-82405576D03*
X108057133Y-89914906D03*
X104850000Y-81150000D03*
X105400000Y-83950000D03*
X104750000Y-81950000D03*
X125150000Y-90450000D03*
X103600000Y-85150000D03*
X111200000Y-93500000D03*
X126400000Y-94500000D03*
X130650000Y-72450000D03*
X105950000Y-93900000D03*
X103000000Y-93600000D03*
X100500000Y-84300000D03*
X107300000Y-85925000D03*
X124150000Y-75050000D03*
X102500000Y-90700000D03*
X120600000Y-70500000D03*
X104800000Y-74200000D03*
X107275000Y-86950000D03*
X106700000Y-94500000D03*
X116450000Y-79750000D03*
X108700000Y-93300000D03*
X139500000Y-72400000D03*
X125900000Y-70500000D03*
D15*
X118400000Y-71400000D03*
D14*
X130500000Y-82000000D03*
X111200000Y-94500000D03*
X124900000Y-83500000D03*
X127250000Y-86500000D03*
X101400000Y-93700000D03*
X109175000Y-85925000D03*
X120800000Y-91550000D03*
X114730000Y-80330000D03*
X102380498Y-80450000D03*
X115100000Y-87025000D03*
X100500000Y-70700000D03*
X105300000Y-89500000D03*
X135550000Y-92050000D03*
X129300000Y-91300000D03*
X107500000Y-91600000D03*
X124550000Y-79350000D03*
X119900000Y-94500000D03*
X118500000Y-92200000D03*
X111850000Y-84025000D03*
X109900000Y-92700000D03*
X123000000Y-91400000D03*
X139500000Y-90000000D03*
X102600000Y-94429978D03*
X103400000Y-70500000D03*
X108300000Y-85925000D03*
X116600000Y-77500000D03*
X106400000Y-85925000D03*
X112600000Y-87025000D03*
X132050000Y-95500000D03*
X111274204Y-81816717D03*
X130500000Y-74500000D03*
X104760000Y-90780000D03*
X116650000Y-81250000D03*
X124800000Y-88400000D03*
X109175000Y-86950000D03*
D15*
X126350000Y-92950000D03*
D14*
X103500000Y-88800000D03*
X121900000Y-73100000D03*
X115650000Y-79200000D03*
X104100000Y-82800000D03*
X123200000Y-86300000D03*
X120900000Y-87400000D03*
X112300000Y-94500000D03*
X116100000Y-93800000D03*
X105100000Y-79850000D03*
X105050000Y-94100000D03*
X103500000Y-81500000D03*
X106550000Y-93425000D03*
X117100000Y-74000000D03*
X113900000Y-87025000D03*
X114380000Y-77280000D03*
X108300000Y-85050000D03*
X105300000Y-88870000D03*
X119300000Y-75300000D03*
X130100000Y-70500000D03*
X113500000Y-84025000D03*
X116550000Y-86300000D03*
X107800000Y-94500000D03*
X128250000Y-88200000D03*
X139500000Y-87000000D03*
X108300000Y-86975000D03*
X103700000Y-86100000D03*
X139500000Y-80000000D03*
%TO.N,/SW_4*%
X135400000Y-94000000D03*
X108859122Y-89940878D03*
D15*
%TO.N,/PIXEL*%
X124850000Y-71400000D03*
D14*
X115100000Y-84700000D03*
%TO.N,/SW_3*%
X119000000Y-89450000D03*
X134600000Y-89100000D03*
D15*
%TO.N,5V*%
X129580000Y-92950000D03*
X103500000Y-78270000D03*
X114375000Y-78300000D03*
D14*
%TO.N,3V3*%
X111179617Y-87124045D03*
X109960000Y-84020000D03*
X109125000Y-91425000D03*
X110545000Y-89200000D03*
X103450000Y-91125000D03*
%TO.N,/MCU/CHIP_PU*%
X114720000Y-92700000D03*
X109800000Y-89750000D03*
%TO.N,/Power/USB_D+*%
X110700000Y-78400000D03*
X109300000Y-78400000D03*
X103000000Y-79900000D03*
%TO.N,/Power/USB_D-*%
X110000000Y-78900000D03*
X111400000Y-78900000D03*
X104000000Y-79900000D03*
%TO.N,/MCU/DISP_DC*%
X119350000Y-86200000D03*
X115350000Y-88083128D03*
%TO.N,/MCU/FLASH_CS0*%
X112515500Y-89850000D03*
X107550000Y-82875000D03*
%TO.N,/MCU/FLASH_IO0*%
X106475000Y-80340000D03*
X115805000Y-81530000D03*
%TO.N,/MCU/FLASH_IO2*%
X108720000Y-80580000D03*
X115055500Y-89850000D03*
%TO.N,/MCU/FLASH_CLK*%
X114550000Y-81525000D03*
X107225000Y-80610000D03*
%TO.N,/MCU/FLASH_IO1*%
X113785500Y-89850000D03*
X105730000Y-80610000D03*
%TO.N,/MCU/FLASH_IO3*%
X109480000Y-80521770D03*
X113275000Y-81540000D03*
%TO.N,Net-(J2-LEDK)*%
X119900000Y-72650000D03*
X119900000Y-77000000D03*
%TO.N,Net-(U4-U0TXD{slash}GPIO21)*%
X101750000Y-82050000D03*
X104450000Y-85950000D03*
%TO.N,/MCU/SW_1*%
X135800000Y-87500000D03*
X115975000Y-84700000D03*
%TO.N,/MCU/SW_2*%
X135200000Y-88300000D03*
X115100000Y-85500000D03*
%TD*%
D16*
%TO.N,5V*%
X126000000Y-86610050D02*
X117689950Y-78300000D01*
X103500000Y-78270000D02*
X103505000Y-78275000D01*
X107750000Y-78275000D02*
X108750000Y-77275000D01*
X126000000Y-89370000D02*
X126000000Y-86610050D01*
X129580000Y-92950000D02*
X126000000Y-89370000D01*
X112150000Y-77275000D02*
X113175000Y-78300000D01*
X108750000Y-77275000D02*
X112150000Y-77275000D01*
X117689950Y-78300000D02*
X114375000Y-78300000D01*
X103505000Y-78275000D02*
X107750000Y-78275000D01*
X113175000Y-78300000D02*
X114375000Y-78300000D01*
D17*
%TO.N,3V3*%
X111179617Y-87720383D02*
X111179617Y-87124045D01*
X110545000Y-88355000D02*
X111179617Y-87720383D01*
X103700000Y-90875000D02*
X103700000Y-90300000D01*
X103450000Y-91125000D02*
X103700000Y-90875000D01*
X106800000Y-89575000D02*
X108650000Y-91425000D01*
X104225000Y-88725000D02*
X104750000Y-88200000D01*
X106375000Y-88200000D02*
X106800000Y-88625000D01*
X106800000Y-88625000D02*
X106800000Y-89575000D01*
X110545000Y-89200000D02*
X110545000Y-88355000D01*
X111179617Y-87124045D02*
X111179617Y-85239617D01*
X103700000Y-90300000D02*
X104225000Y-89775000D01*
X104750000Y-88200000D02*
X106375000Y-88200000D01*
X111179617Y-85239617D02*
X109960000Y-84020000D01*
X108650000Y-91425000D02*
X109125000Y-91425000D01*
X104225000Y-89775000D02*
X104225000Y-88725000D01*
%TD*%
%TA.AperFunction,Conductor*%
%TO.N,GND*%
G36*
X105701621Y-70020502D02*
G01*
X105748114Y-70074158D01*
X105759500Y-70126500D01*
X105759500Y-70951947D01*
X105739498Y-71020068D01*
X105685842Y-71066561D01*
X105615568Y-71076665D01*
X105550988Y-71047171D01*
X105524381Y-71014948D01*
X105518925Y-71005498D01*
X105495786Y-70965420D01*
X105368562Y-70824123D01*
X105252862Y-70740062D01*
X105214741Y-70712365D01*
X105041045Y-70635031D01*
X104855067Y-70595500D01*
X104664933Y-70595500D01*
X104478954Y-70635031D01*
X104305258Y-70712365D01*
X104151438Y-70824122D01*
X104024215Y-70965418D01*
X104024214Y-70965420D01*
X104001075Y-71005498D01*
X103929148Y-71130077D01*
X103870391Y-71310908D01*
X103855500Y-71452593D01*
X103855500Y-72747406D01*
X103870391Y-72889091D01*
X103929148Y-73069922D01*
X103941885Y-73091982D01*
X104024214Y-73234580D01*
X104151438Y-73375877D01*
X104305259Y-73487635D01*
X104478955Y-73564969D01*
X104664933Y-73604500D01*
X104855067Y-73604500D01*
X105041045Y-73564969D01*
X105214741Y-73487635D01*
X105368562Y-73375877D01*
X105495786Y-73234580D01*
X105524381Y-73185051D01*
X105575764Y-73136059D01*
X105645477Y-73122623D01*
X105711388Y-73149009D01*
X105752570Y-73206842D01*
X105759500Y-73248052D01*
X105759500Y-75117306D01*
X105739498Y-75185427D01*
X105685842Y-75231920D01*
X105615568Y-75242024D01*
X105550988Y-75212530D01*
X105524382Y-75180309D01*
X105515786Y-75165420D01*
X105388562Y-75024123D01*
X105336207Y-74986085D01*
X105234741Y-74912365D01*
X105061045Y-74835031D01*
X104875067Y-74795500D01*
X104684933Y-74795500D01*
X104498954Y-74835031D01*
X104325258Y-74912365D01*
X104171438Y-75024122D01*
X104044215Y-75165418D01*
X104044214Y-75165420D01*
X104035618Y-75180309D01*
X103949148Y-75330077D01*
X103890391Y-75510908D01*
X103875500Y-75652593D01*
X103875500Y-76547406D01*
X103890391Y-76689091D01*
X103916385Y-76769090D01*
X103949147Y-76869920D01*
X104044214Y-77034580D01*
X104171438Y-77175877D01*
X104325259Y-77287635D01*
X104498955Y-77364969D01*
X104684933Y-77404500D01*
X104875067Y-77404500D01*
X105061045Y-77364969D01*
X105234741Y-77287635D01*
X105388562Y-77175877D01*
X105515786Y-77034580D01*
X105610853Y-76869920D01*
X105653848Y-76737594D01*
X105693922Y-76678989D01*
X105737176Y-76660709D01*
X105736924Y-76660098D01*
X105736982Y-76660074D01*
X105740186Y-76659437D01*
X105759318Y-76651352D01*
X105773604Y-76650531D01*
X105785023Y-76650524D01*
X105785023Y-76650526D01*
X105785158Y-76650500D01*
X108356391Y-76650500D01*
X108424512Y-76670502D01*
X108471005Y-76724158D01*
X108481109Y-76794432D01*
X108451615Y-76859012D01*
X108438890Y-76871735D01*
X108437098Y-76873288D01*
X108434111Y-76875876D01*
X108427135Y-76881497D01*
X108416152Y-76889720D01*
X108406457Y-76899415D01*
X108399879Y-76905539D01*
X108361750Y-76938578D01*
X108361746Y-76938583D01*
X108359095Y-76942708D01*
X108342201Y-76963671D01*
X107576275Y-77729596D01*
X107513965Y-77763620D01*
X107487182Y-77766500D01*
X103972480Y-77766500D01*
X103904359Y-77746498D01*
X103888926Y-77734812D01*
X103876817Y-77724084D01*
X103876813Y-77724082D01*
X103735220Y-77649769D01*
X103579957Y-77611500D01*
X103579956Y-77611500D01*
X103420044Y-77611500D01*
X103420042Y-77611500D01*
X103264779Y-77649769D01*
X103123186Y-77724082D01*
X103123182Y-77724084D01*
X103003484Y-77830128D01*
X102912647Y-77961728D01*
X102912644Y-77961734D01*
X102855938Y-78111253D01*
X102855937Y-78111257D01*
X102836664Y-78269997D01*
X102836664Y-78270002D01*
X102855937Y-78428742D01*
X102855938Y-78428746D01*
X102912644Y-78578265D01*
X102912647Y-78578271D01*
X103003484Y-78709871D01*
X103003485Y-78709872D01*
X103003486Y-78709873D01*
X103123182Y-78815915D01*
X103264778Y-78890230D01*
X103420044Y-78928500D01*
X103420045Y-78928500D01*
X103579955Y-78928500D01*
X103579956Y-78928500D01*
X103735222Y-78890230D01*
X103876818Y-78815915D01*
X103877636Y-78815189D01*
X103878363Y-78814848D01*
X103883086Y-78811588D01*
X103883628Y-78812373D01*
X103941888Y-78784988D01*
X103961192Y-78783500D01*
X107681784Y-78783500D01*
X107708565Y-78786378D01*
X107713351Y-78787420D01*
X107713351Y-78787419D01*
X107713352Y-78787420D01*
X107747356Y-78784988D01*
X107763674Y-78783820D01*
X107772662Y-78783500D01*
X107786366Y-78783500D01*
X107786368Y-78783500D01*
X107799953Y-78781546D01*
X107808853Y-78780589D01*
X107859201Y-78776989D01*
X107863794Y-78775275D01*
X107889893Y-78768614D01*
X107894734Y-78767919D01*
X107940633Y-78746957D01*
X107948914Y-78743526D01*
X107996204Y-78725889D01*
X108000117Y-78722958D01*
X108023299Y-78709204D01*
X108027743Y-78707176D01*
X108065891Y-78674119D01*
X108072861Y-78668503D01*
X108083848Y-78660280D01*
X108093551Y-78650575D01*
X108100118Y-78644461D01*
X108138250Y-78611421D01*
X108140898Y-78607299D01*
X108157796Y-78586330D01*
X108538378Y-78205748D01*
X108600688Y-78171724D01*
X108671503Y-78176789D01*
X108728339Y-78219336D01*
X108753150Y-78285856D01*
X108752393Y-78311290D01*
X108740715Y-78399998D01*
X108740715Y-78400000D01*
X108759771Y-78544752D01*
X108815644Y-78679641D01*
X108815649Y-78679649D01*
X108904525Y-78795474D01*
X109020350Y-78884350D01*
X109020357Y-78884355D01*
X109155246Y-78940228D01*
X109300000Y-78959285D01*
X109322653Y-78956302D01*
X109392799Y-78967240D01*
X109445899Y-79014367D01*
X109455929Y-79037406D01*
X109456612Y-79037124D01*
X109515644Y-79179641D01*
X109515649Y-79179649D01*
X109604525Y-79295474D01*
X109720350Y-79384350D01*
X109720357Y-79384355D01*
X109855246Y-79440228D01*
X110000000Y-79459285D01*
X110144754Y-79440228D01*
X110279643Y-79384355D01*
X110395474Y-79295474D01*
X110484355Y-79179643D01*
X110540228Y-79044754D01*
X110540228Y-79044752D01*
X110543388Y-79037124D01*
X110545631Y-79038053D01*
X110576136Y-78987998D01*
X110639994Y-78956971D01*
X110677342Y-78956302D01*
X110700000Y-78959285D01*
X110722653Y-78956302D01*
X110792799Y-78967240D01*
X110845899Y-79014367D01*
X110855929Y-79037406D01*
X110856612Y-79037124D01*
X110915644Y-79179641D01*
X110915649Y-79179649D01*
X111004525Y-79295474D01*
X111120350Y-79384350D01*
X111120357Y-79384355D01*
X111255246Y-79440228D01*
X111400000Y-79459285D01*
X111544754Y-79440228D01*
X111679643Y-79384355D01*
X111795474Y-79295474D01*
X111884355Y-79179643D01*
X111940228Y-79044754D01*
X111959285Y-78900000D01*
X111940228Y-78755246D01*
X111884355Y-78620358D01*
X111795474Y-78504526D01*
X111795472Y-78504524D01*
X111795471Y-78504523D01*
X111679649Y-78415649D01*
X111679641Y-78415644D01*
X111544752Y-78359771D01*
X111400000Y-78340715D01*
X111399998Y-78340715D01*
X111377345Y-78343697D01*
X111307196Y-78332757D01*
X111254098Y-78285628D01*
X111244072Y-78262593D01*
X111243388Y-78262877D01*
X111240228Y-78255249D01*
X111240228Y-78255246D01*
X111184355Y-78120358D01*
X111095474Y-78004526D01*
X111095472Y-78004524D01*
X111095468Y-78004519D01*
X111089635Y-77998686D01*
X111092202Y-77996118D01*
X111060110Y-77952320D01*
X111055771Y-77881456D01*
X111090433Y-77819496D01*
X111153091Y-77786111D01*
X111178611Y-77783500D01*
X111887182Y-77783500D01*
X111955303Y-77803502D01*
X111976277Y-77820405D01*
X112767199Y-78611327D01*
X112784101Y-78632300D01*
X112786748Y-78636419D01*
X112786750Y-78636422D01*
X112824869Y-78669451D01*
X112831442Y-78675570D01*
X112841152Y-78685280D01*
X112841154Y-78685282D01*
X112852131Y-78693499D01*
X112859136Y-78699144D01*
X112870745Y-78709203D01*
X112897257Y-78732176D01*
X112899602Y-78733246D01*
X112901708Y-78734209D01*
X112924877Y-78747956D01*
X112928791Y-78750886D01*
X112928792Y-78750887D01*
X112928794Y-78750887D01*
X112928796Y-78750889D01*
X112976088Y-78768528D01*
X112984358Y-78771953D01*
X113030266Y-78792919D01*
X113032235Y-78793202D01*
X113035111Y-78793616D01*
X113061208Y-78800276D01*
X113065799Y-78801989D01*
X113116126Y-78805588D01*
X113125064Y-78806549D01*
X113138632Y-78808500D01*
X113152338Y-78808500D01*
X113161325Y-78808820D01*
X113173673Y-78809704D01*
X113211647Y-78812420D01*
X113211647Y-78812419D01*
X113211649Y-78812420D01*
X113216434Y-78811378D01*
X113243216Y-78808500D01*
X113908164Y-78808500D01*
X113976285Y-78828502D01*
X113991719Y-78840189D01*
X113998183Y-78845916D01*
X114065464Y-78881227D01*
X114139778Y-78920230D01*
X114295044Y-78958500D01*
X114295045Y-78958500D01*
X114454955Y-78958500D01*
X114454956Y-78958500D01*
X114610222Y-78920230D01*
X114751818Y-78845915D01*
X114758281Y-78840188D01*
X114822534Y-78809987D01*
X114841836Y-78808500D01*
X117427132Y-78808500D01*
X117495253Y-78828502D01*
X117516227Y-78845405D01*
X125454595Y-86783773D01*
X125488621Y-86846085D01*
X125491500Y-86872868D01*
X125491500Y-89301783D01*
X125488622Y-89328562D01*
X125487580Y-89333351D01*
X125491179Y-89383672D01*
X125491500Y-89392661D01*
X125491500Y-89406369D01*
X125493450Y-89419937D01*
X125494410Y-89428867D01*
X125498011Y-89479199D01*
X125498011Y-89479204D01*
X125499726Y-89483801D01*
X125506381Y-89509876D01*
X125507078Y-89514724D01*
X125507082Y-89514738D01*
X125528035Y-89560619D01*
X125531476Y-89568925D01*
X125549110Y-89616202D01*
X125549112Y-89616206D01*
X125552048Y-89620128D01*
X125565788Y-89643286D01*
X125567822Y-89647740D01*
X125567824Y-89647743D01*
X125600856Y-89685864D01*
X125606500Y-89692868D01*
X125614717Y-89703845D01*
X125614719Y-89703847D01*
X125614720Y-89703848D01*
X125624421Y-89713549D01*
X125630538Y-89720119D01*
X125658149Y-89751984D01*
X125663580Y-89758251D01*
X125667697Y-89760897D01*
X125688672Y-89777800D01*
X128893628Y-92982755D01*
X128927654Y-93045067D01*
X128929614Y-93056662D01*
X128935938Y-93108744D01*
X128935938Y-93108746D01*
X128935939Y-93108747D01*
X128964614Y-93184355D01*
X128992644Y-93258265D01*
X128992647Y-93258271D01*
X129083484Y-93389871D01*
X129083485Y-93389872D01*
X129083486Y-93389873D01*
X129203182Y-93495915D01*
X129344778Y-93570230D01*
X129500044Y-93608500D01*
X129500045Y-93608500D01*
X129659955Y-93608500D01*
X129659956Y-93608500D01*
X129815222Y-93570230D01*
X129956818Y-93495915D01*
X130076514Y-93389873D01*
X130167355Y-93258268D01*
X130224061Y-93108747D01*
X130243336Y-92950000D01*
X130243336Y-92949997D01*
X130224062Y-92791257D01*
X130224061Y-92791253D01*
X130189453Y-92700000D01*
X130167355Y-92641732D01*
X130076514Y-92510127D01*
X129956818Y-92404085D01*
X129956817Y-92404084D01*
X129956813Y-92404082D01*
X129903600Y-92376154D01*
X129815222Y-92329770D01*
X129815219Y-92329769D01*
X129815217Y-92329768D01*
X129668405Y-92293581D01*
X129609465Y-92260338D01*
X126545405Y-89196277D01*
X126511379Y-89133965D01*
X126508500Y-89107182D01*
X126508500Y-89100000D01*
X134040715Y-89100000D01*
X134059771Y-89244752D01*
X134115644Y-89379641D01*
X134115649Y-89379649D01*
X134204525Y-89495474D01*
X134320350Y-89584350D01*
X134320357Y-89584355D01*
X134455246Y-89640228D01*
X134600000Y-89659285D01*
X134744754Y-89640228D01*
X134879643Y-89584355D01*
X134995474Y-89495474D01*
X135084355Y-89379643D01*
X135140228Y-89244754D01*
X135159285Y-89100000D01*
X135145274Y-88993575D01*
X135156213Y-88923428D01*
X135203341Y-88870329D01*
X135253748Y-88852208D01*
X135344754Y-88840228D01*
X135479643Y-88784355D01*
X135595474Y-88695474D01*
X135684355Y-88579643D01*
X135740228Y-88444754D01*
X135759285Y-88300000D01*
X135745274Y-88193575D01*
X135756213Y-88123428D01*
X135803341Y-88070329D01*
X135853748Y-88052208D01*
X135944754Y-88040228D01*
X136079643Y-87984355D01*
X136195474Y-87895474D01*
X136284355Y-87779643D01*
X136340228Y-87644754D01*
X136359285Y-87500000D01*
X136340228Y-87355246D01*
X136284355Y-87220358D01*
X136195474Y-87104526D01*
X136195472Y-87104524D01*
X136195471Y-87104523D01*
X136079649Y-87015649D01*
X136079641Y-87015644D01*
X135944752Y-86959771D01*
X135800000Y-86940715D01*
X135655247Y-86959771D01*
X135608123Y-86979291D01*
X135520358Y-87015645D01*
X135520357Y-87015646D01*
X135520356Y-87015646D01*
X135404526Y-87104526D01*
X135315646Y-87220356D01*
X135315645Y-87220358D01*
X135295581Y-87268797D01*
X135259771Y-87355247D01*
X135240715Y-87499999D01*
X135240715Y-87500001D01*
X135254725Y-87606424D01*
X135243785Y-87676572D01*
X135196657Y-87729671D01*
X135146250Y-87747791D01*
X135055247Y-87759771D01*
X135007259Y-87779649D01*
X134920358Y-87815645D01*
X134920357Y-87815646D01*
X134920356Y-87815646D01*
X134804526Y-87904526D01*
X134715646Y-88020356D01*
X134715645Y-88020358D01*
X134705261Y-88045427D01*
X134659771Y-88155247D01*
X134640715Y-88299999D01*
X134640715Y-88300001D01*
X134654725Y-88406424D01*
X134643785Y-88476572D01*
X134596657Y-88529671D01*
X134546250Y-88547791D01*
X134455247Y-88559771D01*
X134407259Y-88579649D01*
X134320358Y-88615645D01*
X134320357Y-88615646D01*
X134320356Y-88615646D01*
X134204526Y-88704526D01*
X134115646Y-88820356D01*
X134115645Y-88820358D01*
X134087708Y-88887802D01*
X134059771Y-88955247D01*
X134040715Y-89099999D01*
X134040715Y-89100000D01*
X126508500Y-89100000D01*
X126508500Y-86678258D01*
X126511379Y-86651477D01*
X126512419Y-86646698D01*
X126508820Y-86596388D01*
X126508500Y-86587401D01*
X126508500Y-86573681D01*
X126506548Y-86560109D01*
X126505586Y-86551161D01*
X126501988Y-86500850D01*
X126501988Y-86500849D01*
X126500278Y-86496266D01*
X126493614Y-86470154D01*
X126492919Y-86465316D01*
X126471960Y-86419423D01*
X126468517Y-86411112D01*
X126450888Y-86363846D01*
X126447951Y-86359922D01*
X126434212Y-86336766D01*
X126432176Y-86332307D01*
X126420841Y-86319226D01*
X126399137Y-86294177D01*
X126393495Y-86287175D01*
X126385286Y-86276210D01*
X126385285Y-86276209D01*
X126385280Y-86276202D01*
X126375582Y-86266504D01*
X126369452Y-86259920D01*
X126336422Y-86221800D01*
X126336419Y-86221798D01*
X126332300Y-86219151D01*
X126311327Y-86202249D01*
X118097749Y-77988671D01*
X118080843Y-77967691D01*
X118078201Y-77963580D01*
X118040071Y-77930540D01*
X118033499Y-77924421D01*
X118023798Y-77914720D01*
X118023797Y-77914719D01*
X118023795Y-77914717D01*
X118012818Y-77906500D01*
X118005814Y-77900856D01*
X117967693Y-77867824D01*
X117967690Y-77867822D01*
X117963236Y-77865788D01*
X117940078Y-77852048D01*
X117936156Y-77849112D01*
X117936152Y-77849110D01*
X117888875Y-77831476D01*
X117880569Y-77828035D01*
X117834688Y-77807082D01*
X117834674Y-77807078D01*
X117829826Y-77806381D01*
X117803751Y-77799726D01*
X117799152Y-77798011D01*
X117748817Y-77794410D01*
X117739887Y-77793450D01*
X117726319Y-77791500D01*
X117726318Y-77791500D01*
X117712612Y-77791500D01*
X117703624Y-77791179D01*
X117701529Y-77791029D01*
X117653302Y-77787579D01*
X117653301Y-77787580D01*
X117648516Y-77788621D01*
X117621734Y-77791500D01*
X114841836Y-77791500D01*
X114773715Y-77771498D01*
X114758281Y-77759811D01*
X114751816Y-77754083D01*
X114610220Y-77679769D01*
X114454957Y-77641500D01*
X114454956Y-77641500D01*
X114295044Y-77641500D01*
X114295042Y-77641500D01*
X114139779Y-77679769D01*
X113998183Y-77754083D01*
X113991719Y-77759811D01*
X113927466Y-77790013D01*
X113908164Y-77791500D01*
X113437818Y-77791500D01*
X113369697Y-77771498D01*
X113348723Y-77754595D01*
X112557799Y-76963671D01*
X112540893Y-76942691D01*
X112538251Y-76938580D01*
X112500121Y-76905540D01*
X112493543Y-76899415D01*
X112483848Y-76889720D01*
X112483847Y-76889719D01*
X112483845Y-76889717D01*
X112472868Y-76881500D01*
X112465869Y-76875860D01*
X112461100Y-76871728D01*
X112422713Y-76812004D01*
X112422710Y-76741007D01*
X112461091Y-76681279D01*
X112525671Y-76651783D01*
X112543608Y-76650500D01*
X114974842Y-76650500D01*
X114974976Y-76650526D01*
X114974977Y-76650524D01*
X114986395Y-76650531D01*
X115010095Y-76657505D01*
X115023018Y-76660074D01*
X115023076Y-76660098D01*
X115022623Y-76661192D01*
X115054504Y-76670575D01*
X115100964Y-76724259D01*
X115106151Y-76737594D01*
X115116385Y-76769090D01*
X115149147Y-76869920D01*
X115244214Y-77034580D01*
X115371438Y-77175877D01*
X115525259Y-77287635D01*
X115698955Y-77364969D01*
X115884933Y-77404500D01*
X116075067Y-77404500D01*
X116261045Y-77364969D01*
X116434741Y-77287635D01*
X116588562Y-77175877D01*
X116715786Y-77034580D01*
X116735751Y-77000000D01*
X119340715Y-77000000D01*
X119359771Y-77144752D01*
X119415644Y-77279641D01*
X119415649Y-77279649D01*
X119504525Y-77395474D01*
X119616042Y-77481044D01*
X119620357Y-77484355D01*
X119755246Y-77540228D01*
X119900000Y-77559285D01*
X120044754Y-77540228D01*
X120179643Y-77484355D01*
X120295474Y-77395474D01*
X120384355Y-77279643D01*
X120440228Y-77144754D01*
X120459285Y-77000000D01*
X120440228Y-76855246D01*
X120384355Y-76720358D01*
X120295474Y-76604526D01*
X120295472Y-76604524D01*
X120295471Y-76604523D01*
X120179649Y-76515649D01*
X120179641Y-76515644D01*
X120044752Y-76459771D01*
X119900000Y-76440715D01*
X119755247Y-76459771D01*
X119691721Y-76486085D01*
X119620358Y-76515645D01*
X119620357Y-76515646D01*
X119620356Y-76515646D01*
X119504526Y-76604526D01*
X119415646Y-76720356D01*
X119415645Y-76720358D01*
X119393835Y-76773011D01*
X119359771Y-76855247D01*
X119340715Y-76999999D01*
X119340715Y-77000000D01*
X116735751Y-77000000D01*
X116810853Y-76869920D01*
X116869608Y-76689092D01*
X116884500Y-76547401D01*
X116884500Y-75652599D01*
X116869608Y-75510908D01*
X116810853Y-75330080D01*
X116715786Y-75165420D01*
X116588562Y-75024123D01*
X116536207Y-74986085D01*
X116434741Y-74912365D01*
X116261045Y-74835031D01*
X116075067Y-74795500D01*
X115884933Y-74795500D01*
X115698954Y-74835031D01*
X115525258Y-74912365D01*
X115371438Y-75024122D01*
X115244215Y-75165418D01*
X115244214Y-75165420D01*
X115235618Y-75180309D01*
X115184234Y-75229301D01*
X115114520Y-75242735D01*
X115048609Y-75216347D01*
X115007429Y-75158514D01*
X115000500Y-75117306D01*
X115000500Y-73248052D01*
X115020502Y-73179931D01*
X115074158Y-73133438D01*
X115144432Y-73123334D01*
X115209012Y-73152828D01*
X115235618Y-73185051D01*
X115264214Y-73234580D01*
X115391438Y-73375877D01*
X115545259Y-73487635D01*
X115718955Y-73564969D01*
X115904933Y-73604500D01*
X116095067Y-73604500D01*
X116281045Y-73564969D01*
X116454741Y-73487635D01*
X116608562Y-73375877D01*
X116735786Y-73234580D01*
X116830853Y-73069920D01*
X116889608Y-72889092D01*
X116904500Y-72747401D01*
X116904500Y-72650000D01*
X119340715Y-72650000D01*
X119359771Y-72794752D01*
X119415644Y-72929641D01*
X119415649Y-72929649D01*
X119504525Y-73045474D01*
X119620350Y-73134350D01*
X119620357Y-73134355D01*
X119755246Y-73190228D01*
X119900000Y-73209285D01*
X120044754Y-73190228D01*
X120179643Y-73134355D01*
X120295474Y-73045474D01*
X120384355Y-72929643D01*
X120440228Y-72794754D01*
X120459285Y-72650000D01*
X120440228Y-72505246D01*
X120384355Y-72370358D01*
X120295474Y-72254526D01*
X120295472Y-72254524D01*
X120295471Y-72254523D01*
X120179649Y-72165649D01*
X120179641Y-72165644D01*
X120044752Y-72109771D01*
X119900000Y-72090715D01*
X119755247Y-72109771D01*
X119687802Y-72137708D01*
X119620358Y-72165645D01*
X119620357Y-72165646D01*
X119620356Y-72165646D01*
X119504526Y-72254526D01*
X119415646Y-72370356D01*
X119415645Y-72370358D01*
X119387708Y-72437802D01*
X119359771Y-72505247D01*
X119340715Y-72649999D01*
X119340715Y-72650000D01*
X116904500Y-72650000D01*
X116904500Y-71452599D01*
X116898972Y-71400002D01*
X124186664Y-71400002D01*
X124205937Y-71558742D01*
X124205938Y-71558746D01*
X124262644Y-71708265D01*
X124262647Y-71708271D01*
X124353484Y-71839871D01*
X124353485Y-71839872D01*
X124353486Y-71839873D01*
X124473182Y-71945915D01*
X124614778Y-72020230D01*
X124770044Y-72058500D01*
X124770045Y-72058500D01*
X124929955Y-72058500D01*
X124929956Y-72058500D01*
X125085222Y-72020230D01*
X125226818Y-71945915D01*
X125346514Y-71839873D01*
X125437355Y-71708268D01*
X125494061Y-71558747D01*
X125506950Y-71452599D01*
X125513336Y-71400002D01*
X125513336Y-71399997D01*
X125494062Y-71241257D01*
X125494061Y-71241253D01*
X125468851Y-71174780D01*
X125437355Y-71091732D01*
X125387889Y-71020068D01*
X125346515Y-70960128D01*
X125226817Y-70854084D01*
X125226813Y-70854082D01*
X125085220Y-70779769D01*
X124929957Y-70741500D01*
X124929956Y-70741500D01*
X124770044Y-70741500D01*
X124770042Y-70741500D01*
X124614779Y-70779769D01*
X124473186Y-70854082D01*
X124473182Y-70854084D01*
X124353484Y-70960128D01*
X124262647Y-71091728D01*
X124262644Y-71091734D01*
X124205938Y-71241253D01*
X124205937Y-71241257D01*
X124186664Y-71399997D01*
X124186664Y-71400002D01*
X116898972Y-71400002D01*
X116889608Y-71310908D01*
X116830853Y-71130080D01*
X116735786Y-70965420D01*
X116608562Y-70824123D01*
X116492862Y-70740062D01*
X116454741Y-70712365D01*
X116281045Y-70635031D01*
X116095067Y-70595500D01*
X115904933Y-70595500D01*
X115718954Y-70635031D01*
X115545258Y-70712365D01*
X115391438Y-70824122D01*
X115264215Y-70965418D01*
X115264214Y-70965419D01*
X115235619Y-71014948D01*
X115184235Y-71063941D01*
X115114522Y-71077376D01*
X115048611Y-71050989D01*
X115007430Y-70993156D01*
X115000500Y-70951947D01*
X115000500Y-70126500D01*
X115020502Y-70058379D01*
X115074158Y-70011886D01*
X115126500Y-70000500D01*
X131085295Y-70000500D01*
X131153416Y-70020502D01*
X131199909Y-70074158D01*
X131207000Y-70093885D01*
X131222942Y-70153378D01*
X131233607Y-70193183D01*
X131233610Y-70193190D01*
X131299497Y-70307310D01*
X131299505Y-70307320D01*
X131392679Y-70400494D01*
X131392684Y-70400498D01*
X131392686Y-70400500D01*
X131392687Y-70400501D01*
X131392689Y-70400502D01*
X131433294Y-70423945D01*
X131506814Y-70466392D01*
X131634108Y-70500500D01*
X131634110Y-70500500D01*
X131774150Y-70500500D01*
X131774150Y-70503335D01*
X131830649Y-70512134D01*
X131883758Y-70559251D01*
X131902962Y-70627601D01*
X131902677Y-70634726D01*
X131897367Y-70712365D01*
X131895619Y-70737921D01*
X131926408Y-70886085D01*
X131926409Y-70886088D01*
X131996028Y-71020445D01*
X131996030Y-71020448D01*
X132050975Y-71079280D01*
X132099320Y-71131044D01*
X132171239Y-71174779D01*
X132228618Y-71209672D01*
X132374333Y-71250500D01*
X132374335Y-71250500D01*
X132487658Y-71250500D01*
X132487671Y-71250499D01*
X132599915Y-71235071D01*
X132599916Y-71235070D01*
X132599920Y-71235070D01*
X132738720Y-71174780D01*
X132747797Y-71167395D01*
X132813259Y-71139919D01*
X132883186Y-71152196D01*
X132892784Y-71157475D01*
X132978618Y-71209672D01*
X133124333Y-71250500D01*
X133124335Y-71250500D01*
X133237658Y-71250500D01*
X133237671Y-71250499D01*
X133349915Y-71235071D01*
X133349916Y-71235070D01*
X133349920Y-71235070D01*
X133488720Y-71174780D01*
X133497797Y-71167395D01*
X133563259Y-71139919D01*
X133633186Y-71152196D01*
X133642784Y-71157475D01*
X133728618Y-71209672D01*
X133874333Y-71250500D01*
X133874335Y-71250500D01*
X133987658Y-71250500D01*
X133987671Y-71250499D01*
X134099915Y-71235071D01*
X134099916Y-71235070D01*
X134099920Y-71235070D01*
X134238720Y-71174780D01*
X134247797Y-71167395D01*
X134313259Y-71139919D01*
X134383186Y-71152196D01*
X134392784Y-71157475D01*
X134478618Y-71209672D01*
X134624333Y-71250500D01*
X134624335Y-71250500D01*
X134737658Y-71250500D01*
X134737671Y-71250499D01*
X134849915Y-71235071D01*
X134849916Y-71235070D01*
X134849920Y-71235070D01*
X134988720Y-71174780D01*
X134997797Y-71167395D01*
X135063259Y-71139919D01*
X135133186Y-71152196D01*
X135142784Y-71157475D01*
X135228618Y-71209672D01*
X135374333Y-71250500D01*
X135374335Y-71250500D01*
X135487658Y-71250500D01*
X135487671Y-71250499D01*
X135599915Y-71235071D01*
X135599916Y-71235070D01*
X135599920Y-71235070D01*
X135738720Y-71174780D01*
X135738721Y-71174778D01*
X135738723Y-71174778D01*
X135738725Y-71174776D01*
X135759991Y-71157475D01*
X135856108Y-71079278D01*
X135943377Y-70955647D01*
X135994054Y-70813056D01*
X136004381Y-70662079D01*
X136002310Y-70652112D01*
X136008033Y-70581347D01*
X136051107Y-70524910D01*
X136117855Y-70500719D01*
X136125850Y-70501012D01*
X136125850Y-70500500D01*
X136265890Y-70500500D01*
X136265892Y-70500500D01*
X136393186Y-70466392D01*
X136507314Y-70400500D01*
X136600500Y-70307314D01*
X136666392Y-70193186D01*
X136692998Y-70093888D01*
X136729950Y-70033266D01*
X136793810Y-70002245D01*
X136814705Y-70000500D01*
X138994493Y-70000500D01*
X139005474Y-70000979D01*
X139013300Y-70001663D01*
X139044887Y-70004427D01*
X139046124Y-70004542D01*
X139171603Y-70016901D01*
X139191847Y-70020584D01*
X139256419Y-70037886D01*
X139260252Y-70038981D01*
X139351432Y-70066640D01*
X139368092Y-70073014D01*
X139426329Y-70100171D01*
X139433794Y-70103652D01*
X139439939Y-70106724D01*
X139518940Y-70148951D01*
X139531812Y-70156858D01*
X139543337Y-70164928D01*
X139592829Y-70199583D01*
X139600491Y-70205396D01*
X139668383Y-70261113D01*
X139677545Y-70269418D01*
X139730580Y-70322453D01*
X139738885Y-70331615D01*
X139794602Y-70399507D01*
X139800415Y-70407169D01*
X139843138Y-70468183D01*
X139851047Y-70481058D01*
X139893274Y-70560059D01*
X139896346Y-70566204D01*
X139926982Y-70631902D01*
X139933362Y-70648577D01*
X139960996Y-70739674D01*
X139962129Y-70743640D01*
X139979412Y-70808144D01*
X139983098Y-70828404D01*
X139995456Y-70953874D01*
X139995583Y-70955239D01*
X139999020Y-70994513D01*
X139999500Y-71005498D01*
X139999500Y-72686260D01*
X139979498Y-72754381D01*
X139925842Y-72800874D01*
X139901540Y-72809100D01*
X139833655Y-72824595D01*
X139833650Y-72824596D01*
X139833649Y-72824597D01*
X139833647Y-72824597D01*
X139833644Y-72824599D01*
X139732037Y-72873530D01*
X139732035Y-72873531D01*
X139643854Y-72943854D01*
X139573531Y-73032035D01*
X139573530Y-73032037D01*
X139524599Y-73133644D01*
X139524597Y-73133649D01*
X139499500Y-73243605D01*
X139499500Y-73356394D01*
X139499838Y-73359395D01*
X139499500Y-73361324D01*
X139499500Y-73363469D01*
X139499124Y-73363469D01*
X139487587Y-73429327D01*
X139439473Y-73481534D01*
X139374630Y-73499500D01*
X139262328Y-73499500D01*
X139150084Y-73514928D01*
X139011276Y-73575221D01*
X139011274Y-73575223D01*
X138893894Y-73670719D01*
X138893891Y-73670722D01*
X138806623Y-73794351D01*
X138806621Y-73794356D01*
X138755946Y-73936942D01*
X138755945Y-73936948D01*
X138745619Y-74087918D01*
X138745619Y-74087921D01*
X138761233Y-74163057D01*
X138776409Y-74236088D01*
X138846061Y-74370509D01*
X138859642Y-74440195D01*
X138837127Y-74501139D01*
X138806621Y-74544356D01*
X138755946Y-74686942D01*
X138755945Y-74686948D01*
X138745817Y-74835031D01*
X138745619Y-74837921D01*
X138761233Y-74913057D01*
X138776409Y-74986088D01*
X138846061Y-75120509D01*
X138859642Y-75190195D01*
X138837127Y-75251139D01*
X138806621Y-75294356D01*
X138755946Y-75436942D01*
X138755945Y-75436948D01*
X138745619Y-75587919D01*
X138745619Y-75587921D01*
X138761233Y-75663057D01*
X138776409Y-75736088D01*
X138846061Y-75870509D01*
X138859642Y-75940195D01*
X138837127Y-76001139D01*
X138806621Y-76044356D01*
X138755946Y-76186942D01*
X138755945Y-76186948D01*
X138745619Y-76337919D01*
X138745619Y-76337921D01*
X138761233Y-76413057D01*
X138776409Y-76486088D01*
X138846061Y-76620509D01*
X138859642Y-76690195D01*
X138837127Y-76751138D01*
X138815286Y-76782081D01*
X138806621Y-76794356D01*
X138755946Y-76936942D01*
X138755945Y-76936948D01*
X138745619Y-77087918D01*
X138745619Y-77087921D01*
X138776408Y-77236085D01*
X138776409Y-77236088D01*
X138846028Y-77370445D01*
X138846030Y-77370448D01*
X138900975Y-77429280D01*
X138949320Y-77481044D01*
X139021241Y-77524780D01*
X139078618Y-77559672D01*
X139224333Y-77600500D01*
X139224335Y-77600500D01*
X139337658Y-77600500D01*
X139337668Y-77600499D01*
X139357917Y-77597716D01*
X139428127Y-77608255D01*
X139481493Y-77655080D01*
X139501073Y-77723323D01*
X139500284Y-77736639D01*
X139499500Y-77743602D01*
X139499500Y-77856394D01*
X139511998Y-77911149D01*
X139523964Y-77963579D01*
X139524597Y-77966350D01*
X139524599Y-77966355D01*
X139573530Y-78067962D01*
X139573531Y-78067964D01*
X139573532Y-78067965D01*
X139573533Y-78067967D01*
X139643854Y-78156146D01*
X139732033Y-78226467D01*
X139833649Y-78275403D01*
X139901538Y-78290898D01*
X139963500Y-78325557D01*
X139996887Y-78388214D01*
X139999500Y-78413739D01*
X139999500Y-97274310D01*
X139979498Y-97342431D01*
X139925842Y-97388924D01*
X139873695Y-97400310D01*
X133620230Y-97409999D01*
X133619604Y-97409998D01*
X130825569Y-97400430D01*
X130757517Y-97380195D01*
X130711208Y-97326380D01*
X130700000Y-97274431D01*
X130700000Y-95950000D01*
X130699999Y-95949999D01*
X129650001Y-94800000D01*
X129650000Y-94800000D01*
X100126500Y-94800000D01*
X100058379Y-94779998D01*
X100011886Y-94726342D01*
X100000500Y-94674000D01*
X100000500Y-94000000D01*
X134840715Y-94000000D01*
X134859771Y-94144752D01*
X134915644Y-94279641D01*
X134915649Y-94279649D01*
X135004525Y-94395474D01*
X135120350Y-94484350D01*
X135120357Y-94484355D01*
X135255246Y-94540228D01*
X135400000Y-94559285D01*
X135544754Y-94540228D01*
X135679643Y-94484355D01*
X135795474Y-94395474D01*
X135884355Y-94279643D01*
X135940228Y-94144754D01*
X135959285Y-94000000D01*
X135940228Y-93855246D01*
X135884355Y-93720358D01*
X135795474Y-93604526D01*
X135795472Y-93604524D01*
X135795471Y-93604523D01*
X135679649Y-93515649D01*
X135679641Y-93515644D01*
X135544752Y-93459771D01*
X135400000Y-93440715D01*
X135255247Y-93459771D01*
X135187802Y-93487708D01*
X135120358Y-93515645D01*
X135120357Y-93515646D01*
X135120356Y-93515646D01*
X135004526Y-93604526D01*
X134915646Y-93720356D01*
X134915645Y-93720358D01*
X134887708Y-93787802D01*
X134859771Y-93855247D01*
X134840715Y-93999999D01*
X134840715Y-94000000D01*
X100000500Y-94000000D01*
X100000500Y-92700000D01*
X114160715Y-92700000D01*
X114179771Y-92844752D01*
X114235644Y-92979641D01*
X114235649Y-92979649D01*
X114324525Y-93095474D01*
X114440350Y-93184350D01*
X114440357Y-93184355D01*
X114575246Y-93240228D01*
X114720000Y-93259285D01*
X114864754Y-93240228D01*
X114999643Y-93184355D01*
X115115474Y-93095474D01*
X115204355Y-92979643D01*
X115260228Y-92844754D01*
X115279285Y-92700000D01*
X115260228Y-92555246D01*
X115204355Y-92420358D01*
X115115474Y-92304526D01*
X115115472Y-92304524D01*
X115115471Y-92304523D01*
X114999649Y-92215649D01*
X114999641Y-92215644D01*
X114864752Y-92159771D01*
X114720000Y-92140715D01*
X114575247Y-92159771D01*
X114507802Y-92187708D01*
X114440358Y-92215645D01*
X114440357Y-92215646D01*
X114440356Y-92215646D01*
X114324526Y-92304526D01*
X114235646Y-92420356D01*
X114235645Y-92420358D01*
X114207708Y-92487802D01*
X114179771Y-92555247D01*
X114160715Y-92699999D01*
X114160715Y-92700000D01*
X100000500Y-92700000D01*
X100000500Y-91125000D01*
X102890715Y-91125000D01*
X102909771Y-91269752D01*
X102965644Y-91404641D01*
X102965649Y-91404649D01*
X103054525Y-91520474D01*
X103118748Y-91569754D01*
X103170357Y-91609355D01*
X103305246Y-91665228D01*
X103450000Y-91684285D01*
X103594754Y-91665228D01*
X103729643Y-91609355D01*
X103845474Y-91520474D01*
X103934355Y-91404643D01*
X103990228Y-91269754D01*
X104008976Y-91127339D01*
X104034469Y-91066392D01*
X104040158Y-91059085D01*
X104040159Y-91059079D01*
X104040161Y-91059078D01*
X104043954Y-91052069D01*
X104047470Y-91044876D01*
X104047475Y-91044870D01*
X104062656Y-90993873D01*
X104064221Y-90988989D01*
X104081500Y-90938661D01*
X104081500Y-90938655D01*
X104082819Y-90930749D01*
X104083805Y-90922843D01*
X104081608Y-90869727D01*
X104081500Y-90864519D01*
X104081500Y-90510212D01*
X104101502Y-90442091D01*
X104118399Y-90421122D01*
X104457549Y-90081972D01*
X104477721Y-90065593D01*
X104486956Y-90059560D01*
X104506701Y-90034190D01*
X104517051Y-90022471D01*
X104517114Y-90022409D01*
X104529397Y-90005204D01*
X104532482Y-90001065D01*
X104565158Y-89959085D01*
X104565159Y-89959079D01*
X104568957Y-89952064D01*
X104572470Y-89944876D01*
X104572475Y-89944870D01*
X104587656Y-89893873D01*
X104589221Y-89888989D01*
X104606500Y-89838661D01*
X104606500Y-89838655D01*
X104607819Y-89830749D01*
X104608805Y-89822843D01*
X104606608Y-89769727D01*
X104606500Y-89764519D01*
X104606500Y-88935213D01*
X104626502Y-88867092D01*
X104643405Y-88846117D01*
X104871119Y-88618404D01*
X104933431Y-88584379D01*
X104960214Y-88581500D01*
X106164788Y-88581500D01*
X106232909Y-88601502D01*
X106253883Y-88618405D01*
X106381595Y-88746117D01*
X106415621Y-88808429D01*
X106418500Y-88835212D01*
X106418500Y-89522366D01*
X106415818Y-89548223D01*
X106413554Y-89559016D01*
X106417532Y-89590921D01*
X106418500Y-89606508D01*
X106418500Y-89606613D01*
X106421975Y-89627441D01*
X106422725Y-89632590D01*
X106429303Y-89685357D01*
X106431588Y-89693032D01*
X106434180Y-89700581D01*
X106434181Y-89700584D01*
X106434182Y-89700586D01*
X106455635Y-89740228D01*
X106459492Y-89747355D01*
X106461874Y-89751984D01*
X106485223Y-89799745D01*
X106489868Y-89806251D01*
X106494782Y-89812564D01*
X106533904Y-89848578D01*
X106537663Y-89852185D01*
X108343019Y-91657542D01*
X108359405Y-91677718D01*
X108365440Y-91686956D01*
X108365443Y-91686958D01*
X108390810Y-91706702D01*
X108402516Y-91717040D01*
X108402580Y-91717104D01*
X108402587Y-91717110D01*
X108402591Y-91717114D01*
X108402594Y-91717116D01*
X108402595Y-91717117D01*
X108419782Y-91729388D01*
X108423933Y-91732482D01*
X108465915Y-91765158D01*
X108465917Y-91765158D01*
X108472941Y-91768960D01*
X108480127Y-91772473D01*
X108480130Y-91772475D01*
X108531133Y-91787658D01*
X108535997Y-91789216D01*
X108586339Y-91806500D01*
X108586344Y-91806500D01*
X108594247Y-91807819D01*
X108602157Y-91808805D01*
X108602158Y-91808804D01*
X108602159Y-91808805D01*
X108655274Y-91806607D01*
X108660480Y-91806500D01*
X108668543Y-91806500D01*
X108736664Y-91826502D01*
X108745247Y-91832538D01*
X108845350Y-91909350D01*
X108845357Y-91909355D01*
X108980246Y-91965228D01*
X109125000Y-91984285D01*
X109269754Y-91965228D01*
X109404643Y-91909355D01*
X109520474Y-91820474D01*
X109609355Y-91704643D01*
X109665228Y-91569754D01*
X109684285Y-91425000D01*
X109665228Y-91280246D01*
X109609355Y-91145358D01*
X109520474Y-91029526D01*
X109520472Y-91029524D01*
X109520471Y-91029523D01*
X109404649Y-90940649D01*
X109404641Y-90940644D01*
X109269752Y-90884771D01*
X109125000Y-90865715D01*
X108980247Y-90884771D01*
X108845353Y-90940647D01*
X108840207Y-90943619D01*
X108771212Y-90960355D01*
X108704120Y-90937133D01*
X108688115Y-90923593D01*
X107966419Y-90201897D01*
X107705400Y-89940878D01*
X108299837Y-89940878D01*
X108318893Y-90085630D01*
X108374766Y-90220519D01*
X108374771Y-90220527D01*
X108463647Y-90336352D01*
X108579472Y-90425228D01*
X108579479Y-90425233D01*
X108714368Y-90481106D01*
X108859122Y-90500163D01*
X109003876Y-90481106D01*
X109138765Y-90425233D01*
X109254596Y-90336352D01*
X109278445Y-90305272D01*
X109325642Y-90243764D01*
X109382980Y-90201897D01*
X109453851Y-90197675D01*
X109502306Y-90220504D01*
X109520357Y-90234355D01*
X109655246Y-90290228D01*
X109800000Y-90309285D01*
X109944754Y-90290228D01*
X110079643Y-90234355D01*
X110195474Y-90145474D01*
X110284355Y-90029643D01*
X110340228Y-89894754D01*
X110344801Y-89860015D01*
X110349231Y-89850000D01*
X111956215Y-89850000D01*
X111975271Y-89994752D01*
X112031144Y-90129641D01*
X112031149Y-90129649D01*
X112120025Y-90245474D01*
X112235850Y-90334350D01*
X112235857Y-90334355D01*
X112370746Y-90390228D01*
X112515500Y-90409285D01*
X112660254Y-90390228D01*
X112795143Y-90334355D01*
X112910974Y-90245474D01*
X112999855Y-90129643D01*
X113034092Y-90046987D01*
X113078639Y-89991708D01*
X113146003Y-89969287D01*
X113214794Y-89986845D01*
X113263172Y-90038807D01*
X113266903Y-90046977D01*
X113269229Y-90052591D01*
X113301144Y-90129641D01*
X113301149Y-90129649D01*
X113390025Y-90245474D01*
X113505850Y-90334350D01*
X113505857Y-90334355D01*
X113640746Y-90390228D01*
X113785500Y-90409285D01*
X113930254Y-90390228D01*
X114065143Y-90334355D01*
X114180974Y-90245474D01*
X114269855Y-90129643D01*
X114304092Y-90046987D01*
X114348639Y-89991708D01*
X114416003Y-89969287D01*
X114484794Y-89986845D01*
X114533172Y-90038807D01*
X114536903Y-90046977D01*
X114539229Y-90052591D01*
X114571144Y-90129641D01*
X114571149Y-90129649D01*
X114660025Y-90245474D01*
X114775850Y-90334350D01*
X114775857Y-90334355D01*
X114910746Y-90390228D01*
X115055500Y-90409285D01*
X115200254Y-90390228D01*
X115335143Y-90334355D01*
X115450974Y-90245474D01*
X115539855Y-90129643D01*
X115595728Y-89994754D01*
X115614785Y-89850000D01*
X115595728Y-89705246D01*
X115539855Y-89570358D01*
X115450974Y-89454526D01*
X115450972Y-89454524D01*
X115450971Y-89454523D01*
X115445077Y-89450000D01*
X118440715Y-89450000D01*
X118459771Y-89594752D01*
X118515644Y-89729641D01*
X118515649Y-89729649D01*
X118604525Y-89845474D01*
X118668748Y-89894754D01*
X118720357Y-89934355D01*
X118855246Y-89990228D01*
X119000000Y-90009285D01*
X119144754Y-89990228D01*
X119279643Y-89934355D01*
X119395474Y-89845474D01*
X119484355Y-89729643D01*
X119540228Y-89594754D01*
X119559285Y-89450000D01*
X119554937Y-89416977D01*
X119543928Y-89333351D01*
X119540228Y-89305246D01*
X119484355Y-89170358D01*
X119395474Y-89054526D01*
X119395472Y-89054524D01*
X119395471Y-89054523D01*
X119279649Y-88965649D01*
X119279641Y-88965644D01*
X119144752Y-88909771D01*
X119000000Y-88890715D01*
X118855247Y-88909771D01*
X118787802Y-88937708D01*
X118720358Y-88965645D01*
X118720357Y-88965646D01*
X118720356Y-88965646D01*
X118604526Y-89054526D01*
X118515646Y-89170356D01*
X118515645Y-89170358D01*
X118499319Y-89209772D01*
X118459771Y-89305247D01*
X118440715Y-89449999D01*
X118440715Y-89450000D01*
X115445077Y-89450000D01*
X115335149Y-89365649D01*
X115335141Y-89365644D01*
X115200252Y-89309771D01*
X115055500Y-89290715D01*
X114910747Y-89309771D01*
X114865383Y-89328562D01*
X114775858Y-89365645D01*
X114775857Y-89365646D01*
X114775856Y-89365646D01*
X114660026Y-89454526D01*
X114571146Y-89570356D01*
X114571142Y-89570363D01*
X114536908Y-89653011D01*
X114492360Y-89708292D01*
X114424996Y-89730712D01*
X114356205Y-89713153D01*
X114307827Y-89661191D01*
X114304092Y-89653011D01*
X114269857Y-89570363D01*
X114269855Y-89570358D01*
X114180974Y-89454526D01*
X114180972Y-89454524D01*
X114180971Y-89454523D01*
X114065149Y-89365649D01*
X114065141Y-89365644D01*
X113930252Y-89309771D01*
X113785500Y-89290715D01*
X113640747Y-89309771D01*
X113595383Y-89328562D01*
X113505858Y-89365645D01*
X113505857Y-89365646D01*
X113505856Y-89365646D01*
X113390026Y-89454526D01*
X113301146Y-89570356D01*
X113301142Y-89570363D01*
X113266908Y-89653011D01*
X113222360Y-89708292D01*
X113154996Y-89730712D01*
X113086205Y-89713153D01*
X113037827Y-89661191D01*
X113034092Y-89653011D01*
X112999857Y-89570363D01*
X112999855Y-89570358D01*
X112910974Y-89454526D01*
X112910972Y-89454524D01*
X112910971Y-89454523D01*
X112795149Y-89365649D01*
X112795141Y-89365644D01*
X112660252Y-89309771D01*
X112515500Y-89290715D01*
X112370747Y-89309771D01*
X112325383Y-89328562D01*
X112235858Y-89365645D01*
X112235857Y-89365646D01*
X112235856Y-89365646D01*
X112120026Y-89454526D01*
X112031146Y-89570356D01*
X112031145Y-89570358D01*
X112007500Y-89627441D01*
X111975271Y-89705247D01*
X111956215Y-89849999D01*
X111956215Y-89850000D01*
X110349231Y-89850000D01*
X110373523Y-89795089D01*
X110432787Y-89755996D01*
X110486165Y-89751539D01*
X110545000Y-89759285D01*
X110689754Y-89740228D01*
X110824643Y-89684355D01*
X110940474Y-89595474D01*
X111029355Y-89479643D01*
X111085228Y-89344754D01*
X111104285Y-89200000D01*
X111100382Y-89170357D01*
X111091120Y-89099999D01*
X111085228Y-89055246D01*
X111029355Y-88920358D01*
X111021231Y-88909771D01*
X110952538Y-88820248D01*
X110926937Y-88754028D01*
X110926500Y-88743544D01*
X110926500Y-88565212D01*
X110946502Y-88497091D01*
X110963399Y-88476122D01*
X111356393Y-88083128D01*
X114790715Y-88083128D01*
X114809771Y-88227880D01*
X114865644Y-88362769D01*
X114865649Y-88362777D01*
X114954525Y-88478602D01*
X115070350Y-88567478D01*
X115070357Y-88567483D01*
X115205246Y-88623356D01*
X115350000Y-88642413D01*
X115494754Y-88623356D01*
X115629643Y-88567483D01*
X115745474Y-88478602D01*
X115834355Y-88362771D01*
X115890228Y-88227882D01*
X115909285Y-88083128D01*
X115890228Y-87938374D01*
X115834355Y-87803486D01*
X115745474Y-87687654D01*
X115745472Y-87687652D01*
X115745471Y-87687651D01*
X115629649Y-87598777D01*
X115629641Y-87598772D01*
X115494752Y-87542899D01*
X115350000Y-87523843D01*
X115205247Y-87542899D01*
X115137802Y-87570836D01*
X115070358Y-87598773D01*
X115070357Y-87598774D01*
X115070356Y-87598774D01*
X114954526Y-87687654D01*
X114865646Y-87803484D01*
X114865645Y-87803486D01*
X114843388Y-87857218D01*
X114809771Y-87938375D01*
X114790715Y-88083127D01*
X114790715Y-88083128D01*
X111356393Y-88083128D01*
X111412166Y-88027355D01*
X111432338Y-88010976D01*
X111441573Y-88004943D01*
X111461318Y-87979573D01*
X111471668Y-87967854D01*
X111471731Y-87967792D01*
X111484014Y-87950587D01*
X111487099Y-87946448D01*
X111519775Y-87904468D01*
X111519776Y-87904462D01*
X111523573Y-87897448D01*
X111527087Y-87890259D01*
X111527092Y-87890253D01*
X111542272Y-87839259D01*
X111543837Y-87834374D01*
X111561117Y-87784044D01*
X111561117Y-87784038D01*
X111562436Y-87776135D01*
X111563422Y-87768225D01*
X111561225Y-87715109D01*
X111561117Y-87709901D01*
X111561117Y-87580501D01*
X111581119Y-87512380D01*
X111587146Y-87503808D01*
X111663972Y-87403688D01*
X111719845Y-87268799D01*
X111738902Y-87124045D01*
X111719845Y-86979291D01*
X111663972Y-86844403D01*
X111587155Y-86744293D01*
X111561554Y-86678073D01*
X111561117Y-86667589D01*
X111561117Y-86200000D01*
X118790715Y-86200000D01*
X118809771Y-86344752D01*
X118865644Y-86479641D01*
X118865649Y-86479649D01*
X118954525Y-86595474D01*
X119044759Y-86664713D01*
X119070357Y-86684355D01*
X119205246Y-86740228D01*
X119350000Y-86759285D01*
X119494754Y-86740228D01*
X119629643Y-86684355D01*
X119745474Y-86595474D01*
X119834355Y-86479643D01*
X119890228Y-86344754D01*
X119909285Y-86200000D01*
X119890228Y-86055246D01*
X119834355Y-85920358D01*
X119745474Y-85804526D01*
X119745472Y-85804524D01*
X119745471Y-85804523D01*
X119629649Y-85715649D01*
X119629641Y-85715644D01*
X119494752Y-85659771D01*
X119350000Y-85640715D01*
X119205247Y-85659771D01*
X119179689Y-85670358D01*
X119070358Y-85715645D01*
X119070357Y-85715646D01*
X119070356Y-85715646D01*
X118954526Y-85804526D01*
X118865646Y-85920356D01*
X118865645Y-85920358D01*
X118853367Y-85950000D01*
X118809771Y-86055247D01*
X118790715Y-86199999D01*
X118790715Y-86200000D01*
X111561117Y-86200000D01*
X111561117Y-85500000D01*
X114540715Y-85500000D01*
X114559771Y-85644752D01*
X114615644Y-85779641D01*
X114615649Y-85779649D01*
X114704525Y-85895474D01*
X114820350Y-85984350D01*
X114820357Y-85984355D01*
X114955246Y-86040228D01*
X115100000Y-86059285D01*
X115244754Y-86040228D01*
X115379643Y-85984355D01*
X115495474Y-85895474D01*
X115584355Y-85779643D01*
X115640228Y-85644754D01*
X115659285Y-85500000D01*
X115641738Y-85366715D01*
X115652677Y-85296567D01*
X115699806Y-85243469D01*
X115768159Y-85224279D01*
X115814877Y-85233862D01*
X115830246Y-85240228D01*
X115975000Y-85259285D01*
X116119754Y-85240228D01*
X116254643Y-85184355D01*
X116370474Y-85095474D01*
X116459355Y-84979643D01*
X116515228Y-84844754D01*
X116534285Y-84700000D01*
X116515228Y-84555246D01*
X116459355Y-84420358D01*
X116370474Y-84304526D01*
X116370472Y-84304524D01*
X116370471Y-84304523D01*
X116254649Y-84215649D01*
X116254641Y-84215644D01*
X116119752Y-84159771D01*
X115975000Y-84140715D01*
X115830247Y-84159771D01*
X115762802Y-84187708D01*
X115695358Y-84215645D01*
X115695357Y-84215646D01*
X115695356Y-84215646D01*
X115614204Y-84277917D01*
X115547983Y-84303517D01*
X115478435Y-84289252D01*
X115460796Y-84277916D01*
X115379649Y-84215649D01*
X115379641Y-84215644D01*
X115244752Y-84159771D01*
X115100000Y-84140715D01*
X114955247Y-84159771D01*
X114887802Y-84187708D01*
X114820358Y-84215645D01*
X114820357Y-84215646D01*
X114820356Y-84215646D01*
X114704526Y-84304526D01*
X114615646Y-84420356D01*
X114615645Y-84420358D01*
X114587708Y-84487802D01*
X114559771Y-84555247D01*
X114540715Y-84699999D01*
X114540715Y-84700000D01*
X114559771Y-84844752D01*
X114615644Y-84979641D01*
X114615649Y-84979649D01*
X114649141Y-85023296D01*
X114674742Y-85089516D01*
X114660478Y-85159065D01*
X114649142Y-85176703D01*
X114615649Y-85220351D01*
X114615646Y-85220356D01*
X114615645Y-85220358D01*
X114591278Y-85279184D01*
X114559771Y-85355247D01*
X114540715Y-85499999D01*
X114540715Y-85500000D01*
X111561117Y-85500000D01*
X111561117Y-85292251D01*
X111563799Y-85266391D01*
X111565290Y-85259285D01*
X111566062Y-85255601D01*
X111562084Y-85223695D01*
X111561117Y-85208109D01*
X111561117Y-85208011D01*
X111561117Y-85208006D01*
X111557641Y-85187181D01*
X111556893Y-85182056D01*
X111550313Y-85129257D01*
X111550311Y-85129252D01*
X111548040Y-85121624D01*
X111545435Y-85114034D01*
X111545435Y-85114031D01*
X111520115Y-85067244D01*
X111517748Y-85062646D01*
X111494392Y-85014869D01*
X111489744Y-85008359D01*
X111484838Y-85002056D01*
X111445698Y-84966025D01*
X111441941Y-84962419D01*
X110552525Y-84073003D01*
X110518499Y-84010691D01*
X110516700Y-84000367D01*
X110500228Y-83875246D01*
X110444355Y-83740358D01*
X110355474Y-83624526D01*
X110355472Y-83624524D01*
X110355471Y-83624523D01*
X110239649Y-83535649D01*
X110239641Y-83535644D01*
X110104752Y-83479771D01*
X109960000Y-83460715D01*
X109815247Y-83479771D01*
X109747802Y-83507708D01*
X109680358Y-83535645D01*
X109680357Y-83535646D01*
X109680356Y-83535646D01*
X109564526Y-83624526D01*
X109475646Y-83740356D01*
X109475645Y-83740358D01*
X109447708Y-83807802D01*
X109419771Y-83875247D01*
X109400715Y-84019999D01*
X109400715Y-84020000D01*
X109419771Y-84164752D01*
X109475644Y-84299641D01*
X109475649Y-84299649D01*
X109564525Y-84415474D01*
X109680350Y-84504350D01*
X109680357Y-84504355D01*
X109815246Y-84560228D01*
X109940355Y-84576698D01*
X110005281Y-84605420D01*
X110013003Y-84612525D01*
X110761212Y-85360734D01*
X110795238Y-85423046D01*
X110798117Y-85449829D01*
X110798117Y-86667589D01*
X110778115Y-86735710D01*
X110772079Y-86744293D01*
X110695266Y-86844396D01*
X110695263Y-86844401D01*
X110695262Y-86844403D01*
X110667325Y-86911847D01*
X110639388Y-86979292D01*
X110620332Y-87124044D01*
X110620332Y-87124045D01*
X110639388Y-87268797D01*
X110675197Y-87355246D01*
X110695262Y-87403688D01*
X110741542Y-87464001D01*
X110767143Y-87530221D01*
X110752879Y-87599769D01*
X110730675Y-87629801D01*
X110312452Y-88048023D01*
X110292279Y-88064406D01*
X110283041Y-88070441D01*
X110263290Y-88095817D01*
X110252980Y-88107495D01*
X110252891Y-88107583D01*
X110252888Y-88107587D01*
X110240612Y-88124780D01*
X110237503Y-88128950D01*
X110204842Y-88170913D01*
X110201030Y-88177958D01*
X110197525Y-88185127D01*
X110182349Y-88236100D01*
X110180762Y-88241054D01*
X110163499Y-88291342D01*
X110162184Y-88299218D01*
X110161194Y-88307160D01*
X110163392Y-88360272D01*
X110163500Y-88365480D01*
X110163500Y-88743544D01*
X110143498Y-88811665D01*
X110137462Y-88820248D01*
X110060649Y-88920351D01*
X110060646Y-88920356D01*
X110060645Y-88920358D01*
X110004772Y-89055246D01*
X110004772Y-89055247D01*
X110000198Y-89089986D01*
X109971474Y-89154913D01*
X109912209Y-89194004D01*
X109858830Y-89198460D01*
X109800000Y-89190715D01*
X109655247Y-89209771D01*
X109610564Y-89228280D01*
X109520358Y-89265645D01*
X109520357Y-89265646D01*
X109520356Y-89265646D01*
X109404523Y-89354528D01*
X109333480Y-89447114D01*
X109276142Y-89488981D01*
X109205271Y-89493203D01*
X109156815Y-89470373D01*
X109138765Y-89456523D01*
X109123018Y-89450000D01*
X109003874Y-89400649D01*
X108859122Y-89381593D01*
X108714369Y-89400649D01*
X108657065Y-89424386D01*
X108579480Y-89456523D01*
X108579479Y-89456524D01*
X108579478Y-89456524D01*
X108463648Y-89545404D01*
X108374768Y-89661234D01*
X108374767Y-89661236D01*
X108356537Y-89705246D01*
X108318893Y-89796125D01*
X108299837Y-89940877D01*
X108299837Y-89940878D01*
X107705400Y-89940878D01*
X107218405Y-89453882D01*
X107184379Y-89391570D01*
X107181500Y-89364787D01*
X107181500Y-88677634D01*
X107184182Y-88651774D01*
X107186445Y-88640982D01*
X107182468Y-88609079D01*
X107181500Y-88593492D01*
X107181500Y-88593394D01*
X107181500Y-88593389D01*
X107178024Y-88572564D01*
X107177276Y-88567439D01*
X107170696Y-88514640D01*
X107170694Y-88514635D01*
X107168414Y-88506975D01*
X107165819Y-88499417D01*
X107165818Y-88499415D01*
X107165818Y-88499414D01*
X107140503Y-88452636D01*
X107138138Y-88448040D01*
X107114777Y-88400254D01*
X107114775Y-88400252D01*
X107110147Y-88393768D01*
X107105220Y-88387438D01*
X107066093Y-88351419D01*
X107062336Y-88347813D01*
X106681980Y-87967457D01*
X106665591Y-87947276D01*
X106659560Y-87938044D01*
X106659559Y-87938043D01*
X106634186Y-87918295D01*
X106622482Y-87907958D01*
X106622417Y-87907893D01*
X106622409Y-87907886D01*
X106617703Y-87904526D01*
X106605183Y-87895587D01*
X106601072Y-87892521D01*
X106560225Y-87860729D01*
X106559083Y-87859840D01*
X106552064Y-87856042D01*
X106544872Y-87852526D01*
X106544870Y-87852525D01*
X106544867Y-87852524D01*
X106493908Y-87837352D01*
X106488950Y-87835764D01*
X106438664Y-87818501D01*
X106438663Y-87818500D01*
X106438661Y-87818500D01*
X106438658Y-87818500D01*
X106430748Y-87817179D01*
X106422842Y-87816194D01*
X106371975Y-87818299D01*
X106369725Y-87818392D01*
X106364520Y-87818500D01*
X104802634Y-87818500D01*
X104776775Y-87815818D01*
X104765980Y-87813554D01*
X104734079Y-87817532D01*
X104718492Y-87818500D01*
X104718384Y-87818500D01*
X104697561Y-87821974D01*
X104692415Y-87822724D01*
X104639638Y-87829303D01*
X104632000Y-87831577D01*
X104624413Y-87834182D01*
X104577660Y-87859483D01*
X104573034Y-87861864D01*
X104525257Y-87885221D01*
X104518732Y-87889880D01*
X104512436Y-87894780D01*
X104476420Y-87933904D01*
X104472815Y-87937661D01*
X103992452Y-88418023D01*
X103972279Y-88434406D01*
X103963041Y-88440441D01*
X103943290Y-88465817D01*
X103932980Y-88477495D01*
X103932891Y-88477583D01*
X103932888Y-88477587D01*
X103920612Y-88494780D01*
X103917503Y-88498950D01*
X103884842Y-88540913D01*
X103881030Y-88547958D01*
X103877525Y-88555127D01*
X103862349Y-88606100D01*
X103860762Y-88611054D01*
X103843499Y-88661342D01*
X103842184Y-88669218D01*
X103841194Y-88677160D01*
X103843392Y-88730272D01*
X103843500Y-88735480D01*
X103843500Y-89564785D01*
X103823498Y-89632906D01*
X103806595Y-89653881D01*
X103467452Y-89993023D01*
X103447279Y-90009406D01*
X103438041Y-90015441D01*
X103418290Y-90040817D01*
X103407980Y-90052495D01*
X103407891Y-90052583D01*
X103407888Y-90052587D01*
X103395612Y-90069780D01*
X103392503Y-90073950D01*
X103359842Y-90115913D01*
X103356030Y-90122958D01*
X103352525Y-90130127D01*
X103337349Y-90181100D01*
X103335762Y-90186054D01*
X103318499Y-90236342D01*
X103317184Y-90244218D01*
X103316194Y-90252160D01*
X103318392Y-90305272D01*
X103318500Y-90310480D01*
X103318500Y-90495091D01*
X103298498Y-90563212D01*
X103244842Y-90609705D01*
X103240720Y-90611499D01*
X103170361Y-90640643D01*
X103170356Y-90640646D01*
X103054526Y-90729526D01*
X102965646Y-90845356D01*
X102965645Y-90845358D01*
X102949319Y-90884772D01*
X102909771Y-90980247D01*
X102890715Y-91124999D01*
X102890715Y-91125000D01*
X100000500Y-91125000D01*
X100000500Y-85950000D01*
X103890715Y-85950000D01*
X103909771Y-86094752D01*
X103965644Y-86229641D01*
X103965649Y-86229649D01*
X104054525Y-86345474D01*
X104150897Y-86419423D01*
X104170357Y-86434355D01*
X104305246Y-86490228D01*
X104450000Y-86509285D01*
X104594754Y-86490228D01*
X104729643Y-86434355D01*
X104845474Y-86345474D01*
X104934355Y-86229643D01*
X104990228Y-86094754D01*
X105009285Y-85950000D01*
X105005382Y-85920357D01*
X104990228Y-85805247D01*
X104990228Y-85805246D01*
X104934355Y-85670358D01*
X104845474Y-85554526D01*
X104845472Y-85554524D01*
X104845471Y-85554523D01*
X104729649Y-85465649D01*
X104729641Y-85465644D01*
X104594752Y-85409771D01*
X104450000Y-85390715D01*
X104305247Y-85409771D01*
X104237802Y-85437708D01*
X104170358Y-85465645D01*
X104170357Y-85465646D01*
X104170356Y-85465646D01*
X104054526Y-85554526D01*
X103965646Y-85670356D01*
X103965645Y-85670358D01*
X103946886Y-85715646D01*
X103909771Y-85805247D01*
X103890715Y-85949999D01*
X103890715Y-85950000D01*
X100000500Y-85950000D01*
X100000500Y-82875000D01*
X106990715Y-82875000D01*
X107009771Y-83019752D01*
X107065644Y-83154641D01*
X107065649Y-83154649D01*
X107154525Y-83270474D01*
X107270350Y-83359350D01*
X107270357Y-83359355D01*
X107405246Y-83415228D01*
X107550000Y-83434285D01*
X107694754Y-83415228D01*
X107829643Y-83359355D01*
X107945474Y-83270474D01*
X108034355Y-83154643D01*
X108090228Y-83019754D01*
X108109285Y-82875000D01*
X108090228Y-82730246D01*
X108034355Y-82595358D01*
X107945474Y-82479526D01*
X107945472Y-82479524D01*
X107945471Y-82479523D01*
X107829649Y-82390649D01*
X107829641Y-82390644D01*
X107694752Y-82334771D01*
X107550000Y-82315715D01*
X107405247Y-82334771D01*
X107337802Y-82362708D01*
X107270358Y-82390645D01*
X107270357Y-82390646D01*
X107270356Y-82390646D01*
X107154526Y-82479526D01*
X107065646Y-82595356D01*
X107065645Y-82595358D01*
X107037708Y-82662802D01*
X107009771Y-82730247D01*
X106990715Y-82874999D01*
X106990715Y-82875000D01*
X100000500Y-82875000D01*
X100000500Y-82050000D01*
X101190715Y-82050000D01*
X101209771Y-82194752D01*
X101265644Y-82329641D01*
X101265649Y-82329649D01*
X101354525Y-82445474D01*
X101470350Y-82534350D01*
X101470357Y-82534355D01*
X101605246Y-82590228D01*
X101750000Y-82609285D01*
X101894754Y-82590228D01*
X102029643Y-82534355D01*
X102145474Y-82445474D01*
X102234355Y-82329643D01*
X102290228Y-82194754D01*
X102309285Y-82050000D01*
X102290228Y-81905246D01*
X102234355Y-81770358D01*
X102145474Y-81654526D01*
X102145472Y-81654524D01*
X102145471Y-81654523D01*
X102029649Y-81565649D01*
X102029641Y-81565644D01*
X101967731Y-81540000D01*
X112715715Y-81540000D01*
X112734771Y-81684752D01*
X112790644Y-81819641D01*
X112790649Y-81819649D01*
X112879525Y-81935474D01*
X112995350Y-82024350D01*
X112995357Y-82024355D01*
X113130246Y-82080228D01*
X113275000Y-82099285D01*
X113419754Y-82080228D01*
X113554643Y-82024355D01*
X113670474Y-81935474D01*
X113759355Y-81819643D01*
X113799198Y-81723451D01*
X113843745Y-81668172D01*
X113911108Y-81645751D01*
X113979899Y-81663309D01*
X114028278Y-81715271D01*
X114032009Y-81723440D01*
X114065645Y-81804643D01*
X114065647Y-81804646D01*
X114065649Y-81804649D01*
X114154525Y-81920474D01*
X114270350Y-82009350D01*
X114270357Y-82009355D01*
X114405246Y-82065228D01*
X114550000Y-82084285D01*
X114694754Y-82065228D01*
X114829643Y-82009355D01*
X114945474Y-81920474D01*
X115034355Y-81804643D01*
X115060056Y-81742594D01*
X115104603Y-81687314D01*
X115171966Y-81664893D01*
X115240757Y-81682451D01*
X115289136Y-81734412D01*
X115292865Y-81742578D01*
X115320645Y-81809643D01*
X115320647Y-81809646D01*
X115320649Y-81809649D01*
X115409525Y-81925474D01*
X115525350Y-82014350D01*
X115525357Y-82014355D01*
X115660246Y-82070228D01*
X115805000Y-82089285D01*
X115949754Y-82070228D01*
X116084643Y-82014355D01*
X116200474Y-81925474D01*
X116289355Y-81809643D01*
X116345228Y-81674754D01*
X116364285Y-81530000D01*
X116345228Y-81385246D01*
X116289355Y-81250358D01*
X116200474Y-81134526D01*
X116200472Y-81134524D01*
X116200471Y-81134523D01*
X116084649Y-81045649D01*
X116084641Y-81045644D01*
X115949752Y-80989771D01*
X115805000Y-80970715D01*
X115660247Y-80989771D01*
X115596318Y-81016252D01*
X115525358Y-81045645D01*
X115525357Y-81045646D01*
X115525356Y-81045646D01*
X115409526Y-81134526D01*
X115320646Y-81250356D01*
X115320643Y-81250361D01*
X115294943Y-81312406D01*
X115250394Y-81367686D01*
X115183030Y-81390106D01*
X115114239Y-81372547D01*
X115065862Y-81320584D01*
X115062127Y-81312406D01*
X115034355Y-81245358D01*
X114945474Y-81129526D01*
X114945472Y-81129524D01*
X114945471Y-81129523D01*
X114829649Y-81040649D01*
X114829641Y-81040644D01*
X114694752Y-80984771D01*
X114550000Y-80965715D01*
X114405247Y-80984771D01*
X114337802Y-81012708D01*
X114270358Y-81040645D01*
X114270357Y-81040646D01*
X114270356Y-81040646D01*
X114154526Y-81129526D01*
X114065646Y-81245356D01*
X114065642Y-81245363D01*
X114025801Y-81341547D01*
X113981253Y-81396828D01*
X113913889Y-81419248D01*
X113845098Y-81401689D01*
X113796720Y-81349727D01*
X113792993Y-81341568D01*
X113759355Y-81260358D01*
X113670474Y-81144526D01*
X113670472Y-81144524D01*
X113670471Y-81144523D01*
X113554649Y-81055649D01*
X113554641Y-81055644D01*
X113419752Y-80999771D01*
X113275000Y-80980715D01*
X113130247Y-80999771D01*
X113090460Y-81016252D01*
X112995358Y-81055645D01*
X112995357Y-81055646D01*
X112995356Y-81055646D01*
X112879526Y-81144526D01*
X112790646Y-81260356D01*
X112790645Y-81260358D01*
X112769087Y-81312404D01*
X112734771Y-81395247D01*
X112715715Y-81539999D01*
X112715715Y-81540000D01*
X101967731Y-81540000D01*
X101894752Y-81509771D01*
X101750000Y-81490715D01*
X101605247Y-81509771D01*
X101537802Y-81537708D01*
X101470358Y-81565645D01*
X101470357Y-81565646D01*
X101470356Y-81565646D01*
X101354526Y-81654526D01*
X101265646Y-81770356D01*
X101265645Y-81770358D01*
X101245231Y-81819641D01*
X101209771Y-81905247D01*
X101190715Y-82049999D01*
X101190715Y-82050000D01*
X100000500Y-82050000D01*
X100000500Y-80610000D01*
X105170715Y-80610000D01*
X105189771Y-80754752D01*
X105245644Y-80889641D01*
X105245649Y-80889649D01*
X105334525Y-81005474D01*
X105433024Y-81081055D01*
X105450357Y-81094355D01*
X105585246Y-81150228D01*
X105730000Y-81169285D01*
X105874754Y-81150228D01*
X106009643Y-81094355D01*
X106125474Y-81005474D01*
X106188931Y-80922776D01*
X106246269Y-80880909D01*
X106317139Y-80876687D01*
X106322211Y-80878308D01*
X106322270Y-80878091D01*
X106330242Y-80880226D01*
X106330246Y-80880228D01*
X106475000Y-80899285D01*
X106619754Y-80880228D01*
X106619755Y-80880227D01*
X106627733Y-80878090D01*
X106628312Y-80880253D01*
X106687249Y-80873906D01*
X106750742Y-80905673D01*
X106764856Y-80921195D01*
X106829526Y-81005474D01*
X106829528Y-81005476D01*
X106928024Y-81081055D01*
X106945357Y-81094355D01*
X107080246Y-81150228D01*
X107225000Y-81169285D01*
X107369754Y-81150228D01*
X107504643Y-81094355D01*
X107620474Y-81005474D01*
X107709355Y-80889643D01*
X107765228Y-80754754D01*
X107784285Y-80610000D01*
X107780335Y-80580000D01*
X108160715Y-80580000D01*
X108179771Y-80724752D01*
X108235644Y-80859641D01*
X108235649Y-80859649D01*
X108324525Y-80975474D01*
X108429007Y-81055646D01*
X108440357Y-81064355D01*
X108575246Y-81120228D01*
X108720000Y-81139285D01*
X108864754Y-81120228D01*
X108999643Y-81064355D01*
X109062332Y-81016251D01*
X109128551Y-80990650D01*
X109192403Y-81003745D01*
X109192727Y-81002964D01*
X109196782Y-81004643D01*
X109198100Y-81004914D01*
X109200073Y-81006007D01*
X109200355Y-81006124D01*
X109200357Y-81006125D01*
X109335246Y-81061998D01*
X109480000Y-81081055D01*
X109624754Y-81061998D01*
X109759643Y-81006125D01*
X109875474Y-80917244D01*
X109964355Y-80801413D01*
X110020228Y-80666524D01*
X110039285Y-80521770D01*
X110020228Y-80377016D01*
X109964355Y-80242128D01*
X109875474Y-80126296D01*
X109875472Y-80126294D01*
X109875471Y-80126293D01*
X109759649Y-80037419D01*
X109759641Y-80037414D01*
X109624752Y-79981541D01*
X109480000Y-79962485D01*
X109335247Y-79981541D01*
X109267802Y-80009478D01*
X109200358Y-80037415D01*
X109200357Y-80037416D01*
X109200351Y-80037419D01*
X109137666Y-80085519D01*
X109071445Y-80111119D01*
X109007597Y-80098023D01*
X109007273Y-80098806D01*
X109003211Y-80097123D01*
X109001897Y-80096854D01*
X108999930Y-80095764D01*
X108952423Y-80076086D01*
X108876777Y-80044752D01*
X108864752Y-80039771D01*
X108720000Y-80020715D01*
X108575247Y-80039771D01*
X108525547Y-80060358D01*
X108440358Y-80095645D01*
X108440357Y-80095646D01*
X108440356Y-80095646D01*
X108324526Y-80184526D01*
X108235646Y-80300356D01*
X108235645Y-80300358D01*
X108207708Y-80367802D01*
X108179771Y-80435247D01*
X108160715Y-80579999D01*
X108160715Y-80580000D01*
X107780335Y-80580000D01*
X107765228Y-80465247D01*
X107765228Y-80465246D01*
X107709355Y-80330358D01*
X107620474Y-80214526D01*
X107620472Y-80214524D01*
X107620471Y-80214523D01*
X107504649Y-80125649D01*
X107504641Y-80125644D01*
X107369752Y-80069771D01*
X107225000Y-80050715D01*
X107080244Y-80069772D01*
X107072270Y-80071909D01*
X107071692Y-80069753D01*
X107012707Y-80076086D01*
X106949225Y-80044297D01*
X106935140Y-80028801D01*
X106870474Y-79944526D01*
X106870472Y-79944524D01*
X106870471Y-79944523D01*
X106754649Y-79855649D01*
X106754641Y-79855644D01*
X106619752Y-79799771D01*
X106475000Y-79780715D01*
X106330247Y-79799771D01*
X106262802Y-79827708D01*
X106195358Y-79855645D01*
X106195357Y-79855646D01*
X106195356Y-79855646D01*
X106079525Y-79944526D01*
X106016069Y-80027224D01*
X105958731Y-80069091D01*
X105887860Y-80073312D01*
X105882787Y-80071693D01*
X105882730Y-80071909D01*
X105874755Y-80069772D01*
X105730000Y-80050715D01*
X105585247Y-80069771D01*
X105517802Y-80097708D01*
X105450358Y-80125645D01*
X105450357Y-80125646D01*
X105450356Y-80125646D01*
X105334526Y-80214526D01*
X105245646Y-80330356D01*
X105245645Y-80330358D01*
X105217708Y-80397802D01*
X105189771Y-80465247D01*
X105170715Y-80609999D01*
X105170715Y-80610000D01*
X100000500Y-80610000D01*
X100000500Y-79900000D01*
X102440715Y-79900000D01*
X102459771Y-80044752D01*
X102515644Y-80179641D01*
X102515649Y-80179649D01*
X102604525Y-80295474D01*
X102720350Y-80384350D01*
X102720357Y-80384355D01*
X102855246Y-80440228D01*
X103000000Y-80459285D01*
X103144754Y-80440228D01*
X103279643Y-80384355D01*
X103395474Y-80295474D01*
X103400036Y-80289527D01*
X103457372Y-80247660D01*
X103528243Y-80243436D01*
X103590147Y-80278198D01*
X103599958Y-80289520D01*
X103604526Y-80295474D01*
X103604528Y-80295476D01*
X103710794Y-80377017D01*
X103720357Y-80384355D01*
X103855246Y-80440228D01*
X104000000Y-80459285D01*
X104144754Y-80440228D01*
X104279643Y-80384355D01*
X104395474Y-80295474D01*
X104484355Y-80179643D01*
X104540228Y-80044754D01*
X104559285Y-79900000D01*
X104553445Y-79855644D01*
X104540228Y-79755247D01*
X104540228Y-79755246D01*
X104484355Y-79620358D01*
X104395474Y-79504526D01*
X104395472Y-79504524D01*
X104395471Y-79504523D01*
X104279649Y-79415649D01*
X104279641Y-79415644D01*
X104144752Y-79359771D01*
X104000000Y-79340715D01*
X103855247Y-79359771D01*
X103795910Y-79384350D01*
X103720358Y-79415645D01*
X103720357Y-79415646D01*
X103720356Y-79415646D01*
X103604525Y-79504526D01*
X103599962Y-79510474D01*
X103542623Y-79552341D01*
X103471752Y-79556562D01*
X103409850Y-79521797D01*
X103400038Y-79510474D01*
X103395472Y-79504524D01*
X103279649Y-79415649D01*
X103279641Y-79415644D01*
X103144752Y-79359771D01*
X103000000Y-79340715D01*
X102855247Y-79359771D01*
X102795910Y-79384350D01*
X102720358Y-79415645D01*
X102720357Y-79415646D01*
X102720356Y-79415646D01*
X102604526Y-79504526D01*
X102515646Y-79620356D01*
X102515645Y-79620358D01*
X102487708Y-79687802D01*
X102459771Y-79755247D01*
X102440715Y-79899999D01*
X102440715Y-79900000D01*
X100000500Y-79900000D01*
X100000500Y-79023243D01*
X100000584Y-78975500D01*
X100000500Y-78975072D01*
X100000500Y-78413739D01*
X100020502Y-78345618D01*
X100074158Y-78299125D01*
X100098462Y-78290898D01*
X100166351Y-78275403D01*
X100267967Y-78226467D01*
X100356146Y-78156146D01*
X100426467Y-78067967D01*
X100475403Y-77966351D01*
X100497891Y-77867824D01*
X100500500Y-77856394D01*
X100500500Y-77823243D01*
X100500584Y-77775500D01*
X100500500Y-77775072D01*
X100500500Y-77743605D01*
X100500162Y-77740605D01*
X100500500Y-77738675D01*
X100500500Y-77736531D01*
X100500876Y-77736531D01*
X100512413Y-77670673D01*
X100560527Y-77618466D01*
X100625370Y-77600500D01*
X100737658Y-77600500D01*
X100737671Y-77600499D01*
X100849915Y-77585071D01*
X100849916Y-77585070D01*
X100849920Y-77585070D01*
X100988720Y-77524780D01*
X100988721Y-77524778D01*
X100988723Y-77524778D01*
X100988725Y-77524776D01*
X101042481Y-77481042D01*
X101106108Y-77429278D01*
X101193377Y-77305647D01*
X101244054Y-77163056D01*
X101254381Y-77012079D01*
X101223592Y-76863915D01*
X101221051Y-76859012D01*
X101158138Y-76737595D01*
X101153971Y-76729553D01*
X101153970Y-76729552D01*
X101153938Y-76729490D01*
X101140357Y-76659804D01*
X101162872Y-76598861D01*
X101193377Y-76555647D01*
X101244054Y-76413056D01*
X101254381Y-76262079D01*
X101223592Y-76113915D01*
X101153971Y-75979553D01*
X101153970Y-75979552D01*
X101153938Y-75979490D01*
X101140357Y-75909804D01*
X101162872Y-75848861D01*
X101193377Y-75805647D01*
X101244054Y-75663056D01*
X101254381Y-75512079D01*
X101223592Y-75363915D01*
X101153971Y-75229553D01*
X101153970Y-75229552D01*
X101153938Y-75229490D01*
X101140357Y-75159804D01*
X101162872Y-75098861D01*
X101193377Y-75055647D01*
X101244054Y-74913056D01*
X101254381Y-74762079D01*
X101223592Y-74613915D01*
X101153971Y-74479553D01*
X101153970Y-74479552D01*
X101153938Y-74479490D01*
X101140357Y-74409804D01*
X101162872Y-74348861D01*
X101193377Y-74305647D01*
X101244054Y-74163056D01*
X101254381Y-74012079D01*
X101223592Y-73863915D01*
X101220723Y-73858379D01*
X101187548Y-73794353D01*
X101153971Y-73729553D01*
X101050680Y-73618956D01*
X101026908Y-73604500D01*
X100921381Y-73540327D01*
X100775667Y-73499500D01*
X100775665Y-73499500D01*
X100662342Y-73499500D01*
X100662333Y-73499500D01*
X100642077Y-73502284D01*
X100571867Y-73491742D01*
X100518503Y-73444915D01*
X100498926Y-73376670D01*
X100499716Y-73363350D01*
X100500500Y-73356391D01*
X100500500Y-73243605D01*
X100492109Y-73206842D01*
X100475403Y-73133649D01*
X100426467Y-73032033D01*
X100356146Y-72943854D01*
X100267967Y-72873533D01*
X100267965Y-72873532D01*
X100267964Y-72873531D01*
X100267962Y-72873530D01*
X100166355Y-72824599D01*
X100166351Y-72824597D01*
X100166346Y-72824596D01*
X100166344Y-72824595D01*
X100098460Y-72809100D01*
X100036499Y-72774441D01*
X100003112Y-72711784D01*
X100000500Y-72686260D01*
X100000500Y-71005506D01*
X100000979Y-70994526D01*
X100003525Y-70965420D01*
X100004429Y-70955088D01*
X100004543Y-70953874D01*
X100016902Y-70828391D01*
X100020583Y-70808156D01*
X100037895Y-70743548D01*
X100038971Y-70739780D01*
X100066643Y-70648558D01*
X100073010Y-70631916D01*
X100103665Y-70566176D01*
X100106709Y-70560088D01*
X100148958Y-70481046D01*
X100156848Y-70468201D01*
X100199597Y-70407149D01*
X100205380Y-70399527D01*
X100261131Y-70331594D01*
X100269398Y-70322474D01*
X100322474Y-70269398D01*
X100331594Y-70261131D01*
X100399527Y-70205380D01*
X100407149Y-70199597D01*
X100468201Y-70156848D01*
X100481046Y-70148958D01*
X100560088Y-70106709D01*
X100566176Y-70103665D01*
X100631916Y-70073010D01*
X100648558Y-70066643D01*
X100739780Y-70038971D01*
X100743548Y-70037895D01*
X100808156Y-70020583D01*
X100828391Y-70016902D01*
X100953929Y-70004537D01*
X100955078Y-70004430D01*
X100984529Y-70001853D01*
X100994527Y-70000979D01*
X101005507Y-70000500D01*
X105633500Y-70000500D01*
X105701621Y-70020502D01*
G37*
%TD.AperFunction*%
%TD*%
M02*
