M48
INCH
T1C0.0197
%
G90
G05
T1
X3.9646Y-2.5197
X3.9646Y-2.5492
X3.9646Y-2.5787
X3.9646Y-2.6083
X3.9646Y-2.6378
X3.9646Y-2.9154
X3.9646Y-2.9449
X3.9646Y-2.9744
X3.9646Y-3.0039
X3.9646Y-3.0335
X3.9646Y-4.0551
X3.9646Y-4.0846
X3.9646Y-4.1142
X3.9646Y-4.1437
X3.9646Y-4.1732
X3.9646Y-4.9961
X3.9646Y-5.0256
X3.9646Y-5.0551
X3.9646Y-5.0846
X3.9646Y-5.1142
X5.2146Y-2.7835
X5.2146Y-3.9094
X5.2441Y-2.7835
X5.2441Y-3.9094
X5.2736Y-2.7835
X5.2736Y-3.9094
X5.3031Y-2.7835
X5.3031Y-3.9094
X5.3327Y-2.7835
X5.3327Y-3.9094
X5.4843Y-2.9154
X5.4843Y-2.9449
X5.4843Y-2.9744
X5.4843Y-3.0039
X5.4843Y-3.0335
X5.6219Y-4.5869
X5.6367Y-4.6125
X5.6515Y-4.638
X5.6662Y-4.6636
X5.681Y-4.6892
X5.687Y-2.7854
X5.7165Y-2.7854
X5.7461Y-2.7854
X5.7756Y-2.7854
X5.8051Y-2.7854
X5.8504Y-3.9075
X5.8504Y-4.0177
X5.8799Y-3.9075
X5.8799Y-4.0177
X5.9094Y-3.9075
X5.9094Y-4.0177
X5.939Y-3.9075
X5.939Y-4.0177
X5.9685Y-3.9075
X5.9685Y-4.0177
X6.0848Y-4.7123
X6.1057Y-4.6914
X6.1266Y-4.6705
X6.1475Y-4.6497
X6.1684Y-4.6288
X6.1909Y-2.7854
X6.2205Y-2.7854
X6.25Y-2.7854
X6.2795Y-2.7854
X6.3091Y-2.7854
M30
