%TF.GenerationSoftware,KiCad,Pcbnew,7.0.10*%
%TF.CreationDate,2024-04-07T01:49:58-04:00*%
%TF.ProjectId,pixie-rev-4,70697869-652d-4726-9576-2d342e6b6963,rev?*%
%TF.SameCoordinates,Original*%
%TF.FileFunction,Copper,L1,Top*%
%TF.FilePolarity,Positive*%
%FSLAX46Y46*%
G04 Gerber Fmt 4.6, Leading zero omitted, Abs format (unit mm)*
G04 Created by KiCad (PCBNEW 7.0.10) date 2024-04-07 01:49:58*
%MOMM*%
%LPD*%
G01*
G04 APERTURE LIST*
G04 Aperture macros list*
%AMRoundRect*
0 Rectangle with rounded corners*
0 $1 Rounding radius*
0 $2 $3 $4 $5 $6 $7 $8 $9 X,Y pos of 4 corners*
0 Add a 4 corners polygon primitive as box body*
4,1,4,$2,$3,$4,$5,$6,$7,$8,$9,$2,$3,0*
0 Add four circle primitives for the rounded corners*
1,1,$1+$1,$2,$3*
1,1,$1+$1,$4,$5*
1,1,$1+$1,$6,$7*
1,1,$1+$1,$8,$9*
0 Add four rect primitives between the rounded corners*
20,1,$1+$1,$2,$3,$4,$5,0*
20,1,$1+$1,$4,$5,$6,$7,0*
20,1,$1+$1,$6,$7,$8,$9,0*
20,1,$1+$1,$8,$9,$2,$3,0*%
G04 Aperture macros list end*
%TA.AperFunction,SMDPad,CuDef*%
%ADD10RoundRect,0.100000X-0.100000X0.130000X-0.100000X-0.130000X0.100000X-0.130000X0.100000X0.130000X0*%
%TD*%
%TA.AperFunction,SMDPad,CuDef*%
%ADD11RoundRect,0.100000X0.130000X0.100000X-0.130000X0.100000X-0.130000X-0.100000X0.130000X-0.100000X0*%
%TD*%
%TA.AperFunction,SMDPad,CuDef*%
%ADD12RoundRect,0.100000X-0.162635X0.021213X0.021213X-0.162635X0.162635X-0.021213X-0.021213X0.162635X0*%
%TD*%
%TA.AperFunction,SMDPad,CuDef*%
%ADD13C,1.000000*%
%TD*%
%TA.AperFunction,SMDPad,CuDef*%
%ADD14RoundRect,0.100000X0.021213X0.162635X-0.162635X-0.021213X-0.021213X-0.162635X0.162635X0.021213X0*%
%TD*%
%TA.AperFunction,SMDPad,CuDef*%
%ADD15RoundRect,0.237500X-0.237500X0.387500X-0.237500X-0.387500X0.237500X-0.387500X0.237500X0.387500X0*%
%TD*%
%TA.AperFunction,SMDPad,CuDef*%
%ADD16R,0.600000X1.160000*%
%TD*%
%TA.AperFunction,SMDPad,CuDef*%
%ADD17R,0.300000X1.160000*%
%TD*%
%TA.AperFunction,ComponentPad*%
%ADD18O,1.300000X2.100000*%
%TD*%
%TA.AperFunction,ComponentPad*%
%ADD19O,1.300000X2.500000*%
%TD*%
%TA.AperFunction,SMDPad,CuDef*%
%ADD20RoundRect,0.100000X0.100000X-0.130000X0.100000X0.130000X-0.100000X0.130000X-0.100000X-0.130000X0*%
%TD*%
%TA.AperFunction,SMDPad,CuDef*%
%ADD21R,1.000000X1.000000*%
%TD*%
%TA.AperFunction,SMDPad,CuDef*%
%ADD22RoundRect,0.140000X-0.170000X0.140000X-0.170000X-0.140000X0.170000X-0.140000X0.170000X0.140000X0*%
%TD*%
%TA.AperFunction,SMDPad,CuDef*%
%ADD23R,0.700000X0.700000*%
%TD*%
%TA.AperFunction,SMDPad,CuDef*%
%ADD24RoundRect,0.100000X-0.130000X-0.100000X0.130000X-0.100000X0.130000X0.100000X-0.130000X0.100000X0*%
%TD*%
%TA.AperFunction,SMDPad,CuDef*%
%ADD25R,1.300000X0.300000*%
%TD*%
%TA.AperFunction,SMDPad,CuDef*%
%ADD26R,1.600000X2.000000*%
%TD*%
%TA.AperFunction,SMDPad,CuDef*%
%ADD27R,0.340000X0.700000*%
%TD*%
%TA.AperFunction,SMDPad,CuDef*%
%ADD28RoundRect,0.062500X0.062500X-0.375000X0.062500X0.375000X-0.062500X0.375000X-0.062500X-0.375000X0*%
%TD*%
%TA.AperFunction,SMDPad,CuDef*%
%ADD29RoundRect,0.062500X0.375000X-0.062500X0.375000X0.062500X-0.375000X0.062500X-0.375000X-0.062500X0*%
%TD*%
%TA.AperFunction,SMDPad,CuDef*%
%ADD30R,3.100000X3.100000*%
%TD*%
%TA.AperFunction,SMDPad,CuDef*%
%ADD31RoundRect,0.140000X0.170000X-0.140000X0.170000X0.140000X-0.170000X0.140000X-0.170000X-0.140000X0*%
%TD*%
%TA.AperFunction,SMDPad,CuDef*%
%ADD32RoundRect,0.150000X0.150000X-0.650000X0.150000X0.650000X-0.150000X0.650000X-0.150000X-0.650000X0*%
%TD*%
%TA.AperFunction,ConnectorPad*%
%ADD33R,0.500000X0.500000*%
%TD*%
%TA.AperFunction,ComponentPad*%
%ADD34R,0.900000X0.500000*%
%TD*%
%TA.AperFunction,SMDPad,CuDef*%
%ADD35RoundRect,0.140000X-0.140000X-0.170000X0.140000X-0.170000X0.140000X0.170000X-0.140000X0.170000X0*%
%TD*%
%TA.AperFunction,SMDPad,CuDef*%
%ADD36RoundRect,0.150000X0.512500X0.150000X-0.512500X0.150000X-0.512500X-0.150000X0.512500X-0.150000X0*%
%TD*%
%TA.AperFunction,SMDPad,CuDef*%
%ADD37R,1.000000X1.150000*%
%TD*%
%TA.AperFunction,ViaPad*%
%ADD38C,0.600000*%
%TD*%
%TA.AperFunction,ViaPad*%
%ADD39C,0.808000*%
%TD*%
%TA.AperFunction,Conductor*%
%ADD40C,0.250000*%
%TD*%
%TA.AperFunction,Conductor*%
%ADD41C,0.254000*%
%TD*%
%TA.AperFunction,Conductor*%
%ADD42C,0.300000*%
%TD*%
%TA.AperFunction,Conductor*%
%ADD43C,0.160000*%
%TD*%
%TA.AperFunction,Conductor*%
%ADD44C,0.340000*%
%TD*%
%TA.AperFunction,Conductor*%
%ADD45C,0.150000*%
%TD*%
%TA.AperFunction,Conductor*%
%ADD46C,0.349300*%
%TD*%
%TA.AperFunction,Conductor*%
%ADD47C,0.508000*%
%TD*%
%TA.AperFunction,Conductor*%
%ADD48C,0.500000*%
%TD*%
%TA.AperFunction,Conductor*%
%ADD49C,0.381000*%
%TD*%
%TA.AperFunction,Conductor*%
%ADD50C,0.200000*%
%TD*%
G04 APERTURE END LIST*
%TA.AperFunction,EtchedComponent*%
%TO.C,REF\u002A\u002A*%
G36*
X150551582Y-102771476D02*
G01*
X150891534Y-102796093D01*
X151230623Y-102837170D01*
X151568222Y-102894801D01*
X151903703Y-102969077D01*
X152236434Y-103060088D01*
X152565785Y-103167925D01*
X152891124Y-103292678D01*
X153211821Y-103434441D01*
X153527247Y-103593301D01*
X153836768Y-103769353D01*
X154139759Y-103962683D01*
X154435583Y-104173388D01*
X154536200Y-104250327D01*
X154635928Y-104329535D01*
X154734672Y-104410911D01*
X154832327Y-104494363D01*
X154928801Y-104579785D01*
X155023992Y-104667082D01*
X155117799Y-104756155D01*
X155210131Y-104846906D01*
X155424288Y-105070889D01*
X155627792Y-105303704D01*
X155820441Y-105544903D01*
X156002042Y-105794043D01*
X156172396Y-106050681D01*
X156331302Y-106314376D01*
X156478569Y-106584681D01*
X156613998Y-106861149D01*
X156737389Y-107143342D01*
X156848546Y-107430812D01*
X156947271Y-107723117D01*
X157033369Y-108019813D01*
X157106640Y-108320454D01*
X157166887Y-108624599D01*
X157213916Y-108931801D01*
X157247524Y-109241619D01*
X157251369Y-109273084D01*
X157256570Y-109304302D01*
X157263103Y-109335222D01*
X157270942Y-109365799D01*
X157280064Y-109395980D01*
X157290444Y-109425720D01*
X157302056Y-109454963D01*
X157314877Y-109483666D01*
X157328885Y-109511774D01*
X157344049Y-109539243D01*
X157360346Y-109566022D01*
X157377759Y-109592059D01*
X157396254Y-109617308D01*
X157415809Y-109641718D01*
X157436401Y-109665239D01*
X157458000Y-109687826D01*
X157465897Y-109695527D01*
X157473801Y-109702869D01*
X157481734Y-109709894D01*
X157489705Y-109716634D01*
X157505803Y-109729410D01*
X157522195Y-109741497D01*
X157538987Y-109753186D01*
X157556268Y-109764779D01*
X157592706Y-109788854D01*
X157630970Y-109809769D01*
X157669924Y-109828317D01*
X157709471Y-109844497D01*
X157749509Y-109858311D01*
X157789945Y-109869754D01*
X157830673Y-109878832D01*
X157871600Y-109885541D01*
X157912628Y-109889881D01*
X157953654Y-109891854D01*
X157994581Y-109891460D01*
X158035312Y-109888696D01*
X158075746Y-109883567D01*
X158115784Y-109876070D01*
X158155331Y-109866203D01*
X158194286Y-109853968D01*
X158232549Y-109839366D01*
X158636659Y-109670987D01*
X158738709Y-109633393D01*
X158842547Y-109602666D01*
X158947791Y-109578771D01*
X159054058Y-109561672D01*
X159160967Y-109551331D01*
X159268134Y-109547712D01*
X159375178Y-109550777D01*
X159481717Y-109560488D01*
X159587365Y-109576811D01*
X159691746Y-109599705D01*
X159794475Y-109629137D01*
X159895168Y-109665067D01*
X159993443Y-109707461D01*
X160088920Y-109756279D01*
X160181214Y-109811485D01*
X160269943Y-109873042D01*
X160282475Y-109879648D01*
X160294823Y-109886806D01*
X160306997Y-109894484D01*
X160319010Y-109902643D01*
X160330876Y-109911245D01*
X160342605Y-109920252D01*
X160354214Y-109929632D01*
X160365709Y-109939344D01*
X160388418Y-109959618D01*
X160410829Y-109980781D01*
X160455162Y-110024587D01*
X160479678Y-110049859D01*
X160502912Y-110075233D01*
X160525159Y-110100802D01*
X160546716Y-110126667D01*
X160567878Y-110152927D01*
X160588943Y-110179681D01*
X160631958Y-110235061D01*
X160672384Y-110294907D01*
X160709998Y-110355994D01*
X160744803Y-110418225D01*
X160776793Y-110481514D01*
X160805971Y-110545763D01*
X160832339Y-110610882D01*
X160855894Y-110676777D01*
X160876637Y-110743358D01*
X160894568Y-110810530D01*
X160909688Y-110878201D01*
X160921996Y-110946280D01*
X160931491Y-111014673D01*
X160938176Y-111083287D01*
X160942048Y-111152032D01*
X160943108Y-111220813D01*
X160941358Y-111289539D01*
X160936795Y-111358118D01*
X160929419Y-111426456D01*
X160919233Y-111494459D01*
X160906235Y-111562039D01*
X160890425Y-111629099D01*
X160871802Y-111695549D01*
X160850368Y-111761300D01*
X160826121Y-111826252D01*
X160799064Y-111890313D01*
X160769194Y-111953399D01*
X160736514Y-112015408D01*
X160701023Y-112076254D01*
X160662714Y-112135841D01*
X160621600Y-112194079D01*
X160577672Y-112250874D01*
X160530931Y-112306133D01*
X159525784Y-113433620D01*
X158504801Y-114552178D01*
X157238055Y-115908408D01*
X155800431Y-117403156D01*
X154266810Y-118937271D01*
X153487400Y-119688105D01*
X152712076Y-120411597D01*
X151950191Y-121095355D01*
X151211111Y-121726982D01*
X151202691Y-121735401D01*
X151101986Y-121813489D01*
X150998868Y-121886739D01*
X150893494Y-121955138D01*
X150786016Y-122018688D01*
X150676592Y-122077376D01*
X150565373Y-122131200D01*
X150452511Y-122180155D01*
X150338166Y-122224229D01*
X150222489Y-122263419D01*
X150105633Y-122297722D01*
X149987754Y-122327127D01*
X149869003Y-122351632D01*
X149749542Y-122371226D01*
X149629517Y-122385908D01*
X149509084Y-122395667D01*
X149388397Y-122400500D01*
X149267616Y-122400401D01*
X149146889Y-122395363D01*
X149026369Y-122385379D01*
X148906213Y-122370443D01*
X148786577Y-122350550D01*
X148667614Y-122325692D01*
X148549475Y-122295866D01*
X148432318Y-122261060D01*
X148316295Y-122221276D01*
X148201560Y-122176502D01*
X148088268Y-122126733D01*
X147976575Y-122071963D01*
X147866630Y-122012186D01*
X147758593Y-121947398D01*
X147652616Y-121877587D01*
X147548851Y-121802753D01*
X147505045Y-121770789D01*
X147462027Y-121738033D01*
X147419801Y-121704487D01*
X147378366Y-121670153D01*
X147337718Y-121635030D01*
X147297858Y-121599119D01*
X147258790Y-121562417D01*
X147220510Y-121524926D01*
X147186159Y-121489820D01*
X147152500Y-121454022D01*
X147119432Y-121417635D01*
X147086858Y-121380751D01*
X147022793Y-121305901D01*
X146959522Y-121230261D01*
X146942683Y-121213422D01*
X145791847Y-119580764D01*
X144626409Y-117782950D01*
X143495700Y-115933435D01*
X142449048Y-114145681D01*
X140805240Y-111209296D01*
X140089626Y-109881463D01*
X140057213Y-109817054D01*
X140027842Y-109751752D01*
X140001495Y-109685651D01*
X139978155Y-109618847D01*
X139957808Y-109551432D01*
X139940433Y-109483499D01*
X139926014Y-109415146D01*
X139914534Y-109346464D01*
X139905982Y-109277546D01*
X139900331Y-109208489D01*
X139897571Y-109139384D01*
X139897682Y-109070330D01*
X139900649Y-109001415D01*
X139906453Y-108932737D01*
X139915078Y-108864389D01*
X139926507Y-108796465D01*
X139940725Y-108729059D01*
X139957711Y-108662264D01*
X139977450Y-108596177D01*
X139999926Y-108530889D01*
X140025121Y-108466495D01*
X140053019Y-108403088D01*
X140083603Y-108340765D01*
X140116854Y-108279618D01*
X140152758Y-108219740D01*
X140191296Y-108161227D01*
X140232451Y-108104172D01*
X140276206Y-108048672D01*
X140322547Y-107994815D01*
X140371454Y-107942700D01*
X140422910Y-107892419D01*
X140476895Y-107844067D01*
X140531294Y-107799573D01*
X140587092Y-107757650D01*
X140644204Y-107718309D01*
X140702551Y-107681557D01*
X140762050Y-107647400D01*
X140822622Y-107615847D01*
X140884180Y-107586905D01*
X140946652Y-107560583D01*
X141073987Y-107515827D01*
X141203974Y-107481639D01*
X141335959Y-107458082D01*
X141469286Y-107445217D01*
X141603307Y-107443106D01*
X141737362Y-107451811D01*
X141870802Y-107471392D01*
X141937086Y-107485281D01*
X142002972Y-107501913D01*
X142068376Y-107521296D01*
X142133217Y-107543437D01*
X142197413Y-107568342D01*
X142260885Y-107596019D01*
X142323548Y-107626478D01*
X142385320Y-107659725D01*
X142446123Y-107695772D01*
X142505873Y-107734620D01*
X142539691Y-107757211D01*
X142574755Y-107777618D01*
X142610929Y-107795831D01*
X142648076Y-107811837D01*
X142686061Y-107825625D01*
X142724750Y-107837177D01*
X142764007Y-107846486D01*
X142803696Y-107853538D01*
X142843679Y-107858321D01*
X142883825Y-107860822D01*
X142923993Y-107861029D01*
X142964052Y-107858931D01*
X143003862Y-107854516D01*
X143043291Y-107847768D01*
X143082203Y-107838675D01*
X143120461Y-107827229D01*
X143158031Y-107813525D01*
X143194899Y-107797712D01*
X143230953Y-107779854D01*
X143266082Y-107760009D01*
X143300174Y-107738240D01*
X143333122Y-107714608D01*
X143364810Y-107689176D01*
X143395129Y-107662006D01*
X143423970Y-107633157D01*
X143451218Y-107602695D01*
X143476764Y-107570677D01*
X143500496Y-107537170D01*
X143522309Y-107502228D01*
X143542084Y-107465919D01*
X143559713Y-107428303D01*
X143575085Y-107389442D01*
X143667794Y-107151474D01*
X143768986Y-106917452D01*
X143878466Y-106687376D01*
X143996037Y-106461247D01*
X144121498Y-106239064D01*
X144254655Y-106020829D01*
X144395312Y-105806541D01*
X144543271Y-105596196D01*
X144767988Y-105310665D01*
X145004456Y-105039777D01*
X145252045Y-104783623D01*
X145510121Y-104542295D01*
X145778060Y-104315880D01*
X146055230Y-104104477D01*
X146340998Y-103908168D01*
X146634733Y-103727050D01*
X146935805Y-103561211D01*
X147243586Y-103410744D01*
X147557443Y-103275738D01*
X147876747Y-103156285D01*
X148200866Y-103052476D01*
X148529171Y-102964401D01*
X148861030Y-102892153D01*
X149195815Y-102835820D01*
X149532893Y-102795495D01*
X149871635Y-102771270D01*
X150211407Y-102763234D01*
X150551582Y-102771476D01*
G37*
%TD.AperFunction*%
%TA.AperFunction,EtchedComponent*%
%TO.C,AE1*%
G36*
X101950000Y-99200000D02*
G01*
X103350000Y-99200000D01*
X103350000Y-94300000D01*
X103850000Y-94300000D01*
X103850000Y-99200000D01*
X105550000Y-99200000D01*
X105550000Y-96560000D01*
X108550000Y-96560000D01*
X108550000Y-99200000D01*
X110250000Y-99200000D01*
X110250000Y-96560000D01*
X113250000Y-96560000D01*
X113250000Y-99200000D01*
X114950000Y-99200000D01*
X114950000Y-95260000D01*
X115450000Y-95260000D01*
X115450000Y-99700000D01*
X112750000Y-99700000D01*
X112750000Y-97060000D01*
X110750000Y-97060000D01*
X110750000Y-99700000D01*
X108050000Y-99700000D01*
X108050000Y-97060000D01*
X106050000Y-97060000D01*
X106050000Y-99700000D01*
X101050000Y-99700000D01*
X101050000Y-94543215D01*
X101352417Y-94543215D01*
X101357153Y-94591622D01*
X101376815Y-94636416D01*
X101411755Y-94673186D01*
X101444647Y-94690092D01*
X101492733Y-94697982D01*
X101542318Y-94691408D01*
X101587628Y-94671313D01*
X101622888Y-94638643D01*
X101639782Y-94606417D01*
X101648222Y-94558158D01*
X101641691Y-94508632D01*
X101621132Y-94463447D01*
X101587489Y-94428213D01*
X101568878Y-94417600D01*
X101523363Y-94404700D01*
X101474844Y-94403957D01*
X101432181Y-94416065D01*
X101424269Y-94420419D01*
X101386326Y-94453203D01*
X101362258Y-94495605D01*
X101352417Y-94543215D01*
X101050000Y-94543215D01*
X101050000Y-94300000D01*
X101950000Y-94300000D01*
X101950000Y-99200000D01*
G37*
%TD.AperFunction*%
%TD*%
D10*
%TO.P,C13,1*%
%TO.N,3V3*%
X109700000Y-91425000D03*
%TO.P,C13,2*%
%TO.N,GND*%
X109700000Y-92065000D03*
%TD*%
D11*
%TO.P,C15,1*%
%TO.N,3V3*%
X110545000Y-90475000D03*
%TO.P,C15,2*%
%TO.N,GND*%
X109905000Y-90475000D03*
%TD*%
D12*
%TO.P,L2,1,1*%
%TO.N,/MCU/VRF*%
X108000000Y-90800000D03*
%TO.P,L2,2,2*%
%TO.N,3V3*%
X108452548Y-91252548D03*
%TD*%
D11*
%TO.P,C9,1*%
%TO.N,Net-(C9-Pad1)*%
X102575000Y-88850000D03*
%TO.P,C9,2*%
%TO.N,GND*%
X101935000Y-88850000D03*
%TD*%
D13*
%TO.P,TP2,1,1*%
%TO.N,/MCU/IO21*%
X102400000Y-71900000D03*
%TD*%
D14*
%TO.P,C11,1*%
%TO.N,/MCU/VRF*%
X107426274Y-90223726D03*
%TO.P,C11,2*%
%TO.N,GND*%
X106973726Y-90676274D03*
%TD*%
D15*
%TO.P,SW3,1,1*%
%TO.N,GND*%
X136575000Y-86325000D03*
%TO.P,SW3,2,2*%
X136575000Y-90675000D03*
%TO.P,SW3,3,3*%
%TO.N,/SW_3*%
X134425000Y-86325000D03*
%TO.P,SW3,4,4*%
%TO.N,unconnected-(SW3-Pad4)*%
X134425000Y-90675000D03*
%TD*%
D16*
%TO.P,J1,A1,GND*%
%TO.N,GND*%
X113580000Y-77280000D03*
%TO.P,J1,A4,VBUS*%
%TO.N,5V*%
X112780000Y-77280000D03*
D17*
%TO.P,J1,A5,CC1*%
%TO.N,/Power/CC1*%
X111630000Y-77280000D03*
%TO.P,J1,A6,D1+*%
%TO.N,/Power/USB_D+*%
X110630000Y-77280000D03*
%TO.P,J1,A7,D1-*%
%TO.N,/Power/USB_D-*%
X110130000Y-77280000D03*
%TO.P,J1,A8,SUB1*%
%TO.N,unconnected-(J1-SUB1-PadA8)*%
X109130000Y-77280000D03*
D16*
%TO.P,J1,A9,VBUS*%
%TO.N,5V*%
X107980000Y-77280000D03*
%TO.P,J1,A12,GND*%
%TO.N,GND*%
X107180000Y-77280000D03*
%TO.P,J1,B1,GND*%
X107180000Y-77280000D03*
%TO.P,J1,B4,VBUS*%
%TO.N,5V*%
X107980000Y-77280000D03*
D17*
%TO.P,J1,B5,CC2*%
%TO.N,/Power/CC2*%
X108630000Y-77280000D03*
%TO.P,J1,B6,D2+*%
%TO.N,/Power/USB_D+*%
X109630000Y-77280000D03*
%TO.P,J1,B7,D2-*%
%TO.N,/Power/USB_D-*%
X111130000Y-77280000D03*
%TO.P,J1,B8,SUB2*%
%TO.N,unconnected-(J1-SUB2-PadB8)*%
X112130000Y-77280000D03*
D16*
%TO.P,J1,B9,VBUS*%
%TO.N,5V*%
X112780000Y-77280000D03*
%TO.P,J1,B12,GND*%
%TO.N,GND*%
X113580000Y-77280000D03*
D18*
%TO.P,J1,S1,SHEILD*%
%TO.N,unconnected-(J1-SHEILD-PadS1)*%
X115980000Y-76100000D03*
D19*
%TO.P,J1,S2,SHEILD*%
%TO.N,unconnected-(J1-SHEILD-PadS2)*%
X116000000Y-72100000D03*
D18*
%TO.P,J1,S3,SHEILD*%
%TO.N,unconnected-(J1-SHEILD-PadS3)*%
X104780000Y-76100000D03*
D19*
%TO.P,J1,S4,SHEILD*%
%TO.N,unconnected-(J1-SHEILD-PadS4)*%
X104760000Y-72100000D03*
%TD*%
D11*
%TO.P,C12,1*%
%TO.N,3V3*%
X104225000Y-89525000D03*
%TO.P,C12,2*%
%TO.N,GND*%
X103585000Y-89525000D03*
%TD*%
D10*
%TO.P,R7,1*%
%TO.N,/MCU/FLASH_IO1*%
X105725000Y-81155000D03*
%TO.P,R7,2*%
%TO.N,/MCU/SPI_Q*%
X105725000Y-81795000D03*
%TD*%
D11*
%TO.P,C7,1*%
%TO.N,/MCU/CHIP_PU*%
X113220000Y-93000000D03*
%TO.P,C7,2*%
%TO.N,GND*%
X112580000Y-93000000D03*
%TD*%
D20*
%TO.P,C3,1*%
%TO.N,3V3*%
X122750000Y-93920000D03*
%TO.P,C3,2*%
%TO.N,GND*%
X122750000Y-93280000D03*
%TD*%
D10*
%TO.P,C18,1*%
%TO.N,3V3*%
X116400000Y-78285000D03*
%TO.P,C18,2*%
%TO.N,GND*%
X116400000Y-78925000D03*
%TD*%
D11*
%TO.P,R2,1*%
%TO.N,GND*%
X113725000Y-79175000D03*
%TO.P,R2,2*%
%TO.N,/Power/CC1*%
X113085000Y-79175000D03*
%TD*%
D15*
%TO.P,SW1,1,1*%
%TO.N,GND*%
X136575000Y-72325000D03*
%TO.P,SW1,2,2*%
X136575000Y-76675000D03*
%TO.P,SW1,3,3*%
%TO.N,unconnected-(SW1-Pad3)*%
X134425000Y-72325000D03*
%TO.P,SW1,4,4*%
%TO.N,/MCU/SW_1*%
X134425000Y-76675000D03*
%TD*%
D21*
%TO.P,GND1,1,1*%
%TO.N,GND*%
X118400000Y-71400000D03*
%TD*%
D22*
%TO.P,C17,1*%
%TO.N,3V3*%
X110625000Y-91450000D03*
%TO.P,C17,2*%
%TO.N,GND*%
X110625000Y-92410000D03*
%TD*%
D13*
%TO.P,TP1,1,1*%
%TO.N,/MCU/IO20*%
X102450000Y-75200000D03*
%TD*%
D23*
%TO.P,D2,1,D0*%
%TO.N,Net-(D2-D0)*%
X131500000Y-82410000D03*
%TO.P,D2,2,GND*%
%TO.N,GND*%
X132600000Y-82410000D03*
%TO.P,D2,3,DIN*%
%TO.N,Net-(D1-D0)*%
X132600000Y-80580000D03*
%TO.P,D2,4,VDD*%
%TO.N,5V*%
X131500000Y-80580000D03*
%TD*%
D10*
%TO.P,R8,1*%
%TO.N,/MCU/FLASH_IO3*%
X109475000Y-81160000D03*
%TO.P,R8,2*%
%TO.N,/MCU/SPI_HD*%
X109475000Y-81800000D03*
%TD*%
%TO.P,R9,1*%
%TO.N,/MCU/FLASH_IO0*%
X106475000Y-81160000D03*
%TO.P,R9,2*%
%TO.N,/MCU/SPI_D*%
X106475000Y-81800000D03*
%TD*%
D24*
%TO.P,R1,1*%
%TO.N,GND*%
X105130000Y-79100000D03*
%TO.P,R1,2*%
%TO.N,/Power/CC2*%
X105770000Y-79100000D03*
%TD*%
D20*
%TO.P,R11,1*%
%TO.N,Net-(U4-U0TXD{slash}GPIO21)*%
X101750000Y-81450000D03*
%TO.P,R11,2*%
%TO.N,/MCU/IO21*%
X101750000Y-80810000D03*
%TD*%
D10*
%TO.P,R5,1*%
%TO.N,/MCU/VCC_SPI*%
X107975000Y-81160000D03*
%TO.P,R5,2*%
%TO.N,/MCU/FLASH_CS0*%
X107975000Y-81800000D03*
%TD*%
D21*
%TO.P,5V1,1,1*%
%TO.N,5V*%
X129600000Y-92950000D03*
%TD*%
D11*
%TO.P,C14,1*%
%TO.N,3V3*%
X103700000Y-90300000D03*
%TO.P,C14,2*%
%TO.N,GND*%
X103060000Y-90300000D03*
%TD*%
D25*
%TO.P,J2,1,GND*%
%TO.N,GND*%
X117750000Y-87750000D03*
%TO.P,J2,2,GND*%
X117750000Y-87250000D03*
%TO.P,J2,3,NC*%
%TO.N,unconnected-(J2-NC-Pad3)*%
X117750000Y-86750000D03*
%TO.P,J2,4,TE*%
%TO.N,unconnected-(J2-TE-Pad4)*%
X117750000Y-86250000D03*
%TO.P,J2,5,DB7*%
%TO.N,GND*%
X117750000Y-85750000D03*
%TO.P,J2,6,DB6*%
X117750000Y-85250000D03*
%TO.P,J2,7,DB5*%
X117750000Y-84750000D03*
%TO.P,J2,8,DB4*%
X117750000Y-84250000D03*
%TO.P,J2,9,DB3*%
X117750000Y-83750000D03*
%TO.P,J2,10,DB2*%
X117750000Y-83250000D03*
%TO.P,J2,11,DB1*%
X117750000Y-82750000D03*
%TO.P,J2,12,DB0*%
X117750000Y-82250000D03*
%TO.P,J2,13,gnd/SDA*%
%TO.N,/MCU/DISP_SDA*%
X117750000Y-81750000D03*
%TO.P,J2,14,RD/gnd*%
%TO.N,GND*%
X117750000Y-81250000D03*
%TO.P,J2,15,WE/DC*%
%TO.N,/MCU/DISP_DC*%
X117750000Y-80750000D03*
%TO.P,J2,16,DC/CLK*%
%TO.N,/MCU/DISP_SCL*%
X117750000Y-80250000D03*
%TO.P,J2,17,CS*%
%TO.N,GND*%
X117750000Y-79750000D03*
%TO.P,J2,18,RESET*%
%TO.N,/MCU/DISP_RST*%
X117750000Y-79250000D03*
%TO.P,J2,19,IM1/2*%
%TO.N,3V3*%
X117750000Y-78750000D03*
%TO.P,J2,20,VDDIO*%
X117750000Y-78250000D03*
%TO.P,J2,21,VDD*%
X117750000Y-77750000D03*
%TO.P,J2,22,GND*%
%TO.N,GND*%
X117750000Y-77250000D03*
%TO.P,J2,23,LEDK*%
%TO.N,Net-(J2-LEDK)*%
X117750000Y-76750000D03*
%TO.P,J2,24,LEDA*%
%TO.N,3V3*%
X117750000Y-76250000D03*
D26*
%TO.P,J2,MP0,MP0*%
%TO.N,GND*%
X120450000Y-89450000D03*
%TO.P,J2,MP1,MP1*%
X120450000Y-74460000D03*
%TD*%
D21*
%TO.P,3V1,1,1*%
%TO.N,3V3*%
X121200000Y-92950000D03*
%TD*%
D24*
%TO.P,C10,1*%
%TO.N,/MCU/VCC_SPI*%
X112020000Y-80970000D03*
%TO.P,C10,2*%
%TO.N,GND*%
X112660000Y-80970000D03*
%TD*%
D15*
%TO.P,SW2,1,1*%
%TO.N,GND*%
X136575000Y-79325000D03*
%TO.P,SW2,2,2*%
X136575000Y-83675000D03*
%TO.P,SW2,3,3*%
%TO.N,unconnected-(SW2-Pad3)*%
X134425000Y-79325000D03*
%TO.P,SW2,4,4*%
%TO.N,/MCU/SW_2*%
X134425000Y-83675000D03*
%TD*%
D10*
%TO.P,R6,1*%
%TO.N,/MCU/FLASH_CLK*%
X107225000Y-81160000D03*
%TO.P,R6,2*%
%TO.N,/MCU/SPI_CLK*%
X107225000Y-81800000D03*
%TD*%
D23*
%TO.P,D4,1,D0*%
%TO.N,unconnected-(D4-D0-Pad1)*%
X131500000Y-96410000D03*
%TO.P,D4,2,GND*%
%TO.N,GND*%
X132600000Y-96410000D03*
%TO.P,D4,3,DIN*%
%TO.N,Net-(D3-D0)*%
X132600000Y-94580000D03*
%TO.P,D4,4,VDD*%
%TO.N,5V*%
X131500000Y-94580000D03*
%TD*%
D13*
%TO.P,BOOT1,1,1*%
%TO.N,/PIXEL*%
X124850000Y-71400000D03*
%TD*%
D10*
%TO.P,R10,1*%
%TO.N,/MCU/FLASH_IO2*%
X108725000Y-81160000D03*
%TO.P,R10,2*%
%TO.N,/MCU/SPI_WP*%
X108725000Y-81800000D03*
%TD*%
D11*
%TO.P,C20,1*%
%TO.N,5V*%
X129575000Y-74550000D03*
%TO.P,C20,2*%
%TO.N,GND*%
X128935000Y-74550000D03*
%TD*%
D13*
%TO.P,REF\u002A\u002A,1*%
%TO.N,N/C*%
X158750000Y-66850000D03*
%TD*%
D20*
%TO.P,R12,1*%
%TO.N,Net-(J2-LEDK)*%
X120600000Y-72620000D03*
%TO.P,R12,2*%
%TO.N,GND*%
X120600000Y-71980000D03*
%TD*%
D27*
%TO.P,U1,1,I/O1*%
%TO.N,/USB_P*%
X103000000Y-80700000D03*
%TO.P,U1,2,GND*%
%TO.N,GND*%
X103500000Y-80700000D03*
%TO.P,U1,3,I/O2*%
%TO.N,/USB_N*%
X104000000Y-80700000D03*
%TO.P,U1,4,I/O2*%
%TO.N,/Power/USB_D-*%
X104000000Y-79200000D03*
%TO.P,U1,5,VBUS*%
%TO.N,5V*%
X103500000Y-79200000D03*
%TO.P,U1,6,I/O1*%
%TO.N,/Power/USB_D+*%
X103000000Y-79200000D03*
%TD*%
D28*
%TO.P,U4,1,LNA_IN*%
%TO.N,/MCU/ANTENNA*%
X106050000Y-88887500D03*
%TO.P,U4,2,VDD3P3*%
%TO.N,/MCU/VRF*%
X106550000Y-88887500D03*
%TO.P,U4,3,VDD3P3*%
X107050000Y-88887500D03*
%TO.P,U4,4,XTAL_32K_P/ADC1_CH0*%
%TO.N,unconnected-(U4-XTAL_32K_P{slash}ADC1_CH0-Pad4)*%
X107550000Y-88887500D03*
%TO.P,U4,5,XTAL_32K_N/ADC1_CH1*%
%TO.N,unconnected-(U4-XTAL_32K_N{slash}ADC1_CH1-Pad5)*%
X108050000Y-88887500D03*
%TO.P,U4,6,GPIO2/ADC1_CH2*%
%TO.N,/SW_4*%
X108550000Y-88887500D03*
%TO.P,U4,7,CHIP_EN*%
%TO.N,/MCU/CHIP_PU*%
X109050000Y-88887500D03*
%TO.P,U4,8,GPIO3/ADC1_CH3*%
%TO.N,/SW_3*%
X109550000Y-88887500D03*
D29*
%TO.P,U4,9,MTMS/GPIO4/ADC1_CH4*%
%TO.N,/MCU/DISP_DC*%
X110237500Y-88200000D03*
%TO.P,U4,10,MTDI/GPIO5/ADC2_CH0*%
%TO.N,/MCU/DISP_RST*%
X110237500Y-87700000D03*
%TO.P,U4,11,VDD3P3_RTC*%
%TO.N,3V3*%
X110237500Y-87200000D03*
%TO.P,U4,12,MTCK/GPIO6*%
%TO.N,/MCU/DISP_SCL*%
X110237500Y-86700000D03*
%TO.P,U4,13,MTDO/GPIO7*%
%TO.N,/MCU/DISP_SDA*%
X110237500Y-86200000D03*
%TO.P,U4,14,GPIO8*%
%TO.N,/MCU/SW_2*%
X110237500Y-85700000D03*
%TO.P,U4,15,GPIO9/BOOT*%
%TO.N,/PIXEL*%
X110237500Y-85200000D03*
%TO.P,U4,16,GPIO10*%
%TO.N,/MCU/SW_1*%
X110237500Y-84700000D03*
D28*
%TO.P,U4,17,VDD3P3_CPU*%
%TO.N,3V3*%
X109550000Y-84012500D03*
%TO.P,U4,18,VDD_SPI/GPIO11*%
%TO.N,/MCU/VCC_SPI*%
X109050000Y-84012500D03*
%TO.P,U4,19,SPIHD/GPIO12*%
%TO.N,/MCU/SPI_HD*%
X108550000Y-84012500D03*
%TO.P,U4,20,SPIWP/GPIO13*%
%TO.N,/MCU/SPI_WP*%
X108050000Y-84012500D03*
%TO.P,U4,21,SPICS0/GPIO14*%
%TO.N,/MCU/FLASH_CS0*%
X107550000Y-84012500D03*
%TO.P,U4,22,SPICLK/GPIO15*%
%TO.N,/MCU/SPI_CLK*%
X107050000Y-84012500D03*
%TO.P,U4,23,SPID/GPIO16*%
%TO.N,/MCU/SPI_D*%
X106550000Y-84012500D03*
%TO.P,U4,24,SPIQ/GPIO17*%
%TO.N,/MCU/SPI_Q*%
X106050000Y-84012500D03*
D29*
%TO.P,U4,25,GPIO18/USB_D-*%
%TO.N,/USB_N*%
X105362500Y-84700000D03*
%TO.P,U4,26,GPIO19/USB_D+*%
%TO.N,/USB_P*%
X105362500Y-85200000D03*
%TO.P,U4,27,U0RXD/GPIO20*%
%TO.N,/MCU/IO20*%
X105362500Y-85700000D03*
%TO.P,U4,28,U0TXD/GPIO21*%
%TO.N,Net-(U4-U0TXD{slash}GPIO21)*%
X105362500Y-86200000D03*
%TO.P,U4,29,XTAL_N*%
%TO.N,/MCU/XTAL_N*%
X105362500Y-86700000D03*
%TO.P,U4,30,XTAL_P*%
%TO.N,/MCU/XTAL_P*%
X105362500Y-87200000D03*
%TO.P,U4,31,VDDA*%
%TO.N,3V3*%
X105362500Y-87700000D03*
%TO.P,U4,32,VDDA*%
X105362500Y-88200000D03*
D30*
%TO.P,U4,33,GND*%
%TO.N,GND*%
X107800000Y-86450000D03*
%TD*%
D24*
%TO.P,C8,1*%
%TO.N,Net-(AE1-Pad1)*%
X106030000Y-92400000D03*
%TO.P,C8,2*%
%TO.N,GND*%
X106670000Y-92400000D03*
%TD*%
%TO.P,C6,1*%
%TO.N,/MCU/XTAL_N*%
X101535000Y-84550000D03*
%TO.P,C6,2*%
%TO.N,GND*%
X102175000Y-84550000D03*
%TD*%
D13*
%TO.P,PU1,1,1*%
%TO.N,/MCU/CHIP_PU*%
X114720000Y-92700000D03*
%TD*%
D20*
%TO.P,C16,1*%
%TO.N,3V3*%
X110600000Y-82645000D03*
%TO.P,C16,2*%
%TO.N,GND*%
X110600000Y-82005000D03*
%TD*%
D23*
%TO.P,D1,1,D0*%
%TO.N,Net-(D1-D0)*%
X131500000Y-75410000D03*
%TO.P,D1,2,GND*%
%TO.N,GND*%
X132600000Y-75410000D03*
%TO.P,D1,3,DIN*%
%TO.N,Net-(D1-DIN)*%
X132600000Y-73580000D03*
%TO.P,D1,4,VDD*%
%TO.N,5V*%
X131500000Y-73580000D03*
%TD*%
D10*
%TO.P,L1,1,1*%
%TO.N,/MCU/ANTENNA*%
X106000000Y-90980000D03*
%TO.P,L1,2,2*%
%TO.N,Net-(AE1-Pad1)*%
X106000000Y-91620000D03*
%TD*%
D31*
%TO.P,C4,1*%
%TO.N,3V3*%
X123700000Y-93880000D03*
%TO.P,C4,2*%
%TO.N,GND*%
X123700000Y-92920000D03*
%TD*%
D20*
%TO.P,C19,1*%
%TO.N,3V3*%
X125900000Y-73250000D03*
%TO.P,C19,2*%
%TO.N,GND*%
X125900000Y-72610000D03*
%TD*%
D32*
%TO.P,U3,1,~{CS}*%
%TO.N,/MCU/FLASH_CS0*%
X111995000Y-89850000D03*
%TO.P,U3,2,DO(IO1)*%
%TO.N,/MCU/FLASH_IO1*%
X113265000Y-89850000D03*
%TO.P,U3,3,IO2*%
%TO.N,/MCU/FLASH_IO2*%
X114535000Y-89850000D03*
%TO.P,U3,4,GND*%
%TO.N,GND*%
X115805000Y-89850000D03*
%TO.P,U3,5,DI(IO0)*%
%TO.N,/MCU/FLASH_IO0*%
X115805000Y-82650000D03*
%TO.P,U3,6,CLK*%
%TO.N,/MCU/FLASH_CLK*%
X114535000Y-82650000D03*
%TO.P,U3,7,IO3*%
%TO.N,/MCU/FLASH_IO3*%
X113265000Y-82650000D03*
%TO.P,U3,8,VCC*%
%TO.N,/MCU/VCC_SPI*%
X111995000Y-82650000D03*
%TD*%
D33*
%TO.P,AE1,1*%
%TO.N,Net-(AE1-Pad1)*%
X103600000Y-94550000D03*
D34*
%TO.P,AE1,2*%
%TO.N,GND*%
X101500000Y-94550000D03*
%TD*%
D13*
%TO.P,REF\u002A\u002A,1*%
%TO.N,N/C*%
X96850000Y-129150000D03*
%TD*%
D35*
%TO.P,C1,1*%
%TO.N,5V*%
X127640000Y-90700000D03*
%TO.P,C1,2*%
%TO.N,GND*%
X128600000Y-90700000D03*
%TD*%
D10*
%TO.P,R4,1*%
%TO.N,/MCU/XTAL_P*%
X104200000Y-87280000D03*
%TO.P,R4,2*%
%TO.N,Net-(C9-Pad1)*%
X104200000Y-87920000D03*
%TD*%
D36*
%TO.P,U2,1,IN*%
%TO.N,5V*%
X127500000Y-93900000D03*
%TO.P,U2,2,GND*%
%TO.N,GND*%
X127500000Y-92950000D03*
%TO.P,U2,3,EN*%
%TO.N,5V*%
X127500000Y-92000000D03*
%TO.P,U2,4,BP*%
%TO.N,unconnected-(U2-BP-Pad4)*%
X125225000Y-92000000D03*
%TO.P,U2,5,OUT*%
%TO.N,3V3*%
X125225000Y-93900000D03*
%TD*%
D23*
%TO.P,D3,1,D0*%
%TO.N,Net-(D3-D0)*%
X131500000Y-89410000D03*
%TO.P,D3,2,GND*%
%TO.N,GND*%
X132600000Y-89410000D03*
%TO.P,D3,3,DIN*%
%TO.N,Net-(D2-D0)*%
X132600000Y-87580000D03*
%TO.P,D3,4,VDD*%
%TO.N,5V*%
X131500000Y-87580000D03*
%TD*%
D15*
%TO.P,SW4,1,1*%
%TO.N,GND*%
X136575000Y-93325000D03*
%TO.P,SW4,2,2*%
X136575000Y-97675000D03*
%TO.P,SW4,3,3*%
%TO.N,/SW_4*%
X134425000Y-93325000D03*
%TO.P,SW4,4,4*%
%TO.N,unconnected-(SW4-Pad4)*%
X134425000Y-97675000D03*
%TD*%
D37*
%TO.P,Y1,1,1*%
%TO.N,Net-(C9-Pad1)*%
X102950000Y-87575000D03*
%TO.P,Y1,2,2*%
%TO.N,GND*%
X102950000Y-85825000D03*
%TO.P,Y1,3,3*%
%TO.N,/MCU/XTAL_N*%
X101550000Y-85825000D03*
%TO.P,Y1,4,4*%
%TO.N,GND*%
X101550000Y-87575000D03*
%TD*%
D20*
%TO.P,C2,1*%
%TO.N,5V*%
X126700000Y-90765000D03*
%TO.P,C2,2*%
%TO.N,GND*%
X126700000Y-90125000D03*
%TD*%
D11*
%TO.P,C5,1*%
%TO.N,/MCU/ANTENNA*%
X105975000Y-90200000D03*
%TO.P,C5,2*%
%TO.N,GND*%
X105335000Y-90200000D03*
%TD*%
D13*
%TO.P,REF\u002A\u002A,1*%
%TO.N,N/C*%
X158750000Y-129150000D03*
%TD*%
D36*
%TO.P,U5,1,VCCA*%
%TO.N,5V*%
X129600000Y-73300000D03*
%TO.P,U5,2,GND*%
%TO.N,GND*%
X129600000Y-72350000D03*
%TO.P,U5,3,A*%
%TO.N,Net-(D1-DIN)*%
X129600000Y-71400000D03*
%TO.P,U5,4,B*%
%TO.N,/PIXEL*%
X127325000Y-71400000D03*
%TO.P,U5,5,DIR*%
%TO.N,GND*%
X127325000Y-72350000D03*
%TO.P,U5,6,VCCB*%
%TO.N,3V3*%
X127325000Y-73300000D03*
%TD*%
D11*
%TO.P,R3,1*%
%TO.N,/MCU/CHIP_PU*%
X113220000Y-92200000D03*
%TO.P,R3,2*%
%TO.N,3V3*%
X112580000Y-92200000D03*
%TD*%
D13*
%TO.P,REF\u002A\u002A,1*%
%TO.N,N/C*%
X96850000Y-66850000D03*
%TD*%
D38*
%TO.N,GND*%
X105050000Y-82750000D03*
X105250000Y-91425000D03*
X101450000Y-83850000D03*
D39*
X128500000Y-72300000D03*
D38*
X114500000Y-94500000D03*
X100500000Y-92800000D03*
X102380498Y-78950000D03*
X116525500Y-90550000D03*
X120500000Y-79200000D03*
X100500000Y-89400000D03*
X117650000Y-90800000D03*
X100500000Y-87700000D03*
X104650000Y-83500000D03*
X132050000Y-88500000D03*
X100500000Y-80900000D03*
X106700000Y-91325000D03*
X105600000Y-94500000D03*
X115600000Y-94500000D03*
X108325000Y-87825000D03*
X139500000Y-96500000D03*
X102300000Y-93700000D03*
X113410000Y-80700000D03*
X138299999Y-70500000D03*
X107300000Y-85050000D03*
X102350000Y-83950000D03*
X139500000Y-83000000D03*
X100500000Y-91100000D03*
X120850000Y-83350000D03*
X106400000Y-77280000D03*
X102800000Y-89500000D03*
X131700000Y-92800000D03*
X111220000Y-90280000D03*
X110075000Y-94500000D03*
X113400000Y-94500000D03*
X118800000Y-83900000D03*
X101800000Y-89500000D03*
X104360000Y-91560000D03*
X101275000Y-88700000D03*
X108650000Y-92150000D03*
X118900000Y-87350000D03*
X100500000Y-93700000D03*
X104525000Y-92625000D03*
X103600000Y-92900000D03*
X105225000Y-92150000D03*
X102900000Y-84800000D03*
X139500000Y-94000000D03*
X106400000Y-86975000D03*
X118750000Y-82300000D03*
X100500000Y-86000000D03*
X128000000Y-78450000D03*
X116700000Y-94500000D03*
X102435500Y-81400000D03*
X128250000Y-83300000D03*
X104500000Y-94500000D03*
X100518219Y-94527124D03*
X107825000Y-92400000D03*
X108900000Y-94500000D03*
X107240000Y-92960000D03*
X102410355Y-82405576D03*
X108057133Y-89914906D03*
X104850000Y-81150000D03*
X105400000Y-83950000D03*
X104750000Y-81950000D03*
X125150000Y-90450000D03*
X103600000Y-85150000D03*
X111200000Y-93500000D03*
X126400000Y-94500000D03*
X130650000Y-72450000D03*
X105950000Y-93900000D03*
X103000000Y-93600000D03*
X100500000Y-84300000D03*
X107300000Y-85925000D03*
X124150000Y-75050000D03*
X102500000Y-90700000D03*
X120600000Y-70500000D03*
X104800000Y-74200000D03*
X107275000Y-86950000D03*
X106700000Y-94500000D03*
X116450000Y-79750000D03*
X108700000Y-93300000D03*
X139500000Y-72400000D03*
X125900000Y-70500000D03*
D39*
X118400000Y-71400000D03*
D38*
X130500000Y-82000000D03*
X111200000Y-94500000D03*
X124900000Y-83500000D03*
X127250000Y-86500000D03*
X101400000Y-93700000D03*
X109175000Y-85925000D03*
X120800000Y-91550000D03*
X114730000Y-80330000D03*
X102380498Y-80450000D03*
X115100000Y-87025000D03*
X100500000Y-70700000D03*
X105300000Y-89500000D03*
X135550000Y-92050000D03*
X129300000Y-91300000D03*
X107500000Y-91600000D03*
X124550000Y-79350000D03*
X119900000Y-94500000D03*
X118500000Y-92200000D03*
X111850000Y-84025000D03*
X109900000Y-92700000D03*
X123000000Y-91400000D03*
X139500000Y-90000000D03*
X102600000Y-94429978D03*
X103400000Y-70500000D03*
X108300000Y-85925000D03*
X116600000Y-77500000D03*
X106400000Y-85925000D03*
X112600000Y-87025000D03*
X132050000Y-95500000D03*
X111274204Y-81816717D03*
X130500000Y-74500000D03*
X104760000Y-90780000D03*
X116650000Y-81250000D03*
X124800000Y-88400000D03*
X109175000Y-86950000D03*
D39*
X126350000Y-92950000D03*
D38*
X103500000Y-88800000D03*
X121900000Y-73100000D03*
X115650000Y-79200000D03*
X104100000Y-82800000D03*
X123200000Y-86300000D03*
X120900000Y-87400000D03*
X112300000Y-94500000D03*
X116100000Y-93800000D03*
X105100000Y-79850000D03*
X105050000Y-94100000D03*
X103500000Y-81500000D03*
X106550000Y-93425000D03*
X117100000Y-74000000D03*
X113900000Y-87025000D03*
X114380000Y-77280000D03*
X108300000Y-85050000D03*
X105300000Y-88870000D03*
X119300000Y-75300000D03*
X130100000Y-70500000D03*
X113500000Y-84025000D03*
X116550000Y-86300000D03*
X107800000Y-94500000D03*
X128250000Y-88200000D03*
X139500000Y-87000000D03*
X108300000Y-86975000D03*
X103700000Y-86100000D03*
X139500000Y-80000000D03*
%TO.N,/SW_4*%
X135400000Y-94000000D03*
X108859122Y-89940878D03*
D39*
%TO.N,/PIXEL*%
X124850000Y-71400000D03*
D38*
X115100000Y-84700000D03*
%TO.N,/SW_3*%
X119000000Y-89450000D03*
X134600000Y-89100000D03*
D39*
%TO.N,5V*%
X129580000Y-92950000D03*
X103500000Y-78270000D03*
X114375000Y-78300000D03*
D38*
%TO.N,3V3*%
X111179617Y-87124045D03*
X109960000Y-84020000D03*
X109125000Y-91425000D03*
X110545000Y-89200000D03*
X103450000Y-91125000D03*
%TO.N,/MCU/CHIP_PU*%
X114720000Y-92700000D03*
X109800000Y-89750000D03*
%TO.N,/Power/USB_D+*%
X110700000Y-78400000D03*
X109300000Y-78400000D03*
X103000000Y-79900000D03*
%TO.N,/Power/USB_D-*%
X110000000Y-78900000D03*
X111400000Y-78900000D03*
X104000000Y-79900000D03*
%TO.N,/MCU/DISP_DC*%
X119350000Y-86200000D03*
X115350000Y-88083128D03*
%TO.N,/MCU/FLASH_CS0*%
X112515500Y-89850000D03*
X107550000Y-82875000D03*
%TO.N,/MCU/FLASH_IO0*%
X106475000Y-80340000D03*
X115805000Y-81530000D03*
%TO.N,/MCU/FLASH_IO2*%
X108720000Y-80580000D03*
X115055500Y-89850000D03*
%TO.N,/MCU/FLASH_CLK*%
X114550000Y-81525000D03*
X107225000Y-80610000D03*
%TO.N,/MCU/FLASH_IO1*%
X113785500Y-89850000D03*
X105730000Y-80610000D03*
%TO.N,/MCU/FLASH_IO3*%
X109480000Y-80521770D03*
X113275000Y-81540000D03*
%TO.N,Net-(J2-LEDK)*%
X119900000Y-72650000D03*
X119900000Y-77000000D03*
%TO.N,Net-(U4-U0TXD{slash}GPIO21)*%
X101750000Y-82050000D03*
X104450000Y-85950000D03*
%TO.N,/MCU/SW_1*%
X135800000Y-87500000D03*
X115975000Y-84700000D03*
%TO.N,/MCU/SW_2*%
X135200000Y-88300000D03*
X115100000Y-85500000D03*
%TD*%
D40*
%TO.N,GND*%
X102900000Y-90300000D02*
X102500000Y-90700000D01*
D41*
X108057133Y-89954891D02*
X108620120Y-90517878D01*
X113090000Y-80700000D02*
X113410000Y-80700000D01*
X107500000Y-91600000D02*
X107500000Y-91250000D01*
X109862122Y-90517878D02*
X109905000Y-90475000D01*
D42*
X107180000Y-77280000D02*
X106400000Y-77280000D01*
D43*
X107230000Y-92960000D02*
X106670000Y-92400000D01*
D40*
X107240000Y-92960000D02*
X107230000Y-92960000D01*
D41*
X115825500Y-89850000D02*
X115805000Y-89850000D01*
D42*
X118900000Y-87350000D02*
X118500000Y-87750000D01*
X118500000Y-87750000D02*
X117750000Y-87750000D01*
X118750000Y-81500000D02*
X118500000Y-81250000D01*
X117750000Y-77250000D02*
X116850000Y-77250000D01*
X118800000Y-87250000D02*
X117750000Y-87250000D01*
D43*
X104760000Y-90775000D02*
X105335000Y-90200000D01*
D41*
X115805000Y-89983869D02*
X115805000Y-89850000D01*
D40*
X104760000Y-90780000D02*
X104760000Y-90775000D01*
D41*
X108620120Y-90517878D02*
X109862122Y-90517878D01*
X112660000Y-80970000D02*
X112820000Y-80970000D01*
D42*
X117225000Y-82250000D02*
X117750000Y-82250000D01*
X118900000Y-87350000D02*
X118800000Y-87250000D01*
X116450000Y-79750000D02*
X117750000Y-79750000D01*
D41*
X106973726Y-90723726D02*
X106973726Y-90676274D01*
D42*
X114380000Y-77280000D02*
X113580000Y-77280000D01*
D41*
X107500000Y-91250000D02*
X106973726Y-90723726D01*
D44*
X103500000Y-81500000D02*
X103500000Y-80700000D01*
D41*
X112820000Y-80970000D02*
X113090000Y-80700000D01*
D40*
X103060000Y-90300000D02*
X102900000Y-90300000D01*
D41*
X108057133Y-89914906D02*
X108057133Y-89954891D01*
D42*
X116850000Y-77250000D02*
X116600000Y-77500000D01*
X118500000Y-81250000D02*
X117750000Y-81250000D01*
X116650000Y-81250000D02*
X117750000Y-81250000D01*
X118750000Y-82300000D02*
X118750000Y-81500000D01*
D45*
%TO.N,/SW_4*%
X108550000Y-89631756D02*
X108550000Y-88887500D01*
X135400000Y-94000000D02*
X135400000Y-93800000D01*
X108859122Y-89940878D02*
X108550000Y-89631756D01*
X134925000Y-93325000D02*
X134425000Y-93325000D01*
X135400000Y-93800000D02*
X134925000Y-93325000D01*
%TO.N,/PIXEL*%
X124850000Y-71400000D02*
X127325000Y-71400000D01*
X114700000Y-84700000D02*
X114200000Y-85200000D01*
X115100000Y-84700000D02*
X114700000Y-84700000D01*
X127112500Y-71500000D02*
X127050000Y-71562500D01*
X114200000Y-85200000D02*
X110237500Y-85200000D01*
%TO.N,/SW_3*%
X119000000Y-89450000D02*
X116800000Y-89450000D01*
X134425000Y-87125000D02*
X134425000Y-86325000D01*
X116800000Y-89450000D02*
X116000000Y-88650000D01*
X116000000Y-88650000D02*
X110150000Y-88650000D01*
X134600000Y-87300000D02*
X134425000Y-87125000D01*
X110150000Y-88650000D02*
X109912500Y-88887500D01*
X109912500Y-88887500D02*
X109550000Y-88887500D01*
X134600000Y-89100000D02*
X134600000Y-87300000D01*
D46*
%TO.N,Net-(AE1-Pad1)*%
X105143629Y-93375000D02*
X104506371Y-93375000D01*
X103940685Y-93609315D02*
X103834314Y-93715686D01*
X105795685Y-93054315D02*
X105709314Y-93140686D01*
D45*
X106030000Y-91650000D02*
X106000000Y-91620000D01*
D46*
X103600000Y-94281371D02*
X103600000Y-94550000D01*
X106030000Y-92400000D02*
X106030000Y-91650000D01*
X106030000Y-92400000D02*
X106030000Y-92488629D01*
X105143629Y-93375020D02*
G75*
G03*
X105709314Y-93140686I-29J800020D01*
G01*
X105795670Y-93054300D02*
G75*
G03*
X106030000Y-92488629I-565670J565700D01*
G01*
X103834329Y-93715701D02*
G75*
G03*
X103600000Y-94281371I565671J-565699D01*
G01*
X104506371Y-93374980D02*
G75*
G03*
X103940685Y-93609315I29J-800020D01*
G01*
D44*
%TO.N,5V*%
X103500000Y-78270000D02*
X103500000Y-79200000D01*
D47*
X127640000Y-91860000D02*
X127500000Y-92000000D01*
X126700000Y-90765000D02*
X126700000Y-91600000D01*
X129580000Y-92950000D02*
X129870000Y-92950000D01*
D48*
X103500000Y-78270000D02*
X103510000Y-78260000D01*
X107690000Y-78260000D02*
X107980000Y-77970000D01*
D47*
X127500000Y-92000000D02*
X128650000Y-92000000D01*
X127100000Y-92000000D02*
X127500000Y-92000000D01*
X130550000Y-73300000D02*
X130830000Y-73580000D01*
X130200000Y-92330000D02*
X129580000Y-92950000D01*
X130200000Y-91000000D02*
X130200000Y-92330000D01*
D48*
X113090000Y-78300000D02*
X114375000Y-78300000D01*
X107980000Y-77970000D02*
X107980000Y-77280000D01*
D47*
X128630000Y-93900000D02*
X127500000Y-93900000D01*
X129870000Y-92950000D02*
X131500000Y-94580000D01*
D48*
X112780000Y-77990000D02*
X113090000Y-78300000D01*
D47*
X127640000Y-90700000D02*
X127640000Y-91860000D01*
D48*
X103510000Y-78260000D02*
X107690000Y-78260000D01*
D47*
X129600000Y-73300000D02*
X129600000Y-90400000D01*
D48*
X112780000Y-77280000D02*
X112780000Y-77990000D01*
D47*
X129600000Y-73300000D02*
X130550000Y-73300000D01*
X126700000Y-91600000D02*
X127100000Y-92000000D01*
X130830000Y-73580000D02*
X131500000Y-73580000D01*
X129600000Y-87600000D02*
X129620000Y-87580000D01*
X129580000Y-92950000D02*
X128630000Y-93900000D01*
X129620000Y-87580000D02*
X131500000Y-87580000D01*
X128650000Y-92000000D02*
X129600000Y-92950000D01*
X129620000Y-80580000D02*
X131500000Y-80580000D01*
X129600000Y-90400000D02*
X130200000Y-91000000D01*
D41*
%TO.N,3V3*%
X105362500Y-88200000D02*
X104731279Y-88200000D01*
D47*
X122170000Y-93920000D02*
X121200000Y-92950000D01*
X122756000Y-93914000D02*
X123666000Y-93914000D01*
D42*
X117750000Y-78750000D02*
X117750000Y-78250000D01*
X117750000Y-78250000D02*
X116435000Y-78250000D01*
D47*
X121950000Y-76250000D02*
X121950000Y-74150000D01*
X122750000Y-93920000D02*
X122170000Y-93920000D01*
D45*
X112580000Y-91470000D02*
X112600000Y-91450000D01*
D47*
X121200000Y-92950000D02*
X121950000Y-92200000D01*
D41*
X109952500Y-84012500D02*
X109550000Y-84012500D01*
X104900000Y-87700000D02*
X104677000Y-87923000D01*
D42*
X117750000Y-77750000D02*
X121900000Y-77750000D01*
X121950000Y-76250000D02*
X118800000Y-76250000D01*
D41*
X109100000Y-91450000D02*
X108650000Y-91450000D01*
X103700000Y-90300000D02*
X104225000Y-89775000D01*
X110545000Y-89200000D02*
X110545000Y-90475000D01*
D48*
X115800000Y-91450000D02*
X117300000Y-92950000D01*
D41*
X104677000Y-87923000D02*
X104677000Y-88254279D01*
D47*
X125225000Y-93900000D02*
X123720000Y-93900000D01*
D41*
X110600000Y-91425000D02*
X110625000Y-91450000D01*
X104225000Y-89775000D02*
X104225000Y-89525000D01*
D49*
X109700000Y-91425000D02*
X110600000Y-91425000D01*
D41*
X109700000Y-91425000D02*
X109125000Y-91425000D01*
D47*
X122750000Y-93920000D02*
X122756000Y-93914000D01*
D41*
X112580000Y-92200000D02*
X112580000Y-91470000D01*
D42*
X116435000Y-78250000D02*
X116400000Y-78285000D01*
D47*
X121950000Y-92200000D02*
X121950000Y-76250000D01*
D41*
X105362500Y-87700000D02*
X104900000Y-87700000D01*
D47*
X123666000Y-93914000D02*
X123700000Y-93880000D01*
D41*
X104225000Y-88706279D02*
X104677000Y-88254279D01*
X110455000Y-82645000D02*
X110600000Y-82645000D01*
X104731279Y-88200000D02*
X104677000Y-88254279D01*
D47*
X121950000Y-74150000D02*
X122800000Y-73300000D01*
D48*
X117300000Y-92950000D02*
X121200000Y-92950000D01*
X112600000Y-91450000D02*
X115800000Y-91450000D01*
D47*
X123720000Y-93900000D02*
X123700000Y-93880000D01*
D41*
X103700000Y-90875000D02*
X103700000Y-90300000D01*
X109550000Y-84012500D02*
X109550000Y-83550000D01*
D47*
X122800000Y-73300000D02*
X127325000Y-73300000D01*
D41*
X109960000Y-84020000D02*
X109952500Y-84012500D01*
X111103662Y-87200000D02*
X110237500Y-87200000D01*
X103450000Y-91125000D02*
X103700000Y-90875000D01*
X110545000Y-90475000D02*
X110545000Y-91370000D01*
X111179617Y-87124045D02*
X111103662Y-87200000D01*
X110545000Y-91370000D02*
X110625000Y-91450000D01*
X109125000Y-91425000D02*
X109100000Y-91450000D01*
X104225000Y-89525000D02*
X104225000Y-88706279D01*
D48*
X110625000Y-91450000D02*
X112600000Y-91450000D01*
D42*
X117750000Y-78250000D02*
X117750000Y-77750000D01*
X118800000Y-76250000D02*
X117750000Y-76250000D01*
D41*
X108650000Y-91450000D02*
X108452548Y-91252548D01*
X109550000Y-83550000D02*
X110455000Y-82645000D01*
%TO.N,/MCU/ANTENNA*%
X106050000Y-88887500D02*
X106050000Y-90125000D01*
D45*
X106050000Y-90125000D02*
X105975000Y-90200000D01*
D46*
X105975000Y-90200000D02*
X105975000Y-90955000D01*
D45*
X105975000Y-90955000D02*
X106000000Y-90980000D01*
%TO.N,/MCU/XTAL_N*%
X102400000Y-86700000D02*
X101535000Y-85835000D01*
X101535000Y-85835000D02*
X101535000Y-84550000D01*
X105362500Y-86700000D02*
X102400000Y-86700000D01*
D50*
%TO.N,/MCU/CHIP_PU*%
X114220000Y-92200000D02*
X114720000Y-92700000D01*
D45*
X109050000Y-89376653D02*
X109050000Y-88887500D01*
X109800000Y-89750000D02*
X109410000Y-89750000D01*
D50*
X113220000Y-93000000D02*
X113620000Y-93000000D01*
D45*
X109312136Y-89652136D02*
X109312136Y-89638789D01*
X109410000Y-89750000D02*
X109312136Y-89652136D01*
D50*
X113220000Y-92200000D02*
X114220000Y-92200000D01*
D45*
X109312136Y-89638789D02*
X109050000Y-89376653D01*
D50*
X113620000Y-93000000D02*
X113920000Y-92700000D01*
X113920000Y-92700000D02*
X114720000Y-92700000D01*
D45*
%TO.N,Net-(C9-Pad1)*%
X102950000Y-87575000D02*
X102925000Y-87575000D01*
X103295000Y-87920000D02*
X102950000Y-87575000D01*
X102925000Y-87575000D02*
X102575000Y-87925000D01*
X104200000Y-87920000D02*
X103295000Y-87920000D01*
X102575000Y-87925000D02*
X102575000Y-88850000D01*
%TO.N,/MCU/VCC_SPI*%
X110640000Y-80940000D02*
X110640000Y-80970000D01*
D41*
X112020000Y-80970000D02*
X112020000Y-82625000D01*
D45*
X109696770Y-79996770D02*
X110640000Y-80940000D01*
D41*
X109050000Y-84012500D02*
X109050000Y-83230000D01*
D45*
X107975000Y-80385000D02*
X107975000Y-81160000D01*
D41*
X112020000Y-82625000D02*
X111995000Y-82650000D01*
X110050000Y-82230000D02*
X110050000Y-81560000D01*
X110640000Y-80970000D02*
X112020000Y-80970000D01*
X110050000Y-81560000D02*
X110640000Y-80970000D01*
D45*
X108363230Y-79996770D02*
X107975000Y-80385000D01*
X109696770Y-79996770D02*
X108363230Y-79996770D01*
D41*
X109050000Y-83230000D02*
X110050000Y-82230000D01*
D45*
%TO.N,/Power/USB_D+*%
X109630000Y-77280000D02*
X109630000Y-78070000D01*
X109630000Y-78070000D02*
X109300000Y-78400000D01*
X110630000Y-77280000D02*
X110630000Y-78330000D01*
X103000000Y-79900000D02*
X103000000Y-79200000D01*
X110630000Y-78330000D02*
X110700000Y-78400000D01*
%TO.N,/Power/USB_D-*%
X104000000Y-79900000D02*
X104000000Y-79200000D01*
X110130000Y-78070000D02*
X110000000Y-78200000D01*
X110000000Y-78200000D02*
X110000000Y-78900000D01*
X111400000Y-78900000D02*
X111400000Y-78280000D01*
X111400000Y-78280000D02*
X111130000Y-78010000D01*
X110130000Y-77280000D02*
X110130000Y-78070000D01*
X111130000Y-78010000D02*
X111130000Y-77280000D01*
%TO.N,Net-(D1-D0)*%
X131500000Y-75410000D02*
X131500000Y-77300000D01*
X132600000Y-78400000D02*
X132600000Y-80580000D01*
X131500000Y-77300000D02*
X132600000Y-78400000D01*
%TO.N,Net-(D1-DIN)*%
X129600000Y-71400000D02*
X130420000Y-71400000D01*
X130420000Y-71400000D02*
X132600000Y-73580000D01*
%TO.N,Net-(D2-D0)*%
X131500000Y-82410000D02*
X131500000Y-84200000D01*
X132600000Y-85300000D02*
X132600000Y-87580000D01*
X131500000Y-84200000D02*
X132600000Y-85300000D01*
%TO.N,Net-(D3-D0)*%
X131500000Y-91300000D02*
X131500000Y-89410000D01*
X132600000Y-94580000D02*
X132600000Y-92400000D01*
X132600000Y-92400000D02*
X131500000Y-91300000D01*
%TO.N,/MCU/DISP_SDA*%
X116550000Y-82050000D02*
X116550000Y-85150000D01*
X116550000Y-85150000D02*
X115675000Y-86025000D01*
X111410000Y-86200000D02*
X110237500Y-86200000D01*
X115675000Y-86025000D02*
X111585000Y-86025000D01*
X111585000Y-86025000D02*
X111410000Y-86200000D01*
X116850000Y-81750000D02*
X116550000Y-82050000D01*
X117750000Y-81750000D02*
X116850000Y-81750000D01*
%TO.N,/MCU/DISP_DC*%
X119350000Y-86200000D02*
X119350000Y-81150000D01*
X119350000Y-81150000D02*
X118950000Y-80750000D01*
X118950000Y-80750000D02*
X117750000Y-80750000D01*
X111650000Y-88200000D02*
X110237500Y-88200000D01*
X111766872Y-88083128D02*
X111650000Y-88200000D01*
X115350000Y-88083128D02*
X111766872Y-88083128D01*
%TO.N,/MCU/DISP_SCL*%
X119300000Y-80250000D02*
X117750000Y-80250000D01*
X115625000Y-86825000D02*
X117200000Y-88400000D01*
X118600000Y-88400000D02*
X119900000Y-87100000D01*
X117200000Y-88400000D02*
X118600000Y-88400000D01*
X119900000Y-87100000D02*
X119900000Y-80850000D01*
X110600000Y-86700000D02*
X110800000Y-86500000D01*
X115625000Y-86807537D02*
X115625000Y-86825000D01*
X110800000Y-86500000D02*
X115317463Y-86500000D01*
X110237500Y-86700000D02*
X110600000Y-86700000D01*
X119900000Y-80850000D02*
X119300000Y-80250000D01*
X115317463Y-86500000D02*
X115625000Y-86807537D01*
%TO.N,/MCU/DISP_RST*%
X111450000Y-87700000D02*
X110237500Y-87700000D01*
X120300000Y-87350000D02*
X118700000Y-88950000D01*
X117750000Y-79250000D02*
X119200000Y-79250000D01*
X111600000Y-87550000D02*
X111450000Y-87700000D01*
X120300000Y-80350000D02*
X120300000Y-87350000D01*
X119200000Y-79250000D02*
X120300000Y-80350000D01*
X118700000Y-88950000D02*
X117050000Y-88950000D01*
X117050000Y-88950000D02*
X115650000Y-87550000D01*
X115650000Y-87550000D02*
X111600000Y-87550000D01*
%TO.N,/MCU/XTAL_P*%
X105362500Y-87200000D02*
X104280000Y-87200000D01*
X104280000Y-87200000D02*
X104200000Y-87280000D01*
%TO.N,/MCU/SPI_D*%
X106550000Y-81875000D02*
X106475000Y-81800000D01*
X106550000Y-84012500D02*
X106550000Y-81875000D01*
%TO.N,/MCU/SPI_WP*%
X108050000Y-83390000D02*
X108180000Y-83260000D01*
X108725000Y-82100000D02*
X108725000Y-81800000D01*
X108180000Y-83260000D02*
X108180000Y-82645000D01*
X108050000Y-84012500D02*
X108050000Y-83390000D01*
X108180000Y-82645000D02*
X108725000Y-82100000D01*
%TO.N,/MCU/SPI_CLK*%
X106960000Y-82300000D02*
X107225000Y-82035000D01*
X107050000Y-83420000D02*
X106960000Y-83330000D01*
X107225000Y-82035000D02*
X107225000Y-81800000D01*
X107050000Y-84012500D02*
X107050000Y-83420000D01*
X106960000Y-83330000D02*
X106960000Y-82300000D01*
%TO.N,/MCU/SPI_Q*%
X105725000Y-82775000D02*
X105725000Y-81795000D01*
X106050000Y-83100000D02*
X105725000Y-82775000D01*
X106050000Y-84012500D02*
X106050000Y-83100000D01*
%TO.N,/MCU/SPI_HD*%
X109475000Y-82000000D02*
X109475000Y-81800000D01*
X108550000Y-82925000D02*
X109475000Y-82000000D01*
X108550000Y-84012500D02*
X108550000Y-82925000D01*
%TO.N,/USB_P*%
X104870000Y-85200000D02*
X105362500Y-85200000D01*
X102960000Y-80740000D02*
X102960000Y-83290000D01*
X103000000Y-80700000D02*
X102960000Y-80740000D01*
X102960000Y-83290000D02*
X104870000Y-85200000D01*
%TO.N,/USB_N*%
X104024927Y-80724927D02*
X104000000Y-80700000D01*
X103800000Y-82100000D02*
X104024927Y-81875073D01*
X103454264Y-83360000D02*
X103260000Y-83165736D01*
X103935000Y-83665000D02*
X103630000Y-83360000D01*
X103935000Y-83795000D02*
X103935000Y-83665000D01*
X103260000Y-83165736D02*
X103260000Y-82340000D01*
X105362500Y-84700000D02*
X104840000Y-84700000D01*
X103630000Y-83360000D02*
X103454264Y-83360000D01*
X104024927Y-81875073D02*
X104024927Y-80724927D01*
X103260000Y-82340000D02*
X103500000Y-82100000D01*
X103500000Y-82100000D02*
X103800000Y-82100000D01*
X104840000Y-84700000D02*
X103935000Y-83795000D01*
%TO.N,/MCU/IO21*%
X103400000Y-76900000D02*
X103400000Y-74200000D01*
X101750000Y-80810000D02*
X101750000Y-78550000D01*
X102400000Y-73200000D02*
X102400000Y-71900000D01*
X103400000Y-74200000D02*
X102400000Y-73200000D01*
X101750000Y-78550000D02*
X103400000Y-76900000D01*
D41*
%TO.N,/MCU/VRF*%
X106550000Y-88887500D02*
X106550000Y-89347452D01*
X107426274Y-90226274D02*
X108000000Y-90800000D01*
X107426274Y-90223726D02*
X107426274Y-90226274D01*
X107050000Y-88887500D02*
X107050000Y-89847452D01*
X107050000Y-89847452D02*
X107426274Y-90223726D01*
X106550000Y-89347452D02*
X107426274Y-90223726D01*
D50*
%TO.N,/MCU/FLASH_CS0*%
X107550000Y-84012500D02*
X107550000Y-82875000D01*
D45*
X107975000Y-82075000D02*
X107975000Y-81800000D01*
X107550000Y-82500000D02*
X107975000Y-82075000D01*
X107550000Y-82875000D02*
X107550000Y-82500000D01*
X112515500Y-89850000D02*
X111995000Y-89850000D01*
D50*
%TO.N,/MCU/FLASH_IO0*%
X106475000Y-80340000D02*
X106475000Y-81160000D01*
D45*
X115805000Y-81530000D02*
X115805000Y-82650000D01*
D50*
%TO.N,/MCU/FLASH_IO2*%
X108720000Y-80580000D02*
X108725000Y-80585000D01*
X108725000Y-80585000D02*
X108725000Y-81160000D01*
D45*
X115055500Y-89850000D02*
X114535000Y-89850000D01*
%TO.N,/MCU/FLASH_CLK*%
X114535000Y-81540000D02*
X114535000Y-82650000D01*
D50*
X107225000Y-80610000D02*
X107225000Y-81160000D01*
D45*
X114550000Y-81525000D02*
X114535000Y-81540000D01*
D50*
X114525000Y-82140000D02*
X114535000Y-82150000D01*
D45*
%TO.N,/MCU/FLASH_IO1*%
X105725000Y-80615000D02*
X105725000Y-81155000D01*
X113785500Y-89850000D02*
X113265000Y-89850000D01*
X105730000Y-80610000D02*
X105725000Y-80615000D01*
%TO.N,/MCU/FLASH_IO3*%
X113275000Y-82640000D02*
X113265000Y-82650000D01*
X113275000Y-81540000D02*
X113275000Y-82640000D01*
D50*
X109475000Y-80526770D02*
X109475000Y-81160000D01*
X109480000Y-80521770D02*
X109475000Y-80526770D01*
D45*
%TO.N,/Power/CC1*%
X112865000Y-79175000D02*
X113085000Y-79175000D01*
X111630000Y-77280000D02*
X111630000Y-77940000D01*
X111630000Y-77940000D02*
X112865000Y-79175000D01*
%TO.N,/Power/CC2*%
X108630000Y-78145000D02*
X107675000Y-79100000D01*
X108630000Y-77280000D02*
X108630000Y-78145000D01*
X107675000Y-79100000D02*
X105770000Y-79100000D01*
D42*
%TO.N,Net-(J2-LEDK)*%
X120570000Y-72650000D02*
X120600000Y-72620000D01*
X119900000Y-72650000D02*
X120570000Y-72650000D01*
X119200000Y-77000000D02*
X119900000Y-77000000D01*
X118950000Y-76750000D02*
X119200000Y-77000000D01*
X117750000Y-76750000D02*
X118950000Y-76750000D01*
D45*
%TO.N,Net-(U4-U0TXD{slash}GPIO21)*%
X104700000Y-86200000D02*
X105362500Y-86200000D01*
X104450000Y-85950000D02*
X104700000Y-86200000D01*
X101750000Y-82050000D02*
X101750000Y-81450000D01*
%TO.N,/MCU/IO20*%
X102617463Y-83375000D02*
X104942463Y-85700000D01*
X104942463Y-85700000D02*
X105362500Y-85700000D01*
X102450000Y-77150000D02*
X101200000Y-78400000D01*
X101200000Y-82356963D02*
X102218037Y-83375000D01*
X102218037Y-83375000D02*
X102617463Y-83375000D01*
X102450000Y-75200000D02*
X102450000Y-77150000D01*
X101200000Y-78400000D02*
X101200000Y-82356963D01*
%TO.N,/MCU/SW_1*%
X115450000Y-84175000D02*
X114425000Y-84175000D01*
X135800000Y-78050000D02*
X134425000Y-76675000D01*
X115975000Y-84700000D02*
X115450000Y-84175000D01*
X114425000Y-84175000D02*
X113900000Y-84700000D01*
X135800000Y-87500000D02*
X135800000Y-78050000D01*
X113900000Y-84700000D02*
X110237500Y-84700000D01*
%TO.N,/MCU/SW_2*%
X135200000Y-84450000D02*
X134425000Y-83675000D01*
X135200000Y-88300000D02*
X135200000Y-84450000D01*
X111400000Y-85500000D02*
X111200000Y-85700000D01*
X115100000Y-85500000D02*
X111400000Y-85500000D01*
X111200000Y-85700000D02*
X110237500Y-85700000D01*
%TD*%
%TA.AperFunction,Conductor*%
%TO.N,GND*%
G36*
X131153416Y-70020502D02*
G01*
X131199909Y-70074158D01*
X131207000Y-70093885D01*
X131222942Y-70153378D01*
X131233607Y-70193183D01*
X131233610Y-70193190D01*
X131299497Y-70307310D01*
X131299505Y-70307320D01*
X131392679Y-70400494D01*
X131392684Y-70400498D01*
X131392686Y-70400500D01*
X131392687Y-70400501D01*
X131392689Y-70400502D01*
X131433294Y-70423945D01*
X131506814Y-70466392D01*
X131634108Y-70500500D01*
X131634110Y-70500500D01*
X131774150Y-70500500D01*
X131774150Y-70503335D01*
X131830649Y-70512134D01*
X131883758Y-70559251D01*
X131902962Y-70627601D01*
X131902677Y-70634726D01*
X131897367Y-70712365D01*
X131895619Y-70737921D01*
X131921092Y-70860501D01*
X131926409Y-70886088D01*
X131996028Y-71020445D01*
X131996030Y-71020448D01*
X132093289Y-71124587D01*
X132099320Y-71131044D01*
X132181594Y-71181076D01*
X132228618Y-71209672D01*
X132374333Y-71250500D01*
X132374335Y-71250500D01*
X132487658Y-71250500D01*
X132487671Y-71250499D01*
X132599915Y-71235071D01*
X132599916Y-71235070D01*
X132599920Y-71235070D01*
X132738720Y-71174780D01*
X132747797Y-71167395D01*
X132813259Y-71139919D01*
X132883186Y-71152196D01*
X132892784Y-71157475D01*
X132978618Y-71209672D01*
X133124333Y-71250500D01*
X133124335Y-71250500D01*
X133237658Y-71250500D01*
X133237671Y-71250499D01*
X133349915Y-71235071D01*
X133349916Y-71235070D01*
X133349920Y-71235070D01*
X133488720Y-71174780D01*
X133497797Y-71167395D01*
X133563259Y-71139919D01*
X133633186Y-71152196D01*
X133642784Y-71157475D01*
X133728618Y-71209672D01*
X133874333Y-71250500D01*
X133923180Y-71250500D01*
X133991301Y-71270502D01*
X134037794Y-71324158D01*
X134047898Y-71394432D01*
X134018404Y-71459012D01*
X133967213Y-71494555D01*
X133949285Y-71501241D01*
X133949281Y-71501244D01*
X133836025Y-71586025D01*
X133751244Y-71699281D01*
X133751241Y-71699285D01*
X133701800Y-71831839D01*
X133701798Y-71831847D01*
X133695500Y-71890431D01*
X133695500Y-72759548D01*
X133695502Y-72759572D01*
X133701798Y-72818151D01*
X133701799Y-72818156D01*
X133701800Y-72818157D01*
X133751242Y-72950715D01*
X133751243Y-72950716D01*
X133751244Y-72950719D01*
X133836025Y-73063974D01*
X133949281Y-73148755D01*
X133949285Y-73148758D01*
X134081839Y-73198199D01*
X134081847Y-73198201D01*
X134111143Y-73201350D01*
X134140443Y-73204500D01*
X134709556Y-73204499D01*
X134735408Y-73201720D01*
X134768151Y-73198201D01*
X134768152Y-73198200D01*
X134768157Y-73198200D01*
X134900715Y-73148758D01*
X135013974Y-73063974D01*
X135098758Y-72950715D01*
X135136655Y-72849110D01*
X135148199Y-72818160D01*
X135148201Y-72818152D01*
X135154499Y-72759568D01*
X135154499Y-72759566D01*
X135154500Y-72759557D01*
X135154499Y-71890444D01*
X135152667Y-71873399D01*
X135148201Y-71831848D01*
X135148200Y-71831846D01*
X135148200Y-71831843D01*
X135098758Y-71699285D01*
X135098755Y-71699281D01*
X135098755Y-71699280D01*
X135013974Y-71586025D01*
X134900718Y-71501244D01*
X134900715Y-71501242D01*
X134833604Y-71476210D01*
X134776769Y-71433663D01*
X134751959Y-71367142D01*
X134767051Y-71297768D01*
X134817254Y-71247567D01*
X134843651Y-71236825D01*
X134849909Y-71235071D01*
X134849920Y-71235070D01*
X134988720Y-71174780D01*
X134997797Y-71167395D01*
X135063259Y-71139919D01*
X135133186Y-71152196D01*
X135142784Y-71157475D01*
X135228618Y-71209672D01*
X135374333Y-71250500D01*
X135374335Y-71250500D01*
X135487658Y-71250500D01*
X135487671Y-71250499D01*
X135599915Y-71235071D01*
X135599916Y-71235070D01*
X135599920Y-71235070D01*
X135738720Y-71174780D01*
X135738721Y-71174778D01*
X135738723Y-71174778D01*
X135738725Y-71174776D01*
X135759991Y-71157475D01*
X135856108Y-71079278D01*
X135943377Y-70955647D01*
X135994054Y-70813056D01*
X136004381Y-70662079D01*
X136002310Y-70652112D01*
X136008033Y-70581347D01*
X136051107Y-70524910D01*
X136117855Y-70500719D01*
X136125850Y-70501012D01*
X136125850Y-70500500D01*
X136265890Y-70500500D01*
X136265892Y-70500500D01*
X136393186Y-70466392D01*
X136507314Y-70400500D01*
X136600500Y-70307314D01*
X136666392Y-70193186D01*
X136692998Y-70093888D01*
X136729950Y-70033266D01*
X136793810Y-70002245D01*
X136814705Y-70000500D01*
X138994493Y-70000500D01*
X139005474Y-70000979D01*
X139013300Y-70001663D01*
X139044887Y-70004427D01*
X139046124Y-70004542D01*
X139171603Y-70016901D01*
X139191847Y-70020584D01*
X139256419Y-70037886D01*
X139260252Y-70038981D01*
X139351432Y-70066640D01*
X139368092Y-70073014D01*
X139426329Y-70100171D01*
X139433794Y-70103652D01*
X139439939Y-70106724D01*
X139518940Y-70148951D01*
X139531812Y-70156858D01*
X139543337Y-70164928D01*
X139592829Y-70199583D01*
X139600491Y-70205396D01*
X139668383Y-70261113D01*
X139677545Y-70269418D01*
X139730580Y-70322453D01*
X139738885Y-70331615D01*
X139794602Y-70399507D01*
X139800415Y-70407169D01*
X139843138Y-70468183D01*
X139851047Y-70481058D01*
X139893274Y-70560059D01*
X139896346Y-70566204D01*
X139926982Y-70631902D01*
X139933362Y-70648577D01*
X139960996Y-70739674D01*
X139962129Y-70743640D01*
X139979412Y-70808144D01*
X139983098Y-70828404D01*
X139995456Y-70953874D01*
X139995583Y-70955239D01*
X139999020Y-70994513D01*
X139999500Y-71005498D01*
X139999500Y-72686260D01*
X139979498Y-72754381D01*
X139925842Y-72800874D01*
X139901540Y-72809100D01*
X139833655Y-72824595D01*
X139833650Y-72824596D01*
X139833649Y-72824597D01*
X139833647Y-72824597D01*
X139833644Y-72824599D01*
X139732037Y-72873530D01*
X139732035Y-72873531D01*
X139643854Y-72943854D01*
X139573531Y-73032035D01*
X139573530Y-73032037D01*
X139524599Y-73133644D01*
X139524597Y-73133649D01*
X139499500Y-73243605D01*
X139499500Y-73356394D01*
X139499838Y-73359395D01*
X139499500Y-73361324D01*
X139499500Y-73363469D01*
X139499124Y-73363469D01*
X139487587Y-73429327D01*
X139439473Y-73481534D01*
X139374630Y-73499500D01*
X139262328Y-73499500D01*
X139150084Y-73514928D01*
X139011276Y-73575221D01*
X139011274Y-73575223D01*
X138893894Y-73670719D01*
X138893891Y-73670722D01*
X138806623Y-73794351D01*
X138806621Y-73794356D01*
X138755946Y-73936942D01*
X138755945Y-73936948D01*
X138745713Y-74086550D01*
X138745619Y-74087921D01*
X138770759Y-74208899D01*
X138776409Y-74236088D01*
X138846061Y-74370509D01*
X138859642Y-74440195D01*
X138837127Y-74501139D01*
X138806621Y-74544356D01*
X138755946Y-74686942D01*
X138755945Y-74686948D01*
X138745817Y-74835031D01*
X138745619Y-74837921D01*
X138771133Y-74960699D01*
X138776409Y-74986088D01*
X138846061Y-75120509D01*
X138859642Y-75190195D01*
X138837127Y-75251139D01*
X138806621Y-75294356D01*
X138755946Y-75436942D01*
X138755945Y-75436948D01*
X138749619Y-75529437D01*
X138745619Y-75587921D01*
X138772962Y-75719500D01*
X138776409Y-75736088D01*
X138846061Y-75870509D01*
X138859642Y-75940195D01*
X138837127Y-76001138D01*
X138812310Y-76036296D01*
X138806621Y-76044356D01*
X138755946Y-76186942D01*
X138755945Y-76186948D01*
X138745619Y-76337919D01*
X138745619Y-76337921D01*
X138767975Y-76445501D01*
X138776409Y-76486088D01*
X138846061Y-76620509D01*
X138859642Y-76690195D01*
X138837127Y-76751138D01*
X138806623Y-76794353D01*
X138806621Y-76794356D01*
X138755946Y-76936942D01*
X138755945Y-76936948D01*
X138745922Y-77083484D01*
X138745619Y-77087921D01*
X138776408Y-77236085D01*
X138776409Y-77236088D01*
X138822271Y-77324597D01*
X138846029Y-77370447D01*
X138870272Y-77396405D01*
X138900975Y-77429280D01*
X138949320Y-77481044D01*
X139059753Y-77548200D01*
X139078618Y-77559672D01*
X139224333Y-77600500D01*
X139224335Y-77600500D01*
X139337658Y-77600500D01*
X139337668Y-77600499D01*
X139357917Y-77597716D01*
X139428127Y-77608255D01*
X139481493Y-77655080D01*
X139501073Y-77723323D01*
X139500284Y-77736639D01*
X139499500Y-77743602D01*
X139499500Y-77856394D01*
X139524597Y-77966350D01*
X139524599Y-77966355D01*
X139573530Y-78067962D01*
X139573531Y-78067964D01*
X139573532Y-78067965D01*
X139573533Y-78067967D01*
X139643854Y-78156146D01*
X139732033Y-78226467D01*
X139732034Y-78226467D01*
X139732035Y-78226468D01*
X139732037Y-78226469D01*
X139733752Y-78227295D01*
X139833649Y-78275403D01*
X139901538Y-78290898D01*
X139963500Y-78325557D01*
X139996887Y-78388214D01*
X139999500Y-78413739D01*
X139999500Y-97274310D01*
X139979498Y-97342431D01*
X139925842Y-97388924D01*
X139873695Y-97400310D01*
X135280694Y-97407426D01*
X135212543Y-97387529D01*
X135165967Y-97333946D01*
X135154499Y-97281426D01*
X135154499Y-97240451D01*
X135154499Y-97240444D01*
X135148200Y-97181847D01*
X135148200Y-97181846D01*
X135148200Y-97181843D01*
X135098758Y-97049285D01*
X135098755Y-97049281D01*
X135098755Y-97049280D01*
X135013974Y-96936025D01*
X134900718Y-96851244D01*
X134900714Y-96851241D01*
X134768160Y-96801800D01*
X134768152Y-96801798D01*
X134709560Y-96795500D01*
X134140451Y-96795500D01*
X134140427Y-96795502D01*
X134081848Y-96801798D01*
X134081843Y-96801800D01*
X133965037Y-96845367D01*
X133949280Y-96851244D01*
X133836025Y-96936025D01*
X133751244Y-97049281D01*
X133751241Y-97049285D01*
X133701800Y-97181839D01*
X133701798Y-97181847D01*
X133695500Y-97240431D01*
X133695500Y-97283826D01*
X133675498Y-97351947D01*
X133621842Y-97398440D01*
X133569069Y-97409825D01*
X130825569Y-97400430D01*
X130757517Y-97380195D01*
X130711208Y-97326380D01*
X130700000Y-97274431D01*
X130700000Y-96959981D01*
X130720002Y-96891860D01*
X130773658Y-96845367D01*
X130843932Y-96835263D01*
X130908512Y-96864757D01*
X130930765Y-96889979D01*
X130966516Y-96943484D01*
X131050697Y-96999733D01*
X131050699Y-96999734D01*
X131124933Y-97014500D01*
X131875066Y-97014499D01*
X131875069Y-97014498D01*
X131875073Y-97014498D01*
X131924326Y-97004701D01*
X131949301Y-96999734D01*
X132033484Y-96943484D01*
X132089734Y-96859301D01*
X132104500Y-96785067D01*
X132104499Y-96034934D01*
X132104498Y-96034931D01*
X132104498Y-96034926D01*
X132089734Y-95960699D01*
X132033483Y-95876515D01*
X131949302Y-95820266D01*
X131875068Y-95805500D01*
X131124936Y-95805500D01*
X131124926Y-95805501D01*
X131050699Y-95820265D01*
X130966515Y-95876516D01*
X130914468Y-95954408D01*
X130859990Y-95999935D01*
X130789547Y-96008782D01*
X130725504Y-95978140D01*
X130717246Y-95966182D01*
X130715899Y-95967413D01*
X129650001Y-94800000D01*
X129650000Y-94800000D01*
X104230500Y-94800000D01*
X104162379Y-94779998D01*
X104115886Y-94726342D01*
X104104500Y-94674000D01*
X104104499Y-94274936D01*
X104104498Y-94274926D01*
X104089734Y-94200700D01*
X104085580Y-94190671D01*
X104077991Y-94120081D01*
X104102027Y-94065748D01*
X104132849Y-94025582D01*
X104143713Y-94013196D01*
X104181393Y-93975519D01*
X104181393Y-93975516D01*
X104191758Y-93965153D01*
X104191763Y-93965148D01*
X104200516Y-93956393D01*
X104200519Y-93956393D01*
X104238315Y-93918594D01*
X104250695Y-93907738D01*
X104307797Y-93863919D01*
X104336276Y-93847475D01*
X104395076Y-93823117D01*
X104426841Y-93814604D01*
X104479152Y-93807716D01*
X104498050Y-93805228D01*
X104514499Y-93804150D01*
X105073150Y-93804150D01*
X105073178Y-93804151D01*
X105081938Y-93804151D01*
X105081942Y-93804152D01*
X105091431Y-93804151D01*
X105091500Y-93804171D01*
X105143645Y-93804169D01*
X105143645Y-93804170D01*
X105240381Y-93804167D01*
X105431471Y-93773894D01*
X105615472Y-93714102D01*
X105634318Y-93704499D01*
X105787850Y-93626265D01*
X105787850Y-93626264D01*
X105787855Y-93626262D01*
X105944375Y-93512538D01*
X106012776Y-93444133D01*
X106022554Y-93434355D01*
X106121879Y-93335031D01*
X106121881Y-93335027D01*
X106125183Y-93331726D01*
X106125547Y-93331333D01*
X106137406Y-93319475D01*
X106167521Y-93289363D01*
X106281245Y-93132846D01*
X106285029Y-93125421D01*
X106369082Y-92960468D01*
X106369083Y-92960465D01*
X106373833Y-92945850D01*
X106378975Y-92930024D01*
X106419050Y-92871420D01*
X106484448Y-92843785D01*
X106554404Y-92855893D01*
X106585158Y-92877207D01*
X107130000Y-93390000D01*
X107380000Y-93390000D01*
X107640000Y-93110000D01*
X107640000Y-92820000D01*
X107614883Y-92793606D01*
X107050002Y-92200000D01*
X107050000Y-92200000D01*
X106585150Y-92200000D01*
X106517029Y-92179998D01*
X106470536Y-92126342D01*
X106459150Y-92074000D01*
X106459150Y-91617842D01*
X106455907Y-91596323D01*
X106454500Y-91577547D01*
X106454500Y-91456360D01*
X106454500Y-91456354D01*
X106444461Y-91387450D01*
X106428762Y-91355338D01*
X106416813Y-91285358D01*
X106428761Y-91244664D01*
X106444461Y-91212550D01*
X106454500Y-91143646D01*
X106454500Y-90962882D01*
X106474502Y-90894761D01*
X106528158Y-90848268D01*
X106598432Y-90838164D01*
X106663012Y-90867658D01*
X106670947Y-90875159D01*
X106836622Y-91045988D01*
X106964450Y-91177793D01*
X106997516Y-91240619D01*
X107000000Y-91265513D01*
X107000000Y-91600006D01*
X107020252Y-91740859D01*
X107020254Y-91740866D01*
X107079373Y-91870320D01*
X107121594Y-91919046D01*
X107172570Y-91977875D01*
X107183694Y-91985024D01*
X107186928Y-91988756D01*
X107190668Y-91989668D01*
X107195662Y-91992715D01*
X107292292Y-92054816D01*
X107379764Y-92080500D01*
X107428839Y-92094910D01*
X107428840Y-92094910D01*
X107428843Y-92094911D01*
X107428846Y-92094911D01*
X107571154Y-92094911D01*
X107571157Y-92094911D01*
X107707708Y-92054816D01*
X107827430Y-91977875D01*
X107920627Y-91870320D01*
X107979746Y-91740866D01*
X107983943Y-91711679D01*
X108013436Y-91647098D01*
X108073162Y-91608715D01*
X108144158Y-91608715D01*
X108197755Y-91640516D01*
X108246878Y-91689639D01*
X108246881Y-91689641D01*
X108246883Y-91689643D01*
X108302704Y-91731267D01*
X108414605Y-91769683D01*
X108414612Y-91769683D01*
X108414952Y-91769740D01*
X108415602Y-91770025D01*
X108424480Y-91773073D01*
X108424227Y-91773809D01*
X108455473Y-91787517D01*
X108456733Y-91785189D01*
X108465913Y-91790156D01*
X108465915Y-91790158D01*
X108465917Y-91790158D01*
X108472953Y-91793966D01*
X108480127Y-91797473D01*
X108480130Y-91797475D01*
X108531105Y-91812650D01*
X108536014Y-91814222D01*
X108586339Y-91831500D01*
X108586344Y-91831500D01*
X108594250Y-91832819D01*
X108602156Y-91833805D01*
X108602157Y-91833804D01*
X108602158Y-91833805D01*
X108655273Y-91831607D01*
X108660480Y-91831500D01*
X108701124Y-91831500D01*
X108769245Y-91851502D01*
X108777828Y-91857538D01*
X108844426Y-91908641D01*
X108845357Y-91909355D01*
X108980246Y-91965228D01*
X109125000Y-91984285D01*
X109269754Y-91965228D01*
X109404643Y-91909355D01*
X109404644Y-91909353D01*
X109412273Y-91906194D01*
X109413286Y-91908641D01*
X109469490Y-91894996D01*
X109487745Y-91898197D01*
X109487767Y-91898050D01*
X109497449Y-91899460D01*
X109497450Y-91899461D01*
X109566354Y-91909500D01*
X109566360Y-91909500D01*
X109833640Y-91909500D01*
X109833646Y-91909500D01*
X109902550Y-91899461D01*
X109936625Y-91882802D01*
X109991963Y-91870000D01*
X110124903Y-91870000D01*
X110193024Y-91890002D01*
X110213998Y-91906905D01*
X110220226Y-91913133D01*
X110220229Y-91913135D01*
X110331573Y-91969868D01*
X110423955Y-91984500D01*
X110826044Y-91984499D01*
X110918427Y-91969868D01*
X110921638Y-91968232D01*
X110978839Y-91954500D01*
X111969500Y-91954500D01*
X112037621Y-91974502D01*
X112084114Y-92028158D01*
X112095500Y-92080500D01*
X112095500Y-92333647D01*
X112105539Y-92402550D01*
X112105540Y-92402552D01*
X112157500Y-92508839D01*
X112157501Y-92508841D01*
X112241158Y-92592498D01*
X112241160Y-92592499D01*
X112347450Y-92644461D01*
X112416354Y-92654500D01*
X112416360Y-92654500D01*
X112620678Y-92654500D01*
X112688799Y-92674502D01*
X112735292Y-92728158D01*
X112745396Y-92798432D01*
X112745362Y-92798665D01*
X112735500Y-92866350D01*
X112735500Y-93133647D01*
X112745539Y-93202550D01*
X112745540Y-93202552D01*
X112797500Y-93308839D01*
X112797501Y-93308841D01*
X112881158Y-93392498D01*
X112881160Y-93392499D01*
X112987450Y-93444461D01*
X113056354Y-93454500D01*
X113056360Y-93454500D01*
X113383640Y-93454500D01*
X113383646Y-93454500D01*
X113452550Y-93444461D01*
X113558840Y-93392499D01*
X113559816Y-93391522D01*
X113561477Y-93390615D01*
X113567335Y-93386433D01*
X113567840Y-93387140D01*
X113622124Y-93357495D01*
X113633352Y-93355579D01*
X113633727Y-93355532D01*
X113634270Y-93355465D01*
X113648043Y-93354610D01*
X113649365Y-93354501D01*
X113649371Y-93354500D01*
X113649377Y-93354500D01*
X113668583Y-93351294D01*
X113673673Y-93350552D01*
X113722551Y-93344461D01*
X113722557Y-93344457D01*
X113729703Y-93342330D01*
X113736694Y-93339929D01*
X113736698Y-93339929D01*
X113779987Y-93316501D01*
X113784619Y-93314117D01*
X113795413Y-93308840D01*
X113828840Y-93292499D01*
X113828847Y-93292491D01*
X113834893Y-93288175D01*
X113840742Y-93283622D01*
X113840749Y-93283619D01*
X113874099Y-93247389D01*
X113877682Y-93243655D01*
X113948063Y-93173274D01*
X114010373Y-93139250D01*
X114081188Y-93144315D01*
X114126251Y-93173276D01*
X114246597Y-93293622D01*
X114246600Y-93293624D01*
X114390563Y-93384082D01*
X114551046Y-93440237D01*
X114720000Y-93459274D01*
X114888954Y-93440237D01*
X115049437Y-93384082D01*
X115193400Y-93293624D01*
X115313624Y-93173400D01*
X115404082Y-93029437D01*
X115460237Y-92868954D01*
X115479274Y-92700000D01*
X115460237Y-92531046D01*
X115404082Y-92370563D01*
X115313624Y-92226600D01*
X115313622Y-92226597D01*
X115256620Y-92169595D01*
X115222594Y-92107283D01*
X115227659Y-92036468D01*
X115270206Y-91979632D01*
X115336726Y-91954821D01*
X115345715Y-91954500D01*
X115538839Y-91954500D01*
X115606960Y-91974502D01*
X115627934Y-91991405D01*
X116895332Y-93258803D01*
X116912232Y-93279773D01*
X116914804Y-93283775D01*
X116943731Y-93308840D01*
X116952601Y-93316526D01*
X116959174Y-93322645D01*
X116967862Y-93331333D01*
X116968779Y-93332250D01*
X116979639Y-93340380D01*
X116986637Y-93346020D01*
X117024442Y-93378777D01*
X117028761Y-93380749D01*
X117051929Y-93394495D01*
X117055730Y-93397340D01*
X117055733Y-93397342D01*
X117102607Y-93414824D01*
X117110889Y-93418255D01*
X117156404Y-93439042D01*
X117161103Y-93439717D01*
X117187213Y-93446382D01*
X117191658Y-93448040D01*
X117241554Y-93451608D01*
X117250487Y-93452569D01*
X117263917Y-93454500D01*
X117277483Y-93454500D01*
X117286470Y-93454820D01*
X117336360Y-93458389D01*
X117341003Y-93457378D01*
X117367784Y-93454500D01*
X120338004Y-93454500D01*
X120406125Y-93474502D01*
X120452618Y-93528158D01*
X120456540Y-93540307D01*
X120460265Y-93549300D01*
X120516516Y-93633484D01*
X120600697Y-93689733D01*
X120600699Y-93689734D01*
X120674933Y-93704500D01*
X121183181Y-93704499D01*
X121251302Y-93724501D01*
X121272276Y-93741404D01*
X121762199Y-94231327D01*
X121779101Y-94252300D01*
X121781748Y-94256419D01*
X121781750Y-94256422D01*
X121819869Y-94289451D01*
X121826442Y-94295570D01*
X121836152Y-94305280D01*
X121836154Y-94305282D01*
X121847131Y-94313499D01*
X121854136Y-94319144D01*
X121892257Y-94352176D01*
X121894602Y-94353246D01*
X121896708Y-94354209D01*
X121919877Y-94367956D01*
X121923792Y-94370887D01*
X121923794Y-94370887D01*
X121923796Y-94370889D01*
X121971083Y-94388525D01*
X121979362Y-94391954D01*
X122025266Y-94412919D01*
X122030107Y-94413614D01*
X122056216Y-94420278D01*
X122060799Y-94421988D01*
X122111125Y-94425587D01*
X122120056Y-94426548D01*
X122133632Y-94428500D01*
X122147342Y-94428500D01*
X122156330Y-94428820D01*
X122206649Y-94432420D01*
X122209621Y-94431773D01*
X122211436Y-94431379D01*
X122238216Y-94428500D01*
X122681784Y-94428500D01*
X122708565Y-94431378D01*
X122713351Y-94432420D01*
X122713351Y-94432419D01*
X122713352Y-94432420D01*
X122743844Y-94430239D01*
X122763674Y-94428820D01*
X122772662Y-94428500D01*
X122786366Y-94428500D01*
X122786368Y-94428500D01*
X122799953Y-94426546D01*
X122808856Y-94425589D01*
X122839718Y-94423382D01*
X122847570Y-94422821D01*
X122856555Y-94422500D01*
X123597784Y-94422500D01*
X123624565Y-94425378D01*
X123629351Y-94426420D01*
X123629351Y-94426419D01*
X123629352Y-94426420D01*
X123659844Y-94424239D01*
X123679674Y-94422820D01*
X123688662Y-94422500D01*
X123702366Y-94422500D01*
X123702368Y-94422500D01*
X123715953Y-94420546D01*
X123724856Y-94419589D01*
X123766148Y-94416636D01*
X123784197Y-94415346D01*
X123784223Y-94415722D01*
X123795599Y-94414499D01*
X123901042Y-94414499D01*
X123901044Y-94414499D01*
X123929130Y-94410050D01*
X123948838Y-94408500D01*
X124494858Y-94408500D01*
X124552062Y-94422234D01*
X124585943Y-94439498D01*
X124633305Y-94446999D01*
X124680666Y-94454500D01*
X124680668Y-94454500D01*
X125769332Y-94454500D01*
X125769334Y-94454500D01*
X125864055Y-94439498D01*
X125978223Y-94381326D01*
X126068826Y-94290723D01*
X126126998Y-94176555D01*
X126142000Y-94081834D01*
X126142000Y-93718166D01*
X126126998Y-93623445D01*
X126097912Y-93566361D01*
X126068826Y-93509276D01*
X125978223Y-93418673D01*
X125864053Y-93360501D01*
X125799336Y-93350251D01*
X125769334Y-93345500D01*
X124680666Y-93345500D01*
X124662299Y-93348408D01*
X124585943Y-93360501D01*
X124552062Y-93377766D01*
X124494858Y-93391500D01*
X124085240Y-93391500D01*
X124028038Y-93377767D01*
X124015861Y-93371562D01*
X123993428Y-93360132D01*
X123972756Y-93356858D01*
X123901045Y-93345500D01*
X123901041Y-93345500D01*
X123498957Y-93345500D01*
X123406574Y-93360131D01*
X123344486Y-93391767D01*
X123287283Y-93405500D01*
X122824215Y-93405500D01*
X122797435Y-93402621D01*
X122792650Y-93401580D01*
X122792646Y-93401580D01*
X122742331Y-93405179D01*
X122733342Y-93405500D01*
X122719632Y-93405500D01*
X122706048Y-93407452D01*
X122697130Y-93408411D01*
X122672632Y-93410163D01*
X122658442Y-93411179D01*
X122649452Y-93411500D01*
X122432818Y-93411500D01*
X122364697Y-93391498D01*
X122343723Y-93374595D01*
X122008222Y-93039094D01*
X121974196Y-92976782D01*
X121979261Y-92905967D01*
X122008220Y-92860906D01*
X122261331Y-92607795D01*
X122282305Y-92590894D01*
X122286421Y-92588250D01*
X122319461Y-92550118D01*
X122325579Y-92543548D01*
X122335280Y-92533848D01*
X122343503Y-92522861D01*
X122349119Y-92515891D01*
X122382176Y-92477743D01*
X122384208Y-92473292D01*
X122397957Y-92450120D01*
X122400889Y-92446204D01*
X122418524Y-92398919D01*
X122421963Y-92390618D01*
X122424803Y-92384400D01*
X122442919Y-92344734D01*
X122443615Y-92339890D01*
X122450280Y-92313779D01*
X122451988Y-92309201D01*
X122455587Y-92258871D01*
X122456545Y-92249960D01*
X122458500Y-92236368D01*
X122458500Y-92222657D01*
X122458821Y-92213668D01*
X122460121Y-92195500D01*
X122461098Y-92181834D01*
X124308000Y-92181834D01*
X124310877Y-92200000D01*
X124323001Y-92276553D01*
X124381173Y-92390723D01*
X124471776Y-92481326D01*
X124525774Y-92508839D01*
X124585945Y-92539498D01*
X124680666Y-92554500D01*
X124680668Y-92554500D01*
X125769332Y-92554500D01*
X125769334Y-92554500D01*
X125864055Y-92539498D01*
X125978223Y-92481326D01*
X126068826Y-92390723D01*
X126126998Y-92276555D01*
X126142000Y-92181834D01*
X126142000Y-92070353D01*
X126162002Y-92002232D01*
X126215658Y-91955739D01*
X126285932Y-91945635D01*
X126350512Y-91975129D01*
X126363221Y-91987837D01*
X126363579Y-91988250D01*
X126363581Y-91988252D01*
X126367691Y-91990893D01*
X126388671Y-92007799D01*
X126557868Y-92176996D01*
X126591894Y-92239308D01*
X126593221Y-92246379D01*
X126598000Y-92276551D01*
X126656173Y-92390723D01*
X126746776Y-92481326D01*
X126800774Y-92508839D01*
X126860945Y-92539498D01*
X126955666Y-92554500D01*
X126955668Y-92554500D01*
X128044332Y-92554500D01*
X128044334Y-92554500D01*
X128113484Y-92543548D01*
X128139056Y-92539498D01*
X128172938Y-92522234D01*
X128230142Y-92508500D01*
X128387182Y-92508500D01*
X128455303Y-92528502D01*
X128476277Y-92545405D01*
X128781776Y-92850904D01*
X128815802Y-92913216D01*
X128810737Y-92984031D01*
X128781777Y-93029094D01*
X128456277Y-93354595D01*
X128393964Y-93388620D01*
X128367181Y-93391500D01*
X128230142Y-93391500D01*
X128172938Y-93377766D01*
X128139056Y-93360501D01*
X128064672Y-93348721D01*
X128044334Y-93345500D01*
X126955666Y-93345500D01*
X126929766Y-93349602D01*
X126860946Y-93360501D01*
X126746776Y-93418673D01*
X126656173Y-93509276D01*
X126598001Y-93623446D01*
X126583000Y-93718167D01*
X126583000Y-94081832D01*
X126598001Y-94176553D01*
X126656173Y-94290723D01*
X126746776Y-94381326D01*
X126803861Y-94410412D01*
X126860945Y-94439498D01*
X126955666Y-94454500D01*
X126955668Y-94454500D01*
X128044332Y-94454500D01*
X128044334Y-94454500D01*
X128107481Y-94444498D01*
X128139056Y-94439498D01*
X128172938Y-94422234D01*
X128230142Y-94408500D01*
X128561784Y-94408500D01*
X128588565Y-94411378D01*
X128593351Y-94412420D01*
X128593351Y-94412419D01*
X128593352Y-94412420D01*
X128626475Y-94410051D01*
X128643674Y-94408820D01*
X128652662Y-94408500D01*
X128666366Y-94408500D01*
X128666368Y-94408500D01*
X128679953Y-94406546D01*
X128688853Y-94405589D01*
X128739201Y-94401989D01*
X128743794Y-94400275D01*
X128769893Y-94393614D01*
X128774734Y-94392919D01*
X128820633Y-94371957D01*
X128828914Y-94368526D01*
X128876204Y-94350889D01*
X128880117Y-94347958D01*
X128903299Y-94334204D01*
X128907743Y-94332176D01*
X128945891Y-94299119D01*
X128952861Y-94293503D01*
X128963848Y-94285280D01*
X128973551Y-94275575D01*
X128980118Y-94269461D01*
X129018250Y-94236421D01*
X129020894Y-94232305D01*
X129037791Y-94211335D01*
X129507725Y-93741401D01*
X129570035Y-93707378D01*
X129596818Y-93704499D01*
X129853181Y-93704499D01*
X129921302Y-93724501D01*
X129942276Y-93741404D01*
X130858595Y-94657723D01*
X130892621Y-94720035D01*
X130895500Y-94746817D01*
X130895500Y-94955063D01*
X130895501Y-94955073D01*
X130910265Y-95029300D01*
X130966516Y-95113484D01*
X131050697Y-95169733D01*
X131050699Y-95169734D01*
X131124933Y-95184500D01*
X131875066Y-95184499D01*
X131875069Y-95184498D01*
X131875073Y-95184498D01*
X131924326Y-95174701D01*
X131949301Y-95169734D01*
X131979997Y-95149222D01*
X132047747Y-95128007D01*
X132116214Y-95146788D01*
X132119990Y-95149214D01*
X132150699Y-95169734D01*
X132224933Y-95184500D01*
X132975066Y-95184499D01*
X132975069Y-95184498D01*
X132975073Y-95184498D01*
X133024326Y-95174701D01*
X133049301Y-95169734D01*
X133133484Y-95113484D01*
X133189734Y-95029301D01*
X133204500Y-94955067D01*
X133204499Y-94204934D01*
X133204498Y-94204931D01*
X133204498Y-94204926D01*
X133189734Y-94130699D01*
X133157082Y-94081832D01*
X133133484Y-94046516D01*
X133111748Y-94031992D01*
X133049303Y-93990266D01*
X133030917Y-93986609D01*
X132968008Y-93953700D01*
X132932877Y-93892005D01*
X132929500Y-93863030D01*
X132929500Y-93759548D01*
X133695500Y-93759548D01*
X133695502Y-93759572D01*
X133701798Y-93818151D01*
X133701799Y-93818156D01*
X133701800Y-93818157D01*
X133751242Y-93950715D01*
X133751243Y-93950716D01*
X133751244Y-93950719D01*
X133836025Y-94063974D01*
X133949281Y-94148755D01*
X133949285Y-94148758D01*
X134081839Y-94198199D01*
X134081847Y-94198201D01*
X134111143Y-94201350D01*
X134140443Y-94204500D01*
X134709556Y-94204499D01*
X134733311Y-94201945D01*
X134775995Y-94197358D01*
X134776154Y-94198846D01*
X134838296Y-94202169D01*
X134895888Y-94243687D01*
X134912799Y-94272773D01*
X134913962Y-94275579D01*
X134915644Y-94279641D01*
X134915649Y-94279649D01*
X135004525Y-94395474D01*
X135120350Y-94484350D01*
X135120357Y-94484355D01*
X135255246Y-94540228D01*
X135400000Y-94559285D01*
X135544754Y-94540228D01*
X135679643Y-94484355D01*
X135795474Y-94395474D01*
X135884355Y-94279643D01*
X135940228Y-94144754D01*
X135959285Y-94000000D01*
X135940228Y-93855246D01*
X135884355Y-93720358D01*
X135795474Y-93604526D01*
X135795472Y-93604524D01*
X135795471Y-93604523D01*
X135679649Y-93515649D01*
X135679646Y-93515647D01*
X135679643Y-93515645D01*
X135544754Y-93459772D01*
X135544752Y-93459771D01*
X135537124Y-93456612D01*
X135538228Y-93453945D01*
X135494927Y-93428944D01*
X135191404Y-93125421D01*
X135157378Y-93063109D01*
X135154499Y-93036326D01*
X135154499Y-92890451D01*
X135154499Y-92890444D01*
X135149484Y-92843785D01*
X135148201Y-92831848D01*
X135148200Y-92831846D01*
X135148200Y-92831843D01*
X135098758Y-92699285D01*
X135098755Y-92699281D01*
X135098755Y-92699280D01*
X135013974Y-92586025D01*
X134900718Y-92501244D01*
X134900714Y-92501241D01*
X134768160Y-92451800D01*
X134768152Y-92451798D01*
X134709560Y-92445500D01*
X134140451Y-92445500D01*
X134140427Y-92445502D01*
X134081848Y-92451798D01*
X134081843Y-92451800D01*
X133953747Y-92499578D01*
X133949280Y-92501244D01*
X133836025Y-92586025D01*
X133751244Y-92699281D01*
X133751241Y-92699285D01*
X133701800Y-92831839D01*
X133701798Y-92831847D01*
X133695500Y-92890431D01*
X133695500Y-93759548D01*
X132929500Y-93759548D01*
X132929500Y-92419882D01*
X132929980Y-92408899D01*
X132930535Y-92402552D01*
X132933310Y-92370840D01*
X132923414Y-92333909D01*
X132921039Y-92323193D01*
X132914406Y-92285569D01*
X132912494Y-92280318D01*
X132905590Y-92263649D01*
X132903236Y-92258600D01*
X132881310Y-92227285D01*
X132875406Y-92218018D01*
X132856305Y-92184934D01*
X132852608Y-92181832D01*
X132827031Y-92160370D01*
X132818927Y-92152943D01*
X131866405Y-91200421D01*
X131832379Y-91138109D01*
X131829500Y-91111326D01*
X131829500Y-91109548D01*
X133695500Y-91109548D01*
X133695502Y-91109572D01*
X133701798Y-91168151D01*
X133701799Y-91168156D01*
X133701800Y-91168157D01*
X133751242Y-91300715D01*
X133751243Y-91300716D01*
X133751244Y-91300719D01*
X133836025Y-91413974D01*
X133949281Y-91498755D01*
X133949285Y-91498758D01*
X134081839Y-91548199D01*
X134081847Y-91548201D01*
X134111143Y-91551350D01*
X134140443Y-91554500D01*
X134709556Y-91554499D01*
X134735408Y-91551720D01*
X134768151Y-91548201D01*
X134768152Y-91548200D01*
X134768157Y-91548200D01*
X134900715Y-91498758D01*
X135013974Y-91413974D01*
X135098758Y-91300715D01*
X135148200Y-91168157D01*
X135151099Y-91141197D01*
X135154499Y-91109568D01*
X135154499Y-91109566D01*
X135154500Y-91109557D01*
X135154499Y-90240444D01*
X135152588Y-90222665D01*
X135148201Y-90181848D01*
X135148200Y-90181846D01*
X135148200Y-90181843D01*
X135098758Y-90049285D01*
X135098755Y-90049281D01*
X135098755Y-90049280D01*
X135013974Y-89936025D01*
X134900718Y-89851244D01*
X134900717Y-89851243D01*
X134900715Y-89851242D01*
X134877599Y-89842620D01*
X134850639Y-89832564D01*
X134793804Y-89790016D01*
X134768995Y-89723495D01*
X134784088Y-89654121D01*
X134834291Y-89603920D01*
X134846431Y-89598111D01*
X134879643Y-89584355D01*
X134995474Y-89495474D01*
X135084355Y-89379643D01*
X135140228Y-89244754D01*
X135159285Y-89100000D01*
X135145274Y-88993575D01*
X135156213Y-88923428D01*
X135203341Y-88870329D01*
X135253748Y-88852208D01*
X135344754Y-88840228D01*
X135479643Y-88784355D01*
X135595474Y-88695474D01*
X135684355Y-88579643D01*
X135740228Y-88444754D01*
X135759285Y-88300000D01*
X135757750Y-88288344D01*
X135748029Y-88214500D01*
X135745274Y-88193575D01*
X135756213Y-88123428D01*
X135803341Y-88070329D01*
X135853748Y-88052208D01*
X135944754Y-88040228D01*
X136079643Y-87984355D01*
X136195474Y-87895474D01*
X136284355Y-87779643D01*
X136340228Y-87644754D01*
X136359285Y-87500000D01*
X136357484Y-87486323D01*
X136340228Y-87355247D01*
X136340228Y-87355246D01*
X136284355Y-87220358D01*
X136272521Y-87204936D01*
X136233820Y-87154500D01*
X136195474Y-87104526D01*
X136195471Y-87104524D01*
X136195470Y-87104522D01*
X136178793Y-87091725D01*
X136136927Y-87034386D01*
X136129500Y-86991765D01*
X136129500Y-78069882D01*
X136129980Y-78058899D01*
X136130544Y-78052449D01*
X136133310Y-78020840D01*
X136123414Y-77983909D01*
X136121039Y-77973193D01*
X136119833Y-77966355D01*
X136114405Y-77935566D01*
X136114404Y-77935565D01*
X136112494Y-77930318D01*
X136105590Y-77913649D01*
X136103236Y-77908600D01*
X136081310Y-77877285D01*
X136075406Y-77868018D01*
X136056304Y-77834933D01*
X136056300Y-77834929D01*
X136027029Y-77810368D01*
X136018924Y-77802941D01*
X135191404Y-76975421D01*
X135157378Y-76913109D01*
X135154499Y-76886326D01*
X135154499Y-76240451D01*
X135154499Y-76240444D01*
X135148749Y-76186948D01*
X135148201Y-76181848D01*
X135148200Y-76181846D01*
X135148200Y-76181843D01*
X135098758Y-76049285D01*
X135098755Y-76049281D01*
X135098755Y-76049280D01*
X135013974Y-75936025D01*
X134900718Y-75851244D01*
X134900714Y-75851241D01*
X134768160Y-75801800D01*
X134768152Y-75801798D01*
X134709560Y-75795500D01*
X134140451Y-75795500D01*
X134140427Y-75795502D01*
X134081848Y-75801798D01*
X134071537Y-75805644D01*
X133955680Y-75848857D01*
X133949280Y-75851244D01*
X133836025Y-75936025D01*
X133751244Y-76049281D01*
X133751241Y-76049285D01*
X133701800Y-76181839D01*
X133701798Y-76181847D01*
X133695500Y-76240431D01*
X133695500Y-77109548D01*
X133695502Y-77109572D01*
X133701798Y-77168151D01*
X133701799Y-77168156D01*
X133701800Y-77168157D01*
X133751242Y-77300715D01*
X133751243Y-77300716D01*
X133751244Y-77300719D01*
X133836025Y-77413974D01*
X133949281Y-77498755D01*
X133949285Y-77498758D01*
X134081839Y-77548199D01*
X134081847Y-77548201D01*
X134111143Y-77551350D01*
X134140443Y-77554500D01*
X134709556Y-77554499D01*
X134766063Y-77548425D01*
X134835931Y-77561031D01*
X134868625Y-77584608D01*
X135433595Y-78149578D01*
X135467621Y-78211890D01*
X135470500Y-78238673D01*
X135470500Y-83950325D01*
X135450498Y-84018446D01*
X135396842Y-84064939D01*
X135326568Y-84075043D01*
X135261988Y-84045549D01*
X135255405Y-84039420D01*
X135191404Y-83975419D01*
X135157378Y-83913107D01*
X135154499Y-83886324D01*
X135154499Y-83240451D01*
X135154499Y-83240444D01*
X135152785Y-83224503D01*
X135148201Y-83181848D01*
X135148200Y-83181846D01*
X135148200Y-83181843D01*
X135098758Y-83049285D01*
X135098755Y-83049281D01*
X135098755Y-83049280D01*
X135013974Y-82936025D01*
X134900718Y-82851244D01*
X134900714Y-82851241D01*
X134768160Y-82801800D01*
X134768152Y-82801798D01*
X134709560Y-82795500D01*
X134140451Y-82795500D01*
X134140427Y-82795502D01*
X134081848Y-82801798D01*
X133949280Y-82851244D01*
X133836025Y-82936025D01*
X133751244Y-83049281D01*
X133751241Y-83049285D01*
X133701800Y-83181839D01*
X133701798Y-83181847D01*
X133695500Y-83240431D01*
X133695500Y-84109548D01*
X133695502Y-84109572D01*
X133701798Y-84168151D01*
X133701799Y-84168156D01*
X133701800Y-84168157D01*
X133751242Y-84300715D01*
X133751243Y-84300716D01*
X133751244Y-84300719D01*
X133836025Y-84413974D01*
X133949281Y-84498755D01*
X133949285Y-84498758D01*
X134081839Y-84548199D01*
X134081847Y-84548201D01*
X134111143Y-84551350D01*
X134140443Y-84554500D01*
X134709556Y-84554499D01*
X134731032Y-84552190D01*
X134800898Y-84564795D01*
X134852861Y-84613173D01*
X134870500Y-84677468D01*
X134870500Y-85322530D01*
X134850498Y-85390651D01*
X134796842Y-85437144D01*
X134731034Y-85447808D01*
X134709573Y-85445501D01*
X134709561Y-85445500D01*
X134709557Y-85445500D01*
X134709551Y-85445500D01*
X134140451Y-85445500D01*
X134140427Y-85445502D01*
X134081848Y-85451798D01*
X133949280Y-85501244D01*
X133836025Y-85586025D01*
X133751244Y-85699281D01*
X133751241Y-85699285D01*
X133701800Y-85831839D01*
X133701798Y-85831847D01*
X133695500Y-85890431D01*
X133695500Y-86759548D01*
X133695502Y-86759572D01*
X133701798Y-86818151D01*
X133701799Y-86818156D01*
X133701800Y-86818157D01*
X133751242Y-86950715D01*
X133751243Y-86950716D01*
X133751244Y-86950719D01*
X133836025Y-87063974D01*
X133949281Y-87148755D01*
X133949279Y-87148755D01*
X133949282Y-87148756D01*
X133949285Y-87148758D01*
X134045034Y-87184471D01*
X134101867Y-87227016D01*
X134116324Y-87256773D01*
X134117105Y-87256410D01*
X134121762Y-87266397D01*
X134143681Y-87297700D01*
X134149584Y-87306966D01*
X134166122Y-87335610D01*
X134168696Y-87340067D01*
X134197966Y-87364627D01*
X134206072Y-87372055D01*
X134233595Y-87399578D01*
X134267621Y-87461890D01*
X134270500Y-87488673D01*
X134270500Y-88591766D01*
X134250498Y-88659887D01*
X134221205Y-88691727D01*
X134216323Y-88695474D01*
X134204526Y-88704526D01*
X134115646Y-88820356D01*
X134115645Y-88820358D01*
X134105261Y-88845427D01*
X134059771Y-88955247D01*
X134040715Y-89099999D01*
X134040715Y-89100000D01*
X134059771Y-89244752D01*
X134115644Y-89379641D01*
X134115649Y-89379649D01*
X134204525Y-89495474D01*
X134301047Y-89569538D01*
X134342914Y-89626876D01*
X134347136Y-89697747D01*
X134312372Y-89759650D01*
X134249659Y-89792931D01*
X134224344Y-89795500D01*
X134140452Y-89795500D01*
X134140427Y-89795502D01*
X134081848Y-89801798D01*
X134049863Y-89813728D01*
X133961136Y-89846822D01*
X133949280Y-89851244D01*
X133836025Y-89936025D01*
X133751244Y-90049281D01*
X133751241Y-90049285D01*
X133701800Y-90181839D01*
X133701798Y-90181847D01*
X133695500Y-90240431D01*
X133695500Y-91109548D01*
X131829500Y-91109548D01*
X131829500Y-90126969D01*
X131849502Y-90058848D01*
X131903158Y-90012355D01*
X131930920Y-90003390D01*
X131937217Y-90002137D01*
X131949301Y-89999734D01*
X132033484Y-89943484D01*
X132089734Y-89859301D01*
X132104500Y-89785067D01*
X132104499Y-89034934D01*
X132104498Y-89034930D01*
X132104498Y-89034926D01*
X132089734Y-88960699D01*
X132075655Y-88939629D01*
X132033484Y-88876516D01*
X132024225Y-88870329D01*
X131949302Y-88820266D01*
X131875068Y-88805500D01*
X131124936Y-88805500D01*
X131124926Y-88805501D01*
X131050699Y-88820265D01*
X130966515Y-88876516D01*
X130910266Y-88960697D01*
X130895500Y-89034930D01*
X130895500Y-89785063D01*
X130895501Y-89785073D01*
X130910265Y-89859300D01*
X130966516Y-89943484D01*
X131050697Y-89999734D01*
X131069079Y-90003390D01*
X131131989Y-90036296D01*
X131167122Y-90097990D01*
X131170500Y-90126969D01*
X131170500Y-91280117D01*
X131170020Y-91291099D01*
X131166690Y-91329157D01*
X131166690Y-91329164D01*
X131176579Y-91366071D01*
X131178957Y-91376798D01*
X131185593Y-91414430D01*
X131187498Y-91419664D01*
X131194416Y-91436367D01*
X131196762Y-91441397D01*
X131218681Y-91472700D01*
X131224584Y-91481966D01*
X131243695Y-91515066D01*
X131263252Y-91531476D01*
X131272973Y-91539633D01*
X131281077Y-91547060D01*
X132233595Y-92499578D01*
X132267621Y-92561890D01*
X132270500Y-92588673D01*
X132270500Y-93863030D01*
X132250498Y-93931151D01*
X132196842Y-93977644D01*
X132169084Y-93986608D01*
X132150700Y-93990265D01*
X132150699Y-93990265D01*
X132120002Y-94010777D01*
X132052249Y-94031992D01*
X131983782Y-94013209D01*
X131979997Y-94010776D01*
X131949302Y-93990266D01*
X131875069Y-93975500D01*
X131875067Y-93975500D01*
X131666818Y-93975500D01*
X131598697Y-93955498D01*
X131577723Y-93938595D01*
X130536191Y-92897063D01*
X130502165Y-92834751D01*
X130507230Y-92763936D01*
X130532869Y-92727099D01*
X130530518Y-92725062D01*
X130536419Y-92718250D01*
X130536421Y-92718250D01*
X130569461Y-92680118D01*
X130575579Y-92673548D01*
X130585280Y-92663848D01*
X130593501Y-92652865D01*
X130599133Y-92645875D01*
X130632176Y-92607743D01*
X130634208Y-92603292D01*
X130647958Y-92580117D01*
X130650888Y-92576204D01*
X130668521Y-92528924D01*
X130671943Y-92520662D01*
X130692919Y-92474734D01*
X130693615Y-92469890D01*
X130700279Y-92443781D01*
X130701988Y-92439201D01*
X130705587Y-92388867D01*
X130706544Y-92379967D01*
X130708500Y-92366368D01*
X130708500Y-92352648D01*
X130708821Y-92343659D01*
X130712419Y-92293352D01*
X130712418Y-92293347D01*
X130711379Y-92288568D01*
X130708500Y-92261789D01*
X130708500Y-91068214D01*
X130711380Y-91041428D01*
X130712420Y-91036649D01*
X130708821Y-90986330D01*
X130708500Y-90977341D01*
X130708500Y-90963631D01*
X130708499Y-90963628D01*
X130708115Y-90960958D01*
X130706548Y-90950055D01*
X130705587Y-90941125D01*
X130701988Y-90890799D01*
X130700278Y-90886216D01*
X130693614Y-90860104D01*
X130693247Y-90857551D01*
X130692919Y-90855266D01*
X130671954Y-90809362D01*
X130668525Y-90801083D01*
X130650889Y-90753796D01*
X130650887Y-90753793D01*
X130650887Y-90753792D01*
X130647956Y-90749877D01*
X130634209Y-90726708D01*
X130632176Y-90722258D01*
X130632175Y-90722256D01*
X130599144Y-90684136D01*
X130593499Y-90677131D01*
X130585282Y-90666154D01*
X130584120Y-90664992D01*
X130575570Y-90656442D01*
X130569451Y-90649869D01*
X130566275Y-90646204D01*
X130549248Y-90626553D01*
X130536422Y-90611750D01*
X130536419Y-90611748D01*
X130532300Y-90609101D01*
X130511327Y-90592199D01*
X130145405Y-90226277D01*
X130111379Y-90163965D01*
X130108500Y-90137182D01*
X130108500Y-88214500D01*
X130128502Y-88146379D01*
X130182158Y-88099886D01*
X130234500Y-88088500D01*
X130890903Y-88088500D01*
X130959024Y-88108502D01*
X130960906Y-88109735D01*
X130966515Y-88113483D01*
X130966516Y-88113484D01*
X131050699Y-88169734D01*
X131124933Y-88184500D01*
X131875066Y-88184499D01*
X131875069Y-88184498D01*
X131875073Y-88184498D01*
X131924326Y-88174701D01*
X131949301Y-88169734D01*
X131979997Y-88149222D01*
X132047747Y-88128007D01*
X132116214Y-88146788D01*
X132119990Y-88149214D01*
X132150699Y-88169734D01*
X132224933Y-88184500D01*
X132975066Y-88184499D01*
X132975069Y-88184498D01*
X132975073Y-88184498D01*
X133024326Y-88174701D01*
X133049301Y-88169734D01*
X133133484Y-88113484D01*
X133189734Y-88029301D01*
X133204500Y-87955067D01*
X133204499Y-87204934D01*
X133204498Y-87204931D01*
X133204498Y-87204926D01*
X133189734Y-87130699D01*
X133172246Y-87104527D01*
X133133484Y-87046516D01*
X133133483Y-87046515D01*
X133049303Y-86990266D01*
X133030917Y-86986609D01*
X132968008Y-86953700D01*
X132932877Y-86892005D01*
X132929500Y-86863030D01*
X132929500Y-85319882D01*
X132929980Y-85308899D01*
X132931955Y-85286323D01*
X132933310Y-85270840D01*
X132923414Y-85233909D01*
X132921039Y-85223193D01*
X132914406Y-85185569D01*
X132912494Y-85180318D01*
X132905590Y-85163649D01*
X132903236Y-85158600D01*
X132881310Y-85127285D01*
X132875406Y-85118018D01*
X132856305Y-85084934D01*
X132834355Y-85066516D01*
X132827031Y-85060370D01*
X132818927Y-85052943D01*
X131866405Y-84100421D01*
X131832379Y-84038109D01*
X131829500Y-84011326D01*
X131829500Y-83126969D01*
X131849502Y-83058848D01*
X131903158Y-83012355D01*
X131930920Y-83003390D01*
X131937217Y-83002137D01*
X131949301Y-82999734D01*
X132033484Y-82943484D01*
X132089734Y-82859301D01*
X132104500Y-82785067D01*
X132104499Y-82034934D01*
X132104498Y-82034930D01*
X132104498Y-82034926D01*
X132089734Y-81960699D01*
X132055338Y-81909223D01*
X132033484Y-81876516D01*
X132033483Y-81876515D01*
X131949302Y-81820266D01*
X131875068Y-81805500D01*
X131124936Y-81805500D01*
X131124926Y-81805501D01*
X131050699Y-81820265D01*
X130966515Y-81876516D01*
X130910266Y-81960697D01*
X130895500Y-82034930D01*
X130895500Y-82785063D01*
X130895501Y-82785073D01*
X130910265Y-82859300D01*
X130966516Y-82943484D01*
X131050697Y-82999734D01*
X131069079Y-83003390D01*
X131131989Y-83036296D01*
X131167122Y-83097990D01*
X131170500Y-83126969D01*
X131170500Y-84180117D01*
X131170020Y-84191099D01*
X131166690Y-84229157D01*
X131166690Y-84229164D01*
X131176579Y-84266071D01*
X131178957Y-84276798D01*
X131185593Y-84314430D01*
X131187498Y-84319664D01*
X131194416Y-84336367D01*
X131196762Y-84341397D01*
X131206891Y-84355862D01*
X131217140Y-84370500D01*
X131218681Y-84372700D01*
X131224584Y-84381966D01*
X131243695Y-84415066D01*
X131272973Y-84439633D01*
X131281077Y-84447060D01*
X132233595Y-85399578D01*
X132267621Y-85461890D01*
X132270500Y-85488673D01*
X132270500Y-86863030D01*
X132250498Y-86931151D01*
X132196842Y-86977644D01*
X132169084Y-86986608D01*
X132150700Y-86990265D01*
X132150699Y-86990265D01*
X132120002Y-87010777D01*
X132052249Y-87031992D01*
X131983782Y-87013209D01*
X131979997Y-87010776D01*
X131949302Y-86990266D01*
X131875068Y-86975500D01*
X131124936Y-86975500D01*
X131124926Y-86975501D01*
X131050699Y-86990265D01*
X130960905Y-87050265D01*
X130893153Y-87071480D01*
X130890903Y-87071500D01*
X130234500Y-87071500D01*
X130166379Y-87051498D01*
X130119886Y-86997842D01*
X130108500Y-86945500D01*
X130108500Y-81214500D01*
X130128502Y-81146379D01*
X130182158Y-81099886D01*
X130234500Y-81088500D01*
X130890903Y-81088500D01*
X130959024Y-81108502D01*
X130960906Y-81109735D01*
X130966515Y-81113483D01*
X130966516Y-81113484D01*
X131050699Y-81169734D01*
X131124933Y-81184500D01*
X131875066Y-81184499D01*
X131875069Y-81184498D01*
X131875073Y-81184498D01*
X131924326Y-81174701D01*
X131949301Y-81169734D01*
X131979997Y-81149222D01*
X132047747Y-81128007D01*
X132116214Y-81146788D01*
X132119990Y-81149214D01*
X132150699Y-81169734D01*
X132224933Y-81184500D01*
X132975066Y-81184499D01*
X132975069Y-81184498D01*
X132975073Y-81184498D01*
X133024326Y-81174701D01*
X133049301Y-81169734D01*
X133133484Y-81113484D01*
X133189734Y-81029301D01*
X133204500Y-80955067D01*
X133204499Y-80204934D01*
X133204498Y-80204931D01*
X133204498Y-80204926D01*
X133189734Y-80130699D01*
X133150178Y-80071500D01*
X133133484Y-80046516D01*
X133133483Y-80046515D01*
X133049303Y-79990266D01*
X133030917Y-79986609D01*
X132968008Y-79953700D01*
X132932877Y-79892005D01*
X132929500Y-79863030D01*
X132929500Y-79759548D01*
X133695500Y-79759548D01*
X133695502Y-79759572D01*
X133701798Y-79818151D01*
X133701799Y-79818156D01*
X133701800Y-79818157D01*
X133751242Y-79950715D01*
X133751243Y-79950716D01*
X133751244Y-79950719D01*
X133836025Y-80063974D01*
X133949281Y-80148755D01*
X133949285Y-80148758D01*
X134081839Y-80198199D01*
X134081847Y-80198201D01*
X134111143Y-80201350D01*
X134140443Y-80204500D01*
X134709556Y-80204499D01*
X134735408Y-80201720D01*
X134768151Y-80198201D01*
X134768152Y-80198200D01*
X134768157Y-80198200D01*
X134900715Y-80148758D01*
X135013974Y-80063974D01*
X135098758Y-79950715D01*
X135148200Y-79818157D01*
X135150122Y-79800286D01*
X135154499Y-79759568D01*
X135154499Y-79759566D01*
X135154500Y-79759557D01*
X135154499Y-78890444D01*
X135151889Y-78866160D01*
X135148201Y-78831848D01*
X135148200Y-78831846D01*
X135148200Y-78831843D01*
X135098758Y-78699285D01*
X135098755Y-78699281D01*
X135098755Y-78699280D01*
X135013974Y-78586025D01*
X134900718Y-78501244D01*
X134900714Y-78501241D01*
X134768160Y-78451800D01*
X134768152Y-78451798D01*
X134709560Y-78445500D01*
X134140451Y-78445500D01*
X134140427Y-78445502D01*
X134081848Y-78451798D01*
X134018524Y-78475417D01*
X133953747Y-78499578D01*
X133949280Y-78501244D01*
X133836025Y-78586025D01*
X133751244Y-78699281D01*
X133751241Y-78699285D01*
X133701800Y-78831839D01*
X133701798Y-78831847D01*
X133695500Y-78890431D01*
X133695500Y-79759548D01*
X132929500Y-79759548D01*
X132929500Y-78419882D01*
X132929980Y-78408899D01*
X132929980Y-78408898D01*
X132933310Y-78370840D01*
X132923414Y-78333909D01*
X132921039Y-78323193D01*
X132914406Y-78285569D01*
X132912494Y-78280318D01*
X132905590Y-78263649D01*
X132903236Y-78258600D01*
X132881310Y-78227285D01*
X132875406Y-78218018D01*
X132871868Y-78211890D01*
X132856305Y-78184934D01*
X132827030Y-78160369D01*
X132818927Y-78152943D01*
X131866405Y-77200421D01*
X131832379Y-77138109D01*
X131829500Y-77111326D01*
X131829500Y-76126969D01*
X131849502Y-76058848D01*
X131903158Y-76012355D01*
X131930920Y-76003390D01*
X131942237Y-76001139D01*
X131949301Y-75999734D01*
X132033484Y-75943484D01*
X132089734Y-75859301D01*
X132104500Y-75785067D01*
X132104499Y-75034934D01*
X132104498Y-75034930D01*
X132104498Y-75034926D01*
X132089734Y-74960699D01*
X132057900Y-74913057D01*
X132033484Y-74876516D01*
X132024575Y-74870563D01*
X131949302Y-74820266D01*
X131875068Y-74805500D01*
X131124936Y-74805500D01*
X131124926Y-74805501D01*
X131050699Y-74820265D01*
X130966515Y-74876516D01*
X130910266Y-74960697D01*
X130895500Y-75034930D01*
X130895500Y-75785063D01*
X130895501Y-75785073D01*
X130910265Y-75859300D01*
X130966516Y-75943484D01*
X131050697Y-75999734D01*
X131069079Y-76003390D01*
X131131989Y-76036296D01*
X131167122Y-76097990D01*
X131170500Y-76126969D01*
X131170500Y-77280117D01*
X131170020Y-77291099D01*
X131166690Y-77329157D01*
X131166690Y-77329164D01*
X131176579Y-77366071D01*
X131178957Y-77376798D01*
X131185593Y-77414430D01*
X131187498Y-77419664D01*
X131194416Y-77436367D01*
X131196762Y-77441397D01*
X131218681Y-77472700D01*
X131224584Y-77481966D01*
X131243695Y-77515066D01*
X131272973Y-77539633D01*
X131281077Y-77547060D01*
X132233595Y-78499578D01*
X132267621Y-78561890D01*
X132270500Y-78588673D01*
X132270500Y-79863030D01*
X132250498Y-79931151D01*
X132196842Y-79977644D01*
X132169084Y-79986608D01*
X132150700Y-79990265D01*
X132150699Y-79990265D01*
X132120002Y-80010777D01*
X132052249Y-80031992D01*
X131983782Y-80013209D01*
X131979997Y-80010776D01*
X131949302Y-79990266D01*
X131875068Y-79975500D01*
X131124936Y-79975500D01*
X131124926Y-79975501D01*
X131050699Y-79990265D01*
X130960905Y-80050265D01*
X130893153Y-80071480D01*
X130890903Y-80071500D01*
X130234500Y-80071500D01*
X130166379Y-80051498D01*
X130119886Y-79997842D01*
X130108500Y-79945500D01*
X130108500Y-73967790D01*
X130128502Y-73899669D01*
X130182158Y-73853176D01*
X130214791Y-73843341D01*
X130220171Y-73842488D01*
X130239055Y-73839498D01*
X130244470Y-73836738D01*
X130314244Y-73823628D01*
X130380031Y-73850322D01*
X130390777Y-73859905D01*
X130422199Y-73891327D01*
X130439101Y-73912300D01*
X130441748Y-73916419D01*
X130441750Y-73916422D01*
X130479869Y-73949451D01*
X130486442Y-73955570D01*
X130496152Y-73965280D01*
X130496154Y-73965282D01*
X130507131Y-73973499D01*
X130514136Y-73979144D01*
X130552257Y-74012176D01*
X130554602Y-74013246D01*
X130556708Y-74014209D01*
X130579877Y-74027956D01*
X130583791Y-74030886D01*
X130583792Y-74030887D01*
X130583794Y-74030887D01*
X130583796Y-74030889D01*
X130631084Y-74048526D01*
X130639372Y-74051959D01*
X130685266Y-74072919D01*
X130690108Y-74073615D01*
X130716211Y-74080277D01*
X130720800Y-74081989D01*
X130771130Y-74085588D01*
X130780058Y-74086548D01*
X130793632Y-74088500D01*
X130807338Y-74088500D01*
X130816327Y-74088821D01*
X130866649Y-74092420D01*
X130866656Y-74092418D01*
X130875635Y-74091777D01*
X130875742Y-74093283D01*
X130936720Y-74097639D01*
X130962703Y-74110935D01*
X130966514Y-74113481D01*
X130966516Y-74113484D01*
X131050699Y-74169734D01*
X131124933Y-74184500D01*
X131875066Y-74184499D01*
X131875069Y-74184498D01*
X131875073Y-74184498D01*
X131943740Y-74170840D01*
X131949301Y-74169734D01*
X131979997Y-74149222D01*
X132047747Y-74128007D01*
X132116214Y-74146788D01*
X132119990Y-74149214D01*
X132150699Y-74169734D01*
X132224933Y-74184500D01*
X132975066Y-74184499D01*
X132975069Y-74184498D01*
X132975073Y-74184498D01*
X133043740Y-74170840D01*
X133049301Y-74169734D01*
X133133484Y-74113484D01*
X133189734Y-74029301D01*
X133204500Y-73955067D01*
X133204499Y-73204934D01*
X133204498Y-73204931D01*
X133204498Y-73204926D01*
X133189734Y-73130699D01*
X133165520Y-73094461D01*
X133133484Y-73046516D01*
X133131925Y-73045474D01*
X133049302Y-72990266D01*
X132975069Y-72975500D01*
X132975067Y-72975500D01*
X132513674Y-72975500D01*
X132445553Y-72955498D01*
X132424579Y-72938595D01*
X130667059Y-71181076D01*
X130659633Y-71172973D01*
X130648549Y-71159764D01*
X130635066Y-71143695D01*
X130601966Y-71124584D01*
X130592700Y-71118681D01*
X130561397Y-71096762D01*
X130556367Y-71094416D01*
X130539664Y-71087498D01*
X130524074Y-71081824D01*
X130524990Y-71079306D01*
X130475855Y-71054951D01*
X130449086Y-71019601D01*
X130443826Y-71009277D01*
X130353223Y-70918674D01*
X130353222Y-70918673D01*
X130353223Y-70918673D01*
X130239053Y-70860501D01*
X130174336Y-70850251D01*
X130144334Y-70845500D01*
X129055666Y-70845500D01*
X129029766Y-70849602D01*
X128960946Y-70860501D01*
X128846776Y-70918673D01*
X128756173Y-71009276D01*
X128698001Y-71123446D01*
X128689491Y-71177180D01*
X128684002Y-71211843D01*
X128683000Y-71218167D01*
X128683000Y-71581832D01*
X128698001Y-71676553D01*
X128756173Y-71790723D01*
X128846776Y-71881326D01*
X128873943Y-71895168D01*
X128960945Y-71939498D01*
X129055666Y-71954500D01*
X129055668Y-71954500D01*
X130144332Y-71954500D01*
X130144334Y-71954500D01*
X130239055Y-71939498D01*
X130326057Y-71895167D01*
X130395833Y-71882063D01*
X130461618Y-71908762D01*
X130472355Y-71918339D01*
X131314421Y-72760405D01*
X131348447Y-72822717D01*
X131343382Y-72893532D01*
X131300835Y-72950368D01*
X131234315Y-72975179D01*
X131225327Y-72975500D01*
X131124937Y-72975500D01*
X131124924Y-72975502D01*
X131044776Y-72991443D01*
X130974062Y-72985114D01*
X130937685Y-72963089D01*
X130900122Y-72930541D01*
X130893543Y-72924415D01*
X130883848Y-72914720D01*
X130883847Y-72914719D01*
X130883845Y-72914717D01*
X130872868Y-72906500D01*
X130865864Y-72900856D01*
X130827743Y-72867824D01*
X130827740Y-72867822D01*
X130823286Y-72865788D01*
X130800128Y-72852048D01*
X130796206Y-72849112D01*
X130796202Y-72849110D01*
X130748925Y-72831476D01*
X130740619Y-72828035D01*
X130694738Y-72807082D01*
X130694724Y-72807078D01*
X130689876Y-72806381D01*
X130663801Y-72799726D01*
X130659202Y-72798011D01*
X130608867Y-72794410D01*
X130599937Y-72793450D01*
X130586369Y-72791500D01*
X130586368Y-72791500D01*
X130572662Y-72791500D01*
X130563674Y-72791179D01*
X130561579Y-72791029D01*
X130513352Y-72787579D01*
X130513351Y-72787580D01*
X130508566Y-72788621D01*
X130481784Y-72791500D01*
X130330142Y-72791500D01*
X130272938Y-72777766D01*
X130239056Y-72760501D01*
X130164672Y-72748721D01*
X130144334Y-72745500D01*
X129055666Y-72745500D01*
X129029766Y-72749602D01*
X128960946Y-72760501D01*
X128846776Y-72818673D01*
X128756173Y-72909276D01*
X128698001Y-73023446D01*
X128683000Y-73118167D01*
X128683000Y-73481832D01*
X128698001Y-73576553D01*
X128756173Y-73690723D01*
X128846776Y-73781326D01*
X128903861Y-73810412D01*
X128960945Y-73839498D01*
X128979828Y-73842488D01*
X128985209Y-73843341D01*
X129049362Y-73873752D01*
X129086890Y-73934020D01*
X129091500Y-73967790D01*
X129091500Y-74400359D01*
X129090671Y-74411796D01*
X129090829Y-74411808D01*
X129090500Y-74416348D01*
X129090500Y-74683640D01*
X129090830Y-74688195D01*
X129090670Y-74688206D01*
X129091500Y-74699640D01*
X129091500Y-87577338D01*
X129091179Y-87586327D01*
X129087579Y-87636648D01*
X129088620Y-87641429D01*
X129091500Y-87668215D01*
X129091500Y-90331783D01*
X129088622Y-90358562D01*
X129087580Y-90363351D01*
X129091179Y-90413672D01*
X129091500Y-90422661D01*
X129091500Y-90436369D01*
X129093450Y-90449937D01*
X129094410Y-90458867D01*
X129095471Y-90473696D01*
X129097364Y-90500163D01*
X129098011Y-90509199D01*
X129098011Y-90509204D01*
X129099726Y-90513801D01*
X129106381Y-90539876D01*
X129107078Y-90544724D01*
X129107082Y-90544738D01*
X129128035Y-90590619D01*
X129131476Y-90598925D01*
X129149110Y-90646202D01*
X129149112Y-90646206D01*
X129152048Y-90650128D01*
X129165788Y-90673286D01*
X129167822Y-90677740D01*
X129167824Y-90677743D01*
X129200856Y-90715864D01*
X129206500Y-90722868D01*
X129214717Y-90733845D01*
X129214719Y-90733847D01*
X129214720Y-90733848D01*
X129224421Y-90743549D01*
X129230538Y-90750119D01*
X129242142Y-90763511D01*
X129263580Y-90788251D01*
X129267691Y-90790893D01*
X129288671Y-90807799D01*
X129654595Y-91173723D01*
X129688621Y-91236035D01*
X129691500Y-91262818D01*
X129691500Y-92018182D01*
X129671498Y-92086303D01*
X129617842Y-92132796D01*
X129547568Y-92142900D01*
X129482988Y-92113406D01*
X129476405Y-92107277D01*
X129057799Y-91688671D01*
X129040893Y-91667691D01*
X129038251Y-91663580D01*
X129000121Y-91630540D01*
X128993549Y-91624421D01*
X128983848Y-91614720D01*
X128983847Y-91614719D01*
X128983845Y-91614717D01*
X128972868Y-91606500D01*
X128965864Y-91600856D01*
X128927743Y-91567824D01*
X128927740Y-91567822D01*
X128923286Y-91565788D01*
X128900128Y-91552048D01*
X128896206Y-91549112D01*
X128896202Y-91549110D01*
X128848925Y-91531476D01*
X128840619Y-91528035D01*
X128794738Y-91507082D01*
X128794724Y-91507078D01*
X128789876Y-91506381D01*
X128763801Y-91499726D01*
X128759202Y-91498011D01*
X128708867Y-91494410D01*
X128699937Y-91493450D01*
X128686369Y-91491500D01*
X128686368Y-91491500D01*
X128672662Y-91491500D01*
X128663674Y-91491179D01*
X128661579Y-91491029D01*
X128613352Y-91487579D01*
X128613351Y-91487580D01*
X128608566Y-91488621D01*
X128581784Y-91491500D01*
X128274500Y-91491500D01*
X128206379Y-91471498D01*
X128159886Y-91417842D01*
X128148500Y-91365500D01*
X128148500Y-91045988D01*
X128158706Y-91003478D01*
X128156803Y-91002860D01*
X128159866Y-90993430D01*
X128159868Y-90993427D01*
X128174500Y-90901045D01*
X128174499Y-90498956D01*
X128159868Y-90406573D01*
X128128191Y-90344404D01*
X128103135Y-90295228D01*
X128014773Y-90206866D01*
X128014770Y-90206864D01*
X127903429Y-90150133D01*
X127903430Y-90150133D01*
X127903428Y-90150132D01*
X127903427Y-90150132D01*
X127811045Y-90135500D01*
X127811041Y-90135500D01*
X127468957Y-90135500D01*
X127376574Y-90150131D01*
X127265228Y-90206864D01*
X127176866Y-90295226D01*
X127171034Y-90303254D01*
X127168242Y-90301225D01*
X127131557Y-90340044D01*
X127062636Y-90357089D01*
X127012734Y-90344404D01*
X126902550Y-90290539D01*
X126902546Y-90290538D01*
X126884520Y-90287911D01*
X126867193Y-90284124D01*
X126773116Y-90256501D01*
X126773113Y-90256500D01*
X126773111Y-90256500D01*
X126626889Y-90256500D01*
X126626887Y-90256500D01*
X126626883Y-90256501D01*
X126532808Y-90284124D01*
X126515479Y-90287911D01*
X126497451Y-90290538D01*
X126391160Y-90342500D01*
X126391158Y-90342501D01*
X126307502Y-90426157D01*
X126297544Y-90446527D01*
X126279574Y-90473696D01*
X126267825Y-90487254D01*
X126207081Y-90620266D01*
X126207079Y-90620272D01*
X126191500Y-90728625D01*
X126191500Y-91427760D01*
X126171498Y-91495881D01*
X126117842Y-91542374D01*
X126047568Y-91552478D01*
X125986259Y-91524478D01*
X125986243Y-91524501D01*
X125986130Y-91524419D01*
X125982988Y-91522984D01*
X125978840Y-91519122D01*
X125978223Y-91518673D01*
X125864053Y-91460501D01*
X125799336Y-91450251D01*
X125769334Y-91445500D01*
X124680666Y-91445500D01*
X124654766Y-91449602D01*
X124585946Y-91460501D01*
X124471776Y-91518673D01*
X124381173Y-91609276D01*
X124323001Y-91723446D01*
X124311277Y-91797474D01*
X124308000Y-91818166D01*
X124308000Y-92181834D01*
X122461098Y-92181834D01*
X122462420Y-92163351D01*
X122461377Y-92158560D01*
X122458500Y-92131783D01*
X122458500Y-74412817D01*
X122478502Y-74344696D01*
X122495405Y-74323722D01*
X122973722Y-73845405D01*
X123036034Y-73811379D01*
X123062817Y-73808500D01*
X126594858Y-73808500D01*
X126652062Y-73822234D01*
X126685943Y-73839498D01*
X126723241Y-73845405D01*
X126780666Y-73854500D01*
X126780668Y-73854500D01*
X127869332Y-73854500D01*
X127869334Y-73854500D01*
X127964055Y-73839498D01*
X128078223Y-73781326D01*
X128168826Y-73690723D01*
X128226998Y-73576555D01*
X128242000Y-73481834D01*
X128242000Y-73118166D01*
X128226998Y-73023445D01*
X128196496Y-72963581D01*
X128168826Y-72909276D01*
X128078223Y-72818673D01*
X127964053Y-72760501D01*
X127899336Y-72750251D01*
X127869334Y-72745500D01*
X126780666Y-72745500D01*
X126768632Y-72747406D01*
X126685943Y-72760501D01*
X126652062Y-72777766D01*
X126594858Y-72791500D01*
X126164348Y-72791500D01*
X126109011Y-72778697D01*
X126102550Y-72775539D01*
X126056614Y-72768846D01*
X126033647Y-72765500D01*
X126033646Y-72765500D01*
X125766354Y-72765500D01*
X125766352Y-72765500D01*
X125720418Y-72772192D01*
X125697450Y-72775539D01*
X125690988Y-72778697D01*
X125635652Y-72791500D01*
X122868216Y-72791500D01*
X122841436Y-72788621D01*
X122836651Y-72787580D01*
X122836647Y-72787580D01*
X122786327Y-72791179D01*
X122777338Y-72791500D01*
X122763631Y-72791500D01*
X122750064Y-72793450D01*
X122741134Y-72794410D01*
X122690798Y-72798011D01*
X122690791Y-72798012D01*
X122686194Y-72799727D01*
X122660124Y-72806381D01*
X122655275Y-72807078D01*
X122655264Y-72807081D01*
X122609368Y-72828040D01*
X122601067Y-72831478D01*
X122553794Y-72849111D01*
X122549870Y-72852049D01*
X122526720Y-72865785D01*
X122522257Y-72867823D01*
X122484124Y-72900864D01*
X122477135Y-72906497D01*
X122466152Y-72914720D01*
X122456457Y-72924415D01*
X122449879Y-72930539D01*
X122411750Y-72963578D01*
X122411747Y-72963581D01*
X122409098Y-72967704D01*
X122392201Y-72988670D01*
X121638667Y-73742203D01*
X121617707Y-73759096D01*
X121613581Y-73761747D01*
X121613576Y-73761752D01*
X121580542Y-73799874D01*
X121574426Y-73806444D01*
X121564723Y-73816149D01*
X121564715Y-73816158D01*
X121556505Y-73827125D01*
X121550865Y-73834124D01*
X121517822Y-73872258D01*
X121517820Y-73872261D01*
X121515783Y-73876722D01*
X121502053Y-73899864D01*
X121499114Y-73903791D01*
X121499109Y-73903800D01*
X121481475Y-73951073D01*
X121478037Y-73959373D01*
X121457080Y-74005266D01*
X121457079Y-74005271D01*
X121456381Y-74010123D01*
X121449726Y-74036197D01*
X121448012Y-74040793D01*
X121448011Y-74040797D01*
X121444410Y-74091133D01*
X121443450Y-74100063D01*
X121441500Y-74113630D01*
X121441500Y-74127338D01*
X121441179Y-74136327D01*
X121437579Y-74186648D01*
X121438620Y-74191429D01*
X121441500Y-74218215D01*
X121441500Y-75719500D01*
X121421498Y-75787621D01*
X121367842Y-75834114D01*
X121315500Y-75845500D01*
X117074936Y-75845500D01*
X117074924Y-75845502D01*
X117035079Y-75853427D01*
X116964365Y-75847098D01*
X116908298Y-75803542D01*
X116884680Y-75736589D01*
X116884500Y-75729848D01*
X116884500Y-75652601D01*
X116884499Y-75652593D01*
X116882190Y-75630627D01*
X116869608Y-75510908D01*
X116810853Y-75330080D01*
X116715786Y-75165420D01*
X116588562Y-75024123D01*
X116536207Y-74986085D01*
X116434741Y-74912365D01*
X116261045Y-74835031D01*
X116075067Y-74795500D01*
X115884933Y-74795500D01*
X115698954Y-74835031D01*
X115525258Y-74912365D01*
X115371438Y-75024122D01*
X115244215Y-75165418D01*
X115244214Y-75165420D01*
X115235618Y-75180309D01*
X115184234Y-75229301D01*
X115114520Y-75242735D01*
X115048609Y-75216347D01*
X115007429Y-75158514D01*
X115000500Y-75117306D01*
X115000500Y-73248052D01*
X115020502Y-73179931D01*
X115074158Y-73133438D01*
X115144432Y-73123334D01*
X115209012Y-73152828D01*
X115235618Y-73185051D01*
X115264214Y-73234580D01*
X115391438Y-73375877D01*
X115545259Y-73487635D01*
X115718955Y-73564969D01*
X115904933Y-73604500D01*
X116095067Y-73604500D01*
X116281045Y-73564969D01*
X116454741Y-73487635D01*
X116608562Y-73375877D01*
X116735786Y-73234580D01*
X116830853Y-73069920D01*
X116889608Y-72889092D01*
X116904500Y-72747401D01*
X116904500Y-72650000D01*
X119340715Y-72650000D01*
X119359771Y-72794752D01*
X119415644Y-72929641D01*
X119415649Y-72929649D01*
X119504525Y-73045474D01*
X119620350Y-73134350D01*
X119620357Y-73134355D01*
X119755246Y-73190228D01*
X119900000Y-73209285D01*
X120044754Y-73190228D01*
X120179643Y-73134355D01*
X120234242Y-73092459D01*
X120300460Y-73066859D01*
X120366281Y-73079223D01*
X120397450Y-73094461D01*
X120466354Y-73104500D01*
X120466360Y-73104500D01*
X120733640Y-73104500D01*
X120733646Y-73104500D01*
X120802550Y-73094461D01*
X120908840Y-73042499D01*
X120992499Y-72958840D01*
X121044461Y-72852550D01*
X121054500Y-72783646D01*
X121054500Y-72456354D01*
X121044461Y-72387450D01*
X120992499Y-72281160D01*
X120992498Y-72281158D01*
X120908841Y-72197501D01*
X120908839Y-72197500D01*
X120802552Y-72145540D01*
X120802550Y-72145539D01*
X120733647Y-72135500D01*
X120733646Y-72135500D01*
X120466354Y-72135500D01*
X120466352Y-72135500D01*
X120397449Y-72145539D01*
X120318520Y-72184125D01*
X120248536Y-72196073D01*
X120186480Y-72170891D01*
X120179644Y-72165646D01*
X120179643Y-72165645D01*
X120044754Y-72109772D01*
X120044752Y-72109771D01*
X119900000Y-72090715D01*
X119755247Y-72109771D01*
X119693134Y-72135500D01*
X119620358Y-72165645D01*
X119620357Y-72165646D01*
X119620356Y-72165646D01*
X119504526Y-72254526D01*
X119415646Y-72370356D01*
X119415645Y-72370358D01*
X119387708Y-72437802D01*
X119359771Y-72505247D01*
X119340715Y-72649999D01*
X119340715Y-72650000D01*
X116904500Y-72650000D01*
X116904500Y-71452599D01*
X116898972Y-71400000D01*
X124090726Y-71400000D01*
X124109763Y-71568954D01*
X124115737Y-71586026D01*
X124165918Y-71729437D01*
X124165919Y-71729439D01*
X124256375Y-71873399D01*
X124256377Y-71873402D01*
X124376597Y-71993622D01*
X124376600Y-71993624D01*
X124520563Y-72084082D01*
X124681046Y-72140237D01*
X124850000Y-72159274D01*
X125018954Y-72140237D01*
X125179437Y-72084082D01*
X125323400Y-71993624D01*
X125443624Y-71873400D01*
X125443625Y-71873399D01*
X125496993Y-71788464D01*
X125550171Y-71741426D01*
X125603680Y-71729500D01*
X126372766Y-71729500D01*
X126440887Y-71749502D01*
X126472674Y-71784637D01*
X126475343Y-71782698D01*
X126481175Y-71790725D01*
X126571776Y-71881326D01*
X126598943Y-71895168D01*
X126685945Y-71939498D01*
X126780666Y-71954500D01*
X126780668Y-71954500D01*
X127869332Y-71954500D01*
X127869334Y-71954500D01*
X127964055Y-71939498D01*
X128078223Y-71881326D01*
X128168826Y-71790723D01*
X128226998Y-71676555D01*
X128242000Y-71581834D01*
X128242000Y-71218166D01*
X128226998Y-71123445D01*
X128174518Y-71020448D01*
X128168826Y-71009276D01*
X128078223Y-70918673D01*
X127964053Y-70860501D01*
X127899336Y-70850251D01*
X127869334Y-70845500D01*
X126780666Y-70845500D01*
X126754766Y-70849602D01*
X126685946Y-70860501D01*
X126571776Y-70918673D01*
X126481175Y-71009274D01*
X126475343Y-71017302D01*
X126472352Y-71015128D01*
X126436286Y-71053317D01*
X126372766Y-71070500D01*
X125603680Y-71070500D01*
X125535559Y-71050498D01*
X125496993Y-71011536D01*
X125443624Y-70926599D01*
X125323402Y-70806377D01*
X125323399Y-70806375D01*
X125179439Y-70715919D01*
X125179437Y-70715918D01*
X125169283Y-70712365D01*
X125018954Y-70659763D01*
X124850000Y-70640726D01*
X124681046Y-70659763D01*
X124681043Y-70659763D01*
X124681043Y-70659764D01*
X124520562Y-70715918D01*
X124520560Y-70715919D01*
X124376600Y-70806375D01*
X124376597Y-70806377D01*
X124256377Y-70926597D01*
X124256375Y-70926600D01*
X124165919Y-71070560D01*
X124165918Y-71070562D01*
X124109764Y-71231043D01*
X124109763Y-71231046D01*
X124090726Y-71400000D01*
X116898972Y-71400000D01*
X116889608Y-71310908D01*
X116830853Y-71130080D01*
X116735786Y-70965420D01*
X116608562Y-70824123D01*
X116584135Y-70806376D01*
X116454741Y-70712365D01*
X116281045Y-70635031D01*
X116095067Y-70595500D01*
X115904933Y-70595500D01*
X115718954Y-70635031D01*
X115545258Y-70712365D01*
X115391438Y-70824122D01*
X115264215Y-70965418D01*
X115264214Y-70965419D01*
X115235619Y-71014948D01*
X115184235Y-71063941D01*
X115114522Y-71077376D01*
X115048611Y-71050989D01*
X115007430Y-70993156D01*
X115000500Y-70951947D01*
X115000500Y-70126500D01*
X115020502Y-70058379D01*
X115074158Y-70011886D01*
X115126500Y-70000500D01*
X131085295Y-70000500D01*
X131153416Y-70020502D01*
G37*
%TD.AperFunction*%
%TA.AperFunction,Conductor*%
G36*
X105701621Y-70020502D02*
G01*
X105748114Y-70074158D01*
X105759500Y-70126500D01*
X105759500Y-70951947D01*
X105739498Y-71020068D01*
X105685842Y-71066561D01*
X105615568Y-71076665D01*
X105550988Y-71047171D01*
X105524381Y-71014948D01*
X105518925Y-71005498D01*
X105495786Y-70965420D01*
X105368562Y-70824123D01*
X105344135Y-70806376D01*
X105214741Y-70712365D01*
X105041045Y-70635031D01*
X104855067Y-70595500D01*
X104664933Y-70595500D01*
X104478954Y-70635031D01*
X104305258Y-70712365D01*
X104151438Y-70824122D01*
X104024215Y-70965418D01*
X104024214Y-70965420D01*
X104001075Y-71005498D01*
X103929148Y-71130077D01*
X103870391Y-71310908D01*
X103855500Y-71452593D01*
X103855500Y-72747406D01*
X103870391Y-72889091D01*
X103899634Y-72979090D01*
X103928152Y-73066859D01*
X103929148Y-73069922D01*
X103941885Y-73091982D01*
X104024214Y-73234580D01*
X104151438Y-73375877D01*
X104305259Y-73487635D01*
X104478955Y-73564969D01*
X104664933Y-73604500D01*
X104855067Y-73604500D01*
X105041045Y-73564969D01*
X105214741Y-73487635D01*
X105368562Y-73375877D01*
X105495786Y-73234580D01*
X105524381Y-73185051D01*
X105575764Y-73136059D01*
X105645477Y-73122623D01*
X105711388Y-73149009D01*
X105752570Y-73206842D01*
X105759500Y-73248052D01*
X105759500Y-75117306D01*
X105739498Y-75185427D01*
X105685842Y-75231920D01*
X105615568Y-75242024D01*
X105550988Y-75212530D01*
X105524382Y-75180309D01*
X105515786Y-75165420D01*
X105388562Y-75024123D01*
X105336207Y-74986085D01*
X105234741Y-74912365D01*
X105061045Y-74835031D01*
X104875067Y-74795500D01*
X104684933Y-74795500D01*
X104498954Y-74835031D01*
X104325258Y-74912365D01*
X104171438Y-75024122D01*
X104044215Y-75165418D01*
X104044214Y-75165420D01*
X104035618Y-75180309D01*
X103964619Y-75303281D01*
X103913236Y-75352274D01*
X103843522Y-75365709D01*
X103777611Y-75339322D01*
X103736430Y-75281490D01*
X103729500Y-75240280D01*
X103729500Y-74219882D01*
X103729980Y-74208899D01*
X103730350Y-74204668D01*
X103733310Y-74170840D01*
X103723414Y-74133909D01*
X103721039Y-74123193D01*
X103714406Y-74085569D01*
X103712494Y-74080318D01*
X103705590Y-74063649D01*
X103703236Y-74058600D01*
X103681310Y-74027285D01*
X103675406Y-74018018D01*
X103672033Y-74012176D01*
X103656305Y-73984934D01*
X103642677Y-73973499D01*
X103627031Y-73960370D01*
X103618927Y-73952943D01*
X102766405Y-73100421D01*
X102732379Y-73038109D01*
X102729500Y-73011326D01*
X102729500Y-72653679D01*
X102749502Y-72585558D01*
X102788462Y-72546993D01*
X102873400Y-72493624D01*
X102993624Y-72373400D01*
X103084082Y-72229437D01*
X103140237Y-72068954D01*
X103159274Y-71900000D01*
X103140237Y-71731046D01*
X103084082Y-71570563D01*
X102993624Y-71426600D01*
X102993622Y-71426597D01*
X102873402Y-71306377D01*
X102873399Y-71306375D01*
X102729439Y-71215919D01*
X102729437Y-71215918D01*
X102695180Y-71203931D01*
X102568954Y-71159763D01*
X102400000Y-71140726D01*
X102231046Y-71159763D01*
X102231043Y-71159763D01*
X102231043Y-71159764D01*
X102070562Y-71215918D01*
X102070560Y-71215919D01*
X101926600Y-71306375D01*
X101926597Y-71306377D01*
X101806377Y-71426597D01*
X101806375Y-71426600D01*
X101715919Y-71570560D01*
X101715918Y-71570562D01*
X101660326Y-71729437D01*
X101659763Y-71731046D01*
X101640726Y-71900000D01*
X101659763Y-72068954D01*
X101693597Y-72165646D01*
X101715918Y-72229437D01*
X101715919Y-72229439D01*
X101806375Y-72373399D01*
X101806377Y-72373402D01*
X101926597Y-72493622D01*
X101926599Y-72493623D01*
X101926600Y-72493624D01*
X102011536Y-72546993D01*
X102058573Y-72600169D01*
X102070500Y-72653679D01*
X102070500Y-73180117D01*
X102070020Y-73191099D01*
X102066690Y-73229157D01*
X102066690Y-73229164D01*
X102076579Y-73266071D01*
X102078957Y-73276798D01*
X102085593Y-73314430D01*
X102087498Y-73319664D01*
X102094416Y-73336367D01*
X102096762Y-73341397D01*
X102096765Y-73341401D01*
X102107262Y-73356393D01*
X102118681Y-73372700D01*
X102124584Y-73381966D01*
X102143695Y-73415066D01*
X102160691Y-73429327D01*
X102172973Y-73439633D01*
X102181077Y-73447060D01*
X103033595Y-74299578D01*
X103067621Y-74361890D01*
X103070500Y-74388673D01*
X103070500Y-74470825D01*
X103050498Y-74538946D01*
X102996842Y-74585439D01*
X102926568Y-74595543D01*
X102877464Y-74577512D01*
X102779439Y-74515919D01*
X102779437Y-74515918D01*
X102618954Y-74459763D01*
X102450000Y-74440726D01*
X102281046Y-74459763D01*
X102281043Y-74459763D01*
X102281043Y-74459764D01*
X102120562Y-74515918D01*
X102120560Y-74515919D01*
X101976600Y-74606375D01*
X101976597Y-74606377D01*
X101856377Y-74726597D01*
X101856375Y-74726600D01*
X101765919Y-74870560D01*
X101765918Y-74870562D01*
X101765918Y-74870563D01*
X101709763Y-75031046D01*
X101690726Y-75200000D01*
X101709763Y-75368954D01*
X101759844Y-75512079D01*
X101765918Y-75529437D01*
X101765919Y-75529439D01*
X101856375Y-75673399D01*
X101856377Y-75673402D01*
X101976597Y-75793622D01*
X101976599Y-75793623D01*
X101976600Y-75793624D01*
X102061536Y-75846993D01*
X102108573Y-75900169D01*
X102120500Y-75953679D01*
X102120500Y-76961326D01*
X102100498Y-77029447D01*
X102083595Y-77050421D01*
X100981079Y-78152936D01*
X100972980Y-78160359D01*
X100943692Y-78184936D01*
X100924584Y-78218031D01*
X100918683Y-78227295D01*
X100896766Y-78258597D01*
X100894410Y-78263649D01*
X100887490Y-78280358D01*
X100885593Y-78285569D01*
X100878957Y-78323203D01*
X100876579Y-78333930D01*
X100866690Y-78370836D01*
X100866690Y-78370840D01*
X100870020Y-78408898D01*
X100870500Y-78419881D01*
X100870500Y-82337080D01*
X100870020Y-82348062D01*
X100866690Y-82386120D01*
X100866690Y-82386127D01*
X100876579Y-82423034D01*
X100878957Y-82433761D01*
X100885593Y-82471393D01*
X100887498Y-82476627D01*
X100894416Y-82493330D01*
X100896762Y-82498360D01*
X100918681Y-82529663D01*
X100924584Y-82538929D01*
X100943695Y-82572029D01*
X100972973Y-82596596D01*
X100981077Y-82604023D01*
X101970981Y-83593928D01*
X101978408Y-83602032D01*
X102002215Y-83630405D01*
X102002971Y-83631305D01*
X102036055Y-83650406D01*
X102045322Y-83656310D01*
X102076637Y-83678236D01*
X102081686Y-83680590D01*
X102098355Y-83687494D01*
X102103606Y-83689406D01*
X102130119Y-83694080D01*
X102141234Y-83696039D01*
X102151963Y-83698418D01*
X102188877Y-83708310D01*
X102224066Y-83705231D01*
X102226953Y-83704979D01*
X102237932Y-83704500D01*
X102428790Y-83704500D01*
X102496911Y-83724502D01*
X102517885Y-83741405D01*
X104109371Y-85332892D01*
X104143397Y-85395204D01*
X104138332Y-85466020D01*
X104096980Y-85521949D01*
X104054528Y-85554523D01*
X103965646Y-85670356D01*
X103965645Y-85670358D01*
X103953665Y-85699281D01*
X103909771Y-85805247D01*
X103890715Y-85949999D01*
X103890715Y-85950000D01*
X103909771Y-86094752D01*
X103909772Y-86094754D01*
X103951827Y-86196284D01*
X103959416Y-86266871D01*
X103927637Y-86330358D01*
X103866579Y-86366586D01*
X103835418Y-86370500D01*
X102588675Y-86370500D01*
X102520554Y-86350498D01*
X102499580Y-86333595D01*
X102341404Y-86175419D01*
X102307378Y-86113107D01*
X102304499Y-86086324D01*
X102304499Y-85224936D01*
X102304498Y-85224927D01*
X102289734Y-85150699D01*
X102256092Y-85100351D01*
X102233484Y-85066516D01*
X102233483Y-85066515D01*
X102149302Y-85010266D01*
X102068995Y-84994292D01*
X102069480Y-84991848D01*
X102013797Y-84969337D01*
X101972811Y-84911366D01*
X101969673Y-84840439D01*
X101978820Y-84815226D01*
X102009461Y-84752550D01*
X102019500Y-84683646D01*
X102019500Y-84416354D01*
X102009461Y-84347450D01*
X101957499Y-84241160D01*
X101957498Y-84241158D01*
X101873841Y-84157501D01*
X101873839Y-84157500D01*
X101767552Y-84105540D01*
X101767550Y-84105539D01*
X101698647Y-84095500D01*
X101698646Y-84095500D01*
X101371354Y-84095500D01*
X101371352Y-84095500D01*
X101302449Y-84105539D01*
X101302447Y-84105540D01*
X101196160Y-84157500D01*
X101196158Y-84157501D01*
X101112501Y-84241158D01*
X101112500Y-84241160D01*
X101060540Y-84347447D01*
X101060539Y-84347449D01*
X101050500Y-84416352D01*
X101050500Y-84683647D01*
X101060539Y-84752550D01*
X101093766Y-84820518D01*
X101105714Y-84890502D01*
X101077929Y-84955836D01*
X101019233Y-84995777D01*
X101005150Y-84999435D01*
X100950698Y-85010266D01*
X100866515Y-85066516D01*
X100810266Y-85150697D01*
X100795500Y-85224930D01*
X100795500Y-86425063D01*
X100795501Y-86425073D01*
X100810265Y-86499300D01*
X100866516Y-86583484D01*
X100950697Y-86639733D01*
X100950699Y-86639734D01*
X101024933Y-86654500D01*
X101836325Y-86654499D01*
X101904446Y-86674501D01*
X101925420Y-86691404D01*
X102152944Y-86918928D01*
X102160367Y-86927028D01*
X102166018Y-86933762D01*
X102194486Y-86998801D01*
X102195500Y-87014757D01*
X102195500Y-88175063D01*
X102195501Y-88175073D01*
X102210266Y-88249301D01*
X102210265Y-88249301D01*
X102224263Y-88270248D01*
X102245480Y-88338000D01*
X102245500Y-88340253D01*
X102245500Y-88395970D01*
X102225498Y-88464091D01*
X102208595Y-88485065D01*
X102152501Y-88541158D01*
X102152500Y-88541160D01*
X102100540Y-88647447D01*
X102100539Y-88647449D01*
X102090500Y-88716352D01*
X102090500Y-88983647D01*
X102100539Y-89052550D01*
X102100540Y-89052552D01*
X102152500Y-89158839D01*
X102152501Y-89158841D01*
X102236158Y-89242498D01*
X102236160Y-89242499D01*
X102342450Y-89294461D01*
X102411354Y-89304500D01*
X102411360Y-89304500D01*
X102738640Y-89304500D01*
X102738646Y-89304500D01*
X102807550Y-89294461D01*
X102913840Y-89242499D01*
X102997499Y-89158840D01*
X103049461Y-89052550D01*
X103059500Y-88983646D01*
X103059500Y-88716354D01*
X103049461Y-88647450D01*
X103047100Y-88642621D01*
X103019341Y-88585838D01*
X103007392Y-88515854D01*
X103035176Y-88450520D01*
X103093872Y-88410578D01*
X103132538Y-88404499D01*
X103475064Y-88404499D01*
X103475066Y-88404499D01*
X103475069Y-88404498D01*
X103475072Y-88404498D01*
X103525791Y-88394410D01*
X103549301Y-88389734D01*
X103633484Y-88333484D01*
X103647786Y-88312078D01*
X103702262Y-88266552D01*
X103772705Y-88257703D01*
X103836749Y-88288344D01*
X103841646Y-88292986D01*
X103887575Y-88338915D01*
X103921601Y-88401227D01*
X103916536Y-88472042D01*
X103897913Y-88505399D01*
X103884842Y-88522192D01*
X103881030Y-88529237D01*
X103877525Y-88536406D01*
X103862349Y-88587379D01*
X103860762Y-88592333D01*
X103843499Y-88642621D01*
X103842184Y-88650497D01*
X103841194Y-88658439D01*
X103843392Y-88711551D01*
X103843500Y-88716759D01*
X103843500Y-89122970D01*
X103823498Y-89191091D01*
X103806595Y-89212065D01*
X103802501Y-89216158D01*
X103802500Y-89216160D01*
X103750540Y-89322447D01*
X103750539Y-89322449D01*
X103740500Y-89391352D01*
X103740500Y-89663205D01*
X103739437Y-89663205D01*
X103725445Y-89727773D01*
X103703905Y-89756572D01*
X103651880Y-89808596D01*
X103589571Y-89842620D01*
X103562787Y-89845500D01*
X103536352Y-89845500D01*
X103467449Y-89855539D01*
X103467447Y-89855540D01*
X103361160Y-89907500D01*
X103361158Y-89907501D01*
X103277501Y-89991158D01*
X103277500Y-89991160D01*
X103225540Y-90097447D01*
X103225539Y-90097449D01*
X103215500Y-90166352D01*
X103215500Y-90433647D01*
X103218522Y-90454386D01*
X103225015Y-90498956D01*
X103226950Y-90512233D01*
X103223941Y-90512671D01*
X103224716Y-90567642D01*
X103187177Y-90627902D01*
X103176765Y-90635429D01*
X103176910Y-90635618D01*
X103170359Y-90640644D01*
X103170358Y-90640645D01*
X103055700Y-90728625D01*
X103054526Y-90729526D01*
X102965646Y-90845356D01*
X102965645Y-90845358D01*
X102942025Y-90902382D01*
X102909771Y-90980247D01*
X102890715Y-91124999D01*
X102890715Y-91125000D01*
X102909771Y-91269752D01*
X102965644Y-91404641D01*
X102965649Y-91404649D01*
X103054525Y-91520474D01*
X103170254Y-91609276D01*
X103170357Y-91609355D01*
X103305246Y-91665228D01*
X103450000Y-91684285D01*
X103594754Y-91665228D01*
X103729643Y-91609355D01*
X103845474Y-91520474D01*
X103934355Y-91404643D01*
X103990228Y-91269754D01*
X104008976Y-91127339D01*
X104034469Y-91066392D01*
X104040158Y-91059085D01*
X104040159Y-91059079D01*
X104040161Y-91059078D01*
X104043954Y-91052069D01*
X104047470Y-91044876D01*
X104047475Y-91044870D01*
X104062656Y-90993873D01*
X104064221Y-90988989D01*
X104081500Y-90938661D01*
X104081500Y-90938655D01*
X104082819Y-90930749D01*
X104083805Y-90922843D01*
X104081608Y-90869727D01*
X104081500Y-90864519D01*
X104081500Y-90702029D01*
X104101502Y-90633908D01*
X104118403Y-90612935D01*
X104122499Y-90608840D01*
X104128333Y-90596907D01*
X104130803Y-90591855D01*
X104178691Y-90539441D01*
X104181883Y-90538594D01*
X104175281Y-90522148D01*
X104176015Y-90491881D01*
X104176689Y-90487257D01*
X104184500Y-90433646D01*
X104184500Y-90407212D01*
X104204502Y-90339091D01*
X104221399Y-90318122D01*
X104457549Y-90081972D01*
X104477721Y-90065593D01*
X104486956Y-90059560D01*
X104506701Y-90034190D01*
X104517051Y-90022471D01*
X104517114Y-90022409D01*
X104529397Y-90005204D01*
X104532482Y-90001065D01*
X104565158Y-89959085D01*
X104565159Y-89959079D01*
X104568962Y-89952054D01*
X104572475Y-89944869D01*
X104578633Y-89924182D01*
X104610303Y-89871035D01*
X104620520Y-89860819D01*
X104647499Y-89833840D01*
X104699461Y-89727550D01*
X104709500Y-89658646D01*
X104709500Y-89391354D01*
X104699461Y-89322450D01*
X104647499Y-89216160D01*
X104647498Y-89216158D01*
X104643405Y-89212065D01*
X104609379Y-89149753D01*
X104606500Y-89122970D01*
X104606500Y-88916492D01*
X104626502Y-88848371D01*
X104643405Y-88827396D01*
X104852398Y-88618404D01*
X104914710Y-88584379D01*
X104941493Y-88581500D01*
X105394110Y-88581500D01*
X105394111Y-88581500D01*
X105395795Y-88581218D01*
X105416535Y-88579500D01*
X105544500Y-88579500D01*
X105612621Y-88599502D01*
X105659114Y-88653158D01*
X105670500Y-88705500D01*
X105670500Y-88801414D01*
X105668781Y-88822153D01*
X105668500Y-88823836D01*
X105668500Y-89722970D01*
X105648498Y-89791091D01*
X105631595Y-89812065D01*
X105552501Y-89891158D01*
X105552498Y-89891162D01*
X105533836Y-89929338D01*
X105485949Y-89981753D01*
X105420639Y-90000000D01*
X104959998Y-90000000D01*
X104391975Y-90596907D01*
X104363151Y-90613586D01*
X104370000Y-90647194D01*
X104370000Y-90910000D01*
X104630000Y-91190000D01*
X104880000Y-91190000D01*
X105034200Y-91044870D01*
X105333144Y-90763510D01*
X105396458Y-90731389D01*
X105467088Y-90738596D01*
X105522609Y-90782845D01*
X105545394Y-90850086D01*
X105545500Y-90855264D01*
X105545500Y-91143646D01*
X105555539Y-91212550D01*
X105565016Y-91231936D01*
X105571238Y-91244664D01*
X105583185Y-91314648D01*
X105571238Y-91355336D01*
X105555539Y-91387450D01*
X105545500Y-91456352D01*
X105545500Y-91783647D01*
X105555539Y-91852550D01*
X105555539Y-91852552D01*
X105588047Y-91919046D01*
X105600850Y-91974385D01*
X105600850Y-92075614D01*
X105588048Y-92130950D01*
X105555539Y-92197450D01*
X105554301Y-92205947D01*
X105545500Y-92266352D01*
X105545500Y-92533649D01*
X105555921Y-92605176D01*
X105545948Y-92675469D01*
X105531199Y-92700046D01*
X105497162Y-92744403D01*
X105486293Y-92756796D01*
X105431775Y-92811310D01*
X105431768Y-92811320D01*
X105423103Y-92819987D01*
X105423089Y-92820001D01*
X105411686Y-92831403D01*
X105399300Y-92842265D01*
X105342202Y-92886080D01*
X105313717Y-92902526D01*
X105254926Y-92926880D01*
X105223156Y-92935394D01*
X105151952Y-92944771D01*
X105135501Y-92945850D01*
X104576850Y-92945850D01*
X104576822Y-92945848D01*
X104558563Y-92945848D01*
X104558494Y-92945828D01*
X104409618Y-92945832D01*
X104218525Y-92976106D01*
X104034524Y-93035898D01*
X103862146Y-93123735D01*
X103705625Y-93237463D01*
X103705624Y-93237464D01*
X103676190Y-93266900D01*
X103628973Y-93314117D01*
X103505043Y-93438046D01*
X103504678Y-93438439D01*
X103462479Y-93480635D01*
X103348757Y-93637151D01*
X103260915Y-93809535D01*
X103201126Y-93993529D01*
X103190667Y-94059543D01*
X103170984Y-94109827D01*
X103110266Y-94200697D01*
X103095500Y-94274930D01*
X103095500Y-94274933D01*
X103095500Y-94484355D01*
X103095501Y-94674000D01*
X103075499Y-94742120D01*
X103021844Y-94788614D01*
X102969501Y-94800000D01*
X100126500Y-94800000D01*
X100058379Y-94779998D01*
X100011886Y-94726342D01*
X100000500Y-94674000D01*
X100000500Y-79023243D01*
X100000584Y-78975500D01*
X100000500Y-78975072D01*
X100000500Y-78413739D01*
X100020502Y-78345618D01*
X100074158Y-78299125D01*
X100098462Y-78290898D01*
X100166351Y-78275403D01*
X100267967Y-78226467D01*
X100356146Y-78156146D01*
X100426467Y-78067967D01*
X100475403Y-77966351D01*
X100500500Y-77856393D01*
X100500500Y-77823243D01*
X100500584Y-77775498D01*
X100500500Y-77775072D01*
X100500500Y-77743605D01*
X100500162Y-77740605D01*
X100500500Y-77738675D01*
X100500500Y-77736531D01*
X100500876Y-77736531D01*
X100512413Y-77670673D01*
X100560527Y-77618466D01*
X100625370Y-77600500D01*
X100737658Y-77600500D01*
X100737671Y-77600499D01*
X100849915Y-77585071D01*
X100849916Y-77585070D01*
X100849920Y-77585070D01*
X100988720Y-77524780D01*
X100988721Y-77524778D01*
X100988723Y-77524778D01*
X100988725Y-77524776D01*
X101020709Y-77498755D01*
X101106108Y-77429278D01*
X101193377Y-77305647D01*
X101244054Y-77163056D01*
X101254381Y-77012079D01*
X101223592Y-76863915D01*
X101153971Y-76729553D01*
X101153970Y-76729552D01*
X101153938Y-76729490D01*
X101140357Y-76659804D01*
X101162872Y-76598861D01*
X101193377Y-76555647D01*
X101244054Y-76413056D01*
X101254381Y-76262079D01*
X101223592Y-76113915D01*
X101153971Y-75979553D01*
X101153970Y-75979552D01*
X101153938Y-75979490D01*
X101140357Y-75909804D01*
X101162872Y-75848861D01*
X101193377Y-75805647D01*
X101244054Y-75663056D01*
X101254381Y-75512079D01*
X101223592Y-75363915D01*
X101153971Y-75229553D01*
X101153970Y-75229552D01*
X101153938Y-75229490D01*
X101140357Y-75159804D01*
X101162872Y-75098861D01*
X101193377Y-75055647D01*
X101244054Y-74913056D01*
X101254381Y-74762079D01*
X101223592Y-74613915D01*
X101153971Y-74479553D01*
X101153970Y-74479552D01*
X101153938Y-74479490D01*
X101140357Y-74409804D01*
X101162872Y-74348861D01*
X101193377Y-74305647D01*
X101244054Y-74163056D01*
X101254381Y-74012079D01*
X101223592Y-73863915D01*
X101220723Y-73858379D01*
X101202717Y-73823628D01*
X101153971Y-73729553D01*
X101050680Y-73618956D01*
X101026908Y-73604500D01*
X100921381Y-73540327D01*
X100775667Y-73499500D01*
X100775665Y-73499500D01*
X100662342Y-73499500D01*
X100662333Y-73499500D01*
X100642077Y-73502284D01*
X100571867Y-73491742D01*
X100518503Y-73444915D01*
X100498926Y-73376670D01*
X100499716Y-73363350D01*
X100500500Y-73356391D01*
X100500500Y-73243605D01*
X100488515Y-73191099D01*
X100475403Y-73133649D01*
X100426467Y-73032033D01*
X100356146Y-72943854D01*
X100267967Y-72873533D01*
X100267965Y-72873532D01*
X100267964Y-72873531D01*
X100267962Y-72873530D01*
X100166355Y-72824599D01*
X100166351Y-72824597D01*
X100166346Y-72824596D01*
X100166344Y-72824595D01*
X100098460Y-72809100D01*
X100036499Y-72774441D01*
X100003112Y-72711784D01*
X100000500Y-72686260D01*
X100000500Y-71005506D01*
X100000979Y-70994526D01*
X100003525Y-70965420D01*
X100004429Y-70955088D01*
X100004543Y-70953874D01*
X100016902Y-70828391D01*
X100020583Y-70808156D01*
X100037895Y-70743548D01*
X100038971Y-70739780D01*
X100066643Y-70648558D01*
X100073010Y-70631916D01*
X100103665Y-70566176D01*
X100106709Y-70560088D01*
X100148958Y-70481046D01*
X100156848Y-70468201D01*
X100199597Y-70407149D01*
X100205380Y-70399527D01*
X100261131Y-70331594D01*
X100269398Y-70322474D01*
X100322474Y-70269398D01*
X100331594Y-70261131D01*
X100399527Y-70205380D01*
X100407149Y-70199597D01*
X100468201Y-70156848D01*
X100481046Y-70148958D01*
X100560088Y-70106709D01*
X100566176Y-70103665D01*
X100631916Y-70073010D01*
X100648558Y-70066643D01*
X100739780Y-70038971D01*
X100743548Y-70037895D01*
X100808156Y-70020583D01*
X100828391Y-70016902D01*
X100953929Y-70004537D01*
X100955078Y-70004430D01*
X100984529Y-70001853D01*
X100994527Y-70000979D01*
X101005507Y-70000500D01*
X105633500Y-70000500D01*
X105701621Y-70020502D01*
G37*
%TD.AperFunction*%
%TA.AperFunction,Conductor*%
G36*
X121383621Y-78174502D02*
G01*
X121430114Y-78228158D01*
X121441500Y-78280500D01*
X121441500Y-91937180D01*
X121421498Y-92005301D01*
X121404595Y-92026275D01*
X121272275Y-92158595D01*
X121209963Y-92192621D01*
X121183180Y-92195500D01*
X120674936Y-92195500D01*
X120674926Y-92195501D01*
X120600699Y-92210265D01*
X120516515Y-92266516D01*
X120460265Y-92350697D01*
X120455517Y-92362163D01*
X120452728Y-92361008D01*
X120428671Y-92406995D01*
X120366974Y-92442124D01*
X120338003Y-92445500D01*
X117561161Y-92445500D01*
X117493040Y-92425498D01*
X117472066Y-92408595D01*
X116204668Y-91141197D01*
X116187768Y-91120228D01*
X116185196Y-91116225D01*
X116185194Y-91116223D01*
X116147389Y-91083464D01*
X116140808Y-91077336D01*
X116131225Y-91067753D01*
X116131221Y-91067750D01*
X116120338Y-91059603D01*
X116113367Y-91053985D01*
X116075558Y-91021223D01*
X116075556Y-91021222D01*
X116075553Y-91021220D01*
X116071224Y-91019243D01*
X116048071Y-91005504D01*
X116044269Y-91002658D01*
X116044268Y-91002657D01*
X116007515Y-90988949D01*
X115997399Y-90985175D01*
X115989103Y-90981740D01*
X115943596Y-90960958D01*
X115943593Y-90960957D01*
X115938890Y-90960281D01*
X115912798Y-90953621D01*
X115908344Y-90951960D01*
X115858441Y-90948390D01*
X115849520Y-90947431D01*
X115836083Y-90945500D01*
X115836078Y-90945500D01*
X115822517Y-90945500D01*
X115813529Y-90945179D01*
X115787116Y-90943290D01*
X115763641Y-90941611D01*
X115763639Y-90941611D01*
X115758997Y-90942621D01*
X115732216Y-90945500D01*
X115114836Y-90945500D01*
X115046715Y-90925498D01*
X115000222Y-90871842D01*
X114990118Y-90801568D01*
X115012901Y-90745437D01*
X115016323Y-90740725D01*
X115016326Y-90740723D01*
X115074498Y-90626555D01*
X115089500Y-90531834D01*
X115089500Y-90515307D01*
X115109502Y-90447186D01*
X115163158Y-90400693D01*
X115199059Y-90390385D01*
X115200254Y-90390228D01*
X115335143Y-90334355D01*
X115450974Y-90245474D01*
X115539855Y-90129643D01*
X115595728Y-89994754D01*
X115614785Y-89850000D01*
X115614189Y-89845476D01*
X115599159Y-89731310D01*
X115595728Y-89705246D01*
X115539855Y-89570358D01*
X115450974Y-89454526D01*
X115450972Y-89454524D01*
X115450971Y-89454523D01*
X115335149Y-89365649D01*
X115335141Y-89365644D01*
X115200252Y-89309771D01*
X115199213Y-89309635D01*
X115199052Y-89309613D01*
X115198112Y-89309197D01*
X115192276Y-89307634D01*
X115192519Y-89306723D01*
X115134126Y-89280891D01*
X115095035Y-89221626D01*
X115089500Y-89184692D01*
X115089500Y-89168165D01*
X115082697Y-89125208D01*
X115091798Y-89054798D01*
X115137521Y-89000484D01*
X115205349Y-88979513D01*
X115207146Y-88979500D01*
X115811326Y-88979500D01*
X115879447Y-88999502D01*
X115900421Y-89016404D01*
X116228768Y-89344752D01*
X116552950Y-89668934D01*
X116560376Y-89677038D01*
X116584934Y-89706305D01*
X116614708Y-89723495D01*
X116618018Y-89725406D01*
X116627285Y-89731310D01*
X116658600Y-89753236D01*
X116663649Y-89755590D01*
X116680318Y-89762494D01*
X116685569Y-89764406D01*
X116706653Y-89768123D01*
X116723197Y-89771039D01*
X116733926Y-89773418D01*
X116770840Y-89783310D01*
X116806029Y-89780231D01*
X116808916Y-89779979D01*
X116819895Y-89779500D01*
X118491766Y-89779500D01*
X118559887Y-89799502D01*
X118591727Y-89828794D01*
X118604526Y-89845474D01*
X118604528Y-89845476D01*
X118720350Y-89934350D01*
X118720357Y-89934355D01*
X118855246Y-89990228D01*
X119000000Y-90009285D01*
X119144754Y-89990228D01*
X119279643Y-89934355D01*
X119395474Y-89845474D01*
X119484355Y-89729643D01*
X119540228Y-89594754D01*
X119559285Y-89450000D01*
X119540228Y-89305246D01*
X119484355Y-89170358D01*
X119395474Y-89054526D01*
X119395472Y-89054524D01*
X119395471Y-89054523D01*
X119320463Y-88996967D01*
X119278596Y-88939629D01*
X119274374Y-88868758D01*
X119308072Y-88807910D01*
X119849430Y-88266552D01*
X120518942Y-87597040D01*
X120527023Y-87589634D01*
X120556305Y-87565066D01*
X120575411Y-87531972D01*
X120581310Y-87522712D01*
X120603235Y-87491401D01*
X120603236Y-87491395D01*
X120605602Y-87486323D01*
X120612488Y-87469699D01*
X120614403Y-87464437D01*
X120614402Y-87464437D01*
X120614405Y-87464434D01*
X120621044Y-87426774D01*
X120623411Y-87416099D01*
X120633310Y-87379160D01*
X120629979Y-87341084D01*
X120629500Y-87330105D01*
X120629500Y-80369882D01*
X120629980Y-80358899D01*
X120630236Y-80355970D01*
X120633310Y-80320840D01*
X120623414Y-80283909D01*
X120621039Y-80273193D01*
X120614406Y-80235569D01*
X120612494Y-80230318D01*
X120605590Y-80213649D01*
X120603236Y-80208600D01*
X120581310Y-80177285D01*
X120575406Y-80168018D01*
X120564286Y-80148758D01*
X120556305Y-80134934D01*
X120545237Y-80125647D01*
X120527031Y-80110370D01*
X120518927Y-80102943D01*
X119447058Y-79031075D01*
X119439632Y-79022971D01*
X119415068Y-78993696D01*
X119415066Y-78993695D01*
X119405199Y-78987998D01*
X119381966Y-78974584D01*
X119372700Y-78968681D01*
X119341397Y-78946762D01*
X119336367Y-78944416D01*
X119319664Y-78937498D01*
X119314430Y-78935593D01*
X119276798Y-78928957D01*
X119266071Y-78926579D01*
X119229164Y-78916690D01*
X119229158Y-78916690D01*
X119202818Y-78918994D01*
X119191099Y-78920020D01*
X119180118Y-78920500D01*
X118780500Y-78920500D01*
X118712379Y-78900498D01*
X118665886Y-78846842D01*
X118654500Y-78794501D01*
X118654499Y-78574936D01*
X118654498Y-78574926D01*
X118644484Y-78524580D01*
X118644484Y-78475421D01*
X118654500Y-78425067D01*
X118654499Y-78280499D01*
X118674501Y-78212380D01*
X118728156Y-78165887D01*
X118780499Y-78154500D01*
X121315500Y-78154500D01*
X121383621Y-78174502D01*
G37*
%TD.AperFunction*%
%TA.AperFunction,Conductor*%
G36*
X109502306Y-90220504D02*
G01*
X109520357Y-90234355D01*
X109655246Y-90290228D01*
X109693233Y-90295229D01*
X109799999Y-90309285D01*
X109799999Y-90309284D01*
X109800000Y-90309285D01*
X109918054Y-90293743D01*
X109988203Y-90304682D01*
X110041301Y-90351810D01*
X110060500Y-90418665D01*
X110060500Y-90608647D01*
X110070539Y-90677550D01*
X110070540Y-90677552D01*
X110127086Y-90793220D01*
X110124995Y-90794242D01*
X110143624Y-90847844D01*
X110126974Y-90916861D01*
X110075654Y-90965919D01*
X110017774Y-90980000D01*
X109991963Y-90980000D01*
X109936625Y-90967197D01*
X109902550Y-90950539D01*
X109865761Y-90945179D01*
X109833647Y-90940500D01*
X109833646Y-90940500D01*
X109566354Y-90940500D01*
X109566352Y-90940500D01*
X109531322Y-90945604D01*
X109497450Y-90950539D01*
X109497449Y-90950539D01*
X109487767Y-90951950D01*
X109487441Y-90949717D01*
X109429722Y-90950528D01*
X109412486Y-90943290D01*
X109412273Y-90943806D01*
X109404644Y-90940646D01*
X109404643Y-90940645D01*
X109284307Y-90890800D01*
X109269752Y-90884771D01*
X109125000Y-90865715D01*
X108980246Y-90884771D01*
X108980245Y-90884772D01*
X108879332Y-90926572D01*
X108808742Y-90934161D01*
X108745255Y-90902382D01*
X108742019Y-90899258D01*
X108658217Y-90815456D01*
X108653991Y-90812305D01*
X108602392Y-90773829D01*
X108568582Y-90762222D01*
X108510649Y-90721185D01*
X108490325Y-90683964D01*
X108478719Y-90650156D01*
X108464563Y-90631172D01*
X108439878Y-90564607D01*
X108455100Y-90495261D01*
X108505396Y-90445153D01*
X108574799Y-90430192D01*
X108613785Y-90439443D01*
X108714368Y-90481106D01*
X108859122Y-90500163D01*
X109003876Y-90481106D01*
X109138765Y-90425233D01*
X109254596Y-90336352D01*
X109258102Y-90331783D01*
X109325642Y-90243764D01*
X109382980Y-90201897D01*
X109453851Y-90197675D01*
X109502306Y-90220504D01*
G37*
%TD.AperFunction*%
%TA.AperFunction,Conductor*%
G36*
X111390975Y-88999502D02*
G01*
X111437468Y-89053158D01*
X111447572Y-89123432D01*
X111447303Y-89125208D01*
X111440500Y-89168165D01*
X111440500Y-90531832D01*
X111455501Y-90626553D01*
X111513673Y-90740722D01*
X111517099Y-90745437D01*
X111540958Y-90812305D01*
X111524879Y-90881457D01*
X111473966Y-90930938D01*
X111415164Y-90945500D01*
X111090317Y-90945500D01*
X111022196Y-90925498D01*
X110975703Y-90871842D01*
X110965599Y-90801568D01*
X110977120Y-90764161D01*
X110994051Y-90729526D01*
X111019461Y-90677550D01*
X111029500Y-90608646D01*
X111029500Y-90341354D01*
X111019461Y-90272450D01*
X110967499Y-90166160D01*
X110967498Y-90166158D01*
X110963405Y-90162065D01*
X110929379Y-90099753D01*
X110926500Y-90072970D01*
X110926500Y-89656456D01*
X110946502Y-89588335D01*
X110952529Y-89579763D01*
X111029355Y-89479643D01*
X111085228Y-89344754D01*
X111104285Y-89200000D01*
X111100382Y-89170357D01*
X111097670Y-89149753D01*
X111094009Y-89121945D01*
X111104948Y-89051798D01*
X111152076Y-88998699D01*
X111218931Y-88979500D01*
X111322854Y-88979500D01*
X111390975Y-88999502D01*
G37*
%TD.AperFunction*%
%TA.AperFunction,Conductor*%
G36*
X107853248Y-89549668D02*
G01*
X107904189Y-89573422D01*
X107950356Y-89579500D01*
X107950363Y-89579500D01*
X108098191Y-89579500D01*
X108166312Y-89599502D01*
X108212805Y-89653158D01*
X108219898Y-89672891D01*
X108226579Y-89697827D01*
X108228957Y-89708554D01*
X108235593Y-89746186D01*
X108237498Y-89751420D01*
X108244416Y-89768123D01*
X108246762Y-89773153D01*
X108246765Y-89773157D01*
X108262410Y-89795501D01*
X108268681Y-89804456D01*
X108274588Y-89813728D01*
X108287394Y-89835909D01*
X108304131Y-89904904D01*
X108303197Y-89915349D01*
X108299837Y-89940878D01*
X108299837Y-89940879D01*
X108318893Y-90085630D01*
X108318894Y-90085632D01*
X108358744Y-90181839D01*
X108360554Y-90186207D01*
X108368143Y-90256797D01*
X108336364Y-90320284D01*
X108275306Y-90356511D01*
X108204354Y-90353977D01*
X108168826Y-90335435D01*
X108149842Y-90321279D01*
X108041826Y-90284198D01*
X107993639Y-90254117D01*
X107980310Y-90240787D01*
X107946287Y-90178474D01*
X107943409Y-90151695D01*
X107943409Y-90143357D01*
X107914641Y-90059560D01*
X107904993Y-90031456D01*
X107863369Y-89975635D01*
X107863367Y-89975633D01*
X107863365Y-89975630D01*
X107674372Y-89786637D01*
X107670917Y-89783649D01*
X107671893Y-89782519D01*
X107633118Y-89730924D01*
X107627920Y-89660118D01*
X107661828Y-89597742D01*
X107697840Y-89572476D01*
X107720501Y-89561909D01*
X107746750Y-89549668D01*
X107816941Y-89539007D01*
X107853248Y-89549668D01*
G37*
%TD.AperFunction*%
%TA.AperFunction,Conductor*%
G36*
X109353248Y-84674668D02*
G01*
X109359253Y-84677468D01*
X109404186Y-84698421D01*
X109404187Y-84698421D01*
X109404189Y-84698422D01*
X109438577Y-84702949D01*
X109503500Y-84731668D01*
X109542593Y-84790932D01*
X109547051Y-84811425D01*
X109551577Y-84845810D01*
X109551577Y-84845811D01*
X109575331Y-84896751D01*
X109585992Y-84966942D01*
X109575331Y-85003249D01*
X109551577Y-85054188D01*
X109551577Y-85054189D01*
X109545500Y-85100351D01*
X109545500Y-85299648D01*
X109551577Y-85345810D01*
X109551577Y-85345811D01*
X109575331Y-85396751D01*
X109585992Y-85466942D01*
X109575331Y-85503249D01*
X109551577Y-85554188D01*
X109551577Y-85554189D01*
X109545500Y-85600351D01*
X109545500Y-85799648D01*
X109551577Y-85845810D01*
X109551577Y-85845811D01*
X109575331Y-85896751D01*
X109585992Y-85966942D01*
X109575331Y-86003249D01*
X109551577Y-86054188D01*
X109551577Y-86054189D01*
X109545500Y-86100351D01*
X109545500Y-86299648D01*
X109551577Y-86345810D01*
X109551577Y-86345811D01*
X109575331Y-86396751D01*
X109585992Y-86466942D01*
X109575331Y-86503249D01*
X109551577Y-86554188D01*
X109551577Y-86554189D01*
X109545500Y-86600351D01*
X109545500Y-86799648D01*
X109551577Y-86845810D01*
X109551577Y-86845811D01*
X109575331Y-86896751D01*
X109585992Y-86966942D01*
X109575331Y-87003249D01*
X109551577Y-87054188D01*
X109551577Y-87054189D01*
X109545500Y-87100351D01*
X109545500Y-87299648D01*
X109551577Y-87345810D01*
X109551577Y-87345811D01*
X109575331Y-87396751D01*
X109585992Y-87466942D01*
X109575331Y-87503249D01*
X109551577Y-87554188D01*
X109551577Y-87554189D01*
X109545500Y-87600351D01*
X109545500Y-87799648D01*
X109551577Y-87845810D01*
X109551577Y-87845811D01*
X109575331Y-87896751D01*
X109585992Y-87966942D01*
X109575331Y-88003249D01*
X109551577Y-88054188D01*
X109551577Y-88054189D01*
X109547051Y-88088574D01*
X109518329Y-88153502D01*
X109459064Y-88192594D01*
X109438574Y-88197051D01*
X109404189Y-88201577D01*
X109404188Y-88201577D01*
X109353249Y-88225331D01*
X109283058Y-88235992D01*
X109246751Y-88225331D01*
X109195811Y-88201577D01*
X109149648Y-88195500D01*
X109149644Y-88195500D01*
X108950356Y-88195500D01*
X108950351Y-88195500D01*
X108904189Y-88201577D01*
X108904188Y-88201577D01*
X108853249Y-88225331D01*
X108783058Y-88235992D01*
X108746751Y-88225331D01*
X108695811Y-88201577D01*
X108649648Y-88195500D01*
X108649644Y-88195500D01*
X108450356Y-88195500D01*
X108450351Y-88195500D01*
X108404189Y-88201577D01*
X108404188Y-88201577D01*
X108353249Y-88225331D01*
X108283058Y-88235992D01*
X108246751Y-88225331D01*
X108195811Y-88201577D01*
X108149648Y-88195500D01*
X108149644Y-88195500D01*
X107950356Y-88195500D01*
X107950351Y-88195500D01*
X107904189Y-88201577D01*
X107904188Y-88201577D01*
X107853249Y-88225331D01*
X107783058Y-88235992D01*
X107746751Y-88225331D01*
X107695811Y-88201577D01*
X107649648Y-88195500D01*
X107649644Y-88195500D01*
X107450356Y-88195500D01*
X107450351Y-88195500D01*
X107404189Y-88201577D01*
X107404188Y-88201577D01*
X107353249Y-88225331D01*
X107283058Y-88235992D01*
X107246751Y-88225331D01*
X107195811Y-88201577D01*
X107149648Y-88195500D01*
X107149644Y-88195500D01*
X106950356Y-88195500D01*
X106950351Y-88195500D01*
X106904189Y-88201577D01*
X106904188Y-88201577D01*
X106853249Y-88225331D01*
X106783058Y-88235992D01*
X106746751Y-88225331D01*
X106695811Y-88201577D01*
X106649648Y-88195500D01*
X106649644Y-88195500D01*
X106450356Y-88195500D01*
X106450351Y-88195500D01*
X106404189Y-88201577D01*
X106404188Y-88201577D01*
X106353249Y-88225331D01*
X106283058Y-88235992D01*
X106246751Y-88225331D01*
X106195811Y-88201577D01*
X106161425Y-88197051D01*
X106096498Y-88168329D01*
X106057405Y-88109065D01*
X106052951Y-88088590D01*
X106048422Y-88054189D01*
X106047498Y-88052208D01*
X106024669Y-88003251D01*
X106014007Y-87933059D01*
X106024669Y-87896749D01*
X106048422Y-87845810D01*
X106054499Y-87799648D01*
X106054500Y-87799644D01*
X106054500Y-87600356D01*
X106048422Y-87554189D01*
X106024668Y-87503249D01*
X106014007Y-87433059D01*
X106024669Y-87396749D01*
X106048422Y-87345810D01*
X106049765Y-87335610D01*
X106054500Y-87299644D01*
X106054500Y-87100356D01*
X106048422Y-87054189D01*
X106024668Y-87003249D01*
X106014007Y-86933059D01*
X106024669Y-86896749D01*
X106048422Y-86845811D01*
X106054500Y-86799644D01*
X106054500Y-86600356D01*
X106048422Y-86554189D01*
X106024668Y-86503249D01*
X106014007Y-86433059D01*
X106024669Y-86396749D01*
X106036909Y-86370500D01*
X106048422Y-86345811D01*
X106054500Y-86299644D01*
X106054500Y-86100356D01*
X106048422Y-86054189D01*
X106024668Y-86003249D01*
X106014007Y-85933059D01*
X106024669Y-85896749D01*
X106027610Y-85890443D01*
X106048422Y-85845811D01*
X106054500Y-85799644D01*
X106054500Y-85600356D01*
X106048422Y-85554189D01*
X106024668Y-85503249D01*
X106014007Y-85433059D01*
X106024669Y-85396749D01*
X106048422Y-85345811D01*
X106054500Y-85299644D01*
X106054500Y-85100356D01*
X106048422Y-85054189D01*
X106024668Y-85003249D01*
X106014007Y-84933059D01*
X106024669Y-84896749D01*
X106042347Y-84858840D01*
X106048422Y-84845811D01*
X106052949Y-84811422D01*
X106081668Y-84746500D01*
X106140932Y-84707406D01*
X106161409Y-84702951D01*
X106195811Y-84698422D01*
X106246750Y-84674668D01*
X106316941Y-84664007D01*
X106353248Y-84674668D01*
X106404189Y-84698422D01*
X106450356Y-84704500D01*
X106450363Y-84704500D01*
X106649637Y-84704500D01*
X106649644Y-84704500D01*
X106695811Y-84698422D01*
X106746750Y-84674668D01*
X106816941Y-84664007D01*
X106853248Y-84674668D01*
X106904189Y-84698422D01*
X106950356Y-84704500D01*
X106950363Y-84704500D01*
X107149637Y-84704500D01*
X107149644Y-84704500D01*
X107195811Y-84698422D01*
X107246750Y-84674668D01*
X107316941Y-84664007D01*
X107353248Y-84674668D01*
X107404189Y-84698422D01*
X107450356Y-84704500D01*
X107450363Y-84704500D01*
X107649637Y-84704500D01*
X107649644Y-84704500D01*
X107695811Y-84698422D01*
X107746750Y-84674668D01*
X107816941Y-84664007D01*
X107853248Y-84674668D01*
X107904189Y-84698422D01*
X107950356Y-84704500D01*
X107950363Y-84704500D01*
X108149637Y-84704500D01*
X108149644Y-84704500D01*
X108195811Y-84698422D01*
X108246750Y-84674668D01*
X108316941Y-84664007D01*
X108353248Y-84674668D01*
X108404189Y-84698422D01*
X108450356Y-84704500D01*
X108450363Y-84704500D01*
X108649637Y-84704500D01*
X108649644Y-84704500D01*
X108695811Y-84698422D01*
X108746750Y-84674668D01*
X108816941Y-84664007D01*
X108853248Y-84674668D01*
X108904189Y-84698422D01*
X108950356Y-84704500D01*
X108950363Y-84704500D01*
X109149637Y-84704500D01*
X109149644Y-84704500D01*
X109195811Y-84698422D01*
X109246750Y-84674668D01*
X109316941Y-84664007D01*
X109353248Y-84674668D01*
G37*
%TD.AperFunction*%
%TA.AperFunction,Conductor*%
G36*
X118829448Y-81099502D02*
G01*
X118850422Y-81116405D01*
X118983595Y-81249578D01*
X119017621Y-81311890D01*
X119020500Y-81338673D01*
X119020500Y-85691766D01*
X119000498Y-85759887D01*
X118971205Y-85791727D01*
X118960883Y-85799648D01*
X118954526Y-85804526D01*
X118865646Y-85920356D01*
X118865643Y-85920361D01*
X118848858Y-85960884D01*
X118804309Y-86016164D01*
X118736945Y-86038584D01*
X118668154Y-86021025D01*
X118627685Y-85982667D01*
X118607776Y-85952871D01*
X118583484Y-85916516D01*
X118583482Y-85916515D01*
X118583482Y-85916514D01*
X118499302Y-85860266D01*
X118425067Y-85845500D01*
X117074936Y-85845500D01*
X117074926Y-85845501D01*
X117000699Y-85860265D01*
X116916515Y-85916516D01*
X116860266Y-86000697D01*
X116845500Y-86074930D01*
X116845500Y-86425063D01*
X116845501Y-86425068D01*
X116855516Y-86475421D01*
X116855515Y-86524579D01*
X116845500Y-86574925D01*
X116845500Y-86925063D01*
X116845501Y-86925073D01*
X116860265Y-86999300D01*
X116916516Y-87083484D01*
X117000697Y-87139733D01*
X117000699Y-87139734D01*
X117074933Y-87154500D01*
X118425066Y-87154499D01*
X118425069Y-87154498D01*
X118425073Y-87154498D01*
X118474326Y-87144701D01*
X118499301Y-87139734D01*
X118583484Y-87083484D01*
X118639734Y-86999301D01*
X118654500Y-86925067D01*
X118654499Y-86575655D01*
X118674501Y-86507536D01*
X118728156Y-86461043D01*
X118798430Y-86450938D01*
X118863011Y-86480431D01*
X118880461Y-86498952D01*
X118954525Y-86595474D01*
X119039890Y-86660977D01*
X119070357Y-86684355D01*
X119205246Y-86740228D01*
X119271945Y-86749009D01*
X119349999Y-86759285D01*
X119349999Y-86759284D01*
X119350000Y-86759285D01*
X119428054Y-86749009D01*
X119498202Y-86759948D01*
X119551301Y-86807076D01*
X119570500Y-86873931D01*
X119570500Y-86911326D01*
X119550498Y-86979447D01*
X119533595Y-87000421D01*
X118500422Y-88033595D01*
X118438110Y-88067620D01*
X118411327Y-88070500D01*
X117388673Y-88070500D01*
X117320552Y-88050498D01*
X117299578Y-88033595D01*
X115926960Y-86660977D01*
X115912840Y-86644150D01*
X115906313Y-86634828D01*
X115900408Y-86625559D01*
X115881305Y-86592471D01*
X115852025Y-86567902D01*
X115843922Y-86560476D01*
X115802171Y-86518725D01*
X115768145Y-86456413D01*
X115773210Y-86385598D01*
X115815757Y-86328762D01*
X115818958Y-86326444D01*
X115847709Y-86306311D01*
X115856952Y-86300422D01*
X115890066Y-86281305D01*
X115914630Y-86252028D01*
X115922045Y-86243936D01*
X116768948Y-85397034D01*
X116777030Y-85389629D01*
X116806305Y-85365066D01*
X116825411Y-85331972D01*
X116831310Y-85322712D01*
X116853235Y-85291401D01*
X116853236Y-85291395D01*
X116855602Y-85286323D01*
X116862488Y-85269699D01*
X116864403Y-85264437D01*
X116864402Y-85264437D01*
X116864405Y-85264434D01*
X116871044Y-85226774D01*
X116873411Y-85216099D01*
X116883310Y-85179160D01*
X116879979Y-85141084D01*
X116879500Y-85130105D01*
X116879500Y-82269157D01*
X116899502Y-82201036D01*
X116953158Y-82154543D01*
X117023432Y-82144439D01*
X117030053Y-82145572D01*
X117074933Y-82154500D01*
X118425066Y-82154499D01*
X118425069Y-82154498D01*
X118425073Y-82154498D01*
X118475645Y-82144439D01*
X118499301Y-82139734D01*
X118583484Y-82083484D01*
X118639734Y-81999301D01*
X118654500Y-81925067D01*
X118654499Y-81574934D01*
X118654498Y-81574931D01*
X118654498Y-81574926D01*
X118639734Y-81500699D01*
X118618342Y-81468684D01*
X118583484Y-81416516D01*
X118583483Y-81416515D01*
X118491067Y-81354763D01*
X118445540Y-81300286D01*
X118436693Y-81229843D01*
X118467334Y-81165799D01*
X118491069Y-81145234D01*
X118499300Y-81139734D01*
X118499301Y-81139734D01*
X118535782Y-81115358D01*
X118557667Y-81100735D01*
X118625419Y-81079520D01*
X118627668Y-81079500D01*
X118761327Y-81079500D01*
X118829448Y-81099502D01*
G37*
%TD.AperFunction*%
%TA.AperFunction,Conductor*%
G36*
X115196911Y-86849502D02*
G01*
X115217885Y-86866405D01*
X115323038Y-86971558D01*
X115337154Y-86988379D01*
X115343679Y-86997697D01*
X115349587Y-87006970D01*
X115363749Y-87031499D01*
X115380487Y-87100495D01*
X115357267Y-87167587D01*
X115301460Y-87211474D01*
X115254630Y-87220500D01*
X111862100Y-87220500D01*
X111793979Y-87200498D01*
X111747486Y-87146842D01*
X111737178Y-87110947D01*
X111722479Y-86999300D01*
X111719845Y-86979291D01*
X111719844Y-86979290D01*
X111718878Y-86971947D01*
X111729817Y-86901798D01*
X111776945Y-86848699D01*
X111843800Y-86829500D01*
X115128790Y-86829500D01*
X115196911Y-86849502D01*
G37*
%TD.AperFunction*%
%TA.AperFunction,Conductor*%
G36*
X111580621Y-81371502D02*
G01*
X111627114Y-81425158D01*
X111638500Y-81477500D01*
X111638500Y-81582260D01*
X111618498Y-81650381D01*
X111601595Y-81671355D01*
X111513675Y-81759274D01*
X111513673Y-81759276D01*
X111455501Y-81873446D01*
X111440500Y-81968167D01*
X111440500Y-83331832D01*
X111455501Y-83426553D01*
X111513673Y-83540723D01*
X111604276Y-83631326D01*
X111620148Y-83639413D01*
X111718445Y-83689498D01*
X111813166Y-83704500D01*
X111813168Y-83704500D01*
X112176832Y-83704500D01*
X112176834Y-83704500D01*
X112271555Y-83689498D01*
X112385723Y-83631326D01*
X112476326Y-83540723D01*
X112517733Y-83459455D01*
X112566481Y-83407842D01*
X112635396Y-83390776D01*
X112702598Y-83413677D01*
X112742267Y-83459457D01*
X112783673Y-83540723D01*
X112874276Y-83631326D01*
X112890148Y-83639413D01*
X112988445Y-83689498D01*
X113083166Y-83704500D01*
X113083168Y-83704500D01*
X113446832Y-83704500D01*
X113446834Y-83704500D01*
X113541555Y-83689498D01*
X113655723Y-83631326D01*
X113746326Y-83540723D01*
X113787733Y-83459455D01*
X113836481Y-83407842D01*
X113905396Y-83390776D01*
X113972598Y-83413677D01*
X114012267Y-83459457D01*
X114053673Y-83540723D01*
X114144276Y-83631326D01*
X114236782Y-83678460D01*
X114288397Y-83727208D01*
X114305463Y-83796123D01*
X114282562Y-83863325D01*
X114242582Y-83899845D01*
X114209933Y-83918695D01*
X114185370Y-83947968D01*
X114177946Y-83956069D01*
X113800422Y-84333595D01*
X113738110Y-84367620D01*
X113711326Y-84370500D01*
X110817936Y-84370500D01*
X110764687Y-84358695D01*
X110695811Y-84326578D01*
X110695809Y-84326577D01*
X110649648Y-84320500D01*
X110649644Y-84320500D01*
X110622702Y-84320500D01*
X110554581Y-84300498D01*
X110508088Y-84246842D01*
X110497984Y-84176568D01*
X110499905Y-84167201D01*
X110500226Y-84164756D01*
X110500228Y-84164754D01*
X110519285Y-84020000D01*
X110519080Y-84018446D01*
X110500228Y-83875247D01*
X110498786Y-83871765D01*
X110444355Y-83740358D01*
X110355474Y-83624526D01*
X110326159Y-83602032D01*
X110276807Y-83564162D01*
X110234940Y-83506824D01*
X110230719Y-83435953D01*
X110264417Y-83375104D01*
X110350849Y-83288673D01*
X110473118Y-83166404D01*
X110535430Y-83132379D01*
X110562213Y-83129500D01*
X110733640Y-83129500D01*
X110733646Y-83129500D01*
X110802550Y-83119461D01*
X110908840Y-83067499D01*
X110992499Y-82983840D01*
X111044461Y-82877550D01*
X111054500Y-82808646D01*
X111054500Y-82481354D01*
X111044461Y-82412450D01*
X110992499Y-82306160D01*
X110992498Y-82306158D01*
X110908841Y-82222501D01*
X110908839Y-82222500D01*
X110802552Y-82170540D01*
X110802550Y-82170539D01*
X110733647Y-82160500D01*
X110733646Y-82160500D01*
X110557500Y-82160500D01*
X110489379Y-82140498D01*
X110442886Y-82086842D01*
X110431500Y-82034500D01*
X110431500Y-81770213D01*
X110451502Y-81702092D01*
X110468405Y-81681117D01*
X110761119Y-81388404D01*
X110823431Y-81354379D01*
X110850214Y-81351500D01*
X111512500Y-81351500D01*
X111580621Y-81371502D01*
G37*
%TD.AperFunction*%
%TA.AperFunction,Conductor*%
G36*
X114974976Y-76650526D02*
G01*
X114974977Y-76650524D01*
X114986395Y-76650531D01*
X115010095Y-76657505D01*
X115023018Y-76660074D01*
X115023076Y-76660098D01*
X115022623Y-76661192D01*
X115054504Y-76670575D01*
X115100964Y-76724259D01*
X115106151Y-76737594D01*
X115149148Y-76869922D01*
X115161885Y-76891982D01*
X115244214Y-77034580D01*
X115371438Y-77175877D01*
X115525259Y-77287635D01*
X115698955Y-77364969D01*
X115884933Y-77404500D01*
X116075067Y-77404500D01*
X116261045Y-77364969D01*
X116434741Y-77287635D01*
X116588562Y-77175877D01*
X116703856Y-77047829D01*
X116764298Y-77010592D01*
X116835281Y-77011943D01*
X116894266Y-77051456D01*
X116902253Y-77062139D01*
X116916514Y-77083482D01*
X116916515Y-77083482D01*
X116916516Y-77083484D01*
X117000699Y-77139734D01*
X117008932Y-77145235D01*
X117054459Y-77199713D01*
X117063306Y-77270156D01*
X117032665Y-77334200D01*
X117008932Y-77354765D01*
X117000699Y-77360265D01*
X117000699Y-77360266D01*
X116976148Y-77376670D01*
X116916514Y-77416517D01*
X116860266Y-77500697D01*
X116845500Y-77574930D01*
X116845500Y-77574933D01*
X116845500Y-77697621D01*
X116845501Y-77719499D01*
X116825499Y-77787620D01*
X116771844Y-77834113D01*
X116719501Y-77845500D01*
X116703214Y-77845500D01*
X116647875Y-77832697D01*
X116602551Y-77810539D01*
X116533647Y-77800500D01*
X116533646Y-77800500D01*
X116266354Y-77800500D01*
X116266352Y-77800500D01*
X116197449Y-77810539D01*
X116197447Y-77810540D01*
X116091160Y-77862500D01*
X116091158Y-77862501D01*
X116007501Y-77946158D01*
X116007500Y-77946160D01*
X115955540Y-78052447D01*
X115955539Y-78052449D01*
X115945500Y-78121352D01*
X115945500Y-78448647D01*
X115955539Y-78517550D01*
X115955540Y-78517552D01*
X116007500Y-78623839D01*
X116007501Y-78623841D01*
X116091158Y-78707498D01*
X116091160Y-78707499D01*
X116197450Y-78759461D01*
X116266354Y-78769500D01*
X116266360Y-78769500D01*
X116533640Y-78769500D01*
X116533646Y-78769500D01*
X116602550Y-78759461D01*
X116664161Y-78729340D01*
X116734144Y-78717392D01*
X116799479Y-78745176D01*
X116839420Y-78803871D01*
X116845500Y-78842537D01*
X116845500Y-78925062D01*
X116845501Y-78925068D01*
X116855516Y-78975421D01*
X116855515Y-79024579D01*
X116845500Y-79074925D01*
X116845500Y-79425063D01*
X116845501Y-79425073D01*
X116860265Y-79499300D01*
X116860266Y-79499301D01*
X116916516Y-79583484D01*
X117000699Y-79639734D01*
X117008932Y-79645235D01*
X117054459Y-79699713D01*
X117063306Y-79770156D01*
X117032665Y-79834200D01*
X117008932Y-79854765D01*
X117000699Y-79860265D01*
X117000699Y-79860266D01*
X116976148Y-79876670D01*
X116916514Y-79916517D01*
X116860266Y-80000697D01*
X116845500Y-80074930D01*
X116845500Y-80425063D01*
X116845501Y-80425068D01*
X116855516Y-80475421D01*
X116855515Y-80524579D01*
X116845500Y-80574925D01*
X116845500Y-80925063D01*
X116845501Y-80925073D01*
X116860265Y-80999300D01*
X116880312Y-81029301D01*
X116916516Y-81083484D01*
X116992905Y-81134526D01*
X117008932Y-81145235D01*
X117054459Y-81199713D01*
X117063306Y-81270156D01*
X117032665Y-81334200D01*
X117008932Y-81354764D01*
X116942335Y-81399264D01*
X116874583Y-81420480D01*
X116872332Y-81420500D01*
X116869882Y-81420500D01*
X116858900Y-81420020D01*
X116847181Y-81418994D01*
X116820842Y-81416690D01*
X116820836Y-81416690D01*
X116783930Y-81426579D01*
X116773203Y-81428957D01*
X116735569Y-81435593D01*
X116730358Y-81437490D01*
X116713649Y-81444410D01*
X116708597Y-81446766D01*
X116677294Y-81468684D01*
X116668030Y-81474585D01*
X116634937Y-81493692D01*
X116634930Y-81493698D01*
X116610365Y-81522973D01*
X116602940Y-81531075D01*
X116572841Y-81561174D01*
X116510529Y-81595200D01*
X116439714Y-81590135D01*
X116382878Y-81547588D01*
X116358824Y-81488526D01*
X116345228Y-81385246D01*
X116289355Y-81250358D01*
X116200474Y-81134526D01*
X116200472Y-81134524D01*
X116200471Y-81134523D01*
X116084649Y-81045649D01*
X116084641Y-81045644D01*
X115949752Y-80989771D01*
X115805000Y-80970715D01*
X115660247Y-80989771D01*
X115592802Y-81017708D01*
X115525358Y-81045645D01*
X115525357Y-81045646D01*
X115525356Y-81045646D01*
X115409526Y-81134526D01*
X115320646Y-81250356D01*
X115320643Y-81250361D01*
X115294943Y-81312406D01*
X115250394Y-81367686D01*
X115183030Y-81390106D01*
X115114239Y-81372547D01*
X115065862Y-81320584D01*
X115062127Y-81312406D01*
X115034355Y-81245358D01*
X114945474Y-81129526D01*
X114945472Y-81129524D01*
X114945471Y-81129523D01*
X114829649Y-81040649D01*
X114829641Y-81040644D01*
X114694752Y-80984771D01*
X114550000Y-80965715D01*
X114405247Y-80984771D01*
X114369033Y-80999772D01*
X114270358Y-81040645D01*
X114270357Y-81040646D01*
X114270356Y-81040646D01*
X114154526Y-81129526D01*
X114065646Y-81245356D01*
X114065642Y-81245363D01*
X114025801Y-81341547D01*
X113981253Y-81396828D01*
X113913889Y-81419248D01*
X113845098Y-81401689D01*
X113796720Y-81349727D01*
X113792993Y-81341568D01*
X113759355Y-81260358D01*
X113670474Y-81144526D01*
X113670472Y-81144524D01*
X113670471Y-81144523D01*
X113554649Y-81055649D01*
X113554641Y-81055644D01*
X113419752Y-80999771D01*
X113275000Y-80980715D01*
X113130247Y-80999771D01*
X113062802Y-81027708D01*
X112995358Y-81055645D01*
X112995357Y-81055646D01*
X112995356Y-81055646D01*
X112879526Y-81144526D01*
X112790646Y-81260356D01*
X112790645Y-81260358D01*
X112779878Y-81286352D01*
X112734771Y-81395247D01*
X112715715Y-81539999D01*
X112715715Y-81540000D01*
X112734771Y-81684752D01*
X112751498Y-81725135D01*
X112759086Y-81795725D01*
X112747355Y-81830553D01*
X112742266Y-81840541D01*
X112693519Y-81892156D01*
X112624604Y-81909223D01*
X112557402Y-81886323D01*
X112517732Y-81840541D01*
X112508202Y-81821838D01*
X112486273Y-81778799D01*
X112476327Y-81759278D01*
X112476324Y-81759274D01*
X112438405Y-81721355D01*
X112404379Y-81659043D01*
X112401500Y-81632260D01*
X112401500Y-81372029D01*
X112421502Y-81303908D01*
X112438403Y-81282935D01*
X112442499Y-81278840D01*
X112494461Y-81172550D01*
X112504500Y-81103646D01*
X112504500Y-80836354D01*
X112494461Y-80767450D01*
X112442499Y-80661160D01*
X112442498Y-80661158D01*
X112358841Y-80577501D01*
X112358839Y-80577500D01*
X112252552Y-80525540D01*
X112252550Y-80525539D01*
X112183647Y-80515500D01*
X112183646Y-80515500D01*
X111856354Y-80515500D01*
X111856352Y-80515500D01*
X111787449Y-80525539D01*
X111787447Y-80525540D01*
X111684849Y-80575697D01*
X111629510Y-80588500D01*
X110806675Y-80588500D01*
X110738554Y-80568498D01*
X110717580Y-80551596D01*
X109943823Y-79777840D01*
X109936397Y-79769736D01*
X109924239Y-79755247D01*
X109911836Y-79740465D01*
X109878736Y-79721354D01*
X109869470Y-79715451D01*
X109838167Y-79693532D01*
X109833136Y-79691186D01*
X109809592Y-79681434D01*
X109803503Y-79677919D01*
X109799036Y-79673235D01*
X109780626Y-79676557D01*
X109761486Y-79672986D01*
X109725934Y-79663460D01*
X109725928Y-79663460D01*
X109699588Y-79665764D01*
X109687869Y-79666790D01*
X109676888Y-79667270D01*
X108383112Y-79667270D01*
X108372130Y-79666790D01*
X108360411Y-79665764D01*
X108334072Y-79663460D01*
X108334066Y-79663460D01*
X108297160Y-79673349D01*
X108286433Y-79675727D01*
X108248799Y-79682363D01*
X108243588Y-79684260D01*
X108226879Y-79691180D01*
X108221827Y-79693536D01*
X108190524Y-79715454D01*
X108181260Y-79721355D01*
X108148167Y-79740462D01*
X108148160Y-79740468D01*
X108123595Y-79769743D01*
X108116170Y-79777845D01*
X107756079Y-80137936D01*
X107747978Y-80145361D01*
X107721489Y-80167589D01*
X107656449Y-80196055D01*
X107586344Y-80184839D01*
X107563793Y-80171033D01*
X107504643Y-80125645D01*
X107459242Y-80106839D01*
X107369752Y-80069771D01*
X107225000Y-80050715D01*
X107080244Y-80069772D01*
X107072270Y-80071909D01*
X107071692Y-80069753D01*
X107012707Y-80076086D01*
X106949225Y-80044297D01*
X106935140Y-80028801D01*
X106870474Y-79944526D01*
X106870472Y-79944524D01*
X106870471Y-79944523D01*
X106754649Y-79855649D01*
X106754641Y-79855644D01*
X106619752Y-79799771D01*
X106475000Y-79780715D01*
X106330247Y-79799771D01*
X106262802Y-79827708D01*
X106195358Y-79855645D01*
X106195357Y-79855646D01*
X106195356Y-79855646D01*
X106079525Y-79944526D01*
X106016069Y-80027224D01*
X105958731Y-80069091D01*
X105887860Y-80073312D01*
X105882787Y-80071693D01*
X105882730Y-80071909D01*
X105874755Y-80069772D01*
X105730000Y-80050715D01*
X105585247Y-80069771D01*
X105517802Y-80097708D01*
X105450358Y-80125645D01*
X105450357Y-80125646D01*
X105450356Y-80125646D01*
X105334526Y-80214526D01*
X105245646Y-80330356D01*
X105245645Y-80330358D01*
X105223942Y-80382753D01*
X105189771Y-80465247D01*
X105170715Y-80609999D01*
X105170715Y-80610000D01*
X105189771Y-80754752D01*
X105245644Y-80889641D01*
X105245651Y-80889652D01*
X105246597Y-80890885D01*
X105247071Y-80892112D01*
X105249776Y-80896797D01*
X105249045Y-80897218D01*
X105272196Y-80957106D01*
X105271317Y-80985739D01*
X105270500Y-80991350D01*
X105270500Y-80991354D01*
X105270500Y-81318646D01*
X105280539Y-81387550D01*
X105284302Y-81395247D01*
X105296238Y-81419664D01*
X105308185Y-81489648D01*
X105296238Y-81530336D01*
X105280539Y-81562450D01*
X105270500Y-81631352D01*
X105270500Y-81958647D01*
X105280539Y-82027550D01*
X105280540Y-82027552D01*
X105332499Y-82133838D01*
X105332500Y-82133839D01*
X105332501Y-82133840D01*
X105358595Y-82159934D01*
X105392620Y-82222244D01*
X105395500Y-82249029D01*
X105395500Y-82755117D01*
X105395020Y-82766099D01*
X105391690Y-82804157D01*
X105391690Y-82804164D01*
X105401579Y-82841071D01*
X105403957Y-82851798D01*
X105410593Y-82889430D01*
X105412498Y-82894664D01*
X105419416Y-82911367D01*
X105421762Y-82916397D01*
X105443681Y-82947700D01*
X105449584Y-82956966D01*
X105468695Y-82990066D01*
X105497814Y-83014500D01*
X105497966Y-83014627D01*
X105506072Y-83022055D01*
X105683595Y-83199578D01*
X105717621Y-83261890D01*
X105720500Y-83288673D01*
X105720500Y-83432063D01*
X105708695Y-83485312D01*
X105676577Y-83554188D01*
X105676577Y-83554189D01*
X105670500Y-83600351D01*
X105670500Y-84194500D01*
X105650498Y-84262621D01*
X105596842Y-84309114D01*
X105544500Y-84320500D01*
X104978673Y-84320500D01*
X104910552Y-84300498D01*
X104889578Y-84283595D01*
X104301878Y-83695895D01*
X104269267Y-83639413D01*
X104267100Y-83631326D01*
X104258416Y-83598919D01*
X104256039Y-83588193D01*
X104249406Y-83550569D01*
X104247491Y-83545308D01*
X104240596Y-83528663D01*
X104238235Y-83523600D01*
X104238235Y-83523599D01*
X104216315Y-83492294D01*
X104210408Y-83483022D01*
X104191305Y-83449934D01*
X104162025Y-83425365D01*
X104153922Y-83417939D01*
X103877059Y-83141076D01*
X103869633Y-83132973D01*
X103858293Y-83119459D01*
X103845066Y-83103695D01*
X103811966Y-83084584D01*
X103802700Y-83078681D01*
X103771397Y-83056762D01*
X103766367Y-83054416D01*
X103749664Y-83047498D01*
X103744430Y-83045593D01*
X103706798Y-83038957D01*
X103696074Y-83036580D01*
X103682894Y-83033049D01*
X103622270Y-82996100D01*
X103591245Y-82932241D01*
X103589500Y-82911341D01*
X103589500Y-82555500D01*
X103609502Y-82487379D01*
X103663158Y-82440886D01*
X103715500Y-82429500D01*
X103780118Y-82429500D01*
X103791099Y-82429979D01*
X103829160Y-82433310D01*
X103866082Y-82423415D01*
X103876779Y-82421043D01*
X103914434Y-82414405D01*
X103914438Y-82414402D01*
X103919699Y-82412488D01*
X103936322Y-82405603D01*
X103941395Y-82403236D01*
X103941401Y-82403235D01*
X103972708Y-82381312D01*
X103981952Y-82375422D01*
X104015066Y-82356305D01*
X104039630Y-82327028D01*
X104047044Y-82318937D01*
X104243875Y-82122107D01*
X104251957Y-82114702D01*
X104281232Y-82090139D01*
X104300338Y-82057045D01*
X104306237Y-82047785D01*
X104328162Y-82016474D01*
X104328163Y-82016468D01*
X104330529Y-82011396D01*
X104337415Y-81994772D01*
X104339330Y-81989510D01*
X104339329Y-81989510D01*
X104339332Y-81989507D01*
X104345971Y-81951847D01*
X104348338Y-81941172D01*
X104358237Y-81904233D01*
X104354906Y-81866157D01*
X104354427Y-81855178D01*
X104354427Y-81270293D01*
X104374429Y-81202172D01*
X104375636Y-81200330D01*
X104409734Y-81149301D01*
X104424500Y-81075067D01*
X104424499Y-80324934D01*
X104424498Y-80324933D01*
X104423892Y-80318770D01*
X104425810Y-80318581D01*
X104431325Y-80256803D01*
X104448620Y-80226211D01*
X104484355Y-80179643D01*
X104540228Y-80044754D01*
X104559285Y-79900000D01*
X104558232Y-79892005D01*
X104548510Y-79818152D01*
X104540228Y-79755246D01*
X104484355Y-79620358D01*
X104450537Y-79576286D01*
X104424936Y-79510066D01*
X104424499Y-79499581D01*
X104424499Y-78890500D01*
X104444501Y-78822379D01*
X104498157Y-78775886D01*
X104550499Y-78764500D01*
X105169221Y-78764500D01*
X105237342Y-78784502D01*
X105283835Y-78838158D01*
X105293939Y-78908432D01*
X105293905Y-78908665D01*
X105285500Y-78966350D01*
X105285500Y-79233647D01*
X105295539Y-79302550D01*
X105295540Y-79302552D01*
X105347500Y-79408839D01*
X105347501Y-79408841D01*
X105431158Y-79492498D01*
X105431160Y-79492499D01*
X105537450Y-79544461D01*
X105606354Y-79554500D01*
X105606360Y-79554500D01*
X105933640Y-79554500D01*
X105933646Y-79554500D01*
X106002550Y-79544461D01*
X106108840Y-79492499D01*
X106117500Y-79483839D01*
X106134935Y-79466405D01*
X106197247Y-79432379D01*
X106224030Y-79429500D01*
X107655118Y-79429500D01*
X107666099Y-79429979D01*
X107704160Y-79433310D01*
X107741082Y-79423415D01*
X107751779Y-79421043D01*
X107789434Y-79414405D01*
X107789438Y-79414402D01*
X107794699Y-79412488D01*
X107811322Y-79405603D01*
X107816395Y-79403236D01*
X107816401Y-79403235D01*
X107847708Y-79381312D01*
X107856952Y-79375422D01*
X107890066Y-79356305D01*
X107914645Y-79327011D01*
X107922051Y-79318930D01*
X108607822Y-78633159D01*
X108670132Y-78599135D01*
X108740947Y-78604200D01*
X108797783Y-78646747D01*
X108813324Y-78674039D01*
X108815643Y-78679639D01*
X108815649Y-78679649D01*
X108904525Y-78795474D01*
X109020350Y-78884350D01*
X109020357Y-78884355D01*
X109155246Y-78940228D01*
X109300000Y-78959285D01*
X109322653Y-78956302D01*
X109392799Y-78967240D01*
X109445899Y-79014367D01*
X109455929Y-79037406D01*
X109456612Y-79037124D01*
X109459771Y-79044752D01*
X109459772Y-79044754D01*
X109472273Y-79074933D01*
X109515644Y-79179641D01*
X109515649Y-79179649D01*
X109604525Y-79295474D01*
X109720350Y-79384350D01*
X109720357Y-79384355D01*
X109842315Y-79434871D01*
X109856781Y-79446529D01*
X109882941Y-79443874D01*
X110000000Y-79459285D01*
X110144754Y-79440228D01*
X110279643Y-79384355D01*
X110395474Y-79295474D01*
X110484355Y-79179643D01*
X110540228Y-79044754D01*
X110540228Y-79044752D01*
X110543388Y-79037124D01*
X110545631Y-79038053D01*
X110576136Y-78987998D01*
X110639994Y-78956971D01*
X110677342Y-78956302D01*
X110700000Y-78959285D01*
X110722653Y-78956302D01*
X110792799Y-78967240D01*
X110845899Y-79014367D01*
X110855929Y-79037406D01*
X110856612Y-79037124D01*
X110859771Y-79044752D01*
X110859772Y-79044754D01*
X110872273Y-79074933D01*
X110915644Y-79179641D01*
X110915649Y-79179649D01*
X111004525Y-79295474D01*
X111120350Y-79384350D01*
X111120357Y-79384355D01*
X111255246Y-79440228D01*
X111400000Y-79459285D01*
X111544754Y-79440228D01*
X111679643Y-79384355D01*
X111795474Y-79295474D01*
X111884355Y-79179643D01*
X111940228Y-79044754D01*
X111945099Y-79007749D01*
X111973820Y-78942823D01*
X112033085Y-78903730D01*
X112104076Y-78902884D01*
X112159116Y-78935100D01*
X112604252Y-79380236D01*
X112628354Y-79413992D01*
X112662500Y-79483839D01*
X112662501Y-79483841D01*
X112746158Y-79567498D01*
X112746160Y-79567499D01*
X112852450Y-79619461D01*
X112921354Y-79629500D01*
X112921360Y-79629500D01*
X113248640Y-79629500D01*
X113248646Y-79629500D01*
X113317550Y-79619461D01*
X113423840Y-79567499D01*
X113507499Y-79483840D01*
X113559461Y-79377550D01*
X113569500Y-79308646D01*
X113569500Y-79041354D01*
X113559461Y-78972450D01*
X113559459Y-78972446D01*
X113559459Y-78972444D01*
X113557993Y-78967697D01*
X113556993Y-78896707D01*
X113594532Y-78836447D01*
X113658691Y-78806047D01*
X113678377Y-78804500D01*
X113903649Y-78804500D01*
X113971770Y-78824502D01*
X113987204Y-78836189D01*
X113998183Y-78845916D01*
X114065464Y-78881227D01*
X114139778Y-78920230D01*
X114295044Y-78958500D01*
X114295045Y-78958500D01*
X114454955Y-78958500D01*
X114454956Y-78958500D01*
X114610222Y-78920230D01*
X114751818Y-78845915D01*
X114871514Y-78739873D01*
X114962355Y-78608268D01*
X115019061Y-78458747D01*
X115020288Y-78448647D01*
X115038336Y-78300002D01*
X115038336Y-78299997D01*
X115019062Y-78141257D01*
X115019061Y-78141253D01*
X115011514Y-78121354D01*
X114962355Y-77991732D01*
X114904972Y-77908599D01*
X114871515Y-77860128D01*
X114751817Y-77754084D01*
X114751813Y-77754082D01*
X114610220Y-77679769D01*
X114454957Y-77641500D01*
X114454956Y-77641500D01*
X114295044Y-77641500D01*
X114295042Y-77641500D01*
X114139779Y-77679769D01*
X113998183Y-77754083D01*
X113987204Y-77763811D01*
X113922951Y-77794013D01*
X113903649Y-77795500D01*
X113460500Y-77795500D01*
X113392379Y-77775498D01*
X113345886Y-77721842D01*
X113334500Y-77669500D01*
X113334499Y-76776500D01*
X113354501Y-76708379D01*
X113408157Y-76661886D01*
X113460499Y-76650500D01*
X114974842Y-76650500D01*
X114974976Y-76650526D01*
G37*
%TD.AperFunction*%
%TA.AperFunction,Conductor*%
G36*
X102758685Y-78111462D02*
G01*
X102815521Y-78154009D01*
X102840332Y-78220529D01*
X102839735Y-78244702D01*
X102836664Y-78270000D01*
X102836664Y-78270002D01*
X102855937Y-78428742D01*
X102855939Y-78428748D01*
X102858371Y-78435161D01*
X102863822Y-78505948D01*
X102830137Y-78568445D01*
X102768012Y-78602809D01*
X102765138Y-78603416D01*
X102730698Y-78610266D01*
X102646515Y-78666516D01*
X102590266Y-78750697D01*
X102575500Y-78824930D01*
X102575500Y-79499581D01*
X102555498Y-79567702D01*
X102549464Y-79576283D01*
X102515646Y-79620356D01*
X102515645Y-79620358D01*
X102493695Y-79673349D01*
X102459771Y-79755247D01*
X102440715Y-79899999D01*
X102440715Y-79900000D01*
X102459771Y-80044752D01*
X102515644Y-80179641D01*
X102515649Y-80179649D01*
X102551374Y-80226207D01*
X102576974Y-80292427D01*
X102575490Y-80318709D01*
X102576107Y-80318770D01*
X102575500Y-80324934D01*
X102575500Y-81075063D01*
X102575501Y-81075073D01*
X102590266Y-81149301D01*
X102590267Y-81149304D01*
X102609263Y-81177732D01*
X102630480Y-81245484D01*
X102630500Y-81247736D01*
X102630500Y-82919500D01*
X102610498Y-82987621D01*
X102556842Y-83034114D01*
X102504500Y-83045500D01*
X102406711Y-83045500D01*
X102338590Y-83025498D01*
X102317616Y-83008595D01*
X102025842Y-82716821D01*
X101991816Y-82654509D01*
X101996881Y-82583694D01*
X102038233Y-82527764D01*
X102145474Y-82445474D01*
X102163490Y-82421995D01*
X102234355Y-82329643D01*
X102290228Y-82194754D01*
X102309285Y-82050000D01*
X102307301Y-82034933D01*
X102292837Y-81925067D01*
X102290228Y-81905246D01*
X102234355Y-81770358D01*
X102222468Y-81754866D01*
X102196867Y-81688650D01*
X102197747Y-81659996D01*
X102204498Y-81613658D01*
X102204500Y-81613646D01*
X102204500Y-81286354D01*
X102194461Y-81217450D01*
X102178762Y-81185338D01*
X102166813Y-81115358D01*
X102178761Y-81074664D01*
X102194461Y-81042550D01*
X102204500Y-80973646D01*
X102204500Y-80646354D01*
X102194461Y-80577450D01*
X102142499Y-80471160D01*
X102142498Y-80471158D01*
X102116405Y-80445065D01*
X102082379Y-80382753D01*
X102079500Y-80355970D01*
X102079500Y-78738672D01*
X102099502Y-78670551D01*
X102116395Y-78649587D01*
X102625562Y-78140419D01*
X102687870Y-78106398D01*
X102758685Y-78111462D01*
G37*
%TD.AperFunction*%
%TA.AperFunction,Conductor*%
G36*
X103584199Y-81147266D02*
G01*
X103604765Y-81171000D01*
X103646517Y-81233486D01*
X103655291Y-81242260D01*
X103652799Y-81244751D01*
X103684947Y-81283203D01*
X103695427Y-81333513D01*
X103695427Y-81644500D01*
X103675425Y-81712621D01*
X103621769Y-81759114D01*
X103569427Y-81770500D01*
X103519883Y-81770500D01*
X103508903Y-81770021D01*
X103501588Y-81769381D01*
X103470839Y-81766691D01*
X103470838Y-81766691D01*
X103470836Y-81766691D01*
X103448107Y-81772781D01*
X103377130Y-81771089D01*
X103318336Y-81731292D01*
X103290391Y-81666027D01*
X103289500Y-81651073D01*
X103289500Y-81343585D01*
X103309502Y-81275464D01*
X103345500Y-81238819D01*
X103347541Y-81237454D01*
X103353484Y-81233484D01*
X103395235Y-81170999D01*
X103449712Y-81125472D01*
X103520156Y-81116625D01*
X103584199Y-81147266D01*
G37*
%TD.AperFunction*%
%TA.AperFunction,Conductor*%
G36*
X107367621Y-76670502D02*
G01*
X107414114Y-76724158D01*
X107425500Y-76776500D01*
X107425501Y-77629500D01*
X107405499Y-77697621D01*
X107351843Y-77744114D01*
X107299501Y-77755500D01*
X103960064Y-77755500D01*
X103891943Y-77735498D01*
X103877414Y-77724496D01*
X103876820Y-77724086D01*
X103876818Y-77724085D01*
X103876815Y-77724083D01*
X103876813Y-77724082D01*
X103735220Y-77649769D01*
X103579957Y-77611500D01*
X103579956Y-77611500D01*
X103458672Y-77611500D01*
X103390551Y-77591498D01*
X103344058Y-77537842D01*
X103333954Y-77467568D01*
X103363448Y-77402988D01*
X103369560Y-77396421D01*
X103618947Y-77147034D01*
X103627017Y-77139639D01*
X103656305Y-77115066D01*
X103675422Y-77081952D01*
X103681305Y-77072718D01*
X103703235Y-77041401D01*
X103703236Y-77041398D01*
X103705617Y-77036291D01*
X103712471Y-77019745D01*
X103714402Y-77014437D01*
X103714405Y-77014434D01*
X103715083Y-77010592D01*
X103721041Y-76976797D01*
X103723415Y-76966081D01*
X103733309Y-76929161D01*
X103733308Y-76929160D01*
X103733839Y-76927182D01*
X103770792Y-76866561D01*
X103834654Y-76835541D01*
X103905148Y-76843972D01*
X103959894Y-76889176D01*
X103964663Y-76896794D01*
X104044214Y-77034580D01*
X104171438Y-77175877D01*
X104325259Y-77287635D01*
X104498955Y-77364969D01*
X104684933Y-77404500D01*
X104875067Y-77404500D01*
X105061045Y-77364969D01*
X105234741Y-77287635D01*
X105388562Y-77175877D01*
X105515786Y-77034580D01*
X105610853Y-76869920D01*
X105653848Y-76737594D01*
X105693922Y-76678989D01*
X105737176Y-76660709D01*
X105736924Y-76660098D01*
X105736982Y-76660074D01*
X105740186Y-76659437D01*
X105759318Y-76651352D01*
X105773604Y-76650531D01*
X105785023Y-76650524D01*
X105785023Y-76650526D01*
X105785158Y-76650500D01*
X107299500Y-76650500D01*
X107367621Y-76670502D01*
G37*
%TD.AperFunction*%
%TD*%
M02*
