%TF.GenerationSoftware,KiCad,Pcbnew,7.0.10*%
%TF.CreationDate,2024-04-07T01:49:58-04:00*%
%TF.ProjectId,pixie-rev-4,70697869-652d-4726-9576-2d342e6b6963,rev?*%
%TF.SameCoordinates,Original*%
%TF.FileFunction,Copper,L3,Inr*%
%TF.FilePolarity,Positive*%
%FSLAX46Y46*%
G04 Gerber Fmt 4.6, Leading zero omitted, Abs format (unit mm)*
G04 Created by KiCad (PCBNEW 7.0.10) date 2024-04-07 01:49:58*
%MOMM*%
%LPD*%
G01*
G04 APERTURE LIST*
%TA.AperFunction,ComponentPad*%
%ADD10O,1.300000X2.100000*%
%TD*%
%TA.AperFunction,ComponentPad*%
%ADD11O,1.300000X2.500000*%
%TD*%
%TA.AperFunction,ComponentPad*%
%ADD12R,0.900000X0.500000*%
%TD*%
%TA.AperFunction,ViaPad*%
%ADD13C,0.600000*%
%TD*%
%TA.AperFunction,ViaPad*%
%ADD14C,0.808000*%
%TD*%
%TA.AperFunction,Conductor*%
%ADD15C,0.150000*%
%TD*%
%TA.AperFunction,Conductor*%
%ADD16C,0.300000*%
%TD*%
G04 APERTURE END LIST*
D10*
%TO.N,unconnected-(J1-SHEILD-PadS1)*%
%TO.C,J1*%
X115980000Y-76100000D03*
D11*
%TO.N,unconnected-(J1-SHEILD-PadS2)*%
X116000000Y-72100000D03*
D10*
%TO.N,unconnected-(J1-SHEILD-PadS3)*%
X104780000Y-76100000D03*
D11*
%TO.N,unconnected-(J1-SHEILD-PadS4)*%
X104760000Y-72100000D03*
%TD*%
D12*
%TO.N,GND*%
%TO.C,AE1*%
X101500000Y-94550000D03*
%TD*%
D13*
%TO.N,GND*%
X105050000Y-82750000D03*
X105250000Y-91425000D03*
X101450000Y-83850000D03*
D14*
X128500000Y-72300000D03*
D13*
X114500000Y-94500000D03*
X100500000Y-92800000D03*
X102380498Y-78950000D03*
X116525500Y-90550000D03*
X120500000Y-79200000D03*
X100500000Y-89400000D03*
X117650000Y-90800000D03*
X100500000Y-87700000D03*
X104650000Y-83500000D03*
X132050000Y-88500000D03*
X100500000Y-80900000D03*
X106700000Y-91325000D03*
X105600000Y-94500000D03*
X115600000Y-94500000D03*
X108325000Y-87825000D03*
X139500000Y-96500000D03*
X102300000Y-93700000D03*
X113410000Y-80700000D03*
X138299999Y-70500000D03*
X107300000Y-85050000D03*
X102350000Y-83950000D03*
X139500000Y-83000000D03*
X100500000Y-91100000D03*
X120850000Y-83350000D03*
X106400000Y-77280000D03*
X102800000Y-89500000D03*
X131700000Y-92800000D03*
X111220000Y-90280000D03*
X110075000Y-94500000D03*
X113400000Y-94500000D03*
X118800000Y-83900000D03*
X101800000Y-89500000D03*
X104360000Y-91560000D03*
X101275000Y-88700000D03*
X108650000Y-92150000D03*
X118900000Y-87350000D03*
X100500000Y-93700000D03*
X104525000Y-92625000D03*
X103600000Y-92900000D03*
X105225000Y-92150000D03*
X102900000Y-84800000D03*
X139500000Y-94000000D03*
X106400000Y-86975000D03*
X118750000Y-82300000D03*
X100500000Y-86000000D03*
X128000000Y-78450000D03*
X116700000Y-94500000D03*
X102435500Y-81400000D03*
X128250000Y-83300000D03*
X104500000Y-94500000D03*
X100518219Y-94527124D03*
X107825000Y-92400000D03*
X108900000Y-94500000D03*
X107240000Y-92960000D03*
X102410355Y-82405576D03*
X108057133Y-89914906D03*
X104850000Y-81150000D03*
X105400000Y-83950000D03*
X104750000Y-81950000D03*
X125150000Y-90450000D03*
X103600000Y-85150000D03*
X111200000Y-93500000D03*
X126400000Y-94500000D03*
X130650000Y-72450000D03*
X105950000Y-93900000D03*
X103000000Y-93600000D03*
X100500000Y-84300000D03*
X107300000Y-85925000D03*
X124150000Y-75050000D03*
X102500000Y-90700000D03*
X120600000Y-70500000D03*
X104800000Y-74200000D03*
X107275000Y-86950000D03*
X106700000Y-94500000D03*
X116450000Y-79750000D03*
X108700000Y-93300000D03*
X139500000Y-72400000D03*
X125900000Y-70500000D03*
D14*
X118400000Y-71400000D03*
D13*
X130500000Y-82000000D03*
X111200000Y-94500000D03*
X124900000Y-83500000D03*
X127250000Y-86500000D03*
X101400000Y-93700000D03*
X109175000Y-85925000D03*
X120800000Y-91550000D03*
X114730000Y-80330000D03*
X102380498Y-80450000D03*
X115100000Y-87025000D03*
X100500000Y-70700000D03*
X105300000Y-89500000D03*
X135550000Y-92050000D03*
X129300000Y-91300000D03*
X107500000Y-91600000D03*
X124550000Y-79350000D03*
X119900000Y-94500000D03*
X118500000Y-92200000D03*
X111850000Y-84025000D03*
X109900000Y-92700000D03*
X123000000Y-91400000D03*
X139500000Y-90000000D03*
X102600000Y-94429978D03*
X103400000Y-70500000D03*
X108300000Y-85925000D03*
X116600000Y-77500000D03*
X106400000Y-85925000D03*
X112600000Y-87025000D03*
X132050000Y-95500000D03*
X111274204Y-81816717D03*
X130500000Y-74500000D03*
X104760000Y-90780000D03*
X116650000Y-81250000D03*
X124800000Y-88400000D03*
X109175000Y-86950000D03*
D14*
X126350000Y-92950000D03*
D13*
X103500000Y-88800000D03*
X121900000Y-73100000D03*
X115650000Y-79200000D03*
X104100000Y-82800000D03*
X123200000Y-86300000D03*
X120900000Y-87400000D03*
X112300000Y-94500000D03*
X116100000Y-93800000D03*
X105100000Y-79850000D03*
X105050000Y-94100000D03*
X103500000Y-81500000D03*
X106550000Y-93425000D03*
X117100000Y-74000000D03*
X113900000Y-87025000D03*
X114380000Y-77280000D03*
X108300000Y-85050000D03*
X105300000Y-88870000D03*
X119300000Y-75300000D03*
X130100000Y-70500000D03*
X113500000Y-84025000D03*
X116550000Y-86300000D03*
X107800000Y-94500000D03*
X128250000Y-88200000D03*
X139500000Y-87000000D03*
X108300000Y-86975000D03*
X103700000Y-86100000D03*
X139500000Y-80000000D03*
%TO.N,/SW_4*%
X135400000Y-94000000D03*
X108859122Y-89940878D03*
D14*
%TO.N,/PIXEL*%
X124850000Y-71400000D03*
D13*
X115100000Y-84700000D03*
%TO.N,/SW_3*%
X119000000Y-89450000D03*
X134600000Y-89100000D03*
D14*
%TO.N,5V*%
X129580000Y-92950000D03*
X103500000Y-78270000D03*
X114375000Y-78300000D03*
D13*
%TO.N,3V3*%
X111179617Y-87124045D03*
X109960000Y-84020000D03*
X109125000Y-91425000D03*
X110545000Y-89200000D03*
X103450000Y-91125000D03*
%TO.N,/MCU/CHIP_PU*%
X114720000Y-92700000D03*
X109800000Y-89750000D03*
%TO.N,/Power/USB_D+*%
X110700000Y-78400000D03*
X109300000Y-78400000D03*
X103000000Y-79900000D03*
%TO.N,/Power/USB_D-*%
X110000000Y-78900000D03*
X111400000Y-78900000D03*
X104000000Y-79900000D03*
%TO.N,/MCU/DISP_DC*%
X119350000Y-86200000D03*
X115350000Y-88083128D03*
%TO.N,/MCU/FLASH_CS0*%
X112515500Y-89850000D03*
X107550000Y-82875000D03*
%TO.N,/MCU/FLASH_IO0*%
X106475000Y-80340000D03*
X115805000Y-81530000D03*
%TO.N,/MCU/FLASH_IO2*%
X108720000Y-80580000D03*
X115055500Y-89850000D03*
%TO.N,/MCU/FLASH_CLK*%
X114550000Y-81525000D03*
X107225000Y-80610000D03*
%TO.N,/MCU/FLASH_IO1*%
X113785500Y-89850000D03*
X105730000Y-80610000D03*
%TO.N,/MCU/FLASH_IO3*%
X109480000Y-80521770D03*
X113275000Y-81540000D03*
%TO.N,Net-(J2-LEDK)*%
X119900000Y-72650000D03*
X119900000Y-77000000D03*
%TO.N,Net-(U4-U0TXD{slash}GPIO21)*%
X101750000Y-82050000D03*
X104450000Y-85950000D03*
%TO.N,/MCU/SW_1*%
X135800000Y-87500000D03*
X115975000Y-84700000D03*
%TO.N,/MCU/SW_2*%
X135200000Y-88300000D03*
X115100000Y-85500000D03*
%TD*%
D15*
%TO.N,/SW_4*%
X135375000Y-93975000D02*
X117425000Y-93975000D01*
X117425000Y-93975000D02*
X116725000Y-93275000D01*
X116725000Y-93275000D02*
X112193244Y-93275000D01*
X112193244Y-93275000D02*
X108859122Y-89940878D01*
X135400000Y-94000000D02*
X135375000Y-93975000D01*
%TO.N,/PIXEL*%
X124850000Y-71400000D02*
X122700000Y-73550000D01*
X119100000Y-83100000D02*
X116700000Y-83100000D01*
X122700000Y-73550000D02*
X122700000Y-79500000D01*
X116700000Y-83100000D02*
X115100000Y-84700000D01*
X122700000Y-79500000D02*
X119100000Y-83100000D01*
%TO.N,/SW_3*%
X133825000Y-89450000D02*
X134175000Y-89100000D01*
X134175000Y-89100000D02*
X134600000Y-89100000D01*
X119000000Y-89450000D02*
X133825000Y-89450000D01*
%TO.N,/MCU/CHIP_PU*%
X112750000Y-92700000D02*
X109800000Y-89750000D01*
X114720000Y-92700000D02*
X112750000Y-92700000D01*
%TO.N,/Power/USB_D+*%
X110675000Y-78375000D02*
X109325000Y-78375000D01*
X104114500Y-78785500D02*
X104114500Y-78775500D01*
X103000000Y-79900000D02*
X104114500Y-78785500D01*
X104114500Y-78775500D02*
X104490000Y-78400000D01*
X109325000Y-78375000D02*
X109300000Y-78400000D01*
X110700000Y-78400000D02*
X110675000Y-78375000D01*
X104490000Y-78400000D02*
X109300000Y-78400000D01*
%TO.N,/Power/USB_D-*%
X111375000Y-78925000D02*
X110025000Y-78925000D01*
X110025000Y-78925000D02*
X110000000Y-78900000D01*
X109390000Y-79090000D02*
X109580000Y-78900000D01*
X104000000Y-79900000D02*
X104810000Y-79090000D01*
X104810000Y-79090000D02*
X109390000Y-79090000D01*
X109580000Y-78900000D02*
X110000000Y-78900000D01*
X111400000Y-78900000D02*
X111375000Y-78925000D01*
%TO.N,/MCU/DISP_DC*%
X119350000Y-86200000D02*
X118150000Y-86200000D01*
X118150000Y-86200000D02*
X116266872Y-88083128D01*
X116266872Y-88083128D02*
X115350000Y-88083128D01*
%TO.N,/MCU/FLASH_CS0*%
X112000000Y-89334500D02*
X112000000Y-84975000D01*
X112000000Y-84975000D02*
X109900000Y-82875000D01*
X109900000Y-82875000D02*
X107550000Y-82875000D01*
X112515500Y-89850000D02*
X112000000Y-89334500D01*
%TO.N,/MCU/FLASH_IO0*%
X107190000Y-79625000D02*
X106475000Y-80340000D01*
X114835000Y-79625000D02*
X107190000Y-79625000D01*
X115805000Y-80595000D02*
X114835000Y-79625000D01*
X115805000Y-81530000D02*
X115805000Y-80595000D01*
%TO.N,/MCU/FLASH_IO2*%
X109186770Y-81046770D02*
X108720000Y-80580000D01*
X111296770Y-81046770D02*
X109186770Y-81046770D01*
X114450000Y-89244500D02*
X114450000Y-84200000D01*
X114450000Y-84200000D02*
X111296770Y-81046770D01*
X115055500Y-89850000D02*
X114450000Y-89244500D01*
%TO.N,/MCU/FLASH_CLK*%
X113546770Y-79996770D02*
X107838230Y-79996770D01*
X114550000Y-81000000D02*
X113546770Y-79996770D01*
X107838230Y-79996770D02*
X107225000Y-80610000D01*
X114550000Y-81525000D02*
X114550000Y-81000000D01*
%TO.N,/MCU/FLASH_IO1*%
X110300000Y-81675000D02*
X106795000Y-81675000D01*
X113275000Y-84650000D02*
X110300000Y-81675000D01*
X106795000Y-81675000D02*
X105730000Y-80610000D01*
X113785500Y-89850000D02*
X113275000Y-89339500D01*
X113275000Y-89339500D02*
X113275000Y-84650000D01*
%TO.N,/MCU/FLASH_IO3*%
X112256770Y-80521770D02*
X113275000Y-81540000D01*
X109480000Y-80521770D02*
X112256770Y-80521770D01*
D16*
%TO.N,Net-(J2-LEDK)*%
X119900000Y-77000000D02*
X119900000Y-72650000D01*
D15*
%TO.N,Net-(U4-U0TXD{slash}GPIO21)*%
X101750000Y-82500000D02*
X104450000Y-85200000D01*
X104450000Y-85200000D02*
X104450000Y-85950000D01*
X101750000Y-82050000D02*
X101750000Y-82500000D01*
%TO.N,/MCU/SW_1*%
X135800000Y-87500000D02*
X134200000Y-87500000D01*
X134200000Y-87500000D02*
X131400000Y-84700000D01*
X131400000Y-84700000D02*
X115975000Y-84700000D01*
%TO.N,/MCU/SW_2*%
X133450000Y-88300000D02*
X130650000Y-85500000D01*
X135200000Y-88300000D02*
X133450000Y-88300000D01*
X130650000Y-85500000D02*
X115100000Y-85500000D01*
%TD*%
%TA.AperFunction,Conductor*%
%TO.N,GND*%
G36*
X111176218Y-81396272D02*
G01*
X111197192Y-81413175D01*
X114083595Y-84299578D01*
X114117621Y-84361890D01*
X114120500Y-84388673D01*
X114120500Y-89200002D01*
X114100498Y-89268123D01*
X114046842Y-89314616D01*
X113976568Y-89324720D01*
X113946284Y-89316412D01*
X113930252Y-89309771D01*
X113785501Y-89290715D01*
X113785500Y-89290715D01*
X113764650Y-89293459D01*
X113694502Y-89282516D01*
X113659114Y-89257631D01*
X113641405Y-89239922D01*
X113607379Y-89177610D01*
X113604500Y-89150827D01*
X113604500Y-84669869D01*
X113604980Y-84658886D01*
X113608309Y-84620839D01*
X113608308Y-84620836D01*
X113598419Y-84583930D01*
X113596039Y-84573193D01*
X113589406Y-84535570D01*
X113587486Y-84530296D01*
X113580599Y-84513668D01*
X113578235Y-84508598D01*
X113556316Y-84477296D01*
X113550417Y-84468037D01*
X113531305Y-84434934D01*
X113502024Y-84410364D01*
X113493922Y-84402939D01*
X110682348Y-81591365D01*
X110648322Y-81529053D01*
X110653387Y-81458238D01*
X110695934Y-81401402D01*
X110762454Y-81376591D01*
X110771443Y-81376270D01*
X111108097Y-81376270D01*
X111176218Y-81396272D01*
G37*
%TD.AperFunction*%
%TA.AperFunction,Conductor*%
G36*
X117818447Y-85849502D02*
G01*
X117864940Y-85903158D01*
X117875044Y-85973432D01*
X117845550Y-86038012D01*
X117839421Y-86044595D01*
X116167294Y-87716723D01*
X116104982Y-87750748D01*
X116078199Y-87753628D01*
X115858234Y-87753628D01*
X115790113Y-87733626D01*
X115758272Y-87704333D01*
X115745474Y-87687654D01*
X115745472Y-87687652D01*
X115745471Y-87687651D01*
X115629649Y-87598777D01*
X115629641Y-87598772D01*
X115494752Y-87542899D01*
X115350000Y-87523843D01*
X115205247Y-87542899D01*
X115137802Y-87570836D01*
X115070358Y-87598773D01*
X115070357Y-87598774D01*
X115070356Y-87598774D01*
X114982204Y-87666416D01*
X114915983Y-87692016D01*
X114846435Y-87677751D01*
X114795639Y-87628150D01*
X114779500Y-87566453D01*
X114779500Y-86156003D01*
X114799502Y-86087882D01*
X114853158Y-86041389D01*
X114923432Y-86031285D01*
X114953717Y-86039595D01*
X114955246Y-86040228D01*
X115100000Y-86059285D01*
X115244754Y-86040228D01*
X115379643Y-85984355D01*
X115495474Y-85895474D01*
X115508272Y-85878795D01*
X115565609Y-85836929D01*
X115608234Y-85829500D01*
X117750326Y-85829500D01*
X117818447Y-85849502D01*
G37*
%TD.AperFunction*%
%TA.AperFunction,Conductor*%
G36*
X113426218Y-80346272D02*
G01*
X113447192Y-80363175D01*
X114102014Y-81017997D01*
X114136040Y-81080309D01*
X114130975Y-81151124D01*
X114112883Y-81183794D01*
X114065648Y-81245352D01*
X114065642Y-81245363D01*
X114025801Y-81341547D01*
X113981253Y-81396828D01*
X113913889Y-81419248D01*
X113845098Y-81401689D01*
X113796720Y-81349727D01*
X113792993Y-81341568D01*
X113759355Y-81260358D01*
X113670474Y-81144526D01*
X113670472Y-81144524D01*
X113670471Y-81144523D01*
X113554649Y-81055649D01*
X113554641Y-81055644D01*
X113419752Y-80999771D01*
X113275001Y-80980715D01*
X113275000Y-80980715D01*
X113254150Y-80983459D01*
X113184002Y-80972516D01*
X113148614Y-80947631D01*
X112742348Y-80541365D01*
X112708322Y-80479053D01*
X112713387Y-80408238D01*
X112755934Y-80351402D01*
X112822454Y-80326591D01*
X112831443Y-80326270D01*
X113358097Y-80326270D01*
X113426218Y-80346272D01*
G37*
%TD.AperFunction*%
%TA.AperFunction,Conductor*%
G36*
X114714448Y-79974502D02*
G01*
X114735422Y-79991405D01*
X115438595Y-80694578D01*
X115472621Y-80756890D01*
X115475500Y-80783673D01*
X115475500Y-81021766D01*
X115455498Y-81089887D01*
X115426208Y-81121725D01*
X115416046Y-81129523D01*
X115409526Y-81134526D01*
X115320646Y-81250356D01*
X115320643Y-81250361D01*
X115294943Y-81312406D01*
X115250394Y-81367686D01*
X115183030Y-81390106D01*
X115114239Y-81372547D01*
X115065862Y-81320584D01*
X115062127Y-81312406D01*
X115034355Y-81245358D01*
X115034351Y-81245353D01*
X115034350Y-81245351D01*
X114975982Y-81169285D01*
X114945474Y-81129526D01*
X114944046Y-81128430D01*
X114929047Y-81116920D01*
X114887181Y-81059581D01*
X114880234Y-81005979D01*
X114883309Y-80970839D01*
X114873418Y-80933927D01*
X114871039Y-80923193D01*
X114864406Y-80885570D01*
X114862486Y-80880296D01*
X114855599Y-80863668D01*
X114853235Y-80858598D01*
X114831316Y-80827296D01*
X114825417Y-80818037D01*
X114806305Y-80784934D01*
X114777024Y-80760364D01*
X114768922Y-80752939D01*
X114185578Y-80169595D01*
X114151552Y-80107283D01*
X114156617Y-80036468D01*
X114199164Y-79979632D01*
X114265684Y-79954821D01*
X114274673Y-79954500D01*
X114646327Y-79954500D01*
X114714448Y-79974502D01*
G37*
%TD.AperFunction*%
%TA.AperFunction,Conductor*%
G36*
X105701621Y-70020502D02*
G01*
X105748114Y-70074158D01*
X105759500Y-70126500D01*
X105759500Y-70951947D01*
X105739498Y-71020068D01*
X105685842Y-71066561D01*
X105615568Y-71076665D01*
X105550988Y-71047171D01*
X105524381Y-71014948D01*
X105518925Y-71005498D01*
X105495786Y-70965420D01*
X105368562Y-70824123D01*
X105252862Y-70740062D01*
X105214741Y-70712365D01*
X105041045Y-70635031D01*
X104855067Y-70595500D01*
X104664933Y-70595500D01*
X104478954Y-70635031D01*
X104305258Y-70712365D01*
X104151438Y-70824122D01*
X104024215Y-70965418D01*
X104024214Y-70965420D01*
X104001075Y-71005498D01*
X103929148Y-71130077D01*
X103870391Y-71310908D01*
X103855500Y-71452593D01*
X103855500Y-72747406D01*
X103870391Y-72889091D01*
X103888185Y-72943854D01*
X103927872Y-73065997D01*
X103929148Y-73069922D01*
X103941885Y-73091982D01*
X104024214Y-73234580D01*
X104151438Y-73375877D01*
X104305259Y-73487635D01*
X104478955Y-73564969D01*
X104664933Y-73604500D01*
X104855067Y-73604500D01*
X105041045Y-73564969D01*
X105214741Y-73487635D01*
X105368562Y-73375877D01*
X105495786Y-73234580D01*
X105524381Y-73185051D01*
X105575764Y-73136059D01*
X105645477Y-73122623D01*
X105711388Y-73149009D01*
X105752570Y-73206842D01*
X105759500Y-73248052D01*
X105759500Y-75117306D01*
X105739498Y-75185427D01*
X105685842Y-75231920D01*
X105615568Y-75242024D01*
X105550988Y-75212530D01*
X105524382Y-75180309D01*
X105515786Y-75165420D01*
X105388562Y-75024123D01*
X105336207Y-74986085D01*
X105234741Y-74912365D01*
X105061045Y-74835031D01*
X104875067Y-74795500D01*
X104684933Y-74795500D01*
X104498954Y-74835031D01*
X104325258Y-74912365D01*
X104171438Y-75024122D01*
X104044215Y-75165418D01*
X104044214Y-75165420D01*
X104035618Y-75180309D01*
X103949148Y-75330077D01*
X103890391Y-75510908D01*
X103875500Y-75652593D01*
X103875500Y-76547406D01*
X103890391Y-76689091D01*
X103910552Y-76751139D01*
X103949147Y-76869920D01*
X104044214Y-77034580D01*
X104171438Y-77175877D01*
X104325259Y-77287635D01*
X104498955Y-77364969D01*
X104684933Y-77404500D01*
X104875067Y-77404500D01*
X105061045Y-77364969D01*
X105234741Y-77287635D01*
X105388562Y-77175877D01*
X105515786Y-77034580D01*
X105610853Y-76869920D01*
X105653848Y-76737594D01*
X105693922Y-76678989D01*
X105737176Y-76660709D01*
X105736924Y-76660098D01*
X105736982Y-76660074D01*
X105740186Y-76659437D01*
X105759318Y-76651352D01*
X105773604Y-76650531D01*
X105785023Y-76650524D01*
X105785023Y-76650526D01*
X105785158Y-76650500D01*
X114974842Y-76650500D01*
X114974976Y-76650526D01*
X114974977Y-76650524D01*
X114986395Y-76650531D01*
X115010095Y-76657505D01*
X115023018Y-76660074D01*
X115023076Y-76660098D01*
X115022623Y-76661192D01*
X115054504Y-76670575D01*
X115100964Y-76724259D01*
X115106151Y-76737594D01*
X115110552Y-76751139D01*
X115149147Y-76869920D01*
X115244214Y-77034580D01*
X115371438Y-77175877D01*
X115525259Y-77287635D01*
X115698955Y-77364969D01*
X115884933Y-77404500D01*
X116075067Y-77404500D01*
X116261045Y-77364969D01*
X116434741Y-77287635D01*
X116588562Y-77175877D01*
X116715786Y-77034580D01*
X116735751Y-77000000D01*
X119340715Y-77000000D01*
X119359771Y-77144752D01*
X119415644Y-77279641D01*
X119415649Y-77279649D01*
X119504525Y-77395474D01*
X119616042Y-77481044D01*
X119620357Y-77484355D01*
X119755246Y-77540228D01*
X119900000Y-77559285D01*
X120044754Y-77540228D01*
X120179643Y-77484355D01*
X120295474Y-77395474D01*
X120384355Y-77279643D01*
X120440228Y-77144754D01*
X120459285Y-77000000D01*
X120440228Y-76855246D01*
X120384355Y-76720358D01*
X120384350Y-76720351D01*
X120330537Y-76650219D01*
X120304937Y-76583998D01*
X120304500Y-76573516D01*
X120304500Y-73076482D01*
X120324502Y-73008361D01*
X120330529Y-72999788D01*
X120384355Y-72929643D01*
X120440228Y-72794754D01*
X120459285Y-72650000D01*
X120440228Y-72505246D01*
X120384355Y-72370358D01*
X120295474Y-72254526D01*
X120295472Y-72254524D01*
X120295471Y-72254523D01*
X120179649Y-72165649D01*
X120179641Y-72165644D01*
X120044752Y-72109771D01*
X119900000Y-72090715D01*
X119755247Y-72109771D01*
X119687802Y-72137708D01*
X119620358Y-72165645D01*
X119620357Y-72165646D01*
X119620356Y-72165646D01*
X119504526Y-72254526D01*
X119415646Y-72370356D01*
X119415645Y-72370358D01*
X119387708Y-72437802D01*
X119359771Y-72505247D01*
X119340715Y-72649999D01*
X119340715Y-72650000D01*
X119359771Y-72794752D01*
X119392403Y-72873531D01*
X119415645Y-72929643D01*
X119469462Y-72999778D01*
X119495063Y-73065997D01*
X119495500Y-73076482D01*
X119495500Y-76573516D01*
X119475498Y-76641637D01*
X119469463Y-76650219D01*
X119415649Y-76720351D01*
X119415646Y-76720356D01*
X119415645Y-76720358D01*
X119402895Y-76751139D01*
X119359771Y-76855247D01*
X119340715Y-76999999D01*
X119340715Y-77000000D01*
X116735751Y-77000000D01*
X116810853Y-76869920D01*
X116869608Y-76689092D01*
X116884500Y-76547401D01*
X116884500Y-75652599D01*
X116869608Y-75510908D01*
X116810853Y-75330080D01*
X116715786Y-75165420D01*
X116588562Y-75024123D01*
X116536207Y-74986085D01*
X116434741Y-74912365D01*
X116261045Y-74835031D01*
X116075067Y-74795500D01*
X115884933Y-74795500D01*
X115698954Y-74835031D01*
X115525258Y-74912365D01*
X115371438Y-75024122D01*
X115244215Y-75165418D01*
X115244214Y-75165420D01*
X115235618Y-75180309D01*
X115184234Y-75229301D01*
X115114520Y-75242735D01*
X115048609Y-75216347D01*
X115007429Y-75158514D01*
X115000500Y-75117306D01*
X115000500Y-73248052D01*
X115020502Y-73179931D01*
X115074158Y-73133438D01*
X115144432Y-73123334D01*
X115209012Y-73152828D01*
X115235618Y-73185051D01*
X115264214Y-73234580D01*
X115391438Y-73375877D01*
X115545259Y-73487635D01*
X115718955Y-73564969D01*
X115904933Y-73604500D01*
X116095067Y-73604500D01*
X116281045Y-73564969D01*
X116454741Y-73487635D01*
X116608562Y-73375877D01*
X116735786Y-73234580D01*
X116830853Y-73069920D01*
X116889608Y-72889092D01*
X116904500Y-72747401D01*
X116904500Y-71452599D01*
X116889608Y-71310908D01*
X116830853Y-71130080D01*
X116735786Y-70965420D01*
X116608562Y-70824123D01*
X116492862Y-70740062D01*
X116454741Y-70712365D01*
X116281045Y-70635031D01*
X116095067Y-70595500D01*
X115904933Y-70595500D01*
X115718954Y-70635031D01*
X115545258Y-70712365D01*
X115391438Y-70824122D01*
X115264215Y-70965418D01*
X115264214Y-70965419D01*
X115235619Y-71014948D01*
X115184235Y-71063941D01*
X115114522Y-71077376D01*
X115048611Y-71050989D01*
X115007430Y-70993156D01*
X115000500Y-70951947D01*
X115000500Y-70126500D01*
X115020502Y-70058379D01*
X115074158Y-70011886D01*
X115126500Y-70000500D01*
X131085295Y-70000500D01*
X131153416Y-70020502D01*
X131199909Y-70074158D01*
X131207000Y-70093885D01*
X131222942Y-70153378D01*
X131233607Y-70193183D01*
X131233610Y-70193190D01*
X131299497Y-70307310D01*
X131299505Y-70307320D01*
X131392679Y-70400494D01*
X131392684Y-70400498D01*
X131392686Y-70400500D01*
X131392687Y-70400501D01*
X131392689Y-70400502D01*
X131433294Y-70423945D01*
X131506814Y-70466392D01*
X131634108Y-70500500D01*
X131634110Y-70500500D01*
X131774150Y-70500500D01*
X131774150Y-70503335D01*
X131830649Y-70512134D01*
X131883758Y-70559251D01*
X131902962Y-70627601D01*
X131902677Y-70634726D01*
X131897367Y-70712365D01*
X131895619Y-70737921D01*
X131926408Y-70886085D01*
X131926409Y-70886088D01*
X131996028Y-71020445D01*
X131996030Y-71020448D01*
X132050975Y-71079280D01*
X132099320Y-71131044D01*
X132171239Y-71174779D01*
X132228618Y-71209672D01*
X132374333Y-71250500D01*
X132374335Y-71250500D01*
X132487658Y-71250500D01*
X132487671Y-71250499D01*
X132599915Y-71235071D01*
X132599916Y-71235070D01*
X132599920Y-71235070D01*
X132738720Y-71174780D01*
X132747797Y-71167395D01*
X132813259Y-71139919D01*
X132883186Y-71152196D01*
X132892784Y-71157475D01*
X132978618Y-71209672D01*
X133124333Y-71250500D01*
X133124335Y-71250500D01*
X133237658Y-71250500D01*
X133237671Y-71250499D01*
X133349915Y-71235071D01*
X133349916Y-71235070D01*
X133349920Y-71235070D01*
X133488720Y-71174780D01*
X133497797Y-71167395D01*
X133563259Y-71139919D01*
X133633186Y-71152196D01*
X133642784Y-71157475D01*
X133728618Y-71209672D01*
X133874333Y-71250500D01*
X133874335Y-71250500D01*
X133987658Y-71250500D01*
X133987671Y-71250499D01*
X134099915Y-71235071D01*
X134099916Y-71235070D01*
X134099920Y-71235070D01*
X134238720Y-71174780D01*
X134247797Y-71167395D01*
X134313259Y-71139919D01*
X134383186Y-71152196D01*
X134392784Y-71157475D01*
X134478618Y-71209672D01*
X134624333Y-71250500D01*
X134624335Y-71250500D01*
X134737658Y-71250500D01*
X134737671Y-71250499D01*
X134849915Y-71235071D01*
X134849916Y-71235070D01*
X134849920Y-71235070D01*
X134988720Y-71174780D01*
X134997797Y-71167395D01*
X135063259Y-71139919D01*
X135133186Y-71152196D01*
X135142784Y-71157475D01*
X135228618Y-71209672D01*
X135374333Y-71250500D01*
X135374335Y-71250500D01*
X135487658Y-71250500D01*
X135487671Y-71250499D01*
X135599915Y-71235071D01*
X135599916Y-71235070D01*
X135599920Y-71235070D01*
X135738720Y-71174780D01*
X135738721Y-71174778D01*
X135738723Y-71174778D01*
X135738725Y-71174776D01*
X135759991Y-71157475D01*
X135856108Y-71079278D01*
X135943377Y-70955647D01*
X135994054Y-70813056D01*
X136004381Y-70662079D01*
X136002310Y-70652112D01*
X136008033Y-70581347D01*
X136051107Y-70524910D01*
X136117855Y-70500719D01*
X136125850Y-70501012D01*
X136125850Y-70500500D01*
X136265890Y-70500500D01*
X136265892Y-70500500D01*
X136393186Y-70466392D01*
X136507314Y-70400500D01*
X136600500Y-70307314D01*
X136666392Y-70193186D01*
X136692998Y-70093888D01*
X136729950Y-70033266D01*
X136793810Y-70002245D01*
X136814705Y-70000500D01*
X138994493Y-70000500D01*
X139005474Y-70000979D01*
X139013300Y-70001663D01*
X139044887Y-70004427D01*
X139046124Y-70004542D01*
X139171603Y-70016901D01*
X139191847Y-70020584D01*
X139256419Y-70037886D01*
X139260252Y-70038981D01*
X139351432Y-70066640D01*
X139368092Y-70073014D01*
X139426329Y-70100171D01*
X139433794Y-70103652D01*
X139439939Y-70106724D01*
X139518940Y-70148951D01*
X139531812Y-70156858D01*
X139543337Y-70164928D01*
X139592829Y-70199583D01*
X139600491Y-70205396D01*
X139668383Y-70261113D01*
X139677545Y-70269418D01*
X139730580Y-70322453D01*
X139738885Y-70331615D01*
X139794602Y-70399507D01*
X139800415Y-70407169D01*
X139843138Y-70468183D01*
X139851047Y-70481058D01*
X139893274Y-70560059D01*
X139896346Y-70566204D01*
X139926982Y-70631902D01*
X139933362Y-70648577D01*
X139960996Y-70739674D01*
X139962129Y-70743640D01*
X139979412Y-70808144D01*
X139983098Y-70828404D01*
X139995456Y-70953874D01*
X139995583Y-70955239D01*
X139999020Y-70994513D01*
X139999500Y-71005498D01*
X139999500Y-72686260D01*
X139979498Y-72754381D01*
X139925842Y-72800874D01*
X139901540Y-72809100D01*
X139833655Y-72824595D01*
X139833650Y-72824596D01*
X139833649Y-72824597D01*
X139833647Y-72824597D01*
X139833644Y-72824599D01*
X139732037Y-72873530D01*
X139732035Y-72873531D01*
X139643854Y-72943854D01*
X139573531Y-73032035D01*
X139573530Y-73032037D01*
X139524599Y-73133644D01*
X139524597Y-73133649D01*
X139499500Y-73243605D01*
X139499500Y-73356394D01*
X139499838Y-73359395D01*
X139499500Y-73361324D01*
X139499500Y-73363469D01*
X139499124Y-73363469D01*
X139487587Y-73429327D01*
X139439473Y-73481534D01*
X139374630Y-73499500D01*
X139262328Y-73499500D01*
X139150084Y-73514928D01*
X139011276Y-73575221D01*
X139011274Y-73575223D01*
X138893894Y-73670719D01*
X138893891Y-73670722D01*
X138806623Y-73794351D01*
X138806621Y-73794356D01*
X138755946Y-73936942D01*
X138755945Y-73936948D01*
X138745619Y-74087918D01*
X138745619Y-74087921D01*
X138761233Y-74163057D01*
X138776409Y-74236088D01*
X138846061Y-74370509D01*
X138859642Y-74440195D01*
X138837127Y-74501139D01*
X138806621Y-74544356D01*
X138755946Y-74686942D01*
X138755945Y-74686948D01*
X138745817Y-74835031D01*
X138745619Y-74837921D01*
X138761233Y-74913057D01*
X138776409Y-74986088D01*
X138846061Y-75120509D01*
X138859642Y-75190195D01*
X138837127Y-75251139D01*
X138806621Y-75294356D01*
X138755946Y-75436942D01*
X138755945Y-75436948D01*
X138745619Y-75587919D01*
X138745619Y-75587921D01*
X138761233Y-75663057D01*
X138776409Y-75736088D01*
X138846061Y-75870509D01*
X138859642Y-75940195D01*
X138837127Y-76001139D01*
X138806621Y-76044356D01*
X138755946Y-76186942D01*
X138755945Y-76186948D01*
X138745619Y-76337919D01*
X138745619Y-76337921D01*
X138761233Y-76413057D01*
X138776409Y-76486088D01*
X138846061Y-76620509D01*
X138859642Y-76690195D01*
X138837127Y-76751139D01*
X138806621Y-76794356D01*
X138755946Y-76936942D01*
X138755945Y-76936948D01*
X138745619Y-77087918D01*
X138745619Y-77087921D01*
X138776408Y-77236085D01*
X138776409Y-77236088D01*
X138846028Y-77370445D01*
X138846030Y-77370448D01*
X138900975Y-77429280D01*
X138949320Y-77481044D01*
X139021241Y-77524780D01*
X139078618Y-77559672D01*
X139224333Y-77600500D01*
X139224335Y-77600500D01*
X139337658Y-77600500D01*
X139337668Y-77600499D01*
X139357917Y-77597716D01*
X139428127Y-77608255D01*
X139481493Y-77655080D01*
X139501073Y-77723323D01*
X139500284Y-77736639D01*
X139499500Y-77743602D01*
X139499500Y-77856394D01*
X139524597Y-77966350D01*
X139524599Y-77966355D01*
X139573530Y-78067962D01*
X139573531Y-78067964D01*
X139573532Y-78067965D01*
X139573533Y-78067967D01*
X139643854Y-78156146D01*
X139732033Y-78226467D01*
X139833649Y-78275403D01*
X139901538Y-78290898D01*
X139963500Y-78325557D01*
X139996887Y-78388214D01*
X139999500Y-78413739D01*
X139999500Y-97274310D01*
X139979498Y-97342431D01*
X139925842Y-97388924D01*
X139873695Y-97400310D01*
X133620230Y-97409999D01*
X133619604Y-97409998D01*
X130825569Y-97400430D01*
X130757517Y-97380195D01*
X130711208Y-97326380D01*
X130700000Y-97274431D01*
X130700000Y-95950000D01*
X130699999Y-95949999D01*
X129650001Y-94800000D01*
X129650000Y-94800000D01*
X100126500Y-94800000D01*
X100058379Y-94779998D01*
X100011886Y-94726342D01*
X100000500Y-94674000D01*
X100000500Y-91125000D01*
X102890715Y-91125000D01*
X102909771Y-91269752D01*
X102965644Y-91404641D01*
X102965649Y-91404649D01*
X103054525Y-91520474D01*
X103118748Y-91569754D01*
X103170357Y-91609355D01*
X103305246Y-91665228D01*
X103450000Y-91684285D01*
X103594754Y-91665228D01*
X103729643Y-91609355D01*
X103845474Y-91520474D01*
X103934355Y-91404643D01*
X103990228Y-91269754D01*
X104009285Y-91125000D01*
X104004815Y-91091050D01*
X103990228Y-90980247D01*
X103990228Y-90980246D01*
X103934355Y-90845358D01*
X103845474Y-90729526D01*
X103845472Y-90729524D01*
X103845471Y-90729523D01*
X103789745Y-90686763D01*
X106488235Y-90686763D01*
X106964449Y-91177792D01*
X106997516Y-91240618D01*
X107000000Y-91265513D01*
X107000000Y-91600006D01*
X107020252Y-91740859D01*
X107020254Y-91740866D01*
X107079373Y-91870320D01*
X107172570Y-91977875D01*
X107292292Y-92054816D01*
X107408551Y-92088952D01*
X107428839Y-92094910D01*
X107428840Y-92094910D01*
X107428843Y-92094911D01*
X107428846Y-92094911D01*
X107571154Y-92094911D01*
X107571157Y-92094911D01*
X107707708Y-92054816D01*
X107827430Y-91977875D01*
X107920627Y-91870320D01*
X107979746Y-91740866D01*
X107984955Y-91704641D01*
X108000000Y-91600003D01*
X108000000Y-91599996D01*
X107979747Y-91459140D01*
X107979746Y-91459139D01*
X107979746Y-91459134D01*
X107967011Y-91431250D01*
X107960811Y-91388122D01*
X107941038Y-91364122D01*
X107923670Y-91336343D01*
X107920627Y-91329681D01*
X107920626Y-91329679D01*
X107827430Y-91222125D01*
X107823596Y-91218803D01*
X107808864Y-91203700D01*
X107716058Y-91091058D01*
X107716051Y-91091050D01*
X106912499Y-90262499D01*
X106488235Y-90686763D01*
X103789745Y-90686763D01*
X103729649Y-90640649D01*
X103729641Y-90640644D01*
X103594752Y-90584771D01*
X103450000Y-90565715D01*
X103305247Y-90584771D01*
X103237802Y-90612708D01*
X103170358Y-90640645D01*
X103170357Y-90640646D01*
X103170356Y-90640646D01*
X103054526Y-90729526D01*
X102965646Y-90845356D01*
X102965645Y-90845358D01*
X102949319Y-90884772D01*
X102909771Y-90980247D01*
X102890715Y-91124999D01*
X102890715Y-91125000D01*
X100000500Y-91125000D01*
X100000500Y-89940878D01*
X108299837Y-89940878D01*
X108318893Y-90085630D01*
X108374766Y-90220519D01*
X108374771Y-90220527D01*
X108463647Y-90336352D01*
X108558695Y-90409285D01*
X108579479Y-90425233D01*
X108714368Y-90481106D01*
X108859122Y-90500163D01*
X108859123Y-90500163D01*
X108863745Y-90499554D01*
X108879961Y-90497419D01*
X108950109Y-90508355D01*
X108985506Y-90533245D01*
X109114858Y-90662597D01*
X109148884Y-90724909D01*
X109143819Y-90795724D01*
X109101272Y-90852560D01*
X109042210Y-90876614D01*
X108980247Y-90884771D01*
X108912802Y-90912708D01*
X108845358Y-90940645D01*
X108845357Y-90940646D01*
X108845356Y-90940646D01*
X108729526Y-91029526D01*
X108640646Y-91145356D01*
X108640645Y-91145358D01*
X108616479Y-91203700D01*
X108584771Y-91280247D01*
X108565715Y-91424999D01*
X108565715Y-91425000D01*
X108584771Y-91569752D01*
X108640644Y-91704641D01*
X108640649Y-91704649D01*
X108729525Y-91820474D01*
X108794487Y-91870321D01*
X108845357Y-91909355D01*
X108980246Y-91965228D01*
X109125000Y-91984285D01*
X109269754Y-91965228D01*
X109404643Y-91909355D01*
X109520474Y-91820474D01*
X109609355Y-91704643D01*
X109665228Y-91569754D01*
X109673385Y-91507790D01*
X109702107Y-91442864D01*
X109761372Y-91403772D01*
X109832363Y-91402927D01*
X109887402Y-91435142D01*
X111946189Y-93493929D01*
X111953615Y-93502032D01*
X111965041Y-93515649D01*
X111978178Y-93531305D01*
X112011262Y-93550406D01*
X112020529Y-93556310D01*
X112051844Y-93578236D01*
X112056893Y-93580590D01*
X112073562Y-93587494D01*
X112078813Y-93589406D01*
X112105326Y-93594080D01*
X112116441Y-93596039D01*
X112127170Y-93598418D01*
X112164084Y-93608310D01*
X112199273Y-93605231D01*
X112202160Y-93604979D01*
X112213139Y-93604500D01*
X116536327Y-93604500D01*
X116604448Y-93624502D01*
X116625422Y-93641405D01*
X117177939Y-94193922D01*
X117185366Y-94202026D01*
X117209934Y-94231305D01*
X117243037Y-94250417D01*
X117252296Y-94256316D01*
X117283598Y-94278235D01*
X117288668Y-94280599D01*
X117305296Y-94287486D01*
X117310563Y-94289403D01*
X117310566Y-94289405D01*
X117310568Y-94289405D01*
X117310570Y-94289406D01*
X117329186Y-94292688D01*
X117348199Y-94296040D01*
X117358927Y-94298418D01*
X117395839Y-94308309D01*
X117433903Y-94304979D01*
X117444883Y-94304500D01*
X134872583Y-94304500D01*
X134940704Y-94324502D01*
X134972543Y-94353793D01*
X135004526Y-94395474D01*
X135004528Y-94395476D01*
X135120350Y-94484350D01*
X135120357Y-94484355D01*
X135255246Y-94540228D01*
X135400000Y-94559285D01*
X135544754Y-94540228D01*
X135679643Y-94484355D01*
X135795474Y-94395474D01*
X135884355Y-94279643D01*
X135940228Y-94144754D01*
X135959285Y-94000000D01*
X135940228Y-93855246D01*
X135884355Y-93720358D01*
X135795474Y-93604526D01*
X135795472Y-93604524D01*
X135795471Y-93604523D01*
X135679649Y-93515649D01*
X135679641Y-93515644D01*
X135544752Y-93459771D01*
X135400000Y-93440715D01*
X135255247Y-93459771D01*
X135193539Y-93485332D01*
X135120358Y-93515645D01*
X135120357Y-93515646D01*
X135120356Y-93515646D01*
X135004519Y-93604531D01*
X135000456Y-93608595D01*
X134938144Y-93642621D01*
X134911361Y-93645500D01*
X130120205Y-93645500D01*
X130052084Y-93625498D01*
X130005591Y-93571842D01*
X129995487Y-93501568D01*
X130024981Y-93436988D01*
X130036645Y-93425193D01*
X130076514Y-93389873D01*
X130167355Y-93258268D01*
X130224061Y-93108747D01*
X130230457Y-93056076D01*
X130243336Y-92950002D01*
X130243336Y-92949997D01*
X130224062Y-92791257D01*
X130224061Y-92791253D01*
X130189453Y-92700000D01*
X130167355Y-92641732D01*
X130076514Y-92510127D01*
X129956818Y-92404085D01*
X129956817Y-92404084D01*
X129956813Y-92404082D01*
X129815220Y-92329769D01*
X129659957Y-92291500D01*
X129659956Y-92291500D01*
X129500044Y-92291500D01*
X129500042Y-92291500D01*
X129344779Y-92329769D01*
X129203186Y-92404082D01*
X129203182Y-92404084D01*
X129083484Y-92510128D01*
X128992647Y-92641728D01*
X128992644Y-92641734D01*
X128935938Y-92791253D01*
X128935937Y-92791257D01*
X128916664Y-92949997D01*
X128916664Y-92950002D01*
X128935937Y-93108742D01*
X128935938Y-93108746D01*
X128992644Y-93258265D01*
X128992647Y-93258271D01*
X129083484Y-93389871D01*
X129083485Y-93389872D01*
X129083486Y-93389873D01*
X129123350Y-93425189D01*
X129161074Y-93485332D01*
X129160294Y-93556324D01*
X129121256Y-93615625D01*
X129056355Y-93644407D01*
X129039795Y-93645500D01*
X117613673Y-93645500D01*
X117545552Y-93625498D01*
X117524578Y-93608595D01*
X116972059Y-93056076D01*
X116964633Y-93047973D01*
X116963229Y-93046300D01*
X116940066Y-93018695D01*
X116906966Y-92999584D01*
X116897700Y-92993681D01*
X116866397Y-92971762D01*
X116861367Y-92969416D01*
X116844664Y-92962498D01*
X116839430Y-92960593D01*
X116801798Y-92953957D01*
X116791071Y-92951579D01*
X116754164Y-92941690D01*
X116754158Y-92941690D01*
X116727818Y-92943994D01*
X116716099Y-92945020D01*
X116705118Y-92945500D01*
X115390640Y-92945500D01*
X115322519Y-92925498D01*
X115276026Y-92871842D01*
X115265718Y-92803054D01*
X115279285Y-92700000D01*
X115279285Y-92699999D01*
X115260228Y-92555247D01*
X115241539Y-92510128D01*
X115204355Y-92420358D01*
X115115474Y-92304526D01*
X115115472Y-92304524D01*
X115115471Y-92304523D01*
X114999649Y-92215649D01*
X114999641Y-92215644D01*
X114864752Y-92159771D01*
X114720000Y-92140715D01*
X114575247Y-92159771D01*
X114507802Y-92187708D01*
X114440358Y-92215645D01*
X114440357Y-92215646D01*
X114440356Y-92215646D01*
X114341502Y-92291500D01*
X114324526Y-92304526D01*
X114311727Y-92321204D01*
X114254391Y-92363071D01*
X114211766Y-92370500D01*
X112938673Y-92370500D01*
X112870552Y-92350498D01*
X112849578Y-92333595D01*
X110487315Y-89971332D01*
X110453289Y-89909020D01*
X110458354Y-89838205D01*
X110500901Y-89781369D01*
X110559964Y-89757315D01*
X110615527Y-89750000D01*
X110689754Y-89740228D01*
X110824643Y-89684355D01*
X110940474Y-89595474D01*
X111029355Y-89479643D01*
X111085228Y-89344754D01*
X111104285Y-89200000D01*
X111100382Y-89170357D01*
X111091120Y-89099999D01*
X111085228Y-89055246D01*
X111029355Y-88920358D01*
X110940474Y-88804526D01*
X110940472Y-88804524D01*
X110940471Y-88804523D01*
X110824649Y-88715649D01*
X110824641Y-88715644D01*
X110689752Y-88659771D01*
X110545000Y-88640715D01*
X110400247Y-88659771D01*
X110332802Y-88687708D01*
X110265358Y-88715645D01*
X110265357Y-88715646D01*
X110265356Y-88715646D01*
X110149526Y-88804526D01*
X110060646Y-88920356D01*
X110060645Y-88920358D01*
X110004772Y-89055246D01*
X110004772Y-89055247D01*
X110000198Y-89089986D01*
X109971474Y-89154913D01*
X109912209Y-89194004D01*
X109858830Y-89198460D01*
X109800000Y-89190715D01*
X109655247Y-89209771D01*
X109610564Y-89228280D01*
X109520358Y-89265645D01*
X109520357Y-89265646D01*
X109520356Y-89265646D01*
X109404523Y-89354528D01*
X109333480Y-89447114D01*
X109276142Y-89488981D01*
X109205271Y-89493203D01*
X109156815Y-89470373D01*
X109138765Y-89456523D01*
X109123018Y-89450000D01*
X109003874Y-89400649D01*
X108859122Y-89381593D01*
X108714369Y-89400649D01*
X108646924Y-89428586D01*
X108579480Y-89456523D01*
X108579479Y-89456524D01*
X108579478Y-89456524D01*
X108463648Y-89545404D01*
X108374768Y-89661234D01*
X108374767Y-89661236D01*
X108369970Y-89672818D01*
X108318893Y-89796125D01*
X108299837Y-89940877D01*
X108299837Y-89940878D01*
X100000500Y-89940878D01*
X100000500Y-82050000D01*
X101190715Y-82050000D01*
X101209771Y-82194752D01*
X101265644Y-82329641D01*
X101265649Y-82329649D01*
X101354523Y-82445471D01*
X101354524Y-82445472D01*
X101354526Y-82445474D01*
X101370620Y-82457823D01*
X101412486Y-82515160D01*
X101415622Y-82525176D01*
X101426579Y-82566071D01*
X101428957Y-82576798D01*
X101435593Y-82614430D01*
X101437498Y-82619664D01*
X101444416Y-82636367D01*
X101446762Y-82641397D01*
X101468681Y-82672700D01*
X101474587Y-82681970D01*
X101493696Y-82715067D01*
X101522966Y-82739627D01*
X101531072Y-82747055D01*
X104083595Y-85299578D01*
X104117621Y-85361890D01*
X104120500Y-85388673D01*
X104120500Y-85441766D01*
X104100498Y-85509887D01*
X104071208Y-85541725D01*
X104054531Y-85554522D01*
X104054526Y-85554526D01*
X103965646Y-85670356D01*
X103965645Y-85670358D01*
X103937708Y-85737802D01*
X103909771Y-85805247D01*
X103890715Y-85949999D01*
X103890715Y-85950000D01*
X103909771Y-86094752D01*
X103965644Y-86229641D01*
X103965649Y-86229649D01*
X104054525Y-86345474D01*
X104170350Y-86434350D01*
X104170357Y-86434355D01*
X104305246Y-86490228D01*
X104450000Y-86509285D01*
X104594754Y-86490228D01*
X104729643Y-86434355D01*
X104845474Y-86345474D01*
X104934355Y-86229643D01*
X104990228Y-86094754D01*
X105009285Y-85950000D01*
X105005577Y-85921838D01*
X104990228Y-85805247D01*
X104990228Y-85805246D01*
X104934355Y-85670358D01*
X104845474Y-85554526D01*
X104845471Y-85554524D01*
X104845470Y-85554522D01*
X104828793Y-85541725D01*
X104786927Y-85484386D01*
X104779500Y-85441765D01*
X104779500Y-85219882D01*
X104779980Y-85208899D01*
X104783310Y-85170840D01*
X104773414Y-85133909D01*
X104771039Y-85123193D01*
X104764406Y-85085569D01*
X104762494Y-85080318D01*
X104755590Y-85063649D01*
X104753236Y-85058600D01*
X104731310Y-85027285D01*
X104725406Y-85018018D01*
X104712041Y-84994869D01*
X104706305Y-84984934D01*
X104677024Y-84960364D01*
X104668933Y-84952949D01*
X102230548Y-82514565D01*
X102196523Y-82452253D01*
X102201587Y-82381438D01*
X102219684Y-82348762D01*
X102234350Y-82329649D01*
X102234355Y-82329643D01*
X102290228Y-82194754D01*
X102309285Y-82050000D01*
X102308153Y-82041405D01*
X102296173Y-81950406D01*
X102290228Y-81905246D01*
X102234355Y-81770358D01*
X102145474Y-81654526D01*
X102145472Y-81654524D01*
X102145471Y-81654523D01*
X102029649Y-81565649D01*
X102029641Y-81565644D01*
X101894752Y-81509771D01*
X101750000Y-81490715D01*
X101605247Y-81509771D01*
X101537802Y-81537708D01*
X101470358Y-81565645D01*
X101470357Y-81565646D01*
X101470356Y-81565646D01*
X101354526Y-81654526D01*
X101265646Y-81770356D01*
X101265645Y-81770358D01*
X101245230Y-81819643D01*
X101209771Y-81905247D01*
X101190715Y-82049999D01*
X101190715Y-82050000D01*
X100000500Y-82050000D01*
X100000500Y-79900000D01*
X102440715Y-79900000D01*
X102459771Y-80044752D01*
X102515644Y-80179641D01*
X102515649Y-80179649D01*
X102604525Y-80295474D01*
X102714595Y-80379934D01*
X102720357Y-80384355D01*
X102855246Y-80440228D01*
X103000000Y-80459285D01*
X103144754Y-80440228D01*
X103279643Y-80384355D01*
X103395474Y-80295474D01*
X103400036Y-80289527D01*
X103457372Y-80247660D01*
X103528243Y-80243436D01*
X103590147Y-80278198D01*
X103599958Y-80289520D01*
X103604526Y-80295474D01*
X103604528Y-80295476D01*
X103714595Y-80379934D01*
X103720357Y-80384355D01*
X103855246Y-80440228D01*
X104000000Y-80459285D01*
X104144754Y-80440228D01*
X104279643Y-80384355D01*
X104395474Y-80295474D01*
X104484355Y-80179643D01*
X104540228Y-80044754D01*
X104559285Y-79900000D01*
X104556541Y-79879159D01*
X104567478Y-79809011D01*
X104592364Y-79773617D01*
X104909579Y-79456404D01*
X104971891Y-79422379D01*
X104998674Y-79419500D01*
X106625326Y-79419500D01*
X106693447Y-79439502D01*
X106739940Y-79493158D01*
X106750044Y-79563432D01*
X106720550Y-79628012D01*
X106714434Y-79634581D01*
X106633952Y-79715064D01*
X106601384Y-79747632D01*
X106539072Y-79781657D01*
X106495847Y-79783459D01*
X106479558Y-79781315D01*
X106475000Y-79780715D01*
X106474999Y-79780715D01*
X106330247Y-79799771D01*
X106262802Y-79827708D01*
X106195358Y-79855645D01*
X106195357Y-79855646D01*
X106195356Y-79855646D01*
X106079525Y-79944526D01*
X106016069Y-80027224D01*
X105958731Y-80069091D01*
X105887860Y-80073312D01*
X105882787Y-80071693D01*
X105882730Y-80071909D01*
X105874755Y-80069772D01*
X105730000Y-80050715D01*
X105585247Y-80069771D01*
X105517802Y-80097708D01*
X105450358Y-80125645D01*
X105450357Y-80125646D01*
X105450356Y-80125646D01*
X105334526Y-80214526D01*
X105245646Y-80330356D01*
X105245645Y-80330358D01*
X105217708Y-80397802D01*
X105189771Y-80465247D01*
X105170715Y-80609999D01*
X105170715Y-80610000D01*
X105189771Y-80754752D01*
X105245644Y-80889641D01*
X105245649Y-80889649D01*
X105334525Y-81005474D01*
X105436733Y-81083901D01*
X105450357Y-81094355D01*
X105585246Y-81150228D01*
X105730000Y-81169285D01*
X105730001Y-81169285D01*
X105734623Y-81168676D01*
X105750839Y-81166541D01*
X105820987Y-81177477D01*
X105856384Y-81202367D01*
X106547939Y-81893922D01*
X106555366Y-81902026D01*
X106579934Y-81931305D01*
X106613037Y-81950417D01*
X106622296Y-81956316D01*
X106653598Y-81978235D01*
X106658668Y-81980599D01*
X106675296Y-81987486D01*
X106680563Y-81989403D01*
X106680566Y-81989405D01*
X106680568Y-81989405D01*
X106680570Y-81989406D01*
X106699186Y-81992688D01*
X106718199Y-81996040D01*
X106728927Y-81998418D01*
X106765839Y-82008309D01*
X106803903Y-82004979D01*
X106814883Y-82004500D01*
X110111327Y-82004500D01*
X110179448Y-82024502D01*
X110200422Y-82041405D01*
X112908595Y-84749578D01*
X112942621Y-84811890D01*
X112945500Y-84838673D01*
X112945500Y-89239352D01*
X112925498Y-89307473D01*
X112871842Y-89353966D01*
X112801568Y-89364070D01*
X112771283Y-89355761D01*
X112660254Y-89309772D01*
X112515501Y-89290715D01*
X112515500Y-89290715D01*
X112494650Y-89293459D01*
X112424502Y-89282516D01*
X112389114Y-89257631D01*
X112366405Y-89234922D01*
X112332379Y-89172610D01*
X112329500Y-89145827D01*
X112329500Y-84994869D01*
X112329980Y-84983886D01*
X112333309Y-84945839D01*
X112333308Y-84945836D01*
X112323419Y-84908930D01*
X112321039Y-84898193D01*
X112314406Y-84860570D01*
X112312486Y-84855296D01*
X112305599Y-84838668D01*
X112303235Y-84833598D01*
X112281316Y-84802296D01*
X112275417Y-84793037D01*
X112256305Y-84759934D01*
X112227024Y-84735364D01*
X112218922Y-84727939D01*
X110147059Y-82656076D01*
X110139633Y-82647973D01*
X110129894Y-82636367D01*
X110115066Y-82618695D01*
X110081966Y-82599584D01*
X110072700Y-82593681D01*
X110041397Y-82571762D01*
X110036367Y-82569416D01*
X110019664Y-82562498D01*
X110014430Y-82560593D01*
X109976798Y-82553957D01*
X109966071Y-82551579D01*
X109929164Y-82541690D01*
X109929158Y-82541690D01*
X109902818Y-82543994D01*
X109891099Y-82545020D01*
X109880118Y-82545500D01*
X108058234Y-82545500D01*
X107990113Y-82525498D01*
X107958272Y-82496205D01*
X107945474Y-82479526D01*
X107945472Y-82479524D01*
X107945471Y-82479523D01*
X107829649Y-82390649D01*
X107829641Y-82390644D01*
X107694752Y-82334771D01*
X107550000Y-82315715D01*
X107405247Y-82334771D01*
X107371471Y-82348762D01*
X107270358Y-82390645D01*
X107270357Y-82390646D01*
X107270356Y-82390646D01*
X107154526Y-82479526D01*
X107065646Y-82595356D01*
X107065645Y-82595358D01*
X107046575Y-82641397D01*
X107009771Y-82730247D01*
X106990715Y-82874999D01*
X106990715Y-82875000D01*
X107009771Y-83019752D01*
X107065644Y-83154641D01*
X107065649Y-83154649D01*
X107154525Y-83270474D01*
X107266382Y-83356305D01*
X107270357Y-83359355D01*
X107405246Y-83415228D01*
X107550000Y-83434285D01*
X107694754Y-83415228D01*
X107829643Y-83359355D01*
X107945474Y-83270474D01*
X107958272Y-83253795D01*
X108015609Y-83211929D01*
X108058234Y-83204500D01*
X109711327Y-83204500D01*
X109779448Y-83224502D01*
X109800422Y-83241405D01*
X109839974Y-83280957D01*
X109874000Y-83343269D01*
X109868935Y-83414084D01*
X109826388Y-83470920D01*
X109799098Y-83486460D01*
X109680363Y-83535642D01*
X109680356Y-83535646D01*
X109564526Y-83624526D01*
X109475646Y-83740356D01*
X109475645Y-83740358D01*
X109447708Y-83807802D01*
X109419771Y-83875247D01*
X109400715Y-84019999D01*
X109400715Y-84020000D01*
X109419771Y-84164752D01*
X109475644Y-84299641D01*
X109475649Y-84299649D01*
X109564525Y-84415474D01*
X109644942Y-84477180D01*
X109680357Y-84504355D01*
X109815246Y-84560228D01*
X109960000Y-84579285D01*
X110104754Y-84560228D01*
X110239643Y-84504355D01*
X110355474Y-84415474D01*
X110444355Y-84299643D01*
X110493540Y-84180898D01*
X110538086Y-84125621D01*
X110605449Y-84103200D01*
X110674241Y-84120758D01*
X110699042Y-84140025D01*
X111633595Y-85074578D01*
X111667621Y-85136890D01*
X111670500Y-85163673D01*
X111670500Y-86546277D01*
X111650498Y-86614398D01*
X111596842Y-86660891D01*
X111526568Y-86670995D01*
X111467798Y-86646241D01*
X111459265Y-86639694D01*
X111459261Y-86639691D01*
X111459260Y-86639690D01*
X111352519Y-86595476D01*
X111324369Y-86583816D01*
X111179617Y-86564760D01*
X111034864Y-86583816D01*
X110967419Y-86611753D01*
X110899975Y-86639690D01*
X110899974Y-86639691D01*
X110899973Y-86639691D01*
X110784143Y-86728571D01*
X110695263Y-86844401D01*
X110695262Y-86844403D01*
X110667325Y-86911847D01*
X110639388Y-86979292D01*
X110620332Y-87124044D01*
X110620332Y-87124045D01*
X110639388Y-87268797D01*
X110695261Y-87403686D01*
X110695266Y-87403694D01*
X110784142Y-87519519D01*
X110887429Y-87598774D01*
X110899974Y-87608400D01*
X111034863Y-87664273D01*
X111179617Y-87683330D01*
X111324371Y-87664273D01*
X111459260Y-87608400D01*
X111467795Y-87601850D01*
X111534013Y-87576249D01*
X111603562Y-87590512D01*
X111654360Y-87640112D01*
X111670500Y-87701812D01*
X111670500Y-89314617D01*
X111670020Y-89325599D01*
X111666690Y-89363657D01*
X111666690Y-89363664D01*
X111676579Y-89400571D01*
X111678957Y-89411298D01*
X111685593Y-89448930D01*
X111687498Y-89454164D01*
X111694416Y-89470867D01*
X111696762Y-89475897D01*
X111718681Y-89507200D01*
X111724584Y-89516466D01*
X111743695Y-89549566D01*
X111768471Y-89570356D01*
X111772966Y-89574127D01*
X111781072Y-89581555D01*
X111923131Y-89723614D01*
X111957157Y-89785926D01*
X111958959Y-89829150D01*
X111956215Y-89849999D01*
X111956215Y-89850001D01*
X111975271Y-89994752D01*
X112031144Y-90129641D01*
X112031149Y-90129649D01*
X112120025Y-90245474D01*
X112203185Y-90309285D01*
X112235857Y-90334355D01*
X112370746Y-90390228D01*
X112515500Y-90409285D01*
X112660254Y-90390228D01*
X112795143Y-90334355D01*
X112910974Y-90245474D01*
X112999855Y-90129643D01*
X113034092Y-90046987D01*
X113078639Y-89991708D01*
X113146003Y-89969287D01*
X113214794Y-89986845D01*
X113263172Y-90038807D01*
X113266909Y-90046989D01*
X113301144Y-90129641D01*
X113301149Y-90129649D01*
X113390025Y-90245474D01*
X113473185Y-90309285D01*
X113505857Y-90334355D01*
X113640746Y-90390228D01*
X113785500Y-90409285D01*
X113930254Y-90390228D01*
X114065143Y-90334355D01*
X114180974Y-90245474D01*
X114269855Y-90129643D01*
X114304092Y-90046987D01*
X114348639Y-89991708D01*
X114416003Y-89969287D01*
X114484794Y-89986845D01*
X114533172Y-90038807D01*
X114536909Y-90046989D01*
X114571144Y-90129641D01*
X114571149Y-90129649D01*
X114660025Y-90245474D01*
X114743185Y-90309285D01*
X114775857Y-90334355D01*
X114910746Y-90390228D01*
X115055500Y-90409285D01*
X115200254Y-90390228D01*
X115335143Y-90334355D01*
X115450974Y-90245474D01*
X115539855Y-90129643D01*
X115595728Y-89994754D01*
X115614785Y-89850000D01*
X115614189Y-89845476D01*
X115595728Y-89705247D01*
X115595728Y-89705246D01*
X115539855Y-89570358D01*
X115450974Y-89454526D01*
X115450972Y-89454524D01*
X115450971Y-89454523D01*
X115335149Y-89365649D01*
X115335141Y-89365644D01*
X115200252Y-89309771D01*
X115055501Y-89290715D01*
X115055500Y-89290715D01*
X115034650Y-89293459D01*
X114964502Y-89282516D01*
X114929114Y-89257631D01*
X114816405Y-89144922D01*
X114782379Y-89082610D01*
X114779500Y-89055827D01*
X114779500Y-88599802D01*
X114799502Y-88531681D01*
X114853158Y-88485188D01*
X114923432Y-88475084D01*
X114982202Y-88499838D01*
X115070357Y-88567483D01*
X115205246Y-88623356D01*
X115350000Y-88642413D01*
X115494754Y-88623356D01*
X115629643Y-88567483D01*
X115745474Y-88478602D01*
X115758272Y-88461923D01*
X115815609Y-88420057D01*
X115858234Y-88412628D01*
X116246990Y-88412628D01*
X116257971Y-88413107D01*
X116296032Y-88416438D01*
X116332954Y-88406543D01*
X116343651Y-88404171D01*
X116381306Y-88397533D01*
X116381310Y-88397530D01*
X116386571Y-88395616D01*
X116403194Y-88388731D01*
X116408267Y-88386364D01*
X116408273Y-88386363D01*
X116439580Y-88364440D01*
X116448824Y-88358550D01*
X116481938Y-88339433D01*
X116506517Y-88310139D01*
X116513912Y-88302069D01*
X118249580Y-86566402D01*
X118311890Y-86532379D01*
X118338673Y-86529500D01*
X118841766Y-86529500D01*
X118909887Y-86549502D01*
X118941727Y-86578794D01*
X118954526Y-86595474D01*
X118954528Y-86595476D01*
X119012150Y-86639691D01*
X119070357Y-86684355D01*
X119205246Y-86740228D01*
X119350000Y-86759285D01*
X119494754Y-86740228D01*
X119629643Y-86684355D01*
X119745474Y-86595474D01*
X119834355Y-86479643D01*
X119890228Y-86344754D01*
X119909285Y-86200000D01*
X119890228Y-86055246D01*
X119868883Y-86003717D01*
X119861295Y-85933129D01*
X119893074Y-85869642D01*
X119954132Y-85833414D01*
X119985293Y-85829500D01*
X130461327Y-85829500D01*
X130529448Y-85849502D01*
X130550422Y-85866405D01*
X133202939Y-88518922D01*
X133210366Y-88527026D01*
X133234934Y-88556305D01*
X133254286Y-88567478D01*
X133268022Y-88575408D01*
X133277294Y-88581315D01*
X133308599Y-88603235D01*
X133308601Y-88603235D01*
X133313663Y-88605596D01*
X133330308Y-88612491D01*
X133335569Y-88614406D01*
X133362082Y-88619080D01*
X133373197Y-88621039D01*
X133383909Y-88623414D01*
X133420840Y-88633310D01*
X133458900Y-88629979D01*
X133469882Y-88629500D01*
X133869458Y-88629500D01*
X133937579Y-88649502D01*
X133984072Y-88703158D01*
X133994176Y-88773432D01*
X133965976Y-88836495D01*
X133935373Y-88872963D01*
X133927951Y-88881063D01*
X133815440Y-88993576D01*
X133753190Y-89055827D01*
X133725422Y-89083595D01*
X133663110Y-89117620D01*
X133636326Y-89120500D01*
X119508234Y-89120500D01*
X119440113Y-89100498D01*
X119408272Y-89071205D01*
X119395474Y-89054526D01*
X119395472Y-89054524D01*
X119395471Y-89054523D01*
X119279649Y-88965649D01*
X119279641Y-88965644D01*
X119144752Y-88909771D01*
X119000000Y-88890715D01*
X118855247Y-88909771D01*
X118787802Y-88937708D01*
X118720358Y-88965645D01*
X118720357Y-88965646D01*
X118720356Y-88965646D01*
X118604526Y-89054526D01*
X118515646Y-89170356D01*
X118515645Y-89170358D01*
X118499319Y-89209772D01*
X118459771Y-89305247D01*
X118440715Y-89449999D01*
X118440715Y-89450000D01*
X118459771Y-89594752D01*
X118515644Y-89729641D01*
X118515649Y-89729649D01*
X118604525Y-89845474D01*
X118720350Y-89934350D01*
X118720357Y-89934355D01*
X118855246Y-89990228D01*
X119000000Y-90009285D01*
X119144754Y-89990228D01*
X119279643Y-89934355D01*
X119395474Y-89845474D01*
X119408272Y-89828795D01*
X119465609Y-89786929D01*
X119508234Y-89779500D01*
X133805118Y-89779500D01*
X133816099Y-89779979D01*
X133854160Y-89783310D01*
X133891082Y-89773415D01*
X133901779Y-89771043D01*
X133939434Y-89764405D01*
X133939438Y-89764402D01*
X133944699Y-89762488D01*
X133961322Y-89755603D01*
X133966395Y-89753236D01*
X133966401Y-89753235D01*
X133997708Y-89731312D01*
X134006952Y-89725422D01*
X134040066Y-89706305D01*
X134064630Y-89677028D01*
X134072044Y-89668937D01*
X134149581Y-89591401D01*
X134211893Y-89557377D01*
X134282708Y-89562443D01*
X134315377Y-89580534D01*
X134320351Y-89584351D01*
X134320354Y-89584352D01*
X134320357Y-89584355D01*
X134455246Y-89640228D01*
X134600000Y-89659285D01*
X134744754Y-89640228D01*
X134879643Y-89584355D01*
X134995474Y-89495474D01*
X135084355Y-89379643D01*
X135140228Y-89244754D01*
X135159285Y-89100000D01*
X135145274Y-88993575D01*
X135156213Y-88923428D01*
X135203341Y-88870329D01*
X135253748Y-88852208D01*
X135344754Y-88840228D01*
X135479643Y-88784355D01*
X135595474Y-88695474D01*
X135684355Y-88579643D01*
X135740228Y-88444754D01*
X135759285Y-88300000D01*
X135745274Y-88193575D01*
X135756213Y-88123428D01*
X135803341Y-88070329D01*
X135853748Y-88052208D01*
X135944754Y-88040228D01*
X136079643Y-87984355D01*
X136195474Y-87895474D01*
X136284355Y-87779643D01*
X136340228Y-87644754D01*
X136359285Y-87500000D01*
X136340228Y-87355246D01*
X136284355Y-87220358D01*
X136195474Y-87104526D01*
X136195472Y-87104524D01*
X136195471Y-87104523D01*
X136079649Y-87015649D01*
X136079641Y-87015644D01*
X135944752Y-86959771D01*
X135800000Y-86940715D01*
X135655247Y-86959771D01*
X135608123Y-86979291D01*
X135520358Y-87015645D01*
X135520357Y-87015646D01*
X135520356Y-87015646D01*
X135404530Y-87104523D01*
X135404526Y-87104526D01*
X135391727Y-87121204D01*
X135334391Y-87163071D01*
X135291766Y-87170500D01*
X134388673Y-87170500D01*
X134320552Y-87150498D01*
X134299578Y-87133595D01*
X131647059Y-84481076D01*
X131639633Y-84472973D01*
X131635477Y-84468020D01*
X131615066Y-84443695D01*
X131581966Y-84424584D01*
X131572700Y-84418681D01*
X131541397Y-84396762D01*
X131536367Y-84394416D01*
X131519664Y-84387498D01*
X131514430Y-84385593D01*
X131476798Y-84378957D01*
X131466071Y-84376579D01*
X131429164Y-84366690D01*
X131429158Y-84366690D01*
X131402818Y-84368994D01*
X131391099Y-84370020D01*
X131380118Y-84370500D01*
X116483234Y-84370500D01*
X116415113Y-84350498D01*
X116383272Y-84321205D01*
X116370474Y-84304526D01*
X116370472Y-84304524D01*
X116370471Y-84304523D01*
X116253026Y-84214404D01*
X116211159Y-84157066D01*
X116206937Y-84086195D01*
X116240633Y-84025349D01*
X116799580Y-83466404D01*
X116861892Y-83432379D01*
X116888675Y-83429500D01*
X119080118Y-83429500D01*
X119091099Y-83429979D01*
X119129160Y-83433310D01*
X119166082Y-83423415D01*
X119176779Y-83421043D01*
X119214434Y-83414405D01*
X119214438Y-83414402D01*
X119219699Y-83412488D01*
X119236322Y-83405603D01*
X119241395Y-83403236D01*
X119241401Y-83403235D01*
X119272708Y-83381312D01*
X119281952Y-83375422D01*
X119315066Y-83356305D01*
X119339645Y-83327011D01*
X119347051Y-83318930D01*
X122918943Y-79747039D01*
X122927024Y-79739634D01*
X122956305Y-79715066D01*
X122975411Y-79681972D01*
X122981310Y-79672712D01*
X123003235Y-79641401D01*
X123003236Y-79641395D01*
X123005602Y-79636323D01*
X123012488Y-79619699D01*
X123014403Y-79614437D01*
X123014402Y-79614437D01*
X123014405Y-79614434D01*
X123021044Y-79576774D01*
X123023411Y-79566099D01*
X123033310Y-79529160D01*
X123029979Y-79491084D01*
X123029500Y-79480105D01*
X123029500Y-73738672D01*
X123049502Y-73670551D01*
X123066400Y-73649582D01*
X124629491Y-72086490D01*
X124691801Y-72052467D01*
X124748740Y-72053249D01*
X124770039Y-72058499D01*
X124770041Y-72058499D01*
X124770044Y-72058500D01*
X124770045Y-72058500D01*
X124929955Y-72058500D01*
X124929956Y-72058500D01*
X125085222Y-72020230D01*
X125226818Y-71945915D01*
X125346514Y-71839873D01*
X125437355Y-71708268D01*
X125494061Y-71558747D01*
X125506950Y-71452599D01*
X125513336Y-71400002D01*
X125513336Y-71399997D01*
X125494062Y-71241257D01*
X125494061Y-71241253D01*
X125468851Y-71174780D01*
X125437355Y-71091732D01*
X125387889Y-71020068D01*
X125346515Y-70960128D01*
X125226817Y-70854084D01*
X125226813Y-70854082D01*
X125085220Y-70779769D01*
X124929957Y-70741500D01*
X124929956Y-70741500D01*
X124770044Y-70741500D01*
X124770042Y-70741500D01*
X124614779Y-70779769D01*
X124473186Y-70854082D01*
X124473182Y-70854084D01*
X124353484Y-70960128D01*
X124262647Y-71091728D01*
X124262644Y-71091734D01*
X124205938Y-71241253D01*
X124205937Y-71241257D01*
X124186664Y-71399997D01*
X124186664Y-71400004D01*
X124200636Y-71515084D01*
X124188991Y-71585119D01*
X124164650Y-71619365D01*
X122481079Y-73302936D01*
X122472980Y-73310359D01*
X122443692Y-73334936D01*
X122424584Y-73368031D01*
X122418683Y-73377295D01*
X122396766Y-73408597D01*
X122394410Y-73413649D01*
X122387490Y-73430358D01*
X122385593Y-73435569D01*
X122378957Y-73473203D01*
X122376579Y-73483930D01*
X122366690Y-73520836D01*
X122366690Y-73520841D01*
X122370020Y-73558898D01*
X122370500Y-73569881D01*
X122370500Y-79311326D01*
X122350498Y-79379447D01*
X122333595Y-79400421D01*
X119000422Y-82733595D01*
X118938110Y-82767621D01*
X118911327Y-82770500D01*
X116719882Y-82770500D01*
X116708900Y-82770020D01*
X116697181Y-82768994D01*
X116670842Y-82766690D01*
X116670836Y-82766690D01*
X116633930Y-82776579D01*
X116623203Y-82778957D01*
X116585569Y-82785593D01*
X116580363Y-82787488D01*
X116563628Y-82794420D01*
X116558598Y-82796765D01*
X116527287Y-82818688D01*
X116518026Y-82824587D01*
X116484936Y-82843693D01*
X116484935Y-82843694D01*
X116460370Y-82872968D01*
X116452946Y-82881068D01*
X115226384Y-84107631D01*
X115164072Y-84141656D01*
X115120847Y-84143459D01*
X115104558Y-84141315D01*
X115100000Y-84140715D01*
X115099999Y-84140715D01*
X114955246Y-84159771D01*
X114955242Y-84159773D01*
X114934476Y-84168374D01*
X114863886Y-84175961D01*
X114800400Y-84144180D01*
X114767859Y-84095058D01*
X114764405Y-84085570D01*
X114764405Y-84085566D01*
X114764402Y-84085561D01*
X114762491Y-84080310D01*
X114755590Y-84063649D01*
X114753236Y-84058600D01*
X114731310Y-84027285D01*
X114725406Y-84018018D01*
X114706304Y-83984933D01*
X114702319Y-83981589D01*
X114677024Y-83960364D01*
X114668933Y-83952949D01*
X113006454Y-82290470D01*
X112972428Y-82228158D01*
X112977493Y-82157343D01*
X113020040Y-82100507D01*
X113086560Y-82075696D01*
X113128167Y-82079670D01*
X113130236Y-82080224D01*
X113130246Y-82080228D01*
X113275000Y-82099285D01*
X113419754Y-82080228D01*
X113554643Y-82024355D01*
X113670474Y-81935474D01*
X113759355Y-81819643D01*
X113799198Y-81723451D01*
X113843745Y-81668172D01*
X113911108Y-81645751D01*
X113979899Y-81663309D01*
X114028278Y-81715271D01*
X114032009Y-81723440D01*
X114065645Y-81804643D01*
X114065647Y-81804646D01*
X114065649Y-81804649D01*
X114154525Y-81920474D01*
X114270350Y-82009350D01*
X114270357Y-82009355D01*
X114405246Y-82065228D01*
X114550000Y-82084285D01*
X114694754Y-82065228D01*
X114829643Y-82009355D01*
X114945474Y-81920474D01*
X115034355Y-81804643D01*
X115060056Y-81742594D01*
X115104603Y-81687314D01*
X115171966Y-81664893D01*
X115240757Y-81682451D01*
X115289136Y-81734412D01*
X115292865Y-81742578D01*
X115320645Y-81809643D01*
X115320647Y-81809646D01*
X115320649Y-81809649D01*
X115409525Y-81925474D01*
X115525350Y-82014350D01*
X115525357Y-82014355D01*
X115660246Y-82070228D01*
X115805000Y-82089285D01*
X115949754Y-82070228D01*
X116084643Y-82014355D01*
X116200474Y-81925474D01*
X116289355Y-81809643D01*
X116345228Y-81674754D01*
X116364285Y-81530000D01*
X116345228Y-81385246D01*
X116289355Y-81250358D01*
X116285522Y-81245363D01*
X116251917Y-81201568D01*
X116200474Y-81134526D01*
X116200471Y-81134524D01*
X116200470Y-81134522D01*
X116183793Y-81121725D01*
X116141927Y-81064386D01*
X116134500Y-81021765D01*
X116134500Y-80614881D01*
X116134980Y-80603898D01*
X116138310Y-80565840D01*
X116128414Y-80528909D01*
X116126039Y-80518193D01*
X116119406Y-80480569D01*
X116117491Y-80475308D01*
X116110596Y-80458663D01*
X116108235Y-80453600D01*
X116108235Y-80453599D01*
X116086315Y-80422294D01*
X116080408Y-80413022D01*
X116061305Y-80379934D01*
X116032025Y-80355365D01*
X116023922Y-80347939D01*
X115082059Y-79406076D01*
X115074633Y-79397973D01*
X115073229Y-79396300D01*
X115050066Y-79368695D01*
X115016966Y-79349584D01*
X115007700Y-79343681D01*
X115007661Y-79343654D01*
X114976401Y-79321765D01*
X114976397Y-79321762D01*
X114971367Y-79319416D01*
X114954664Y-79312498D01*
X114949430Y-79310593D01*
X114911798Y-79303957D01*
X114901071Y-79301579D01*
X114864164Y-79291690D01*
X114864158Y-79291690D01*
X114837818Y-79293994D01*
X114826099Y-79295020D01*
X114815118Y-79295500D01*
X112024937Y-79295500D01*
X111956816Y-79275498D01*
X111910323Y-79221842D01*
X111900219Y-79151568D01*
X111908525Y-79121290D01*
X111940228Y-79044754D01*
X111959285Y-78900000D01*
X111954964Y-78867182D01*
X111947678Y-78811838D01*
X111940228Y-78755246D01*
X111884355Y-78620358D01*
X111795474Y-78504526D01*
X111795472Y-78504524D01*
X111795471Y-78504523D01*
X111679649Y-78415649D01*
X111679641Y-78415644D01*
X111544752Y-78359771D01*
X111400000Y-78340715D01*
X111399998Y-78340715D01*
X111377345Y-78343697D01*
X111307196Y-78332757D01*
X111270293Y-78300002D01*
X113711664Y-78300002D01*
X113730937Y-78458742D01*
X113730938Y-78458746D01*
X113787644Y-78608265D01*
X113787647Y-78608271D01*
X113878484Y-78739871D01*
X113878485Y-78739872D01*
X113878486Y-78739873D01*
X113998182Y-78845915D01*
X114139778Y-78920230D01*
X114295044Y-78958500D01*
X114295045Y-78958500D01*
X114454955Y-78958500D01*
X114454956Y-78958500D01*
X114610222Y-78920230D01*
X114751818Y-78845915D01*
X114871514Y-78739873D01*
X114962355Y-78608268D01*
X115019061Y-78458747D01*
X115022705Y-78428742D01*
X115038336Y-78300002D01*
X115038336Y-78299997D01*
X115019062Y-78141257D01*
X115019061Y-78141253D01*
X115011698Y-78121838D01*
X114962355Y-77991732D01*
X114871514Y-77860127D01*
X114751818Y-77754085D01*
X114751817Y-77754084D01*
X114751813Y-77754082D01*
X114610220Y-77679769D01*
X114454957Y-77641500D01*
X114454956Y-77641500D01*
X114295044Y-77641500D01*
X114295042Y-77641500D01*
X114139779Y-77679769D01*
X113998186Y-77754082D01*
X113998182Y-77754084D01*
X113878484Y-77860128D01*
X113787647Y-77991728D01*
X113787644Y-77991734D01*
X113730938Y-78141253D01*
X113730937Y-78141257D01*
X113711664Y-78299997D01*
X113711664Y-78300002D01*
X111270293Y-78300002D01*
X111254098Y-78285628D01*
X111244072Y-78262593D01*
X111243388Y-78262877D01*
X111240228Y-78255249D01*
X111240228Y-78255246D01*
X111184355Y-78120358D01*
X111095474Y-78004526D01*
X111095472Y-78004524D01*
X111095471Y-78004523D01*
X110979649Y-77915649D01*
X110979641Y-77915644D01*
X110844752Y-77859771D01*
X110700000Y-77840715D01*
X110555247Y-77859771D01*
X110487802Y-77887708D01*
X110420358Y-77915645D01*
X110420357Y-77915646D01*
X110420356Y-77915646D01*
X110304519Y-78004531D01*
X110300456Y-78008595D01*
X110238144Y-78042621D01*
X110211361Y-78045500D01*
X109788639Y-78045500D01*
X109720518Y-78025498D01*
X109699544Y-78008595D01*
X109695475Y-78004526D01*
X109579649Y-77915649D01*
X109579641Y-77915644D01*
X109444752Y-77859771D01*
X109300000Y-77840715D01*
X109155247Y-77859771D01*
X109087802Y-77887708D01*
X109020358Y-77915645D01*
X109020357Y-77915646D01*
X109020356Y-77915646D01*
X108954271Y-77966355D01*
X108904526Y-78004526D01*
X108891727Y-78021204D01*
X108834391Y-78063071D01*
X108791766Y-78070500D01*
X104509883Y-78070500D01*
X104498903Y-78070021D01*
X104475367Y-78067962D01*
X104460839Y-78066691D01*
X104460838Y-78066691D01*
X104423926Y-78076581D01*
X104413201Y-78078958D01*
X104375568Y-78085594D01*
X104370331Y-78087500D01*
X104353641Y-78094413D01*
X104348599Y-78096764D01*
X104317295Y-78118683D01*
X104308031Y-78124585D01*
X104305951Y-78125786D01*
X104236957Y-78142527D01*
X104169864Y-78119309D01*
X104125975Y-78063503D01*
X104125135Y-78061350D01*
X104111538Y-78025498D01*
X104087355Y-77961732D01*
X104047790Y-77904413D01*
X103996515Y-77830128D01*
X103876817Y-77724084D01*
X103876813Y-77724082D01*
X103735220Y-77649769D01*
X103579957Y-77611500D01*
X103579956Y-77611500D01*
X103420044Y-77611500D01*
X103420042Y-77611500D01*
X103264779Y-77649769D01*
X103123186Y-77724082D01*
X103123182Y-77724084D01*
X103003484Y-77830128D01*
X102912647Y-77961728D01*
X102912644Y-77961734D01*
X102855938Y-78111253D01*
X102855937Y-78111257D01*
X102836664Y-78269997D01*
X102836664Y-78270002D01*
X102855937Y-78428742D01*
X102855938Y-78428746D01*
X102912644Y-78578265D01*
X102912647Y-78578271D01*
X103003484Y-78709871D01*
X103003485Y-78709872D01*
X103003486Y-78709873D01*
X103123182Y-78815915D01*
X103264778Y-78890230D01*
X103271696Y-78891935D01*
X103333053Y-78927655D01*
X103365357Y-78990876D01*
X103358354Y-79061526D01*
X103330644Y-79103370D01*
X103126383Y-79307631D01*
X103064071Y-79341657D01*
X103020845Y-79343459D01*
X103007155Y-79341657D01*
X103000000Y-79340715D01*
X102999999Y-79340715D01*
X102999998Y-79340715D01*
X102855247Y-79359771D01*
X102787802Y-79387708D01*
X102720358Y-79415645D01*
X102720357Y-79415646D01*
X102720356Y-79415646D01*
X102604526Y-79504526D01*
X102515646Y-79620356D01*
X102515645Y-79620358D01*
X102487708Y-79687802D01*
X102459771Y-79755247D01*
X102440715Y-79899999D01*
X102440715Y-79900000D01*
X100000500Y-79900000D01*
X100000500Y-79023243D01*
X100000584Y-78975500D01*
X100000500Y-78975072D01*
X100000500Y-78413739D01*
X100020502Y-78345618D01*
X100074158Y-78299125D01*
X100098462Y-78290898D01*
X100166351Y-78275403D01*
X100267967Y-78226467D01*
X100356146Y-78156146D01*
X100426467Y-78067967D01*
X100475403Y-77966351D01*
X100500500Y-77856393D01*
X100500500Y-77823243D01*
X100500584Y-77775500D01*
X100500500Y-77775072D01*
X100500500Y-77743605D01*
X100500162Y-77740605D01*
X100500500Y-77738675D01*
X100500500Y-77736531D01*
X100500876Y-77736531D01*
X100512413Y-77670673D01*
X100560527Y-77618466D01*
X100625370Y-77600500D01*
X100737658Y-77600500D01*
X100737671Y-77600499D01*
X100849915Y-77585071D01*
X100849916Y-77585070D01*
X100849920Y-77585070D01*
X100988720Y-77524780D01*
X100988721Y-77524778D01*
X100988723Y-77524778D01*
X100988725Y-77524776D01*
X101042481Y-77481042D01*
X101106108Y-77429278D01*
X101193377Y-77305647D01*
X101244054Y-77163056D01*
X101254381Y-77012079D01*
X101223592Y-76863915D01*
X101153971Y-76729553D01*
X101153970Y-76729552D01*
X101153938Y-76729490D01*
X101140357Y-76659804D01*
X101162872Y-76598861D01*
X101193377Y-76555647D01*
X101244054Y-76413056D01*
X101254381Y-76262079D01*
X101223592Y-76113915D01*
X101153971Y-75979553D01*
X101153970Y-75979552D01*
X101153938Y-75979490D01*
X101140357Y-75909804D01*
X101162872Y-75848861D01*
X101193377Y-75805647D01*
X101244054Y-75663056D01*
X101254381Y-75512079D01*
X101223592Y-75363915D01*
X101153971Y-75229553D01*
X101153970Y-75229552D01*
X101153938Y-75229490D01*
X101140357Y-75159804D01*
X101162872Y-75098861D01*
X101193377Y-75055647D01*
X101244054Y-74913056D01*
X101254381Y-74762079D01*
X101223592Y-74613915D01*
X101153971Y-74479553D01*
X101153970Y-74479552D01*
X101153938Y-74479490D01*
X101140357Y-74409804D01*
X101162872Y-74348861D01*
X101193377Y-74305647D01*
X101244054Y-74163056D01*
X101254381Y-74012079D01*
X101223592Y-73863915D01*
X101220723Y-73858379D01*
X101187548Y-73794353D01*
X101153971Y-73729553D01*
X101050680Y-73618956D01*
X101026908Y-73604500D01*
X100921381Y-73540327D01*
X100775667Y-73499500D01*
X100775665Y-73499500D01*
X100662342Y-73499500D01*
X100662333Y-73499500D01*
X100642077Y-73502284D01*
X100571867Y-73491742D01*
X100518503Y-73444915D01*
X100498926Y-73376670D01*
X100499716Y-73363350D01*
X100500500Y-73356391D01*
X100500500Y-73243605D01*
X100479780Y-73152828D01*
X100475403Y-73133649D01*
X100426467Y-73032033D01*
X100356146Y-72943854D01*
X100267967Y-72873533D01*
X100267965Y-72873532D01*
X100267964Y-72873531D01*
X100267962Y-72873530D01*
X100166355Y-72824599D01*
X100166351Y-72824597D01*
X100166346Y-72824596D01*
X100166344Y-72824595D01*
X100098460Y-72809100D01*
X100036499Y-72774441D01*
X100003112Y-72711784D01*
X100000500Y-72686260D01*
X100000500Y-71005506D01*
X100000979Y-70994526D01*
X100003525Y-70965420D01*
X100004429Y-70955088D01*
X100004543Y-70953874D01*
X100016902Y-70828391D01*
X100020583Y-70808156D01*
X100037895Y-70743548D01*
X100038971Y-70739780D01*
X100066643Y-70648558D01*
X100073010Y-70631916D01*
X100103665Y-70566176D01*
X100106709Y-70560088D01*
X100148958Y-70481046D01*
X100156848Y-70468201D01*
X100199597Y-70407149D01*
X100205380Y-70399527D01*
X100261131Y-70331594D01*
X100269398Y-70322474D01*
X100322474Y-70269398D01*
X100331594Y-70261131D01*
X100399527Y-70205380D01*
X100407149Y-70199597D01*
X100468201Y-70156848D01*
X100481046Y-70148958D01*
X100560088Y-70106709D01*
X100566176Y-70103665D01*
X100631916Y-70073010D01*
X100648558Y-70066643D01*
X100739780Y-70038971D01*
X100743548Y-70037895D01*
X100808156Y-70020583D01*
X100828391Y-70016902D01*
X100953929Y-70004537D01*
X100955078Y-70004430D01*
X100984529Y-70001853D01*
X100994527Y-70000979D01*
X101005507Y-70000500D01*
X105633500Y-70000500D01*
X105701621Y-70020502D01*
G37*
%TD.AperFunction*%
%TD*%
M02*
