%TF.GenerationSoftware,KiCad,Pcbnew,7.0.10*%
%TF.CreationDate,2024-04-07T01:49:58-04:00*%
%TF.ProjectId,pixie-rev-4,70697869-652d-4726-9576-2d342e6b6963,rev?*%
%TF.SameCoordinates,Original*%
%TF.FileFunction,Legend,Top*%
%TF.FilePolarity,Positive*%
%FSLAX46Y46*%
G04 Gerber Fmt 4.6, Leading zero omitted, Abs format (unit mm)*
G04 Created by KiCad (PCBNEW 7.0.10) date 2024-04-07 01:49:58*
%MOMM*%
%LPD*%
G01*
G04 APERTURE LIST*
G04 Aperture macros list*
%AMRoundRect*
0 Rectangle with rounded corners*
0 $1 Rounding radius*
0 $2 $3 $4 $5 $6 $7 $8 $9 X,Y pos of 4 corners*
0 Add a 4 corners polygon primitive as box body*
4,1,4,$2,$3,$4,$5,$6,$7,$8,$9,$2,$3,0*
0 Add four circle primitives for the rounded corners*
1,1,$1+$1,$2,$3*
1,1,$1+$1,$4,$5*
1,1,$1+$1,$6,$7*
1,1,$1+$1,$8,$9*
0 Add four rect primitives between the rounded corners*
20,1,$1+$1,$2,$3,$4,$5,0*
20,1,$1+$1,$4,$5,$6,$7,0*
20,1,$1+$1,$6,$7,$8,$9,0*
20,1,$1+$1,$8,$9,$2,$3,0*%
G04 Aperture macros list end*
%ADD10C,0.100000*%
%ADD11C,0.150000*%
%ADD12C,0.187500*%
%ADD13C,0.120000*%
%ADD14C,0.500000*%
%ADD15RoundRect,0.100000X-0.100000X0.130000X-0.100000X-0.130000X0.100000X-0.130000X0.100000X0.130000X0*%
%ADD16RoundRect,0.100000X0.130000X0.100000X-0.130000X0.100000X-0.130000X-0.100000X0.130000X-0.100000X0*%
%ADD17RoundRect,0.100000X-0.162635X0.021213X0.021213X-0.162635X0.162635X-0.021213X-0.021213X0.162635X0*%
%ADD18C,1.000000*%
%ADD19RoundRect,0.100000X0.021213X0.162635X-0.162635X-0.021213X-0.021213X-0.162635X0.162635X0.021213X0*%
%ADD20C,0.500000*%
%ADD21RoundRect,0.237500X-0.237500X0.387500X-0.237500X-0.387500X0.237500X-0.387500X0.237500X0.387500X0*%
%ADD22R,0.600000X1.160000*%
%ADD23R,0.300000X1.160000*%
%ADD24O,1.300000X2.100000*%
%ADD25O,1.300000X2.500000*%
%ADD26RoundRect,0.100000X0.100000X-0.130000X0.100000X0.130000X-0.100000X0.130000X-0.100000X-0.130000X0*%
%ADD27R,1.000000X1.000000*%
%ADD28RoundRect,0.140000X-0.170000X0.140000X-0.170000X-0.140000X0.170000X-0.140000X0.170000X0.140000X0*%
%ADD29R,0.700000X0.700000*%
%ADD30RoundRect,0.100000X-0.130000X-0.100000X0.130000X-0.100000X0.130000X0.100000X-0.130000X0.100000X0*%
%ADD31R,1.300000X0.300000*%
%ADD32R,1.600000X2.000000*%
%ADD33R,0.340000X0.700000*%
%ADD34RoundRect,0.062500X0.062500X-0.375000X0.062500X0.375000X-0.062500X0.375000X-0.062500X-0.375000X0*%
%ADD35RoundRect,0.062500X0.375000X-0.062500X0.375000X0.062500X-0.375000X0.062500X-0.375000X-0.062500X0*%
%ADD36R,3.100000X3.100000*%
%ADD37RoundRect,0.140000X0.170000X-0.140000X0.170000X0.140000X-0.170000X0.140000X-0.170000X-0.140000X0*%
%ADD38RoundRect,0.150000X0.150000X-0.650000X0.150000X0.650000X-0.150000X0.650000X-0.150000X-0.650000X0*%
%ADD39RoundRect,0.140000X-0.140000X-0.170000X0.140000X-0.170000X0.140000X0.170000X-0.140000X0.170000X0*%
%ADD40RoundRect,0.150000X0.512500X0.150000X-0.512500X0.150000X-0.512500X-0.150000X0.512500X-0.150000X0*%
%ADD41R,1.000000X1.150000*%
G04 APERTURE END LIST*
D10*
X96600000Y-75550000D02*
G75*
G03*
X94600000Y-75550000I-1000000J0D01*
G01*
X94600000Y-75550000D02*
G75*
G03*
X96600000Y-75550000I1000000J0D01*
G01*
X145000000Y-75500000D02*
G75*
G03*
X143000000Y-75500000I-1000000J0D01*
G01*
X143000000Y-75500000D02*
G75*
G03*
X145000000Y-75500000I1000000J0D01*
G01*
X134900000Y-65500000D02*
G75*
G03*
X132900000Y-65500000I-1000000J0D01*
G01*
X132900000Y-65500000D02*
G75*
G03*
X134900000Y-65500000I1000000J0D01*
G01*
D11*
X102000000Y-128000000D02*
X162000000Y-128000000D01*
D10*
X134950000Y-103400000D02*
G75*
G03*
X132950000Y-103400000I-1000000J0D01*
G01*
X132950000Y-103400000D02*
G75*
G03*
X134950000Y-103400000I1000000J0D01*
G01*
D12*
X116286168Y-93252869D02*
X115952835Y-92776678D01*
X115714740Y-93252869D02*
X115714740Y-92252869D01*
X115714740Y-92252869D02*
X116095692Y-92252869D01*
X116095692Y-92252869D02*
X116190930Y-92300488D01*
X116190930Y-92300488D02*
X116238549Y-92348107D01*
X116238549Y-92348107D02*
X116286168Y-92443345D01*
X116286168Y-92443345D02*
X116286168Y-92586202D01*
X116286168Y-92586202D02*
X116238549Y-92681440D01*
X116238549Y-92681440D02*
X116190930Y-92729059D01*
X116190930Y-92729059D02*
X116095692Y-92776678D01*
X116095692Y-92776678D02*
X115714740Y-92776678D01*
X120438095Y-93867869D02*
X121057142Y-93867869D01*
X121057142Y-93867869D02*
X120723809Y-94248821D01*
X120723809Y-94248821D02*
X120866666Y-94248821D01*
X120866666Y-94248821D02*
X120961904Y-94296440D01*
X120961904Y-94296440D02*
X121009523Y-94344059D01*
X121009523Y-94344059D02*
X121057142Y-94439297D01*
X121057142Y-94439297D02*
X121057142Y-94677392D01*
X121057142Y-94677392D02*
X121009523Y-94772630D01*
X121009523Y-94772630D02*
X120961904Y-94820250D01*
X120961904Y-94820250D02*
X120866666Y-94867869D01*
X120866666Y-94867869D02*
X120580952Y-94867869D01*
X120580952Y-94867869D02*
X120485714Y-94820250D01*
X120485714Y-94820250D02*
X120438095Y-94772630D01*
X121342857Y-93867869D02*
X121676190Y-94867869D01*
X121676190Y-94867869D02*
X122009523Y-93867869D01*
X101688095Y-76263107D02*
X101735714Y-76215488D01*
X101735714Y-76215488D02*
X101830952Y-76167869D01*
X101830952Y-76167869D02*
X102069047Y-76167869D01*
X102069047Y-76167869D02*
X102164285Y-76215488D01*
X102164285Y-76215488D02*
X102211904Y-76263107D01*
X102211904Y-76263107D02*
X102259523Y-76358345D01*
X102259523Y-76358345D02*
X102259523Y-76453583D01*
X102259523Y-76453583D02*
X102211904Y-76596440D01*
X102211904Y-76596440D02*
X101640476Y-77167869D01*
X101640476Y-77167869D02*
X102259523Y-77167869D01*
X102878571Y-76167869D02*
X102973809Y-76167869D01*
X102973809Y-76167869D02*
X103069047Y-76215488D01*
X103069047Y-76215488D02*
X103116666Y-76263107D01*
X103116666Y-76263107D02*
X103164285Y-76358345D01*
X103164285Y-76358345D02*
X103211904Y-76548821D01*
X103211904Y-76548821D02*
X103211904Y-76786916D01*
X103211904Y-76786916D02*
X103164285Y-76977392D01*
X103164285Y-76977392D02*
X103116666Y-77072630D01*
X103116666Y-77072630D02*
X103069047Y-77120250D01*
X103069047Y-77120250D02*
X102973809Y-77167869D01*
X102973809Y-77167869D02*
X102878571Y-77167869D01*
X102878571Y-77167869D02*
X102783333Y-77120250D01*
X102783333Y-77120250D02*
X102735714Y-77072630D01*
X102735714Y-77072630D02*
X102688095Y-76977392D01*
X102688095Y-76977392D02*
X102640476Y-76786916D01*
X102640476Y-76786916D02*
X102640476Y-76548821D01*
X102640476Y-76548821D02*
X102688095Y-76358345D01*
X102688095Y-76358345D02*
X102735714Y-76263107D01*
X102735714Y-76263107D02*
X102783333Y-76215488D01*
X102783333Y-76215488D02*
X102878571Y-76167869D01*
D11*
X95885714Y-76004819D02*
X95314286Y-76004819D01*
X95600000Y-76004819D02*
X95600000Y-75004819D01*
X95600000Y-75004819D02*
X95504762Y-75147676D01*
X95504762Y-75147676D02*
X95409524Y-75242914D01*
X95409524Y-75242914D02*
X95314286Y-75290533D01*
D12*
X124971428Y-72844059D02*
X125114285Y-72891678D01*
X125114285Y-72891678D02*
X125161904Y-72939297D01*
X125161904Y-72939297D02*
X125209523Y-73034535D01*
X125209523Y-73034535D02*
X125209523Y-73177392D01*
X125209523Y-73177392D02*
X125161904Y-73272630D01*
X125161904Y-73272630D02*
X125114285Y-73320250D01*
X125114285Y-73320250D02*
X125019047Y-73367869D01*
X125019047Y-73367869D02*
X124638095Y-73367869D01*
X124638095Y-73367869D02*
X124638095Y-72367869D01*
X124638095Y-72367869D02*
X124971428Y-72367869D01*
X124971428Y-72367869D02*
X125066666Y-72415488D01*
X125066666Y-72415488D02*
X125114285Y-72463107D01*
X125114285Y-72463107D02*
X125161904Y-72558345D01*
X125161904Y-72558345D02*
X125161904Y-72653583D01*
X125161904Y-72653583D02*
X125114285Y-72748821D01*
X125114285Y-72748821D02*
X125066666Y-72796440D01*
X125066666Y-72796440D02*
X124971428Y-72844059D01*
X124971428Y-72844059D02*
X124638095Y-72844059D01*
D11*
X144190476Y-75288152D02*
X144190476Y-75954819D01*
X143952381Y-74907200D02*
X143714286Y-75621485D01*
X143714286Y-75621485D02*
X144333333Y-75621485D01*
D12*
X129409523Y-93867869D02*
X128933333Y-93867869D01*
X128933333Y-93867869D02*
X128885714Y-94344059D01*
X128885714Y-94344059D02*
X128933333Y-94296440D01*
X128933333Y-94296440D02*
X129028571Y-94248821D01*
X129028571Y-94248821D02*
X129266666Y-94248821D01*
X129266666Y-94248821D02*
X129361904Y-94296440D01*
X129361904Y-94296440D02*
X129409523Y-94344059D01*
X129409523Y-94344059D02*
X129457142Y-94439297D01*
X129457142Y-94439297D02*
X129457142Y-94677392D01*
X129457142Y-94677392D02*
X129409523Y-94772630D01*
X129409523Y-94772630D02*
X129361904Y-94820250D01*
X129361904Y-94820250D02*
X129266666Y-94867869D01*
X129266666Y-94867869D02*
X129028571Y-94867869D01*
X129028571Y-94867869D02*
X128933333Y-94820250D01*
X128933333Y-94820250D02*
X128885714Y-94772630D01*
X129742857Y-93867869D02*
X130076190Y-94867869D01*
X130076190Y-94867869D02*
X130409523Y-93867869D01*
D11*
X133616667Y-102854819D02*
X134235714Y-102854819D01*
X134235714Y-102854819D02*
X133902381Y-103235771D01*
X133902381Y-103235771D02*
X134045238Y-103235771D01*
X134045238Y-103235771D02*
X134140476Y-103283390D01*
X134140476Y-103283390D02*
X134188095Y-103331009D01*
X134188095Y-103331009D02*
X134235714Y-103426247D01*
X134235714Y-103426247D02*
X134235714Y-103664342D01*
X134235714Y-103664342D02*
X134188095Y-103759580D01*
X134188095Y-103759580D02*
X134140476Y-103807200D01*
X134140476Y-103807200D02*
X134045238Y-103854819D01*
X134045238Y-103854819D02*
X133759524Y-103854819D01*
X133759524Y-103854819D02*
X133664286Y-103807200D01*
X133664286Y-103807200D02*
X133616667Y-103759580D01*
X133614286Y-65050057D02*
X133661905Y-65002438D01*
X133661905Y-65002438D02*
X133757143Y-64954819D01*
X133757143Y-64954819D02*
X133995238Y-64954819D01*
X133995238Y-64954819D02*
X134090476Y-65002438D01*
X134090476Y-65002438D02*
X134138095Y-65050057D01*
X134138095Y-65050057D02*
X134185714Y-65145295D01*
X134185714Y-65145295D02*
X134185714Y-65240533D01*
X134185714Y-65240533D02*
X134138095Y-65383390D01*
X134138095Y-65383390D02*
X133566667Y-65954819D01*
X133566667Y-65954819D02*
X134185714Y-65954819D01*
D12*
X101638095Y-72948107D02*
X101685714Y-72900488D01*
X101685714Y-72900488D02*
X101780952Y-72852869D01*
X101780952Y-72852869D02*
X102019047Y-72852869D01*
X102019047Y-72852869D02*
X102114285Y-72900488D01*
X102114285Y-72900488D02*
X102161904Y-72948107D01*
X102161904Y-72948107D02*
X102209523Y-73043345D01*
X102209523Y-73043345D02*
X102209523Y-73138583D01*
X102209523Y-73138583D02*
X102161904Y-73281440D01*
X102161904Y-73281440D02*
X101590476Y-73852869D01*
X101590476Y-73852869D02*
X102209523Y-73852869D01*
X103161904Y-73852869D02*
X102590476Y-73852869D01*
X102876190Y-73852869D02*
X102876190Y-72852869D01*
X102876190Y-72852869D02*
X102780952Y-72995726D01*
X102780952Y-72995726D02*
X102685714Y-73090964D01*
X102685714Y-73090964D02*
X102590476Y-73138583D01*
D11*
X114180951Y-65154819D02*
X114180951Y-65869104D01*
X114180951Y-65869104D02*
X114133332Y-66011961D01*
X114133332Y-66011961D02*
X114038094Y-66107200D01*
X114038094Y-66107200D02*
X113895237Y-66154819D01*
X113895237Y-66154819D02*
X113799999Y-66154819D01*
X115133332Y-66154819D02*
X114657142Y-66154819D01*
X114657142Y-66154819D02*
X114657142Y-65154819D01*
X116038094Y-66059580D02*
X115990475Y-66107200D01*
X115990475Y-66107200D02*
X115847618Y-66154819D01*
X115847618Y-66154819D02*
X115752380Y-66154819D01*
X115752380Y-66154819D02*
X115609523Y-66107200D01*
X115609523Y-66107200D02*
X115514285Y-66011961D01*
X115514285Y-66011961D02*
X115466666Y-65916723D01*
X115466666Y-65916723D02*
X115419047Y-65726247D01*
X115419047Y-65726247D02*
X115419047Y-65583390D01*
X115419047Y-65583390D02*
X115466666Y-65392914D01*
X115466666Y-65392914D02*
X115514285Y-65297676D01*
X115514285Y-65297676D02*
X115609523Y-65202438D01*
X115609523Y-65202438D02*
X115752380Y-65154819D01*
X115752380Y-65154819D02*
X115847618Y-65154819D01*
X115847618Y-65154819D02*
X115990475Y-65202438D01*
X115990475Y-65202438D02*
X116038094Y-65250057D01*
X116752380Y-65154819D02*
X116752380Y-65869104D01*
X116752380Y-65869104D02*
X116704761Y-66011961D01*
X116704761Y-66011961D02*
X116609523Y-66107200D01*
X116609523Y-66107200D02*
X116466666Y-66154819D01*
X116466666Y-66154819D02*
X116371428Y-66154819D01*
X117704761Y-66154819D02*
X117228571Y-66154819D01*
X117228571Y-66154819D02*
X117228571Y-65154819D01*
X118609523Y-66059580D02*
X118561904Y-66107200D01*
X118561904Y-66107200D02*
X118419047Y-66154819D01*
X118419047Y-66154819D02*
X118323809Y-66154819D01*
X118323809Y-66154819D02*
X118180952Y-66107200D01*
X118180952Y-66107200D02*
X118085714Y-66011961D01*
X118085714Y-66011961D02*
X118038095Y-65916723D01*
X118038095Y-65916723D02*
X117990476Y-65726247D01*
X117990476Y-65726247D02*
X117990476Y-65583390D01*
X117990476Y-65583390D02*
X118038095Y-65392914D01*
X118038095Y-65392914D02*
X118085714Y-65297676D01*
X118085714Y-65297676D02*
X118180952Y-65202438D01*
X118180952Y-65202438D02*
X118323809Y-65154819D01*
X118323809Y-65154819D02*
X118419047Y-65154819D01*
X118419047Y-65154819D02*
X118561904Y-65202438D01*
X118561904Y-65202438D02*
X118609523Y-65250057D01*
X119323809Y-65154819D02*
X119323809Y-65869104D01*
X119323809Y-65869104D02*
X119276190Y-66011961D01*
X119276190Y-66011961D02*
X119180952Y-66107200D01*
X119180952Y-66107200D02*
X119038095Y-66154819D01*
X119038095Y-66154819D02*
X118942857Y-66154819D01*
X120276190Y-66154819D02*
X119800000Y-66154819D01*
X119800000Y-66154819D02*
X119800000Y-65154819D01*
X121180952Y-66059580D02*
X121133333Y-66107200D01*
X121133333Y-66107200D02*
X120990476Y-66154819D01*
X120990476Y-66154819D02*
X120895238Y-66154819D01*
X120895238Y-66154819D02*
X120752381Y-66107200D01*
X120752381Y-66107200D02*
X120657143Y-66011961D01*
X120657143Y-66011961D02*
X120609524Y-65916723D01*
X120609524Y-65916723D02*
X120561905Y-65726247D01*
X120561905Y-65726247D02*
X120561905Y-65583390D01*
X120561905Y-65583390D02*
X120609524Y-65392914D01*
X120609524Y-65392914D02*
X120657143Y-65297676D01*
X120657143Y-65297676D02*
X120752381Y-65202438D01*
X120752381Y-65202438D02*
X120895238Y-65154819D01*
X120895238Y-65154819D02*
X120990476Y-65154819D01*
X120990476Y-65154819D02*
X121133333Y-65202438D01*
X121133333Y-65202438D02*
X121180952Y-65250057D01*
X121895238Y-65154819D02*
X121895238Y-65869104D01*
X121895238Y-65869104D02*
X121847619Y-66011961D01*
X121847619Y-66011961D02*
X121752381Y-66107200D01*
X121752381Y-66107200D02*
X121609524Y-66154819D01*
X121609524Y-66154819D02*
X121514286Y-66154819D01*
X122847619Y-66154819D02*
X122371429Y-66154819D01*
X122371429Y-66154819D02*
X122371429Y-65154819D01*
X123752381Y-66059580D02*
X123704762Y-66107200D01*
X123704762Y-66107200D02*
X123561905Y-66154819D01*
X123561905Y-66154819D02*
X123466667Y-66154819D01*
X123466667Y-66154819D02*
X123323810Y-66107200D01*
X123323810Y-66107200D02*
X123228572Y-66011961D01*
X123228572Y-66011961D02*
X123180953Y-65916723D01*
X123180953Y-65916723D02*
X123133334Y-65726247D01*
X123133334Y-65726247D02*
X123133334Y-65583390D01*
X123133334Y-65583390D02*
X123180953Y-65392914D01*
X123180953Y-65392914D02*
X123228572Y-65297676D01*
X123228572Y-65297676D02*
X123323810Y-65202438D01*
X123323810Y-65202438D02*
X123466667Y-65154819D01*
X123466667Y-65154819D02*
X123561905Y-65154819D01*
X123561905Y-65154819D02*
X123704762Y-65202438D01*
X123704762Y-65202438D02*
X123752381Y-65250057D01*
D12*
X118661904Y-72415488D02*
X118566666Y-72367869D01*
X118566666Y-72367869D02*
X118423809Y-72367869D01*
X118423809Y-72367869D02*
X118280952Y-72415488D01*
X118280952Y-72415488D02*
X118185714Y-72510726D01*
X118185714Y-72510726D02*
X118138095Y-72605964D01*
X118138095Y-72605964D02*
X118090476Y-72796440D01*
X118090476Y-72796440D02*
X118090476Y-72939297D01*
X118090476Y-72939297D02*
X118138095Y-73129773D01*
X118138095Y-73129773D02*
X118185714Y-73225011D01*
X118185714Y-73225011D02*
X118280952Y-73320250D01*
X118280952Y-73320250D02*
X118423809Y-73367869D01*
X118423809Y-73367869D02*
X118519047Y-73367869D01*
X118519047Y-73367869D02*
X118661904Y-73320250D01*
X118661904Y-73320250D02*
X118709523Y-73272630D01*
X118709523Y-73272630D02*
X118709523Y-72939297D01*
X118709523Y-72939297D02*
X118519047Y-72939297D01*
D10*
X138609800Y-89833332D02*
X138657419Y-89690475D01*
X138657419Y-89690475D02*
X138657419Y-89452380D01*
X138657419Y-89452380D02*
X138609800Y-89357142D01*
X138609800Y-89357142D02*
X138562180Y-89309523D01*
X138562180Y-89309523D02*
X138466942Y-89261904D01*
X138466942Y-89261904D02*
X138371704Y-89261904D01*
X138371704Y-89261904D02*
X138276466Y-89309523D01*
X138276466Y-89309523D02*
X138228847Y-89357142D01*
X138228847Y-89357142D02*
X138181228Y-89452380D01*
X138181228Y-89452380D02*
X138133609Y-89642856D01*
X138133609Y-89642856D02*
X138085990Y-89738094D01*
X138085990Y-89738094D02*
X138038371Y-89785713D01*
X138038371Y-89785713D02*
X137943133Y-89833332D01*
X137943133Y-89833332D02*
X137847895Y-89833332D01*
X137847895Y-89833332D02*
X137752657Y-89785713D01*
X137752657Y-89785713D02*
X137705038Y-89738094D01*
X137705038Y-89738094D02*
X137657419Y-89642856D01*
X137657419Y-89642856D02*
X137657419Y-89404761D01*
X137657419Y-89404761D02*
X137705038Y-89261904D01*
X137657419Y-88928570D02*
X138657419Y-88690475D01*
X138657419Y-88690475D02*
X137943133Y-88499999D01*
X137943133Y-88499999D02*
X138657419Y-88309523D01*
X138657419Y-88309523D02*
X137657419Y-88071428D01*
X137657419Y-87785713D02*
X137657419Y-87166666D01*
X137657419Y-87166666D02*
X138038371Y-87499999D01*
X138038371Y-87499999D02*
X138038371Y-87357142D01*
X138038371Y-87357142D02*
X138085990Y-87261904D01*
X138085990Y-87261904D02*
X138133609Y-87214285D01*
X138133609Y-87214285D02*
X138228847Y-87166666D01*
X138228847Y-87166666D02*
X138466942Y-87166666D01*
X138466942Y-87166666D02*
X138562180Y-87214285D01*
X138562180Y-87214285D02*
X138609800Y-87261904D01*
X138609800Y-87261904D02*
X138657419Y-87357142D01*
X138657419Y-87357142D02*
X138657419Y-87642856D01*
X138657419Y-87642856D02*
X138609800Y-87738094D01*
X138609800Y-87738094D02*
X138562180Y-87785713D01*
X138609800Y-75833332D02*
X138657419Y-75690475D01*
X138657419Y-75690475D02*
X138657419Y-75452380D01*
X138657419Y-75452380D02*
X138609800Y-75357142D01*
X138609800Y-75357142D02*
X138562180Y-75309523D01*
X138562180Y-75309523D02*
X138466942Y-75261904D01*
X138466942Y-75261904D02*
X138371704Y-75261904D01*
X138371704Y-75261904D02*
X138276466Y-75309523D01*
X138276466Y-75309523D02*
X138228847Y-75357142D01*
X138228847Y-75357142D02*
X138181228Y-75452380D01*
X138181228Y-75452380D02*
X138133609Y-75642856D01*
X138133609Y-75642856D02*
X138085990Y-75738094D01*
X138085990Y-75738094D02*
X138038371Y-75785713D01*
X138038371Y-75785713D02*
X137943133Y-75833332D01*
X137943133Y-75833332D02*
X137847895Y-75833332D01*
X137847895Y-75833332D02*
X137752657Y-75785713D01*
X137752657Y-75785713D02*
X137705038Y-75738094D01*
X137705038Y-75738094D02*
X137657419Y-75642856D01*
X137657419Y-75642856D02*
X137657419Y-75404761D01*
X137657419Y-75404761D02*
X137705038Y-75261904D01*
X137657419Y-74928570D02*
X138657419Y-74690475D01*
X138657419Y-74690475D02*
X137943133Y-74499999D01*
X137943133Y-74499999D02*
X138657419Y-74309523D01*
X138657419Y-74309523D02*
X137657419Y-74071428D01*
X138657419Y-73166666D02*
X138657419Y-73738094D01*
X138657419Y-73452380D02*
X137657419Y-73452380D01*
X137657419Y-73452380D02*
X137800276Y-73547618D01*
X137800276Y-73547618D02*
X137895514Y-73642856D01*
X137895514Y-73642856D02*
X137943133Y-73738094D01*
D11*
X131311905Y-83954819D02*
X131311905Y-82954819D01*
X131311905Y-82954819D02*
X131550000Y-82954819D01*
X131550000Y-82954819D02*
X131692857Y-83002438D01*
X131692857Y-83002438D02*
X131788095Y-83097676D01*
X131788095Y-83097676D02*
X131835714Y-83192914D01*
X131835714Y-83192914D02*
X131883333Y-83383390D01*
X131883333Y-83383390D02*
X131883333Y-83526247D01*
X131883333Y-83526247D02*
X131835714Y-83716723D01*
X131835714Y-83716723D02*
X131788095Y-83811961D01*
X131788095Y-83811961D02*
X131692857Y-83907200D01*
X131692857Y-83907200D02*
X131550000Y-83954819D01*
X131550000Y-83954819D02*
X131311905Y-83954819D01*
X132264286Y-83050057D02*
X132311905Y-83002438D01*
X132311905Y-83002438D02*
X132407143Y-82954819D01*
X132407143Y-82954819D02*
X132645238Y-82954819D01*
X132645238Y-82954819D02*
X132740476Y-83002438D01*
X132740476Y-83002438D02*
X132788095Y-83050057D01*
X132788095Y-83050057D02*
X132835714Y-83145295D01*
X132835714Y-83145295D02*
X132835714Y-83240533D01*
X132835714Y-83240533D02*
X132788095Y-83383390D01*
X132788095Y-83383390D02*
X132216667Y-83954819D01*
X132216667Y-83954819D02*
X132835714Y-83954819D01*
X116545180Y-81666666D02*
X115830895Y-81666666D01*
X115830895Y-81666666D02*
X115688038Y-81619047D01*
X115688038Y-81619047D02*
X115592800Y-81523809D01*
X115592800Y-81523809D02*
X115545180Y-81380952D01*
X115545180Y-81380952D02*
X115545180Y-81285714D01*
X116449942Y-82095238D02*
X116497561Y-82142857D01*
X116497561Y-82142857D02*
X116545180Y-82238095D01*
X116545180Y-82238095D02*
X116545180Y-82476190D01*
X116545180Y-82476190D02*
X116497561Y-82571428D01*
X116497561Y-82571428D02*
X116449942Y-82619047D01*
X116449942Y-82619047D02*
X116354704Y-82666666D01*
X116354704Y-82666666D02*
X116259466Y-82666666D01*
X116259466Y-82666666D02*
X116116609Y-82619047D01*
X116116609Y-82619047D02*
X115545180Y-82047619D01*
X115545180Y-82047619D02*
X115545180Y-82666666D01*
D10*
X138609800Y-82833332D02*
X138657419Y-82690475D01*
X138657419Y-82690475D02*
X138657419Y-82452380D01*
X138657419Y-82452380D02*
X138609800Y-82357142D01*
X138609800Y-82357142D02*
X138562180Y-82309523D01*
X138562180Y-82309523D02*
X138466942Y-82261904D01*
X138466942Y-82261904D02*
X138371704Y-82261904D01*
X138371704Y-82261904D02*
X138276466Y-82309523D01*
X138276466Y-82309523D02*
X138228847Y-82357142D01*
X138228847Y-82357142D02*
X138181228Y-82452380D01*
X138181228Y-82452380D02*
X138133609Y-82642856D01*
X138133609Y-82642856D02*
X138085990Y-82738094D01*
X138085990Y-82738094D02*
X138038371Y-82785713D01*
X138038371Y-82785713D02*
X137943133Y-82833332D01*
X137943133Y-82833332D02*
X137847895Y-82833332D01*
X137847895Y-82833332D02*
X137752657Y-82785713D01*
X137752657Y-82785713D02*
X137705038Y-82738094D01*
X137705038Y-82738094D02*
X137657419Y-82642856D01*
X137657419Y-82642856D02*
X137657419Y-82404761D01*
X137657419Y-82404761D02*
X137705038Y-82261904D01*
X137657419Y-81928570D02*
X138657419Y-81690475D01*
X138657419Y-81690475D02*
X137943133Y-81499999D01*
X137943133Y-81499999D02*
X138657419Y-81309523D01*
X138657419Y-81309523D02*
X137657419Y-81071428D01*
X137752657Y-80738094D02*
X137705038Y-80690475D01*
X137705038Y-80690475D02*
X137657419Y-80595237D01*
X137657419Y-80595237D02*
X137657419Y-80357142D01*
X137657419Y-80357142D02*
X137705038Y-80261904D01*
X137705038Y-80261904D02*
X137752657Y-80214285D01*
X137752657Y-80214285D02*
X137847895Y-80166666D01*
X137847895Y-80166666D02*
X137943133Y-80166666D01*
X137943133Y-80166666D02*
X138085990Y-80214285D01*
X138085990Y-80214285D02*
X138657419Y-80785713D01*
X138657419Y-80785713D02*
X138657419Y-80166666D01*
D11*
X131311905Y-97954819D02*
X131311905Y-96954819D01*
X131311905Y-96954819D02*
X131550000Y-96954819D01*
X131550000Y-96954819D02*
X131692857Y-97002438D01*
X131692857Y-97002438D02*
X131788095Y-97097676D01*
X131788095Y-97097676D02*
X131835714Y-97192914D01*
X131835714Y-97192914D02*
X131883333Y-97383390D01*
X131883333Y-97383390D02*
X131883333Y-97526247D01*
X131883333Y-97526247D02*
X131835714Y-97716723D01*
X131835714Y-97716723D02*
X131788095Y-97811961D01*
X131788095Y-97811961D02*
X131692857Y-97907200D01*
X131692857Y-97907200D02*
X131550000Y-97954819D01*
X131550000Y-97954819D02*
X131311905Y-97954819D01*
X132740476Y-97288152D02*
X132740476Y-97954819D01*
X132502381Y-96907200D02*
X132264286Y-97621485D01*
X132264286Y-97621485D02*
X132883333Y-97621485D01*
X102738095Y-81354819D02*
X102738095Y-82164342D01*
X102738095Y-82164342D02*
X102785714Y-82259580D01*
X102785714Y-82259580D02*
X102833333Y-82307200D01*
X102833333Y-82307200D02*
X102928571Y-82354819D01*
X102928571Y-82354819D02*
X103119047Y-82354819D01*
X103119047Y-82354819D02*
X103214285Y-82307200D01*
X103214285Y-82307200D02*
X103261904Y-82259580D01*
X103261904Y-82259580D02*
X103309523Y-82164342D01*
X103309523Y-82164342D02*
X103309523Y-81354819D01*
X104309523Y-82354819D02*
X103738095Y-82354819D01*
X104023809Y-82354819D02*
X104023809Y-81354819D01*
X104023809Y-81354819D02*
X103928571Y-81497676D01*
X103928571Y-81497676D02*
X103833333Y-81592914D01*
X103833333Y-81592914D02*
X103738095Y-81640533D01*
X108438095Y-82254819D02*
X108438095Y-83064342D01*
X108438095Y-83064342D02*
X108485714Y-83159580D01*
X108485714Y-83159580D02*
X108533333Y-83207200D01*
X108533333Y-83207200D02*
X108628571Y-83254819D01*
X108628571Y-83254819D02*
X108819047Y-83254819D01*
X108819047Y-83254819D02*
X108914285Y-83207200D01*
X108914285Y-83207200D02*
X108961904Y-83159580D01*
X108961904Y-83159580D02*
X109009523Y-83064342D01*
X109009523Y-83064342D02*
X109009523Y-82254819D01*
X109914285Y-82588152D02*
X109914285Y-83254819D01*
X109676190Y-82207200D02*
X109438095Y-82921485D01*
X109438095Y-82921485D02*
X110057142Y-82921485D01*
X131361905Y-76954819D02*
X131361905Y-75954819D01*
X131361905Y-75954819D02*
X131600000Y-75954819D01*
X131600000Y-75954819D02*
X131742857Y-76002438D01*
X131742857Y-76002438D02*
X131838095Y-76097676D01*
X131838095Y-76097676D02*
X131885714Y-76192914D01*
X131885714Y-76192914D02*
X131933333Y-76383390D01*
X131933333Y-76383390D02*
X131933333Y-76526247D01*
X131933333Y-76526247D02*
X131885714Y-76716723D01*
X131885714Y-76716723D02*
X131838095Y-76811961D01*
X131838095Y-76811961D02*
X131742857Y-76907200D01*
X131742857Y-76907200D02*
X131600000Y-76954819D01*
X131600000Y-76954819D02*
X131361905Y-76954819D01*
X132885714Y-76954819D02*
X132314286Y-76954819D01*
X132600000Y-76954819D02*
X132600000Y-75954819D01*
X132600000Y-75954819D02*
X132504762Y-76097676D01*
X132504762Y-76097676D02*
X132409524Y-76192914D01*
X132409524Y-76192914D02*
X132314286Y-76240533D01*
X115013095Y-80429819D02*
X115013095Y-81239342D01*
X115013095Y-81239342D02*
X115060714Y-81334580D01*
X115060714Y-81334580D02*
X115108333Y-81382200D01*
X115108333Y-81382200D02*
X115203571Y-81429819D01*
X115203571Y-81429819D02*
X115394047Y-81429819D01*
X115394047Y-81429819D02*
X115489285Y-81382200D01*
X115489285Y-81382200D02*
X115536904Y-81334580D01*
X115536904Y-81334580D02*
X115584523Y-81239342D01*
X115584523Y-81239342D02*
X115584523Y-80429819D01*
X115965476Y-80429819D02*
X116584523Y-80429819D01*
X116584523Y-80429819D02*
X116251190Y-80810771D01*
X116251190Y-80810771D02*
X116394047Y-80810771D01*
X116394047Y-80810771D02*
X116489285Y-80858390D01*
X116489285Y-80858390D02*
X116536904Y-80906009D01*
X116536904Y-80906009D02*
X116584523Y-81001247D01*
X116584523Y-81001247D02*
X116584523Y-81239342D01*
X116584523Y-81239342D02*
X116536904Y-81334580D01*
X116536904Y-81334580D02*
X116489285Y-81382200D01*
X116489285Y-81382200D02*
X116394047Y-81429819D01*
X116394047Y-81429819D02*
X116108333Y-81429819D01*
X116108333Y-81429819D02*
X116013095Y-81382200D01*
X116013095Y-81382200D02*
X115965476Y-81334580D01*
X116233333Y-99269104D02*
X116709523Y-99269104D01*
X116138095Y-99554819D02*
X116471428Y-98554819D01*
X116471428Y-98554819D02*
X116804761Y-99554819D01*
X117138095Y-99031009D02*
X117471428Y-99031009D01*
X117614285Y-99554819D02*
X117138095Y-99554819D01*
X117138095Y-99554819D02*
X117138095Y-98554819D01*
X117138095Y-98554819D02*
X117614285Y-98554819D01*
X118566666Y-99554819D02*
X117995238Y-99554819D01*
X118280952Y-99554819D02*
X118280952Y-98554819D01*
X118280952Y-98554819D02*
X118185714Y-98697676D01*
X118185714Y-98697676D02*
X118090476Y-98792914D01*
X118090476Y-98792914D02*
X117995238Y-98840533D01*
X124238095Y-90054819D02*
X124238095Y-90864342D01*
X124238095Y-90864342D02*
X124285714Y-90959580D01*
X124285714Y-90959580D02*
X124333333Y-91007200D01*
X124333333Y-91007200D02*
X124428571Y-91054819D01*
X124428571Y-91054819D02*
X124619047Y-91054819D01*
X124619047Y-91054819D02*
X124714285Y-91007200D01*
X124714285Y-91007200D02*
X124761904Y-90959580D01*
X124761904Y-90959580D02*
X124809523Y-90864342D01*
X124809523Y-90864342D02*
X124809523Y-90054819D01*
X125238095Y-90150057D02*
X125285714Y-90102438D01*
X125285714Y-90102438D02*
X125380952Y-90054819D01*
X125380952Y-90054819D02*
X125619047Y-90054819D01*
X125619047Y-90054819D02*
X125714285Y-90102438D01*
X125714285Y-90102438D02*
X125761904Y-90150057D01*
X125761904Y-90150057D02*
X125809523Y-90245295D01*
X125809523Y-90245295D02*
X125809523Y-90340533D01*
X125809523Y-90340533D02*
X125761904Y-90483390D01*
X125761904Y-90483390D02*
X125190476Y-91054819D01*
X125190476Y-91054819D02*
X125809523Y-91054819D01*
X131311905Y-90954819D02*
X131311905Y-89954819D01*
X131311905Y-89954819D02*
X131550000Y-89954819D01*
X131550000Y-89954819D02*
X131692857Y-90002438D01*
X131692857Y-90002438D02*
X131788095Y-90097676D01*
X131788095Y-90097676D02*
X131835714Y-90192914D01*
X131835714Y-90192914D02*
X131883333Y-90383390D01*
X131883333Y-90383390D02*
X131883333Y-90526247D01*
X131883333Y-90526247D02*
X131835714Y-90716723D01*
X131835714Y-90716723D02*
X131788095Y-90811961D01*
X131788095Y-90811961D02*
X131692857Y-90907200D01*
X131692857Y-90907200D02*
X131550000Y-90954819D01*
X131550000Y-90954819D02*
X131311905Y-90954819D01*
X132216667Y-89954819D02*
X132835714Y-89954819D01*
X132835714Y-89954819D02*
X132502381Y-90335771D01*
X132502381Y-90335771D02*
X132645238Y-90335771D01*
X132645238Y-90335771D02*
X132740476Y-90383390D01*
X132740476Y-90383390D02*
X132788095Y-90431009D01*
X132788095Y-90431009D02*
X132835714Y-90526247D01*
X132835714Y-90526247D02*
X132835714Y-90764342D01*
X132835714Y-90764342D02*
X132788095Y-90859580D01*
X132788095Y-90859580D02*
X132740476Y-90907200D01*
X132740476Y-90907200D02*
X132645238Y-90954819D01*
X132645238Y-90954819D02*
X132359524Y-90954819D01*
X132359524Y-90954819D02*
X132264286Y-90907200D01*
X132264286Y-90907200D02*
X132216667Y-90859580D01*
D10*
X138609800Y-96833332D02*
X138657419Y-96690475D01*
X138657419Y-96690475D02*
X138657419Y-96452380D01*
X138657419Y-96452380D02*
X138609800Y-96357142D01*
X138609800Y-96357142D02*
X138562180Y-96309523D01*
X138562180Y-96309523D02*
X138466942Y-96261904D01*
X138466942Y-96261904D02*
X138371704Y-96261904D01*
X138371704Y-96261904D02*
X138276466Y-96309523D01*
X138276466Y-96309523D02*
X138228847Y-96357142D01*
X138228847Y-96357142D02*
X138181228Y-96452380D01*
X138181228Y-96452380D02*
X138133609Y-96642856D01*
X138133609Y-96642856D02*
X138085990Y-96738094D01*
X138085990Y-96738094D02*
X138038371Y-96785713D01*
X138038371Y-96785713D02*
X137943133Y-96833332D01*
X137943133Y-96833332D02*
X137847895Y-96833332D01*
X137847895Y-96833332D02*
X137752657Y-96785713D01*
X137752657Y-96785713D02*
X137705038Y-96738094D01*
X137705038Y-96738094D02*
X137657419Y-96642856D01*
X137657419Y-96642856D02*
X137657419Y-96404761D01*
X137657419Y-96404761D02*
X137705038Y-96261904D01*
X137657419Y-95928570D02*
X138657419Y-95690475D01*
X138657419Y-95690475D02*
X137943133Y-95499999D01*
X137943133Y-95499999D02*
X138657419Y-95309523D01*
X138657419Y-95309523D02*
X137657419Y-95071428D01*
X137990752Y-94261904D02*
X138657419Y-94261904D01*
X137609800Y-94499999D02*
X138324085Y-94738094D01*
X138324085Y-94738094D02*
X138324085Y-94119047D01*
D11*
X103123809Y-84253628D02*
X103123809Y-84729819D01*
X102790476Y-83729819D02*
X103123809Y-84253628D01*
X103123809Y-84253628D02*
X103457142Y-83729819D01*
X104314285Y-84729819D02*
X103742857Y-84729819D01*
X104028571Y-84729819D02*
X104028571Y-83729819D01*
X104028571Y-83729819D02*
X103933333Y-83872676D01*
X103933333Y-83872676D02*
X103838095Y-83967914D01*
X103838095Y-83967914D02*
X103742857Y-84015533D01*
X127688095Y-74254819D02*
X127688095Y-75064342D01*
X127688095Y-75064342D02*
X127735714Y-75159580D01*
X127735714Y-75159580D02*
X127783333Y-75207200D01*
X127783333Y-75207200D02*
X127878571Y-75254819D01*
X127878571Y-75254819D02*
X128069047Y-75254819D01*
X128069047Y-75254819D02*
X128164285Y-75207200D01*
X128164285Y-75207200D02*
X128211904Y-75159580D01*
X128211904Y-75159580D02*
X128259523Y-75064342D01*
X128259523Y-75064342D02*
X128259523Y-74254819D01*
X129211904Y-74254819D02*
X128735714Y-74254819D01*
X128735714Y-74254819D02*
X128688095Y-74731009D01*
X128688095Y-74731009D02*
X128735714Y-74683390D01*
X128735714Y-74683390D02*
X128830952Y-74635771D01*
X128830952Y-74635771D02*
X129069047Y-74635771D01*
X129069047Y-74635771D02*
X129164285Y-74683390D01*
X129164285Y-74683390D02*
X129211904Y-74731009D01*
X129211904Y-74731009D02*
X129259523Y-74826247D01*
X129259523Y-74826247D02*
X129259523Y-75064342D01*
X129259523Y-75064342D02*
X129211904Y-75159580D01*
X129211904Y-75159580D02*
X129164285Y-75207200D01*
X129164285Y-75207200D02*
X129069047Y-75254819D01*
X129069047Y-75254819D02*
X128830952Y-75254819D01*
X128830952Y-75254819D02*
X128735714Y-75207200D01*
X128735714Y-75207200D02*
X128688095Y-75159580D01*
D13*
%TO.C,TP2*%
X103100000Y-71900000D02*
G75*
G03*
X101700000Y-71900000I-700000J0D01*
G01*
X101700000Y-71900000D02*
G75*
G03*
X103100000Y-71900000I700000J0D01*
G01*
D10*
%TO.C,SW3*%
X136625000Y-88875000D02*
X136625000Y-88125000D01*
X134375000Y-88875000D02*
X134375000Y-88125000D01*
X137175000Y-86400000D02*
X133825000Y-86400000D01*
X133825000Y-86400000D02*
X133825000Y-90600000D01*
X133825000Y-90600000D02*
X137175000Y-90600000D01*
X137175000Y-90600000D02*
X137175000Y-86400000D01*
X136625000Y-88125000D02*
G75*
G03*
X134375000Y-88125000I-1125000J0D01*
G01*
X134375000Y-88875000D02*
G75*
G03*
X136625000Y-88875000I1125000J0D01*
G01*
%TO.C,SW1*%
X136625000Y-74875000D02*
X136625000Y-74125000D01*
X134375000Y-74875000D02*
X134375000Y-74125000D01*
X137175000Y-72400000D02*
X133825000Y-72400000D01*
X133825000Y-72400000D02*
X133825000Y-76600000D01*
X133825000Y-76600000D02*
X137175000Y-76600000D01*
X137175000Y-76600000D02*
X137175000Y-72400000D01*
X136625000Y-74125000D02*
G75*
G03*
X134375000Y-74125000I-1125000J0D01*
G01*
X134375000Y-74875000D02*
G75*
G03*
X136625000Y-74875000I1125000J0D01*
G01*
D13*
%TO.C,GND1*%
X117700000Y-70700000D02*
X119100000Y-70700000D01*
X117700000Y-72100000D02*
X117700000Y-70700000D01*
X119100000Y-70700000D02*
X119100000Y-72100000D01*
X119100000Y-72100000D02*
X117700000Y-72100000D01*
%TO.C,C17*%
X110985000Y-91822164D02*
X110985000Y-92037836D01*
X110265000Y-91822164D02*
X110265000Y-92037836D01*
%TO.C,TP1*%
X103150000Y-75200000D02*
G75*
G03*
X101750000Y-75200000I-700000J0D01*
G01*
X101750000Y-75200000D02*
G75*
G03*
X103150000Y-75200000I700000J0D01*
G01*
%TO.C,D2*%
X133150000Y-80410000D02*
X133150000Y-82610000D01*
X133050000Y-80410000D02*
X133150000Y-80410000D01*
X132150000Y-80410000D02*
X131950000Y-80410000D01*
X131050000Y-80410000D02*
X130950000Y-80410000D01*
X130950000Y-80410000D02*
X130950000Y-82660000D01*
X130950000Y-81710000D02*
X133150000Y-81710000D01*
X133150000Y-81910000D02*
X130950000Y-81910000D01*
X133150000Y-82610000D02*
X133050000Y-82610000D01*
X132150000Y-82610000D02*
X131950000Y-82610000D01*
X130950000Y-82660000D02*
X131050000Y-82660000D01*
%TO.C,5V1*%
X130300000Y-92250000D02*
X130300000Y-93650000D01*
X128900000Y-92250000D02*
X130300000Y-92250000D01*
X130300000Y-93650000D02*
X128900000Y-93650000D01*
X128900000Y-93650000D02*
X128900000Y-92250000D01*
%TO.C,J2*%
X119350000Y-74100000D02*
X118350000Y-74100000D01*
X118350000Y-74100000D02*
X118350000Y-75800000D01*
X122250000Y-74800000D02*
X121550000Y-74800000D01*
X122250000Y-74800000D02*
X122250000Y-89200000D01*
X118300000Y-88250000D02*
X117250000Y-88250000D01*
X121350000Y-88950000D02*
X121350000Y-74950000D01*
X122250000Y-89200000D02*
X121550000Y-89200000D01*
X119300000Y-90000000D02*
X118300000Y-90000000D01*
X118300000Y-90000000D02*
X118300000Y-88250000D01*
%TO.C,3V1*%
X120500000Y-92250000D02*
X121900000Y-92250000D01*
X120500000Y-93650000D02*
X120500000Y-92250000D01*
X121900000Y-92250000D02*
X121900000Y-93650000D01*
X121900000Y-93650000D02*
X120500000Y-93650000D01*
D10*
%TO.C,SW2*%
X136625000Y-81875000D02*
X136625000Y-81125000D01*
X134375000Y-81875000D02*
X134375000Y-81125000D01*
X137175000Y-79400000D02*
X133825000Y-79400000D01*
X133825000Y-79400000D02*
X133825000Y-83600000D01*
X133825000Y-83600000D02*
X137175000Y-83600000D01*
X137175000Y-83600000D02*
X137175000Y-79400000D01*
X136625000Y-81125000D02*
G75*
G03*
X134375000Y-81125000I-1125000J0D01*
G01*
X134375000Y-81875000D02*
G75*
G03*
X136625000Y-81875000I1125000J0D01*
G01*
D13*
%TO.C,D4*%
X133150000Y-94410000D02*
X133150000Y-96610000D01*
X133050000Y-94410000D02*
X133150000Y-94410000D01*
X132150000Y-94410000D02*
X131950000Y-94410000D01*
X131050000Y-94410000D02*
X130950000Y-94410000D01*
X130950000Y-94410000D02*
X130950000Y-96660000D01*
X130950000Y-95710000D02*
X133150000Y-95710000D01*
X133150000Y-95910000D02*
X130950000Y-95910000D01*
X133150000Y-96610000D02*
X133050000Y-96610000D01*
X132150000Y-96610000D02*
X131950000Y-96610000D01*
X130950000Y-96660000D02*
X131050000Y-96660000D01*
%TO.C,BOOT1*%
X125550000Y-71400000D02*
G75*
G03*
X124150000Y-71400000I-700000J0D01*
G01*
X124150000Y-71400000D02*
G75*
G03*
X125550000Y-71400000I700000J0D01*
G01*
D14*
%TO.C,REF\u002A\u002A*%
X159500000Y-66850000D02*
G75*
G03*
X158000000Y-66850000I-750000J0D01*
G01*
X158000000Y-66850000D02*
G75*
G03*
X159500000Y-66850000I750000J0D01*
G01*
D13*
%TO.C,U1*%
X102600000Y-80850000D02*
X102600000Y-79300000D01*
X104400000Y-79300000D02*
X104400000Y-80600000D01*
%TO.C,U4*%
X110410000Y-89060000D02*
X109935000Y-89060000D01*
X105190000Y-88585000D02*
X105190000Y-89060000D01*
X110410000Y-88585000D02*
X110410000Y-89060000D01*
X105190000Y-84315000D02*
X105190000Y-83840000D01*
X110410000Y-84315000D02*
X110410000Y-83840000D01*
X105190000Y-83840000D02*
X105665000Y-83840000D01*
X110410000Y-83840000D02*
X109935000Y-83840000D01*
%TO.C,REF\u002A\u002A*%
G36*
X148704285Y-103714929D02*
G01*
X148535907Y-103765444D01*
X148493809Y-103605483D01*
X148662191Y-103554969D01*
X148704285Y-103714929D01*
G37*
G36*
X148813732Y-104110621D02*
G01*
X148645353Y-104161136D01*
X148603259Y-104001177D01*
X148771637Y-103950663D01*
X148813732Y-104110621D01*
G37*
G36*
X149108397Y-104085366D02*
G01*
X148889503Y-104119042D01*
X149041045Y-103176115D01*
X149259939Y-103142439D01*
X149108397Y-104085366D01*
G37*
G36*
X149689307Y-103992759D02*
G01*
X149470415Y-104009594D01*
X149714565Y-103091924D01*
X149933459Y-103075087D01*
X149689307Y-103992759D01*
G37*
G36*
X150926900Y-103091924D02*
G01*
X150918480Y-103251885D01*
X150682745Y-103235049D01*
X150691166Y-103075088D01*
X150926900Y-103091924D01*
G37*
G36*
X153881965Y-105036712D02*
G01*
X153789355Y-105162997D01*
X153654650Y-105061968D01*
X153747262Y-104935683D01*
X153881965Y-105036712D01*
G37*
G36*
X150926899Y-103344495D02*
G01*
X150893222Y-103984338D01*
X150674328Y-103967499D01*
X150699587Y-103504457D01*
X150606975Y-103496037D01*
X150632234Y-103336076D01*
X150926899Y-103344495D01*
G37*
G36*
X151305753Y-103420266D02*
G01*
X151297335Y-103479198D01*
X151303651Y-103476231D01*
X151309980Y-103473624D01*
X151316334Y-103471336D01*
X151322723Y-103469334D01*
X151329164Y-103467574D01*
X151335665Y-103466027D01*
X151342237Y-103464652D01*
X151348902Y-103463412D01*
X151362532Y-103461193D01*
X151376658Y-103459071D01*
X151391376Y-103456752D01*
X151398983Y-103455425D01*
X151406783Y-103453940D01*
X151414767Y-103452458D01*
X151422912Y-103451162D01*
X151431180Y-103450037D01*
X151439537Y-103449073D01*
X151456358Y-103447577D01*
X151473083Y-103446575D01*
X151489411Y-103445965D01*
X151505047Y-103445652D01*
X151533067Y-103445520D01*
X151507811Y-103605483D01*
X151479792Y-103605616D01*
X151464150Y-103605927D01*
X151447825Y-103606535D01*
X151431102Y-103607539D01*
X151422685Y-103608218D01*
X151414280Y-103609034D01*
X151405924Y-103610000D01*
X151397656Y-103611123D01*
X151389510Y-103612422D01*
X151381522Y-103613904D01*
X151373730Y-103615386D01*
X151366135Y-103616698D01*
X151351533Y-103618901D01*
X151324697Y-103622321D01*
X151312461Y-103623933D01*
X151301018Y-103625741D01*
X151295592Y-103626781D01*
X151290363Y-103627945D01*
X151285332Y-103629256D01*
X151280496Y-103630741D01*
X151213147Y-104051689D01*
X150994252Y-104018012D01*
X151103697Y-103386589D01*
X151305753Y-103420266D01*
G37*
G36*
X153191607Y-103723349D02*
G01*
X152913779Y-104371612D01*
X152912206Y-104376154D01*
X152910655Y-104380327D01*
X152907729Y-104387660D01*
X152905196Y-104393809D01*
X152904138Y-104396503D01*
X152903253Y-104398972D01*
X152902567Y-104401246D01*
X152902104Y-104403347D01*
X152901887Y-104405300D01*
X152901878Y-104406227D01*
X152901940Y-104407129D01*
X152902076Y-104408005D01*
X152902290Y-104408859D01*
X152902582Y-104409696D01*
X152902957Y-104410515D01*
X152903422Y-104411326D01*
X152903975Y-104412124D01*
X152904618Y-104412917D01*
X152905361Y-104413706D01*
X152930617Y-104438964D01*
X152997969Y-104455800D01*
X152947455Y-104590504D01*
X152888520Y-104582088D01*
X152885265Y-104581989D01*
X152881811Y-104581692D01*
X152878161Y-104581200D01*
X152874314Y-104580509D01*
X152870268Y-104579621D01*
X152866027Y-104578534D01*
X152861586Y-104577252D01*
X152856951Y-104575772D01*
X152852115Y-104574097D01*
X152847084Y-104572221D01*
X152841855Y-104570149D01*
X152836428Y-104567880D01*
X152830805Y-104565413D01*
X152824984Y-104562750D01*
X152818966Y-104559887D01*
X152812751Y-104556830D01*
X152798940Y-104552090D01*
X152785914Y-104547326D01*
X152773681Y-104542512D01*
X152762239Y-104537623D01*
X152751581Y-104532638D01*
X152741717Y-104527527D01*
X152732641Y-104522269D01*
X152724354Y-104516839D01*
X152716853Y-104511212D01*
X152710146Y-104505362D01*
X152704228Y-104499266D01*
X152699097Y-104492897D01*
X152694756Y-104486234D01*
X152691204Y-104479250D01*
X152688441Y-104471920D01*
X152686469Y-104464221D01*
X152684962Y-104460991D01*
X152683605Y-104457616D01*
X152682391Y-104454103D01*
X152681322Y-104450457D01*
X152680394Y-104446681D01*
X152679604Y-104442781D01*
X152678956Y-104438760D01*
X152678444Y-104434623D01*
X152677826Y-104426019D01*
X152677736Y-104417011D01*
X152678166Y-104407632D01*
X152679103Y-104397920D01*
X152680530Y-104387913D01*
X152682438Y-104377645D01*
X152684816Y-104367158D01*
X152687652Y-104356482D01*
X152690930Y-104345662D01*
X152694641Y-104334729D01*
X152698768Y-104323724D01*
X152703305Y-104312679D01*
X152989551Y-103639159D01*
X153191607Y-103723349D01*
G37*
G36*
X153486273Y-104186393D02*
G01*
X153418919Y-104624180D01*
X153772518Y-104354773D01*
X153974575Y-104472637D01*
X153461015Y-104851493D01*
X153445328Y-104863636D01*
X153429836Y-104874843D01*
X153414545Y-104885161D01*
X153399450Y-104894642D01*
X153384553Y-104903330D01*
X153369853Y-104911280D01*
X153355351Y-104918541D01*
X153341044Y-104925160D01*
X153326934Y-104931186D01*
X153313025Y-104936670D01*
X153285795Y-104946207D01*
X153259354Y-104954165D01*
X153233702Y-104960941D01*
X153221074Y-104963707D01*
X153208446Y-104965709D01*
X153195816Y-104966972D01*
X153183188Y-104967517D01*
X153170560Y-104967374D01*
X153157930Y-104966564D01*
X153145301Y-104965113D01*
X153132676Y-104963045D01*
X153120047Y-104960385D01*
X153107418Y-104957160D01*
X153094787Y-104953389D01*
X153082160Y-104949102D01*
X153069532Y-104944321D01*
X153056902Y-104939071D01*
X153044274Y-104933378D01*
X153031646Y-104927265D01*
X153016634Y-104924090D01*
X153009686Y-104922475D01*
X153003101Y-104920819D01*
X152996859Y-104919115D01*
X152990949Y-104917350D01*
X152985359Y-104915508D01*
X152980079Y-104913584D01*
X152975095Y-104911561D01*
X152970395Y-104909424D01*
X152965966Y-104907164D01*
X152961795Y-104904772D01*
X152957872Y-104902228D01*
X152954180Y-104899526D01*
X152950714Y-104896650D01*
X152947457Y-104893589D01*
X152896942Y-104843077D01*
X152972715Y-104716790D01*
X152979406Y-104723450D01*
X152986790Y-104730602D01*
X152994764Y-104737952D01*
X153003233Y-104745204D01*
X153007619Y-104748700D01*
X153012095Y-104752063D01*
X153016644Y-104755249D01*
X153021254Y-104758227D01*
X153025914Y-104760959D01*
X153030610Y-104763408D01*
X153035332Y-104765534D01*
X153040065Y-104767304D01*
X153052298Y-104773224D01*
X153063744Y-104778354D01*
X153074398Y-104782695D01*
X153084266Y-104786246D01*
X153088904Y-104787726D01*
X153093343Y-104789008D01*
X153097585Y-104790094D01*
X153101629Y-104790980D01*
X153105478Y-104791671D01*
X153109127Y-104792166D01*
X153112581Y-104792461D01*
X153115837Y-104792559D01*
X153119187Y-104792366D01*
X153122908Y-104791803D01*
X153126973Y-104790895D01*
X153131359Y-104789665D01*
X153136041Y-104788141D01*
X153140995Y-104786344D01*
X153146195Y-104784302D01*
X153151617Y-104782036D01*
X153163027Y-104776939D01*
X153175032Y-104771250D01*
X153200027Y-104758884D01*
X153284218Y-104068526D01*
X153486273Y-104186393D01*
G37*
G36*
X146380646Y-104556830D02*
G01*
X146506929Y-104464221D01*
X146599539Y-104607343D01*
X146481672Y-104691534D01*
X146624796Y-104885170D01*
X146633543Y-104893886D01*
X146641108Y-104901219D01*
X146644567Y-104904429D01*
X146647883Y-104907369D01*
X146651097Y-104910061D01*
X146654262Y-104912531D01*
X146657428Y-104914805D01*
X146660642Y-104916906D01*
X146663955Y-104918859D01*
X146667417Y-104920689D01*
X146671076Y-104922419D01*
X146674982Y-104924075D01*
X146679182Y-104925684D01*
X146683729Y-104927265D01*
X146686984Y-104927166D01*
X146690422Y-104926856D01*
X146694033Y-104926323D01*
X146697805Y-104925556D01*
X146701725Y-104924543D01*
X146705780Y-104923269D01*
X146709957Y-104921727D01*
X146714248Y-104919899D01*
X146718637Y-104917775D01*
X146723111Y-104915344D01*
X146727657Y-104912594D01*
X146732270Y-104909506D01*
X146736929Y-104906075D01*
X146741625Y-104902288D01*
X146746347Y-104898130D01*
X146751080Y-104893589D01*
X146810013Y-104834656D01*
X146894202Y-104952523D01*
X146889367Y-104960318D01*
X146884319Y-104967930D01*
X146879053Y-104975368D01*
X146873549Y-104982647D01*
X146867801Y-104989776D01*
X146861794Y-104996771D01*
X146855515Y-105003643D01*
X146848951Y-105010403D01*
X146842092Y-105017064D01*
X146834924Y-105023640D01*
X146827437Y-105030142D01*
X146819616Y-105036583D01*
X146811450Y-105042971D01*
X146802924Y-105049325D01*
X146794032Y-105055653D01*
X146784757Y-105061970D01*
X146772227Y-105074105D01*
X146759893Y-105085254D01*
X146747759Y-105095415D01*
X146735821Y-105104591D01*
X146724081Y-105112779D01*
X146712537Y-105119982D01*
X146701191Y-105126196D01*
X146690043Y-105131425D01*
X146679092Y-105135667D01*
X146668336Y-105138924D01*
X146657781Y-105141193D01*
X146647422Y-105142475D01*
X146637260Y-105142771D01*
X146627295Y-105142080D01*
X146617527Y-105140404D01*
X146607956Y-105137739D01*
X146597006Y-105135865D01*
X146586253Y-105133398D01*
X146575696Y-105130339D01*
X146565335Y-105126689D01*
X146555175Y-105122447D01*
X146545208Y-105117614D01*
X146535442Y-105112187D01*
X146525871Y-105106168D01*
X146516500Y-105099558D01*
X146507324Y-105092356D01*
X146498346Y-105084562D01*
X146489564Y-105076176D01*
X146480980Y-105067200D01*
X146472596Y-105057628D01*
X146464408Y-105047466D01*
X146456416Y-105036712D01*
X146296456Y-104826236D01*
X146229102Y-104876750D01*
X146128076Y-104742047D01*
X146195428Y-104691533D01*
X146119656Y-104582087D01*
X146262778Y-104405288D01*
X146380646Y-104556830D01*
G37*
G36*
X152684363Y-103514979D02*
G01*
X152696303Y-103516061D01*
X152708468Y-103517710D01*
X152720880Y-103519900D01*
X152733562Y-103522609D01*
X152746539Y-103525812D01*
X152759839Y-103529481D01*
X152773482Y-103533597D01*
X152787496Y-103538131D01*
X152796962Y-103541482D01*
X152806403Y-103545203D01*
X152815800Y-103549267D01*
X152825118Y-103553655D01*
X152834339Y-103558336D01*
X152843435Y-103563290D01*
X152852383Y-103568490D01*
X152861161Y-103573912D01*
X152869740Y-103579533D01*
X152878099Y-103585324D01*
X152886211Y-103591263D01*
X152894051Y-103597326D01*
X152901593Y-103603489D01*
X152908815Y-103609725D01*
X152915693Y-103616011D01*
X152922201Y-103622321D01*
X152871687Y-103757025D01*
X152804335Y-103706513D01*
X152798211Y-103703551D01*
X152792445Y-103700970D01*
X152787000Y-103698761D01*
X152781840Y-103696909D01*
X152776923Y-103695403D01*
X152772219Y-103694230D01*
X152767688Y-103693376D01*
X152763290Y-103692832D01*
X152758994Y-103692582D01*
X152754757Y-103692617D01*
X152750546Y-103692923D01*
X152746322Y-103693488D01*
X152742049Y-103694300D01*
X152737689Y-103695347D01*
X152733207Y-103696615D01*
X152728564Y-103698093D01*
X152724019Y-103699678D01*
X152719833Y-103701299D01*
X152715966Y-103702996D01*
X152712383Y-103704801D01*
X152709049Y-103706756D01*
X152705921Y-103708896D01*
X152702966Y-103711257D01*
X152700151Y-103713877D01*
X152697431Y-103716794D01*
X152694774Y-103720044D01*
X152692140Y-103723665D01*
X152689494Y-103727691D01*
X152686799Y-103732162D01*
X152684018Y-103737113D01*
X152681115Y-103742582D01*
X152678050Y-103748607D01*
X152661212Y-103799120D01*
X152804333Y-103858053D01*
X152728563Y-104001176D01*
X152585442Y-103942242D01*
X152400223Y-104380030D01*
X152198169Y-104295840D01*
X152391803Y-103866472D01*
X152307611Y-103832798D01*
X152374967Y-103681254D01*
X152459156Y-103714930D01*
X152475995Y-103664416D01*
X152488655Y-103639982D01*
X152495048Y-103628418D01*
X152501513Y-103617322D01*
X152508080Y-103606721D01*
X152514767Y-103596637D01*
X152521604Y-103587096D01*
X152528613Y-103578121D01*
X152535819Y-103569738D01*
X152543245Y-103561974D01*
X152550923Y-103554850D01*
X152558868Y-103548392D01*
X152567110Y-103542624D01*
X152575673Y-103537571D01*
X152584582Y-103533259D01*
X152593858Y-103529713D01*
X152604913Y-103525367D01*
X152615991Y-103521787D01*
X152627120Y-103518946D01*
X152638322Y-103516821D01*
X152649623Y-103515387D01*
X152661047Y-103514617D01*
X152672617Y-103514489D01*
X152684363Y-103514979D01*
G37*
G36*
X150382493Y-103048645D02*
G01*
X150396503Y-103049834D01*
X150418207Y-103052660D01*
X150439123Y-103055093D01*
X150459250Y-103057527D01*
X150469017Y-103058867D01*
X150478588Y-103060354D01*
X150487960Y-103062041D01*
X150497135Y-103063973D01*
X150506113Y-103066201D01*
X150514895Y-103068774D01*
X150523478Y-103071744D01*
X150531865Y-103075155D01*
X150540054Y-103079060D01*
X150548045Y-103083508D01*
X150539627Y-103226629D01*
X150530139Y-103223489D01*
X150520552Y-103220450D01*
X150510767Y-103217603D01*
X150505772Y-103216285D01*
X150500689Y-103215055D01*
X150495506Y-103213922D01*
X150490213Y-103212901D01*
X150484798Y-103212002D01*
X150479245Y-103211240D01*
X150473546Y-103210624D01*
X150467686Y-103210170D01*
X150461653Y-103209889D01*
X150455436Y-103209791D01*
X150449217Y-103209885D01*
X150443201Y-103210153D01*
X150437380Y-103210568D01*
X150431757Y-103211107D01*
X150426330Y-103211744D01*
X150421103Y-103212454D01*
X150411237Y-103214001D01*
X150393873Y-103216894D01*
X150390025Y-103217433D01*
X150386374Y-103217848D01*
X150382919Y-103218118D01*
X150379666Y-103218211D01*
X150376699Y-103221370D01*
X150374091Y-103224542D01*
X150371803Y-103227738D01*
X150369799Y-103230971D01*
X150368039Y-103234254D01*
X150366494Y-103237598D01*
X150365120Y-103241016D01*
X150363879Y-103244522D01*
X150362740Y-103248124D01*
X150361661Y-103251839D01*
X150359539Y-103259649D01*
X150357220Y-103268051D01*
X150355893Y-103272505D01*
X150354408Y-103277145D01*
X150354408Y-103327658D01*
X150514369Y-103336079D01*
X150497530Y-103504457D01*
X150354408Y-103496040D01*
X150329151Y-103975922D01*
X150110257Y-103959083D01*
X150143934Y-103487619D01*
X150059744Y-103487617D01*
X150068165Y-103327658D01*
X150152352Y-103327658D01*
X150152353Y-103277143D01*
X150152648Y-103264615D01*
X150153518Y-103252298D01*
X150154961Y-103240203D01*
X150156957Y-103228342D01*
X150159496Y-103216725D01*
X150162565Y-103205369D01*
X150166149Y-103194285D01*
X150170243Y-103183483D01*
X150174830Y-103172977D01*
X150179896Y-103162780D01*
X150185429Y-103152905D01*
X150191421Y-103143362D01*
X150197859Y-103134163D01*
X150204725Y-103125324D01*
X150212011Y-103116851D01*
X150219705Y-103108764D01*
X150227795Y-103101073D01*
X150236280Y-103093801D01*
X150245157Y-103086973D01*
X150254432Y-103080614D01*
X150264102Y-103074747D01*
X150274164Y-103069400D01*
X150284622Y-103064593D01*
X150295475Y-103060355D01*
X150306723Y-103056708D01*
X150318364Y-103053681D01*
X150330400Y-103051291D01*
X150342832Y-103049568D01*
X150355658Y-103048536D01*
X150368877Y-103048220D01*
X150382493Y-103048645D01*
G37*
G36*
X146835270Y-104270582D02*
G01*
X146969973Y-104186391D01*
X147045747Y-104329516D01*
X146919462Y-104405285D01*
X147045746Y-104615759D01*
X147046583Y-104618079D01*
X147047517Y-104620303D01*
X147048541Y-104622434D01*
X147049659Y-104624477D01*
X147050861Y-104626430D01*
X147052146Y-104628303D01*
X147053509Y-104630095D01*
X147054952Y-104631811D01*
X147056470Y-104633450D01*
X147058055Y-104635020D01*
X147061432Y-104637959D01*
X147065053Y-104640652D01*
X147068898Y-104643122D01*
X147072938Y-104645396D01*
X147077152Y-104647496D01*
X147081515Y-104649449D01*
X147086000Y-104651278D01*
X147095239Y-104654666D01*
X147104678Y-104657856D01*
X147107933Y-104657759D01*
X147111371Y-104657479D01*
X147114983Y-104657024D01*
X147118756Y-104656409D01*
X147122675Y-104655647D01*
X147126730Y-104654749D01*
X147130907Y-104653727D01*
X147135197Y-104652595D01*
X147144060Y-104650046D01*
X147153219Y-104647202D01*
X147172031Y-104641019D01*
X147176671Y-104639339D01*
X147181124Y-104637451D01*
X147185405Y-104635341D01*
X147189524Y-104632994D01*
X147193500Y-104630401D01*
X147197335Y-104627550D01*
X147201052Y-104624429D01*
X147204654Y-104621024D01*
X147208158Y-104617321D01*
X147211577Y-104613311D01*
X147214922Y-104608981D01*
X147218204Y-104604317D01*
X147221437Y-104599308D01*
X147224633Y-104593942D01*
X147227804Y-104588206D01*
X147230964Y-104582086D01*
X147306736Y-104708370D01*
X147301804Y-104716072D01*
X147296491Y-104723416D01*
X147290808Y-104730439D01*
X147284767Y-104737179D01*
X147278381Y-104743673D01*
X147271662Y-104749956D01*
X147264622Y-104756067D01*
X147257274Y-104762042D01*
X147249628Y-104767920D01*
X147241700Y-104773733D01*
X147225042Y-104785326D01*
X147188866Y-104809396D01*
X147176334Y-104818384D01*
X147163990Y-104826416D01*
X147151815Y-104833538D01*
X147139801Y-104839786D01*
X147127935Y-104845194D01*
X147116204Y-104849800D01*
X147104598Y-104853642D01*
X147093102Y-104856756D01*
X147081703Y-104859179D01*
X147070394Y-104860949D01*
X147059157Y-104862102D01*
X147047981Y-104862675D01*
X147036853Y-104862707D01*
X147025767Y-104862232D01*
X147014703Y-104861288D01*
X147003651Y-104859913D01*
X146994183Y-104856555D01*
X146984741Y-104852777D01*
X146975349Y-104848555D01*
X146966027Y-104843866D01*
X146956808Y-104838683D01*
X146947711Y-104832979D01*
X146938762Y-104826735D01*
X146929984Y-104819924D01*
X146921406Y-104812520D01*
X146913048Y-104804500D01*
X146904937Y-104795838D01*
X146897098Y-104786509D01*
X146889555Y-104776493D01*
X146882331Y-104765759D01*
X146875454Y-104754287D01*
X146868948Y-104742048D01*
X146734242Y-104523152D01*
X146658473Y-104565247D01*
X146574282Y-104430543D01*
X146650054Y-104388449D01*
X146582702Y-104270581D01*
X146734242Y-104102203D01*
X146835270Y-104270582D01*
G37*
G36*
X146056323Y-104893983D02*
G01*
X146068386Y-104895168D01*
X146080108Y-104897140D01*
X146091505Y-104899905D01*
X146102611Y-104903455D01*
X146113440Y-104907797D01*
X146124028Y-104912927D01*
X146134390Y-104918847D01*
X146144558Y-104925555D01*
X146154551Y-104933053D01*
X146164397Y-104941341D01*
X146174118Y-104950417D01*
X146183741Y-104960284D01*
X146193292Y-104970938D01*
X146202792Y-104982384D01*
X146212266Y-104994619D01*
X146490094Y-105289282D01*
X146330132Y-105432403D01*
X146060722Y-105146159D01*
X146051597Y-105137099D01*
X146042962Y-105128927D01*
X146038742Y-105125202D01*
X146034529Y-105121740D01*
X146030292Y-105118548D01*
X146025996Y-105115639D01*
X146021599Y-105113027D01*
X146017066Y-105110724D01*
X146012361Y-105108739D01*
X146007448Y-105107088D01*
X146002286Y-105105784D01*
X145996842Y-105104836D01*
X145991077Y-105104258D01*
X145984954Y-105104064D01*
X145981606Y-105104258D01*
X145977900Y-105104836D01*
X145973873Y-105105783D01*
X145969562Y-105107089D01*
X145965006Y-105108739D01*
X145960239Y-105110722D01*
X145955299Y-105113027D01*
X145950225Y-105115639D01*
X145945052Y-105118547D01*
X145939815Y-105121740D01*
X145934557Y-105125202D01*
X145929309Y-105128927D01*
X145924112Y-105132893D01*
X145919000Y-105137098D01*
X145914011Y-105141523D01*
X145909182Y-105146159D01*
X145902883Y-105152489D01*
X145896686Y-105158918D01*
X145890684Y-105165545D01*
X145887787Y-105168964D01*
X145884977Y-105172467D01*
X145882268Y-105176070D01*
X145879667Y-105179785D01*
X145877191Y-105183622D01*
X145874850Y-105187595D01*
X145872656Y-105191716D01*
X145870624Y-105195997D01*
X145868763Y-105200450D01*
X145867088Y-105205090D01*
X145860907Y-105223902D01*
X145858061Y-105233061D01*
X145855514Y-105241924D01*
X145853358Y-105250393D01*
X145852460Y-105254449D01*
X145851697Y-105258367D01*
X145851083Y-105262139D01*
X145850629Y-105265751D01*
X145850348Y-105269189D01*
X145850251Y-105272442D01*
X146144916Y-105600784D01*
X145984955Y-105743906D01*
X145361948Y-105070387D01*
X145521907Y-104927265D01*
X145740803Y-105162997D01*
X145743992Y-105152803D01*
X145747380Y-105141423D01*
X145751162Y-105129255D01*
X145753263Y-105123000D01*
X145755536Y-105116691D01*
X145758006Y-105110386D01*
X145760697Y-105104128D01*
X145763639Y-105097971D01*
X145766849Y-105091960D01*
X145770355Y-105086149D01*
X145774182Y-105080582D01*
X145776224Y-105077907D01*
X145778355Y-105075312D01*
X145780577Y-105072803D01*
X145782897Y-105070387D01*
X145786154Y-105064168D01*
X145789606Y-105058120D01*
X145793256Y-105052220D01*
X145797105Y-105046445D01*
X145801150Y-105040768D01*
X145805393Y-105035165D01*
X145809832Y-105029611D01*
X145814468Y-105024082D01*
X145824335Y-105013000D01*
X145834990Y-105001719D01*
X145846433Y-104990044D01*
X145858668Y-104977778D01*
X145869717Y-104967121D01*
X145880784Y-104957241D01*
X145891873Y-104948124D01*
X145902998Y-104939761D01*
X145914175Y-104932137D01*
X145925410Y-104925242D01*
X145936722Y-104919062D01*
X145948120Y-104913584D01*
X145959614Y-104908799D01*
X145971223Y-104904689D01*
X145982953Y-104901247D01*
X145994819Y-104898456D01*
X146006834Y-104896308D01*
X146019006Y-104894789D01*
X146031355Y-104893887D01*
X146043888Y-104893589D01*
X146056323Y-104893983D01*
G37*
G36*
X155018528Y-105415566D02*
G01*
X154984853Y-105466081D01*
X154998864Y-105468047D01*
X155012491Y-105470767D01*
X155025751Y-105474203D01*
X155038655Y-105478315D01*
X155051210Y-105483070D01*
X155063433Y-105488427D01*
X155075338Y-105494353D01*
X155086930Y-105500810D01*
X155098231Y-105507758D01*
X155109244Y-105515165D01*
X155119989Y-105522989D01*
X155130474Y-105531196D01*
X155140711Y-105539749D01*
X155150716Y-105548610D01*
X155160497Y-105557743D01*
X155170068Y-105567109D01*
X155182254Y-105581266D01*
X155193551Y-105595331D01*
X155203965Y-105609307D01*
X155213496Y-105623198D01*
X155222144Y-105637008D01*
X155229913Y-105650741D01*
X155236803Y-105664405D01*
X155242813Y-105678001D01*
X155247952Y-105691537D01*
X155252214Y-105705016D01*
X155255604Y-105718443D01*
X155258124Y-105731821D01*
X155259774Y-105745157D01*
X155260554Y-105758455D01*
X155260469Y-105771716D01*
X155259521Y-105784950D01*
X155257708Y-105798159D01*
X155255034Y-105811348D01*
X155251498Y-105824522D01*
X155247107Y-105837683D01*
X155241856Y-105850841D01*
X155235750Y-105863994D01*
X155228791Y-105877152D01*
X155220978Y-105890319D01*
X155212315Y-105903497D01*
X155202802Y-105916692D01*
X155192442Y-105929907D01*
X155181234Y-105943152D01*
X155169183Y-105956425D01*
X155156288Y-105969734D01*
X155145293Y-105980118D01*
X155127974Y-105996477D01*
X155110803Y-106010284D01*
X155094002Y-106023279D01*
X155077547Y-106035435D01*
X155061409Y-106046729D01*
X155045574Y-106057132D01*
X155030005Y-106066624D01*
X155014685Y-106075179D01*
X154999585Y-106082773D01*
X154984684Y-106089378D01*
X154969954Y-106094973D01*
X154955373Y-106099532D01*
X154940914Y-106103030D01*
X154926557Y-106105443D01*
X154912271Y-106106746D01*
X154898035Y-106106915D01*
X154883824Y-106105923D01*
X154869620Y-106104141D01*
X154855442Y-106101913D01*
X154841314Y-106099191D01*
X154827258Y-106095928D01*
X154813301Y-106092070D01*
X154799468Y-106087575D01*
X154785783Y-106082387D01*
X154772272Y-106076457D01*
X154758954Y-106069741D01*
X154745863Y-106062184D01*
X154733017Y-106053740D01*
X154720441Y-106044360D01*
X154708161Y-106033994D01*
X154696205Y-106022589D01*
X154684590Y-106010100D01*
X154673348Y-105996477D01*
X154664260Y-105987008D01*
X154655918Y-105977535D01*
X154648263Y-105968064D01*
X154641250Y-105958593D01*
X154634828Y-105949122D01*
X154628951Y-105939649D01*
X154623566Y-105930178D01*
X154618624Y-105920709D01*
X154614078Y-105911236D01*
X154609876Y-105901765D01*
X154602310Y-105882823D01*
X154595537Y-105863878D01*
X154589156Y-105844937D01*
X154353424Y-106063831D01*
X154210303Y-105903868D01*
X154373970Y-105752325D01*
X154698608Y-105752325D01*
X154707024Y-105811261D01*
X154707075Y-105812838D01*
X154707219Y-105814416D01*
X154707456Y-105815995D01*
X154707782Y-105817574D01*
X154708196Y-105819152D01*
X154708690Y-105820732D01*
X154709267Y-105822309D01*
X154709921Y-105823888D01*
X154711446Y-105827045D01*
X154713241Y-105830203D01*
X154715283Y-105833358D01*
X154717550Y-105836516D01*
X154720012Y-105839674D01*
X154722648Y-105842831D01*
X154725431Y-105845988D01*
X154728335Y-105849145D01*
X154734421Y-105855459D01*
X154740703Y-105861773D01*
X154756126Y-105870818D01*
X154763604Y-105874981D01*
X154770959Y-105878873D01*
X154778213Y-105882470D01*
X154785395Y-105885747D01*
X154792527Y-105888680D01*
X154799635Y-105891240D01*
X154806742Y-105893407D01*
X154813875Y-105895152D01*
X154821056Y-105896458D01*
X154828311Y-105897291D01*
X154835666Y-105897632D01*
X154843144Y-105897455D01*
X154850768Y-105896736D01*
X154858567Y-105895449D01*
X154866462Y-105893675D01*
X154874369Y-105891521D01*
X154882300Y-105888994D01*
X154890270Y-105886109D01*
X154898288Y-105882881D01*
X154906366Y-105879320D01*
X154914522Y-105875435D01*
X154922762Y-105871244D01*
X154931101Y-105866758D01*
X154939550Y-105861988D01*
X154956830Y-105851646D01*
X154974705Y-105840316D01*
X154993271Y-105828097D01*
X155008252Y-105813052D01*
X155021554Y-105799291D01*
X155027546Y-105792796D01*
X155033080Y-105786513D01*
X155038148Y-105780403D01*
X155042731Y-105774427D01*
X155046825Y-105768551D01*
X155050412Y-105762735D01*
X155053480Y-105756946D01*
X155056019Y-105751142D01*
X155058015Y-105745291D01*
X155059455Y-105739353D01*
X155060330Y-105733291D01*
X155060624Y-105727070D01*
X155060425Y-105720757D01*
X155059834Y-105714441D01*
X155058848Y-105708127D01*
X155057467Y-105701813D01*
X155055691Y-105695499D01*
X155053520Y-105689184D01*
X155050954Y-105682870D01*
X155047993Y-105676555D01*
X155044640Y-105670242D01*
X155040892Y-105663927D01*
X155036747Y-105657613D01*
X155032210Y-105651298D01*
X155027276Y-105644984D01*
X155021949Y-105638670D01*
X155016226Y-105632355D01*
X155010111Y-105626041D01*
X155003791Y-105619925D01*
X154997449Y-105614201D01*
X154991054Y-105608875D01*
X154984590Y-105603941D01*
X154978025Y-105599403D01*
X154971337Y-105595259D01*
X154964499Y-105591512D01*
X154957490Y-105588156D01*
X154950284Y-105585196D01*
X154942853Y-105582632D01*
X154935181Y-105580460D01*
X154927234Y-105578685D01*
X154918991Y-105577304D01*
X154910430Y-105576317D01*
X154901522Y-105575725D01*
X154892244Y-105575527D01*
X154698608Y-105752325D01*
X154373970Y-105752325D01*
X154892245Y-105272443D01*
X155018528Y-105415566D01*
G37*
G36*
X147598584Y-103896570D02*
G01*
X147612579Y-103897397D01*
X147626277Y-103899047D01*
X147639686Y-103901514D01*
X147652808Y-103904802D01*
X147665652Y-103908909D01*
X147678220Y-103913829D01*
X147690516Y-103919563D01*
X147702547Y-103926110D01*
X147714315Y-103933467D01*
X147725825Y-103941633D01*
X147737080Y-103950609D01*
X147748091Y-103960389D01*
X147758856Y-103970976D01*
X147769382Y-103982366D01*
X147779674Y-103994555D01*
X147789737Y-104007544D01*
X147799574Y-104021336D01*
X147809190Y-104035920D01*
X147818593Y-104051301D01*
X147827782Y-104067478D01*
X147836766Y-104084444D01*
X147845548Y-104102203D01*
X147854525Y-104121046D01*
X147862532Y-104139679D01*
X147869577Y-104158087D01*
X147875672Y-104176264D01*
X147880829Y-104194194D01*
X147885061Y-104211864D01*
X147888380Y-104229263D01*
X147890799Y-104246380D01*
X147892332Y-104263198D01*
X147892987Y-104279710D01*
X147892780Y-104295900D01*
X147891720Y-104311759D01*
X147889825Y-104327270D01*
X147887101Y-104342425D01*
X147883564Y-104357209D01*
X147879224Y-104371612D01*
X147874097Y-104385622D01*
X147868208Y-104399236D01*
X147861576Y-104412458D01*
X147854232Y-104425282D01*
X147846195Y-104437713D01*
X147837492Y-104449750D01*
X147828149Y-104461392D01*
X147818188Y-104472640D01*
X147807635Y-104483494D01*
X147796514Y-104493950D01*
X147784851Y-104504015D01*
X147773993Y-104512636D01*
X147772673Y-104513684D01*
X147759998Y-104522957D01*
X147746856Y-104531836D01*
X147733270Y-104540320D01*
X147719264Y-104548410D01*
X147708121Y-104553045D01*
X147696817Y-104557473D01*
X147685393Y-104561673D01*
X147673881Y-104565644D01*
X147662319Y-104569365D01*
X147650745Y-104572827D01*
X147639193Y-104576021D01*
X147627708Y-104578929D01*
X147616317Y-104581540D01*
X147605065Y-104583846D01*
X147593986Y-104585829D01*
X147583112Y-104587479D01*
X147572488Y-104588785D01*
X147562147Y-104589734D01*
X147552129Y-104590310D01*
X147542465Y-104590506D01*
X147677169Y-104876751D01*
X147483532Y-104969359D01*
X147115263Y-104177973D01*
X147365665Y-104177973D01*
X147483533Y-104413705D01*
X147488172Y-104415186D01*
X147492627Y-104416483D01*
X147496907Y-104417608D01*
X147501028Y-104418572D01*
X147505001Y-104419387D01*
X147508838Y-104420068D01*
X147512553Y-104420625D01*
X147516156Y-104421070D01*
X147519661Y-104421420D01*
X147523079Y-104421680D01*
X147529704Y-104421992D01*
X147536135Y-104422107D01*
X147542465Y-104422122D01*
X147545720Y-104422027D01*
X147549159Y-104421744D01*
X147552769Y-104421292D01*
X147556540Y-104420676D01*
X147560461Y-104419913D01*
X147564517Y-104419015D01*
X147568696Y-104417993D01*
X147572985Y-104416860D01*
X147581847Y-104414312D01*
X147591007Y-104411467D01*
X147609818Y-104405286D01*
X147613688Y-104404424D01*
X147617419Y-104403416D01*
X147621003Y-104402268D01*
X147624452Y-104400979D01*
X147627763Y-104399554D01*
X147630944Y-104397997D01*
X147633992Y-104396312D01*
X147636915Y-104394499D01*
X147639716Y-104392564D01*
X147642397Y-104390508D01*
X147644958Y-104388335D01*
X147647406Y-104386049D01*
X147649745Y-104383649D01*
X147651974Y-104381146D01*
X147656123Y-104375820D01*
X147659876Y-104370102D01*
X147663258Y-104364014D01*
X147666297Y-104357580D01*
X147669012Y-104350828D01*
X147671436Y-104343777D01*
X147673586Y-104336454D01*
X147675488Y-104328888D01*
X147677169Y-104321095D01*
X147678551Y-104313199D01*
X147679537Y-104305279D01*
X147680128Y-104297307D01*
X147680325Y-104289261D01*
X147680130Y-104281118D01*
X147679537Y-104272851D01*
X147678550Y-104264438D01*
X147677170Y-104255849D01*
X147675394Y-104247065D01*
X147673223Y-104238058D01*
X147670658Y-104228804D01*
X147667698Y-104219280D01*
X147664344Y-104209458D01*
X147660594Y-104199317D01*
X147656451Y-104188830D01*
X147651910Y-104177973D01*
X147647173Y-104167312D01*
X147642423Y-104157404D01*
X147637650Y-104148209D01*
X147632838Y-104139693D01*
X147627977Y-104131820D01*
X147623054Y-104124549D01*
X147618057Y-104117848D01*
X147612974Y-104111675D01*
X147607791Y-104105995D01*
X147602499Y-104100771D01*
X147597082Y-104095969D01*
X147591532Y-104091548D01*
X147585832Y-104087471D01*
X147579971Y-104083705D01*
X147573940Y-104080207D01*
X147567720Y-104076945D01*
X147564565Y-104075463D01*
X147561406Y-104074171D01*
X147558245Y-104073062D01*
X147555077Y-104072126D01*
X147551905Y-104071358D01*
X147548724Y-104070748D01*
X147545534Y-104070287D01*
X147542332Y-104069973D01*
X147539122Y-104069792D01*
X147535894Y-104069739D01*
X147532650Y-104069809D01*
X147529392Y-104069990D01*
X147522817Y-104070656D01*
X147516157Y-104071682D01*
X147509394Y-104073003D01*
X147502524Y-104074560D01*
X147488400Y-104078128D01*
X147473682Y-104081894D01*
X147466071Y-104083696D01*
X147458274Y-104085364D01*
X147450575Y-104090103D01*
X147443246Y-104094867D01*
X147436262Y-104099680D01*
X147429598Y-104104568D01*
X147423230Y-104109554D01*
X147417134Y-104114665D01*
X147411284Y-104119923D01*
X147405657Y-104125353D01*
X147400227Y-104130980D01*
X147394968Y-104136830D01*
X147389859Y-104142926D01*
X147384870Y-104149294D01*
X147379984Y-104155958D01*
X147375171Y-104162943D01*
X147370406Y-104170272D01*
X147365665Y-104177973D01*
X147115263Y-104177973D01*
X147087840Y-104119042D01*
X147256218Y-104034851D01*
X147289897Y-104085366D01*
X147296408Y-104072935D01*
X147303314Y-104060898D01*
X147310614Y-104049257D01*
X147318310Y-104038011D01*
X147326399Y-104027157D01*
X147334884Y-104016698D01*
X147343765Y-104006635D01*
X147353039Y-103996967D01*
X147362708Y-103987692D01*
X147372770Y-103978812D01*
X147383229Y-103970329D01*
X147394079Y-103962239D01*
X147405327Y-103954542D01*
X147416970Y-103947243D01*
X147429007Y-103940337D01*
X147441438Y-103933826D01*
X147458629Y-103926351D01*
X147475480Y-103919715D01*
X147491996Y-103913913D01*
X147508181Y-103908947D01*
X147524039Y-103904810D01*
X147539572Y-103901507D01*
X147554792Y-103899032D01*
X147569695Y-103897386D01*
X147584290Y-103896565D01*
X147598584Y-103896570D01*
G37*
G36*
X151857492Y-103529680D02*
G01*
X151875132Y-103530785D01*
X151893240Y-103532608D01*
X151911842Y-103535119D01*
X151930961Y-103538296D01*
X151950623Y-103542116D01*
X151970852Y-103546552D01*
X151988013Y-103551487D01*
X152004742Y-103556828D01*
X152021002Y-103562590D01*
X152036758Y-103568783D01*
X152051970Y-103575419D01*
X152066600Y-103582514D01*
X152080616Y-103590076D01*
X152093980Y-103598117D01*
X152106652Y-103606655D01*
X152118595Y-103615695D01*
X152129775Y-103625255D01*
X152140154Y-103635346D01*
X152149691Y-103645979D01*
X152158355Y-103657167D01*
X152166107Y-103668921D01*
X152172906Y-103681256D01*
X152180406Y-103692503D01*
X152187115Y-103704145D01*
X152193035Y-103716182D01*
X152198163Y-103728613D01*
X152202506Y-103741438D01*
X152206056Y-103754660D01*
X152208820Y-103768274D01*
X152210793Y-103782283D01*
X152211977Y-103796689D01*
X152212370Y-103811488D01*
X152211977Y-103826681D01*
X152210791Y-103842269D01*
X152208818Y-103858254D01*
X152206057Y-103874630D01*
X152202506Y-103891403D01*
X152198165Y-103908569D01*
X152176064Y-104004333D01*
X152172906Y-104018017D01*
X151735121Y-103900148D01*
X151734404Y-103904071D01*
X151733837Y-103907945D01*
X151733412Y-103911772D01*
X151733131Y-103915556D01*
X151732992Y-103919296D01*
X151732994Y-103922995D01*
X151733134Y-103926653D01*
X151733411Y-103930272D01*
X151733824Y-103933856D01*
X151734370Y-103937404D01*
X151735050Y-103940917D01*
X151735861Y-103944398D01*
X151736801Y-103947848D01*
X151737869Y-103951269D01*
X151739062Y-103954663D01*
X151740383Y-103958029D01*
X151741826Y-103961372D01*
X151743389Y-103964692D01*
X151746878Y-103971267D01*
X151750835Y-103977768D01*
X151755246Y-103984208D01*
X151760104Y-103990596D01*
X151765393Y-103996950D01*
X151771100Y-104003278D01*
X151777214Y-104009596D01*
X151782243Y-104014236D01*
X151787838Y-104018705D01*
X151793975Y-104023026D01*
X151800631Y-104027223D01*
X151807777Y-104031321D01*
X151815395Y-104035346D01*
X151823457Y-104039322D01*
X151831938Y-104043272D01*
X151850060Y-104051198D01*
X151869562Y-104059319D01*
X151890247Y-104067838D01*
X151911918Y-104076948D01*
X151918234Y-104079911D01*
X151924548Y-104082505D01*
X151930863Y-104084753D01*
X151937176Y-104086682D01*
X151943490Y-104088314D01*
X151949805Y-104089675D01*
X151956116Y-104090788D01*
X151962432Y-104091682D01*
X151968747Y-104092377D01*
X151975062Y-104092897D01*
X151981376Y-104093271D01*
X151987689Y-104093524D01*
X152000318Y-104093753D01*
X152012947Y-104093786D01*
X152113974Y-104093784D01*
X152080300Y-104228488D01*
X152067476Y-104231257D01*
X152054269Y-104233273D01*
X152040693Y-104234574D01*
X152026758Y-104235197D01*
X152012480Y-104235179D01*
X151997869Y-104234556D01*
X151982934Y-104233367D01*
X151967695Y-104231646D01*
X151952157Y-104229432D01*
X151936335Y-104226762D01*
X151920246Y-104223674D01*
X151903894Y-104220202D01*
X151887296Y-104216383D01*
X151870464Y-104212259D01*
X151836148Y-104203231D01*
X151814443Y-104196719D01*
X151793527Y-104189815D01*
X151773401Y-104182514D01*
X151754065Y-104174817D01*
X151735517Y-104166727D01*
X151717758Y-104158244D01*
X151700789Y-104149363D01*
X151684609Y-104140089D01*
X151669218Y-104130421D01*
X151654615Y-104120358D01*
X151640803Y-104109899D01*
X151627778Y-104099047D01*
X151615544Y-104087802D01*
X151604103Y-104076159D01*
X151593446Y-104064121D01*
X151583581Y-104051691D01*
X151574600Y-104038769D01*
X151566594Y-104025267D01*
X151559551Y-104011197D01*
X151553457Y-103996574D01*
X151548300Y-103981405D01*
X151544068Y-103965708D01*
X151540749Y-103949492D01*
X151538330Y-103932771D01*
X151536798Y-103915558D01*
X151536138Y-103897864D01*
X151536348Y-103879699D01*
X151537407Y-103861079D01*
X151539304Y-103842015D01*
X151542027Y-103822519D01*
X151545563Y-103802606D01*
X151548105Y-103790702D01*
X151760379Y-103790702D01*
X152021366Y-103849635D01*
X152029786Y-103824377D01*
X152031241Y-103818137D01*
X152032446Y-103812046D01*
X152033399Y-103806101D01*
X152034095Y-103800305D01*
X152034533Y-103794657D01*
X152034708Y-103789156D01*
X152034618Y-103783803D01*
X152034258Y-103778599D01*
X152033631Y-103773543D01*
X152032725Y-103768636D01*
X152031545Y-103763874D01*
X152030083Y-103759261D01*
X152028337Y-103754797D01*
X152026304Y-103750481D01*
X152023984Y-103746313D01*
X152021369Y-103742292D01*
X152018458Y-103738419D01*
X152015246Y-103734697D01*
X152011735Y-103731119D01*
X152007918Y-103727691D01*
X152003792Y-103724412D01*
X151999355Y-103721278D01*
X151994603Y-103718292D01*
X151989533Y-103715458D01*
X151984145Y-103712768D01*
X151978431Y-103710228D01*
X151972391Y-103707834D01*
X151966020Y-103705591D01*
X151959317Y-103703494D01*
X151952276Y-103701547D01*
X151944900Y-103699746D01*
X151937179Y-103698093D01*
X151927900Y-103695133D01*
X151918992Y-103692568D01*
X151910429Y-103690397D01*
X151902185Y-103688621D01*
X151894240Y-103687240D01*
X151886566Y-103686254D01*
X151879135Y-103685662D01*
X151871931Y-103685464D01*
X151864921Y-103685662D01*
X151858086Y-103686253D01*
X151851397Y-103687240D01*
X151844833Y-103688621D01*
X151838365Y-103690398D01*
X151831971Y-103692569D01*
X151825629Y-103695135D01*
X151819314Y-103698093D01*
X151816969Y-103698957D01*
X151814673Y-103699966D01*
X151812423Y-103701120D01*
X151810219Y-103702419D01*
X151808057Y-103703857D01*
X151805936Y-103705439D01*
X151803858Y-103707158D01*
X151801817Y-103709012D01*
X151797844Y-103713128D01*
X151794006Y-103717778D01*
X151790293Y-103722941D01*
X151786690Y-103728611D01*
X151783185Y-103734776D01*
X151779765Y-103741420D01*
X151776422Y-103748535D01*
X151773139Y-103756106D01*
X151769906Y-103764119D01*
X151766711Y-103772564D01*
X151763539Y-103781431D01*
X151760379Y-103790702D01*
X151548105Y-103790702D01*
X151549903Y-103782283D01*
X151556322Y-103763638D01*
X151562976Y-103745597D01*
X151569901Y-103728174D01*
X151577133Y-103711378D01*
X151584711Y-103695227D01*
X151592673Y-103679727D01*
X151601053Y-103664892D01*
X151609889Y-103650735D01*
X151619219Y-103637271D01*
X151629079Y-103624509D01*
X151639506Y-103612462D01*
X151650537Y-103601145D01*
X151662210Y-103590563D01*
X151674561Y-103580737D01*
X151687626Y-103571674D01*
X151701445Y-103563389D01*
X151715754Y-103555987D01*
X151730287Y-103549543D01*
X151745064Y-103544039D01*
X151760115Y-103539448D01*
X151775460Y-103535746D01*
X151791125Y-103532902D01*
X151807138Y-103530901D01*
X151823519Y-103529713D01*
X151840295Y-103529315D01*
X151857492Y-103529680D01*
G37*
G36*
X155565761Y-106080668D02*
G01*
X155523667Y-106122762D01*
X155536197Y-106126214D01*
X155548530Y-106130259D01*
X155560665Y-106134897D01*
X155572602Y-106140125D01*
X155584343Y-106145946D01*
X155595887Y-106152358D01*
X155607233Y-106159364D01*
X155618381Y-106166959D01*
X155629333Y-106175148D01*
X155640086Y-106183931D01*
X155650640Y-106193305D01*
X155661001Y-106203269D01*
X155671162Y-106213826D01*
X155681129Y-106224975D01*
X155690897Y-106236713D01*
X155700468Y-106249045D01*
X155710332Y-106263991D01*
X155719404Y-106278839D01*
X155727675Y-106293584D01*
X155735147Y-106308225D01*
X155741808Y-106322762D01*
X155747658Y-106337192D01*
X155752690Y-106351514D01*
X155756899Y-106365728D01*
X155760285Y-106379830D01*
X155762839Y-106393818D01*
X155764557Y-106407695D01*
X155765435Y-106421454D01*
X155765467Y-106435096D01*
X155764651Y-106448623D01*
X155762981Y-106462024D01*
X155760453Y-106475306D01*
X155757060Y-106488465D01*
X155752800Y-106501499D01*
X155747666Y-106514405D01*
X155741658Y-106527185D01*
X155734766Y-106539834D01*
X155726987Y-106552354D01*
X155718320Y-106564740D01*
X155708755Y-106576992D01*
X155698289Y-106589108D01*
X155689328Y-106598550D01*
X155686920Y-106601088D01*
X155674640Y-106612927D01*
X155661446Y-106624629D01*
X155647334Y-106636188D01*
X155632298Y-106647602D01*
X155616333Y-106658872D01*
X155599439Y-106669996D01*
X155582171Y-106680742D01*
X155565088Y-106690862D01*
X155548178Y-106700317D01*
X155531429Y-106709066D01*
X155514827Y-106717076D01*
X155498361Y-106724309D01*
X155482019Y-106730726D01*
X155465787Y-106736296D01*
X155449654Y-106740977D01*
X155433606Y-106744731D01*
X155417635Y-106747524D01*
X155401724Y-106749319D01*
X155385860Y-106750076D01*
X155370038Y-106749762D01*
X155354236Y-106748340D01*
X155338450Y-106745767D01*
X155324341Y-106743700D01*
X155310432Y-106740669D01*
X155296718Y-106736702D01*
X155283202Y-106731822D01*
X155269882Y-106726057D01*
X155256760Y-106719425D01*
X155243835Y-106711955D01*
X155231108Y-106703672D01*
X155218578Y-106694600D01*
X155206246Y-106684764D01*
X155194111Y-106674185D01*
X155182173Y-106662892D01*
X155170433Y-106650909D01*
X155158889Y-106638259D01*
X155147544Y-106624969D01*
X155136396Y-106611062D01*
X155128793Y-106600107D01*
X155121761Y-106589323D01*
X155115270Y-106578689D01*
X155109295Y-106568177D01*
X155103817Y-106557765D01*
X155098805Y-106547427D01*
X155094239Y-106537137D01*
X155090091Y-106526872D01*
X155086338Y-106516608D01*
X155082955Y-106506319D01*
X155079916Y-106495980D01*
X155077199Y-106485567D01*
X155074778Y-106475056D01*
X155072629Y-106464421D01*
X155070724Y-106453637D01*
X155069044Y-106442683D01*
X154808053Y-106619481D01*
X154681770Y-106442681D01*
X154819185Y-106350075D01*
X155212164Y-106350075D01*
X155212180Y-106357095D01*
X155212295Y-106365202D01*
X155212608Y-106373900D01*
X155212870Y-106378317D01*
X155213218Y-106382697D01*
X155213664Y-106386978D01*
X155214220Y-106391099D01*
X155214901Y-106394998D01*
X155215717Y-106398615D01*
X155216682Y-106401884D01*
X155217223Y-106403371D01*
X155217804Y-106404747D01*
X155218432Y-106406007D01*
X155219103Y-106407142D01*
X155219819Y-106408146D01*
X155220583Y-106409008D01*
X155220632Y-106410587D01*
X155220774Y-106412166D01*
X155221008Y-106413749D01*
X155221323Y-106415338D01*
X155222192Y-106418534D01*
X155223347Y-106421768D01*
X155224746Y-106425050D01*
X155226353Y-106428394D01*
X155228137Y-106431813D01*
X155230056Y-106435316D01*
X155234150Y-106442633D01*
X155236251Y-106446472D01*
X155238343Y-106450445D01*
X155240383Y-106454564D01*
X155242339Y-106458847D01*
X155244169Y-106463301D01*
X155245842Y-106467939D01*
X155249195Y-106477021D01*
X155251021Y-106481273D01*
X155252944Y-106485338D01*
X155254967Y-106489218D01*
X155257089Y-106492913D01*
X155259308Y-106496431D01*
X155261626Y-106499775D01*
X155264044Y-106502944D01*
X155266560Y-106505946D01*
X155269175Y-106508779D01*
X155271888Y-106511448D01*
X155274700Y-106513959D01*
X155277610Y-106516312D01*
X155280618Y-106518512D01*
X155283727Y-106520558D01*
X155286934Y-106522458D01*
X155290239Y-106524213D01*
X155293641Y-106525827D01*
X155297144Y-106527301D01*
X155304446Y-106529844D01*
X155312141Y-106531872D01*
X155320231Y-106533405D01*
X155328715Y-106534470D01*
X155337596Y-106535090D01*
X155346868Y-106535293D01*
X155353376Y-106535095D01*
X155360254Y-106534501D01*
X155367477Y-106533516D01*
X155375019Y-106532135D01*
X155382860Y-106530359D01*
X155390970Y-106528189D01*
X155399328Y-106525624D01*
X155407907Y-106522663D01*
X155416683Y-106519308D01*
X155425633Y-106515559D01*
X155434730Y-106511416D01*
X155443950Y-106506878D01*
X155453271Y-106501945D01*
X155462664Y-106496616D01*
X155472107Y-106490893D01*
X155481573Y-106484778D01*
X155490751Y-106478556D01*
X155499349Y-106472494D01*
X155507377Y-106466558D01*
X155514855Y-106460704D01*
X155521785Y-106454902D01*
X155528190Y-106449111D01*
X155534075Y-106443297D01*
X155539453Y-106437421D01*
X155544339Y-106431446D01*
X155548742Y-106425333D01*
X155552681Y-106419051D01*
X155556160Y-106412557D01*
X155559197Y-106405818D01*
X155561801Y-106398794D01*
X155563986Y-106391450D01*
X155565764Y-106383748D01*
X155566502Y-106381334D01*
X155567142Y-106378823D01*
X155567680Y-106376223D01*
X155568115Y-106373538D01*
X155568445Y-106370773D01*
X155568668Y-106367932D01*
X155568783Y-106365021D01*
X155568789Y-106362044D01*
X155568684Y-106359005D01*
X155568467Y-106355909D01*
X155568133Y-106352759D01*
X155567688Y-106349563D01*
X155567123Y-106346324D01*
X155566440Y-106343046D01*
X155565636Y-106339734D01*
X155564712Y-106336391D01*
X155563663Y-106333027D01*
X155562489Y-106329641D01*
X155561189Y-106326239D01*
X155559762Y-106322827D01*
X155558205Y-106319409D01*
X155556516Y-106315989D01*
X155554693Y-106312572D01*
X155552739Y-106309163D01*
X155550648Y-106305766D01*
X155548420Y-106302387D01*
X155546055Y-106299027D01*
X155543548Y-106295695D01*
X155540900Y-106292394D01*
X155538108Y-106289128D01*
X155535171Y-106285902D01*
X155532087Y-106282721D01*
X155527250Y-106275119D01*
X155522205Y-106268069D01*
X155516936Y-106261540D01*
X155511434Y-106255493D01*
X155505686Y-106249885D01*
X155499677Y-106244689D01*
X155493398Y-106239860D01*
X155486836Y-106235363D01*
X155479977Y-106231165D01*
X155472809Y-106227227D01*
X155465320Y-106223507D01*
X155457501Y-106219973D01*
X155449334Y-106216588D01*
X155440811Y-106213314D01*
X155422642Y-106206950D01*
X155212164Y-106350075D01*
X154819185Y-106350075D01*
X155456315Y-105920704D01*
X155565761Y-106080668D01*
G37*
G36*
X154336725Y-104805318D02*
G01*
X154362901Y-104818869D01*
X154376534Y-104826185D01*
X154390656Y-104833997D01*
X154405373Y-104842398D01*
X154420783Y-104851491D01*
X154452223Y-104870565D01*
X154467695Y-104880350D01*
X154482873Y-104890430D01*
X154497655Y-104900904D01*
X154511942Y-104911872D01*
X154518871Y-104917572D01*
X154525641Y-104923431D01*
X154532236Y-104929464D01*
X154538648Y-104935682D01*
X154553850Y-104948310D01*
X154567916Y-104960938D01*
X154580900Y-104973567D01*
X154592845Y-104986196D01*
X154603805Y-104998824D01*
X154613827Y-105011452D01*
X154622962Y-105024080D01*
X154631258Y-105036709D01*
X154638764Y-105049337D01*
X154645528Y-105061966D01*
X154651605Y-105074595D01*
X154657038Y-105087224D01*
X154661882Y-105099852D01*
X154666182Y-105112481D01*
X154669989Y-105125110D01*
X154673353Y-105137736D01*
X154674831Y-105144052D01*
X154676111Y-105150365D01*
X154677186Y-105156680D01*
X154678055Y-105162995D01*
X154678714Y-105169309D01*
X154679161Y-105175622D01*
X154679390Y-105181938D01*
X154679402Y-105188251D01*
X154679194Y-105194565D01*
X154678756Y-105200880D01*
X154678095Y-105207194D01*
X154677199Y-105213509D01*
X154676069Y-105219822D01*
X154674705Y-105226136D01*
X154673098Y-105232451D01*
X154671247Y-105238764D01*
X154669151Y-105245079D01*
X154666801Y-105251395D01*
X154664202Y-105257708D01*
X154661348Y-105264021D01*
X154658234Y-105270336D01*
X154654858Y-105276650D01*
X154651216Y-105282964D01*
X154647305Y-105289279D01*
X154643125Y-105295593D01*
X154638669Y-105301907D01*
X154633936Y-105308221D01*
X154628923Y-105314536D01*
X154623626Y-105320849D01*
X154618040Y-105327165D01*
X154612166Y-105333478D01*
X154605999Y-105339794D01*
X154455447Y-105509165D01*
X154336593Y-105642874D01*
X154193469Y-105516591D01*
X154218727Y-105474497D01*
X154206093Y-105474101D01*
X154193435Y-105472918D01*
X154180729Y-105470946D01*
X154167947Y-105468184D01*
X154155070Y-105464631D01*
X154142067Y-105460290D01*
X154128917Y-105455160D01*
X154115594Y-105449240D01*
X154102072Y-105442533D01*
X154088331Y-105435032D01*
X154074340Y-105426746D01*
X154060080Y-105417669D01*
X154045524Y-105407802D01*
X154030647Y-105397148D01*
X154015422Y-105385705D01*
X153999831Y-105373470D01*
X153984835Y-105352094D01*
X153971417Y-105331902D01*
X153965299Y-105322127D01*
X153959578Y-105312499D01*
X153954248Y-105302970D01*
X153949317Y-105293489D01*
X153944779Y-105284011D01*
X153940636Y-105274482D01*
X153936886Y-105264854D01*
X153933531Y-105255080D01*
X153930572Y-105245107D01*
X153928006Y-105234887D01*
X153925836Y-105224372D01*
X153924570Y-105216627D01*
X154097497Y-105216627D01*
X154097667Y-105220450D01*
X154098087Y-105224322D01*
X154098755Y-105228244D01*
X154099667Y-105232215D01*
X154100826Y-105236236D01*
X154102231Y-105240306D01*
X154103885Y-105244425D01*
X154105784Y-105248592D01*
X154107930Y-105252810D01*
X154110320Y-105257078D01*
X154112960Y-105261395D01*
X154115847Y-105265760D01*
X154118978Y-105270175D01*
X154122357Y-105274639D01*
X154125985Y-105279154D01*
X154129857Y-105283716D01*
X154133976Y-105288328D01*
X154138342Y-105292990D01*
X154142954Y-105297702D01*
X154153999Y-105305391D01*
X154165020Y-105312665D01*
X154175993Y-105319493D01*
X154186889Y-105325852D01*
X154197689Y-105331718D01*
X154208365Y-105337066D01*
X154218893Y-105341871D01*
X154229248Y-105346109D01*
X154239406Y-105349755D01*
X154249341Y-105352787D01*
X154259032Y-105355174D01*
X154268449Y-105356896D01*
X154277571Y-105357927D01*
X154286373Y-105358244D01*
X154294828Y-105357821D01*
X154302915Y-105356633D01*
X154361847Y-105280863D01*
X154243982Y-105179834D01*
X154239247Y-105175294D01*
X154234527Y-105171136D01*
X154229830Y-105167348D01*
X154225170Y-105163917D01*
X154220559Y-105160833D01*
X154216011Y-105158080D01*
X154211537Y-105155648D01*
X154207148Y-105153525D01*
X154202858Y-105151698D01*
X154198679Y-105150155D01*
X154194625Y-105148882D01*
X154190705Y-105147869D01*
X154186934Y-105147102D01*
X154183322Y-105146570D01*
X154179882Y-105146261D01*
X154176630Y-105146159D01*
X154173378Y-105146258D01*
X154169955Y-105146553D01*
X154166382Y-105147048D01*
X154162687Y-105147737D01*
X154158892Y-105148624D01*
X154155022Y-105149711D01*
X154151105Y-105150993D01*
X154147163Y-105152473D01*
X154143222Y-105154149D01*
X154139304Y-105156025D01*
X154135436Y-105158095D01*
X154131641Y-105160367D01*
X154127945Y-105162832D01*
X154124373Y-105165495D01*
X154120947Y-105168358D01*
X154117697Y-105171417D01*
X154114663Y-105174597D01*
X154111877Y-105177827D01*
X154109336Y-105181108D01*
X154107040Y-105184439D01*
X154104995Y-105187819D01*
X154103192Y-105191247D01*
X154101640Y-105194724D01*
X154100334Y-105198251D01*
X154099273Y-105201827D01*
X154098458Y-105205454D01*
X154097892Y-105209128D01*
X154097571Y-105212853D01*
X154097497Y-105216627D01*
X153924570Y-105216627D01*
X153924060Y-105213511D01*
X153922778Y-105202560D01*
X153922087Y-105191805D01*
X153921987Y-105181250D01*
X153922481Y-105170891D01*
X153923567Y-105160727D01*
X153925243Y-105150763D01*
X153927512Y-105140995D01*
X153930375Y-105131426D01*
X153933828Y-105122053D01*
X153937870Y-105112877D01*
X153942509Y-105103901D01*
X153947738Y-105095120D01*
X153953559Y-105086538D01*
X153959970Y-105078151D01*
X153966977Y-105069962D01*
X153974572Y-105061971D01*
X153983952Y-105052798D01*
X153993171Y-105044228D01*
X154002266Y-105036274D01*
X154011276Y-105028952D01*
X154020235Y-105022269D01*
X154029182Y-105016241D01*
X154038153Y-105010879D01*
X154047187Y-105006195D01*
X154056320Y-105002200D01*
X154065587Y-104998909D01*
X154075028Y-104996333D01*
X154084677Y-104994486D01*
X154094576Y-104993378D01*
X154104756Y-104993023D01*
X154115257Y-104993432D01*
X154126115Y-104994619D01*
X154137166Y-104996396D01*
X154148232Y-104998581D01*
X154159320Y-105001186D01*
X154170447Y-105004220D01*
X154181623Y-105007701D01*
X154192858Y-105011637D01*
X154204170Y-105016041D01*
X154215566Y-105020927D01*
X154227063Y-105026306D01*
X154238669Y-105032189D01*
X154250402Y-105038592D01*
X154262267Y-105045525D01*
X154274280Y-105053002D01*
X154286454Y-105061032D01*
X154298801Y-105069631D01*
X154311332Y-105078808D01*
X154446038Y-105196672D01*
X154454458Y-105188251D01*
X154458995Y-105183517D01*
X154463139Y-105178780D01*
X154466888Y-105174046D01*
X154470244Y-105169310D01*
X154473202Y-105164575D01*
X154475768Y-105159838D01*
X154477937Y-105155104D01*
X154479715Y-105150367D01*
X154481096Y-105145631D01*
X154482081Y-105140896D01*
X154482674Y-105136160D01*
X154482872Y-105131424D01*
X154482674Y-105126689D01*
X154482083Y-105121953D01*
X154481096Y-105117217D01*
X154479715Y-105112481D01*
X154477937Y-105107742D01*
X154475768Y-105102979D01*
X154473204Y-105098162D01*
X154470244Y-105093275D01*
X154466888Y-105088288D01*
X154463141Y-105083178D01*
X154458995Y-105077919D01*
X154454458Y-105072491D01*
X154449525Y-105066862D01*
X154444197Y-105061012D01*
X154432359Y-105048548D01*
X154418942Y-105034900D01*
X154403945Y-105019871D01*
X154394281Y-105010593D01*
X154384244Y-105001686D01*
X154373866Y-104993122D01*
X154363164Y-104984880D01*
X154352169Y-104976934D01*
X154340901Y-104969258D01*
X154329387Y-104961831D01*
X154317649Y-104954625D01*
X154293610Y-104940779D01*
X154268977Y-104927526D01*
X154218727Y-104902005D01*
X154311336Y-104792558D01*
X154336725Y-104805318D01*
G37*
G36*
X149849268Y-115181596D02*
G01*
X159286957Y-111283602D01*
X158397305Y-112281384D01*
X156154040Y-114713288D01*
X154724340Y-116203861D01*
X153195687Y-117737152D01*
X151647891Y-119207893D01*
X150928116Y-119838515D01*
X150160772Y-120510815D01*
X150105566Y-120552574D01*
X150088109Y-120564437D01*
X150048949Y-120591045D01*
X149991043Y-120626237D01*
X149931961Y-120658165D01*
X149871828Y-120686842D01*
X149810756Y-120712284D01*
X149748869Y-120734505D01*
X149686282Y-120753519D01*
X149623117Y-120769337D01*
X149559490Y-120781975D01*
X149495521Y-120791446D01*
X149431329Y-120797767D01*
X149367030Y-120800949D01*
X149302748Y-120801005D01*
X149238595Y-120797950D01*
X149174697Y-120791799D01*
X149111168Y-120782564D01*
X149048127Y-120770260D01*
X148985694Y-120754900D01*
X148923986Y-120736500D01*
X148863122Y-120715070D01*
X148803223Y-120690629D01*
X148744407Y-120663186D01*
X148686790Y-120632760D01*
X148630492Y-120599357D01*
X148575636Y-120562999D01*
X148522333Y-120523698D01*
X148470709Y-120481464D01*
X148420878Y-120436313D01*
X148372957Y-120388260D01*
X148327073Y-120337318D01*
X148283337Y-120283501D01*
X147721095Y-119505228D01*
X147280273Y-118862027D01*
X148108328Y-118862027D01*
X148108363Y-118887183D01*
X148109477Y-118912012D01*
X148111645Y-118936483D01*
X148114841Y-118960560D01*
X148119035Y-118984215D01*
X148124204Y-119007414D01*
X148130320Y-119030123D01*
X148137359Y-119052312D01*
X148145294Y-119073948D01*
X148154099Y-119094995D01*
X148163745Y-119115427D01*
X148174211Y-119135207D01*
X148185466Y-119154304D01*
X148197485Y-119172687D01*
X148210244Y-119190322D01*
X148223713Y-119207176D01*
X148237870Y-119223219D01*
X148252686Y-119238416D01*
X148268136Y-119252738D01*
X148284194Y-119266148D01*
X148300831Y-119278618D01*
X148318026Y-119290111D01*
X148335748Y-119300599D01*
X148353972Y-119310049D01*
X148372671Y-119318426D01*
X148391824Y-119325702D01*
X148411399Y-119331838D01*
X148431371Y-119336808D01*
X148451717Y-119340574D01*
X148471418Y-119342235D01*
X148491044Y-119342496D01*
X148510565Y-119341395D01*
X148529952Y-119338964D01*
X148549182Y-119335238D01*
X148568221Y-119330253D01*
X148587046Y-119324039D01*
X148605626Y-119316633D01*
X148623934Y-119308069D01*
X148641946Y-119298377D01*
X148659628Y-119287596D01*
X148676957Y-119275757D01*
X148710440Y-119249041D01*
X148742172Y-119218500D01*
X148771931Y-119184409D01*
X148799492Y-119147036D01*
X148824638Y-119106656D01*
X148842362Y-119072702D01*
X149884935Y-119072702D01*
X149885113Y-119098001D01*
X149886403Y-119123007D01*
X149888774Y-119147678D01*
X149892190Y-119171980D01*
X149896625Y-119195873D01*
X149902047Y-119219324D01*
X149908423Y-119242294D01*
X149915723Y-119264746D01*
X149923922Y-119286640D01*
X149932981Y-119307945D01*
X149942873Y-119328619D01*
X149953563Y-119348630D01*
X149965030Y-119367936D01*
X149977232Y-119386502D01*
X149990147Y-119404293D01*
X150003737Y-119421269D01*
X150017976Y-119437393D01*
X150032833Y-119452630D01*
X150048275Y-119466941D01*
X150064269Y-119480292D01*
X150080791Y-119492643D01*
X150097804Y-119503958D01*
X150115281Y-119514202D01*
X150133188Y-119523332D01*
X150151496Y-119531318D01*
X150170175Y-119538119D01*
X150189194Y-119543700D01*
X150208520Y-119548022D01*
X150228122Y-119551050D01*
X150247849Y-119552733D01*
X150267544Y-119553062D01*
X150287173Y-119552070D01*
X150306706Y-119549783D01*
X150326109Y-119546233D01*
X150345350Y-119541448D01*
X150364395Y-119535459D01*
X150383217Y-119528292D01*
X150401778Y-119519979D01*
X150420048Y-119510547D01*
X150437994Y-119500028D01*
X150455582Y-119488452D01*
X150472785Y-119475842D01*
X150489566Y-119462233D01*
X150521734Y-119432133D01*
X150551833Y-119398380D01*
X150579600Y-119361211D01*
X150604777Y-119320862D01*
X150627102Y-119277563D01*
X150646325Y-119231554D01*
X150662177Y-119183066D01*
X150674404Y-119132331D01*
X150679079Y-119106197D01*
X150682749Y-119079588D01*
X150686106Y-119053645D01*
X150688309Y-119027931D01*
X150689377Y-119002483D01*
X150689343Y-118977324D01*
X150688227Y-118952496D01*
X150686059Y-118928026D01*
X150682865Y-118903949D01*
X150678671Y-118880293D01*
X150673502Y-118857094D01*
X150667385Y-118834386D01*
X150660345Y-118812198D01*
X150652411Y-118790562D01*
X150643607Y-118769512D01*
X150633960Y-118749082D01*
X150623495Y-118729300D01*
X150612239Y-118710203D01*
X150600219Y-118691822D01*
X150587462Y-118674186D01*
X150573991Y-118657332D01*
X150559834Y-118641290D01*
X150545018Y-118626092D01*
X150529569Y-118611772D01*
X150513511Y-118598360D01*
X150496874Y-118585892D01*
X150479680Y-118574397D01*
X150461958Y-118563909D01*
X150443732Y-118554460D01*
X150425030Y-118546083D01*
X150405881Y-118538809D01*
X150386305Y-118532672D01*
X150366333Y-118527701D01*
X150345989Y-118523933D01*
X150325474Y-118521511D01*
X150304997Y-118520533D01*
X150284592Y-118520968D01*
X150264299Y-118522781D01*
X150244154Y-118525939D01*
X150224193Y-118530407D01*
X150204456Y-118536152D01*
X150184976Y-118543139D01*
X150165793Y-118551336D01*
X150146943Y-118560704D01*
X150128462Y-118571217D01*
X150110389Y-118582833D01*
X150092760Y-118595523D01*
X150075612Y-118609253D01*
X150058981Y-118623988D01*
X150042905Y-118639695D01*
X150027422Y-118656337D01*
X150012568Y-118673884D01*
X149998379Y-118692300D01*
X149984894Y-118711551D01*
X149972148Y-118731604D01*
X149960179Y-118752426D01*
X149949025Y-118773980D01*
X149938721Y-118796234D01*
X149929304Y-118819157D01*
X149920813Y-118842707D01*
X149913283Y-118866859D01*
X149906755Y-118891573D01*
X149901259Y-118916819D01*
X149896840Y-118942559D01*
X149893528Y-118968763D01*
X149891364Y-118995396D01*
X149888029Y-119021362D01*
X149885895Y-119047143D01*
X149884935Y-119072702D01*
X148842362Y-119072702D01*
X148847145Y-119063538D01*
X148866792Y-119017953D01*
X148883355Y-118970172D01*
X148896612Y-118920468D01*
X148906340Y-118869112D01*
X148909701Y-118843169D01*
X148911900Y-118817457D01*
X148912971Y-118792007D01*
X148912936Y-118766850D01*
X148911822Y-118742023D01*
X148909654Y-118717551D01*
X148906458Y-118693473D01*
X148902264Y-118669818D01*
X148897095Y-118646620D01*
X148890977Y-118623912D01*
X148883937Y-118601723D01*
X148876003Y-118580087D01*
X148867200Y-118559038D01*
X148857553Y-118538606D01*
X148847087Y-118518826D01*
X148835833Y-118499728D01*
X148823814Y-118481346D01*
X148811055Y-118463712D01*
X148797583Y-118446856D01*
X148783428Y-118430815D01*
X148768612Y-118415617D01*
X148753162Y-118401297D01*
X148737105Y-118387886D01*
X148720466Y-118375417D01*
X148703271Y-118363923D01*
X148685551Y-118353434D01*
X148667327Y-118343985D01*
X148648625Y-118335607D01*
X148629475Y-118328333D01*
X148609898Y-118322196D01*
X148589927Y-118317227D01*
X148569583Y-118313459D01*
X148549138Y-118311059D01*
X148528867Y-118310151D01*
X148508788Y-118310697D01*
X148488928Y-118312653D01*
X148469307Y-118315985D01*
X148449951Y-118320653D01*
X148430880Y-118326621D01*
X148412118Y-118333849D01*
X148393693Y-118342297D01*
X148375621Y-118351927D01*
X148357931Y-118362699D01*
X148340640Y-118374579D01*
X148323777Y-118387524D01*
X148307363Y-118401498D01*
X148275970Y-118432376D01*
X148246650Y-118466905D01*
X148219586Y-118504776D01*
X148194963Y-118545682D01*
X148172967Y-118589314D01*
X148153785Y-118635360D01*
X148137600Y-118683516D01*
X148124595Y-118733474D01*
X148114956Y-118784921D01*
X148111598Y-118810864D01*
X148109397Y-118836578D01*
X148108328Y-118862027D01*
X147280273Y-118862027D01*
X147146953Y-118667501D01*
X146567558Y-117785449D01*
X145989555Y-116874206D01*
X144864323Y-115024676D01*
X143824429Y-113239965D01*
X142923053Y-111641130D01*
X142213376Y-110349227D01*
X141581819Y-109170436D01*
X149849268Y-115181596D01*
G37*
G36*
X148375943Y-103757026D02*
G01*
X148373577Y-103756284D01*
X148371206Y-103755638D01*
X148368834Y-103755080D01*
X148366456Y-103754607D01*
X148364072Y-103754216D01*
X148361680Y-103753899D01*
X148356869Y-103753474D01*
X148352009Y-103753294D01*
X148347086Y-103753325D01*
X148342089Y-103753528D01*
X148337005Y-103753868D01*
X148315564Y-103755840D01*
X148309863Y-103756304D01*
X148304004Y-103756679D01*
X148297971Y-103756932D01*
X148291753Y-103757026D01*
X148285537Y-103757120D01*
X148279503Y-103757402D01*
X148273644Y-103757856D01*
X148267944Y-103758472D01*
X148262393Y-103759234D01*
X148256977Y-103760131D01*
X148251684Y-103761154D01*
X148246502Y-103762286D01*
X148241418Y-103763518D01*
X148236420Y-103764836D01*
X148226638Y-103767680D01*
X148217051Y-103770722D01*
X148207564Y-103773864D01*
X148195312Y-103779801D01*
X148183753Y-103785046D01*
X148172784Y-103789700D01*
X148162310Y-103793859D01*
X148152229Y-103797623D01*
X148142448Y-103801093D01*
X148123373Y-103807539D01*
X148117471Y-103813475D01*
X148112454Y-103818721D01*
X148110312Y-103821115D01*
X148108427Y-103823373D01*
X148106812Y-103825510D01*
X148105484Y-103827534D01*
X148104448Y-103829459D01*
X148103724Y-103831299D01*
X148103480Y-103832191D01*
X148103316Y-103833066D01*
X148103240Y-103833924D01*
X148103246Y-103834768D01*
X148103338Y-103835604D01*
X148103520Y-103836424D01*
X148103788Y-103837238D01*
X148104151Y-103838042D01*
X148104603Y-103838841D01*
X148105151Y-103839635D01*
X148105795Y-103840426D01*
X148106534Y-103841217D01*
X148131792Y-103866472D01*
X148215983Y-103866472D01*
X148222313Y-103866457D01*
X148228744Y-103866341D01*
X148232025Y-103866218D01*
X148235369Y-103866030D01*
X148238787Y-103865769D01*
X148242290Y-103865421D01*
X148245895Y-103864976D01*
X148249609Y-103864418D01*
X148253446Y-103863739D01*
X148257420Y-103862922D01*
X148261541Y-103861957D01*
X148265822Y-103860834D01*
X148270276Y-103859538D01*
X148274916Y-103858056D01*
X148312408Y-103858186D01*
X148330413Y-103858498D01*
X148347530Y-103859107D01*
X148363462Y-103860110D01*
X148370893Y-103860791D01*
X148377917Y-103861607D01*
X148384496Y-103862570D01*
X148390595Y-103863695D01*
X148396175Y-103864993D01*
X148401201Y-103866474D01*
X148406028Y-103868150D01*
X148411016Y-103870011D01*
X148421325Y-103874236D01*
X148431835Y-103879054D01*
X148437069Y-103881652D01*
X148442243Y-103884366D01*
X148447319Y-103887174D01*
X148452257Y-103890071D01*
X148457025Y-103893040D01*
X148461580Y-103896072D01*
X148465891Y-103899153D01*
X148469917Y-103902272D01*
X148473623Y-103905414D01*
X148476971Y-103908571D01*
X148480129Y-103911919D01*
X148483283Y-103915640D01*
X148486443Y-103919705D01*
X148489600Y-103924092D01*
X148492757Y-103928774D01*
X148495914Y-103933727D01*
X148502228Y-103944350D01*
X148508542Y-103955761D01*
X148514857Y-103967765D01*
X148527485Y-103992758D01*
X148531827Y-104003804D01*
X148535378Y-104014825D01*
X148538140Y-104025798D01*
X148540115Y-104036695D01*
X148540805Y-104042109D01*
X148541298Y-104047494D01*
X148541595Y-104052849D01*
X148541693Y-104058170D01*
X148541594Y-104063455D01*
X148541298Y-104068698D01*
X148540805Y-104073899D01*
X148540115Y-104079054D01*
X148539225Y-104084159D01*
X148538139Y-104089212D01*
X148536858Y-104094209D01*
X148535378Y-104099149D01*
X148533700Y-104104025D01*
X148531827Y-104108838D01*
X148529755Y-104113581D01*
X148527485Y-104118255D01*
X148525019Y-104122854D01*
X148522353Y-104127378D01*
X148519493Y-104131820D01*
X148516436Y-104136179D01*
X148513179Y-104140451D01*
X148509726Y-104144635D01*
X148506077Y-104148726D01*
X148502229Y-104152720D01*
X148494134Y-104160612D01*
X148485621Y-104168506D01*
X148476661Y-104176399D01*
X148467237Y-104184292D01*
X148457317Y-104192185D01*
X148446880Y-104200077D01*
X148435897Y-104207972D01*
X148424351Y-104215864D01*
X148412213Y-104223756D01*
X148399458Y-104231648D01*
X148386059Y-104239542D01*
X148371995Y-104247435D01*
X148357243Y-104255327D01*
X148341774Y-104263221D01*
X148325566Y-104271113D01*
X148308593Y-104279006D01*
X148299124Y-104285123D01*
X148289667Y-104290861D01*
X148280233Y-104296226D01*
X148270840Y-104301235D01*
X148261493Y-104305900D01*
X148252210Y-104310229D01*
X148243000Y-104314239D01*
X148233876Y-104317941D01*
X148224850Y-104321348D01*
X148215936Y-104324468D01*
X148198489Y-104329911D01*
X148181635Y-104334367D01*
X148165471Y-104337934D01*
X148149717Y-104341060D01*
X148134162Y-104343987D01*
X148119002Y-104346519D01*
X148111631Y-104347576D01*
X148104432Y-104348460D01*
X148097432Y-104349146D01*
X148090651Y-104349611D01*
X148084121Y-104349829D01*
X148077858Y-104349775D01*
X148071895Y-104349425D01*
X148066251Y-104348757D01*
X148060950Y-104347738D01*
X148056022Y-104346352D01*
X147997091Y-104186391D01*
X148009734Y-104186377D01*
X148022477Y-104186261D01*
X148035419Y-104185947D01*
X148048656Y-104185339D01*
X148055416Y-104184894D01*
X148062288Y-104184337D01*
X148069283Y-104183657D01*
X148076412Y-104182842D01*
X148083690Y-104181877D01*
X148091129Y-104180754D01*
X148098741Y-104179455D01*
X148106537Y-104177974D01*
X148114334Y-104176487D01*
X148121944Y-104175163D01*
X148136661Y-104172843D01*
X148150787Y-104170721D01*
X148164417Y-104168502D01*
X148171078Y-104167263D01*
X148177654Y-104165887D01*
X148184155Y-104164340D01*
X148190595Y-104162582D01*
X148196985Y-104160578D01*
X148203340Y-104158290D01*
X148209668Y-104155683D01*
X148215985Y-104152717D01*
X148230995Y-104149543D01*
X148237942Y-104147925D01*
X148244531Y-104146271D01*
X148250771Y-104144567D01*
X148256680Y-104142800D01*
X148262269Y-104140963D01*
X148267550Y-104139036D01*
X148272534Y-104137011D01*
X148277235Y-104134877D01*
X148281666Y-104132617D01*
X148285834Y-104130222D01*
X148289760Y-104127681D01*
X148293447Y-104124978D01*
X148296917Y-104122101D01*
X148300172Y-104119042D01*
X148303313Y-104115867D01*
X148304855Y-104114251D01*
X148306355Y-104112596D01*
X148307811Y-104110891D01*
X148309203Y-104109127D01*
X148310520Y-104107286D01*
X148311751Y-104105360D01*
X148312883Y-104103336D01*
X148313905Y-104101200D01*
X148314803Y-104098941D01*
X148315566Y-104096546D01*
X148316180Y-104094004D01*
X148316427Y-104092674D01*
X148316633Y-104091300D01*
X148316795Y-104089885D01*
X148316914Y-104088425D01*
X148316986Y-104086918D01*
X148317011Y-104085364D01*
X148313838Y-104082223D01*
X148312219Y-104080685D01*
X148310567Y-104079181D01*
X148308862Y-104077728D01*
X148307096Y-104076337D01*
X148305258Y-104075019D01*
X148303331Y-104073788D01*
X148301307Y-104072655D01*
X148299170Y-104071634D01*
X148296912Y-104070736D01*
X148294518Y-104069973D01*
X148291975Y-104069359D01*
X148290644Y-104069111D01*
X148289271Y-104068905D01*
X148287855Y-104068742D01*
X148286393Y-104068623D01*
X148284890Y-104068549D01*
X148283334Y-104068527D01*
X148199146Y-104068527D01*
X148131795Y-104068527D01*
X148119361Y-104068336D01*
X148107312Y-104067787D01*
X148095630Y-104066917D01*
X148084306Y-104065765D01*
X148073329Y-104064365D01*
X148062681Y-104062757D01*
X148042343Y-104059056D01*
X147971832Y-104043272D01*
X147965522Y-104039916D01*
X147959237Y-104036167D01*
X147953000Y-104032024D01*
X147946839Y-104027485D01*
X147940774Y-104022553D01*
X147934835Y-104017225D01*
X147929044Y-104011502D01*
X147923423Y-104005385D01*
X147918002Y-103998872D01*
X147912801Y-103991967D01*
X147907846Y-103984667D01*
X147903166Y-103976970D01*
X147898779Y-103968880D01*
X147894713Y-103960394D01*
X147890993Y-103951515D01*
X147887641Y-103942242D01*
X147884040Y-103930499D01*
X147881129Y-103918954D01*
X147878903Y-103907605D01*
X147877364Y-103896447D01*
X147876509Y-103885479D01*
X147876339Y-103874702D01*
X147876850Y-103864112D01*
X147878038Y-103853710D01*
X147879907Y-103843493D01*
X147882453Y-103833457D01*
X147885671Y-103823605D01*
X147889565Y-103813934D01*
X147894132Y-103804441D01*
X147899368Y-103795124D01*
X147905272Y-103785984D01*
X147911847Y-103777018D01*
X147919085Y-103768225D01*
X147926989Y-103759602D01*
X147935555Y-103751149D01*
X147944784Y-103742865D01*
X147954668Y-103734747D01*
X147965216Y-103726793D01*
X147976418Y-103719004D01*
X147988276Y-103711378D01*
X148000787Y-103703909D01*
X148013949Y-103696600D01*
X148027765Y-103689448D01*
X148042227Y-103682453D01*
X148057336Y-103675611D01*
X148073094Y-103668921D01*
X148089495Y-103662384D01*
X148106537Y-103655996D01*
X148112949Y-103652934D01*
X148119543Y-103650059D01*
X148126314Y-103647355D01*
X148133243Y-103644813D01*
X148140318Y-103642421D01*
X148147532Y-103640160D01*
X148162315Y-103636001D01*
X148177490Y-103632235D01*
X148192964Y-103628766D01*
X148224403Y-103622321D01*
X148232196Y-103620837D01*
X148239790Y-103619527D01*
X148254395Y-103617322D01*
X148281229Y-103613901D01*
X148293465Y-103612289D01*
X148304908Y-103610482D01*
X148310335Y-103609440D01*
X148315563Y-103608279D01*
X148320595Y-103606968D01*
X148325427Y-103605483D01*
X148375943Y-103757026D01*
G37*
%TO.C,PU1*%
X115420000Y-92700000D02*
G75*
G03*
X114020000Y-92700000I-700000J0D01*
G01*
X114020000Y-92700000D02*
G75*
G03*
X115420000Y-92700000I700000J0D01*
G01*
%TO.C,D1*%
X133150000Y-73410000D02*
X133150000Y-75610000D01*
X133050000Y-73410000D02*
X133150000Y-73410000D01*
X132150000Y-73410000D02*
X131950000Y-73410000D01*
X131050000Y-73410000D02*
X130950000Y-73410000D01*
X130950000Y-73410000D02*
X130950000Y-75660000D01*
X130950000Y-74710000D02*
X133150000Y-74710000D01*
X133150000Y-74910000D02*
X130950000Y-74910000D01*
X133150000Y-75610000D02*
X133050000Y-75610000D01*
X132150000Y-75610000D02*
X131950000Y-75610000D01*
X130950000Y-75660000D02*
X131050000Y-75660000D01*
%TO.C,C4*%
X123340000Y-93507836D02*
X123340000Y-93292164D01*
X124060000Y-93507836D02*
X124060000Y-93292164D01*
%TO.C,U3*%
X111175000Y-88975000D02*
X111435000Y-88975000D01*
X111435000Y-88975000D02*
X111435000Y-90650000D01*
X116625000Y-88975000D02*
X116365000Y-88975000D01*
X111175000Y-86250000D02*
X111175000Y-88975000D01*
X111175000Y-86250000D02*
X111175000Y-83525000D01*
X116625000Y-86250000D02*
X116625000Y-88975000D01*
X116625000Y-86250000D02*
X116625000Y-83525000D01*
X111175000Y-83525000D02*
X111435000Y-83525000D01*
X116625000Y-83525000D02*
X116365000Y-83525000D01*
D14*
%TO.C,REF\u002A\u002A*%
X97600000Y-129150000D02*
G75*
G03*
X96100000Y-129150000I-750000J0D01*
G01*
X96100000Y-129150000D02*
G75*
G03*
X97600000Y-129150000I750000J0D01*
G01*
D13*
%TO.C,C1*%
X128012164Y-90340000D02*
X128227836Y-90340000D01*
X128012164Y-91060000D02*
X128227836Y-91060000D01*
%TO.C,U2*%
X126362500Y-94510000D02*
X128162500Y-94510000D01*
X126362500Y-94510000D02*
X125562500Y-94510000D01*
X126362500Y-91390000D02*
X127162500Y-91390000D01*
X126362500Y-91390000D02*
X125562500Y-91390000D01*
%TO.C,D3*%
X133150000Y-87410000D02*
X133150000Y-89610000D01*
X133050000Y-87410000D02*
X133150000Y-87410000D01*
X132150000Y-87410000D02*
X131950000Y-87410000D01*
X131050000Y-87410000D02*
X130950000Y-87410000D01*
X130950000Y-87410000D02*
X130950000Y-89660000D01*
X130950000Y-88710000D02*
X133150000Y-88710000D01*
X133150000Y-88910000D02*
X130950000Y-88910000D01*
X133150000Y-89610000D02*
X133050000Y-89610000D01*
X132150000Y-89610000D02*
X131950000Y-89610000D01*
X130950000Y-89660000D02*
X131050000Y-89660000D01*
D10*
%TO.C,SW4*%
X136625000Y-95875000D02*
X136625000Y-95125000D01*
X134375000Y-95875000D02*
X134375000Y-95125000D01*
X137175000Y-93400000D02*
X133825000Y-93400000D01*
X133825000Y-93400000D02*
X133825000Y-97600000D01*
X133825000Y-97600000D02*
X137175000Y-97600000D01*
X137175000Y-97600000D02*
X137175000Y-93400000D01*
X136625000Y-95125000D02*
G75*
G03*
X134375000Y-95125000I-1125000J0D01*
G01*
X134375000Y-95875000D02*
G75*
G03*
X136625000Y-95875000I1125000J0D01*
G01*
D13*
%TO.C,Y1*%
X100850000Y-88350000D02*
X103650000Y-88350000D01*
X103650000Y-88350000D02*
X103650000Y-85050000D01*
D14*
%TO.C,REF\u002A\u002A*%
X159500000Y-129150000D02*
G75*
G03*
X158000000Y-129150000I-750000J0D01*
G01*
X158000000Y-129150000D02*
G75*
G03*
X159500000Y-129150000I750000J0D01*
G01*
D13*
%TO.C,U5*%
X128462500Y-73910000D02*
X130262500Y-73910000D01*
X128462500Y-73910000D02*
X127662500Y-73910000D01*
X128462500Y-70790000D02*
X129262500Y-70790000D01*
X128462500Y-70790000D02*
X127662500Y-70790000D01*
D14*
%TO.C,REF\u002A\u002A*%
X97600000Y-66850000D02*
G75*
G03*
X96100000Y-66850000I-750000J0D01*
G01*
X96100000Y-66850000D02*
G75*
G03*
X97600000Y-66850000I750000J0D01*
G01*
%TD*%
%LPC*%
%TO.C,REF\u002A\u002A*%
G36*
X150313031Y-111871160D02*
G01*
X150362547Y-111922591D01*
X150456489Y-112033024D01*
X150543721Y-112152732D01*
X150624342Y-112280728D01*
X150698453Y-112416022D01*
X150766150Y-112557633D01*
X150827533Y-112704570D01*
X150882699Y-112855849D01*
X150931751Y-113010482D01*
X150974782Y-113167483D01*
X151011894Y-113325865D01*
X151043187Y-113484641D01*
X151068755Y-113642827D01*
X151088703Y-113799433D01*
X151103123Y-113953474D01*
X151112118Y-114103964D01*
X149950299Y-114575426D01*
X148830570Y-113758784D01*
X148843493Y-113730661D01*
X148856996Y-113703091D01*
X148871065Y-113676039D01*
X148885690Y-113649469D01*
X148900855Y-113623342D01*
X148916553Y-113597623D01*
X148949488Y-113547258D01*
X148984398Y-113498076D01*
X149021181Y-113449782D01*
X149059743Y-113402079D01*
X149099979Y-113354674D01*
X149133256Y-113314409D01*
X149165217Y-113274177D01*
X149195877Y-113234060D01*
X149225261Y-113194136D01*
X149253379Y-113154492D01*
X149280250Y-113115208D01*
X149330318Y-113038040D01*
X149375599Y-112963291D01*
X149416233Y-112891613D01*
X149452354Y-112823659D01*
X149484096Y-112760083D01*
X149511594Y-112701540D01*
X149534989Y-112648678D01*
X149554409Y-112602159D01*
X149569996Y-112562631D01*
X149590204Y-112507169D01*
X149596700Y-112487517D01*
X149605414Y-112503304D01*
X149626954Y-112549082D01*
X149640377Y-112582478D01*
X149654416Y-112622485D01*
X149668207Y-112668805D01*
X149680889Y-112721143D01*
X149691598Y-112779206D01*
X149699468Y-112842694D01*
X149703643Y-112911312D01*
X149704072Y-112947451D01*
X149703252Y-112984763D01*
X149701076Y-113023210D01*
X149697436Y-113062754D01*
X149692223Y-113103359D01*
X149685328Y-113144987D01*
X149676648Y-113187604D01*
X149666070Y-113231167D01*
X149653487Y-113275644D01*
X149638794Y-113320998D01*
X149683636Y-113279041D01*
X149726630Y-113235354D01*
X149767790Y-113190073D01*
X149807142Y-113143343D01*
X149844702Y-113095308D01*
X149880497Y-113046106D01*
X149914549Y-112995881D01*
X149946877Y-112944774D01*
X149977500Y-112892929D01*
X150006448Y-112840482D01*
X150059382Y-112734365D01*
X150105855Y-112627557D01*
X150146039Y-112521193D01*
X150180105Y-112416407D01*
X150208228Y-112314336D01*
X150230578Y-112216112D01*
X150247329Y-112122870D01*
X150258655Y-112035745D01*
X150264727Y-111955871D01*
X150265717Y-111884384D01*
X150261799Y-111822418D01*
X150313031Y-111871160D01*
G37*
G36*
X150959786Y-105860523D02*
G01*
X150965311Y-106521612D01*
X150979518Y-107132186D01*
X151004776Y-107695008D01*
X151022288Y-107959375D01*
X151043449Y-108212843D01*
X151068559Y-108455751D01*
X151097911Y-108688448D01*
X151131800Y-108911280D01*
X151170524Y-109124590D01*
X151214379Y-109328727D01*
X151263659Y-109524034D01*
X151437729Y-109334080D01*
X151619098Y-109129919D01*
X151807963Y-108910763D01*
X152004530Y-108675820D01*
X152208986Y-108424302D01*
X152421533Y-108155421D01*
X152642367Y-107868386D01*
X152871686Y-107562408D01*
X152586361Y-108199753D01*
X152457461Y-108495784D01*
X152338130Y-108777902D01*
X152228669Y-109046996D01*
X152129367Y-109303957D01*
X152040524Y-109549670D01*
X151962434Y-109785025D01*
X152146298Y-109722388D01*
X152335058Y-109651355D01*
X152728695Y-109484439D01*
X153146206Y-109284964D01*
X153590455Y-109053622D01*
X154064305Y-108791105D01*
X154570611Y-108498102D01*
X155692046Y-107823399D01*
X155191956Y-108327108D01*
X154733204Y-108798554D01*
X154315297Y-109240995D01*
X153937741Y-109657685D01*
X153600042Y-110051880D01*
X153445987Y-110241562D01*
X153301712Y-110426839D01*
X153167155Y-110608121D01*
X153042254Y-110785813D01*
X152926946Y-110960324D01*
X152821171Y-111132062D01*
X153080599Y-111122243D01*
X153354332Y-111105620D01*
X153643258Y-111082484D01*
X153948265Y-111053133D01*
X154270241Y-111017862D01*
X154610075Y-110976968D01*
X155346869Y-110879491D01*
X154988257Y-111018750D01*
X154613759Y-111171130D01*
X154243011Y-111326865D01*
X153895643Y-111476189D01*
X153132673Y-111814000D01*
X154504970Y-112647479D01*
X152063463Y-113657758D01*
X152117395Y-113552634D01*
X152162657Y-113445813D01*
X152199642Y-113337573D01*
X152228751Y-113228193D01*
X152250387Y-113117950D01*
X152264952Y-113007121D01*
X152272843Y-112895983D01*
X152274464Y-112784815D01*
X152270215Y-112673893D01*
X152260495Y-112563495D01*
X152245708Y-112453899D01*
X152226252Y-112345383D01*
X152174940Y-112132698D01*
X152109768Y-111927656D01*
X152033939Y-111732482D01*
X151950662Y-111549395D01*
X151863143Y-111380610D01*
X151774585Y-111228353D01*
X151688200Y-111094842D01*
X151607192Y-110982296D01*
X151534768Y-110892936D01*
X151474133Y-110828978D01*
X151491291Y-110881174D01*
X151504834Y-110936369D01*
X151514701Y-110994005D01*
X151520833Y-111053528D01*
X151523165Y-111114383D01*
X151521637Y-111176015D01*
X151516190Y-111237868D01*
X151506757Y-111299389D01*
X151493280Y-111360022D01*
X151475695Y-111419212D01*
X151453943Y-111476404D01*
X151427961Y-111531042D01*
X151413364Y-111557231D01*
X151397687Y-111582573D01*
X151380920Y-111607000D01*
X151363059Y-111630442D01*
X151344093Y-111652829D01*
X151324013Y-111674094D01*
X151302820Y-111694163D01*
X151280497Y-111712970D01*
X151257929Y-111571051D01*
X151231470Y-111435659D01*
X151201423Y-111306660D01*
X151168090Y-111183924D01*
X151131772Y-111067316D01*
X151092771Y-110956705D01*
X151051391Y-110851958D01*
X151007931Y-110752943D01*
X150962695Y-110659528D01*
X150915988Y-110571578D01*
X150868110Y-110488961D01*
X150819359Y-110411547D01*
X150770044Y-110339200D01*
X150720461Y-110271791D01*
X150670917Y-110209184D01*
X150621709Y-110151249D01*
X150573146Y-110097851D01*
X150525524Y-110048860D01*
X150479151Y-110004141D01*
X150434320Y-109963566D01*
X150350518Y-109894302D01*
X150276532Y-109840009D01*
X150214780Y-109799628D01*
X150167678Y-109772098D01*
X150127096Y-109751347D01*
X150126796Y-109825460D01*
X150122827Y-109899396D01*
X150104388Y-110046619D01*
X150072802Y-110192782D01*
X150029093Y-110337650D01*
X149974286Y-110480987D01*
X149909402Y-110622564D01*
X149835465Y-110762142D01*
X149753503Y-110899486D01*
X149664535Y-111034364D01*
X149569584Y-111166543D01*
X149469676Y-111295784D01*
X149365835Y-111421858D01*
X149259082Y-111544528D01*
X149150444Y-111663559D01*
X148931599Y-111889770D01*
X148934492Y-111777297D01*
X148935809Y-111671928D01*
X148935382Y-111621168D01*
X148933967Y-111571294D01*
X148931370Y-111522015D01*
X148927390Y-111473029D01*
X148921832Y-111424045D01*
X148914498Y-111374764D01*
X148905192Y-111324891D01*
X148893713Y-111274131D01*
X148879868Y-111222187D01*
X148863458Y-111168763D01*
X148844283Y-111113562D01*
X148822153Y-111056289D01*
X148813121Y-111107970D01*
X148801898Y-111158862D01*
X148773381Y-111258477D01*
X148737614Y-111355525D01*
X148695605Y-111450403D01*
X148648368Y-111543506D01*
X148596912Y-111635227D01*
X148485393Y-111816103D01*
X148369138Y-111996191D01*
X148256239Y-112178646D01*
X148203575Y-112271748D01*
X148154781Y-112366628D01*
X148110875Y-112463674D01*
X148072863Y-112563289D01*
X148032083Y-112722459D01*
X148014554Y-112795041D01*
X147999196Y-112864267D01*
X147986204Y-112931127D01*
X147980658Y-112963977D01*
X147975780Y-112996605D01*
X147971592Y-113029133D01*
X147968118Y-113061686D01*
X147965385Y-113094388D01*
X147963415Y-113127361D01*
X145766058Y-111519335D01*
X147399343Y-111081547D01*
X146734243Y-110511160D01*
X146099398Y-109987606D01*
X145763723Y-109721485D01*
X145437718Y-109473521D01*
X146076246Y-109757661D01*
X146373311Y-109885524D01*
X146656367Y-110003916D01*
X146926003Y-110112836D01*
X147182817Y-110212285D01*
X147427395Y-110302263D01*
X147660332Y-110382770D01*
X147597698Y-110198907D01*
X147526664Y-110010148D01*
X147359748Y-109616510D01*
X147160272Y-109198999D01*
X146928929Y-108754747D01*
X146666415Y-108280900D01*
X146373411Y-107774593D01*
X145698705Y-106653160D01*
X146199342Y-107156291D01*
X146668206Y-107617394D01*
X147109053Y-108036273D01*
X147525628Y-108412727D01*
X147725986Y-108584983D01*
X147921683Y-108746558D01*
X148113185Y-108897432D01*
X148300963Y-109037575D01*
X148485487Y-109166962D01*
X148667223Y-109285572D01*
X148846639Y-109393379D01*
X149024207Y-109490358D01*
X149016463Y-109228170D01*
X149000135Y-108952464D01*
X148976112Y-108662354D01*
X148945280Y-108356952D01*
X148908529Y-108035369D01*
X148866747Y-107696718D01*
X148771638Y-106964661D01*
X148899156Y-107299793D01*
X149023024Y-107617264D01*
X149143537Y-107917569D01*
X149260992Y-108201201D01*
X149375684Y-108468652D01*
X149487911Y-108720415D01*
X149597965Y-108956986D01*
X149706146Y-109178854D01*
X149794506Y-109002317D01*
X149879868Y-108816691D01*
X149962594Y-108621766D01*
X150043038Y-108417331D01*
X150198508Y-107979101D01*
X150349143Y-107500319D01*
X150497809Y-106979313D01*
X150647361Y-106414401D01*
X150960573Y-105146162D01*
X150959786Y-105860523D01*
G37*
%TD*%
D15*
%TO.C,C13*%
X109700000Y-91425000D03*
X109700000Y-92065000D03*
%TD*%
D16*
%TO.C,C15*%
X110545000Y-90475000D03*
X109905000Y-90475000D03*
%TD*%
D17*
%TO.C,L2*%
X108000000Y-90800000D03*
X108452548Y-91252548D03*
%TD*%
D16*
%TO.C,C9*%
X102575000Y-88850000D03*
X101935000Y-88850000D03*
%TD*%
D18*
%TO.C,TP2*%
X102400000Y-71900000D03*
%TD*%
D19*
%TO.C,C11*%
X107426274Y-90223726D03*
X106973726Y-90676274D03*
%TD*%
D20*
%TO.C,REF\u002A\u002A*%
X100700000Y-67000000D03*
X100700000Y-66250000D03*
X100700000Y-65500000D03*
X100700000Y-64750000D03*
X100700000Y-64000000D03*
%TD*%
D21*
%TO.C,SW3*%
X136575000Y-86325000D03*
X136575000Y-90675000D03*
X134425000Y-86325000D03*
X134425000Y-90675000D03*
%TD*%
D22*
%TO.C,J1*%
X113580000Y-77280000D03*
X112780000Y-77280000D03*
D23*
X111630000Y-77280000D03*
X110630000Y-77280000D03*
X110130000Y-77280000D03*
X109130000Y-77280000D03*
D22*
X107980000Y-77280000D03*
X107180000Y-77280000D03*
X107180000Y-77280000D03*
X107980000Y-77280000D03*
D23*
X108630000Y-77280000D03*
X109630000Y-77280000D03*
X111130000Y-77280000D03*
X112130000Y-77280000D03*
D22*
X112780000Y-77280000D03*
X113580000Y-77280000D03*
D24*
X115980000Y-76100000D03*
D25*
X116000000Y-72100000D03*
D24*
X104780000Y-76100000D03*
D25*
X104760000Y-72100000D03*
%TD*%
D16*
%TO.C,C12*%
X104225000Y-89525000D03*
X103585000Y-89525000D03*
%TD*%
D15*
%TO.C,R7*%
X105725000Y-81155000D03*
X105725000Y-81795000D03*
%TD*%
D20*
%TO.C,REF\u002A\u002A*%
X148600000Y-99250000D03*
X149350000Y-99250000D03*
X150100000Y-99250000D03*
X150850000Y-99250000D03*
X151600000Y-99250000D03*
%TD*%
D16*
%TO.C,C7*%
X113220000Y-93000000D03*
X112580000Y-93000000D03*
%TD*%
D26*
%TO.C,C3*%
X122750000Y-93920000D03*
X122750000Y-93280000D03*
%TD*%
D15*
%TO.C,C18*%
X116400000Y-78285000D03*
X116400000Y-78925000D03*
%TD*%
D16*
%TO.C,R2*%
X113725000Y-79175000D03*
X113085000Y-79175000D03*
%TD*%
D21*
%TO.C,SW1*%
X136575000Y-72325000D03*
X136575000Y-76675000D03*
X134425000Y-72325000D03*
X134425000Y-76675000D03*
%TD*%
D27*
%TO.C,GND1*%
X118400000Y-71400000D03*
%TD*%
D28*
%TO.C,C17*%
X110625000Y-91450000D03*
X110625000Y-92410000D03*
%TD*%
D18*
%TO.C,TP1*%
X102450000Y-75200000D03*
%TD*%
D29*
%TO.C,D2*%
X131500000Y-82410000D03*
X132600000Y-82410000D03*
X132600000Y-80580000D03*
X131500000Y-80580000D03*
%TD*%
D15*
%TO.C,R8*%
X109475000Y-81160000D03*
X109475000Y-81800000D03*
%TD*%
%TO.C,R9*%
X106475000Y-81160000D03*
X106475000Y-81800000D03*
%TD*%
D30*
%TO.C,R1*%
X105130000Y-79100000D03*
X105770000Y-79100000D03*
%TD*%
D26*
%TO.C,R11*%
X101750000Y-81450000D03*
X101750000Y-80810000D03*
%TD*%
D15*
%TO.C,R5*%
X107975000Y-81160000D03*
X107975000Y-81800000D03*
%TD*%
D20*
%TO.C,REF\u002A\u002A*%
X100700000Y-129900000D03*
X100700000Y-129150000D03*
X100700000Y-128400000D03*
X100700000Y-127650000D03*
X100700000Y-126900000D03*
%TD*%
D27*
%TO.C,5V1*%
X129600000Y-92950000D03*
%TD*%
D16*
%TO.C,C14*%
X103700000Y-90300000D03*
X103060000Y-90300000D03*
%TD*%
D20*
%TO.C,REF\u002A\u002A*%
X100700000Y-106000000D03*
X100700000Y-105250000D03*
X100700000Y-104500000D03*
X100700000Y-103750000D03*
X100700000Y-103000000D03*
%TD*%
D31*
%TO.C,J2*%
X117750000Y-87750000D03*
X117750000Y-87250000D03*
X117750000Y-86750000D03*
X117750000Y-86250000D03*
X117750000Y-85750000D03*
X117750000Y-85250000D03*
X117750000Y-84750000D03*
X117750000Y-84250000D03*
X117750000Y-83750000D03*
X117750000Y-83250000D03*
X117750000Y-82750000D03*
X117750000Y-82250000D03*
X117750000Y-81750000D03*
X117750000Y-81250000D03*
X117750000Y-80750000D03*
X117750000Y-80250000D03*
X117750000Y-79750000D03*
X117750000Y-79250000D03*
X117750000Y-78750000D03*
X117750000Y-78250000D03*
X117750000Y-77750000D03*
X117750000Y-77250000D03*
X117750000Y-76750000D03*
X117750000Y-76250000D03*
D32*
X120450000Y-89450000D03*
X120450000Y-74460000D03*
%TD*%
D20*
%TO.C,REF\u002A\u002A*%
X144450000Y-70750000D03*
X145200000Y-70750000D03*
X145950000Y-70750000D03*
X146700000Y-70750000D03*
X147450000Y-70750000D03*
%TD*%
D27*
%TO.C,3V1*%
X121200000Y-92950000D03*
%TD*%
D30*
%TO.C,C10*%
X112020000Y-80970000D03*
X112660000Y-80970000D03*
%TD*%
D21*
%TO.C,SW2*%
X136575000Y-79325000D03*
X136575000Y-83675000D03*
X134425000Y-79325000D03*
X134425000Y-83675000D03*
%TD*%
D15*
%TO.C,R6*%
X107225000Y-81160000D03*
X107225000Y-81800000D03*
%TD*%
D29*
%TO.C,D4*%
X131500000Y-96410000D03*
X132600000Y-96410000D03*
X132600000Y-94580000D03*
X131500000Y-94580000D03*
%TD*%
D18*
%TO.C,BOOT1*%
X124850000Y-71400000D03*
%TD*%
D15*
%TO.C,R10*%
X108725000Y-81160000D03*
X108725000Y-81800000D03*
%TD*%
D20*
%TO.C,REF\u002A\u002A*%
X132450000Y-70700000D03*
X133200000Y-70700000D03*
X133950000Y-70700000D03*
X134700000Y-70700000D03*
X135450000Y-70700000D03*
%TD*%
D16*
%TO.C,C20*%
X129575000Y-74550000D03*
X128935000Y-74550000D03*
%TD*%
D18*
%TO.C,REF\u002A\u002A*%
X158750000Y-66850000D03*
%TD*%
D26*
%TO.C,R12*%
X120600000Y-72620000D03*
X120600000Y-71980000D03*
%TD*%
D20*
%TO.C,REF\u002A\u002A*%
X132450000Y-99300000D03*
X133200000Y-99300000D03*
X133950000Y-99300000D03*
X134700000Y-99300000D03*
X135450000Y-99300000D03*
%TD*%
D33*
%TO.C,U1*%
X103000000Y-80700000D03*
X103500000Y-80700000D03*
X104000000Y-80700000D03*
X104000000Y-79200000D03*
X103500000Y-79200000D03*
X103000000Y-79200000D03*
%TD*%
D34*
%TO.C,U4*%
X106050000Y-88887500D03*
X106550000Y-88887500D03*
X107050000Y-88887500D03*
X107550000Y-88887500D03*
X108050000Y-88887500D03*
X108550000Y-88887500D03*
X109050000Y-88887500D03*
X109550000Y-88887500D03*
D35*
X110237500Y-88200000D03*
X110237500Y-87700000D03*
X110237500Y-87200000D03*
X110237500Y-86700000D03*
X110237500Y-86200000D03*
X110237500Y-85700000D03*
X110237500Y-85200000D03*
X110237500Y-84700000D03*
D34*
X109550000Y-84012500D03*
X109050000Y-84012500D03*
X108550000Y-84012500D03*
X108050000Y-84012500D03*
X107550000Y-84012500D03*
X107050000Y-84012500D03*
X106550000Y-84012500D03*
X106050000Y-84012500D03*
D35*
X105362500Y-84700000D03*
X105362500Y-85200000D03*
X105362500Y-85700000D03*
X105362500Y-86200000D03*
X105362500Y-86700000D03*
X105362500Y-87200000D03*
X105362500Y-87700000D03*
X105362500Y-88200000D03*
D36*
X107800000Y-86450000D03*
%TD*%
D20*
%TO.C,REF\u002A\u002A*%
X142797232Y-116506712D03*
X143172232Y-117156232D03*
X143547232Y-117805750D03*
X143922231Y-118455270D03*
X144297231Y-119104790D03*
X148600002Y-102050000D03*
X149350001Y-102050000D03*
X150100001Y-102050000D03*
X150850001Y-102050000D03*
X151600000Y-102050000D03*
X154554775Y-119692314D03*
X155085105Y-119161984D03*
X155615434Y-118631655D03*
X156145764Y-118101324D03*
X156676093Y-117570994D03*
%TD*%
D30*
%TO.C,C8*%
X106030000Y-92400000D03*
X106670000Y-92400000D03*
%TD*%
%TO.C,C6*%
X101535000Y-84550000D03*
X102175000Y-84550000D03*
%TD*%
D18*
%TO.C,PU1*%
X114720000Y-92700000D03*
%TD*%
D26*
%TO.C,C16*%
X110600000Y-82645000D03*
X110600000Y-82005000D03*
%TD*%
D29*
%TO.C,D1*%
X131500000Y-75410000D03*
X132600000Y-75410000D03*
X132600000Y-73580000D03*
X131500000Y-73580000D03*
%TD*%
D20*
%TO.C,REF\u002A\u002A*%
X139300000Y-77050000D03*
X139300000Y-76300000D03*
X139300000Y-75550000D03*
X139300000Y-74800000D03*
X139300000Y-74050000D03*
%TD*%
D15*
%TO.C,L1*%
X106000000Y-90980000D03*
X106000000Y-91620000D03*
%TD*%
D37*
%TO.C,C4*%
X123700000Y-93880000D03*
X123700000Y-92920000D03*
%TD*%
D26*
%TO.C,C19*%
X125900000Y-73250000D03*
X125900000Y-72610000D03*
%TD*%
D20*
%TO.C,REF\u002A\u002A*%
X100700000Y-77050000D03*
X100700000Y-76300000D03*
X100700000Y-75550000D03*
X100700000Y-74800000D03*
X100700000Y-74050000D03*
%TD*%
D38*
%TO.C,U3*%
X111995000Y-89850000D03*
X113265000Y-89850000D03*
X114535000Y-89850000D03*
X115805000Y-89850000D03*
X115805000Y-82650000D03*
X114535000Y-82650000D03*
X113265000Y-82650000D03*
X111995000Y-82650000D03*
%TD*%
D18*
%TO.C,REF\u002A\u002A*%
X96850000Y-129150000D03*
%TD*%
D39*
%TO.C,C1*%
X127640000Y-90700000D03*
X128600000Y-90700000D03*
%TD*%
D15*
%TO.C,R4*%
X104200000Y-87280000D03*
X104200000Y-87920000D03*
%TD*%
D40*
%TO.C,U2*%
X127500000Y-93900000D03*
X127500000Y-92950000D03*
X127500000Y-92000000D03*
X125225000Y-92000000D03*
X125225000Y-93900000D03*
%TD*%
D29*
%TO.C,D3*%
X131500000Y-89410000D03*
X132600000Y-89410000D03*
X132600000Y-87580000D03*
X131500000Y-87580000D03*
%TD*%
D21*
%TO.C,SW4*%
X136575000Y-93325000D03*
X136575000Y-97675000D03*
X134425000Y-93325000D03*
X134425000Y-97675000D03*
%TD*%
D41*
%TO.C,Y1*%
X102950000Y-87575000D03*
X102950000Y-85825000D03*
X101550000Y-85825000D03*
X101550000Y-87575000D03*
%TD*%
D26*
%TO.C,C2*%
X126700000Y-90765000D03*
X126700000Y-90125000D03*
%TD*%
D20*
%TO.C,REF\u002A\u002A*%
X157250000Y-70750000D03*
X158000000Y-70750000D03*
X158750000Y-70750000D03*
X159500000Y-70750000D03*
X160250000Y-70750000D03*
%TD*%
D16*
%TO.C,C5*%
X105975000Y-90200000D03*
X105335000Y-90200000D03*
%TD*%
D18*
%TO.C,REF\u002A\u002A*%
X158750000Y-129150000D03*
%TD*%
D40*
%TO.C,U5*%
X129600000Y-73300000D03*
X129600000Y-72350000D03*
X129600000Y-71400000D03*
X127325000Y-71400000D03*
X127325000Y-72350000D03*
X127325000Y-73300000D03*
%TD*%
D16*
%TO.C,R3*%
X113220000Y-92200000D03*
X112580000Y-92200000D03*
%TD*%
D18*
%TO.C,REF\u002A\u002A*%
X96850000Y-66850000D03*
%TD*%
%LPD*%
M02*
