M48
INCH
T1C0.0118
T2C0.0118
T3C0.0200
T4C0.0236
%
G90
G05
T1
X3.9567Y-2.7835
X3.9567Y-3.185
X3.9567Y-3.3189
X3.9567Y-3.3858
X3.9567Y-3.4528
X3.9567Y-3.5197
X3.9567Y-3.5866
X3.9567Y-3.6535
X3.9567Y-3.689
X3.9574Y-3.7215
X3.9872Y-3.4921
X3.9921Y-3.689
X3.9941Y-3.3012
X4.0059Y-3.2303
X4.0079Y-3.5236
X4.0276Y-3.689
X4.0295Y-3.3051
X4.0307Y-3.1083
X4.0307Y-3.1673
X4.0319Y-3.2443
X4.0329Y-3.2047
X4.0354Y-3.5709
X4.0394Y-3.7177
X4.0472Y-3.5236
X4.0512Y-3.3386
X4.0551Y-3.1457
X4.0551Y-3.685
X4.0709Y-2.7756
X4.0728Y-3.5876
X4.0748Y-3.2087
X4.0748Y-3.4961
X4.0787Y-3.3524
X4.0787Y-3.6575
X4.0827Y-3.3898
X4.0945Y-3.1457
X4.0984Y-3.2598
X4.1087Y-3.6047
X4.1122Y-3.3839
X4.1142Y-3.7205
X4.1152Y-3.6467
X4.1201Y-3.2874
X4.124Y-3.2264
X4.1244Y-3.574
X4.126Y-2.9213
X4.128Y-3.1949
X4.1358Y-3.2579
X4.1358Y-3.7047
X4.1378Y-3.1437
X4.1427Y-3.628
X4.1437Y-3.5994
X4.1457Y-3.4988
X4.1457Y-3.5236
X4.1496Y-3.3051
X4.1575Y-3.7205
X4.1626Y-3.1736
X4.1713Y-3.6969
X4.189Y-3.0425
X4.189Y-3.3829
X4.189Y-3.4242
X4.1919Y-3.163
X4.1949Y-3.6781
X4.2008Y-3.5955
X4.2008Y-3.7205
X4.2215Y-3.1736
X4.222Y-3.6598
X4.2234Y-3.4232
X4.2244Y-3.3484
X4.2244Y-3.3829
X4.2323Y-3.6063
X4.2343Y-3.2628
X4.2441Y-3.7205
X4.2451Y-3.6378
X4.2542Y-3.54
X4.2638Y-3.3484
X4.2638Y-3.3829
X4.2638Y-3.4242
X4.2648Y-3.4577
X4.2776Y-3.628
X4.2795Y-3.6732
X4.2803Y-3.1724
X4.2858Y-3.541
X4.2874Y-3.7205
X4.2963Y-3.5994
X4.2982Y-3.3829
X4.2982Y-3.4232
X4.3031Y-3.0866
X4.3102Y-3.1701
X4.3228Y-3.5335
X4.3268Y-3.6496
X4.3291Y-3.3079
X4.3307Y-3.1063
X4.3337Y-3.7205
X4.3522Y-3.5118
X4.3583Y-3.0866
X4.3772Y-3.4301
X4.378Y-3.6811
X4.378Y-3.7205
X4.3787Y-3.5543
X4.3809Y-3.2211
X4.3858Y-3.1063
X4.4035Y-3.3081
X4.4213Y-3.7205
X4.4297Y-3.5374
X4.4331Y-3.4262
X4.4596Y-3.2102
X4.4646Y-3.7205
X4.465Y-3.1772
X4.4685Y-3.3081
X4.4797Y-3.5374
X4.4843Y-3.4262
X4.5031Y-3.0425
X4.5079Y-3.7205
X4.5098Y-3.2096
X4.5165Y-3.6496
X4.5169Y-3.1626
X4.5297Y-3.5374
X4.5315Y-3.3346
X4.5315Y-3.3661
X4.5315Y-3.4262
X4.5413Y-3.4678
X4.5512Y-3.7205
X4.5531Y-3.1181
X4.5593Y-3.2098
X4.5659Y-3.3346
X4.5709Y-3.6929
X4.5846Y-3.1398
X4.5876Y-3.565
X4.5886Y-3.3976
X4.5906Y-3.0512
X4.5925Y-3.1988
X4.5945Y-3.7205
X4.6102Y-2.9134
X4.6319Y-3.5748
X4.6654Y-3.6299
X4.6752Y-3.2402
X4.6772Y-3.3031
X4.6811Y-3.439
X4.685Y-3.5217
X4.6969Y-2.9646
X4.6988Y-3.3937
X4.7205Y-2.8602
X4.7205Y-3.0315
X4.7205Y-3.7205
X4.7441Y-3.1181
X4.748Y-2.7756
X4.7559Y-3.6043
X4.7579Y-3.2815
X4.7598Y-3.4409
X4.7992Y-2.878
X4.8425Y-3.5984
X4.8504Y-3.3976
X4.8878Y-2.9547
X4.9035Y-3.124
X4.9134Y-3.4803
X4.9173Y-3.2874
X4.9272Y-3.561
X4.9567Y-2.7756
X4.9764Y-3.7205
X5.0098Y-3.4055
X5.0394Y-3.0886
X5.0492Y-3.2795
X5.0492Y-3.4724
X5.0906Y-3.5945
X5.122Y-2.7756
X5.1378Y-2.9331
X5.1378Y-3.2283
X5.1437Y-2.8524
X5.185Y-3.6535
X5.1988Y-3.4843
X5.1988Y-3.7598
X5.2992Y-3.5079
X5.3228Y-3.4764
X5.3307Y-3.7008
X5.3366Y-3.624
X5.3465Y-3.4449
X5.4449Y-2.7756
X5.4921Y-2.8504
X5.4921Y-3.1496
X5.4921Y-3.2677
X5.4921Y-3.4252
X5.4921Y-3.5433
X5.4921Y-3.7008
X5.4921Y-3.7992
T2
X3.9961Y-3.7224
T3
X4.0748Y-3.0815
X4.503Y-3.0827
X4.6614Y-2.811
X4.9154Y-2.811
X4.9744Y-3.6594
X5.0591Y-2.8465
X5.1016Y-3.6594
T4
G00X4.1244Y-2.8622
M15
G01X4.1244Y-2.815
M16
G05
G00X4.1252Y-3.0118
M15
G01X4.1252Y-2.9803
M16
G05
G00X4.5661Y-3.0118
M15
G01X4.5661Y-2.9803
M16
G05
G00X4.5669Y-2.8622
M15
G01X4.5669Y-2.815
M16
G05
M30
